G75*
G70*
%OFA0B0*%
%FSLAX25Y25*%
%IPPOS*%
%LPD*%
%AMOC8*
5,1,8,0,0,1.08239X$1,22.5*
%
%AMM3*
21,1,0.023620,0.018900,0.000000,0.000000,180.000000*
21,1,0.018900,0.023620,0.000000,0.000000,180.000000*
1,1,0.004720,-0.009450,0.009450*
1,1,0.004720,0.009450,0.009450*
1,1,0.004720,0.009450,-0.009450*
1,1,0.004720,-0.009450,-0.009450*
%
%AMM4*
21,1,0.019680,0.019680,0.000000,0.000000,270.000000*
21,1,0.015750,0.023620,0.000000,0.000000,270.000000*
1,1,0.003940,-0.009840,-0.007870*
1,1,0.003940,-0.009840,0.007870*
1,1,0.003940,0.009840,0.007870*
1,1,0.003940,0.009840,-0.007870*
%
%AMM5*
21,1,0.033470,0.026770,0.000000,0.000000,270.000000*
21,1,0.026770,0.033470,0.000000,0.000000,270.000000*
1,1,0.006690,-0.013390,-0.013390*
1,1,0.006690,-0.013390,0.013390*
1,1,0.006690,0.013390,0.013390*
1,1,0.006690,0.013390,-0.013390*
%
%AMM6*
21,1,0.019680,0.019680,0.000000,0.000000,0.000000*
21,1,0.015750,0.023620,0.000000,0.000000,0.000000*
1,1,0.003940,0.007870,-0.009840*
1,1,0.003940,-0.007870,-0.009840*
1,1,0.003940,-0.007870,0.009840*
1,1,0.003940,0.007870,0.009840*
%
%ADD34M3*%
%ADD35M4*%
%ADD36M5*%
%ADD37M6*%
X0000000Y0000000D02*
%LPD*%
G01*
X0037748Y0101118D02*
G01*
G75*
D34*
X0065701Y0111354D02*
D03*
X0069638Y0111354D02*
D03*
X0054578Y0111354D02*
D03*
X0050641Y0111354D02*
D03*
X0046212Y0111354D02*
D03*
X0042275Y0111354D02*
D03*
X0065701Y0104071D02*
D03*
X0069638Y0104071D02*
D03*
D35*
X0062316Y0103874D02*
D03*
X0062316Y0107417D02*
D03*
D36*
X0058431Y0110587D02*
D03*
X0058431Y0104366D02*
D03*
D37*
X0045819Y0107417D02*
D03*
X0042276Y0107417D02*
D03*
X0054185Y0103874D02*
D03*
X0050642Y0103874D02*
D03*
X0069047Y0107475D02*
D03*
X0065504Y0107475D02*
D03*
X0042276Y0103874D02*
D03*
X0045819Y0103874D02*
D03*
X0037748Y0086205D02*
G01*
G75*
D34*
X0065701Y0096441D02*
D03*
X0069638Y0096441D02*
D03*
X0054578Y0096441D02*
D03*
X0050641Y0096441D02*
D03*
X0046212Y0096441D02*
D03*
X0042275Y0096441D02*
D03*
X0065701Y0089158D02*
D03*
X0069638Y0089158D02*
D03*
D35*
X0062316Y0088961D02*
D03*
X0062316Y0092504D02*
D03*
D36*
X0058431Y0095674D02*
D03*
X0058431Y0089453D02*
D03*
D37*
X0045819Y0092504D02*
D03*
X0042276Y0092504D02*
D03*
X0054185Y0088961D02*
D03*
X0050642Y0088961D02*
D03*
X0069047Y0092562D02*
D03*
X0065504Y0092562D02*
D03*
X0042276Y0088961D02*
D03*
X0045819Y0088961D02*
D03*
M02*
