G75*
G70*
%OFA0B0*%
%FSLAX25Y25*%
%IPPOS*%
%LPD*%
%AMOC8*
5,1,8,0,0,1.08239X$1,22.5*
%
%ADD24C,0.00591*%
%ADD25C,0.00472*%
%ADD26C,0.00787*%
%ADD27C,0.00500*%
X0000000Y0000000D02*
%LPD*%
G01*
D24*
X0101864Y0006320D02*
X0100551Y0008194D01*
X0099614Y0006320D02*
X0099614Y0010257D01*
X0099614Y0010257D02*
X0101114Y0010257D01*
X0101114Y0010257D02*
X0101489Y0010069D01*
X0101489Y0010069D02*
X0101676Y0009882D01*
X0101676Y0009882D02*
X0101864Y0009507D01*
X0101864Y0009507D02*
X0101864Y0008944D01*
X0101864Y0008944D02*
X0101676Y0008569D01*
X0101676Y0008569D02*
X0101489Y0008382D01*
X0101489Y0008382D02*
X0101114Y0008194D01*
X0101114Y0008194D02*
X0099614Y0008194D01*
X0105613Y0006320D02*
X0103363Y0006320D01*
X0104488Y0006320D02*
X0104488Y0010257D01*
X0104488Y0010257D02*
X0104113Y0009694D01*
X0104113Y0009694D02*
X0103738Y0009319D01*
X0103738Y0009319D02*
X0103363Y0009132D01*
X0020566Y0088317D02*
X0016629Y0088317D01*
X0020566Y0090191D02*
X0016629Y0090191D01*
X0016629Y0090191D02*
X0020566Y0092441D01*
X0020566Y0092441D02*
X0016629Y0092441D01*
X0020941Y0093379D02*
X0020941Y0096378D01*
X0020566Y0097316D02*
X0016629Y0097316D01*
X0020566Y0099565D02*
X0018316Y0097878D01*
X0016629Y0099565D02*
X0018879Y0097316D01*
X0020566Y0101253D02*
X0016629Y0101253D01*
X0016629Y0101253D02*
X0020566Y0103502D01*
X0020566Y0103502D02*
X0016629Y0103502D01*
X0016629Y0106127D02*
X0016629Y0106877D01*
X0016629Y0106877D02*
X0016817Y0107252D01*
X0016817Y0107252D02*
X0017192Y0107627D01*
X0017192Y0107627D02*
X0017942Y0107814D01*
X0017942Y0107814D02*
X0019254Y0107814D01*
X0019254Y0107814D02*
X0020004Y0107627D01*
X0020004Y0107627D02*
X0020379Y0107252D01*
X0020379Y0107252D02*
X0020566Y0106877D01*
X0020566Y0106877D02*
X0020566Y0106127D01*
X0020566Y0106127D02*
X0020379Y0105752D01*
X0020379Y0105752D02*
X0020004Y0105377D01*
X0020004Y0105377D02*
X0019254Y0105190D01*
X0019254Y0105190D02*
X0017942Y0105190D01*
X0017942Y0105190D02*
X0017192Y0105377D01*
X0017192Y0105377D02*
X0016817Y0105752D01*
X0016817Y0105752D02*
X0016629Y0106127D01*
X0020191Y0111751D02*
X0020379Y0111564D01*
X0020379Y0111564D02*
X0020566Y0111001D01*
X0020566Y0111001D02*
X0020566Y0110626D01*
X0020566Y0110626D02*
X0020379Y0110064D01*
X0020379Y0110064D02*
X0020004Y0109689D01*
X0020004Y0109689D02*
X0019629Y0109501D01*
X0019629Y0109501D02*
X0018879Y0109314D01*
X0018879Y0109314D02*
X0018316Y0109314D01*
X0018316Y0109314D02*
X0017567Y0109501D01*
X0017567Y0109501D02*
X0017192Y0109689D01*
X0017192Y0109689D02*
X0016817Y0110064D01*
X0016817Y0110064D02*
X0016629Y0110626D01*
X0016629Y0110626D02*
X0016629Y0111001D01*
X0016629Y0111001D02*
X0016817Y0111564D01*
X0016817Y0111564D02*
X0017004Y0111751D01*
X0020566Y0113439D02*
X0016629Y0113439D01*
X0020566Y0115688D02*
X0018316Y0114001D01*
X0016629Y0115688D02*
X0018879Y0113439D01*
X0017004Y0117188D02*
X0016817Y0117376D01*
X0016817Y0117376D02*
X0016629Y0117750D01*
X0016629Y0117750D02*
X0016629Y0118688D01*
X0016629Y0118688D02*
X0016817Y0119063D01*
X0016817Y0119063D02*
X0017004Y0119250D01*
X0017004Y0119250D02*
X0017379Y0119438D01*
X0017379Y0119438D02*
X0017754Y0119438D01*
X0017754Y0119438D02*
X0018316Y0119250D01*
X0018316Y0119250D02*
X0020566Y0117001D01*
X0020566Y0117001D02*
X0020566Y0119438D01*
X0017390Y0062069D02*
X0017203Y0061881D01*
X0017203Y0061881D02*
X0016640Y0061694D01*
X0016640Y0061694D02*
X0016265Y0061694D01*
X0016265Y0061694D02*
X0015703Y0061881D01*
X0015703Y0061881D02*
X0015328Y0062256D01*
X0015328Y0062256D02*
X0015141Y0062631D01*
X0015141Y0062631D02*
X0014953Y0063381D01*
X0014953Y0063381D02*
X0014953Y0063943D01*
X0014953Y0063943D02*
X0015141Y0064693D01*
X0015141Y0064693D02*
X0015328Y0065068D01*
X0015328Y0065068D02*
X0015703Y0065443D01*
X0015703Y0065443D02*
X0016265Y0065631D01*
X0016265Y0065631D02*
X0016640Y0065631D01*
X0016640Y0065631D02*
X0017203Y0065443D01*
X0017203Y0065443D02*
X0017390Y0065256D01*
X0018890Y0065256D02*
X0019078Y0065443D01*
X0019078Y0065443D02*
X0019453Y0065631D01*
X0019453Y0065631D02*
X0020390Y0065631D01*
X0020390Y0065631D02*
X0020765Y0065443D01*
X0020765Y0065443D02*
X0020952Y0065256D01*
X0020952Y0065256D02*
X0021140Y0064881D01*
X0021140Y0064881D02*
X0021140Y0064506D01*
X0021140Y0064506D02*
X0020952Y0063943D01*
X0020952Y0063943D02*
X0018703Y0061694D01*
X0018703Y0061694D02*
X0021140Y0061694D01*
X0023577Y0065631D02*
X0023952Y0065631D01*
X0023952Y0065631D02*
X0024327Y0065443D01*
X0024327Y0065443D02*
X0024514Y0065256D01*
X0024514Y0065256D02*
X0024702Y0064881D01*
X0024702Y0064881D02*
X0024889Y0064131D01*
X0024889Y0064131D02*
X0024889Y0063193D01*
X0024889Y0063193D02*
X0024702Y0062444D01*
X0024702Y0062444D02*
X0024514Y0062069D01*
X0024514Y0062069D02*
X0024327Y0061881D01*
X0024327Y0061881D02*
X0023952Y0061694D01*
X0023952Y0061694D02*
X0023577Y0061694D01*
X0023577Y0061694D02*
X0023202Y0061881D01*
X0023202Y0061881D02*
X0023015Y0062069D01*
X0023015Y0062069D02*
X0022827Y0062444D01*
X0022827Y0062444D02*
X0022640Y0063193D01*
X0022640Y0063193D02*
X0022640Y0064131D01*
X0022640Y0064131D02*
X0022827Y0064881D01*
X0022827Y0064881D02*
X0023015Y0065256D01*
X0023015Y0065256D02*
X0023202Y0065443D01*
X0023202Y0065443D02*
X0023577Y0065631D01*
X0019910Y0063073D02*
X0019723Y0062885D01*
X0019723Y0062885D02*
X0019160Y0062698D01*
X0019160Y0062698D02*
X0018785Y0062698D01*
X0018785Y0062698D02*
X0018223Y0062885D01*
X0018223Y0062885D02*
X0017848Y0063260D01*
X0017848Y0063260D02*
X0017660Y0063635D01*
X0017660Y0063635D02*
X0017473Y0064385D01*
X0017473Y0064385D02*
X0017473Y0064947D01*
X0017473Y0064947D02*
X0017660Y0065697D01*
X0017660Y0065697D02*
X0017848Y0066072D01*
X0017848Y0066072D02*
X0018223Y0066447D01*
X0018223Y0066447D02*
X0018785Y0066635D01*
X0018785Y0066635D02*
X0019160Y0066635D01*
X0019160Y0066635D02*
X0019723Y0066447D01*
X0019723Y0066447D02*
X0019910Y0066260D01*
X0023660Y0062698D02*
X0021410Y0062698D01*
X0022535Y0062698D02*
X0022535Y0066635D01*
X0022535Y0066635D02*
X0022160Y0066072D01*
X0022160Y0066072D02*
X0021785Y0065697D01*
X0021785Y0065697D02*
X0021410Y0065510D01*
X0025909Y0064947D02*
X0025534Y0065135D01*
X0025534Y0065135D02*
X0025347Y0065322D01*
X0025347Y0065322D02*
X0025159Y0065697D01*
X0025159Y0065697D02*
X0025159Y0065885D01*
X0025159Y0065885D02*
X0025347Y0066260D01*
X0025347Y0066260D02*
X0025534Y0066447D01*
X0025534Y0066447D02*
X0025909Y0066635D01*
X0025909Y0066635D02*
X0026659Y0066635D01*
X0026659Y0066635D02*
X0027034Y0066447D01*
X0027034Y0066447D02*
X0027222Y0066260D01*
X0027222Y0066260D02*
X0027409Y0065885D01*
X0027409Y0065885D02*
X0027409Y0065697D01*
X0027409Y0065697D02*
X0027222Y0065322D01*
X0027222Y0065322D02*
X0027034Y0065135D01*
X0027034Y0065135D02*
X0026659Y0064947D01*
X0026659Y0064947D02*
X0025909Y0064947D01*
X0025909Y0064947D02*
X0025534Y0064760D01*
X0025534Y0064760D02*
X0025347Y0064572D01*
X0025347Y0064572D02*
X0025159Y0064197D01*
X0025159Y0064197D02*
X0025159Y0063447D01*
X0025159Y0063447D02*
X0025347Y0063073D01*
X0025347Y0063073D02*
X0025534Y0062885D01*
X0025534Y0062885D02*
X0025909Y0062698D01*
X0025909Y0062698D02*
X0026659Y0062698D01*
X0026659Y0062698D02*
X0027034Y0062885D01*
X0027034Y0062885D02*
X0027222Y0063073D01*
X0027222Y0063073D02*
X0027409Y0063447D01*
X0027409Y0063447D02*
X0027409Y0064197D01*
X0027409Y0064197D02*
X0027222Y0064572D01*
X0027222Y0064572D02*
X0027034Y0064760D01*
X0027034Y0064760D02*
X0026659Y0064947D01*
X0022892Y0058768D02*
X0023080Y0058581D01*
X0023080Y0058581D02*
X0023267Y0058018D01*
X0023267Y0058018D02*
X0023267Y0057643D01*
X0023267Y0057643D02*
X0023080Y0057081D01*
X0023080Y0057081D02*
X0022705Y0056706D01*
X0022705Y0056706D02*
X0022330Y0056519D01*
X0022330Y0056519D02*
X0021580Y0056331D01*
X0021580Y0056331D02*
X0021017Y0056331D01*
X0021017Y0056331D02*
X0020267Y0056519D01*
X0020267Y0056519D02*
X0019892Y0056706D01*
X0019892Y0056706D02*
X0019517Y0057081D01*
X0019517Y0057081D02*
X0019330Y0057643D01*
X0019330Y0057643D02*
X0019330Y0058018D01*
X0019330Y0058018D02*
X0019517Y0058581D01*
X0019517Y0058581D02*
X0019705Y0058768D01*
X0023267Y0062518D02*
X0023267Y0060268D01*
X0023267Y0061393D02*
X0019330Y0061393D01*
X0019330Y0061393D02*
X0019892Y0061018D01*
X0019892Y0061018D02*
X0020267Y0060643D01*
X0020267Y0060643D02*
X0020455Y0060268D01*
X0019330Y0065892D02*
X0019330Y0065142D01*
X0019330Y0065142D02*
X0019517Y0064768D01*
X0019517Y0064768D02*
X0019705Y0064580D01*
X0019705Y0064580D02*
X0020267Y0064205D01*
X0020267Y0064205D02*
X0021017Y0064018D01*
X0021017Y0064018D02*
X0022517Y0064018D01*
X0022517Y0064018D02*
X0022892Y0064205D01*
X0022892Y0064205D02*
X0023080Y0064393D01*
X0023080Y0064393D02*
X0023267Y0064768D01*
X0023267Y0064768D02*
X0023267Y0065517D01*
X0023267Y0065517D02*
X0023080Y0065892D01*
X0023080Y0065892D02*
X0022892Y0066080D01*
X0022892Y0066080D02*
X0022517Y0066267D01*
X0022517Y0066267D02*
X0021580Y0066267D01*
X0021580Y0066267D02*
X0021205Y0066080D01*
X0021205Y0066080D02*
X0021017Y0065892D01*
X0021017Y0065892D02*
X0020830Y0065517D01*
X0020830Y0065517D02*
X0020830Y0064768D01*
X0020830Y0064768D02*
X0021017Y0064393D01*
X0021017Y0064393D02*
X0021205Y0064205D01*
X0021205Y0064205D02*
X0021580Y0064018D01*
X0065399Y0116013D02*
X0064087Y0117887D01*
X0063149Y0116013D02*
X0063149Y0119950D01*
X0063149Y0119950D02*
X0064649Y0119950D01*
X0064649Y0119950D02*
X0065024Y0119762D01*
X0065024Y0119762D02*
X0065211Y0119575D01*
X0065211Y0119575D02*
X0065399Y0119200D01*
X0065399Y0119200D02*
X0065399Y0118637D01*
X0065399Y0118637D02*
X0065211Y0118262D01*
X0065211Y0118262D02*
X0065024Y0118075D01*
X0065024Y0118075D02*
X0064649Y0117887D01*
X0064649Y0117887D02*
X0063149Y0117887D01*
X0068774Y0119950D02*
X0068024Y0119950D01*
X0068024Y0119950D02*
X0067649Y0119762D01*
X0067649Y0119762D02*
X0067461Y0119575D01*
X0067461Y0119575D02*
X0067086Y0119012D01*
X0067086Y0119012D02*
X0066899Y0118262D01*
X0066899Y0118262D02*
X0066899Y0116762D01*
X0066899Y0116762D02*
X0067086Y0116387D01*
X0067086Y0116387D02*
X0067274Y0116200D01*
X0067274Y0116200D02*
X0067649Y0116013D01*
X0067649Y0116013D02*
X0068399Y0116013D01*
X0068399Y0116013D02*
X0068774Y0116200D01*
X0068774Y0116200D02*
X0068961Y0116387D01*
X0068961Y0116387D02*
X0069148Y0116762D01*
X0069148Y0116762D02*
X0069148Y0117700D01*
X0069148Y0117700D02*
X0068961Y0118075D01*
X0068961Y0118075D02*
X0068774Y0118262D01*
X0068774Y0118262D02*
X0068399Y0118450D01*
X0068399Y0118450D02*
X0067649Y0118450D01*
X0067649Y0118450D02*
X0067274Y0118262D01*
X0067274Y0118262D02*
X0067086Y0118075D01*
X0067086Y0118075D02*
X0066899Y0117700D01*
X0031399Y0117013D02*
X0030087Y0118887D01*
X0029149Y0117013D02*
X0029149Y0120950D01*
X0029149Y0120950D02*
X0030649Y0120950D01*
X0030649Y0120950D02*
X0031024Y0120762D01*
X0031024Y0120762D02*
X0031211Y0120575D01*
X0031211Y0120575D02*
X0031399Y0120200D01*
X0031399Y0120200D02*
X0031399Y0119637D01*
X0031399Y0119637D02*
X0031211Y0119262D01*
X0031211Y0119262D02*
X0031024Y0119075D01*
X0031024Y0119075D02*
X0030649Y0118887D01*
X0030649Y0118887D02*
X0029149Y0118887D01*
X0032711Y0120950D02*
X0035336Y0120950D01*
X0035336Y0120950D02*
X0033649Y0117013D01*
X0055590Y0035131D02*
X0053715Y0033819D01*
X0055590Y0032882D02*
X0051653Y0032882D01*
X0051653Y0032882D02*
X0051653Y0034381D01*
X0051653Y0034381D02*
X0051840Y0034756D01*
X0051840Y0034756D02*
X0052028Y0034944D01*
X0052028Y0034944D02*
X0052403Y0035131D01*
X0052403Y0035131D02*
X0052965Y0035131D01*
X0052965Y0035131D02*
X0053340Y0034944D01*
X0053340Y0034944D02*
X0053528Y0034756D01*
X0053528Y0034756D02*
X0053715Y0034381D01*
X0053715Y0034381D02*
X0053715Y0032882D01*
X0052965Y0038506D02*
X0055590Y0038506D01*
X0051465Y0037568D02*
X0054278Y0036631D01*
X0054278Y0036631D02*
X0054278Y0039068D01*
X0074182Y0062600D02*
X0073994Y0062413D01*
X0073994Y0062413D02*
X0073432Y0062225D01*
X0073432Y0062225D02*
X0073057Y0062225D01*
X0073057Y0062225D02*
X0072494Y0062413D01*
X0072494Y0062413D02*
X0072119Y0062788D01*
X0072119Y0062788D02*
X0071932Y0063163D01*
X0071932Y0063163D02*
X0071744Y0063912D01*
X0071744Y0063912D02*
X0071744Y0064475D01*
X0071744Y0064475D02*
X0071932Y0065225D01*
X0071932Y0065225D02*
X0072119Y0065600D01*
X0072119Y0065600D02*
X0072494Y0065975D01*
X0072494Y0065975D02*
X0073057Y0066162D01*
X0073057Y0066162D02*
X0073432Y0066162D01*
X0073432Y0066162D02*
X0073994Y0065975D01*
X0073994Y0065975D02*
X0074182Y0065787D01*
X0075681Y0065787D02*
X0075869Y0065975D01*
X0075869Y0065975D02*
X0076244Y0066162D01*
X0076244Y0066162D02*
X0077181Y0066162D01*
X0077181Y0066162D02*
X0077556Y0065975D01*
X0077556Y0065975D02*
X0077744Y0065787D01*
X0077744Y0065787D02*
X0077931Y0065412D01*
X0077931Y0065412D02*
X0077931Y0065037D01*
X0077931Y0065037D02*
X0077744Y0064475D01*
X0077744Y0064475D02*
X0075494Y0062225D01*
X0075494Y0062225D02*
X0077931Y0062225D01*
X0079431Y0065787D02*
X0079618Y0065975D01*
X0079618Y0065975D02*
X0079993Y0066162D01*
X0079993Y0066162D02*
X0080931Y0066162D01*
X0080931Y0066162D02*
X0081306Y0065975D01*
X0081306Y0065975D02*
X0081493Y0065787D01*
X0081493Y0065787D02*
X0081681Y0065412D01*
X0081681Y0065412D02*
X0081681Y0065037D01*
X0081681Y0065037D02*
X0081493Y0064475D01*
X0081493Y0064475D02*
X0079244Y0062225D01*
X0079244Y0062225D02*
X0081681Y0062225D01*
X0031006Y0101123D02*
X0031006Y0103485D01*
X0031006Y0103485D02*
X0031793Y0101798D01*
X0031793Y0101798D02*
X0032581Y0103485D01*
X0032581Y0103485D02*
X0032581Y0101123D01*
X0034943Y0101123D02*
X0033593Y0101123D01*
X0034268Y0101123D02*
X0034268Y0103485D01*
X0034268Y0103485D02*
X0034043Y0103148D01*
X0034043Y0103148D02*
X0033818Y0102923D01*
X0033818Y0102923D02*
X0033593Y0102810D01*
X0011309Y0080993D02*
X0011309Y0084930D01*
X0013184Y0080993D02*
X0013184Y0084930D01*
X0013184Y0084930D02*
X0015433Y0080993D01*
X0015433Y0080993D02*
X0015433Y0084930D01*
X0016371Y0080618D02*
X0019370Y0080618D01*
X0020308Y0080993D02*
X0020308Y0084930D01*
X0022557Y0080993D02*
X0020870Y0083243D01*
X0022557Y0084930D02*
X0020308Y0082680D01*
X0024245Y0080993D02*
X0024245Y0084930D01*
X0024245Y0084930D02*
X0026494Y0080993D01*
X0026494Y0080993D02*
X0026494Y0084930D01*
X0029119Y0084930D02*
X0029869Y0084930D01*
X0029869Y0084930D02*
X0030244Y0084742D01*
X0030244Y0084742D02*
X0030619Y0084367D01*
X0030619Y0084367D02*
X0030806Y0083618D01*
X0030806Y0083618D02*
X0030806Y0082305D01*
X0030806Y0082305D02*
X0030619Y0081555D01*
X0030619Y0081555D02*
X0030244Y0081180D01*
X0030244Y0081180D02*
X0029869Y0080993D01*
X0029869Y0080993D02*
X0029119Y0080993D01*
X0029119Y0080993D02*
X0028744Y0081180D01*
X0028744Y0081180D02*
X0028369Y0081555D01*
X0028369Y0081555D02*
X0028182Y0082305D01*
X0028182Y0082305D02*
X0028182Y0083618D01*
X0028182Y0083618D02*
X0028369Y0084367D01*
X0028369Y0084367D02*
X0028744Y0084742D01*
X0028744Y0084742D02*
X0029119Y0084930D01*
X0034743Y0081368D02*
X0034556Y0081180D01*
X0034556Y0081180D02*
X0033993Y0080993D01*
X0033993Y0080993D02*
X0033618Y0080993D01*
X0033618Y0080993D02*
X0033056Y0081180D01*
X0033056Y0081180D02*
X0032681Y0081555D01*
X0032681Y0081555D02*
X0032494Y0081930D01*
X0032494Y0081930D02*
X0032306Y0082680D01*
X0032306Y0082680D02*
X0032306Y0083243D01*
X0032306Y0083243D02*
X0032494Y0083992D01*
X0032494Y0083992D02*
X0032681Y0084367D01*
X0032681Y0084367D02*
X0033056Y0084742D01*
X0033056Y0084742D02*
X0033618Y0084930D01*
X0033618Y0084930D02*
X0033993Y0084930D01*
X0033993Y0084930D02*
X0034556Y0084742D01*
X0034556Y0084742D02*
X0034743Y0084555D01*
X0036431Y0080993D02*
X0036431Y0084930D01*
X0038680Y0080993D02*
X0036993Y0083243D01*
X0038680Y0084930D02*
X0036431Y0082680D01*
X0042430Y0080993D02*
X0040180Y0080993D01*
X0041305Y0080993D02*
X0041305Y0084930D01*
X0041305Y0084930D02*
X0040930Y0084367D01*
X0040930Y0084367D02*
X0040555Y0083992D01*
X0040555Y0083992D02*
X0040180Y0083805D01*
X0050078Y0056937D02*
X0046141Y0056937D01*
X0046141Y0056937D02*
X0046141Y0057874D01*
X0046141Y0057874D02*
X0046328Y0058436D01*
X0046328Y0058436D02*
X0046703Y0058811D01*
X0046703Y0058811D02*
X0047078Y0058999D01*
X0047078Y0058999D02*
X0047828Y0059186D01*
X0047828Y0059186D02*
X0048391Y0059186D01*
X0048391Y0059186D02*
X0049141Y0058999D01*
X0049141Y0058999D02*
X0049516Y0058811D01*
X0049516Y0058811D02*
X0049891Y0058436D01*
X0049891Y0058436D02*
X0050078Y0057874D01*
X0050078Y0057874D02*
X0050078Y0056937D01*
X0046141Y0060499D02*
X0046141Y0062936D01*
X0046141Y0062936D02*
X0047641Y0061624D01*
X0047641Y0061624D02*
X0047641Y0062186D01*
X0047641Y0062186D02*
X0047828Y0062561D01*
X0047828Y0062561D02*
X0048016Y0062748D01*
X0048016Y0062748D02*
X0048391Y0062936D01*
X0048391Y0062936D02*
X0049328Y0062936D01*
X0049328Y0062936D02*
X0049703Y0062748D01*
X0049703Y0062748D02*
X0049891Y0062561D01*
X0049891Y0062561D02*
X0050078Y0062186D01*
X0050078Y0062186D02*
X0050078Y0061061D01*
X0050078Y0061061D02*
X0049891Y0060686D01*
X0049891Y0060686D02*
X0049703Y0060499D01*
X0032519Y0019653D02*
X0028582Y0019653D01*
X0028582Y0019653D02*
X0028582Y0020591D01*
X0028582Y0020591D02*
X0028769Y0021153D01*
X0028769Y0021153D02*
X0029144Y0021528D01*
X0029144Y0021528D02*
X0029519Y0021715D01*
X0029519Y0021715D02*
X0030269Y0021903D01*
X0030269Y0021903D02*
X0030832Y0021903D01*
X0030832Y0021903D02*
X0031582Y0021715D01*
X0031582Y0021715D02*
X0031957Y0021528D01*
X0031957Y0021528D02*
X0032331Y0021153D01*
X0032331Y0021153D02*
X0032519Y0020591D01*
X0032519Y0020591D02*
X0032519Y0019653D01*
X0028957Y0023403D02*
X0028769Y0023590D01*
X0028769Y0023590D02*
X0028582Y0023965D01*
X0028582Y0023965D02*
X0028582Y0024903D01*
X0028582Y0024903D02*
X0028769Y0025277D01*
X0028769Y0025277D02*
X0028957Y0025465D01*
X0028957Y0025465D02*
X0029332Y0025652D01*
X0029332Y0025652D02*
X0029707Y0025652D01*
X0029707Y0025652D02*
X0030269Y0025465D01*
X0030269Y0025465D02*
X0032519Y0023215D01*
X0032519Y0023215D02*
X0032519Y0025652D01*
X0077016Y0005612D02*
X0076829Y0005424D01*
X0076829Y0005424D02*
X0076266Y0005237D01*
X0076266Y0005237D02*
X0075891Y0005237D01*
X0075891Y0005237D02*
X0075329Y0005424D01*
X0075329Y0005424D02*
X0074954Y0005799D01*
X0074954Y0005799D02*
X0074767Y0006174D01*
X0074767Y0006174D02*
X0074579Y0006924D01*
X0074579Y0006924D02*
X0074579Y0007487D01*
X0074579Y0007487D02*
X0074767Y0008237D01*
X0074767Y0008237D02*
X0074954Y0008612D01*
X0074954Y0008612D02*
X0075329Y0008986D01*
X0075329Y0008986D02*
X0075891Y0009174D01*
X0075891Y0009174D02*
X0076266Y0009174D01*
X0076266Y0009174D02*
X0076829Y0008986D01*
X0076829Y0008986D02*
X0077016Y0008799D01*
X0080766Y0005237D02*
X0078516Y0005237D01*
X0079641Y0005237D02*
X0079641Y0009174D01*
X0079641Y0009174D02*
X0079266Y0008612D01*
X0079266Y0008612D02*
X0078891Y0008237D01*
X0078891Y0008237D02*
X0078516Y0008049D01*
X0082078Y0009174D02*
X0084515Y0009174D01*
X0084515Y0009174D02*
X0083203Y0007674D01*
X0083203Y0007674D02*
X0083765Y0007674D01*
X0083765Y0007674D02*
X0084140Y0007487D01*
X0084140Y0007487D02*
X0084328Y0007299D01*
X0084328Y0007299D02*
X0084515Y0006924D01*
X0084515Y0006924D02*
X0084515Y0005987D01*
X0084515Y0005987D02*
X0084328Y0005612D01*
X0084328Y0005612D02*
X0084140Y0005424D01*
X0084140Y0005424D02*
X0083765Y0005237D01*
X0083765Y0005237D02*
X0082641Y0005237D01*
X0082641Y0005237D02*
X0082266Y0005424D01*
X0082266Y0005424D02*
X0082078Y0005612D01*
X0081662Y0098875D02*
X0082412Y0098875D01*
X0082412Y0098875D02*
X0082787Y0098687D01*
X0082787Y0098687D02*
X0083162Y0098312D01*
X0083162Y0098312D02*
X0083350Y0097562D01*
X0083350Y0097562D02*
X0083350Y0096250D01*
X0083350Y0096250D02*
X0083162Y0095500D01*
X0083162Y0095500D02*
X0082787Y0095125D01*
X0082787Y0095125D02*
X0082412Y0094938D01*
X0082412Y0094938D02*
X0081662Y0094938D01*
X0081662Y0094938D02*
X0081287Y0095125D01*
X0081287Y0095125D02*
X0080912Y0095500D01*
X0080912Y0095500D02*
X0080725Y0096250D01*
X0080725Y0096250D02*
X0080725Y0097562D01*
X0080725Y0097562D02*
X0080912Y0098312D01*
X0080912Y0098312D02*
X0081287Y0098687D01*
X0081287Y0098687D02*
X0081662Y0098875D01*
X0085037Y0098875D02*
X0085037Y0095688D01*
X0085037Y0095688D02*
X0085224Y0095313D01*
X0085224Y0095313D02*
X0085412Y0095125D01*
X0085412Y0095125D02*
X0085787Y0094938D01*
X0085787Y0094938D02*
X0086537Y0094938D01*
X0086537Y0094938D02*
X0086912Y0095125D01*
X0086912Y0095125D02*
X0087099Y0095313D01*
X0087099Y0095313D02*
X0087287Y0095688D01*
X0087287Y0095688D02*
X0087287Y0098875D01*
X0088599Y0098875D02*
X0090849Y0098875D01*
X0089724Y0094938D02*
X0089724Y0098875D01*
X0091224Y0094563D02*
X0094223Y0094563D01*
X0095161Y0094938D02*
X0095161Y0098875D01*
X0097410Y0094938D02*
X0095723Y0097187D01*
X0097410Y0098875D02*
X0095161Y0096625D01*
X0099098Y0094938D02*
X0099098Y0098875D01*
X0099098Y0098875D02*
X0101347Y0094938D01*
X0101347Y0094938D02*
X0101347Y0098875D01*
X0103972Y0098875D02*
X0104722Y0098875D01*
X0104722Y0098875D02*
X0105097Y0098687D01*
X0105097Y0098687D02*
X0105472Y0098312D01*
X0105472Y0098312D02*
X0105659Y0097562D01*
X0105659Y0097562D02*
X0105659Y0096250D01*
X0105659Y0096250D02*
X0105472Y0095500D01*
X0105472Y0095500D02*
X0105097Y0095125D01*
X0105097Y0095125D02*
X0104722Y0094938D01*
X0104722Y0094938D02*
X0103972Y0094938D01*
X0103972Y0094938D02*
X0103597Y0095125D01*
X0103597Y0095125D02*
X0103222Y0095500D01*
X0103222Y0095500D02*
X0103035Y0096250D01*
X0103035Y0096250D02*
X0103035Y0097562D01*
X0103035Y0097562D02*
X0103222Y0098312D01*
X0103222Y0098312D02*
X0103597Y0098687D01*
X0103597Y0098687D02*
X0103972Y0098875D01*
X0109596Y0095313D02*
X0109409Y0095125D01*
X0109409Y0095125D02*
X0108846Y0094938D01*
X0108846Y0094938D02*
X0108472Y0094938D01*
X0108472Y0094938D02*
X0107909Y0095125D01*
X0107909Y0095125D02*
X0107534Y0095500D01*
X0107534Y0095500D02*
X0107347Y0095875D01*
X0107347Y0095875D02*
X0107159Y0096625D01*
X0107159Y0096625D02*
X0107159Y0097187D01*
X0107159Y0097187D02*
X0107347Y0097937D01*
X0107347Y0097937D02*
X0107534Y0098312D01*
X0107534Y0098312D02*
X0107909Y0098687D01*
X0107909Y0098687D02*
X0108472Y0098875D01*
X0108472Y0098875D02*
X0108846Y0098875D01*
X0108846Y0098875D02*
X0109409Y0098687D01*
X0109409Y0098687D02*
X0109596Y0098500D01*
X0111284Y0094938D02*
X0111284Y0098875D01*
X0113533Y0094938D02*
X0111846Y0097187D01*
X0113533Y0098875D02*
X0111284Y0096625D01*
X0116299Y0094938D02*
X0115033Y0094938D01*
X0116158Y0094938D02*
X0116158Y0098875D01*
X0116158Y0098875D02*
X0115783Y0098312D01*
X0115783Y0098312D02*
X0115408Y0097937D01*
X0115408Y0097937D02*
X0115033Y0097750D01*
X0030924Y0058438D02*
X0031111Y0058251D01*
X0031111Y0058251D02*
X0031298Y0057688D01*
X0031298Y0057688D02*
X0031298Y0057313D01*
X0031298Y0057313D02*
X0031111Y0056751D01*
X0031111Y0056751D02*
X0030736Y0056376D01*
X0030736Y0056376D02*
X0030361Y0056189D01*
X0030361Y0056189D02*
X0029611Y0056001D01*
X0029611Y0056001D02*
X0029049Y0056001D01*
X0029049Y0056001D02*
X0028299Y0056189D01*
X0028299Y0056189D02*
X0027924Y0056376D01*
X0027924Y0056376D02*
X0027549Y0056751D01*
X0027549Y0056751D02*
X0027361Y0057313D01*
X0027361Y0057313D02*
X0027361Y0057688D01*
X0027361Y0057688D02*
X0027549Y0058251D01*
X0027549Y0058251D02*
X0027736Y0058438D01*
X0027736Y0059938D02*
X0027549Y0060126D01*
X0027549Y0060126D02*
X0027361Y0060501D01*
X0027361Y0060501D02*
X0027361Y0061438D01*
X0027361Y0061438D02*
X0027549Y0061813D01*
X0027549Y0061813D02*
X0027736Y0062000D01*
X0027736Y0062000D02*
X0028111Y0062188D01*
X0028111Y0062188D02*
X0028486Y0062188D01*
X0028486Y0062188D02*
X0029049Y0062000D01*
X0029049Y0062000D02*
X0031298Y0059751D01*
X0031298Y0059751D02*
X0031298Y0062188D01*
X0033006Y0086123D02*
X0033006Y0088485D01*
X0033006Y0088485D02*
X0033793Y0086798D01*
X0033793Y0086798D02*
X0034581Y0088485D01*
X0034581Y0088485D02*
X0034581Y0086123D01*
X0035593Y0088260D02*
X0035706Y0088373D01*
X0035706Y0088373D02*
X0035931Y0088485D01*
X0035931Y0088485D02*
X0036493Y0088485D01*
X0036493Y0088485D02*
X0036718Y0088373D01*
X0036718Y0088373D02*
X0036831Y0088260D01*
X0036831Y0088260D02*
X0036943Y0088035D01*
X0036943Y0088035D02*
X0036943Y0087810D01*
X0036943Y0087810D02*
X0036831Y0087473D01*
X0036831Y0087473D02*
X0035481Y0086123D01*
X0035481Y0086123D02*
X0036943Y0086123D01*
X0082662Y0113914D02*
X0083412Y0113914D01*
X0083412Y0113914D02*
X0083787Y0113727D01*
X0083787Y0113727D02*
X0084162Y0113352D01*
X0084162Y0113352D02*
X0084350Y0112602D01*
X0084350Y0112602D02*
X0084350Y0111289D01*
X0084350Y0111289D02*
X0084162Y0110540D01*
X0084162Y0110540D02*
X0083787Y0110165D01*
X0083787Y0110165D02*
X0083412Y0109977D01*
X0083412Y0109977D02*
X0082662Y0109977D01*
X0082662Y0109977D02*
X0082287Y0110165D01*
X0082287Y0110165D02*
X0081912Y0110540D01*
X0081912Y0110540D02*
X0081725Y0111289D01*
X0081725Y0111289D02*
X0081725Y0112602D01*
X0081725Y0112602D02*
X0081912Y0113352D01*
X0081912Y0113352D02*
X0082287Y0113727D01*
X0082287Y0113727D02*
X0082662Y0113914D01*
X0086037Y0113914D02*
X0086037Y0110727D01*
X0086037Y0110727D02*
X0086224Y0110352D01*
X0086224Y0110352D02*
X0086412Y0110165D01*
X0086412Y0110165D02*
X0086787Y0109977D01*
X0086787Y0109977D02*
X0087537Y0109977D01*
X0087537Y0109977D02*
X0087912Y0110165D01*
X0087912Y0110165D02*
X0088099Y0110352D01*
X0088099Y0110352D02*
X0088287Y0110727D01*
X0088287Y0110727D02*
X0088287Y0113914D01*
X0089599Y0113914D02*
X0091849Y0113914D01*
X0090724Y0109977D02*
X0090724Y0113914D01*
X0092224Y0109602D02*
X0095223Y0109602D01*
X0096161Y0109977D02*
X0096161Y0113914D01*
X0098410Y0109977D02*
X0096723Y0112227D01*
X0098410Y0113914D02*
X0096161Y0111664D01*
X0100098Y0109977D02*
X0100098Y0113914D01*
X0100098Y0113914D02*
X0102347Y0109977D01*
X0102347Y0109977D02*
X0102347Y0113914D01*
X0104972Y0113914D02*
X0105722Y0113914D01*
X0105722Y0113914D02*
X0106097Y0113727D01*
X0106097Y0113727D02*
X0106472Y0113352D01*
X0106472Y0113352D02*
X0106659Y0112602D01*
X0106659Y0112602D02*
X0106659Y0111289D01*
X0106659Y0111289D02*
X0106472Y0110540D01*
X0106472Y0110540D02*
X0106097Y0110165D01*
X0106097Y0110165D02*
X0105722Y0109977D01*
X0105722Y0109977D02*
X0104972Y0109977D01*
X0104972Y0109977D02*
X0104597Y0110165D01*
X0104597Y0110165D02*
X0104222Y0110540D01*
X0104222Y0110540D02*
X0104035Y0111289D01*
X0104035Y0111289D02*
X0104035Y0112602D01*
X0104035Y0112602D02*
X0104222Y0113352D01*
X0104222Y0113352D02*
X0104597Y0113727D01*
X0104597Y0113727D02*
X0104972Y0113914D01*
X0110596Y0110352D02*
X0110409Y0110165D01*
X0110409Y0110165D02*
X0109846Y0109977D01*
X0109846Y0109977D02*
X0109472Y0109977D01*
X0109472Y0109977D02*
X0108909Y0110165D01*
X0108909Y0110165D02*
X0108534Y0110540D01*
X0108534Y0110540D02*
X0108347Y0110914D01*
X0108347Y0110914D02*
X0108159Y0111664D01*
X0108159Y0111664D02*
X0108159Y0112227D01*
X0108159Y0112227D02*
X0108347Y0112977D01*
X0108347Y0112977D02*
X0108534Y0113352D01*
X0108534Y0113352D02*
X0108909Y0113727D01*
X0108909Y0113727D02*
X0109472Y0113914D01*
X0109472Y0113914D02*
X0109846Y0113914D01*
X0109846Y0113914D02*
X0110409Y0113727D01*
X0110409Y0113727D02*
X0110596Y0113539D01*
X0112284Y0109977D02*
X0112284Y0113914D01*
X0114533Y0109977D02*
X0112846Y0112227D01*
X0114533Y0113914D02*
X0112284Y0111664D01*
X0116033Y0113539D02*
X0116221Y0113727D01*
X0116221Y0113727D02*
X0116299Y0113766D01*
X0116596Y0113914D02*
X0116299Y0110430D02*
X0115846Y0109977D01*
X0115846Y0109977D02*
X0116299Y0109977D01*
X0118283Y0109977D02*
X0006406Y0063269D02*
X0006219Y0063082D01*
X0006219Y0063082D02*
X0005656Y0062894D01*
X0005656Y0062894D02*
X0005281Y0062894D01*
X0005281Y0062894D02*
X0004719Y0063082D01*
X0004719Y0063082D02*
X0004344Y0063457D01*
X0004344Y0063457D02*
X0004156Y0063832D01*
X0004156Y0063832D02*
X0003969Y0064582D01*
X0003969Y0064582D02*
X0003969Y0065144D01*
X0003969Y0065144D02*
X0004156Y0065894D01*
X0004156Y0065894D02*
X0004344Y0066269D01*
X0004344Y0066269D02*
X0004719Y0066644D01*
X0004719Y0066644D02*
X0005281Y0066831D01*
X0005281Y0066831D02*
X0005656Y0066831D01*
X0005656Y0066831D02*
X0006219Y0066644D01*
X0006219Y0066644D02*
X0006406Y0066456D01*
X0010156Y0062894D02*
X0007906Y0062894D01*
X0009031Y0062894D02*
X0009031Y0066831D01*
X0009031Y0066831D02*
X0008656Y0066269D01*
X0008656Y0066269D02*
X0008281Y0065894D01*
X0008281Y0065894D02*
X0007906Y0065707D01*
X0013718Y0066831D02*
X0011843Y0066831D01*
X0011843Y0066831D02*
X0011655Y0064957D01*
X0011655Y0064957D02*
X0011843Y0065144D01*
X0011843Y0065144D02*
X0012218Y0065332D01*
X0012218Y0065332D02*
X0013155Y0065332D01*
X0013155Y0065332D02*
X0013530Y0065144D01*
X0013530Y0065144D02*
X0013718Y0064957D01*
X0013718Y0064957D02*
X0013905Y0064582D01*
X0013905Y0064582D02*
X0013905Y0063644D01*
X0013905Y0063644D02*
X0013718Y0063269D01*
X0013718Y0063269D02*
X0013530Y0063082D01*
X0013530Y0063082D02*
X0013155Y0062894D01*
X0013155Y0062894D02*
X0012218Y0062894D01*
X0012218Y0062894D02*
X0011843Y0063082D01*
X0011843Y0063082D02*
X0011655Y0063269D01*
X0032243Y0033433D02*
X0028306Y0033433D01*
X0028306Y0033433D02*
X0028306Y0034370D01*
X0028306Y0034370D02*
X0028494Y0034933D01*
X0028494Y0034933D02*
X0028869Y0035307D01*
X0028869Y0035307D02*
X0029244Y0035495D01*
X0029244Y0035495D02*
X0029994Y0035682D01*
X0029994Y0035682D02*
X0030556Y0035682D01*
X0030556Y0035682D02*
X0031306Y0035495D01*
X0031306Y0035495D02*
X0031681Y0035307D01*
X0031681Y0035307D02*
X0032056Y0034933D01*
X0032056Y0034933D02*
X0032243Y0034370D01*
X0032243Y0034370D02*
X0032243Y0033433D01*
X0032243Y0039432D02*
X0032243Y0037182D01*
X0032243Y0038307D02*
X0028306Y0038307D01*
X0028306Y0038307D02*
X0028869Y0037932D01*
X0028869Y0037932D02*
X0029244Y0037557D01*
X0029244Y0037557D02*
X0029431Y0037182D01*
X0012421Y0000649D02*
X0008484Y0000649D01*
X0008484Y0000649D02*
X0008484Y0002148D01*
X0008484Y0002148D02*
X0008671Y0002523D01*
X0008671Y0002523D02*
X0008858Y0002711D01*
X0008858Y0002711D02*
X0009233Y0002898D01*
X0009233Y0002898D02*
X0009796Y0002898D01*
X0009796Y0002898D02*
X0010171Y0002711D01*
X0010171Y0002711D02*
X0010358Y0002523D01*
X0010358Y0002523D02*
X0010546Y0002148D01*
X0010546Y0002148D02*
X0010546Y0000649D01*
X0012421Y0004586D02*
X0008484Y0004586D01*
X0008484Y0004586D02*
X0008484Y0006085D01*
X0008484Y0006085D02*
X0008671Y0006460D01*
X0008671Y0006460D02*
X0008858Y0006648D01*
X0008858Y0006648D02*
X0009233Y0006835D01*
X0009233Y0006835D02*
X0009796Y0006835D01*
X0009796Y0006835D02*
X0010171Y0006648D01*
X0010171Y0006648D02*
X0010358Y0006460D01*
X0010358Y0006460D02*
X0010546Y0006085D01*
X0010546Y0006085D02*
X0010546Y0004586D01*
X0012233Y0008335D02*
X0012421Y0008898D01*
X0012421Y0008898D02*
X0012421Y0009835D01*
X0012421Y0009835D02*
X0012233Y0010210D01*
X0012233Y0010210D02*
X0012046Y0010397D01*
X0012046Y0010397D02*
X0011671Y0010585D01*
X0011671Y0010585D02*
X0011296Y0010585D01*
X0011296Y0010585D02*
X0010921Y0010397D01*
X0010921Y0010397D02*
X0010733Y0010210D01*
X0010733Y0010210D02*
X0010546Y0009835D01*
X0010546Y0009835D02*
X0010358Y0009085D01*
X0010358Y0009085D02*
X0010171Y0008710D01*
X0010171Y0008710D02*
X0009983Y0008523D01*
X0009983Y0008523D02*
X0009608Y0008335D01*
X0009608Y0008335D02*
X0009233Y0008335D01*
X0009233Y0008335D02*
X0008858Y0008523D01*
X0008858Y0008523D02*
X0008671Y0008710D01*
X0008671Y0008710D02*
X0008484Y0009085D01*
X0008484Y0009085D02*
X0008484Y0010022D01*
X0008484Y0010022D02*
X0008671Y0010585D01*
X0008858Y0012085D02*
X0008671Y0012272D01*
X0008671Y0012272D02*
X0008484Y0012647D01*
X0008484Y0012647D02*
X0008484Y0013585D01*
X0008484Y0013585D02*
X0008671Y0013960D01*
X0008671Y0013960D02*
X0008858Y0014147D01*
X0008858Y0014147D02*
X0009233Y0014334D01*
X0009233Y0014334D02*
X0009608Y0014334D01*
X0009608Y0014334D02*
X0010171Y0014147D01*
X0010171Y0014147D02*
X0012421Y0011897D01*
X0012421Y0011897D02*
X0012421Y0014334D01*
X0012796Y0015084D02*
X0012796Y0018084D01*
X0012046Y0021271D02*
X0012233Y0021084D01*
X0012233Y0021084D02*
X0012421Y0020521D01*
X0012421Y0020521D02*
X0012421Y0020146D01*
X0012421Y0020146D02*
X0012233Y0019584D01*
X0012233Y0019584D02*
X0011858Y0019209D01*
X0011858Y0019209D02*
X0011483Y0019021D01*
X0011483Y0019021D02*
X0010733Y0018834D01*
X0010733Y0018834D02*
X0010171Y0018834D01*
X0010171Y0018834D02*
X0009421Y0019021D01*
X0009421Y0019021D02*
X0009046Y0019209D01*
X0009046Y0019209D02*
X0008671Y0019584D01*
X0008671Y0019584D02*
X0008484Y0020146D01*
X0008484Y0020146D02*
X0008484Y0020521D01*
X0008484Y0020521D02*
X0008671Y0021084D01*
X0008671Y0021084D02*
X0008858Y0021271D01*
X0012421Y0022958D02*
X0008484Y0022958D01*
X0008484Y0022958D02*
X0008484Y0024458D01*
X0008484Y0024458D02*
X0008671Y0024833D01*
X0008671Y0024833D02*
X0008858Y0025021D01*
X0008858Y0025021D02*
X0009233Y0025208D01*
X0009233Y0025208D02*
X0009796Y0025208D01*
X0009796Y0025208D02*
X0010171Y0025021D01*
X0010171Y0025021D02*
X0010358Y0024833D01*
X0010358Y0024833D02*
X0010546Y0024458D01*
X0010546Y0024458D02*
X0010546Y0022958D01*
X0008484Y0026895D02*
X0011671Y0026895D01*
X0011671Y0026895D02*
X0012046Y0027083D01*
X0012046Y0027083D02*
X0012233Y0027270D01*
X0012233Y0027270D02*
X0012421Y0027645D01*
X0012421Y0027645D02*
X0012421Y0028395D01*
X0012421Y0028395D02*
X0012233Y0028770D01*
X0012233Y0028770D02*
X0012046Y0028958D01*
X0012046Y0028958D02*
X0011671Y0029145D01*
X0011671Y0029145D02*
X0008484Y0029145D01*
X0012421Y0033082D02*
X0012421Y0030832D01*
X0012421Y0031957D02*
X0008484Y0031957D01*
X0008484Y0031957D02*
X0009046Y0031582D01*
X0009046Y0031582D02*
X0009421Y0031207D01*
X0009421Y0031207D02*
X0009608Y0030832D01*
X0102499Y0024008D02*
X0105686Y0024008D01*
X0105686Y0024008D02*
X0106061Y0024196D01*
X0106061Y0024196D02*
X0106249Y0024383D01*
X0106249Y0024383D02*
X0106436Y0024758D01*
X0106436Y0024758D02*
X0106436Y0025508D01*
X0106436Y0025508D02*
X0106249Y0025883D01*
X0106249Y0025883D02*
X0106061Y0026070D01*
X0106061Y0026070D02*
X0105686Y0026258D01*
X0105686Y0026258D02*
X0102499Y0026258D01*
X0102874Y0027945D02*
X0102687Y0028133D01*
X0102687Y0028133D02*
X0102499Y0028508D01*
X0102499Y0028508D02*
X0102499Y0029445D01*
X0102499Y0029445D02*
X0102687Y0029820D01*
X0102687Y0029820D02*
X0102874Y0030008D01*
X0102874Y0030008D02*
X0103249Y0030195D01*
X0103249Y0030195D02*
X0103624Y0030195D01*
X0103624Y0030195D02*
X0104187Y0030008D01*
X0104187Y0030008D02*
X0106436Y0027758D01*
X0106436Y0027758D02*
X0106436Y0030195D01*
X0058581Y0070919D02*
X0058769Y0070731D01*
X0058769Y0070731D02*
X0058956Y0070169D01*
X0058956Y0070169D02*
X0058956Y0069794D01*
X0058956Y0069794D02*
X0058769Y0069231D01*
X0058769Y0069231D02*
X0058394Y0068856D01*
X0058394Y0068856D02*
X0058019Y0068669D01*
X0058019Y0068669D02*
X0057269Y0068481D01*
X0057269Y0068481D02*
X0056706Y0068481D01*
X0056706Y0068481D02*
X0055956Y0068669D01*
X0055956Y0068669D02*
X0055581Y0068856D01*
X0055581Y0068856D02*
X0055206Y0069231D01*
X0055206Y0069231D02*
X0055019Y0069794D01*
X0055019Y0069794D02*
X0055019Y0070169D01*
X0055019Y0070169D02*
X0055206Y0070731D01*
X0055206Y0070731D02*
X0055394Y0070919D01*
X0058956Y0074668D02*
X0058956Y0072418D01*
X0058956Y0073543D02*
X0055019Y0073543D01*
X0055019Y0073543D02*
X0055581Y0073168D01*
X0055581Y0073168D02*
X0055956Y0072793D01*
X0055956Y0072793D02*
X0056144Y0072418D01*
X0070235Y0068532D02*
X0070422Y0068345D01*
X0070422Y0068345D02*
X0070610Y0067782D01*
X0070610Y0067782D02*
X0070610Y0067407D01*
X0070610Y0067407D02*
X0070422Y0066845D01*
X0070422Y0066845D02*
X0070047Y0066470D01*
X0070047Y0066470D02*
X0069672Y0066282D01*
X0069672Y0066282D02*
X0068922Y0066095D01*
X0068922Y0066095D02*
X0068360Y0066095D01*
X0068360Y0066095D02*
X0067610Y0066282D01*
X0067610Y0066282D02*
X0067235Y0066470D01*
X0067235Y0066470D02*
X0066860Y0066845D01*
X0066860Y0066845D02*
X0066673Y0067407D01*
X0066673Y0067407D02*
X0066673Y0067782D01*
X0066673Y0067782D02*
X0066860Y0068345D01*
X0066860Y0068345D02*
X0067047Y0068532D01*
X0070610Y0072282D02*
X0070610Y0070032D01*
X0070610Y0071157D02*
X0066673Y0071157D01*
X0066673Y0071157D02*
X0067235Y0070782D01*
X0067235Y0070782D02*
X0067610Y0070407D01*
X0067610Y0070407D02*
X0067797Y0070032D01*
X0067047Y0073781D02*
X0066860Y0073969D01*
X0066860Y0073969D02*
X0066673Y0074344D01*
X0066673Y0074344D02*
X0066673Y0075281D01*
X0066673Y0075281D02*
X0066860Y0075656D01*
X0066860Y0075656D02*
X0067047Y0075844D01*
X0067047Y0075844D02*
X0067422Y0076031D01*
X0067422Y0076031D02*
X0067797Y0076031D01*
X0067797Y0076031D02*
X0068360Y0075844D01*
X0068360Y0075844D02*
X0070610Y0073594D01*
X0070610Y0073594D02*
X0070610Y0076031D01*
X0036445Y0062443D02*
X0036258Y0062255D01*
X0036258Y0062255D02*
X0035696Y0062068D01*
X0035696Y0062068D02*
X0035321Y0062068D01*
X0035321Y0062068D02*
X0034758Y0062255D01*
X0034758Y0062255D02*
X0034383Y0062630D01*
X0034383Y0062630D02*
X0034196Y0063005D01*
X0034196Y0063005D02*
X0034008Y0063755D01*
X0034008Y0063755D02*
X0034008Y0064317D01*
X0034008Y0064317D02*
X0034196Y0065067D01*
X0034196Y0065067D02*
X0034383Y0065442D01*
X0034383Y0065442D02*
X0034758Y0065817D01*
X0034758Y0065817D02*
X0035321Y0066005D01*
X0035321Y0066005D02*
X0035696Y0066005D01*
X0035696Y0066005D02*
X0036258Y0065817D01*
X0036258Y0065817D02*
X0036445Y0065630D01*
X0037945Y0065630D02*
X0038133Y0065817D01*
X0038133Y0065817D02*
X0038508Y0066005D01*
X0038508Y0066005D02*
X0039445Y0066005D01*
X0039445Y0066005D02*
X0039820Y0065817D01*
X0039820Y0065817D02*
X0040007Y0065630D01*
X0040007Y0065630D02*
X0040195Y0065255D01*
X0040195Y0065255D02*
X0040195Y0064880D01*
X0040195Y0064880D02*
X0040007Y0064317D01*
X0040007Y0064317D02*
X0037758Y0062068D01*
X0037758Y0062068D02*
X0040195Y0062068D01*
X0043945Y0062068D02*
X0041695Y0062068D01*
X0042820Y0062068D02*
X0042820Y0066005D01*
X0042820Y0066005D02*
X0042445Y0065442D01*
X0042445Y0065442D02*
X0042070Y0065067D01*
X0042070Y0065067D02*
X0041695Y0064880D01*
X0055392Y0007533D02*
X0055580Y0007345D01*
X0055580Y0007345D02*
X0055767Y0006783D01*
X0055767Y0006783D02*
X0055767Y0006408D01*
X0055767Y0006408D02*
X0055580Y0005846D01*
X0055580Y0005846D02*
X0055205Y0005471D01*
X0055205Y0005471D02*
X0054830Y0005283D01*
X0054830Y0005283D02*
X0054080Y0005096D01*
X0054080Y0005096D02*
X0053517Y0005096D01*
X0053517Y0005096D02*
X0052767Y0005283D01*
X0052767Y0005283D02*
X0052392Y0005471D01*
X0052392Y0005471D02*
X0052017Y0005846D01*
X0052017Y0005846D02*
X0051830Y0006408D01*
X0051830Y0006408D02*
X0051830Y0006783D01*
X0051830Y0006783D02*
X0052017Y0007345D01*
X0052017Y0007345D02*
X0052205Y0007533D01*
X0051830Y0008845D02*
X0051830Y0011282D01*
X0051830Y0011282D02*
X0053330Y0009970D01*
X0053330Y0009970D02*
X0053330Y0010532D01*
X0053330Y0010532D02*
X0053517Y0010907D01*
X0053517Y0010907D02*
X0053705Y0011095D01*
X0053705Y0011095D02*
X0054080Y0011282D01*
X0054080Y0011282D02*
X0055017Y0011282D01*
X0055017Y0011282D02*
X0055392Y0011095D01*
X0055392Y0011095D02*
X0055580Y0010907D01*
X0055580Y0010907D02*
X0055767Y0010532D01*
X0055767Y0010532D02*
X0055767Y0009408D01*
X0055767Y0009408D02*
X0055580Y0009033D01*
X0055580Y0009033D02*
X0055392Y0008845D01*
X0056102Y0021706D02*
X0054227Y0020394D01*
X0056102Y0019456D02*
X0052165Y0019456D01*
X0052165Y0019456D02*
X0052165Y0020956D01*
X0052165Y0020956D02*
X0052352Y0021331D01*
X0052352Y0021331D02*
X0052540Y0021519D01*
X0052540Y0021519D02*
X0052915Y0021706D01*
X0052915Y0021706D02*
X0053477Y0021706D01*
X0053477Y0021706D02*
X0053852Y0021519D01*
X0053852Y0021519D02*
X0054039Y0021331D01*
X0054039Y0021331D02*
X0054227Y0020956D01*
X0054227Y0020956D02*
X0054227Y0019456D01*
X0052540Y0023206D02*
X0052352Y0023393D01*
X0052352Y0023393D02*
X0052165Y0023768D01*
X0052165Y0023768D02*
X0052165Y0024706D01*
X0052165Y0024706D02*
X0052352Y0025081D01*
X0052352Y0025081D02*
X0052540Y0025268D01*
X0052540Y0025268D02*
X0052915Y0025456D01*
X0052915Y0025456D02*
X0053290Y0025456D01*
X0053290Y0025456D02*
X0053852Y0025268D01*
X0053852Y0025268D02*
X0056102Y0023018D01*
X0056102Y0023018D02*
X0056102Y0025456D01*
X0037361Y0068552D02*
X0037548Y0068364D01*
X0037548Y0068364D02*
X0037736Y0067802D01*
X0037736Y0067802D02*
X0037736Y0067427D01*
X0037736Y0067427D02*
X0037548Y0066864D01*
X0037548Y0066864D02*
X0037173Y0066490D01*
X0037173Y0066490D02*
X0036798Y0066302D01*
X0036798Y0066302D02*
X0036048Y0066115D01*
X0036048Y0066115D02*
X0035486Y0066115D01*
X0035486Y0066115D02*
X0034736Y0066302D01*
X0034736Y0066302D02*
X0034361Y0066490D01*
X0034361Y0066490D02*
X0033986Y0066864D01*
X0033986Y0066864D02*
X0033798Y0067427D01*
X0033798Y0067427D02*
X0033798Y0067802D01*
X0033798Y0067802D02*
X0033986Y0068364D01*
X0033986Y0068364D02*
X0034173Y0068552D01*
X0037736Y0072301D02*
X0037736Y0070052D01*
X0037736Y0071176D02*
X0033798Y0071176D01*
X0033798Y0071176D02*
X0034361Y0070801D01*
X0034361Y0070801D02*
X0034736Y0070427D01*
X0034736Y0070427D02*
X0034923Y0070052D01*
X0035111Y0075676D02*
X0037736Y0075676D01*
X0033611Y0074738D02*
X0036423Y0073801D01*
X0036423Y0073801D02*
X0036423Y0076238D01*
X0045806Y0001385D02*
X0041869Y0001385D01*
X0041869Y0001385D02*
X0041869Y0002323D01*
X0041869Y0002323D02*
X0042057Y0002885D01*
X0042057Y0002885D02*
X0042432Y0003260D01*
X0042432Y0003260D02*
X0042807Y0003448D01*
X0042807Y0003448D02*
X0043557Y0003635D01*
X0043557Y0003635D02*
X0044119Y0003635D01*
X0044119Y0003635D02*
X0044869Y0003448D01*
X0044869Y0003448D02*
X0045244Y0003260D01*
X0045244Y0003260D02*
X0045619Y0002885D01*
X0045619Y0002885D02*
X0045806Y0002323D01*
X0045806Y0002323D02*
X0045806Y0001385D01*
X0043182Y0007010D02*
X0045806Y0007010D01*
X0041682Y0006072D02*
X0044494Y0005135D01*
X0044494Y0005135D02*
X0044494Y0007572D01*
X0064648Y0131713D02*
X0062773Y0131713D01*
X0062773Y0131713D02*
X0062585Y0129839D01*
X0062585Y0129839D02*
X0062773Y0130026D01*
X0062773Y0130026D02*
X0063148Y0130214D01*
X0063148Y0130214D02*
X0064085Y0130214D01*
X0064085Y0130214D02*
X0064460Y0130026D01*
X0064460Y0130026D02*
X0064648Y0129839D01*
X0064648Y0129839D02*
X0064835Y0129464D01*
X0064835Y0129464D02*
X0064835Y0128526D01*
X0064835Y0128526D02*
X0064648Y0128151D01*
X0064648Y0128151D02*
X0064460Y0127964D01*
X0064460Y0127964D02*
X0064085Y0127776D01*
X0064085Y0127776D02*
X0063148Y0127776D01*
X0063148Y0127776D02*
X0062773Y0127964D01*
X0062773Y0127964D02*
X0062585Y0128151D01*
X0065960Y0131713D02*
X0067272Y0127776D01*
X0067272Y0127776D02*
X0068585Y0131713D01*
X0068960Y0127401D02*
X0071959Y0127401D01*
X0072897Y0127776D02*
X0072897Y0131713D01*
X0074771Y0127776D02*
X0074771Y0131713D01*
X0074771Y0131713D02*
X0077021Y0127776D01*
X0077021Y0127776D02*
X0077021Y0131713D01*
X0080958Y0127776D02*
X0078708Y0127776D01*
X0079833Y0127776D02*
X0079833Y0131713D01*
X0079833Y0131713D02*
X0079458Y0131151D01*
X0079458Y0131151D02*
X0079083Y0130776D01*
X0079083Y0130776D02*
X0078708Y0130588D01*
X0042907Y0129423D02*
X0042719Y0129235D01*
X0042719Y0129235D02*
X0042157Y0129048D01*
X0042157Y0129048D02*
X0041782Y0129048D01*
X0041782Y0129048D02*
X0041220Y0129235D01*
X0041220Y0129235D02*
X0040845Y0129610D01*
X0040845Y0129610D02*
X0040657Y0129985D01*
X0040657Y0129985D02*
X0040470Y0130735D01*
X0040470Y0130735D02*
X0040470Y0131298D01*
X0040470Y0131298D02*
X0040657Y0132048D01*
X0040657Y0132048D02*
X0040845Y0132423D01*
X0040845Y0132423D02*
X0041220Y0132797D01*
X0041220Y0132797D02*
X0041782Y0132985D01*
X0041782Y0132985D02*
X0042157Y0132985D01*
X0042157Y0132985D02*
X0042719Y0132797D01*
X0042719Y0132797D02*
X0042907Y0132610D01*
X0046281Y0131673D02*
X0046281Y0129048D01*
X0045344Y0133172D02*
X0044407Y0130360D01*
X0044407Y0130360D02*
X0046844Y0130360D01*
X0039448Y0059029D02*
X0037573Y0057717D01*
X0039448Y0056779D02*
X0035511Y0056779D01*
X0035511Y0056779D02*
X0035511Y0058279D01*
X0035511Y0058279D02*
X0035699Y0058654D01*
X0035699Y0058654D02*
X0035886Y0058841D01*
X0035886Y0058841D02*
X0036261Y0059029D01*
X0036261Y0059029D02*
X0036823Y0059029D01*
X0036823Y0059029D02*
X0037198Y0058841D01*
X0037198Y0058841D02*
X0037386Y0058654D01*
X0037386Y0058654D02*
X0037573Y0058279D01*
X0037573Y0058279D02*
X0037573Y0056779D01*
X0035511Y0062591D02*
X0035511Y0060716D01*
X0035511Y0060716D02*
X0037386Y0060529D01*
X0037386Y0060529D02*
X0037198Y0060716D01*
X0037198Y0060716D02*
X0037011Y0061091D01*
X0037011Y0061091D02*
X0037011Y0062029D01*
X0037011Y0062029D02*
X0037198Y0062403D01*
X0037198Y0062403D02*
X0037386Y0062591D01*
X0037386Y0062591D02*
X0037761Y0062778D01*
X0037761Y0062778D02*
X0038698Y0062778D01*
X0038698Y0062778D02*
X0039073Y0062591D01*
X0039073Y0062591D02*
X0039261Y0062403D01*
X0039261Y0062403D02*
X0039448Y0062029D01*
X0039448Y0062029D02*
X0039448Y0061091D01*
X0039448Y0061091D02*
X0039261Y0060716D01*
X0039261Y0060716D02*
X0039073Y0060529D01*
X0097223Y0070442D02*
X0097410Y0070254D01*
X0097410Y0070254D02*
X0097598Y0069692D01*
X0097598Y0069692D02*
X0097598Y0069317D01*
X0097598Y0069317D02*
X0097410Y0068754D01*
X0097410Y0068754D02*
X0097035Y0068379D01*
X0097035Y0068379D02*
X0096660Y0068192D01*
X0096660Y0068192D02*
X0095910Y0068004D01*
X0095910Y0068004D02*
X0095348Y0068004D01*
X0095348Y0068004D02*
X0094598Y0068192D01*
X0094598Y0068192D02*
X0094223Y0068379D01*
X0094223Y0068379D02*
X0093848Y0068754D01*
X0093848Y0068754D02*
X0093661Y0069317D01*
X0093661Y0069317D02*
X0093661Y0069692D01*
X0093661Y0069692D02*
X0093848Y0070254D01*
X0093848Y0070254D02*
X0094036Y0070442D01*
X0097598Y0074191D02*
X0097598Y0071941D01*
X0097598Y0073066D02*
X0093661Y0073066D01*
X0093661Y0073066D02*
X0094223Y0072691D01*
X0094223Y0072691D02*
X0094598Y0072316D01*
X0094598Y0072316D02*
X0094786Y0071941D01*
X0097598Y0077941D02*
X0097598Y0075691D01*
X0097598Y0076816D02*
X0093661Y0076816D01*
X0093661Y0076816D02*
X0094223Y0076441D01*
X0094223Y0076441D02*
X0094598Y0076066D01*
X0094598Y0076066D02*
X0094786Y0075691D01*
X0069339Y0062600D02*
X0069152Y0062413D01*
X0069152Y0062413D02*
X0068589Y0062225D01*
X0068589Y0062225D02*
X0068214Y0062225D01*
X0068214Y0062225D02*
X0067652Y0062413D01*
X0067652Y0062413D02*
X0067277Y0062788D01*
X0067277Y0062788D02*
X0067089Y0063163D01*
X0067089Y0063163D02*
X0066902Y0063912D01*
X0066902Y0063912D02*
X0066902Y0064475D01*
X0066902Y0064475D02*
X0067089Y0065225D01*
X0067089Y0065225D02*
X0067277Y0065600D01*
X0067277Y0065600D02*
X0067652Y0065975D01*
X0067652Y0065975D02*
X0068214Y0066162D01*
X0068214Y0066162D02*
X0068589Y0066162D01*
X0068589Y0066162D02*
X0069152Y0065975D01*
X0069152Y0065975D02*
X0069339Y0065787D01*
X0073089Y0062225D02*
X0070839Y0062225D01*
X0071964Y0062225D02*
X0071964Y0066162D01*
X0071964Y0066162D02*
X0071589Y0065600D01*
X0071589Y0065600D02*
X0071214Y0065225D01*
X0071214Y0065225D02*
X0070839Y0065037D01*
X0074963Y0062225D02*
X0075713Y0062225D01*
X0075713Y0062225D02*
X0076088Y0062413D01*
X0076088Y0062413D02*
X0076276Y0062600D01*
X0076276Y0062600D02*
X0076651Y0063163D01*
X0076651Y0063163D02*
X0076838Y0063912D01*
X0076838Y0063912D02*
X0076838Y0065412D01*
X0076838Y0065412D02*
X0076651Y0065787D01*
X0076651Y0065787D02*
X0076463Y0065975D01*
X0076463Y0065975D02*
X0076088Y0066162D01*
X0076088Y0066162D02*
X0075338Y0066162D01*
X0075338Y0066162D02*
X0074963Y0065975D01*
X0074963Y0065975D02*
X0074776Y0065787D01*
X0074776Y0065787D02*
X0074588Y0065412D01*
X0074588Y0065412D02*
X0074588Y0064475D01*
X0074588Y0064475D02*
X0074776Y0064100D01*
X0074776Y0064100D02*
X0074963Y0063912D01*
X0074963Y0063912D02*
X0075338Y0063725D01*
X0075338Y0063725D02*
X0076088Y0063725D01*
X0076088Y0063725D02*
X0076463Y0063912D01*
X0076463Y0063912D02*
X0076651Y0064100D01*
X0076651Y0064100D02*
X0076838Y0064475D01*
X0025098Y0004659D02*
X0023223Y0003346D01*
X0025098Y0002409D02*
X0021161Y0002409D01*
X0021161Y0002409D02*
X0021161Y0003909D01*
X0021161Y0003909D02*
X0021348Y0004284D01*
X0021348Y0004284D02*
X0021536Y0004471D01*
X0021536Y0004471D02*
X0021911Y0004659D01*
X0021911Y0004659D02*
X0022473Y0004659D01*
X0022473Y0004659D02*
X0022848Y0004471D01*
X0022848Y0004471D02*
X0023035Y0004284D01*
X0023035Y0004284D02*
X0023223Y0003909D01*
X0023223Y0003909D02*
X0023223Y0002409D01*
X0021161Y0005971D02*
X0021161Y0008408D01*
X0021161Y0008408D02*
X0022661Y0007096D01*
X0022661Y0007096D02*
X0022661Y0007658D01*
X0022661Y0007658D02*
X0022848Y0008033D01*
X0022848Y0008033D02*
X0023035Y0008221D01*
X0023035Y0008221D02*
X0023410Y0008408D01*
X0023410Y0008408D02*
X0024348Y0008408D01*
X0024348Y0008408D02*
X0024723Y0008221D01*
X0024723Y0008221D02*
X0024910Y0008033D01*
X0024910Y0008033D02*
X0025098Y0007658D01*
X0025098Y0007658D02*
X0025098Y0006534D01*
X0025098Y0006534D02*
X0024910Y0006159D01*
X0024910Y0006159D02*
X0024723Y0005971D01*
X0087390Y0063919D02*
X0087203Y0063731D01*
X0087203Y0063731D02*
X0086640Y0063544D01*
X0086640Y0063544D02*
X0086265Y0063544D01*
X0086265Y0063544D02*
X0085703Y0063731D01*
X0085703Y0063731D02*
X0085328Y0064106D01*
X0085328Y0064106D02*
X0085141Y0064481D01*
X0085141Y0064481D02*
X0084953Y0065231D01*
X0084953Y0065231D02*
X0084953Y0065794D01*
X0084953Y0065794D02*
X0085141Y0066544D01*
X0085141Y0066544D02*
X0085328Y0066919D01*
X0085328Y0066919D02*
X0085703Y0067294D01*
X0085703Y0067294D02*
X0086265Y0067481D01*
X0086265Y0067481D02*
X0086640Y0067481D01*
X0086640Y0067481D02*
X0087203Y0067294D01*
X0087203Y0067294D02*
X0087390Y0067106D01*
X0091140Y0063544D02*
X0088890Y0063544D01*
X0090015Y0063544D02*
X0090015Y0067481D01*
X0090015Y0067481D02*
X0089640Y0066919D01*
X0089640Y0066919D02*
X0089265Y0066544D01*
X0089265Y0066544D02*
X0088890Y0066356D01*
X0092452Y0067481D02*
X0095077Y0067481D01*
X0095077Y0067481D02*
X0093390Y0063544D01*
X0002617Y0023705D02*
X0002617Y0025954D01*
X0006554Y0024829D02*
X0002617Y0024829D01*
X0006554Y0027267D02*
X0002617Y0027267D01*
X0002617Y0027267D02*
X0002617Y0028766D01*
X0002617Y0028766D02*
X0002805Y0029141D01*
X0002805Y0029141D02*
X0002992Y0029329D01*
X0002992Y0029329D02*
X0003367Y0029516D01*
X0003367Y0029516D02*
X0003930Y0029516D01*
X0003930Y0029516D02*
X0004305Y0029329D01*
X0004305Y0029329D02*
X0004492Y0029141D01*
X0004492Y0029141D02*
X0004680Y0028766D01*
X0004680Y0028766D02*
X0004680Y0027267D01*
X0006367Y0031016D02*
X0006554Y0031579D01*
X0006554Y0031579D02*
X0006554Y0032516D01*
X0006554Y0032516D02*
X0006367Y0032891D01*
X0006367Y0032891D02*
X0006179Y0033078D01*
X0006179Y0033078D02*
X0005804Y0033266D01*
X0005804Y0033266D02*
X0005430Y0033266D01*
X0005430Y0033266D02*
X0005055Y0033078D01*
X0005055Y0033078D02*
X0004867Y0032891D01*
X0004867Y0032891D02*
X0004680Y0032516D01*
X0004680Y0032516D02*
X0004492Y0031766D01*
X0004492Y0031766D02*
X0004305Y0031391D01*
X0004305Y0031391D02*
X0004117Y0031204D01*
X0004117Y0031204D02*
X0003742Y0031016D01*
X0003742Y0031016D02*
X0003367Y0031016D01*
X0003367Y0031016D02*
X0002992Y0031204D01*
X0002992Y0031204D02*
X0002805Y0031391D01*
X0002805Y0031391D02*
X0002617Y0031766D01*
X0002617Y0031766D02*
X0002617Y0032703D01*
X0002617Y0032703D02*
X0002805Y0033266D01*
X0002992Y0034766D02*
X0002805Y0034953D01*
X0002805Y0034953D02*
X0002617Y0035328D01*
X0002617Y0035328D02*
X0002617Y0036265D01*
X0002617Y0036265D02*
X0002805Y0036640D01*
X0002805Y0036640D02*
X0002992Y0036828D01*
X0002992Y0036828D02*
X0003367Y0037015D01*
X0003367Y0037015D02*
X0003742Y0037015D01*
X0003742Y0037015D02*
X0004305Y0036828D01*
X0004305Y0036828D02*
X0006554Y0034578D01*
X0006554Y0034578D02*
X0006554Y0037015D01*
X0006929Y0037765D02*
X0006929Y0040765D01*
X0006179Y0043952D02*
X0006367Y0043765D01*
X0006367Y0043765D02*
X0006554Y0043202D01*
X0006554Y0043202D02*
X0006554Y0042827D01*
X0006554Y0042827D02*
X0006367Y0042265D01*
X0006367Y0042265D02*
X0005992Y0041890D01*
X0005992Y0041890D02*
X0005617Y0041702D01*
X0005617Y0041702D02*
X0004867Y0041515D01*
X0004867Y0041515D02*
X0004305Y0041515D01*
X0004305Y0041515D02*
X0003555Y0041702D01*
X0003555Y0041702D02*
X0003180Y0041890D01*
X0003180Y0041890D02*
X0002805Y0042265D01*
X0002805Y0042265D02*
X0002617Y0042827D01*
X0002617Y0042827D02*
X0002617Y0043202D01*
X0002617Y0043202D02*
X0002805Y0043765D01*
X0002805Y0043765D02*
X0002992Y0043952D01*
X0006554Y0045639D02*
X0002617Y0045639D01*
X0002617Y0045639D02*
X0002617Y0047139D01*
X0002617Y0047139D02*
X0002805Y0047514D01*
X0002805Y0047514D02*
X0002992Y0047702D01*
X0002992Y0047702D02*
X0003367Y0047889D01*
X0003367Y0047889D02*
X0003930Y0047889D01*
X0003930Y0047889D02*
X0004305Y0047702D01*
X0004305Y0047702D02*
X0004492Y0047514D01*
X0004492Y0047514D02*
X0004680Y0047139D01*
X0004680Y0047139D02*
X0004680Y0045639D01*
X0002617Y0049576D02*
X0005804Y0049576D01*
X0005804Y0049576D02*
X0006179Y0049764D01*
X0006179Y0049764D02*
X0006367Y0049951D01*
X0006367Y0049951D02*
X0006554Y0050326D01*
X0006554Y0050326D02*
X0006554Y0051076D01*
X0006554Y0051076D02*
X0006367Y0051451D01*
X0006367Y0051451D02*
X0006179Y0051639D01*
X0006179Y0051639D02*
X0005804Y0051826D01*
X0005804Y0051826D02*
X0002617Y0051826D01*
X0006554Y0055763D02*
X0006554Y0053513D01*
X0006554Y0054638D02*
X0002617Y0054638D01*
X0002617Y0054638D02*
X0003180Y0054263D01*
X0003180Y0054263D02*
X0003555Y0053888D01*
X0003555Y0053888D02*
X0003742Y0053513D01*
X0065150Y0086024D02*
X0065150Y0082837D01*
X0065150Y0082837D02*
X0065337Y0082462D01*
X0065337Y0082462D02*
X0065525Y0082275D01*
X0065525Y0082275D02*
X0065900Y0082087D01*
X0065900Y0082087D02*
X0066650Y0082087D01*
X0066650Y0082087D02*
X0067025Y0082275D01*
X0067025Y0082275D02*
X0067212Y0082462D01*
X0067212Y0082462D02*
X0067400Y0082837D01*
X0067400Y0082837D02*
X0067400Y0086024D01*
X0071337Y0082087D02*
X0069087Y0082087D01*
X0070212Y0082087D02*
X0070212Y0086024D01*
X0070212Y0086024D02*
X0069837Y0085462D01*
X0069837Y0085462D02*
X0069462Y0085087D01*
X0069462Y0085087D02*
X0069087Y0084899D01*
D25*
X0100266Y0016054D02*
X0100266Y0017922D01*
X0104380Y0016054D02*
X0104380Y0017922D01*
X0023543Y0111929D02*
X0023543Y0104449D01*
X0023543Y0104449D02*
X0030827Y0104449D01*
X0030827Y0111929D02*
X0023543Y0111929D01*
X0030827Y0111732D02*
X0030827Y0111929D01*
X0030827Y0104449D02*
X0030827Y0111732D01*
X0015374Y0070349D02*
X0015374Y0072407D01*
X0021161Y0070349D02*
X0021161Y0072407D01*
X0023484Y0070349D02*
X0023484Y0072407D01*
X0029272Y0070349D02*
X0029272Y0072407D01*
X0008666Y0057106D02*
X0006609Y0057106D01*
X0008666Y0062894D02*
X0006609Y0062894D01*
X0056497Y0117152D02*
X0054629Y0117152D01*
X0056497Y0121266D02*
X0054629Y0121266D01*
X0044497Y0117152D02*
X0042629Y0117152D01*
X0044497Y0121266D02*
X0042629Y0121266D01*
X0050226Y0036721D02*
X0050226Y0034853D01*
X0046112Y0036721D02*
X0046112Y0034853D01*
X0078248Y0070822D02*
X0078248Y0072879D01*
X0084035Y0070822D02*
X0084035Y0072879D01*
D26*
X0038142Y0113717D02*
X0073969Y0113717D01*
X0038142Y0101512D02*
X0038142Y0105449D01*
X0038142Y0101512D02*
X0073969Y0101512D01*
D25*
X0023543Y0096929D02*
X0023543Y0089449D01*
X0023543Y0089449D02*
X0030827Y0089449D01*
X0030827Y0096929D02*
X0023543Y0096929D01*
X0030827Y0096732D02*
X0030827Y0096929D01*
X0030827Y0089449D02*
X0030827Y0096732D01*
X0044941Y0043071D02*
X0051634Y0043071D01*
X0044941Y0043071D02*
X0044941Y0053543D01*
X0051634Y0043071D02*
X0051634Y0053543D01*
X0041122Y0028583D02*
X0034429Y0028583D01*
X0041122Y0028583D02*
X0041122Y0018110D01*
X0034429Y0028583D02*
X0034429Y0018110D01*
X0080002Y0011024D02*
X0078895Y0011024D01*
X0080002Y0015039D02*
X0078895Y0015039D01*
X0081772Y0092874D02*
X0081772Y0085394D01*
X0081772Y0085394D02*
X0089055Y0085394D01*
X0089055Y0092874D02*
X0081772Y0092874D01*
X0089055Y0092677D02*
X0089055Y0092874D01*
X0089055Y0085394D02*
X0089055Y0092677D01*
X0031594Y0049766D02*
X0031594Y0048659D01*
X0027579Y0049766D02*
X0027579Y0048659D01*
D26*
X0038142Y0098803D02*
X0073969Y0098803D01*
X0038142Y0086598D02*
X0038142Y0090535D01*
X0038142Y0086598D02*
X0073969Y0086598D01*
D25*
X0081772Y0107913D02*
X0081772Y0100433D01*
X0081772Y0100433D02*
X0089055Y0100433D01*
X0089055Y0107913D02*
X0081772Y0107913D01*
X0089055Y0107717D02*
X0089055Y0107913D01*
X0089055Y0100433D02*
X0089055Y0107717D01*
X0007382Y0070349D02*
X0007382Y0072407D01*
X0013169Y0070349D02*
X0013169Y0072407D01*
X0034390Y0030000D02*
X0041083Y0030000D01*
X0034390Y0030000D02*
X0034390Y0040472D01*
X0041083Y0030000D02*
X0041083Y0040472D01*
X0016555Y0021535D02*
X0016555Y0014055D01*
X0016555Y0014055D02*
X0023839Y0014055D01*
X0023839Y0021535D02*
X0016555Y0021535D01*
X0023839Y0021339D02*
X0023839Y0021535D01*
X0023839Y0014055D02*
X0023839Y0021339D01*
D24*
X0099350Y0062874D02*
X0099350Y0049488D01*
X0074350Y0055394D02*
X0072972Y0055394D01*
X0072972Y0055394D02*
X0072972Y0049291D01*
X0099350Y0024685D02*
X0099350Y0030787D01*
X0097972Y0024685D02*
X0099350Y0024685D01*
X0074350Y0024685D02*
X0072972Y0024685D01*
X0072972Y0024685D02*
X0072972Y0030787D01*
D25*
X0048169Y0070349D02*
X0048169Y0072407D01*
X0053957Y0070349D02*
X0053957Y0072407D01*
X0070984Y0059038D02*
X0070984Y0057931D01*
X0066969Y0059038D02*
X0066969Y0057931D01*
X0031713Y0070310D02*
X0031713Y0072367D01*
X0037500Y0070310D02*
X0037500Y0072367D01*
X0046201Y0009328D02*
X0046201Y0010435D01*
X0050217Y0009328D02*
X0050217Y0010435D01*
X0046112Y0021763D02*
X0046112Y0023631D01*
X0050226Y0021763D02*
X0050226Y0023631D01*
X0039941Y0070349D02*
X0039941Y0072407D01*
X0045728Y0070349D02*
X0045728Y0072407D01*
X0041240Y0015039D02*
X0034547Y0015039D01*
X0041240Y0015039D02*
X0041240Y0004567D01*
X0034547Y0015039D02*
X0034547Y0004567D01*
X0051626Y0130949D02*
X0051626Y0123469D01*
X0051626Y0123469D02*
X0058909Y0123469D01*
X0058909Y0130949D02*
X0051626Y0130949D01*
X0058909Y0130752D02*
X0058909Y0130949D01*
X0058909Y0123469D02*
X0058909Y0130752D01*
X0043010Y0127217D02*
X0044116Y0127217D01*
X0043010Y0123201D02*
X0044116Y0123201D01*
X0039675Y0050107D02*
X0039675Y0048239D01*
X0035561Y0050107D02*
X0035561Y0048239D01*
X0099606Y0071651D02*
X0099606Y0072758D01*
X0103622Y0071651D02*
X0103622Y0072758D01*
X0070020Y0070861D02*
X0070020Y0072918D01*
X0075807Y0070861D02*
X0075807Y0072918D01*
X0027175Y0008121D02*
X0027175Y0009989D01*
X0031289Y0008121D02*
X0031289Y0009989D01*
X0091319Y0071137D02*
X0091319Y0073194D01*
X0097106Y0071137D02*
X0097106Y0073194D01*
X0016673Y0050433D02*
X0016673Y0042953D01*
X0016673Y0042953D02*
X0023957Y0042953D01*
X0023957Y0050433D02*
X0016673Y0050433D01*
X0023957Y0050236D02*
X0023957Y0050433D01*
X0023957Y0042953D02*
X0023957Y0050236D01*
D27*
X0056161Y0080039D02*
X0116161Y0080039D01*
X0056161Y0000039D02*
X0056161Y0080039D01*
X0116161Y0080039D02*
X0116161Y0000039D01*
X0116161Y0000039D02*
X0056161Y0000039D01*
D26*
X0053484Y0077244D02*
G75*
G03*
X0053484Y0077244I-000394J0000000D01*
G01*
X0037748Y0101118D02*
G01*
G75*
D24*
X0040928Y0113291D02*
X0040141Y0113291D01*
X0040928Y0113291D01*
X0056538Y0113224D02*
X0055750Y0113224D01*
X0056538Y0113224D01*
D26*
X0038142Y0101512D02*
X0073968Y0101512D01*
X0038142Y0113716D02*
X0073968Y0113716D01*
X0038142Y0101512D02*
X0038142Y0105449D01*
X0044677Y0101500D02*
X0051764Y0101500D01*
X0044677Y0113704D02*
X0051764Y0113704D01*
X0051764Y0113508D02*
X0051764Y0113704D01*
X0044677Y0113508D02*
X0044677Y0113704D01*
X0051764Y0101500D02*
X0051764Y0101697D01*
X0044677Y0101500D02*
X0044677Y0101697D01*
X0060327Y0101500D02*
X0067413Y0101500D01*
X0060327Y0113704D02*
X0067413Y0113704D01*
X0067413Y0113508D02*
X0067413Y0113704D01*
X0060327Y0113508D02*
X0060327Y0113704D01*
X0067413Y0101500D02*
X0067413Y0101697D01*
X0060327Y0101500D02*
X0060327Y0101697D01*
X0037748Y0086205D02*
G01*
G75*
D24*
X0040928Y0098378D02*
X0040141Y0098378D01*
X0040928Y0098378D01*
X0056538Y0098311D02*
X0055750Y0098311D01*
X0056538Y0098311D01*
D26*
X0038142Y0086599D02*
X0073968Y0086599D01*
X0038142Y0098803D02*
X0073968Y0098803D01*
X0038142Y0086599D02*
X0038142Y0090536D01*
X0044677Y0086587D02*
X0051764Y0086587D01*
X0044677Y0098791D02*
X0051764Y0098791D01*
X0051764Y0098595D02*
X0051764Y0098791D01*
X0044677Y0098595D02*
X0044677Y0098791D01*
X0051764Y0086587D02*
X0051764Y0086784D01*
X0044677Y0086587D02*
X0044677Y0086784D01*
X0060327Y0086587D02*
X0067413Y0086587D01*
X0060327Y0098791D02*
X0067413Y0098791D01*
X0067413Y0098595D02*
X0067413Y0098791D01*
X0060327Y0098595D02*
X0060327Y0098791D01*
X0067413Y0086587D02*
X0067413Y0086784D01*
X0060327Y0086587D02*
X0060327Y0086784D01*
M02*
