M48
INCH,TZ
T01C0.013750
T02C0.027600
T03C0.040200
%
T01
X3893Y11135
X3893Y10781
X3893Y9644
X3893Y9290
X7318Y11135
X7318Y10761
X7318Y10387
X7318Y9644
X7318Y9270
X7318Y8896
X1006Y6780
X1106Y5980
X1806Y6780
X2606Y6780
X3506Y6780
X4306Y6780
X5106Y6780
X7213Y3260
X7217Y3606
X7220Y4689
X7220Y3965
X7224Y4323
X7303Y6799
X7567Y4661
X7571Y3969
X7571Y3618
X7571Y3272
X7575Y4319
X7921Y4673
X7925Y3980
X7925Y3630
X7925Y3283
X7929Y4331
X8035Y2075
X8134Y6799
X8256Y1307
X8272Y4665
X8276Y3972
X8276Y3622
X8276Y3276
X8280Y4323
X8429Y2087
X8626Y4677
X8630Y3984
X8630Y3634
X8630Y3287
X8634Y4335
X8815Y2094
X8969Y4677
X8972Y3984
X8972Y3634
X8972Y3287
X8976Y4335
X9323Y4689
X9327Y3996
X9327Y3646
X9327Y3299
X9331Y4346
X9433Y6831
X9665Y4697
X9669Y4004
X9669Y3654
X9669Y3307
X9673Y4354
X10020Y4709
X10024Y4016
X10024Y3665
X10024Y3319
X10028Y4366
X10059Y5272
X10157Y6902
X3899Y10241
X4051Y10494
X3893Y10781
X3893Y11136
X4895Y10802
X5169Y10697
X5412Y10910
X4862Y10397
X6341Y11137
X7318Y11136
X7318Y10762
X7318Y10388
X3899Y8749
X4051Y9002
X3893Y9289
X3893Y9644
X4895Y9310
X5169Y9205
X5412Y9418
X4862Y8905
X6341Y9645
X7318Y9644
X7318Y9270
X7318Y8896
T02
X2030Y1780
X2041Y4669
X3056Y10821
X3056Y9321
X5537Y12721
X8156Y10421
X8156Y8921
T03
X6116Y7504
X6116Y6504
X6116Y5504
X6116Y4504
X6116Y3504
X6116Y2504
X6116Y1504
X6116Y504
X11116Y7504
X11116Y6504
X11116Y5504
X11116Y4504
X11116Y3504
X11116Y2504
X11116Y1504
X11116Y504
M30
