G75*
G70*
%OFA0B0*%
%FSLAX25Y25*%
%IPPOS*%
%LPD*%
%AMOC8*
5,1,8,0,0,1.08239X$1,22.5*
%
%AMM3*
21,1,0.023620,0.018900,0.000000,0.000000,180.000000*
21,1,0.018900,0.023620,0.000000,0.000000,180.000000*
1,1,0.004720,-0.009450,0.009450*
1,1,0.004720,0.009450,0.009450*
1,1,0.004720,0.009450,-0.009450*
1,1,0.004720,-0.009450,-0.009450*
%
%AMM4*
21,1,0.019680,0.019680,0.000000,0.000000,270.000000*
21,1,0.015750,0.023620,0.000000,0.000000,270.000000*
1,1,0.003940,-0.009840,-0.007870*
1,1,0.003940,-0.009840,0.007870*
1,1,0.003940,0.009840,0.007870*
1,1,0.003940,0.009840,-0.007870*
%
%AMM5*
21,1,0.033470,0.026770,0.000000,0.000000,270.000000*
21,1,0.026770,0.033470,0.000000,0.000000,270.000000*
1,1,0.006690,-0.013390,-0.013390*
1,1,0.006690,-0.013390,0.013390*
1,1,0.006690,0.013390,0.013390*
1,1,0.006690,0.013390,-0.013390*
%
%AMM6*
21,1,0.019680,0.019680,0.000000,0.000000,0.000000*
21,1,0.015750,0.023620,0.000000,0.000000,0.000000*
1,1,0.003940,0.007870,-0.009840*
1,1,0.003940,-0.007870,-0.009840*
1,1,0.003940,-0.007870,0.009840*
1,1,0.003940,0.007870,0.009840*
%
%ADD10C,0.05512*%
%ADD11C,0.02362*%
%ADD12O,0.00787X0.04823*%
%ADD13O,0.36614X0.00787*%
%ADD16R,0.06024X0.06024*%
%ADD17C,0.06024*%
%ADD18C,0.03150*%
%ADD20C,0.01181*%
%ADD21C,0.00984*%
%ADD26C,0.00787*%
%ADD31C,0.01575*%
%ADD34M3*%
%ADD35M4*%
%ADD36M5*%
%ADD37M6*%
X0000000Y0000000D02*
%LPD*%
G01*
D10*
X0030563Y0108209D03*
D11*
X0073181Y0111354D03*
D12*
X0038142Y0103579D03*
D13*
X0056055Y0113717D03*
X0056055Y0101512D03*
D11*
X0073181Y0107614D03*
X0073181Y0103874D03*
X0038929Y0107811D03*
X0038929Y0111354D03*
D10*
X0030563Y0093209D03*
X0081563Y0089209D03*
D11*
X0073181Y0096441D03*
D12*
X0038142Y0088665D03*
D13*
X0056055Y0098803D03*
X0056055Y0086598D03*
D11*
X0073181Y0092701D03*
X0073181Y0088961D03*
X0038929Y0092898D03*
X0038929Y0096441D03*
D10*
X0081563Y0104209D03*
X0020295Y0017795D03*
X0055366Y0127209D03*
X0020413Y0046693D03*
D16*
X0061161Y0075039D03*
D17*
X0061161Y0065039D03*
X0061161Y0055039D03*
X0061161Y0045039D03*
X0061161Y0035039D03*
X0061161Y0025039D03*
X0061161Y0015039D03*
X0061161Y0005039D03*
X0111161Y0005039D03*
X0111161Y0015039D03*
X0111161Y0025039D03*
X0111161Y0035039D03*
X0111161Y0045039D03*
X0111161Y0055039D03*
X0111161Y0065039D03*
X0111161Y0075039D03*
D18*
X0082756Y0039724D03*
X0079252Y0032835D03*
X0072205Y0046890D03*
X0086299Y0036339D03*
X0072126Y0032598D03*
X0079252Y0039803D03*
X0096693Y0040039D03*
X0100276Y0043661D03*
X0088150Y0020945D03*
X0094331Y0068307D03*
X0093268Y0032992D03*
X0072165Y0036063D03*
X0075709Y0032717D03*
X0089724Y0036339D03*
X0101575Y0069016D03*
X0089724Y0032874D03*
X0079291Y0043307D03*
X0073031Y0067992D03*
X0093228Y0046890D03*
X0082717Y0046654D03*
X0084291Y0020866D03*
X0011055Y0059803D03*
X0100236Y0036654D03*
X0100236Y0040157D03*
X0100236Y0033189D03*
X0079213Y0046732D03*
X0082795Y0043228D03*
X0072205Y0039646D03*
X0075709Y0036181D03*
X0051055Y0067803D03*
X0093268Y0036457D03*
X0082756Y0036220D03*
X0079252Y0036299D03*
X0086260Y0046772D03*
X0026055Y0067803D03*
X0100197Y0047087D03*
X0089764Y0043346D03*
X0089685Y0046772D03*
X0096654Y0046969D03*
X0096693Y0036535D03*
X0089724Y0039843D03*
X0018055Y0067803D03*
X0072244Y0043228D03*
X0096732Y0043543D03*
X0082756Y0032756D03*
X0093268Y0039961D03*
X0010055Y0067803D03*
X0075709Y0039685D03*
X0093307Y0043465D03*
X0086299Y0039843D03*
X0082559Y0013071D03*
X0080354Y0020748D03*
X0075669Y0046614D03*
X0043055Y0067803D03*
X0075748Y0043189D03*
X0086339Y0043346D03*
X0086299Y0032874D03*
X0081339Y0067992D03*
X0035055Y0067803D03*
X0096693Y0033071D03*
X0100591Y0052717D03*
D20*
X0100591Y0052717D02*
X0108839Y0052717D01*
X0108839Y0052717D02*
X0111161Y0055039D01*
D21*
X0030563Y0108209D02*
X0038532Y0108209D01*
X0038532Y0108209D02*
X0038929Y0107811D01*
X0081563Y0104209D02*
X0073516Y0104209D01*
X0073516Y0104209D02*
X0073181Y0103874D01*
G36*
X0116073Y0133503D02*
G01*
X0116253Y0133295D01*
X0116297Y0133092D01*
X0116262Y0086011D01*
X0116258Y0080040D01*
X0116258Y0077996D01*
X0116180Y0077732D01*
X0115972Y0077551D01*
X0115700Y0077512D01*
X0115450Y0077627D01*
X0115370Y0077716D01*
X0115174Y0077996D01*
X0114993Y0078254D01*
X0114376Y0078871D01*
X0113662Y0079371D01*
X0113662Y0079371D01*
X0112872Y0079739D01*
X0112872Y0079739D01*
X0112030Y0079965D01*
X0112030Y0079965D01*
X0111161Y0080041D01*
X0111161Y0080041D01*
X0110293Y0079965D01*
X0110293Y0079965D01*
X0109451Y0079739D01*
X0109451Y0079739D01*
X0108661Y0079371D01*
X0108661Y0079371D01*
X0107947Y0078871D01*
X0107330Y0078254D01*
X0106830Y0077540D01*
X0106830Y0077540D01*
X0106462Y0076750D01*
X0106462Y0076750D01*
X0106236Y0075908D01*
X0106236Y0075908D01*
X0106160Y0075039D01*
X0106160Y0075039D01*
X0106236Y0074171D01*
X0106236Y0074171D01*
X0106462Y0073329D01*
X0106462Y0073329D01*
X0106819Y0072563D01*
X0106830Y0072539D01*
X0107330Y0071825D01*
X0107947Y0071208D01*
X0108661Y0070708D01*
X0108850Y0070620D01*
X0109146Y0070482D01*
X0109352Y0070300D01*
X0109428Y0070036D01*
X0109348Y0069772D01*
X0109146Y0069597D01*
X0108661Y0069371D01*
X0108661Y0069371D01*
X0107947Y0068871D01*
X0107330Y0068254D01*
X0106830Y0067540D01*
X0106830Y0067540D01*
X0106462Y0066750D01*
X0106462Y0066750D01*
X0106236Y0065908D01*
X0106236Y0065908D01*
X0106160Y0065039D01*
X0106160Y0065039D01*
X0106236Y0064171D01*
X0106236Y0064171D01*
X0106462Y0063329D01*
X0106462Y0063329D01*
X0106572Y0063093D01*
X0106830Y0062539D01*
X0107330Y0061825D01*
X0107947Y0061208D01*
X0108661Y0060708D01*
X0108905Y0060594D01*
X0109146Y0060482D01*
X0109352Y0060300D01*
X0109428Y0060036D01*
X0109348Y0059772D01*
X0109146Y0059597D01*
X0108661Y0059371D01*
X0108661Y0059371D01*
X0107947Y0058871D01*
X0107330Y0058254D01*
X0106830Y0057540D01*
X0106830Y0057540D01*
X0106462Y0056750D01*
X0106462Y0056750D01*
X0106236Y0055908D01*
X0106236Y0055908D01*
X0106220Y0055723D01*
X0106120Y0055467D01*
X0105897Y0055306D01*
X0105734Y0055278D01*
X0103256Y0055278D01*
X0102992Y0055355D01*
X0102969Y0055371D01*
X0102373Y0055804D01*
X0102373Y0055804D01*
X0101692Y0056107D01*
X0101692Y0056107D01*
X0101118Y0056229D01*
X0100963Y0056262D01*
X0100218Y0056262D01*
X0100090Y0056235D01*
X0099489Y0056107D01*
X0099489Y0056107D01*
X0098808Y0055804D01*
X0098808Y0055804D01*
X0098205Y0055366D01*
X0097707Y0054812D01*
X0097334Y0054166D01*
X0097334Y0054166D01*
X0097104Y0053458D01*
X0097104Y0053458D01*
X0097026Y0052717D01*
X0097104Y0051975D01*
X0097104Y0051975D01*
X0097334Y0051267D01*
X0097334Y0051267D01*
X0097707Y0050621D01*
X0098196Y0050078D01*
X0098205Y0050067D01*
X0098808Y0049629D01*
X0098808Y0049629D01*
X0099489Y0049326D01*
X0099489Y0049326D01*
X0100218Y0049171D01*
X0100218Y0049171D01*
X0100963Y0049171D01*
X0100963Y0049171D01*
X0101692Y0049326D01*
X0102373Y0049629D01*
X0102969Y0050062D01*
X0103228Y0050155D01*
X0103256Y0050156D01*
X0108233Y0050156D01*
X0108497Y0050078D01*
X0108677Y0049870D01*
X0108717Y0049598D01*
X0108602Y0049348D01*
X0108513Y0049267D01*
X0108405Y0049192D01*
X0107947Y0048871D01*
X0107330Y0048254D01*
X0106830Y0047540D01*
X0106830Y0047540D01*
X0106462Y0046750D01*
X0106462Y0046750D01*
X0106236Y0045908D01*
X0106236Y0045908D01*
X0106160Y0045039D01*
X0106160Y0045039D01*
X0106236Y0044171D01*
X0106236Y0044171D01*
X0106462Y0043329D01*
X0106462Y0043329D01*
X0106659Y0042905D01*
X0106830Y0042539D01*
X0107330Y0041825D01*
X0107947Y0041208D01*
X0108661Y0040708D01*
X0108905Y0040594D01*
X0109146Y0040482D01*
X0109352Y0040300D01*
X0109428Y0040036D01*
X0109348Y0039772D01*
X0109146Y0039597D01*
X0108661Y0039371D01*
X0108661Y0039371D01*
X0107947Y0038871D01*
X0107330Y0038254D01*
X0106830Y0037540D01*
X0106830Y0037540D01*
X0106462Y0036750D01*
X0106462Y0036750D01*
X0106236Y0035908D01*
X0106236Y0035908D01*
X0106160Y0035039D01*
X0106160Y0035039D01*
X0106236Y0034171D01*
X0106236Y0034171D01*
X0106462Y0033329D01*
X0106462Y0033329D01*
X0106819Y0032563D01*
X0106830Y0032539D01*
X0107330Y0031825D01*
X0107947Y0031208D01*
X0108661Y0030708D01*
X0108905Y0030594D01*
X0109146Y0030482D01*
X0109352Y0030300D01*
X0109428Y0030036D01*
X0109348Y0029772D01*
X0109146Y0029597D01*
X0108661Y0029371D01*
X0108661Y0029371D01*
X0107947Y0028871D01*
X0107330Y0028254D01*
X0106830Y0027540D01*
X0106830Y0027540D01*
X0106462Y0026750D01*
X0106462Y0026750D01*
X0106236Y0025908D01*
X0106236Y0025908D01*
X0106160Y0025039D01*
X0106160Y0025039D01*
X0106236Y0024171D01*
X0106236Y0024171D01*
X0106462Y0023329D01*
X0106462Y0023329D01*
X0106819Y0022563D01*
X0106830Y0022539D01*
X0107330Y0021825D01*
X0107947Y0021208D01*
X0108661Y0020708D01*
X0108905Y0020594D01*
X0109146Y0020482D01*
X0109352Y0020300D01*
X0109428Y0020036D01*
X0109348Y0019772D01*
X0109146Y0019597D01*
X0108661Y0019371D01*
X0108661Y0019371D01*
X0107947Y0018871D01*
X0107330Y0018254D01*
X0106830Y0017540D01*
X0106830Y0017540D01*
X0106462Y0016750D01*
X0106462Y0016750D01*
X0106236Y0015908D01*
X0106236Y0015908D01*
X0106160Y0015039D01*
X0106160Y0015039D01*
X0106236Y0014171D01*
X0106236Y0014171D01*
X0106462Y0013329D01*
X0106462Y0013329D01*
X0106583Y0013069D01*
X0106830Y0012539D01*
X0107330Y0011825D01*
X0107947Y0011208D01*
X0108661Y0010708D01*
X0108905Y0010594D01*
X0109146Y0010482D01*
X0109352Y0010300D01*
X0109428Y0010036D01*
X0109348Y0009772D01*
X0109146Y0009597D01*
X0108661Y0009371D01*
X0108661Y0009371D01*
X0107947Y0008871D01*
X0107330Y0008254D01*
X0106830Y0007540D01*
X0106830Y0007540D01*
X0106462Y0006750D01*
X0106462Y0006750D01*
X0106236Y0005908D01*
X0106236Y0005908D01*
X0106160Y0005039D01*
X0106160Y0005039D01*
X0106236Y0004171D01*
X0106236Y0004171D01*
X0106462Y0003329D01*
X0106462Y0003329D01*
X0106572Y0003093D01*
X0106830Y0002539D01*
X0107330Y0001825D01*
X0107947Y0001208D01*
X0108373Y0000910D01*
X0108545Y0000695D01*
X0108573Y0000421D01*
X0108449Y0000176D01*
X0108212Y0000036D01*
X0108093Y0000022D01*
X0064227Y0000022D01*
X0063963Y0000099D01*
X0063783Y0000307D01*
X0063743Y0000579D01*
X0063858Y0000830D01*
X0063918Y0000884D01*
X0063919Y0000890D01*
X0061718Y0003091D01*
X0061733Y0003093D01*
X0062258Y0003333D01*
X0062694Y0003711D01*
X0063007Y0004197D01*
X0063095Y0004498D01*
X0065311Y0002282D01*
X0065491Y0002540D01*
X0065859Y0003329D01*
X0065859Y0003330D01*
X0066085Y0004171D01*
X0066085Y0004171D01*
X0066161Y0005039D01*
X0066161Y0005039D01*
X0066085Y0005907D01*
X0066085Y0005908D01*
X0065859Y0006749D01*
X0065859Y0006749D01*
X0065491Y0007539D01*
X0065491Y0007539D01*
X0065311Y0007797D01*
X0065311Y0007797D01*
X0063095Y0005581D01*
X0063007Y0005882D01*
X0062694Y0006368D01*
X0062258Y0006746D01*
X0061733Y0006986D01*
X0061718Y0006988D01*
X0063919Y0009189D01*
X0063919Y0009189D01*
X0063661Y0009369D01*
X0063174Y0009596D01*
X0062968Y0009778D01*
X0062893Y0010042D01*
X0062972Y0010305D01*
X0063174Y0010481D01*
X0063662Y0010708D01*
X0064376Y0011208D01*
X0064993Y0011825D01*
X0065493Y0012539D01*
X0065861Y0013329D01*
X0066087Y0014171D01*
X0066163Y0015039D01*
X0066087Y0015908D01*
X0065861Y0016750D01*
X0065493Y0017540D01*
X0064993Y0018254D01*
X0064376Y0018871D01*
X0063662Y0019371D01*
X0063177Y0019597D01*
X0062970Y0019779D01*
X0062895Y0020043D01*
X0062975Y0020307D01*
X0063177Y0020482D01*
X0063662Y0020708D01*
X0064376Y0021208D01*
X0064993Y0021825D01*
X0065493Y0022539D01*
X0065861Y0023329D01*
X0066087Y0024171D01*
X0066163Y0025039D01*
X0066087Y0025908D01*
X0065861Y0026750D01*
X0065493Y0027540D01*
X0064993Y0028254D01*
X0064376Y0028871D01*
X0063662Y0029371D01*
X0063177Y0029597D01*
X0062970Y0029779D01*
X0062895Y0030043D01*
X0062975Y0030307D01*
X0063177Y0030482D01*
X0063662Y0030708D01*
X0064376Y0031208D01*
X0064993Y0031825D01*
X0065493Y0032539D01*
X0065861Y0033329D01*
X0066087Y0034171D01*
X0066163Y0035039D01*
X0066087Y0035908D01*
X0065861Y0036750D01*
X0065493Y0037540D01*
X0064993Y0038254D01*
X0064376Y0038871D01*
X0063662Y0039371D01*
X0063177Y0039597D01*
X0062970Y0039779D01*
X0062895Y0040043D01*
X0062975Y0040307D01*
X0063177Y0040482D01*
X0063662Y0040708D01*
X0064376Y0041208D01*
X0064993Y0041825D01*
X0065493Y0042539D01*
X0065861Y0043329D01*
X0066087Y0044171D01*
X0066157Y0044978D01*
X0066163Y0045039D01*
X0066163Y0045039D01*
X0066094Y0045821D01*
X0066087Y0045908D01*
X0065861Y0046750D01*
X0065493Y0047540D01*
X0064993Y0048254D01*
X0064376Y0048871D01*
X0063662Y0049371D01*
X0063177Y0049597D01*
X0062970Y0049779D01*
X0062895Y0050043D01*
X0062975Y0050307D01*
X0063177Y0050482D01*
X0063662Y0050708D01*
X0064376Y0051208D01*
X0064993Y0051825D01*
X0065493Y0052539D01*
X0065861Y0053329D01*
X0066087Y0054171D01*
X0066163Y0055039D01*
X0066087Y0055908D01*
X0065861Y0056750D01*
X0065493Y0057540D01*
X0064993Y0058254D01*
X0064376Y0058871D01*
X0063662Y0059371D01*
X0063662Y0059371D01*
X0063174Y0059598D01*
X0062968Y0059780D01*
X0062893Y0060044D01*
X0062972Y0060308D01*
X0063174Y0060483D01*
X0063661Y0060710D01*
X0063661Y0060710D01*
X0063919Y0060890D01*
X0061718Y0063091D01*
X0061733Y0063093D01*
X0062258Y0063333D01*
X0062694Y0063711D01*
X0063007Y0064197D01*
X0063095Y0064498D01*
X0065311Y0062282D01*
X0065491Y0062540D01*
X0065859Y0063329D01*
X0065859Y0063330D01*
X0066085Y0064171D01*
X0066085Y0064171D01*
X0066161Y0065039D01*
X0066161Y0065039D01*
X0066085Y0065907D01*
X0066085Y0065908D01*
X0065859Y0066749D01*
X0065859Y0066749D01*
X0065491Y0067539D01*
X0065491Y0067539D01*
X0065311Y0067797D01*
X0065311Y0067797D01*
X0063095Y0065581D01*
X0063007Y0065882D01*
X0062694Y0066368D01*
X0062258Y0066746D01*
X0061733Y0066986D01*
X0061718Y0066988D01*
X0063919Y0069189D01*
X0063917Y0069206D01*
X0063775Y0069384D01*
X0063747Y0069657D01*
X0063871Y0069903D01*
X0064108Y0070042D01*
X0064227Y0070057D01*
X0064362Y0070057D01*
X0064596Y0070082D01*
X0065127Y0070280D01*
X0065581Y0070620D01*
X0065920Y0071074D01*
X0066118Y0071604D01*
X0066144Y0071839D01*
X0066144Y0078240D01*
X0066118Y0078474D01*
X0065971Y0078871D01*
X0065920Y0079005D01*
X0065920Y0079005D01*
X0065581Y0079459D01*
X0065581Y0079459D01*
X0065127Y0079798D01*
X0065127Y0079798D01*
X0064596Y0079996D01*
X0064596Y0079996D01*
X0064362Y0080022D01*
X0064362Y0080022D01*
X0064362Y0080022D01*
X0064362Y0080022D01*
X0057961Y0080022D01*
X0057961Y0080022D01*
X0057726Y0079996D01*
X0057196Y0079798D01*
X0057196Y0079798D01*
X0056742Y0079459D01*
X0056742Y0079459D01*
X0056402Y0079005D01*
X0056402Y0079005D01*
X0056204Y0078474D01*
X0056181Y0078254D01*
X0056179Y0078240D01*
X0056179Y0078240D01*
X0056179Y0071839D01*
X0056179Y0071839D01*
X0056204Y0071604D01*
X0056402Y0071074D01*
X0056402Y0071073D01*
X0056742Y0070620D01*
X0056742Y0070620D01*
X0057196Y0070280D01*
X0057196Y0070280D01*
X0057726Y0070082D01*
X0057726Y0070082D01*
X0057754Y0070079D01*
X0057961Y0070057D01*
X0058096Y0070057D01*
X0058360Y0069980D01*
X0058540Y0069772D01*
X0058579Y0069499D01*
X0058465Y0069249D01*
X0058405Y0069195D01*
X0058404Y0069189D01*
X0060605Y0066988D01*
X0060590Y0066986D01*
X0060065Y0066746D01*
X0059628Y0066368D01*
X0059316Y0065882D01*
X0059228Y0065581D01*
X0057012Y0067797D01*
X0056832Y0067539D01*
X0056464Y0066749D01*
X0056464Y0066749D01*
X0056238Y0065908D01*
X0056238Y0065907D01*
X0056162Y0065039D01*
X0056162Y0065039D01*
X0056238Y0064171D01*
X0056238Y0064171D01*
X0056464Y0063330D01*
X0056464Y0063329D01*
X0056832Y0062540D01*
X0057012Y0062282D01*
X0057012Y0062282D01*
X0059228Y0064498D01*
X0059316Y0064197D01*
X0059628Y0063711D01*
X0060065Y0063333D01*
X0060590Y0063093D01*
X0060605Y0063091D01*
X0058404Y0060890D01*
X0058662Y0060710D01*
X0058662Y0060710D01*
X0059148Y0060483D01*
X0059355Y0060301D01*
X0059430Y0060037D01*
X0059351Y0059773D01*
X0059148Y0059598D01*
X0058661Y0059371D01*
X0057947Y0058871D01*
X0057330Y0058254D01*
X0056830Y0057540D01*
X0056830Y0057540D01*
X0056462Y0056750D01*
X0056462Y0056750D01*
X0056236Y0055908D01*
X0056236Y0055908D01*
X0056160Y0055039D01*
X0056160Y0055039D01*
X0056236Y0054171D01*
X0056236Y0054171D01*
X0056462Y0053329D01*
X0056462Y0053329D01*
X0056747Y0052717D01*
X0056830Y0052539D01*
X0057330Y0051825D01*
X0057947Y0051208D01*
X0058661Y0050708D01*
X0058847Y0050621D01*
X0059146Y0050482D01*
X0059352Y0050300D01*
X0059428Y0050036D01*
X0059348Y0049772D01*
X0059146Y0049597D01*
X0058661Y0049371D01*
X0058661Y0049371D01*
X0057947Y0048871D01*
X0057330Y0048254D01*
X0056830Y0047540D01*
X0056830Y0047540D01*
X0056462Y0046750D01*
X0056462Y0046750D01*
X0056236Y0045908D01*
X0056236Y0045908D01*
X0056160Y0045039D01*
X0056160Y0045039D01*
X0056236Y0044171D01*
X0056236Y0044171D01*
X0056462Y0043329D01*
X0056462Y0043329D01*
X0056659Y0042905D01*
X0056830Y0042539D01*
X0057330Y0041825D01*
X0057947Y0041208D01*
X0058661Y0040708D01*
X0058905Y0040594D01*
X0059146Y0040482D01*
X0059352Y0040300D01*
X0059428Y0040036D01*
X0059348Y0039772D01*
X0059146Y0039597D01*
X0058661Y0039371D01*
X0058661Y0039371D01*
X0057947Y0038871D01*
X0057330Y0038254D01*
X0056830Y0037540D01*
X0056830Y0037540D01*
X0056462Y0036750D01*
X0056462Y0036750D01*
X0056236Y0035908D01*
X0056236Y0035908D01*
X0056160Y0035039D01*
X0056160Y0035039D01*
X0056236Y0034171D01*
X0056236Y0034171D01*
X0056462Y0033329D01*
X0056462Y0033329D01*
X0056819Y0032563D01*
X0056830Y0032539D01*
X0057330Y0031825D01*
X0057947Y0031208D01*
X0058661Y0030708D01*
X0058905Y0030594D01*
X0059146Y0030482D01*
X0059352Y0030300D01*
X0059428Y0030036D01*
X0059348Y0029772D01*
X0059146Y0029597D01*
X0058661Y0029371D01*
X0058661Y0029371D01*
X0057947Y0028871D01*
X0057330Y0028254D01*
X0056830Y0027540D01*
X0056830Y0027540D01*
X0056462Y0026750D01*
X0056462Y0026750D01*
X0056236Y0025908D01*
X0056236Y0025908D01*
X0056160Y0025039D01*
X0056160Y0025039D01*
X0056236Y0024171D01*
X0056236Y0024171D01*
X0056462Y0023329D01*
X0056462Y0023329D01*
X0056819Y0022563D01*
X0056830Y0022539D01*
X0057330Y0021825D01*
X0057947Y0021208D01*
X0058661Y0020708D01*
X0058905Y0020594D01*
X0059146Y0020482D01*
X0059352Y0020300D01*
X0059428Y0020036D01*
X0059348Y0019772D01*
X0059146Y0019597D01*
X0058661Y0019371D01*
X0058661Y0019371D01*
X0057947Y0018871D01*
X0057330Y0018254D01*
X0056830Y0017540D01*
X0056830Y0017540D01*
X0056462Y0016750D01*
X0056462Y0016750D01*
X0056236Y0015908D01*
X0056236Y0015908D01*
X0056160Y0015039D01*
X0056160Y0015039D01*
X0056236Y0014171D01*
X0056236Y0014171D01*
X0056462Y0013329D01*
X0056462Y0013329D01*
X0056583Y0013069D01*
X0056830Y0012539D01*
X0057330Y0011825D01*
X0057947Y0011208D01*
X0058661Y0010708D01*
X0059148Y0010481D01*
X0059355Y0010299D01*
X0059430Y0010034D01*
X0059351Y0009771D01*
X0059148Y0009596D01*
X0058662Y0009369D01*
X0058404Y0009189D01*
X0060605Y0006988D01*
X0060590Y0006986D01*
X0060065Y0006746D01*
X0059628Y0006368D01*
X0059316Y0005882D01*
X0059228Y0005581D01*
X0057012Y0007797D01*
X0056832Y0007539D01*
X0056464Y0006749D01*
X0056464Y0006749D01*
X0056238Y0005908D01*
X0056238Y0005907D01*
X0056162Y0005039D01*
X0056162Y0005039D01*
X0056238Y0004171D01*
X0056238Y0004171D01*
X0056464Y0003330D01*
X0056464Y0003329D01*
X0056832Y0002540D01*
X0057012Y0002282D01*
X0057012Y0002282D01*
X0059228Y0004498D01*
X0059316Y0004197D01*
X0059628Y0003711D01*
X0060065Y0003333D01*
X0060590Y0003093D01*
X0060605Y0003091D01*
X0058404Y0000890D01*
X0058406Y0000873D01*
X0058548Y0000695D01*
X0058576Y0000421D01*
X0058452Y0000176D01*
X0058215Y0000036D01*
X0058096Y0000022D01*
X0056141Y0000022D01*
X0000490Y0000002D01*
X0000226Y0000080D01*
X0000046Y0000287D01*
X0000002Y0000490D01*
X0000002Y0017795D01*
X0015549Y0017795D01*
X0015629Y0016923D01*
X0015629Y0016923D01*
X0015869Y0016081D01*
X0015869Y0016081D01*
X0016260Y0015297D01*
X0016260Y0015296D01*
X0016787Y0014597D01*
X0017435Y0014007D01*
X0017435Y0014007D01*
X0018180Y0013546D01*
X0018180Y0013546D01*
X0018180Y0013546D01*
X0018996Y0013230D01*
X0019857Y0013069D01*
X0019857Y0013069D01*
X0020733Y0013069D01*
X0020733Y0013069D01*
X0021594Y0013230D01*
X0022411Y0013546D01*
X0023156Y0014007D01*
X0023803Y0014597D01*
X0024331Y0015297D01*
X0024721Y0016081D01*
X0024961Y0016923D01*
X0025042Y0017795D01*
X0024961Y0018667D01*
X0024721Y0019510D01*
X0024721Y0019510D01*
X0024331Y0020294D01*
X0024331Y0020294D01*
X0023803Y0020993D01*
X0023156Y0021583D01*
X0023156Y0021583D01*
X0022411Y0022044D01*
X0022411Y0022044D01*
X0022311Y0022083D01*
X0021594Y0022361D01*
X0020733Y0022522D01*
X0019857Y0022522D01*
X0018996Y0022361D01*
X0018480Y0022161D01*
X0018180Y0022044D01*
X0018180Y0022044D01*
X0017435Y0021583D01*
X0017435Y0021583D01*
X0016787Y0020993D01*
X0016260Y0020294D01*
X0016260Y0020294D01*
X0015869Y0019510D01*
X0015869Y0019510D01*
X0015629Y0018667D01*
X0015629Y0018667D01*
X0015549Y0017795D01*
X0015549Y0017795D01*
X0000002Y0017795D01*
X0000002Y0046693D01*
X0015667Y0046693D01*
X0015748Y0045821D01*
X0015748Y0045821D01*
X0015987Y0044978D01*
X0015987Y0044978D01*
X0016378Y0044194D01*
X0016378Y0044194D01*
X0016906Y0043495D01*
X0017553Y0042905D01*
X0017553Y0042905D01*
X0018298Y0042444D01*
X0018298Y0042444D01*
X0018298Y0042444D01*
X0019114Y0042127D01*
X0019975Y0041967D01*
X0019975Y0041967D01*
X0020851Y0041967D01*
X0020851Y0041967D01*
X0021712Y0042127D01*
X0022529Y0042444D01*
X0023274Y0042905D01*
X0023921Y0043495D01*
X0024449Y0044194D01*
X0024839Y0044978D01*
X0025079Y0045821D01*
X0025160Y0046693D01*
X0025079Y0047565D01*
X0024839Y0048408D01*
X0024459Y0049171D01*
X0024449Y0049192D01*
X0024449Y0049192D01*
X0023921Y0049891D01*
X0023274Y0050481D01*
X0023274Y0050481D01*
X0022529Y0050942D01*
X0022529Y0050942D01*
X0021712Y0051258D01*
X0020851Y0051419D01*
X0019975Y0051419D01*
X0019114Y0051258D01*
X0018985Y0051208D01*
X0018298Y0050942D01*
X0018298Y0050942D01*
X0017553Y0050481D01*
X0017553Y0050481D01*
X0016906Y0049891D01*
X0016378Y0049192D01*
X0016378Y0049192D01*
X0015987Y0048408D01*
X0015987Y0048408D01*
X0015748Y0047565D01*
X0015748Y0047565D01*
X0015667Y0046693D01*
X0015667Y0046693D01*
X0000002Y0046693D01*
X0000002Y0093209D01*
X0025816Y0093209D01*
X0025897Y0092336D01*
X0025897Y0092336D01*
X0026137Y0091494D01*
X0026137Y0091494D01*
X0026527Y0090710D01*
X0026527Y0090710D01*
X0027055Y0090011D01*
X0027703Y0089421D01*
X0027703Y0089421D01*
X0028447Y0088960D01*
X0028447Y0088960D01*
X0028447Y0088960D01*
X0029264Y0088643D01*
X0030125Y0088482D01*
X0030125Y0088482D01*
X0031001Y0088482D01*
X0031001Y0088482D01*
X0031862Y0088643D01*
X0032679Y0088960D01*
X0033423Y0089421D01*
X0034071Y0090011D01*
X0034599Y0090710D01*
X0034989Y0091494D01*
X0035057Y0091734D01*
X0035204Y0091967D01*
X0035453Y0092083D01*
X0035726Y0092046D01*
X0035935Y0091868D01*
X0035988Y0091762D01*
X0036072Y0091522D01*
X0036438Y0090938D01*
X0036450Y0090920D01*
X0036952Y0090418D01*
X0037273Y0090216D01*
X0037553Y0090040D01*
X0037815Y0089949D01*
X0038038Y0089788D01*
X0038140Y0089533D01*
X0038142Y0089488D01*
X0038142Y0086598D01*
X0070886Y0086598D01*
X0071150Y0086521D01*
X0071190Y0086492D01*
X0071204Y0086481D01*
X0071204Y0086481D01*
X0071805Y0086103D01*
X0072475Y0085869D01*
X0072475Y0085869D01*
X0073181Y0085789D01*
X0073181Y0085789D01*
X0073181Y0085789D01*
X0073887Y0085869D01*
X0073887Y0085869D01*
X0073887Y0085869D01*
X0074557Y0086103D01*
X0075159Y0086481D01*
X0075661Y0086983D01*
X0076039Y0087585D01*
X0076121Y0087821D01*
X0076282Y0088045D01*
X0076537Y0088146D01*
X0076807Y0088093D01*
X0077006Y0087903D01*
X0077052Y0087794D01*
X0077137Y0087494D01*
X0077137Y0087494D01*
X0077527Y0086710D01*
X0077527Y0086710D01*
X0078055Y0086011D01*
X0078703Y0085421D01*
X0078703Y0085421D01*
X0079447Y0084960D01*
X0079447Y0084960D01*
X0079447Y0084960D01*
X0080264Y0084643D01*
X0081125Y0084482D01*
X0081125Y0084482D01*
X0082001Y0084482D01*
X0082001Y0084482D01*
X0082862Y0084643D01*
X0083679Y0084960D01*
X0084423Y0085421D01*
X0085071Y0086011D01*
X0085599Y0086710D01*
X0085989Y0087494D01*
X0086229Y0088336D01*
X0086310Y0089209D01*
X0086229Y0090081D01*
X0085989Y0090923D01*
X0085982Y0090938D01*
X0085599Y0091707D01*
X0085599Y0091707D01*
X0085071Y0092406D01*
X0084423Y0092997D01*
X0084423Y0092997D01*
X0083679Y0093458D01*
X0083679Y0093458D01*
X0082862Y0093774D01*
X0082001Y0093935D01*
X0081125Y0093935D01*
X0080264Y0093774D01*
X0079823Y0093603D01*
X0079447Y0093458D01*
X0079447Y0093458D01*
X0078703Y0092997D01*
X0078703Y0092997D01*
X0078055Y0092406D01*
X0077527Y0091707D01*
X0077527Y0091707D01*
X0077137Y0090923D01*
X0077137Y0090923D01*
X0076974Y0090350D01*
X0076827Y0090118D01*
X0076578Y0090001D01*
X0076305Y0090038D01*
X0076096Y0090216D01*
X0076043Y0090323D01*
X0076039Y0090337D01*
X0075672Y0090920D01*
X0075661Y0090938D01*
X0075159Y0091440D01*
X0074557Y0091818D01*
X0074557Y0091818D01*
X0074295Y0091910D01*
X0074072Y0092070D01*
X0073971Y0092326D01*
X0073969Y0092370D01*
X0073969Y0093031D01*
X0074046Y0093295D01*
X0074254Y0093475D01*
X0074295Y0093492D01*
X0074326Y0093503D01*
X0074557Y0093584D01*
X0075159Y0093961D01*
X0075661Y0094464D01*
X0076039Y0095065D01*
X0076273Y0095735D01*
X0076353Y0096441D01*
X0076290Y0096997D01*
X0076273Y0097147D01*
X0076273Y0097147D01*
X0076164Y0097458D01*
X0076039Y0097817D01*
X0075661Y0098418D01*
X0075159Y0098921D01*
X0074557Y0099298D01*
X0073887Y0099533D01*
X0073887Y0099533D01*
X0073181Y0099612D01*
X0073181Y0099612D01*
X0072475Y0099533D01*
X0072475Y0099533D01*
X0071805Y0099298D01*
X0071204Y0098921D01*
X0071190Y0098910D01*
X0070935Y0098806D01*
X0070886Y0098803D01*
X0041225Y0098803D01*
X0040961Y0098881D01*
X0040920Y0098910D01*
X0040907Y0098921D01*
X0040907Y0098921D01*
X0040683Y0099061D01*
X0040305Y0099298D01*
X0039635Y0099533D01*
X0039635Y0099533D01*
X0038929Y0099612D01*
X0038929Y0099612D01*
X0038223Y0099533D01*
X0038223Y0099533D01*
X0037553Y0099298D01*
X0036952Y0098921D01*
X0036450Y0098418D01*
X0036072Y0097817D01*
X0035837Y0097147D01*
X0035837Y0097147D01*
X0035758Y0096441D01*
X0035758Y0096441D01*
X0035837Y0095735D01*
X0035837Y0095735D01*
X0036072Y0095065D01*
X0036157Y0094929D01*
X0036232Y0094664D01*
X0036157Y0094410D01*
X0036072Y0094274D01*
X0036065Y0094260D01*
X0036058Y0094252D01*
X0036057Y0094250D01*
X0036057Y0094251D01*
X0035881Y0094056D01*
X0035615Y0093984D01*
X0035353Y0094066D01*
X0035177Y0094278D01*
X0035156Y0094338D01*
X0034989Y0094923D01*
X0034986Y0094929D01*
X0034599Y0095707D01*
X0034599Y0095707D01*
X0034071Y0096406D01*
X0033423Y0096997D01*
X0033423Y0096997D01*
X0032679Y0097458D01*
X0032679Y0097458D01*
X0031862Y0097774D01*
X0031001Y0097935D01*
X0030125Y0097935D01*
X0029264Y0097774D01*
X0028747Y0097574D01*
X0028447Y0097458D01*
X0028447Y0097458D01*
X0027703Y0096997D01*
X0027703Y0096997D01*
X0027055Y0096406D01*
X0026527Y0095707D01*
X0026527Y0095707D01*
X0026137Y0094923D01*
X0026137Y0094923D01*
X0025897Y0094081D01*
X0025897Y0094081D01*
X0025816Y0093209D01*
X0025816Y0093209D01*
X0000002Y0093209D01*
X0000002Y0108209D01*
X0025816Y0108209D01*
X0025897Y0107336D01*
X0025897Y0107336D01*
X0026137Y0106494D01*
X0026137Y0106494D01*
X0026527Y0105710D01*
X0026527Y0105710D01*
X0027055Y0105011D01*
X0027703Y0104421D01*
X0027703Y0104421D01*
X0028447Y0103960D01*
X0028447Y0103960D01*
X0028447Y0103960D01*
X0029264Y0103643D01*
X0030125Y0103482D01*
X0030125Y0103482D01*
X0031001Y0103482D01*
X0031001Y0103482D01*
X0031862Y0103643D01*
X0032679Y0103960D01*
X0033423Y0104421D01*
X0034071Y0105011D01*
X0034479Y0105552D01*
X0034700Y0105716D01*
X0034869Y0105746D01*
X0036335Y0105746D01*
X0036599Y0105669D01*
X0036680Y0105603D01*
X0036952Y0105331D01*
X0037351Y0105081D01*
X0037553Y0104954D01*
X0037815Y0104862D01*
X0038038Y0104702D01*
X0038140Y0104446D01*
X0038142Y0104401D01*
X0038142Y0101512D01*
X0070886Y0101512D01*
X0071150Y0101434D01*
X0071190Y0101405D01*
X0071204Y0101394D01*
X0071204Y0101394D01*
X0071805Y0101017D01*
X0071821Y0101011D01*
X0072475Y0100782D01*
X0072475Y0100782D01*
X0073181Y0100703D01*
X0073181Y0100703D01*
X0073181Y0100703D01*
X0073887Y0100782D01*
X0073887Y0100782D01*
X0073887Y0100782D01*
X0074557Y0101017D01*
X0075159Y0101394D01*
X0075367Y0101603D01*
X0075609Y0101735D01*
X0075712Y0101746D01*
X0077257Y0101746D01*
X0077521Y0101669D01*
X0077647Y0101552D01*
X0078055Y0101011D01*
X0078703Y0100421D01*
X0078703Y0100421D01*
X0079447Y0099960D01*
X0079447Y0099960D01*
X0079447Y0099960D01*
X0080264Y0099643D01*
X0081125Y0099482D01*
X0081125Y0099482D01*
X0082001Y0099482D01*
X0082001Y0099482D01*
X0082862Y0099643D01*
X0083679Y0099960D01*
X0084423Y0100421D01*
X0085071Y0101011D01*
X0085599Y0101710D01*
X0085989Y0102494D01*
X0086229Y0103336D01*
X0086310Y0104209D01*
X0086229Y0105081D01*
X0085989Y0105923D01*
X0085989Y0105923D01*
X0085599Y0106707D01*
X0085599Y0106707D01*
X0085071Y0107406D01*
X0084423Y0107997D01*
X0084423Y0107997D01*
X0083679Y0108458D01*
X0083679Y0108458D01*
X0083577Y0108497D01*
X0082862Y0108774D01*
X0082001Y0108935D01*
X0081125Y0108935D01*
X0080264Y0108774D01*
X0079747Y0108574D01*
X0079447Y0108458D01*
X0079447Y0108458D01*
X0078703Y0107997D01*
X0078703Y0107997D01*
X0078055Y0107406D01*
X0077647Y0106865D01*
X0077426Y0106701D01*
X0077257Y0106671D01*
X0074794Y0106671D01*
X0074582Y0106720D01*
X0074557Y0106731D01*
X0074295Y0106823D01*
X0074072Y0106983D01*
X0073971Y0107239D01*
X0073969Y0107284D01*
X0073969Y0107945D01*
X0074046Y0108208D01*
X0074254Y0108389D01*
X0074295Y0108405D01*
X0074326Y0108416D01*
X0074557Y0108497D01*
X0075159Y0108875D01*
X0075661Y0109377D01*
X0076039Y0109978D01*
X0076273Y0110649D01*
X0076273Y0110649D01*
X0076353Y0111354D01*
X0076353Y0111354D01*
X0076273Y0112060D01*
X0076273Y0112060D01*
X0076039Y0112730D01*
X0075661Y0113332D01*
X0075159Y0113834D01*
X0074557Y0114212D01*
X0073887Y0114446D01*
X0073887Y0114446D01*
X0073181Y0114526D01*
X0073181Y0114526D01*
X0072475Y0114446D01*
X0072475Y0114446D01*
X0071805Y0114212D01*
X0071204Y0113834D01*
X0071190Y0113823D01*
X0070935Y0113719D01*
X0070886Y0113717D01*
X0041225Y0113717D01*
X0040961Y0113794D01*
X0040920Y0113823D01*
X0040907Y0113834D01*
X0040907Y0113834D01*
X0040683Y0113974D01*
X0040305Y0114212D01*
X0039635Y0114446D01*
X0039635Y0114446D01*
X0038929Y0114526D01*
X0038929Y0114526D01*
X0038223Y0114446D01*
X0038223Y0114446D01*
X0037553Y0114212D01*
X0036952Y0113834D01*
X0036450Y0113332D01*
X0036072Y0112730D01*
X0035837Y0112060D01*
X0035837Y0112060D01*
X0035758Y0111354D01*
X0035758Y0111354D01*
X0035773Y0111214D01*
X0035726Y0110943D01*
X0035540Y0110741D01*
X0035288Y0110671D01*
X0034869Y0110671D01*
X0034605Y0110749D01*
X0034479Y0110865D01*
X0034071Y0111406D01*
X0033423Y0111997D01*
X0033423Y0111997D01*
X0032679Y0112458D01*
X0032679Y0112458D01*
X0031862Y0112774D01*
X0031001Y0112935D01*
X0030125Y0112935D01*
X0029264Y0112774D01*
X0029151Y0112730D01*
X0028447Y0112458D01*
X0028447Y0112458D01*
X0027703Y0111997D01*
X0027703Y0111997D01*
X0027055Y0111406D01*
X0026527Y0110707D01*
X0026527Y0110707D01*
X0026137Y0109923D01*
X0026137Y0109923D01*
X0025897Y0109081D01*
X0025897Y0109081D01*
X0025816Y0108209D01*
X0025816Y0108209D01*
X0000002Y0108209D01*
X0000002Y0127209D01*
X0050620Y0127209D01*
X0050700Y0126336D01*
X0050700Y0126336D01*
X0050940Y0125494D01*
X0050940Y0125494D01*
X0051330Y0124710D01*
X0051330Y0124710D01*
X0051858Y0124011D01*
X0052506Y0123421D01*
X0052506Y0123421D01*
X0053250Y0122960D01*
X0053250Y0122960D01*
X0053250Y0122960D01*
X0054067Y0122643D01*
X0054928Y0122482D01*
X0054928Y0122482D01*
X0055804Y0122482D01*
X0055804Y0122482D01*
X0056665Y0122643D01*
X0057482Y0122960D01*
X0058227Y0123421D01*
X0058874Y0124011D01*
X0059402Y0124710D01*
X0059792Y0125494D01*
X0060032Y0126336D01*
X0060113Y0127209D01*
X0060032Y0128081D01*
X0059792Y0128923D01*
X0059792Y0128923D01*
X0059402Y0129707D01*
X0059402Y0129707D01*
X0058874Y0130406D01*
X0058227Y0130997D01*
X0058227Y0130997D01*
X0057482Y0131458D01*
X0057482Y0131458D01*
X0056665Y0131774D01*
X0055804Y0131935D01*
X0054928Y0131935D01*
X0054067Y0131774D01*
X0053551Y0131574D01*
X0053250Y0131458D01*
X0053250Y0131458D01*
X0052506Y0130997D01*
X0052506Y0130997D01*
X0051858Y0130406D01*
X0051330Y0129707D01*
X0051330Y0129707D01*
X0050940Y0128923D01*
X0050940Y0128923D01*
X0050700Y0128081D01*
X0050700Y0128081D01*
X0050620Y0127209D01*
X0050620Y0127209D01*
X0000002Y0127209D01*
X0000002Y0133093D01*
X0000079Y0133356D01*
X0000287Y0133537D01*
X0000490Y0133581D01*
X0115809Y0133581D01*
X0116073Y0133503D01*
G37*
X0037748Y0101118D02*
G01*
G75*
G36*
X0068573Y0113520D02*
X0068216Y0113449D01*
X0067813Y0113179D01*
X0067787Y0113141D01*
X0067275Y0112910D01*
X0067052Y0113022D01*
X0066968Y0113078D01*
X0066645Y0113142D01*
X0064756Y0113142D01*
X0064433Y0113078D01*
X0064232Y0112944D01*
X0064099Y0113032D01*
X0063408Y0113170D01*
X0062717Y0113032D01*
X0062131Y0112641D01*
X0061739Y0112055D01*
X0061705Y0111885D01*
X0061115Y0111925D01*
X0061012Y0112440D01*
X0060721Y0112876D01*
X0060285Y0113167D01*
X0059770Y0113270D01*
X0059219Y0113270D01*
X0059219Y0110587D01*
X0059219Y0107903D01*
X0059770Y0107903D01*
X0059939Y0107937D01*
X0060435Y0107580D01*
X0060479Y0106964D01*
X0060423Y0106902D01*
X0059946Y0106613D01*
X0059770Y0106648D01*
X0057093Y0106648D01*
X0056732Y0106576D01*
X0056426Y0106372D01*
X0056221Y0106066D01*
X0056150Y0105705D01*
X0056150Y0105577D01*
X0055559Y0105398D01*
X0055540Y0105426D01*
X0055280Y0105600D01*
X0054972Y0105661D01*
X0053398Y0105661D01*
X0053090Y0105600D01*
X0052830Y0105426D01*
X0052741Y0105293D01*
X0052537Y0105247D01*
X0052290Y0105247D01*
X0052085Y0105293D01*
X0051997Y0105426D01*
X0051736Y0105600D01*
X0051429Y0105661D01*
X0049854Y0105661D01*
X0049547Y0105600D01*
X0049457Y0105540D01*
X0049305Y0105641D01*
X0048614Y0105779D01*
X0047923Y0105641D01*
X0047387Y0105925D01*
X0047302Y0106056D01*
X0047348Y0106126D01*
X0047409Y0106433D01*
X0047409Y0108401D01*
X0047348Y0108709D01*
X0047174Y0108969D01*
X0047161Y0108977D01*
X0047160Y0109205D01*
X0047300Y0109595D01*
X0047480Y0109630D01*
X0047753Y0109813D01*
X0047919Y0110062D01*
X0048031Y0110078D01*
X0048527Y0110032D01*
X0048547Y0109933D01*
X0048817Y0109529D01*
X0049220Y0109260D01*
X0049697Y0109165D01*
X0049854Y0109165D01*
X0049854Y0111354D01*
X0051429Y0111354D01*
X0051429Y0109165D01*
X0051586Y0109165D01*
X0051739Y0109195D01*
X0052150Y0109124D01*
X0052380Y0108767D01*
X0052452Y0108405D01*
X0052844Y0107819D01*
X0053430Y0107427D01*
X0054121Y0107290D01*
X0054812Y0107427D01*
X0055398Y0107819D01*
X0055575Y0108083D01*
X0055709Y0108133D01*
X0056303Y0108189D01*
X0056578Y0108006D01*
X0057093Y0107903D01*
X0057644Y0107903D01*
X0057644Y0110587D01*
X0057644Y0113270D01*
X0057093Y0113270D01*
X0056578Y0113167D01*
X0056119Y0112895D01*
X0055846Y0113078D01*
X0055523Y0113142D01*
X0053634Y0113142D01*
X0053311Y0113078D01*
X0053227Y0113022D01*
X0053005Y0112910D01*
X0052492Y0113141D01*
X0052466Y0113179D01*
X0052063Y0113449D01*
X0051707Y0113520D01*
X0051765Y0114110D01*
X0068514Y0114110D01*
X0068573Y0113520D01*
D02*
G37*
G36*
X0049576Y0113520D02*
X0049220Y0113449D01*
X0048817Y0113179D01*
X0048547Y0112775D01*
X0048527Y0112676D01*
X0048031Y0112631D01*
X0047919Y0112647D01*
X0047753Y0112895D01*
X0047480Y0113078D01*
X0047157Y0113142D01*
X0045267Y0113142D01*
X0044945Y0113078D01*
X0044671Y0112895D01*
X0044572Y0112746D01*
X0044352Y0112699D01*
X0044135Y0112699D01*
X0043916Y0112746D01*
X0043816Y0112895D01*
X0043543Y0113078D01*
X0043220Y0113142D01*
X0041330Y0113142D01*
X0041008Y0113078D01*
X0040734Y0112895D01*
X0040177Y0113124D01*
X0039774Y0113394D01*
X0039142Y0113520D01*
X0039201Y0114110D01*
X0049518Y0114110D01*
X0049576Y0113520D01*
D02*
G37*
G36*
X0038796Y0105423D02*
X0038699Y0104936D01*
X0038837Y0104245D01*
X0039228Y0103659D01*
X0039814Y0103267D01*
X0040505Y0103130D01*
X0040746Y0102582D01*
X0040921Y0102322D01*
X0041181Y0102148D01*
X0041488Y0102087D01*
X0043063Y0102087D01*
X0043370Y0102148D01*
X0043631Y0102322D01*
X0043719Y0102454D01*
X0043924Y0102500D01*
X0044171Y0102500D01*
X0044375Y0102454D01*
X0044464Y0102322D01*
X0044724Y0102148D01*
X0045031Y0102087D01*
X0046606Y0102087D01*
X0046914Y0102148D01*
X0047174Y0102322D01*
X0047857Y0102347D01*
X0047923Y0102303D01*
X0048614Y0102166D01*
X0049305Y0102303D01*
X0049310Y0102306D01*
X0049547Y0102148D01*
X0049854Y0102087D01*
X0051429Y0102087D01*
X0051736Y0102148D01*
X0051997Y0102322D01*
X0052085Y0102454D01*
X0052290Y0102500D01*
X0052537Y0102500D01*
X0052741Y0102454D01*
X0052830Y0102322D01*
X0053090Y0102148D01*
X0053398Y0102087D01*
X0054972Y0102087D01*
X0055280Y0102148D01*
X0055540Y0102322D01*
X0055643Y0102477D01*
X0056348Y0102477D01*
X0056426Y0102360D01*
X0056732Y0102156D01*
X0057093Y0102084D01*
X0059770Y0102084D01*
X0060131Y0102156D01*
X0060437Y0102360D01*
X0061025Y0102345D01*
X0061332Y0102284D01*
X0063301Y0102284D01*
X0063608Y0102345D01*
X0063868Y0102519D01*
X0064433Y0102347D01*
X0064756Y0102283D01*
X0066646Y0102283D01*
X0066968Y0102347D01*
X0067242Y0102530D01*
X0067341Y0102679D01*
X0067561Y0102726D01*
X0067778Y0102726D01*
X0067997Y0102679D01*
X0068097Y0102530D01*
X0068370Y0102347D01*
X0068693Y0102283D01*
X0070583Y0102283D01*
X0070905Y0102347D01*
X0071179Y0102530D01*
X0071706Y0102255D01*
X0072336Y0101834D01*
X0072968Y0101709D01*
X0072910Y0101118D01*
X0037748Y0101118D01*
X0037748Y0105340D01*
X0038241Y0105657D01*
X0038796Y0105423D01*
D02*
G37*
D26*
X0048565Y0103923D02*
X0048614Y0103972D01*
X0048329Y0103923D02*
X0050494Y0103923D01*
X0045757Y0103615D02*
X0046065Y0103923D01*
X0050494Y0103923D02*
X0050802Y0103615D01*
X0046065Y0103923D02*
X0048565Y0103923D01*
X0048279Y0103972D02*
X0048329Y0103923D01*
X0066488Y0110435D02*
X0066488Y0110567D01*
X0068457Y0108262D02*
X0068457Y0108466D01*
X0065701Y0111354D02*
X0066488Y0110567D01*
X0069244Y0107475D02*
X0069448Y0107475D01*
X0066488Y0110435D02*
X0068457Y0108466D01*
X0068457Y0108262D02*
X0069244Y0107475D01*
X0065504Y0107475D02*
X0065701Y0107278D01*
X0065701Y0104071D02*
X0065701Y0107278D01*
X0063408Y0111354D02*
X0065701Y0111354D01*
X0062443Y0107446D02*
X0065876Y0107446D01*
X0062415Y0107417D02*
X0062443Y0107446D01*
X0054480Y0103480D02*
X0057827Y0103480D01*
X0059022Y0103874D02*
X0062415Y0103874D01*
X0058530Y0104366D02*
X0059022Y0103874D01*
X0069518Y0103866D02*
X0073181Y0103866D01*
X0063403Y0111359D02*
X0063408Y0111364D01*
X0040505Y0104936D02*
X0040807Y0104635D01*
X0041685Y0104635D01*
X0041685Y0104600D02*
X0041685Y0104635D01*
X0041685Y0104600D02*
X0042079Y0104206D01*
X0042276Y0103874D02*
X0042276Y0107417D01*
X0039230Y0108003D02*
X0041488Y0110260D01*
X0041488Y0110567D01*
X0038929Y0107417D02*
X0039093Y0107417D01*
X0039230Y0107554D02*
X0039230Y0108003D01*
X0039093Y0107417D02*
X0039230Y0107554D01*
X0041488Y0110567D02*
X0042276Y0111354D01*
X0045917Y0107712D02*
X0045917Y0111059D01*
X0045622Y0107417D02*
X0045917Y0107712D01*
X0045917Y0111059D02*
X0046213Y0111354D01*
D13*
X0056055Y0113716D02*
D03*
X0056055Y0101512D02*
D03*
D12*
X0038142Y0103579D02*
D03*
D31*
X0070031Y0110614D02*
X0073031Y0107614D01*
X0070031Y0110614D02*
X0070031Y0110961D01*
X0073031Y0107614D02*
X0073181Y0107614D01*
X0069638Y0111354D02*
X0070031Y0110961D01*
X0054480Y0111123D02*
X0054694Y0111337D01*
X0054121Y0109309D02*
X0054480Y0109668D01*
X0054480Y0111123D01*
X0054121Y0109096D02*
X0054121Y0109309D01*
D11*
X0073181Y0111354D02*
D03*
X0073181Y0107614D02*
D03*
X0073181Y0103874D02*
D03*
X0038929Y0107811D02*
D03*
X0038929Y0111354D02*
D03*
X0048614Y0103972D02*
D03*
X0063408Y0111364D02*
D03*
X0054121Y0109096D02*
D03*
X0040505Y0104936D02*
D03*
X0038988Y0102403D02*
D03*
X0051690Y0106965D02*
D03*
X0048951Y0108021D02*
D03*
D34*
X0065701Y0111354D02*
D03*
X0069638Y0111354D02*
D03*
X0054578Y0111354D02*
D03*
X0050641Y0111354D02*
D03*
X0046212Y0111354D02*
D03*
X0042275Y0111354D02*
D03*
X0065701Y0104071D02*
D03*
X0069638Y0104071D02*
D03*
D35*
X0062316Y0103874D02*
D03*
X0062316Y0107417D02*
D03*
D36*
X0058431Y0110587D02*
D03*
X0058431Y0104366D02*
D03*
D37*
X0045819Y0107417D02*
D03*
X0042276Y0107417D02*
D03*
X0054185Y0103874D02*
D03*
X0050642Y0103874D02*
D03*
X0069047Y0107475D02*
D03*
X0065504Y0107475D02*
D03*
X0042276Y0103874D02*
D03*
X0045819Y0103874D02*
D03*
X0037748Y0086205D02*
G01*
G75*
G36*
X0068573Y0098607D02*
X0068216Y0098536D01*
X0067813Y0098266D01*
X0067787Y0098228D01*
X0067275Y0097997D01*
X0067052Y0098109D01*
X0066968Y0098165D01*
X0066645Y0098229D01*
X0064756Y0098229D01*
X0064433Y0098165D01*
X0064232Y0098031D01*
X0064099Y0098119D01*
X0063408Y0098257D01*
X0062717Y0098119D01*
X0062131Y0097728D01*
X0061739Y0097142D01*
X0061705Y0096972D01*
X0061115Y0097012D01*
X0061012Y0097527D01*
X0060721Y0097963D01*
X0060285Y0098254D01*
X0059770Y0098357D01*
X0059219Y0098357D01*
X0059219Y0095674D01*
X0059219Y0092990D01*
X0059770Y0092990D01*
X0059939Y0093024D01*
X0060435Y0092667D01*
X0060479Y0092051D01*
X0060423Y0091989D01*
X0059946Y0091700D01*
X0059770Y0091735D01*
X0057093Y0091735D01*
X0056732Y0091663D01*
X0056426Y0091459D01*
X0056221Y0091153D01*
X0056150Y0090792D01*
X0056150Y0090664D01*
X0055559Y0090485D01*
X0055540Y0090513D01*
X0055280Y0090687D01*
X0054972Y0090748D01*
X0053398Y0090748D01*
X0053090Y0090687D01*
X0052830Y0090513D01*
X0052741Y0090380D01*
X0052537Y0090334D01*
X0052290Y0090334D01*
X0052085Y0090380D01*
X0051997Y0090513D01*
X0051736Y0090687D01*
X0051429Y0090748D01*
X0049854Y0090748D01*
X0049547Y0090687D01*
X0049457Y0090627D01*
X0049305Y0090728D01*
X0048614Y0090866D01*
X0047923Y0090728D01*
X0047387Y0091012D01*
X0047302Y0091143D01*
X0047348Y0091213D01*
X0047409Y0091520D01*
X0047409Y0093488D01*
X0047348Y0093796D01*
X0047174Y0094056D01*
X0047161Y0094064D01*
X0047160Y0094292D01*
X0047300Y0094682D01*
X0047480Y0094717D01*
X0047753Y0094900D01*
X0047919Y0095149D01*
X0048031Y0095165D01*
X0048527Y0095119D01*
X0048547Y0095020D01*
X0048817Y0094616D01*
X0049220Y0094347D01*
X0049697Y0094252D01*
X0049854Y0094252D01*
X0049854Y0096441D01*
X0051429Y0096441D01*
X0051429Y0094252D01*
X0051586Y0094252D01*
X0051739Y0094282D01*
X0052150Y0094211D01*
X0052380Y0093854D01*
X0052452Y0093492D01*
X0052844Y0092906D01*
X0053430Y0092514D01*
X0054121Y0092377D01*
X0054812Y0092514D01*
X0055398Y0092906D01*
X0055575Y0093170D01*
X0055709Y0093220D01*
X0056303Y0093276D01*
X0056578Y0093093D01*
X0057093Y0092990D01*
X0057644Y0092990D01*
X0057644Y0095674D01*
X0057644Y0098357D01*
X0057093Y0098357D01*
X0056578Y0098254D01*
X0056119Y0097982D01*
X0055846Y0098165D01*
X0055523Y0098229D01*
X0053634Y0098229D01*
X0053311Y0098165D01*
X0053227Y0098109D01*
X0053005Y0097997D01*
X0052492Y0098228D01*
X0052466Y0098266D01*
X0052063Y0098536D01*
X0051707Y0098607D01*
X0051765Y0099197D01*
X0068514Y0099197D01*
X0068573Y0098607D01*
D02*
G37*
G36*
X0049576Y0098607D02*
X0049220Y0098536D01*
X0048817Y0098266D01*
X0048547Y0097862D01*
X0048527Y0097763D01*
X0048031Y0097718D01*
X0047919Y0097734D01*
X0047753Y0097982D01*
X0047480Y0098165D01*
X0047157Y0098229D01*
X0045267Y0098229D01*
X0044945Y0098165D01*
X0044671Y0097982D01*
X0044572Y0097833D01*
X0044352Y0097786D01*
X0044135Y0097786D01*
X0043916Y0097833D01*
X0043816Y0097982D01*
X0043543Y0098165D01*
X0043220Y0098229D01*
X0041330Y0098229D01*
X0041008Y0098165D01*
X0040734Y0097982D01*
X0040177Y0098211D01*
X0039774Y0098481D01*
X0039142Y0098607D01*
X0039201Y0099197D01*
X0049518Y0099197D01*
X0049576Y0098607D01*
D02*
G37*
G36*
X0038796Y0090510D02*
X0038699Y0090023D01*
X0038837Y0089332D01*
X0039228Y0088746D01*
X0039814Y0088354D01*
X0040505Y0088217D01*
X0040746Y0087669D01*
X0040921Y0087409D01*
X0041181Y0087235D01*
X0041488Y0087174D01*
X0043063Y0087174D01*
X0043370Y0087235D01*
X0043631Y0087409D01*
X0043719Y0087541D01*
X0043924Y0087587D01*
X0044171Y0087587D01*
X0044375Y0087541D01*
X0044464Y0087409D01*
X0044724Y0087235D01*
X0045031Y0087174D01*
X0046606Y0087174D01*
X0046914Y0087235D01*
X0047174Y0087409D01*
X0047857Y0087434D01*
X0047923Y0087390D01*
X0048614Y0087253D01*
X0049305Y0087390D01*
X0049310Y0087393D01*
X0049547Y0087235D01*
X0049854Y0087174D01*
X0051429Y0087174D01*
X0051736Y0087235D01*
X0051997Y0087409D01*
X0052085Y0087541D01*
X0052290Y0087587D01*
X0052537Y0087587D01*
X0052741Y0087541D01*
X0052830Y0087409D01*
X0053090Y0087235D01*
X0053398Y0087174D01*
X0054972Y0087174D01*
X0055280Y0087235D01*
X0055540Y0087409D01*
X0055643Y0087564D01*
X0056348Y0087564D01*
X0056426Y0087447D01*
X0056732Y0087243D01*
X0057093Y0087171D01*
X0059770Y0087171D01*
X0060131Y0087243D01*
X0060437Y0087447D01*
X0061025Y0087432D01*
X0061332Y0087371D01*
X0063301Y0087371D01*
X0063608Y0087432D01*
X0063868Y0087606D01*
X0064433Y0087434D01*
X0064756Y0087370D01*
X0066646Y0087370D01*
X0066968Y0087434D01*
X0067242Y0087617D01*
X0067341Y0087766D01*
X0067561Y0087813D01*
X0067778Y0087813D01*
X0067997Y0087766D01*
X0068097Y0087617D01*
X0068370Y0087434D01*
X0068693Y0087370D01*
X0070583Y0087370D01*
X0070905Y0087434D01*
X0071179Y0087617D01*
X0071706Y0087342D01*
X0072336Y0086921D01*
X0072968Y0086796D01*
X0072910Y0086205D01*
X0037748Y0086205D01*
X0037748Y0090427D01*
X0038241Y0090744D01*
X0038796Y0090510D01*
D02*
G37*
D26*
X0048565Y0089010D02*
X0048614Y0089059D01*
X0048329Y0089010D02*
X0050494Y0089010D01*
X0045757Y0088702D02*
X0046065Y0089010D01*
X0050494Y0089010D02*
X0050802Y0088702D01*
X0046065Y0089010D02*
X0048565Y0089010D01*
X0048279Y0089059D02*
X0048329Y0089010D01*
X0066488Y0095522D02*
X0066488Y0095654D01*
X0068457Y0093349D02*
X0068457Y0093553D01*
X0065701Y0096441D02*
X0066488Y0095654D01*
X0069244Y0092562D02*
X0069448Y0092562D01*
X0066488Y0095522D02*
X0068457Y0093553D01*
X0068457Y0093349D02*
X0069244Y0092562D01*
X0065504Y0092562D02*
X0065701Y0092365D01*
X0065701Y0089158D02*
X0065701Y0092365D01*
X0063408Y0096441D02*
X0065701Y0096441D01*
X0062443Y0092533D02*
X0065876Y0092533D01*
X0062415Y0092504D02*
X0062443Y0092533D01*
X0054480Y0088567D02*
X0057827Y0088567D01*
X0059022Y0088961D02*
X0062415Y0088961D01*
X0058530Y0089453D02*
X0059022Y0088961D01*
X0069518Y0088953D02*
X0073181Y0088953D01*
X0063403Y0096446D02*
X0063408Y0096451D01*
X0040505Y0090023D02*
X0040807Y0089722D01*
X0041685Y0089722D01*
X0041685Y0089687D02*
X0041685Y0089722D01*
X0041685Y0089687D02*
X0042079Y0089293D01*
X0042276Y0088961D02*
X0042276Y0092504D01*
X0039230Y0093090D02*
X0041488Y0095347D01*
X0041488Y0095654D01*
X0038929Y0092504D02*
X0039093Y0092504D01*
X0039230Y0092641D02*
X0039230Y0093090D01*
X0039093Y0092504D02*
X0039230Y0092641D01*
X0041488Y0095654D02*
X0042276Y0096441D01*
X0045917Y0092799D02*
X0045917Y0096146D01*
X0045622Y0092504D02*
X0045917Y0092799D01*
X0045917Y0096146D02*
X0046213Y0096441D01*
D13*
X0056055Y0098803D02*
D03*
X0056055Y0086599D02*
D03*
D12*
X0038142Y0088666D02*
D03*
D31*
X0070031Y0095701D02*
X0073031Y0092701D01*
X0070031Y0095701D02*
X0070031Y0096048D01*
X0073031Y0092701D02*
X0073181Y0092701D01*
X0069638Y0096441D02*
X0070031Y0096048D01*
X0054480Y0096210D02*
X0054694Y0096424D01*
X0054121Y0094396D02*
X0054480Y0094755D01*
X0054480Y0096210D01*
X0054121Y0094183D02*
X0054121Y0094396D01*
D11*
X0073181Y0096441D02*
D03*
X0073181Y0092701D02*
D03*
X0073181Y0088961D02*
D03*
X0038929Y0092898D02*
D03*
X0038929Y0096441D02*
D03*
X0048614Y0089059D02*
D03*
X0063408Y0096451D02*
D03*
X0054121Y0094183D02*
D03*
X0040505Y0090023D02*
D03*
X0038988Y0087490D02*
D03*
X0051690Y0092052D02*
D03*
X0048951Y0093108D02*
D03*
D34*
X0065701Y0096441D02*
D03*
X0069638Y0096441D02*
D03*
X0054578Y0096441D02*
D03*
X0050641Y0096441D02*
D03*
X0046212Y0096441D02*
D03*
X0042275Y0096441D02*
D03*
X0065701Y0089158D02*
D03*
X0069638Y0089158D02*
D03*
D35*
X0062316Y0088961D02*
D03*
X0062316Y0092504D02*
D03*
D36*
X0058431Y0095674D02*
D03*
X0058431Y0089453D02*
D03*
D37*
X0045819Y0092504D02*
D03*
X0042276Y0092504D02*
D03*
X0054185Y0088961D02*
D03*
X0050642Y0088961D02*
D03*
X0069047Y0092562D02*
D03*
X0065504Y0092562D02*
D03*
X0042276Y0088961D02*
D03*
X0045819Y0088961D02*
D03*
M02*
