G75*
G70*
%OFA0B0*%
%FSLAX25Y25*%
%IPPOS*%
%LPD*%
%AMOC8*
5,1,8,0,0,1.08239X$1,22.5*
%
%ADD10C,0.05512*%
%ADD11C,0.02362*%
%ADD12O,0.00787X0.04823*%
%ADD13O,0.36614X0.00787*%
%ADD16R,0.06024X0.06024*%
%ADD17C,0.06024*%
%ADD18C,0.03150*%
%ADD31C,0.01575*%
X0000000Y0000000D02*
%LPD*%
G01*
D10*
X0027283Y0108189D03*
D11*
X0073181Y0111354D03*
D12*
X0038142Y0103579D03*
D13*
X0056055Y0113717D03*
X0056055Y0101512D03*
D11*
X0073181Y0107614D03*
X0073181Y0103874D03*
X0038929Y0107811D03*
X0038929Y0111354D03*
D10*
X0027283Y0093189D03*
X0085512Y0089134D03*
D11*
X0073181Y0096441D03*
D12*
X0038142Y0088665D03*
D13*
X0056055Y0098803D03*
X0056055Y0086598D03*
D11*
X0073181Y0092701D03*
X0073181Y0088961D03*
X0038929Y0092898D03*
X0038929Y0096441D03*
D10*
X0085512Y0104173D03*
X0020295Y0017795D03*
X0055366Y0127209D03*
X0020413Y0046693D03*
D16*
X0061161Y0075039D03*
D17*
X0061161Y0065039D03*
X0061161Y0055039D03*
X0061161Y0045039D03*
X0061161Y0035039D03*
X0061161Y0025039D03*
X0061161Y0015039D03*
X0061161Y0005039D03*
X0111161Y0005039D03*
X0111161Y0015039D03*
X0111161Y0025039D03*
X0111161Y0035039D03*
X0111161Y0045039D03*
X0111161Y0055039D03*
X0111161Y0065039D03*
X0111161Y0075039D03*
D18*
X0082756Y0039724D03*
X0079252Y0032835D03*
X0072205Y0046890D03*
X0086299Y0036339D03*
X0072126Y0032598D03*
X0079252Y0039803D03*
X0096693Y0040039D03*
X0100276Y0043661D03*
X0088150Y0020945D03*
X0094331Y0068307D03*
X0093268Y0032992D03*
X0072165Y0036063D03*
X0075709Y0032717D03*
X0089724Y0036339D03*
X0101575Y0069016D03*
X0089724Y0032874D03*
X0079291Y0043307D03*
X0073031Y0067992D03*
X0093228Y0046890D03*
X0082717Y0046654D03*
X0084291Y0020866D03*
X0011055Y0059803D03*
X0100236Y0036654D03*
X0100236Y0040157D03*
X0100236Y0033189D03*
X0079213Y0046732D03*
X0082795Y0043228D03*
X0072205Y0039646D03*
X0075709Y0036181D03*
X0051055Y0067803D03*
X0093268Y0036457D03*
X0082756Y0036220D03*
X0079252Y0036299D03*
X0086260Y0046772D03*
X0026055Y0067803D03*
X0100197Y0047087D03*
X0089764Y0043346D03*
X0089685Y0046772D03*
X0096654Y0046969D03*
X0096693Y0036535D03*
X0089724Y0039843D03*
X0018055Y0067803D03*
X0072244Y0043228D03*
X0096732Y0043543D03*
X0082756Y0032756D03*
X0093268Y0039961D03*
X0010055Y0067803D03*
X0075709Y0039685D03*
X0093307Y0043465D03*
X0086299Y0039843D03*
X0082559Y0013071D03*
X0080354Y0020748D03*
X0075669Y0046614D03*
X0043055Y0067803D03*
X0075748Y0043189D03*
X0086339Y0043346D03*
X0086299Y0032874D03*
X0081339Y0067992D03*
X0035055Y0067803D03*
X0096693Y0033071D03*
X0100591Y0052717D03*
G36*
X0116073Y0133503D02*
G01*
X0116253Y0133295D01*
X0116297Y0133092D01*
X0116262Y0085936D01*
X0116258Y0080040D01*
X0116258Y0077996D01*
X0116180Y0077732D01*
X0115972Y0077551D01*
X0115700Y0077512D01*
X0115450Y0077627D01*
X0115370Y0077716D01*
X0115174Y0077996D01*
X0114993Y0078254D01*
X0114376Y0078871D01*
X0113662Y0079371D01*
X0113662Y0079371D01*
X0112872Y0079739D01*
X0112872Y0079739D01*
X0112030Y0079965D01*
X0112030Y0079965D01*
X0111161Y0080041D01*
X0111161Y0080041D01*
X0110293Y0079965D01*
X0110293Y0079965D01*
X0109451Y0079739D01*
X0109451Y0079739D01*
X0108661Y0079371D01*
X0108661Y0079371D01*
X0107947Y0078871D01*
X0107330Y0078254D01*
X0106830Y0077540D01*
X0106830Y0077540D01*
X0106462Y0076750D01*
X0106462Y0076750D01*
X0106236Y0075908D01*
X0106236Y0075908D01*
X0106160Y0075039D01*
X0106160Y0075039D01*
X0106236Y0074171D01*
X0106236Y0074171D01*
X0106462Y0073329D01*
X0106462Y0073329D01*
X0106819Y0072563D01*
X0106830Y0072539D01*
X0107330Y0071825D01*
X0107947Y0071208D01*
X0108661Y0070708D01*
X0108850Y0070620D01*
X0109146Y0070482D01*
X0109352Y0070300D01*
X0109428Y0070036D01*
X0109348Y0069772D01*
X0109146Y0069597D01*
X0108661Y0069371D01*
X0108661Y0069371D01*
X0107947Y0068871D01*
X0107330Y0068254D01*
X0106830Y0067540D01*
X0106830Y0067540D01*
X0106462Y0066750D01*
X0106462Y0066750D01*
X0106236Y0065908D01*
X0106236Y0065908D01*
X0106160Y0065039D01*
X0106160Y0065039D01*
X0106236Y0064171D01*
X0106236Y0064171D01*
X0106462Y0063329D01*
X0106462Y0063329D01*
X0106572Y0063093D01*
X0106830Y0062539D01*
X0107330Y0061825D01*
X0107947Y0061208D01*
X0108661Y0060708D01*
X0108905Y0060594D01*
X0109146Y0060482D01*
X0109352Y0060300D01*
X0109428Y0060036D01*
X0109348Y0059772D01*
X0109146Y0059597D01*
X0108661Y0059371D01*
X0108661Y0059371D01*
X0107947Y0058871D01*
X0107330Y0058254D01*
X0106830Y0057540D01*
X0106830Y0057540D01*
X0106462Y0056750D01*
X0106462Y0056750D01*
X0106236Y0055908D01*
X0106236Y0055908D01*
X0106160Y0055039D01*
X0106160Y0055039D01*
X0106236Y0054171D01*
X0106236Y0054171D01*
X0106462Y0053329D01*
X0106462Y0053329D01*
X0106747Y0052717D01*
X0106830Y0052539D01*
X0107330Y0051825D01*
X0107947Y0051208D01*
X0108661Y0050708D01*
X0108847Y0050621D01*
X0109146Y0050482D01*
X0109352Y0050300D01*
X0109428Y0050036D01*
X0109348Y0049772D01*
X0109146Y0049597D01*
X0108661Y0049371D01*
X0108661Y0049371D01*
X0107947Y0048871D01*
X0107330Y0048254D01*
X0106830Y0047540D01*
X0106830Y0047540D01*
X0106462Y0046750D01*
X0106462Y0046750D01*
X0106236Y0045908D01*
X0106236Y0045908D01*
X0106160Y0045039D01*
X0106160Y0045039D01*
X0106236Y0044171D01*
X0106236Y0044171D01*
X0106462Y0043329D01*
X0106462Y0043329D01*
X0106659Y0042905D01*
X0106830Y0042539D01*
X0107330Y0041825D01*
X0107947Y0041208D01*
X0108661Y0040708D01*
X0108905Y0040594D01*
X0109146Y0040482D01*
X0109352Y0040300D01*
X0109428Y0040036D01*
X0109348Y0039772D01*
X0109146Y0039597D01*
X0108661Y0039371D01*
X0108661Y0039371D01*
X0107947Y0038871D01*
X0107330Y0038254D01*
X0106830Y0037540D01*
X0106830Y0037540D01*
X0106462Y0036750D01*
X0106462Y0036750D01*
X0106236Y0035908D01*
X0106236Y0035908D01*
X0106160Y0035039D01*
X0106160Y0035039D01*
X0106236Y0034171D01*
X0106236Y0034171D01*
X0106462Y0033329D01*
X0106462Y0033329D01*
X0106819Y0032563D01*
X0106830Y0032539D01*
X0107330Y0031825D01*
X0107947Y0031208D01*
X0108661Y0030708D01*
X0108905Y0030594D01*
X0109146Y0030482D01*
X0109352Y0030300D01*
X0109428Y0030036D01*
X0109348Y0029772D01*
X0109146Y0029597D01*
X0108661Y0029371D01*
X0108661Y0029371D01*
X0107947Y0028871D01*
X0107330Y0028254D01*
X0106830Y0027540D01*
X0106830Y0027540D01*
X0106462Y0026750D01*
X0106462Y0026750D01*
X0106236Y0025908D01*
X0106236Y0025908D01*
X0106160Y0025039D01*
X0106160Y0025039D01*
X0106236Y0024171D01*
X0106236Y0024171D01*
X0106462Y0023329D01*
X0106462Y0023329D01*
X0106819Y0022563D01*
X0106830Y0022539D01*
X0107330Y0021825D01*
X0107947Y0021208D01*
X0108661Y0020708D01*
X0108905Y0020594D01*
X0109146Y0020482D01*
X0109352Y0020300D01*
X0109428Y0020036D01*
X0109348Y0019772D01*
X0109146Y0019597D01*
X0108661Y0019371D01*
X0108661Y0019371D01*
X0107947Y0018871D01*
X0107330Y0018254D01*
X0106830Y0017540D01*
X0106830Y0017540D01*
X0106462Y0016750D01*
X0106462Y0016750D01*
X0106236Y0015908D01*
X0106236Y0015908D01*
X0106160Y0015039D01*
X0106160Y0015039D01*
X0106236Y0014171D01*
X0106236Y0014171D01*
X0106462Y0013329D01*
X0106462Y0013329D01*
X0106583Y0013069D01*
X0106830Y0012539D01*
X0107330Y0011825D01*
X0107947Y0011208D01*
X0108661Y0010708D01*
X0108905Y0010594D01*
X0109146Y0010482D01*
X0109352Y0010300D01*
X0109428Y0010036D01*
X0109348Y0009772D01*
X0109146Y0009597D01*
X0108661Y0009371D01*
X0108661Y0009371D01*
X0107947Y0008871D01*
X0107330Y0008254D01*
X0106830Y0007540D01*
X0106830Y0007540D01*
X0106462Y0006750D01*
X0106462Y0006750D01*
X0106236Y0005908D01*
X0106236Y0005908D01*
X0106160Y0005039D01*
X0106160Y0005039D01*
X0106236Y0004171D01*
X0106236Y0004171D01*
X0106462Y0003329D01*
X0106462Y0003329D01*
X0106572Y0003093D01*
X0106830Y0002539D01*
X0107330Y0001825D01*
X0107947Y0001208D01*
X0108373Y0000910D01*
X0108545Y0000695D01*
X0108573Y0000421D01*
X0108449Y0000176D01*
X0108212Y0000036D01*
X0108093Y0000022D01*
X0064227Y0000022D01*
X0063963Y0000099D01*
X0063783Y0000307D01*
X0063743Y0000579D01*
X0063858Y0000830D01*
X0063918Y0000884D01*
X0063919Y0000890D01*
X0061718Y0003091D01*
X0061733Y0003093D01*
X0062258Y0003333D01*
X0062694Y0003711D01*
X0063007Y0004197D01*
X0063095Y0004498D01*
X0065311Y0002282D01*
X0065491Y0002540D01*
X0065859Y0003329D01*
X0065859Y0003330D01*
X0066085Y0004171D01*
X0066085Y0004171D01*
X0066161Y0005039D01*
X0066161Y0005039D01*
X0066085Y0005907D01*
X0066085Y0005908D01*
X0065859Y0006749D01*
X0065859Y0006749D01*
X0065491Y0007539D01*
X0065491Y0007539D01*
X0065311Y0007797D01*
X0065311Y0007797D01*
X0063095Y0005581D01*
X0063007Y0005882D01*
X0062694Y0006368D01*
X0062258Y0006746D01*
X0061733Y0006986D01*
X0061718Y0006988D01*
X0063919Y0009189D01*
X0063919Y0009189D01*
X0063661Y0009369D01*
X0063174Y0009596D01*
X0062968Y0009778D01*
X0062893Y0010042D01*
X0062972Y0010305D01*
X0063174Y0010481D01*
X0063662Y0010708D01*
X0064376Y0011208D01*
X0064993Y0011825D01*
X0065493Y0012539D01*
X0065861Y0013329D01*
X0066087Y0014171D01*
X0066163Y0015039D01*
X0066087Y0015908D01*
X0065861Y0016750D01*
X0065493Y0017540D01*
X0064993Y0018254D01*
X0064376Y0018871D01*
X0063662Y0019371D01*
X0063177Y0019597D01*
X0062970Y0019779D01*
X0062895Y0020043D01*
X0062975Y0020307D01*
X0063177Y0020482D01*
X0063662Y0020708D01*
X0064376Y0021208D01*
X0064993Y0021825D01*
X0065493Y0022539D01*
X0065861Y0023329D01*
X0066087Y0024171D01*
X0066163Y0025039D01*
X0066087Y0025908D01*
X0065861Y0026750D01*
X0065493Y0027540D01*
X0064993Y0028254D01*
X0064376Y0028871D01*
X0063662Y0029371D01*
X0063177Y0029597D01*
X0062970Y0029779D01*
X0062895Y0030043D01*
X0062975Y0030307D01*
X0063177Y0030482D01*
X0063662Y0030708D01*
X0064376Y0031208D01*
X0064993Y0031825D01*
X0065493Y0032539D01*
X0065861Y0033329D01*
X0066087Y0034171D01*
X0066163Y0035039D01*
X0066087Y0035908D01*
X0065861Y0036750D01*
X0065493Y0037540D01*
X0064993Y0038254D01*
X0064376Y0038871D01*
X0063662Y0039371D01*
X0063177Y0039597D01*
X0062970Y0039779D01*
X0062895Y0040043D01*
X0062975Y0040307D01*
X0063177Y0040482D01*
X0063662Y0040708D01*
X0064376Y0041208D01*
X0064993Y0041825D01*
X0065493Y0042539D01*
X0065861Y0043329D01*
X0066087Y0044171D01*
X0066157Y0044978D01*
X0066163Y0045039D01*
X0066163Y0045039D01*
X0066094Y0045821D01*
X0066087Y0045908D01*
X0065861Y0046750D01*
X0065493Y0047540D01*
X0064993Y0048254D01*
X0064376Y0048871D01*
X0063662Y0049371D01*
X0063177Y0049597D01*
X0062970Y0049779D01*
X0062895Y0050043D01*
X0062975Y0050307D01*
X0063177Y0050482D01*
X0063662Y0050708D01*
X0064376Y0051208D01*
X0064993Y0051825D01*
X0065493Y0052539D01*
X0065576Y0052717D01*
X0097026Y0052717D01*
X0097104Y0051975D01*
X0097104Y0051975D01*
X0097334Y0051267D01*
X0097334Y0051267D01*
X0097707Y0050621D01*
X0098205Y0050067D01*
X0098808Y0049629D01*
X0098808Y0049629D01*
X0099489Y0049326D01*
X0099489Y0049326D01*
X0100218Y0049171D01*
X0100218Y0049171D01*
X0100963Y0049171D01*
X0100963Y0049171D01*
X0101692Y0049326D01*
X0102373Y0049629D01*
X0102976Y0050067D01*
X0103475Y0050621D01*
X0103847Y0051267D01*
X0104077Y0051975D01*
X0104155Y0052717D01*
X0104077Y0053458D01*
X0103847Y0054166D01*
X0103475Y0054812D01*
X0102976Y0055366D01*
X0102976Y0055366D01*
X0102373Y0055804D01*
X0102373Y0055804D01*
X0101692Y0056107D01*
X0101692Y0056107D01*
X0101118Y0056229D01*
X0100963Y0056262D01*
X0100218Y0056262D01*
X0100090Y0056235D01*
X0099489Y0056107D01*
X0099489Y0056107D01*
X0098808Y0055804D01*
X0098808Y0055804D01*
X0098205Y0055366D01*
X0097707Y0054812D01*
X0097334Y0054166D01*
X0097334Y0054166D01*
X0097104Y0053458D01*
X0097104Y0053458D01*
X0097026Y0052717D01*
X0065576Y0052717D01*
X0065861Y0053329D01*
X0066087Y0054171D01*
X0066163Y0055039D01*
X0066087Y0055908D01*
X0065861Y0056750D01*
X0065493Y0057540D01*
X0064993Y0058254D01*
X0064376Y0058871D01*
X0063662Y0059371D01*
X0063662Y0059371D01*
X0063174Y0059598D01*
X0062968Y0059780D01*
X0062893Y0060044D01*
X0062972Y0060308D01*
X0063174Y0060483D01*
X0063661Y0060710D01*
X0063661Y0060710D01*
X0063919Y0060890D01*
X0061718Y0063091D01*
X0061733Y0063093D01*
X0062258Y0063333D01*
X0062694Y0063711D01*
X0063007Y0064197D01*
X0063095Y0064498D01*
X0065311Y0062282D01*
X0065491Y0062540D01*
X0065859Y0063329D01*
X0065859Y0063330D01*
X0066085Y0064171D01*
X0066085Y0064171D01*
X0066161Y0065039D01*
X0066161Y0065039D01*
X0066085Y0065907D01*
X0066085Y0065908D01*
X0065859Y0066749D01*
X0065859Y0066749D01*
X0065491Y0067539D01*
X0065491Y0067539D01*
X0065311Y0067797D01*
X0065311Y0067797D01*
X0063095Y0065581D01*
X0063007Y0065882D01*
X0062694Y0066368D01*
X0062258Y0066746D01*
X0061733Y0066986D01*
X0061718Y0066988D01*
X0063919Y0069189D01*
X0063917Y0069206D01*
X0063775Y0069384D01*
X0063747Y0069657D01*
X0063871Y0069903D01*
X0064108Y0070042D01*
X0064227Y0070057D01*
X0064362Y0070057D01*
X0064596Y0070082D01*
X0065127Y0070280D01*
X0065581Y0070620D01*
X0065920Y0071074D01*
X0066118Y0071604D01*
X0066144Y0071839D01*
X0066144Y0078240D01*
X0066118Y0078474D01*
X0065971Y0078871D01*
X0065920Y0079005D01*
X0065920Y0079005D01*
X0065581Y0079459D01*
X0065581Y0079459D01*
X0065127Y0079798D01*
X0065127Y0079798D01*
X0064596Y0079996D01*
X0064596Y0079996D01*
X0064362Y0080022D01*
X0064362Y0080022D01*
X0064362Y0080022D01*
X0064362Y0080022D01*
X0057961Y0080022D01*
X0057961Y0080022D01*
X0057726Y0079996D01*
X0057196Y0079798D01*
X0057196Y0079798D01*
X0056742Y0079459D01*
X0056742Y0079459D01*
X0056402Y0079005D01*
X0056402Y0079005D01*
X0056204Y0078474D01*
X0056181Y0078254D01*
X0056179Y0078240D01*
X0056179Y0078240D01*
X0056179Y0071839D01*
X0056179Y0071839D01*
X0056204Y0071604D01*
X0056402Y0071074D01*
X0056402Y0071073D01*
X0056742Y0070620D01*
X0056742Y0070620D01*
X0057196Y0070280D01*
X0057196Y0070280D01*
X0057726Y0070082D01*
X0057726Y0070082D01*
X0057754Y0070079D01*
X0057961Y0070057D01*
X0058096Y0070057D01*
X0058360Y0069980D01*
X0058540Y0069772D01*
X0058579Y0069499D01*
X0058465Y0069249D01*
X0058405Y0069195D01*
X0058404Y0069189D01*
X0060605Y0066988D01*
X0060590Y0066986D01*
X0060065Y0066746D01*
X0059628Y0066368D01*
X0059316Y0065882D01*
X0059228Y0065581D01*
X0057012Y0067797D01*
X0056832Y0067539D01*
X0056464Y0066749D01*
X0056464Y0066749D01*
X0056238Y0065908D01*
X0056238Y0065907D01*
X0056162Y0065039D01*
X0056162Y0065039D01*
X0056238Y0064171D01*
X0056238Y0064171D01*
X0056464Y0063330D01*
X0056464Y0063329D01*
X0056832Y0062540D01*
X0057012Y0062282D01*
X0057012Y0062282D01*
X0059228Y0064498D01*
X0059316Y0064197D01*
X0059628Y0063711D01*
X0060065Y0063333D01*
X0060590Y0063093D01*
X0060605Y0063091D01*
X0058404Y0060890D01*
X0058662Y0060710D01*
X0058662Y0060710D01*
X0059148Y0060483D01*
X0059355Y0060301D01*
X0059430Y0060037D01*
X0059351Y0059773D01*
X0059148Y0059598D01*
X0058661Y0059371D01*
X0057947Y0058871D01*
X0057330Y0058254D01*
X0056830Y0057540D01*
X0056830Y0057540D01*
X0056462Y0056750D01*
X0056462Y0056750D01*
X0056236Y0055908D01*
X0056236Y0055908D01*
X0056160Y0055039D01*
X0056160Y0055039D01*
X0056236Y0054171D01*
X0056236Y0054171D01*
X0056462Y0053329D01*
X0056462Y0053329D01*
X0056747Y0052717D01*
X0056830Y0052539D01*
X0057330Y0051825D01*
X0057947Y0051208D01*
X0058661Y0050708D01*
X0058847Y0050621D01*
X0059146Y0050482D01*
X0059352Y0050300D01*
X0059428Y0050036D01*
X0059348Y0049772D01*
X0059146Y0049597D01*
X0058661Y0049371D01*
X0058661Y0049371D01*
X0057947Y0048871D01*
X0057330Y0048254D01*
X0056830Y0047540D01*
X0056830Y0047540D01*
X0056462Y0046750D01*
X0056462Y0046750D01*
X0056236Y0045908D01*
X0056236Y0045908D01*
X0056160Y0045039D01*
X0056160Y0045039D01*
X0056236Y0044171D01*
X0056236Y0044171D01*
X0056462Y0043329D01*
X0056462Y0043329D01*
X0056659Y0042905D01*
X0056830Y0042539D01*
X0057330Y0041825D01*
X0057947Y0041208D01*
X0058661Y0040708D01*
X0058905Y0040594D01*
X0059146Y0040482D01*
X0059352Y0040300D01*
X0059428Y0040036D01*
X0059348Y0039772D01*
X0059146Y0039597D01*
X0058661Y0039371D01*
X0058661Y0039371D01*
X0057947Y0038871D01*
X0057330Y0038254D01*
X0056830Y0037540D01*
X0056830Y0037540D01*
X0056462Y0036750D01*
X0056462Y0036750D01*
X0056236Y0035908D01*
X0056236Y0035908D01*
X0056160Y0035039D01*
X0056160Y0035039D01*
X0056236Y0034171D01*
X0056236Y0034171D01*
X0056462Y0033329D01*
X0056462Y0033329D01*
X0056819Y0032563D01*
X0056830Y0032539D01*
X0057330Y0031825D01*
X0057947Y0031208D01*
X0058661Y0030708D01*
X0058905Y0030594D01*
X0059146Y0030482D01*
X0059352Y0030300D01*
X0059428Y0030036D01*
X0059348Y0029772D01*
X0059146Y0029597D01*
X0058661Y0029371D01*
X0058661Y0029371D01*
X0057947Y0028871D01*
X0057330Y0028254D01*
X0056830Y0027540D01*
X0056830Y0027540D01*
X0056462Y0026750D01*
X0056462Y0026750D01*
X0056236Y0025908D01*
X0056236Y0025908D01*
X0056160Y0025039D01*
X0056160Y0025039D01*
X0056236Y0024171D01*
X0056236Y0024171D01*
X0056462Y0023329D01*
X0056462Y0023329D01*
X0056819Y0022563D01*
X0056830Y0022539D01*
X0057330Y0021825D01*
X0057947Y0021208D01*
X0058661Y0020708D01*
X0058905Y0020594D01*
X0059146Y0020482D01*
X0059352Y0020300D01*
X0059428Y0020036D01*
X0059348Y0019772D01*
X0059146Y0019597D01*
X0058661Y0019371D01*
X0058661Y0019371D01*
X0057947Y0018871D01*
X0057330Y0018254D01*
X0056830Y0017540D01*
X0056830Y0017540D01*
X0056462Y0016750D01*
X0056462Y0016750D01*
X0056236Y0015908D01*
X0056236Y0015908D01*
X0056160Y0015039D01*
X0056160Y0015039D01*
X0056236Y0014171D01*
X0056236Y0014171D01*
X0056462Y0013329D01*
X0056462Y0013329D01*
X0056583Y0013069D01*
X0056830Y0012539D01*
X0057330Y0011825D01*
X0057947Y0011208D01*
X0058661Y0010708D01*
X0059148Y0010481D01*
X0059355Y0010299D01*
X0059430Y0010034D01*
X0059351Y0009771D01*
X0059148Y0009596D01*
X0058662Y0009369D01*
X0058404Y0009189D01*
X0060605Y0006988D01*
X0060590Y0006986D01*
X0060065Y0006746D01*
X0059628Y0006368D01*
X0059316Y0005882D01*
X0059228Y0005581D01*
X0057012Y0007797D01*
X0056832Y0007539D01*
X0056464Y0006749D01*
X0056464Y0006749D01*
X0056238Y0005908D01*
X0056238Y0005907D01*
X0056162Y0005039D01*
X0056162Y0005039D01*
X0056238Y0004171D01*
X0056238Y0004171D01*
X0056464Y0003330D01*
X0056464Y0003329D01*
X0056832Y0002540D01*
X0057012Y0002282D01*
X0057012Y0002282D01*
X0059228Y0004498D01*
X0059316Y0004197D01*
X0059628Y0003711D01*
X0060065Y0003333D01*
X0060590Y0003093D01*
X0060605Y0003091D01*
X0058404Y0000890D01*
X0058406Y0000873D01*
X0058548Y0000695D01*
X0058576Y0000421D01*
X0058452Y0000176D01*
X0058215Y0000036D01*
X0058096Y0000022D01*
X0056141Y0000022D01*
X0000490Y0000002D01*
X0000226Y0000080D01*
X0000046Y0000287D01*
X0000002Y0000490D01*
X0000002Y0017795D01*
X0015549Y0017795D01*
X0015629Y0016923D01*
X0015629Y0016923D01*
X0015869Y0016081D01*
X0015869Y0016081D01*
X0016260Y0015297D01*
X0016260Y0015296D01*
X0016787Y0014597D01*
X0017435Y0014007D01*
X0017435Y0014007D01*
X0018180Y0013546D01*
X0018180Y0013546D01*
X0018180Y0013546D01*
X0018996Y0013230D01*
X0019857Y0013069D01*
X0019857Y0013069D01*
X0020733Y0013069D01*
X0020733Y0013069D01*
X0021594Y0013230D01*
X0022411Y0013546D01*
X0023156Y0014007D01*
X0023803Y0014597D01*
X0024331Y0015297D01*
X0024721Y0016081D01*
X0024961Y0016923D01*
X0025042Y0017795D01*
X0024961Y0018667D01*
X0024721Y0019510D01*
X0024721Y0019510D01*
X0024331Y0020294D01*
X0024331Y0020294D01*
X0023803Y0020993D01*
X0023156Y0021583D01*
X0023156Y0021583D01*
X0022411Y0022044D01*
X0022411Y0022044D01*
X0022311Y0022083D01*
X0021594Y0022361D01*
X0020733Y0022522D01*
X0019857Y0022522D01*
X0018996Y0022361D01*
X0018480Y0022161D01*
X0018180Y0022044D01*
X0018180Y0022044D01*
X0017435Y0021583D01*
X0017435Y0021583D01*
X0016787Y0020993D01*
X0016260Y0020294D01*
X0016260Y0020294D01*
X0015869Y0019510D01*
X0015869Y0019510D01*
X0015629Y0018667D01*
X0015629Y0018667D01*
X0015549Y0017795D01*
X0015549Y0017795D01*
X0000002Y0017795D01*
X0000002Y0046693D01*
X0015667Y0046693D01*
X0015748Y0045821D01*
X0015748Y0045821D01*
X0015987Y0044978D01*
X0015987Y0044978D01*
X0016378Y0044194D01*
X0016378Y0044194D01*
X0016906Y0043495D01*
X0017553Y0042905D01*
X0017553Y0042905D01*
X0018298Y0042444D01*
X0018298Y0042444D01*
X0018298Y0042444D01*
X0019114Y0042127D01*
X0019975Y0041967D01*
X0019975Y0041967D01*
X0020851Y0041967D01*
X0020851Y0041967D01*
X0021712Y0042127D01*
X0022529Y0042444D01*
X0023274Y0042905D01*
X0023921Y0043495D01*
X0024449Y0044194D01*
X0024839Y0044978D01*
X0025079Y0045821D01*
X0025160Y0046693D01*
X0025079Y0047565D01*
X0024839Y0048408D01*
X0024459Y0049171D01*
X0024449Y0049192D01*
X0024449Y0049192D01*
X0023921Y0049891D01*
X0023274Y0050481D01*
X0023274Y0050481D01*
X0022529Y0050942D01*
X0022529Y0050942D01*
X0021712Y0051258D01*
X0020851Y0051419D01*
X0019975Y0051419D01*
X0019114Y0051258D01*
X0018985Y0051208D01*
X0018298Y0050942D01*
X0018298Y0050942D01*
X0017553Y0050481D01*
X0017553Y0050481D01*
X0016906Y0049891D01*
X0016378Y0049192D01*
X0016378Y0049192D01*
X0015987Y0048408D01*
X0015987Y0048408D01*
X0015748Y0047565D01*
X0015748Y0047565D01*
X0015667Y0046693D01*
X0015667Y0046693D01*
X0000002Y0046693D01*
X0000002Y0093189D01*
X0022537Y0093189D01*
X0022618Y0092317D01*
X0022618Y0092317D01*
X0022857Y0091474D01*
X0022857Y0091474D01*
X0023248Y0090690D01*
X0023248Y0090690D01*
X0023776Y0089991D01*
X0024423Y0089401D01*
X0024423Y0089401D01*
X0025168Y0088940D01*
X0025168Y0088940D01*
X0025168Y0088940D01*
X0025984Y0088624D01*
X0026846Y0088463D01*
X0026846Y0088463D01*
X0027721Y0088463D01*
X0027721Y0088463D01*
X0028582Y0088624D01*
X0029399Y0088940D01*
X0030144Y0089401D01*
X0030791Y0089991D01*
X0031319Y0090690D01*
X0031710Y0091474D01*
X0031949Y0092317D01*
X0032003Y0092898D01*
X0035758Y0092898D01*
X0035837Y0092192D01*
X0035837Y0092192D01*
X0036072Y0091522D01*
X0036438Y0090938D01*
X0036450Y0090920D01*
X0036952Y0090418D01*
X0037553Y0090040D01*
X0037815Y0089949D01*
X0038038Y0089788D01*
X0038140Y0089533D01*
X0038142Y0089488D01*
X0038142Y0086598D01*
X0070886Y0086598D01*
X0071150Y0086521D01*
X0071190Y0086492D01*
X0071204Y0086481D01*
X0071204Y0086481D01*
X0071805Y0086103D01*
X0072283Y0085936D01*
X0072475Y0085869D01*
X0072475Y0085869D01*
X0073181Y0085789D01*
X0073181Y0085789D01*
X0073181Y0085789D01*
X0073887Y0085869D01*
X0073887Y0085869D01*
X0073887Y0085869D01*
X0074557Y0086103D01*
X0075159Y0086481D01*
X0075661Y0086983D01*
X0076039Y0087585D01*
X0076273Y0088255D01*
X0076273Y0088255D01*
X0076353Y0088961D01*
X0076353Y0088961D01*
X0076333Y0089134D01*
X0080765Y0089134D01*
X0080846Y0088262D01*
X0080846Y0088262D01*
X0081086Y0087419D01*
X0081086Y0087419D01*
X0081476Y0086635D01*
X0081476Y0086635D01*
X0082004Y0085936D01*
X0082651Y0085346D01*
X0082651Y0085346D01*
X0083396Y0084885D01*
X0083396Y0084885D01*
X0083396Y0084885D01*
X0084213Y0084568D01*
X0085074Y0084407D01*
X0085074Y0084407D01*
X0085950Y0084407D01*
X0085950Y0084407D01*
X0086811Y0084568D01*
X0087628Y0084885D01*
X0088372Y0085346D01*
X0089020Y0085936D01*
X0089547Y0086635D01*
X0089938Y0087419D01*
X0090178Y0088262D01*
X0090258Y0089134D01*
X0090234Y0089401D01*
X0090178Y0090006D01*
X0090178Y0090006D01*
X0090168Y0090040D01*
X0089938Y0090849D01*
X0089938Y0090849D01*
X0089547Y0091633D01*
X0089547Y0091633D01*
X0089020Y0092332D01*
X0088372Y0092922D01*
X0088372Y0092922D01*
X0087628Y0093383D01*
X0087628Y0093383D01*
X0086811Y0093699D01*
X0085950Y0093860D01*
X0085074Y0093860D01*
X0084213Y0093699D01*
X0083914Y0093584D01*
X0083396Y0093383D01*
X0083396Y0093383D01*
X0082651Y0092922D01*
X0082651Y0092922D01*
X0082004Y0092332D01*
X0081476Y0091633D01*
X0081476Y0091633D01*
X0081086Y0090849D01*
X0081086Y0090849D01*
X0080846Y0090006D01*
X0080846Y0090006D01*
X0080765Y0089134D01*
X0080765Y0089134D01*
X0076333Y0089134D01*
X0076273Y0089666D01*
X0076273Y0089666D01*
X0076214Y0089834D01*
X0076039Y0090337D01*
X0075987Y0090418D01*
X0075816Y0090690D01*
X0075661Y0090938D01*
X0075159Y0091440D01*
X0075104Y0091474D01*
X0074557Y0091818D01*
X0074557Y0091818D01*
X0074295Y0091910D01*
X0074072Y0092070D01*
X0073971Y0092326D01*
X0073969Y0092370D01*
X0073969Y0093031D01*
X0074046Y0093295D01*
X0074254Y0093475D01*
X0074295Y0093492D01*
X0074326Y0093503D01*
X0074557Y0093584D01*
X0075159Y0093961D01*
X0075661Y0094464D01*
X0076039Y0095065D01*
X0076273Y0095735D01*
X0076273Y0095735D01*
X0076353Y0096441D01*
X0076353Y0096441D01*
X0076273Y0097147D01*
X0076273Y0097147D01*
X0076039Y0097817D01*
X0075661Y0098418D01*
X0075159Y0098921D01*
X0074557Y0099298D01*
X0073887Y0099533D01*
X0073887Y0099533D01*
X0073181Y0099612D01*
X0073181Y0099612D01*
X0072475Y0099533D01*
X0072475Y0099533D01*
X0071805Y0099298D01*
X0071204Y0098921D01*
X0071190Y0098910D01*
X0070935Y0098806D01*
X0070886Y0098803D01*
X0041225Y0098803D01*
X0040961Y0098881D01*
X0040920Y0098910D01*
X0040907Y0098921D01*
X0040907Y0098921D01*
X0040683Y0099061D01*
X0040305Y0099298D01*
X0039635Y0099533D01*
X0039635Y0099533D01*
X0038929Y0099612D01*
X0038929Y0099612D01*
X0038223Y0099533D01*
X0038223Y0099533D01*
X0037553Y0099298D01*
X0036952Y0098921D01*
X0036450Y0098418D01*
X0036072Y0097817D01*
X0035837Y0097147D01*
X0035837Y0097147D01*
X0035758Y0096441D01*
X0035758Y0096441D01*
X0035837Y0095735D01*
X0035837Y0095735D01*
X0036072Y0095065D01*
X0036157Y0094929D01*
X0036232Y0094664D01*
X0036157Y0094410D01*
X0036072Y0094274D01*
X0035837Y0093603D01*
X0035837Y0093603D01*
X0035758Y0092898D01*
X0035758Y0092898D01*
X0032003Y0092898D01*
X0032030Y0093189D01*
X0031949Y0094061D01*
X0031710Y0094904D01*
X0031710Y0094904D01*
X0031319Y0095688D01*
X0031319Y0095688D01*
X0030791Y0096387D01*
X0030144Y0096977D01*
X0030144Y0096977D01*
X0029399Y0097438D01*
X0029399Y0097438D01*
X0028582Y0097754D01*
X0027721Y0097915D01*
X0026846Y0097915D01*
X0025984Y0097754D01*
X0025468Y0097554D01*
X0025168Y0097438D01*
X0025168Y0097438D01*
X0024423Y0096977D01*
X0024423Y0096977D01*
X0023776Y0096387D01*
X0023248Y0095688D01*
X0023248Y0095688D01*
X0022857Y0094904D01*
X0022857Y0094904D01*
X0022618Y0094061D01*
X0022618Y0094061D01*
X0022537Y0093189D01*
X0022537Y0093189D01*
X0000002Y0093189D01*
X0000002Y0108189D01*
X0022537Y0108189D01*
X0022618Y0107317D01*
X0022618Y0107317D01*
X0022857Y0106474D01*
X0022857Y0106474D01*
X0023248Y0105690D01*
X0023248Y0105690D01*
X0023776Y0104991D01*
X0024423Y0104401D01*
X0024423Y0104401D01*
X0025168Y0103940D01*
X0025168Y0103940D01*
X0025168Y0103940D01*
X0025984Y0103624D01*
X0026846Y0103463D01*
X0026846Y0103463D01*
X0027721Y0103463D01*
X0027721Y0103463D01*
X0028582Y0103624D01*
X0029399Y0103940D01*
X0030144Y0104401D01*
X0030791Y0104991D01*
X0031319Y0105690D01*
X0031710Y0106474D01*
X0031949Y0107317D01*
X0031995Y0107811D01*
X0035758Y0107811D01*
X0035837Y0107105D01*
X0035837Y0107105D01*
X0036072Y0106435D01*
X0036415Y0105888D01*
X0036450Y0105834D01*
X0036952Y0105331D01*
X0037553Y0104954D01*
X0037815Y0104862D01*
X0038038Y0104702D01*
X0038140Y0104446D01*
X0038142Y0104401D01*
X0038142Y0101512D01*
X0070886Y0101512D01*
X0071150Y0101434D01*
X0071190Y0101405D01*
X0071204Y0101394D01*
X0071204Y0101394D01*
X0071805Y0101017D01*
X0072475Y0100782D01*
X0072475Y0100782D01*
X0073181Y0100703D01*
X0073181Y0100703D01*
X0073181Y0100703D01*
X0073887Y0100782D01*
X0073887Y0100782D01*
X0073887Y0100782D01*
X0074557Y0101017D01*
X0075159Y0101394D01*
X0075661Y0101897D01*
X0076039Y0102498D01*
X0076273Y0103168D01*
X0076288Y0103301D01*
X0076353Y0103874D01*
X0076353Y0103874D01*
X0076319Y0104173D01*
X0080765Y0104173D01*
X0080846Y0103301D01*
X0080846Y0103301D01*
X0081086Y0102459D01*
X0081086Y0102459D01*
X0081476Y0101674D01*
X0081476Y0101674D01*
X0082004Y0100975D01*
X0082651Y0100385D01*
X0082651Y0100385D01*
X0083396Y0099924D01*
X0083396Y0099924D01*
X0083396Y0099924D01*
X0084213Y0099608D01*
X0085074Y0099447D01*
X0085074Y0099447D01*
X0085950Y0099447D01*
X0085950Y0099447D01*
X0086811Y0099608D01*
X0087628Y0099924D01*
X0088372Y0100385D01*
X0089020Y0100975D01*
X0089547Y0101674D01*
X0089938Y0102459D01*
X0090178Y0103301D01*
X0090258Y0104173D01*
X0090233Y0104446D01*
X0090178Y0105045D01*
X0090178Y0105045D01*
X0090119Y0105250D01*
X0089938Y0105888D01*
X0089666Y0106435D01*
X0089547Y0106672D01*
X0089547Y0106672D01*
X0089020Y0107371D01*
X0088372Y0107961D01*
X0088372Y0107961D01*
X0087628Y0108422D01*
X0087628Y0108422D01*
X0086811Y0108739D01*
X0085950Y0108900D01*
X0085074Y0108900D01*
X0084213Y0108739D01*
X0083696Y0108539D01*
X0083396Y0108422D01*
X0083396Y0108422D01*
X0082651Y0107961D01*
X0082651Y0107961D01*
X0082004Y0107371D01*
X0081476Y0106672D01*
X0081476Y0106672D01*
X0081086Y0105888D01*
X0081086Y0105888D01*
X0080846Y0105045D01*
X0080846Y0105045D01*
X0080765Y0104173D01*
X0080765Y0104173D01*
X0076319Y0104173D01*
X0076273Y0104580D01*
X0076273Y0104580D01*
X0076214Y0104748D01*
X0076039Y0105250D01*
X0075987Y0105331D01*
X0075884Y0105496D01*
X0075661Y0105851D01*
X0075159Y0106354D01*
X0074557Y0106731D01*
X0074557Y0106731D01*
X0074295Y0106823D01*
X0074072Y0106983D01*
X0073971Y0107239D01*
X0073969Y0107284D01*
X0073969Y0107945D01*
X0074046Y0108208D01*
X0074254Y0108389D01*
X0074295Y0108405D01*
X0074326Y0108416D01*
X0074557Y0108497D01*
X0075159Y0108875D01*
X0075661Y0109377D01*
X0076039Y0109978D01*
X0076273Y0110649D01*
X0076278Y0110688D01*
X0076353Y0111354D01*
X0076353Y0111354D01*
X0076273Y0112060D01*
X0076273Y0112060D01*
X0076141Y0112438D01*
X0076039Y0112730D01*
X0075661Y0113332D01*
X0075159Y0113834D01*
X0074557Y0114212D01*
X0073887Y0114446D01*
X0073887Y0114446D01*
X0073181Y0114526D01*
X0073181Y0114526D01*
X0072475Y0114446D01*
X0072475Y0114446D01*
X0071805Y0114212D01*
X0071204Y0113834D01*
X0071190Y0113823D01*
X0070935Y0113719D01*
X0070886Y0113717D01*
X0041225Y0113717D01*
X0040961Y0113794D01*
X0040920Y0113823D01*
X0040907Y0113834D01*
X0040907Y0113834D01*
X0040683Y0113974D01*
X0040305Y0114212D01*
X0039635Y0114446D01*
X0039635Y0114446D01*
X0038929Y0114526D01*
X0038929Y0114526D01*
X0038223Y0114446D01*
X0038223Y0114446D01*
X0037553Y0114212D01*
X0036952Y0113834D01*
X0036450Y0113332D01*
X0036072Y0112730D01*
X0035837Y0112060D01*
X0035837Y0112060D01*
X0035758Y0111354D01*
X0035758Y0111354D01*
X0035837Y0110649D01*
X0035837Y0110649D01*
X0036072Y0109978D01*
X0036157Y0109842D01*
X0036232Y0109578D01*
X0036157Y0109323D01*
X0036072Y0109187D01*
X0035837Y0108517D01*
X0035837Y0108517D01*
X0035758Y0107811D01*
X0035758Y0107811D01*
X0031995Y0107811D01*
X0032030Y0108189D01*
X0031964Y0108900D01*
X0031949Y0109061D01*
X0031949Y0109061D01*
X0031859Y0109377D01*
X0031710Y0109904D01*
X0031672Y0109978D01*
X0031319Y0110688D01*
X0031319Y0110688D01*
X0030791Y0111387D01*
X0030144Y0111977D01*
X0030144Y0111977D01*
X0029399Y0112438D01*
X0029399Y0112438D01*
X0028582Y0112754D01*
X0027721Y0112915D01*
X0026846Y0112915D01*
X0025984Y0112754D01*
X0025468Y0112554D01*
X0025168Y0112438D01*
X0025168Y0112438D01*
X0024423Y0111977D01*
X0024423Y0111977D01*
X0023776Y0111387D01*
X0023248Y0110688D01*
X0023248Y0110688D01*
X0022857Y0109904D01*
X0022857Y0109904D01*
X0022618Y0109061D01*
X0022618Y0109061D01*
X0022537Y0108189D01*
X0022537Y0108189D01*
X0000002Y0108189D01*
X0000002Y0127209D01*
X0050620Y0127209D01*
X0050700Y0126336D01*
X0050700Y0126336D01*
X0050940Y0125494D01*
X0050940Y0125494D01*
X0051330Y0124710D01*
X0051330Y0124710D01*
X0051858Y0124011D01*
X0052506Y0123421D01*
X0052506Y0123421D01*
X0053250Y0122960D01*
X0053250Y0122960D01*
X0053250Y0122960D01*
X0054067Y0122643D01*
X0054928Y0122482D01*
X0054928Y0122482D01*
X0055804Y0122482D01*
X0055804Y0122482D01*
X0056665Y0122643D01*
X0057482Y0122960D01*
X0058227Y0123421D01*
X0058874Y0124011D01*
X0059402Y0124710D01*
X0059792Y0125494D01*
X0060032Y0126336D01*
X0060113Y0127209D01*
X0060032Y0128081D01*
X0059792Y0128923D01*
X0059792Y0128923D01*
X0059402Y0129707D01*
X0059402Y0129707D01*
X0058874Y0130406D01*
X0058227Y0130997D01*
X0058227Y0130997D01*
X0057482Y0131458D01*
X0057482Y0131458D01*
X0056665Y0131774D01*
X0055804Y0131935D01*
X0054928Y0131935D01*
X0054067Y0131774D01*
X0053551Y0131574D01*
X0053250Y0131458D01*
X0053250Y0131458D01*
X0052506Y0130997D01*
X0052506Y0130997D01*
X0051858Y0130406D01*
X0051330Y0129707D01*
X0051330Y0129707D01*
X0050940Y0128923D01*
X0050940Y0128923D01*
X0050700Y0128081D01*
X0050700Y0128081D01*
X0050620Y0127209D01*
X0050620Y0127209D01*
X0000002Y0127209D01*
X0000002Y0133093D01*
X0000079Y0133356D01*
X0000287Y0133537D01*
X0000490Y0133581D01*
X0115809Y0133581D01*
X0116073Y0133503D01*
G37*
X0037748Y0101118D02*
G01*
G75*
G36*
X0072968Y0113520D02*
X0072336Y0113394D01*
X0071620Y0112915D01*
X0071516Y0112759D01*
X0067018Y0112759D01*
X0066480Y0112652D01*
X0066024Y0112348D01*
X0065649Y0111973D01*
X0065004Y0112163D01*
X0064685Y0112641D01*
X0064099Y0113032D01*
X0063408Y0113170D01*
X0062717Y0113032D01*
X0062131Y0112641D01*
X0061739Y0112055D01*
X0061602Y0111364D01*
X0061739Y0110672D01*
X0061923Y0110397D01*
X0061607Y0109806D01*
X0060176Y0109806D01*
X0059893Y0110089D01*
X0059437Y0110394D01*
X0058900Y0110501D01*
X0055207Y0110501D01*
X0054812Y0110765D01*
X0054121Y0110902D01*
X0053430Y0110765D01*
X0052844Y0110373D01*
X0052452Y0109787D01*
X0052315Y0109096D01*
X0052452Y0108405D01*
X0052844Y0107819D01*
X0053430Y0107427D01*
X0054121Y0107290D01*
X0054812Y0107427D01*
X0055207Y0107691D01*
X0058318Y0107691D01*
X0058601Y0107408D01*
X0059057Y0107103D01*
X0059594Y0106996D01*
X0064065Y0106996D01*
X0064603Y0107103D01*
X0065058Y0107408D01*
X0067599Y0109949D01*
X0071516Y0109949D01*
X0071620Y0109793D01*
X0072336Y0109314D01*
X0073181Y0109146D01*
X0073181Y0106082D01*
X0072336Y0105914D01*
X0071620Y0105435D01*
X0071141Y0104719D01*
X0070973Y0103874D01*
X0071141Y0103029D01*
X0071620Y0102313D01*
X0072336Y0101834D01*
X0072968Y0101709D01*
X0072909Y0101118D01*
X0037748Y0101118D01*
X0037748Y0105340D01*
X0038241Y0105657D01*
X0038796Y0105423D01*
X0038699Y0104936D01*
X0038837Y0104245D01*
X0039228Y0103659D01*
X0039814Y0103267D01*
X0040505Y0103130D01*
X0041197Y0103267D01*
X0041783Y0103659D01*
X0042174Y0104245D01*
X0042312Y0104936D01*
X0042174Y0105627D01*
X0041783Y0106213D01*
X0041363Y0106494D01*
X0041161Y0106736D01*
X0041024Y0107242D01*
X0041137Y0107811D01*
X0040969Y0108656D01*
X0040624Y0109172D01*
X0040536Y0109583D01*
X0040624Y0109993D01*
X0040969Y0110509D01*
X0041137Y0111354D01*
X0040969Y0112199D01*
X0040490Y0112915D01*
X0039774Y0113394D01*
X0039142Y0113520D01*
X0039201Y0114110D01*
X0072910Y0114110D01*
X0072968Y0113520D01*
D02*
G37*
%LPC*%
G36*
X0048614Y0105779D02*
X0047923Y0105641D01*
X0047337Y0105250D01*
X0046945Y0104664D01*
X0046808Y0103972D01*
X0046945Y0103281D01*
X0047337Y0102695D01*
X0047923Y0102303D01*
X0048614Y0102166D01*
X0049305Y0102303D01*
X0049891Y0102695D01*
X0050283Y0103281D01*
X0050421Y0103972D01*
X0050283Y0104664D01*
X0049891Y0105250D01*
X0049305Y0105641D01*
X0048614Y0105779D01*
D02*
G37*
%LPD*%
D13*
X0056055Y0113716D02*
D03*
X0056055Y0101512D02*
D03*
D12*
X0038142Y0103579D02*
D03*
D31*
X0067018Y0111354D02*
X0073181Y0111354D01*
X0059594Y0108401D02*
X0064065Y0108401D01*
X0067018Y0111354D01*
X0054121Y0109096D02*
X0058900Y0109096D01*
X0059594Y0108401D01*
D11*
X0073181Y0111354D02*
D03*
X0073181Y0107614D02*
D03*
X0054121Y0109096D02*
D03*
X0038988Y0102403D02*
D03*
X0051690Y0106965D02*
D03*
X0048951Y0108021D02*
D03*
X0037748Y0086205D02*
G01*
G75*
G36*
X0072968Y0098607D02*
X0072336Y0098481D01*
X0071620Y0098002D01*
X0071516Y0097846D01*
X0067018Y0097846D01*
X0066480Y0097739D01*
X0066024Y0097435D01*
X0065649Y0097060D01*
X0065004Y0097250D01*
X0064685Y0097728D01*
X0064099Y0098119D01*
X0063408Y0098257D01*
X0062717Y0098119D01*
X0062131Y0097728D01*
X0061739Y0097142D01*
X0061602Y0096451D01*
X0061739Y0095759D01*
X0061923Y0095484D01*
X0061607Y0094893D01*
X0060176Y0094893D01*
X0059893Y0095176D01*
X0059437Y0095481D01*
X0058900Y0095588D01*
X0055207Y0095588D01*
X0054812Y0095852D01*
X0054121Y0095989D01*
X0053430Y0095852D01*
X0052844Y0095460D01*
X0052452Y0094874D01*
X0052315Y0094183D01*
X0052452Y0093492D01*
X0052844Y0092906D01*
X0053430Y0092514D01*
X0054121Y0092377D01*
X0054812Y0092514D01*
X0055207Y0092778D01*
X0058318Y0092778D01*
X0058601Y0092495D01*
X0059057Y0092190D01*
X0059594Y0092083D01*
X0064065Y0092083D01*
X0064603Y0092190D01*
X0065058Y0092495D01*
X0067599Y0095036D01*
X0071516Y0095036D01*
X0071620Y0094880D01*
X0072336Y0094401D01*
X0073181Y0094233D01*
X0073181Y0091169D01*
X0072336Y0091001D01*
X0071620Y0090522D01*
X0071141Y0089806D01*
X0070973Y0088961D01*
X0071141Y0088116D01*
X0071620Y0087400D01*
X0072336Y0086921D01*
X0072968Y0086796D01*
X0072909Y0086205D01*
X0037748Y0086205D01*
X0037748Y0090427D01*
X0038241Y0090744D01*
X0038796Y0090510D01*
X0038699Y0090023D01*
X0038837Y0089332D01*
X0039228Y0088746D01*
X0039814Y0088354D01*
X0040505Y0088217D01*
X0041197Y0088354D01*
X0041783Y0088746D01*
X0042174Y0089332D01*
X0042312Y0090023D01*
X0042174Y0090714D01*
X0041783Y0091300D01*
X0041363Y0091581D01*
X0041161Y0091823D01*
X0041024Y0092329D01*
X0041137Y0092898D01*
X0040969Y0093743D01*
X0040624Y0094259D01*
X0040536Y0094670D01*
X0040624Y0095080D01*
X0040969Y0095596D01*
X0041137Y0096441D01*
X0040969Y0097286D01*
X0040490Y0098002D01*
X0039774Y0098481D01*
X0039142Y0098607D01*
X0039201Y0099197D01*
X0072910Y0099197D01*
X0072968Y0098607D01*
D02*
G37*
%LPC*%
G36*
X0048614Y0090866D02*
X0047923Y0090728D01*
X0047337Y0090337D01*
X0046945Y0089751D01*
X0046808Y0089059D01*
X0046945Y0088368D01*
X0047337Y0087782D01*
X0047923Y0087390D01*
X0048614Y0087253D01*
X0049305Y0087390D01*
X0049891Y0087782D01*
X0050283Y0088368D01*
X0050421Y0089059D01*
X0050283Y0089751D01*
X0049891Y0090337D01*
X0049305Y0090728D01*
X0048614Y0090866D01*
D02*
G37*
%LPD*%
D13*
X0056055Y0098803D02*
D03*
X0056055Y0086599D02*
D03*
D12*
X0038142Y0088666D02*
D03*
D31*
X0067018Y0096441D02*
X0073181Y0096441D01*
X0059594Y0093488D02*
X0064065Y0093488D01*
X0067018Y0096441D01*
X0054121Y0094183D02*
X0058900Y0094183D01*
X0059594Y0093488D01*
D11*
X0073181Y0096441D02*
D03*
X0073181Y0092701D02*
D03*
X0054121Y0094183D02*
D03*
X0038988Y0087490D02*
D03*
X0051690Y0092052D02*
D03*
X0048951Y0093108D02*
D03*
M02*
