G75*
G70*
%OFA0B0*%
%FSLAX25Y25*%
%IPPOS*%
%LPD*%
%AMOC8*
5,1,8,0,0,1.08239X$1,22.5*
%
%AMM11*
21,1,0.021650,0.052760,0.000000,-0.000000,270.000000*
21,1,0.017320,0.057090,0.000000,-0.000000,270.000000*
1,1,0.004330,-0.026380,0.008660*
1,1,0.004330,-0.026380,-0.008660*
1,1,0.004330,0.026380,-0.008660*
1,1,0.004330,0.026380,0.008660*
%
%ADD10C,0.05512*%
%ADD13R,0.06024X0.06024*%
%ADD14C,0.06024*%
%ADD15C,0.02362*%
%ADD16O,0.00787X0.04823*%
%ADD17O,0.36614X0.00787*%
%ADD18C,0.03150*%
%ADD20C,0.01181*%
%ADD26C,0.00787*%
%ADD29C,0.00984*%
%ADD30C,0.01850*%
%ADD31C,0.01575*%
%ADD42M11*%
X0000000Y0000000D02*
%LPD*%
G01*
D10*
X0029508Y0119035D03*
X0029508Y0104547D03*
X0086594Y0108406D03*
X0086594Y0123445D03*
X0020295Y0017795D03*
X0062067Y0092283D03*
X0020413Y0046693D03*
D13*
X0061161Y0075039D03*
D14*
X0061161Y0065039D03*
X0061161Y0055039D03*
X0061161Y0045039D03*
X0061161Y0035039D03*
X0061161Y0025039D03*
X0061161Y0015039D03*
X0061161Y0005039D03*
X0111161Y0005039D03*
X0111161Y0015039D03*
X0111161Y0025039D03*
X0111161Y0035039D03*
X0111161Y0045039D03*
X0111161Y0055039D03*
X0111161Y0065039D03*
X0111161Y0075039D03*
D15*
X0075157Y0115551D03*
D16*
X0040118Y0123327D03*
D17*
X0058031Y0125394D03*
X0058031Y0113189D03*
D15*
X0075157Y0119291D03*
X0075157Y0123032D03*
X0040906Y0119095D03*
X0040906Y0115551D03*
X0075453Y0100728D03*
D16*
X0040413Y0108504D03*
D17*
X0058327Y0110571D03*
X0058327Y0098366D03*
D15*
X0075453Y0104469D03*
X0075453Y0108209D03*
X0041201Y0104272D03*
X0041201Y0100728D03*
D18*
X0068937Y0055394D03*
X0080197Y0057323D03*
X0082756Y0039724D03*
X0079252Y0032835D03*
X0072205Y0046890D03*
X0086299Y0036339D03*
X0072126Y0032598D03*
X0079252Y0039803D03*
X0026339Y0067598D03*
X0034646Y0067402D03*
X0096693Y0040039D03*
X0100276Y0043661D03*
X0088150Y0020945D03*
X0094331Y0068307D03*
X0093268Y0032992D03*
X0072165Y0036063D03*
X0075709Y0032717D03*
X0089724Y0036339D03*
X0101575Y0069016D03*
X0089724Y0032874D03*
X0079291Y0043307D03*
X0073031Y0067992D03*
X0093228Y0046890D03*
X0082717Y0046654D03*
X0071102Y0111929D03*
X0084291Y0020866D03*
X0100236Y0036654D03*
X0100236Y0040157D03*
X0100236Y0033189D03*
X0079213Y0046732D03*
X0082795Y0043228D03*
X0043307Y0111890D03*
X0084134Y0051142D03*
X0072205Y0039646D03*
X0067047Y0049094D03*
X0075709Y0036181D03*
X0051055Y0067803D03*
X0093268Y0036457D03*
X0082756Y0036220D03*
X0079252Y0036299D03*
X0086260Y0046772D03*
X0095472Y0027756D03*
X0100197Y0047087D03*
X0089764Y0043346D03*
X0089685Y0046772D03*
X0096654Y0046969D03*
X0096693Y0036535D03*
X0089724Y0039843D03*
X0069882Y0096417D03*
X0072244Y0043228D03*
X0054213Y0096378D03*
X0057953Y0111811D03*
X0096732Y0043543D03*
X0082756Y0032756D03*
X0093268Y0039961D03*
X0075709Y0039685D03*
X0093307Y0043465D03*
X0086299Y0039843D03*
X0082559Y0013071D03*
X0080354Y0020748D03*
X0076260Y0027717D03*
X0075669Y0046614D03*
X0075748Y0043189D03*
X0086339Y0043346D03*
X0086299Y0032874D03*
X0042874Y0067638D03*
X0081339Y0067992D03*
X0096693Y0033071D03*
X0100591Y0052717D03*
D18*
X0061161Y0055039D02*
X0068583Y0055039D01*
X0068583Y0055039D02*
X0068937Y0055394D01*
X0078268Y0055394D02*
X0080197Y0057323D01*
X0068937Y0055394D02*
X0078268Y0055394D01*
D20*
X0100591Y0052717D02*
X0108839Y0052717D01*
X0108839Y0052717D02*
X0111161Y0055039D01*
X0075453Y0108209D02*
X0086398Y0108209D01*
X0086398Y0108209D02*
X0086594Y0108406D01*
X0029508Y0104547D02*
X0040925Y0104547D01*
X0040925Y0104547D02*
X0041201Y0104272D01*
G36*
X0116073Y0133503D02*
G01*
X0116253Y0133295D01*
X0116297Y0133092D01*
X0116268Y0093998D01*
X0116258Y0080040D01*
X0116258Y0077996D01*
X0116180Y0077732D01*
X0115972Y0077551D01*
X0115700Y0077512D01*
X0115450Y0077627D01*
X0115370Y0077716D01*
X0115174Y0077996D01*
X0114993Y0078254D01*
X0114376Y0078871D01*
X0113662Y0079371D01*
X0113662Y0079371D01*
X0112872Y0079739D01*
X0112872Y0079739D01*
X0112030Y0079965D01*
X0112030Y0079965D01*
X0111161Y0080041D01*
X0111161Y0080041D01*
X0110293Y0079965D01*
X0110293Y0079965D01*
X0109451Y0079739D01*
X0109451Y0079739D01*
X0108661Y0079371D01*
X0108661Y0079371D01*
X0107947Y0078871D01*
X0107330Y0078254D01*
X0106830Y0077540D01*
X0106830Y0077540D01*
X0106462Y0076750D01*
X0106462Y0076750D01*
X0106236Y0075908D01*
X0106236Y0075908D01*
X0106160Y0075039D01*
X0106160Y0075039D01*
X0106236Y0074171D01*
X0106236Y0074171D01*
X0106462Y0073329D01*
X0106462Y0073329D01*
X0106819Y0072563D01*
X0106830Y0072539D01*
X0107330Y0071825D01*
X0107947Y0071208D01*
X0108661Y0070708D01*
X0108850Y0070620D01*
X0109146Y0070482D01*
X0109352Y0070300D01*
X0109428Y0070036D01*
X0109348Y0069772D01*
X0109146Y0069597D01*
X0108661Y0069371D01*
X0108661Y0069371D01*
X0107947Y0068871D01*
X0107330Y0068254D01*
X0106830Y0067540D01*
X0106830Y0067540D01*
X0106462Y0066750D01*
X0106462Y0066750D01*
X0106236Y0065908D01*
X0106236Y0065908D01*
X0106160Y0065039D01*
X0106160Y0065039D01*
X0106236Y0064171D01*
X0106236Y0064171D01*
X0106462Y0063329D01*
X0106462Y0063329D01*
X0106572Y0063093D01*
X0106830Y0062539D01*
X0107330Y0061825D01*
X0107947Y0061208D01*
X0108661Y0060708D01*
X0108888Y0060602D01*
X0109146Y0060482D01*
X0109352Y0060300D01*
X0109428Y0060036D01*
X0109348Y0059772D01*
X0109146Y0059597D01*
X0108661Y0059371D01*
X0108661Y0059371D01*
X0107947Y0058871D01*
X0107330Y0058254D01*
X0106830Y0057540D01*
X0106830Y0057540D01*
X0106462Y0056750D01*
X0106462Y0056750D01*
X0106236Y0055908D01*
X0106236Y0055908D01*
X0106220Y0055723D01*
X0106120Y0055467D01*
X0105897Y0055306D01*
X0105734Y0055278D01*
X0103256Y0055278D01*
X0102992Y0055355D01*
X0102969Y0055371D01*
X0102373Y0055804D01*
X0102373Y0055804D01*
X0101692Y0056107D01*
X0101692Y0056107D01*
X0101118Y0056229D01*
X0100963Y0056262D01*
X0100218Y0056262D01*
X0100090Y0056235D01*
X0099489Y0056107D01*
X0099489Y0056107D01*
X0098808Y0055804D01*
X0098808Y0055804D01*
X0098205Y0055366D01*
X0097707Y0054812D01*
X0097334Y0054166D01*
X0097334Y0054166D01*
X0097104Y0053458D01*
X0097104Y0053458D01*
X0097026Y0052717D01*
X0097104Y0051975D01*
X0097104Y0051975D01*
X0097334Y0051267D01*
X0097334Y0051267D01*
X0097707Y0050621D01*
X0098196Y0050078D01*
X0098205Y0050067D01*
X0098808Y0049629D01*
X0098808Y0049629D01*
X0099489Y0049326D01*
X0099489Y0049326D01*
X0100218Y0049171D01*
X0100218Y0049171D01*
X0100963Y0049171D01*
X0100963Y0049171D01*
X0101692Y0049326D01*
X0102373Y0049629D01*
X0102969Y0050062D01*
X0103228Y0050155D01*
X0103256Y0050156D01*
X0108233Y0050156D01*
X0108497Y0050078D01*
X0108677Y0049870D01*
X0108717Y0049598D01*
X0108602Y0049348D01*
X0108513Y0049267D01*
X0108405Y0049192D01*
X0107947Y0048871D01*
X0107330Y0048254D01*
X0106830Y0047540D01*
X0106830Y0047540D01*
X0106462Y0046750D01*
X0106462Y0046750D01*
X0106236Y0045908D01*
X0106236Y0045908D01*
X0106160Y0045039D01*
X0106160Y0045039D01*
X0106236Y0044171D01*
X0106236Y0044171D01*
X0106462Y0043329D01*
X0106462Y0043329D01*
X0106659Y0042905D01*
X0106830Y0042539D01*
X0107330Y0041825D01*
X0107947Y0041208D01*
X0108661Y0040708D01*
X0108905Y0040594D01*
X0109146Y0040482D01*
X0109352Y0040300D01*
X0109428Y0040036D01*
X0109348Y0039772D01*
X0109146Y0039597D01*
X0108661Y0039371D01*
X0108661Y0039371D01*
X0107947Y0038871D01*
X0107330Y0038254D01*
X0106830Y0037540D01*
X0106830Y0037540D01*
X0106462Y0036750D01*
X0106462Y0036750D01*
X0106236Y0035908D01*
X0106236Y0035908D01*
X0106160Y0035039D01*
X0106160Y0035039D01*
X0106236Y0034171D01*
X0106236Y0034171D01*
X0106462Y0033329D01*
X0106462Y0033329D01*
X0106819Y0032563D01*
X0106830Y0032539D01*
X0107330Y0031825D01*
X0107947Y0031208D01*
X0108661Y0030708D01*
X0108905Y0030594D01*
X0109146Y0030482D01*
X0109352Y0030300D01*
X0109428Y0030036D01*
X0109348Y0029772D01*
X0109146Y0029597D01*
X0108661Y0029371D01*
X0108661Y0029371D01*
X0107947Y0028871D01*
X0107330Y0028254D01*
X0106830Y0027540D01*
X0106830Y0027540D01*
X0106462Y0026750D01*
X0106462Y0026750D01*
X0106236Y0025908D01*
X0106236Y0025908D01*
X0106160Y0025039D01*
X0106160Y0025039D01*
X0106236Y0024171D01*
X0106236Y0024171D01*
X0106462Y0023329D01*
X0106462Y0023329D01*
X0106819Y0022563D01*
X0106830Y0022539D01*
X0107330Y0021825D01*
X0107947Y0021208D01*
X0108661Y0020708D01*
X0108905Y0020594D01*
X0109146Y0020482D01*
X0109352Y0020300D01*
X0109428Y0020036D01*
X0109348Y0019772D01*
X0109146Y0019597D01*
X0108661Y0019371D01*
X0108661Y0019371D01*
X0107947Y0018871D01*
X0107330Y0018254D01*
X0106830Y0017540D01*
X0106830Y0017540D01*
X0106462Y0016750D01*
X0106462Y0016750D01*
X0106236Y0015908D01*
X0106236Y0015908D01*
X0106160Y0015039D01*
X0106160Y0015039D01*
X0106236Y0014171D01*
X0106236Y0014171D01*
X0106462Y0013329D01*
X0106462Y0013329D01*
X0106583Y0013069D01*
X0106830Y0012539D01*
X0107330Y0011825D01*
X0107947Y0011208D01*
X0108661Y0010708D01*
X0108905Y0010594D01*
X0109146Y0010482D01*
X0109352Y0010300D01*
X0109428Y0010036D01*
X0109348Y0009772D01*
X0109146Y0009597D01*
X0108661Y0009371D01*
X0108661Y0009371D01*
X0107947Y0008871D01*
X0107330Y0008254D01*
X0106830Y0007540D01*
X0106830Y0007540D01*
X0106462Y0006750D01*
X0106462Y0006750D01*
X0106236Y0005908D01*
X0106236Y0005908D01*
X0106160Y0005039D01*
X0106160Y0005039D01*
X0106236Y0004171D01*
X0106236Y0004171D01*
X0106462Y0003329D01*
X0106462Y0003329D01*
X0106572Y0003093D01*
X0106830Y0002539D01*
X0107330Y0001825D01*
X0107947Y0001208D01*
X0108373Y0000910D01*
X0108545Y0000695D01*
X0108573Y0000421D01*
X0108449Y0000176D01*
X0108212Y0000036D01*
X0108093Y0000022D01*
X0064227Y0000022D01*
X0063963Y0000099D01*
X0063783Y0000307D01*
X0063743Y0000579D01*
X0063858Y0000830D01*
X0063918Y0000884D01*
X0063919Y0000890D01*
X0061718Y0003091D01*
X0061733Y0003093D01*
X0062258Y0003333D01*
X0062694Y0003711D01*
X0063007Y0004197D01*
X0063095Y0004498D01*
X0065311Y0002282D01*
X0065491Y0002540D01*
X0065859Y0003329D01*
X0065859Y0003330D01*
X0066085Y0004171D01*
X0066085Y0004171D01*
X0066161Y0005039D01*
X0066161Y0005039D01*
X0066085Y0005907D01*
X0066085Y0005908D01*
X0065859Y0006749D01*
X0065859Y0006749D01*
X0065491Y0007539D01*
X0065491Y0007539D01*
X0065311Y0007797D01*
X0065311Y0007797D01*
X0063095Y0005581D01*
X0063007Y0005882D01*
X0062694Y0006368D01*
X0062258Y0006746D01*
X0061733Y0006986D01*
X0061718Y0006988D01*
X0063919Y0009189D01*
X0063919Y0009189D01*
X0063661Y0009369D01*
X0063174Y0009596D01*
X0062968Y0009778D01*
X0062893Y0010042D01*
X0062972Y0010305D01*
X0063174Y0010481D01*
X0063662Y0010708D01*
X0064376Y0011208D01*
X0064993Y0011825D01*
X0065493Y0012539D01*
X0065861Y0013329D01*
X0066087Y0014171D01*
X0066163Y0015039D01*
X0066087Y0015908D01*
X0065861Y0016750D01*
X0065493Y0017540D01*
X0064993Y0018254D01*
X0064376Y0018871D01*
X0063662Y0019371D01*
X0063177Y0019597D01*
X0062970Y0019779D01*
X0062895Y0020043D01*
X0062975Y0020307D01*
X0063177Y0020482D01*
X0063662Y0020708D01*
X0064376Y0021208D01*
X0064993Y0021825D01*
X0065493Y0022539D01*
X0065861Y0023329D01*
X0066087Y0024171D01*
X0066163Y0025039D01*
X0066087Y0025908D01*
X0065861Y0026750D01*
X0065493Y0027540D01*
X0064993Y0028254D01*
X0064376Y0028871D01*
X0063662Y0029371D01*
X0063177Y0029597D01*
X0062970Y0029779D01*
X0062895Y0030043D01*
X0062975Y0030307D01*
X0063177Y0030482D01*
X0063662Y0030708D01*
X0064376Y0031208D01*
X0064993Y0031825D01*
X0065493Y0032539D01*
X0065861Y0033329D01*
X0066087Y0034171D01*
X0066163Y0035039D01*
X0066087Y0035908D01*
X0065861Y0036750D01*
X0065493Y0037540D01*
X0064993Y0038254D01*
X0064376Y0038871D01*
X0063662Y0039371D01*
X0063177Y0039597D01*
X0062970Y0039779D01*
X0062895Y0040043D01*
X0062975Y0040307D01*
X0063177Y0040482D01*
X0063662Y0040708D01*
X0064376Y0041208D01*
X0064993Y0041825D01*
X0065493Y0042539D01*
X0065861Y0043329D01*
X0066087Y0044171D01*
X0066157Y0044978D01*
X0066163Y0045039D01*
X0066163Y0045039D01*
X0066094Y0045821D01*
X0066087Y0045908D01*
X0065861Y0046750D01*
X0065493Y0047540D01*
X0064993Y0048254D01*
X0064376Y0048871D01*
X0063662Y0049371D01*
X0063177Y0049597D01*
X0062970Y0049779D01*
X0062895Y0050043D01*
X0062975Y0050307D01*
X0063177Y0050482D01*
X0063662Y0050708D01*
X0064376Y0051208D01*
X0064519Y0051351D01*
X0064761Y0051483D01*
X0064864Y0051494D01*
X0068265Y0051494D01*
X0068342Y0051488D01*
X0068396Y0051479D01*
X0068669Y0051494D01*
X0068682Y0051494D01*
X0068768Y0051494D01*
X0068768Y0051494D01*
X0068835Y0051501D01*
X0068855Y0051503D01*
X0068867Y0051504D01*
X0069140Y0051518D01*
X0069194Y0051533D01*
X0069269Y0051547D01*
X0069324Y0051552D01*
X0069584Y0051637D01*
X0069596Y0051641D01*
X0069860Y0051711D01*
X0069909Y0051736D01*
X0069980Y0051766D01*
X0070033Y0051783D01*
X0070033Y0051783D01*
X0070033Y0051783D01*
X0070056Y0051793D01*
X0070058Y0051790D01*
X0070277Y0051848D01*
X0077950Y0051848D01*
X0078027Y0051842D01*
X0078081Y0051834D01*
X0078354Y0051848D01*
X0078367Y0051848D01*
X0078454Y0051848D01*
X0078454Y0051848D01*
X0078520Y0051855D01*
X0078540Y0051857D01*
X0078552Y0051858D01*
X0078825Y0051873D01*
X0078879Y0051887D01*
X0078954Y0051901D01*
X0079009Y0051907D01*
X0079269Y0051991D01*
X0079281Y0051995D01*
X0079545Y0052066D01*
X0079594Y0052091D01*
X0079665Y0052120D01*
X0079718Y0052137D01*
X0079955Y0052274D01*
X0079965Y0052280D01*
X0080209Y0052404D01*
X0080252Y0052439D01*
X0080315Y0052482D01*
X0080363Y0052510D01*
X0080566Y0052693D01*
X0080576Y0052701D01*
X0080643Y0052755D01*
X0080704Y0052817D01*
X0080714Y0052825D01*
X0080917Y0053008D01*
X0080949Y0053053D01*
X0080999Y0053111D01*
X0082479Y0054592D01*
X0082538Y0054641D01*
X0082582Y0054674D01*
X0082765Y0054877D01*
X0082774Y0054886D01*
X0082835Y0054947D01*
X0082890Y0055015D01*
X0082898Y0055024D01*
X0083081Y0055227D01*
X0083108Y0055275D01*
X0083152Y0055338D01*
X0083187Y0055381D01*
X0083311Y0055625D01*
X0083317Y0055636D01*
X0083453Y0055873D01*
X0083471Y0055925D01*
X0083500Y0055996D01*
X0083525Y0056045D01*
X0083525Y0056045D01*
X0083596Y0056309D01*
X0083599Y0056322D01*
X0083684Y0056582D01*
X0083690Y0056637D01*
X0083703Y0056712D01*
X0083718Y0056765D01*
X0083732Y0057038D01*
X0083733Y0057051D01*
X0083762Y0057323D01*
X0083756Y0057378D01*
X0083754Y0057454D01*
X0083757Y0057509D01*
X0083714Y0057779D01*
X0083712Y0057792D01*
X0083684Y0058064D01*
X0083667Y0058117D01*
X0083649Y0058191D01*
X0083640Y0058245D01*
X0083640Y0058245D01*
X0083640Y0058245D01*
X0083542Y0058501D01*
X0083538Y0058513D01*
X0083453Y0058773D01*
X0083447Y0058784D01*
X0083426Y0058821D01*
X0083393Y0058890D01*
X0083373Y0058941D01*
X0083373Y0058941D01*
X0083224Y0059171D01*
X0083218Y0059181D01*
X0083081Y0059418D01*
X0083075Y0059425D01*
X0083044Y0059459D01*
X0082997Y0059520D01*
X0082967Y0059566D01*
X0082871Y0059663D01*
X0082774Y0059760D01*
X0082765Y0059769D01*
X0082582Y0059972D01*
X0082582Y0059972D01*
X0082538Y0060004D01*
X0082479Y0060054D01*
X0082440Y0060093D01*
X0082211Y0060242D01*
X0082200Y0060249D01*
X0082055Y0060355D01*
X0081979Y0060410D01*
X0081929Y0060432D01*
X0081862Y0060469D01*
X0081815Y0060499D01*
X0081815Y0060499D01*
X0081815Y0060499D01*
X0081631Y0060570D01*
X0081560Y0060597D01*
X0081548Y0060602D01*
X0081298Y0060713D01*
X0081298Y0060713D01*
X0081244Y0060725D01*
X0081171Y0060746D01*
X0081149Y0060755D01*
X0081119Y0060766D01*
X0080849Y0060809D01*
X0080837Y0060811D01*
X0080724Y0060835D01*
X0080569Y0060868D01*
X0080569Y0060868D01*
X0080514Y0060868D01*
X0080438Y0060874D01*
X0080383Y0060883D01*
X0080110Y0060868D01*
X0080098Y0060868D01*
X0079824Y0060868D01*
X0079770Y0060857D01*
X0079694Y0060847D01*
X0079639Y0060844D01*
X0079375Y0060773D01*
X0079363Y0060770D01*
X0079095Y0060713D01*
X0079095Y0060713D01*
X0079045Y0060691D01*
X0078973Y0060665D01*
X0078919Y0060651D01*
X0078919Y0060651D01*
X0078676Y0060527D01*
X0078664Y0060521D01*
X0078414Y0060410D01*
X0078370Y0060378D01*
X0078305Y0060338D01*
X0078255Y0060313D01*
X0078255Y0060313D01*
X0078043Y0060140D01*
X0078033Y0060133D01*
X0077812Y0059972D01*
X0077812Y0059972D01*
X0077629Y0059769D01*
X0077620Y0059760D01*
X0077458Y0059598D01*
X0076942Y0059082D01*
X0076701Y0058950D01*
X0076597Y0058939D01*
X0069254Y0058939D01*
X0069178Y0058945D01*
X0069124Y0058954D01*
X0069124Y0058954D01*
X0068851Y0058939D01*
X0068838Y0058939D01*
X0068564Y0058939D01*
X0068510Y0058928D01*
X0068434Y0058918D01*
X0068379Y0058915D01*
X0068379Y0058915D01*
X0068326Y0058900D01*
X0068251Y0058886D01*
X0068196Y0058881D01*
X0068196Y0058881D01*
X0068030Y0058827D01*
X0068006Y0058820D01*
X0067835Y0058784D01*
X0067835Y0058784D01*
X0067785Y0058762D01*
X0067713Y0058736D01*
X0067660Y0058722D01*
X0067610Y0058697D01*
X0067540Y0058667D01*
X0067487Y0058650D01*
X0067487Y0058650D01*
X0067487Y0058650D01*
X0067486Y0058650D01*
X0067464Y0058640D01*
X0067462Y0058643D01*
X0067243Y0058585D01*
X0064864Y0058585D01*
X0064600Y0058662D01*
X0064519Y0058728D01*
X0064376Y0058871D01*
X0064074Y0059082D01*
X0063662Y0059371D01*
X0063342Y0059520D01*
X0063174Y0059598D01*
X0062968Y0059780D01*
X0062893Y0060044D01*
X0062972Y0060308D01*
X0063174Y0060483D01*
X0063661Y0060710D01*
X0063661Y0060710D01*
X0063919Y0060890D01*
X0061718Y0063091D01*
X0061733Y0063093D01*
X0062258Y0063333D01*
X0062694Y0063711D01*
X0063007Y0064197D01*
X0063095Y0064498D01*
X0065311Y0062282D01*
X0065491Y0062540D01*
X0065859Y0063329D01*
X0065859Y0063330D01*
X0066085Y0064171D01*
X0066085Y0064171D01*
X0066161Y0065039D01*
X0066161Y0065039D01*
X0066085Y0065907D01*
X0066085Y0065908D01*
X0065859Y0066749D01*
X0065859Y0066749D01*
X0065491Y0067539D01*
X0065491Y0067539D01*
X0065311Y0067797D01*
X0065311Y0067797D01*
X0063095Y0065581D01*
X0063007Y0065882D01*
X0062694Y0066368D01*
X0062258Y0066746D01*
X0061733Y0066986D01*
X0061718Y0066988D01*
X0063919Y0069189D01*
X0063917Y0069206D01*
X0063775Y0069384D01*
X0063747Y0069657D01*
X0063871Y0069903D01*
X0064108Y0070042D01*
X0064227Y0070057D01*
X0064362Y0070057D01*
X0064596Y0070082D01*
X0065127Y0070280D01*
X0065581Y0070620D01*
X0065920Y0071074D01*
X0066118Y0071604D01*
X0066144Y0071839D01*
X0066144Y0078240D01*
X0066118Y0078474D01*
X0065971Y0078871D01*
X0065920Y0079005D01*
X0065920Y0079005D01*
X0065581Y0079459D01*
X0065581Y0079459D01*
X0065127Y0079798D01*
X0065127Y0079798D01*
X0064596Y0079996D01*
X0064596Y0079996D01*
X0064362Y0080022D01*
X0064362Y0080022D01*
X0064362Y0080022D01*
X0064362Y0080022D01*
X0057961Y0080022D01*
X0057961Y0080022D01*
X0057726Y0079996D01*
X0057196Y0079798D01*
X0057196Y0079798D01*
X0056742Y0079459D01*
X0056742Y0079459D01*
X0056402Y0079005D01*
X0056402Y0079005D01*
X0056204Y0078474D01*
X0056181Y0078254D01*
X0056179Y0078240D01*
X0056179Y0078240D01*
X0056179Y0071839D01*
X0056179Y0071839D01*
X0056204Y0071604D01*
X0056402Y0071074D01*
X0056402Y0071073D01*
X0056742Y0070620D01*
X0056742Y0070620D01*
X0057196Y0070280D01*
X0057196Y0070280D01*
X0057726Y0070082D01*
X0057726Y0070082D01*
X0057754Y0070079D01*
X0057961Y0070057D01*
X0058096Y0070057D01*
X0058360Y0069980D01*
X0058540Y0069772D01*
X0058579Y0069499D01*
X0058465Y0069249D01*
X0058405Y0069195D01*
X0058404Y0069189D01*
X0060605Y0066988D01*
X0060590Y0066986D01*
X0060065Y0066746D01*
X0059628Y0066368D01*
X0059316Y0065882D01*
X0059228Y0065581D01*
X0057012Y0067797D01*
X0056832Y0067539D01*
X0056464Y0066749D01*
X0056464Y0066749D01*
X0056238Y0065908D01*
X0056238Y0065907D01*
X0056162Y0065039D01*
X0056162Y0065039D01*
X0056238Y0064171D01*
X0056238Y0064171D01*
X0056464Y0063330D01*
X0056464Y0063329D01*
X0056832Y0062540D01*
X0057012Y0062282D01*
X0057012Y0062282D01*
X0059228Y0064498D01*
X0059316Y0064197D01*
X0059628Y0063711D01*
X0060065Y0063333D01*
X0060590Y0063093D01*
X0060605Y0063091D01*
X0058404Y0060890D01*
X0058662Y0060710D01*
X0058662Y0060710D01*
X0059148Y0060483D01*
X0059355Y0060301D01*
X0059430Y0060037D01*
X0059351Y0059773D01*
X0059148Y0059598D01*
X0058661Y0059371D01*
X0057947Y0058871D01*
X0057330Y0058254D01*
X0056830Y0057540D01*
X0056830Y0057540D01*
X0056462Y0056750D01*
X0056462Y0056750D01*
X0056236Y0055908D01*
X0056236Y0055908D01*
X0056160Y0055039D01*
X0056160Y0055039D01*
X0056236Y0054171D01*
X0056236Y0054171D01*
X0056462Y0053329D01*
X0056462Y0053329D01*
X0056696Y0052825D01*
X0056830Y0052539D01*
X0057330Y0051825D01*
X0057947Y0051208D01*
X0058661Y0050708D01*
X0058847Y0050621D01*
X0059146Y0050482D01*
X0059352Y0050300D01*
X0059428Y0050036D01*
X0059348Y0049772D01*
X0059146Y0049597D01*
X0058661Y0049371D01*
X0058661Y0049371D01*
X0057947Y0048871D01*
X0057330Y0048254D01*
X0056830Y0047540D01*
X0056830Y0047540D01*
X0056462Y0046750D01*
X0056462Y0046750D01*
X0056236Y0045908D01*
X0056236Y0045908D01*
X0056160Y0045039D01*
X0056160Y0045039D01*
X0056236Y0044171D01*
X0056236Y0044171D01*
X0056462Y0043329D01*
X0056462Y0043329D01*
X0056659Y0042905D01*
X0056830Y0042539D01*
X0057330Y0041825D01*
X0057947Y0041208D01*
X0058661Y0040708D01*
X0058905Y0040594D01*
X0059146Y0040482D01*
X0059352Y0040300D01*
X0059428Y0040036D01*
X0059348Y0039772D01*
X0059146Y0039597D01*
X0058661Y0039371D01*
X0058661Y0039371D01*
X0057947Y0038871D01*
X0057330Y0038254D01*
X0056830Y0037540D01*
X0056830Y0037540D01*
X0056462Y0036750D01*
X0056462Y0036750D01*
X0056236Y0035908D01*
X0056236Y0035908D01*
X0056160Y0035039D01*
X0056160Y0035039D01*
X0056236Y0034171D01*
X0056236Y0034171D01*
X0056462Y0033329D01*
X0056462Y0033329D01*
X0056819Y0032563D01*
X0056830Y0032539D01*
X0057330Y0031825D01*
X0057947Y0031208D01*
X0058661Y0030708D01*
X0058905Y0030594D01*
X0059146Y0030482D01*
X0059352Y0030300D01*
X0059428Y0030036D01*
X0059348Y0029772D01*
X0059146Y0029597D01*
X0058661Y0029371D01*
X0058661Y0029371D01*
X0057947Y0028871D01*
X0057330Y0028254D01*
X0056830Y0027540D01*
X0056830Y0027540D01*
X0056462Y0026750D01*
X0056462Y0026750D01*
X0056236Y0025908D01*
X0056236Y0025908D01*
X0056160Y0025039D01*
X0056160Y0025039D01*
X0056236Y0024171D01*
X0056236Y0024171D01*
X0056462Y0023329D01*
X0056462Y0023329D01*
X0056819Y0022563D01*
X0056830Y0022539D01*
X0057330Y0021825D01*
X0057947Y0021208D01*
X0058661Y0020708D01*
X0058905Y0020594D01*
X0059146Y0020482D01*
X0059352Y0020300D01*
X0059428Y0020036D01*
X0059348Y0019772D01*
X0059146Y0019597D01*
X0058661Y0019371D01*
X0058661Y0019371D01*
X0057947Y0018871D01*
X0057330Y0018254D01*
X0056830Y0017540D01*
X0056830Y0017540D01*
X0056462Y0016750D01*
X0056462Y0016750D01*
X0056236Y0015908D01*
X0056236Y0015908D01*
X0056160Y0015039D01*
X0056160Y0015039D01*
X0056236Y0014171D01*
X0056236Y0014171D01*
X0056462Y0013329D01*
X0056462Y0013329D01*
X0056583Y0013069D01*
X0056830Y0012539D01*
X0057330Y0011825D01*
X0057947Y0011208D01*
X0058661Y0010708D01*
X0059148Y0010481D01*
X0059355Y0010299D01*
X0059430Y0010034D01*
X0059351Y0009771D01*
X0059148Y0009596D01*
X0058662Y0009369D01*
X0058404Y0009189D01*
X0060605Y0006988D01*
X0060590Y0006986D01*
X0060065Y0006746D01*
X0059628Y0006368D01*
X0059316Y0005882D01*
X0059228Y0005581D01*
X0057012Y0007797D01*
X0056832Y0007539D01*
X0056464Y0006749D01*
X0056464Y0006749D01*
X0056238Y0005908D01*
X0056238Y0005907D01*
X0056162Y0005039D01*
X0056162Y0005039D01*
X0056238Y0004171D01*
X0056238Y0004171D01*
X0056464Y0003330D01*
X0056464Y0003329D01*
X0056832Y0002540D01*
X0057012Y0002282D01*
X0057012Y0002282D01*
X0059228Y0004498D01*
X0059316Y0004197D01*
X0059628Y0003711D01*
X0060065Y0003333D01*
X0060590Y0003093D01*
X0060605Y0003091D01*
X0058404Y0000890D01*
X0058406Y0000873D01*
X0058548Y0000695D01*
X0058576Y0000421D01*
X0058452Y0000176D01*
X0058215Y0000036D01*
X0058096Y0000022D01*
X0056141Y0000022D01*
X0000490Y0000002D01*
X0000226Y0000080D01*
X0000046Y0000287D01*
X0000002Y0000490D01*
X0000002Y0017795D01*
X0015549Y0017795D01*
X0015629Y0016923D01*
X0015629Y0016923D01*
X0015869Y0016081D01*
X0015869Y0016081D01*
X0016260Y0015297D01*
X0016260Y0015296D01*
X0016787Y0014597D01*
X0017435Y0014007D01*
X0017435Y0014007D01*
X0018180Y0013546D01*
X0018180Y0013546D01*
X0018180Y0013546D01*
X0018996Y0013230D01*
X0019857Y0013069D01*
X0019857Y0013069D01*
X0020733Y0013069D01*
X0020733Y0013069D01*
X0021594Y0013230D01*
X0022411Y0013546D01*
X0023156Y0014007D01*
X0023803Y0014597D01*
X0024331Y0015297D01*
X0024721Y0016081D01*
X0024961Y0016923D01*
X0025042Y0017795D01*
X0024961Y0018667D01*
X0024721Y0019510D01*
X0024721Y0019510D01*
X0024331Y0020294D01*
X0024331Y0020294D01*
X0023803Y0020993D01*
X0023156Y0021583D01*
X0023156Y0021583D01*
X0022411Y0022044D01*
X0022411Y0022044D01*
X0022311Y0022083D01*
X0021594Y0022361D01*
X0020733Y0022522D01*
X0019857Y0022522D01*
X0018996Y0022361D01*
X0018480Y0022161D01*
X0018180Y0022044D01*
X0018180Y0022044D01*
X0017435Y0021583D01*
X0017435Y0021583D01*
X0016787Y0020993D01*
X0016260Y0020294D01*
X0016260Y0020294D01*
X0015869Y0019510D01*
X0015869Y0019510D01*
X0015629Y0018667D01*
X0015629Y0018667D01*
X0015549Y0017795D01*
X0015549Y0017795D01*
X0000002Y0017795D01*
X0000002Y0046693D01*
X0015667Y0046693D01*
X0015748Y0045821D01*
X0015748Y0045821D01*
X0015987Y0044978D01*
X0015987Y0044978D01*
X0016378Y0044194D01*
X0016378Y0044194D01*
X0016906Y0043495D01*
X0017553Y0042905D01*
X0017553Y0042905D01*
X0018298Y0042444D01*
X0018298Y0042444D01*
X0018298Y0042444D01*
X0019114Y0042127D01*
X0019975Y0041967D01*
X0019975Y0041967D01*
X0020851Y0041967D01*
X0020851Y0041967D01*
X0021712Y0042127D01*
X0022529Y0042444D01*
X0023274Y0042905D01*
X0023921Y0043495D01*
X0024449Y0044194D01*
X0024839Y0044978D01*
X0025079Y0045821D01*
X0025160Y0046693D01*
X0025079Y0047565D01*
X0024839Y0048408D01*
X0024459Y0049171D01*
X0024449Y0049192D01*
X0024449Y0049192D01*
X0023921Y0049891D01*
X0023274Y0050481D01*
X0023274Y0050481D01*
X0022529Y0050942D01*
X0022529Y0050942D01*
X0021712Y0051258D01*
X0020851Y0051419D01*
X0019975Y0051419D01*
X0019114Y0051258D01*
X0018985Y0051208D01*
X0018298Y0050942D01*
X0018298Y0050942D01*
X0017553Y0050481D01*
X0017553Y0050481D01*
X0016906Y0049891D01*
X0016378Y0049192D01*
X0016378Y0049192D01*
X0015987Y0048408D01*
X0015987Y0048408D01*
X0015748Y0047565D01*
X0015748Y0047565D01*
X0015667Y0046693D01*
X0015667Y0046693D01*
X0000002Y0046693D01*
X0000002Y0092283D01*
X0057320Y0092283D01*
X0057401Y0091411D01*
X0057401Y0091411D01*
X0057641Y0090569D01*
X0057641Y0090569D01*
X0058031Y0089785D01*
X0058031Y0089785D01*
X0058559Y0089086D01*
X0059206Y0088496D01*
X0059206Y0088496D01*
X0059951Y0088034D01*
X0059951Y0088034D01*
X0059951Y0088034D01*
X0060768Y0087718D01*
X0061629Y0087557D01*
X0061629Y0087557D01*
X0062505Y0087557D01*
X0062505Y0087557D01*
X0063366Y0087718D01*
X0064183Y0088034D01*
X0064927Y0088496D01*
X0065575Y0089086D01*
X0066103Y0089785D01*
X0066493Y0090569D01*
X0066733Y0091411D01*
X0066814Y0092283D01*
X0066733Y0093156D01*
X0066493Y0093998D01*
X0066493Y0093998D01*
X0066103Y0094782D01*
X0066103Y0094782D01*
X0065575Y0095481D01*
X0064927Y0096071D01*
X0064927Y0096071D01*
X0064183Y0096532D01*
X0064183Y0096532D01*
X0063366Y0096849D01*
X0062505Y0097010D01*
X0061629Y0097010D01*
X0060768Y0096849D01*
X0060251Y0096649D01*
X0059951Y0096532D01*
X0059951Y0096532D01*
X0059206Y0096071D01*
X0059206Y0096071D01*
X0058559Y0095481D01*
X0058031Y0094782D01*
X0058031Y0094782D01*
X0057641Y0093998D01*
X0057641Y0093998D01*
X0057401Y0093156D01*
X0057401Y0093156D01*
X0057320Y0092283D01*
X0057320Y0092283D01*
X0000002Y0092283D01*
X0000002Y0104547D01*
X0024761Y0104547D01*
X0024842Y0103675D01*
X0024842Y0103675D01*
X0025082Y0102833D01*
X0025082Y0102833D01*
X0025472Y0102048D01*
X0025472Y0102048D01*
X0026000Y0101349D01*
X0026647Y0100759D01*
X0026647Y0100759D01*
X0027392Y0100298D01*
X0027392Y0100298D01*
X0027392Y0100298D01*
X0028209Y0099982D01*
X0029070Y0099821D01*
X0029070Y0099821D01*
X0029946Y0099821D01*
X0029946Y0099821D01*
X0030807Y0099982D01*
X0031624Y0100298D01*
X0032368Y0100759D01*
X0033016Y0101349D01*
X0033350Y0101792D01*
X0033571Y0101956D01*
X0033740Y0101986D01*
X0037625Y0101986D01*
X0037889Y0101909D01*
X0038069Y0101701D01*
X0038110Y0101443D01*
X0038029Y0100728D01*
X0038029Y0100728D01*
X0038109Y0100023D01*
X0038109Y0100023D01*
X0038343Y0099352D01*
X0038721Y0098751D01*
X0039223Y0098249D01*
X0039825Y0097871D01*
X0040495Y0097636D01*
X0040495Y0097636D01*
X0041201Y0097557D01*
X0041201Y0097557D01*
X0041201Y0097557D01*
X0041906Y0097636D01*
X0041907Y0097636D01*
X0041907Y0097636D01*
X0042577Y0097871D01*
X0043178Y0098249D01*
X0043178Y0098249D01*
X0043192Y0098260D01*
X0043446Y0098364D01*
X0043496Y0098366D01*
X0073157Y0098366D01*
X0073421Y0098289D01*
X0073462Y0098260D01*
X0073475Y0098249D01*
X0073475Y0098249D01*
X0074077Y0097871D01*
X0074747Y0097636D01*
X0074747Y0097636D01*
X0075453Y0097557D01*
X0075453Y0097557D01*
X0075453Y0097557D01*
X0076158Y0097636D01*
X0076158Y0097636D01*
X0076158Y0097636D01*
X0076829Y0097871D01*
X0077430Y0098249D01*
X0077932Y0098751D01*
X0078310Y0099352D01*
X0078545Y0100023D01*
X0078624Y0100728D01*
X0078621Y0100759D01*
X0078545Y0101434D01*
X0078545Y0101434D01*
X0078310Y0102104D01*
X0077932Y0102706D01*
X0077430Y0103208D01*
X0076829Y0103586D01*
X0076829Y0103586D01*
X0076624Y0103657D01*
X0076567Y0103677D01*
X0076344Y0103838D01*
X0076242Y0104093D01*
X0076240Y0104138D01*
X0076240Y0104799D01*
X0076318Y0105063D01*
X0076526Y0105243D01*
X0076567Y0105260D01*
X0076829Y0105351D01*
X0077181Y0105573D01*
X0077441Y0105648D01*
X0082511Y0105648D01*
X0082775Y0105570D01*
X0082901Y0105454D01*
X0083087Y0105208D01*
X0083087Y0105208D01*
X0083734Y0104618D01*
X0083734Y0104618D01*
X0084479Y0104157D01*
X0084479Y0104157D01*
X0084479Y0104157D01*
X0085296Y0103840D01*
X0086157Y0103679D01*
X0086157Y0103679D01*
X0087032Y0103679D01*
X0087032Y0103679D01*
X0087893Y0103840D01*
X0088710Y0104157D01*
X0089455Y0104618D01*
X0090102Y0105208D01*
X0090630Y0105907D01*
X0091021Y0106691D01*
X0091260Y0107533D01*
X0091341Y0108406D01*
X0091305Y0108796D01*
X0091260Y0109278D01*
X0091260Y0109278D01*
X0091021Y0110120D01*
X0091021Y0110120D01*
X0091021Y0110120D01*
X0090630Y0110904D01*
X0090630Y0110904D01*
X0090102Y0111603D01*
X0089455Y0112193D01*
X0089455Y0112193D01*
X0088710Y0112655D01*
X0088710Y0112655D01*
X0087893Y0112971D01*
X0087032Y0113132D01*
X0086157Y0113132D01*
X0085296Y0112971D01*
X0084779Y0112771D01*
X0084479Y0112655D01*
X0084479Y0112655D01*
X0083734Y0112193D01*
X0083734Y0112193D01*
X0083087Y0111603D01*
X0082604Y0110964D01*
X0082383Y0110800D01*
X0082214Y0110770D01*
X0077441Y0110770D01*
X0077181Y0110845D01*
X0076829Y0111066D01*
X0076829Y0111066D01*
X0076159Y0111301D01*
X0076158Y0111301D01*
X0075453Y0111380D01*
X0075453Y0111380D01*
X0074747Y0111301D01*
X0074747Y0111301D01*
X0074077Y0111066D01*
X0073475Y0110688D01*
X0073462Y0110677D01*
X0073207Y0110573D01*
X0073157Y0110571D01*
X0040413Y0110571D01*
X0040413Y0107681D01*
X0040336Y0107418D01*
X0040128Y0107237D01*
X0040086Y0107221D01*
X0039844Y0107136D01*
X0039682Y0107108D01*
X0033740Y0107108D01*
X0033476Y0107186D01*
X0033350Y0107302D01*
X0033176Y0107533D01*
X0033016Y0107745D01*
X0033016Y0107745D01*
X0033016Y0107745D01*
X0032368Y0108335D01*
X0032368Y0108335D01*
X0031624Y0108796D01*
X0031624Y0108796D01*
X0030807Y0109113D01*
X0029946Y0109274D01*
X0029070Y0109274D01*
X0028209Y0109113D01*
X0027692Y0108913D01*
X0027392Y0108796D01*
X0027392Y0108796D01*
X0026647Y0108335D01*
X0026647Y0108335D01*
X0026000Y0107745D01*
X0025472Y0107046D01*
X0025472Y0107046D01*
X0025082Y0106262D01*
X0025082Y0106262D01*
X0024842Y0105419D01*
X0024842Y0105419D01*
X0024761Y0104547D01*
X0024761Y0104547D01*
X0000002Y0104547D01*
X0000002Y0119035D01*
X0024761Y0119035D01*
X0024842Y0118163D01*
X0024842Y0118163D01*
X0025082Y0117321D01*
X0025082Y0117321D01*
X0025472Y0116537D01*
X0025472Y0116537D01*
X0026000Y0115838D01*
X0026647Y0115248D01*
X0026647Y0115248D01*
X0027392Y0114786D01*
X0027392Y0114786D01*
X0027392Y0114786D01*
X0028209Y0114470D01*
X0029070Y0114309D01*
X0029070Y0114309D01*
X0029946Y0114309D01*
X0029946Y0114309D01*
X0030807Y0114470D01*
X0031624Y0114786D01*
X0032368Y0115248D01*
X0032701Y0115551D01*
X0037734Y0115551D01*
X0037814Y0114845D01*
X0037814Y0114845D01*
X0038048Y0114175D01*
X0038426Y0113574D01*
X0038928Y0113072D01*
X0039529Y0112694D01*
X0040200Y0112459D01*
X0040200Y0112459D01*
X0040905Y0112380D01*
X0040906Y0112380D01*
X0040906Y0112380D01*
X0041611Y0112459D01*
X0041611Y0112459D01*
X0041611Y0112459D01*
X0042282Y0112694D01*
X0042883Y0113072D01*
X0042883Y0113072D01*
X0042897Y0113082D01*
X0043151Y0113186D01*
X0043201Y0113189D01*
X0072862Y0113189D01*
X0073126Y0113111D01*
X0073166Y0113082D01*
X0073180Y0113072D01*
X0073180Y0113072D01*
X0073781Y0112694D01*
X0074452Y0112459D01*
X0074452Y0112459D01*
X0075157Y0112380D01*
X0075157Y0112380D01*
X0075157Y0112380D01*
X0075863Y0112459D01*
X0075863Y0112459D01*
X0075863Y0112459D01*
X0076534Y0112694D01*
X0077135Y0113072D01*
X0077637Y0113574D01*
X0078015Y0114175D01*
X0078249Y0114845D01*
X0078295Y0115248D01*
X0078329Y0115551D01*
X0078329Y0115551D01*
X0078249Y0116257D01*
X0078249Y0116257D01*
X0078152Y0116537D01*
X0078015Y0116927D01*
X0077637Y0117529D01*
X0077135Y0118031D01*
X0076565Y0118389D01*
X0076534Y0118409D01*
X0076534Y0118409D01*
X0076272Y0118500D01*
X0076048Y0118661D01*
X0075947Y0118916D01*
X0075945Y0118961D01*
X0075945Y0119622D01*
X0076022Y0119886D01*
X0076230Y0120066D01*
X0076272Y0120082D01*
X0076302Y0120093D01*
X0076534Y0120174D01*
X0077135Y0120552D01*
X0077637Y0121054D01*
X0078015Y0121655D01*
X0078249Y0122326D01*
X0078277Y0122573D01*
X0078329Y0123031D01*
X0078329Y0123032D01*
X0078282Y0123445D01*
X0081848Y0123445D01*
X0081929Y0122573D01*
X0081929Y0122573D01*
X0082168Y0121730D01*
X0082168Y0121730D01*
X0082559Y0120946D01*
X0082559Y0120946D01*
X0083087Y0120247D01*
X0083734Y0119657D01*
X0083734Y0119657D01*
X0084479Y0119196D01*
X0084479Y0119196D01*
X0084479Y0119196D01*
X0085296Y0118879D01*
X0086157Y0118719D01*
X0086157Y0118719D01*
X0087032Y0118719D01*
X0087032Y0118719D01*
X0087893Y0118879D01*
X0088710Y0119196D01*
X0089455Y0119657D01*
X0090102Y0120247D01*
X0090630Y0120946D01*
X0091021Y0121730D01*
X0091260Y0122573D01*
X0091341Y0123445D01*
X0091260Y0124317D01*
X0091021Y0125160D01*
X0091021Y0125160D01*
X0090630Y0125944D01*
X0090630Y0125944D01*
X0090102Y0126643D01*
X0089455Y0127233D01*
X0089455Y0127233D01*
X0088710Y0127694D01*
X0088710Y0127694D01*
X0087893Y0128010D01*
X0087032Y0128171D01*
X0086157Y0128171D01*
X0085296Y0128010D01*
X0084779Y0127810D01*
X0084479Y0127694D01*
X0084479Y0127694D01*
X0083734Y0127233D01*
X0083734Y0127233D01*
X0083087Y0126643D01*
X0082559Y0125944D01*
X0082559Y0125944D01*
X0082168Y0125160D01*
X0082168Y0125160D01*
X0081929Y0124317D01*
X0081929Y0124317D01*
X0081848Y0123445D01*
X0081848Y0123445D01*
X0078282Y0123445D01*
X0078249Y0123737D01*
X0078249Y0123737D01*
X0078015Y0124408D01*
X0077637Y0125009D01*
X0077135Y0125511D01*
X0076534Y0125889D01*
X0075863Y0126124D01*
X0075863Y0126124D01*
X0075157Y0126203D01*
X0075157Y0126203D01*
X0074452Y0126124D01*
X0074452Y0126124D01*
X0073781Y0125889D01*
X0073180Y0125511D01*
X0073166Y0125500D01*
X0072912Y0125396D01*
X0072862Y0125394D01*
X0040118Y0125394D01*
X0040118Y0122504D01*
X0040041Y0122240D01*
X0039833Y0122060D01*
X0039791Y0122044D01*
X0039529Y0121952D01*
X0039529Y0121952D01*
X0038928Y0121574D01*
X0038426Y0121072D01*
X0038048Y0120471D01*
X0037814Y0119800D01*
X0037814Y0119800D01*
X0037734Y0119095D01*
X0037734Y0119094D01*
X0037814Y0118389D01*
X0037814Y0118389D01*
X0038048Y0117718D01*
X0038133Y0117583D01*
X0038208Y0117318D01*
X0038133Y0117063D01*
X0038048Y0116927D01*
X0037814Y0116257D01*
X0037814Y0116257D01*
X0037734Y0115551D01*
X0037734Y0115551D01*
X0032701Y0115551D01*
X0033016Y0115838D01*
X0033544Y0116537D01*
X0033934Y0117321D01*
X0034174Y0118163D01*
X0034254Y0119035D01*
X0034174Y0119908D01*
X0033934Y0120750D01*
X0033783Y0121054D01*
X0033544Y0121534D01*
X0033544Y0121534D01*
X0033016Y0122233D01*
X0032368Y0122823D01*
X0032368Y0122823D01*
X0031624Y0123284D01*
X0031624Y0123284D01*
X0030807Y0123601D01*
X0029946Y0123762D01*
X0029070Y0123762D01*
X0028209Y0123601D01*
X0027692Y0123401D01*
X0027392Y0123284D01*
X0027392Y0123284D01*
X0026647Y0122823D01*
X0026647Y0122823D01*
X0026000Y0122233D01*
X0025472Y0121534D01*
X0025472Y0121534D01*
X0025082Y0120750D01*
X0025082Y0120750D01*
X0024842Y0119908D01*
X0024842Y0119908D01*
X0024761Y0119035D01*
X0024761Y0119035D01*
X0000002Y0119035D01*
X0000002Y0133093D01*
X0000079Y0133356D01*
X0000287Y0133537D01*
X0000490Y0133581D01*
X0115809Y0133581D01*
X0116073Y0133503D01*
G37*
X0039724Y0125787D02*
G01*
G75*
G36*
X0074944Y0113385D02*
X0074312Y0113511D01*
X0073817Y0113842D01*
X0073298Y0114115D01*
X0073031Y0113936D01*
X0072716Y0113874D01*
X0067441Y0113874D01*
X0067126Y0113936D01*
X0066859Y0114115D01*
X0066238Y0113981D01*
X0066075Y0113873D01*
X0065384Y0113735D01*
X0064693Y0113873D01*
X0064582Y0113947D01*
X0064567Y0113936D01*
X0064252Y0113874D01*
X0058976Y0113874D01*
X0058661Y0113936D01*
X0058394Y0114115D01*
X0058349Y0114182D01*
X0058331Y0114189D01*
X0057711Y0114189D01*
X0057693Y0114182D01*
X0057648Y0114115D01*
X0057382Y0113936D01*
X0057067Y0113874D01*
X0051791Y0113874D01*
X0051476Y0113936D01*
X0051209Y0114115D01*
X0051031Y0114382D01*
X0050968Y0114697D01*
X0050968Y0116429D01*
X0051031Y0116744D01*
X0051209Y0117011D01*
X0051476Y0117189D01*
X0051791Y0117252D01*
X0053936Y0117252D01*
X0054311Y0117708D01*
X0054291Y0117809D01*
X0054428Y0118500D01*
X0054820Y0119086D01*
X0055406Y0119478D01*
X0056097Y0119615D01*
X0056788Y0119478D01*
X0057161Y0119229D01*
X0057752Y0119503D01*
X0057752Y0120169D01*
X0057845Y0120638D01*
X0058089Y0121003D01*
X0057995Y0121243D01*
X0057954Y0121318D01*
X0057490Y0121489D01*
X0057382Y0121417D01*
X0057067Y0121354D01*
X0051791Y0121354D01*
X0051502Y0121411D01*
X0051281Y0121264D01*
X0050590Y0121126D01*
X0050044Y0121235D01*
X0049703Y0120858D01*
X0049654Y0120756D01*
X0049733Y0120638D01*
X0049826Y0120169D01*
X0049826Y0120090D01*
X0045964Y0120090D01*
X0045964Y0118516D01*
X0049826Y0118516D01*
X0049826Y0118437D01*
X0049733Y0117968D01*
X0049468Y0117571D01*
X0049438Y0117551D01*
X0049390Y0117449D01*
X0049325Y0116800D01*
X0049362Y0116744D01*
X0049425Y0116429D01*
X0049425Y0114697D01*
X0049362Y0114382D01*
X0049184Y0114115D01*
X0048917Y0113936D01*
X0048602Y0113874D01*
X0043326Y0113874D01*
X0043012Y0113936D01*
X0042466Y0113990D01*
X0041750Y0113511D01*
X0041118Y0113385D01*
X0041177Y0112795D01*
X0074886Y0112795D01*
X0074944Y0113385D01*
D02*
G37*
G36*
X0073827Y0117266D02*
X0074312Y0117591D01*
X0075157Y0117759D01*
X0075157Y0120823D01*
X0074312Y0120991D01*
X0073823Y0121318D01*
X0073298Y0121595D01*
X0073031Y0121417D01*
X0072716Y0121354D01*
X0067441Y0121354D01*
X0067126Y0121417D01*
X0066859Y0121595D01*
X0066680Y0121862D01*
X0066645Y0122039D01*
X0065468Y0122039D01*
X0065120Y0121604D01*
X0065117Y0121035D01*
X0065383Y0120638D01*
X0065476Y0120169D01*
X0065476Y0120090D01*
X0061614Y0120090D01*
X0061614Y0118516D01*
X0065476Y0118516D01*
X0065476Y0118437D01*
X0065383Y0117968D01*
X0065345Y0117912D01*
X0065348Y0117865D01*
X0065644Y0117296D01*
X0066075Y0117210D01*
X0066218Y0117115D01*
X0066859Y0117011D01*
X0067126Y0117189D01*
X0067441Y0117252D01*
X0072716Y0117252D01*
X0073031Y0117189D01*
X0073298Y0117011D01*
X0073827Y0117266D01*
D02*
G37*
G36*
X0040772Y0121482D02*
X0040675Y0121969D01*
X0040813Y0122660D01*
X0041204Y0123246D01*
X0041790Y0123638D01*
X0042481Y0123775D01*
X0042503Y0123793D01*
X0042503Y0123909D01*
X0042566Y0124224D01*
X0042745Y0124491D01*
X0043011Y0124669D01*
X0043326Y0124732D01*
X0048602Y0124732D01*
X0048917Y0124669D01*
X0049184Y0124491D01*
X0049607Y0124407D01*
X0049899Y0124602D01*
X0050590Y0124739D01*
X0051281Y0124602D01*
X0051328Y0124571D01*
X0051476Y0124669D01*
X0051791Y0124732D01*
X0057067Y0124732D01*
X0057382Y0124669D01*
X0057648Y0124491D01*
X0057693Y0124424D01*
X0057711Y0124417D01*
X0058331Y0124417D01*
X0058349Y0124424D01*
X0058394Y0124491D01*
X0058661Y0124669D01*
X0058976Y0124732D01*
X0064252Y0124732D01*
X0064567Y0124669D01*
X0064833Y0124491D01*
X0065012Y0124224D01*
X0065047Y0124047D01*
X0066645Y0124047D01*
X0066680Y0124224D01*
X0066859Y0124491D01*
X0067126Y0124669D01*
X0067441Y0124732D01*
X0072716Y0124732D01*
X0073031Y0124669D01*
X0073298Y0124491D01*
X0073834Y0124751D01*
X0074312Y0125071D01*
X0074944Y0125196D01*
X0074886Y0125787D01*
X0039724Y0125787D01*
X0039724Y0121565D01*
X0040217Y0121248D01*
X0040772Y0121482D01*
D02*
G37*
D26*
X0050590Y0122933D02*
X0050645Y0122988D01*
X0054279Y0122988D01*
X0054335Y0123043D01*
X0063964Y0115697D02*
X0063964Y0115662D01*
X0065373Y0115552D02*
X0065384Y0115541D01*
X0063964Y0115662D02*
X0064074Y0115552D01*
X0065373Y0115552D01*
X0042481Y0121969D02*
X0042908Y0121969D01*
X0043293Y0122354D01*
X0045181Y0122354D01*
X0045870Y0123043D01*
X0061614Y0123043D02*
X0068307Y0123043D01*
X0070463Y0122658D02*
X0074317Y0122658D01*
X0070078Y0123043D02*
X0070463Y0122658D01*
X0074317Y0122658D02*
X0074731Y0122244D01*
X0075157Y0122244D01*
X0045559Y0115157D02*
X0045964Y0115563D01*
X0040905Y0115157D02*
X0045559Y0115157D01*
D42*
X0054429Y0115563D02*
D03*
X0054429Y0123043D02*
D03*
X0045964Y0123043D02*
D03*
X0045964Y0119303D02*
D03*
X0070078Y0115563D02*
D03*
X0070078Y0123043D02*
D03*
X0061614Y0123043D02*
D03*
X0061614Y0119303D02*
D03*
D42*
X0045964Y0115563D02*
D03*
X0061614Y0115563D02*
D03*
D17*
X0058031Y0113189D02*
D03*
X0058031Y0125393D02*
D03*
D16*
X0040118Y0123326D02*
D03*
D29*
X0057625Y0120167D02*
X0057898Y0119893D01*
X0061023Y0119893D01*
X0061614Y0119303D01*
X0053894Y0120167D02*
X0057625Y0120167D01*
X0053666Y0119940D02*
X0053894Y0120167D01*
X0046302Y0119747D02*
X0046955Y0119094D01*
X0045929Y0119747D02*
X0046302Y0119747D01*
D30*
X0056056Y0117768D02*
X0056056Y0115871D01*
X0056056Y0117768D02*
X0056097Y0117809D01*
D31*
X0070084Y0115557D02*
X0075151Y0115557D01*
X0075157Y0115551D01*
X0070078Y0115563D02*
X0070084Y0115557D01*
D15*
X0075157Y0115551D02*
D03*
X0075157Y0119291D02*
D03*
X0075157Y0123031D02*
D03*
X0040905Y0119094D02*
D03*
X0040905Y0115551D02*
D03*
X0050590Y0122933D02*
D03*
X0065384Y0115541D02*
D03*
X0056097Y0117809D02*
D03*
X0042481Y0121969D02*
D03*
X0040964Y0124502D02*
D03*
X0053666Y0119940D02*
D03*
X0050927Y0118884D02*
D03*
X0040020Y0110965D02*
G01*
G75*
G36*
X0075240Y0098563D02*
X0074608Y0098689D01*
X0074113Y0099020D01*
X0073594Y0099293D01*
X0073327Y0099114D01*
X0073012Y0099052D01*
X0067737Y0099052D01*
X0067422Y0099114D01*
X0067155Y0099293D01*
X0066534Y0099159D01*
X0066371Y0099051D01*
X0065680Y0098913D01*
X0064989Y0099051D01*
X0064878Y0099125D01*
X0064863Y0099114D01*
X0064548Y0099052D01*
X0059272Y0099052D01*
X0058957Y0099114D01*
X0058690Y0099293D01*
X0058645Y0099360D01*
X0058627Y0099367D01*
X0058007Y0099367D01*
X0057989Y0099360D01*
X0057944Y0099293D01*
X0057678Y0099114D01*
X0057363Y0099052D01*
X0052087Y0099052D01*
X0051772Y0099114D01*
X0051505Y0099293D01*
X0051327Y0099560D01*
X0051264Y0099875D01*
X0051264Y0101607D01*
X0051327Y0101922D01*
X0051505Y0102189D01*
X0051772Y0102367D01*
X0052087Y0102430D01*
X0054232Y0102430D01*
X0054607Y0102886D01*
X0054587Y0102987D01*
X0054724Y0103678D01*
X0055116Y0104264D01*
X0055702Y0104656D01*
X0056393Y0104793D01*
X0057084Y0104656D01*
X0057457Y0104407D01*
X0058048Y0104681D01*
X0058048Y0105347D01*
X0058141Y0105816D01*
X0058385Y0106181D01*
X0058291Y0106421D01*
X0058250Y0106496D01*
X0057786Y0106667D01*
X0057678Y0106595D01*
X0057363Y0106532D01*
X0052087Y0106532D01*
X0051798Y0106589D01*
X0051577Y0106442D01*
X0050886Y0106304D01*
X0050340Y0106413D01*
X0049999Y0106036D01*
X0049950Y0105934D01*
X0050029Y0105816D01*
X0050122Y0105347D01*
X0050122Y0105268D01*
X0046260Y0105268D01*
X0046260Y0103694D01*
X0050122Y0103694D01*
X0050122Y0103615D01*
X0050029Y0103146D01*
X0049764Y0102749D01*
X0049734Y0102729D01*
X0049686Y0102627D01*
X0049621Y0101978D01*
X0049658Y0101922D01*
X0049721Y0101607D01*
X0049721Y0099875D01*
X0049658Y0099560D01*
X0049480Y0099293D01*
X0049213Y0099114D01*
X0048898Y0099052D01*
X0043622Y0099052D01*
X0043308Y0099114D01*
X0042762Y0099168D01*
X0042046Y0098689D01*
X0041414Y0098563D01*
X0041473Y0097973D01*
X0075182Y0097973D01*
X0075240Y0098563D01*
D02*
G37*
G36*
X0074123Y0102444D02*
X0074608Y0102769D01*
X0075453Y0102937D01*
X0075453Y0106001D01*
X0074608Y0106169D01*
X0074119Y0106496D01*
X0073594Y0106773D01*
X0073327Y0106595D01*
X0073012Y0106532D01*
X0067737Y0106532D01*
X0067422Y0106595D01*
X0067155Y0106773D01*
X0066976Y0107040D01*
X0066941Y0107217D01*
X0065764Y0107217D01*
X0065416Y0106782D01*
X0065413Y0106213D01*
X0065679Y0105816D01*
X0065772Y0105347D01*
X0065772Y0105268D01*
X0061910Y0105268D01*
X0061910Y0103694D01*
X0065772Y0103694D01*
X0065772Y0103615D01*
X0065679Y0103146D01*
X0065641Y0103090D01*
X0065644Y0103043D01*
X0065940Y0102474D01*
X0066371Y0102388D01*
X0066514Y0102293D01*
X0067155Y0102189D01*
X0067422Y0102367D01*
X0067737Y0102430D01*
X0073012Y0102430D01*
X0073327Y0102367D01*
X0073594Y0102189D01*
X0074123Y0102444D01*
D02*
G37*
G36*
X0041068Y0106660D02*
X0040971Y0107147D01*
X0041109Y0107838D01*
X0041500Y0108424D01*
X0042086Y0108816D01*
X0042777Y0108953D01*
X0042799Y0108971D01*
X0042799Y0109087D01*
X0042862Y0109402D01*
X0043041Y0109669D01*
X0043307Y0109847D01*
X0043622Y0109910D01*
X0048898Y0109910D01*
X0049213Y0109847D01*
X0049480Y0109669D01*
X0049903Y0109585D01*
X0050195Y0109780D01*
X0050886Y0109917D01*
X0051577Y0109780D01*
X0051624Y0109749D01*
X0051772Y0109847D01*
X0052087Y0109910D01*
X0057363Y0109910D01*
X0057678Y0109847D01*
X0057944Y0109669D01*
X0057989Y0109602D01*
X0058007Y0109595D01*
X0058627Y0109595D01*
X0058645Y0109602D01*
X0058690Y0109669D01*
X0058957Y0109847D01*
X0059272Y0109910D01*
X0064548Y0109910D01*
X0064863Y0109847D01*
X0065129Y0109669D01*
X0065308Y0109402D01*
X0065343Y0109225D01*
X0066941Y0109225D01*
X0066976Y0109402D01*
X0067155Y0109669D01*
X0067422Y0109847D01*
X0067737Y0109910D01*
X0073012Y0109910D01*
X0073327Y0109847D01*
X0073594Y0109669D01*
X0074130Y0109929D01*
X0074608Y0110249D01*
X0075240Y0110374D01*
X0075182Y0110965D01*
X0040020Y0110965D01*
X0040020Y0106743D01*
X0040513Y0106426D01*
X0041068Y0106660D01*
D02*
G37*
D26*
X0050886Y0108111D02*
X0050941Y0108166D01*
X0054575Y0108166D01*
X0054631Y0108221D01*
X0064260Y0100875D02*
X0064260Y0100840D01*
X0065669Y0100730D02*
X0065680Y0100719D01*
X0064260Y0100840D02*
X0064370Y0100730D01*
X0065669Y0100730D01*
X0042777Y0107147D02*
X0043204Y0107147D01*
X0043589Y0107532D01*
X0045477Y0107532D01*
X0046166Y0108221D01*
X0061910Y0108221D02*
X0068603Y0108221D01*
X0070759Y0107836D02*
X0074613Y0107836D01*
X0070374Y0108221D02*
X0070759Y0107836D01*
X0074613Y0107836D02*
X0075027Y0107422D01*
X0075453Y0107422D01*
X0045855Y0100335D02*
X0046260Y0100741D01*
X0041201Y0100335D02*
X0045855Y0100335D01*
D42*
X0054725Y0100741D02*
D03*
X0054725Y0108221D02*
D03*
X0046260Y0108221D02*
D03*
X0046260Y0104481D02*
D03*
X0070374Y0100741D02*
D03*
X0070374Y0108221D02*
D03*
X0061910Y0108221D02*
D03*
X0061910Y0104481D02*
D03*
D42*
X0046260Y0100741D02*
D03*
X0061910Y0100741D02*
D03*
D17*
X0058327Y0098367D02*
D03*
X0058327Y0110571D02*
D03*
D16*
X0040414Y0108504D02*
D03*
D29*
X0057921Y0105345D02*
X0058194Y0105071D01*
X0061319Y0105071D01*
X0061910Y0104481D01*
X0054190Y0105345D02*
X0057921Y0105345D01*
X0053962Y0105118D02*
X0054190Y0105345D01*
X0046598Y0104925D02*
X0047251Y0104272D01*
X0046225Y0104925D02*
X0046598Y0104925D01*
D30*
X0056352Y0102946D02*
X0056352Y0101049D01*
X0056352Y0102946D02*
X0056393Y0102987D01*
D31*
X0070380Y0100735D02*
X0075447Y0100735D01*
X0075453Y0100729D01*
X0070374Y0100741D02*
X0070380Y0100735D01*
D15*
X0075453Y0100729D02*
D03*
X0075453Y0104469D02*
D03*
X0075453Y0108209D02*
D03*
X0041201Y0104272D02*
D03*
X0041201Y0100729D02*
D03*
X0050886Y0108111D02*
D03*
X0065680Y0100719D02*
D03*
X0056393Y0102987D02*
D03*
X0042777Y0107147D02*
D03*
X0041260Y0109680D02*
D03*
X0053962Y0105118D02*
D03*
X0051223Y0104062D02*
D03*
M02*
