G75*
G70*
%OFA0B0*%
%FSLAX25Y25*%
%IPPOS*%
%LPD*%
%AMOC8*
5,1,8,0,0,1.08239X$1,22.5*
%
%AMM12*
21,1,0.027170,0.052760,0.000000,-0.000000,270.000000*
21,1,0.017320,0.062600,0.000000,-0.000000,270.000000*
1,1,0.009840,-0.026380,0.008660*
1,1,0.009840,-0.026380,-0.008660*
1,1,0.009840,0.026380,-0.008660*
1,1,0.009840,0.026380,0.008660*
%
%ADD10C,0.05512*%
%ADD15C,0.02362*%
%ADD21C,0.06827*%
%ADD33C,0.02913*%
%ADD43M12*%
X0000000Y0000000D02*
%LPD*%
G01*
D10*
X0029508Y0119035D03*
X0029508Y0104547D03*
X0086594Y0108406D03*
X0086594Y0123445D03*
X0020295Y0017795D03*
X0062067Y0092283D03*
X0020413Y0046693D03*
G36*
G01*
X0057748Y0072028D02*
X0057748Y0078051D01*
G75*
G02*
X0058150Y0078453I0000402J0000000D01*
G01*
X0064173Y0078453D01*
G75*
G02*
X0064575Y0078051I0000000J-000402D01*
G01*
X0064575Y0072028D01*
G75*
G02*
X0064173Y0071626I-000402J0000000D01*
G01*
X0058150Y0071626D01*
G75*
G02*
X0057748Y0072028I0000000J0000402D01*
G01*
G37*
D21*
X0061161Y0065039D03*
X0061161Y0055039D03*
X0061161Y0045039D03*
X0061161Y0035039D03*
X0061161Y0025039D03*
X0061161Y0015039D03*
X0061161Y0005039D03*
X0111161Y0005039D03*
X0111161Y0015039D03*
X0111161Y0025039D03*
X0111161Y0035039D03*
X0111161Y0045039D03*
X0111161Y0055039D03*
X0111161Y0065039D03*
X0111161Y0075039D03*
D15*
X0075157Y0115551D03*
X0075157Y0119291D03*
X0075157Y0123032D03*
X0040906Y0119095D03*
X0040906Y0115551D03*
X0075453Y0100728D03*
X0075453Y0104469D03*
X0075453Y0108209D03*
X0041201Y0104272D03*
X0041201Y0100728D03*
X0039724Y0125787D02*
G01*
G75*
D43*
X0054429Y0115563D02*
D03*
X0054429Y0123043D02*
D03*
X0045964Y0123043D02*
D03*
X0045964Y0119303D02*
D03*
X0070078Y0115563D02*
D03*
X0070078Y0123043D02*
D03*
X0061614Y0123043D02*
D03*
X0061614Y0119303D02*
D03*
D43*
X0045964Y0115563D02*
D03*
X0061614Y0115563D02*
D03*
D33*
X0075157Y0115551D02*
D03*
X0075157Y0119291D02*
D03*
X0075157Y0123031D02*
D03*
X0040905Y0119094D02*
D03*
X0040905Y0115551D02*
D03*
X0040020Y0110965D02*
G01*
G75*
D43*
X0054725Y0100741D02*
D03*
X0054725Y0108221D02*
D03*
X0046260Y0108221D02*
D03*
X0046260Y0104481D02*
D03*
X0070374Y0100741D02*
D03*
X0070374Y0108221D02*
D03*
X0061910Y0108221D02*
D03*
X0061910Y0104481D02*
D03*
D43*
X0046260Y0100741D02*
D03*
X0061910Y0100741D02*
D03*
D33*
X0075453Y0100729D02*
D03*
X0075453Y0104469D02*
D03*
X0075453Y0108209D02*
D03*
X0041201Y0104272D02*
D03*
X0041201Y0100729D02*
D03*
M02*
