G75*
G70*
%OFA0B0*%
%FSLAX25Y25*%
%IPPOS*%
%LPD*%
%AMOC8*
5,1,8,0,0,1.08239X$1,22.5*
%
%AMM1*
21,1,0.021650,0.052760,0.000000,0.000000,270.000000*
21,1,0.017320,0.057090,0.000000,0.000000,270.000000*
1,1,0.004330,-0.026380,-0.008660*
1,1,0.004330,-0.026380,0.008660*
1,1,0.004330,0.026380,0.008660*
1,1,0.004330,0.026380,-0.008660*
%
%ADD14R,0.02559X0.07874*%
%ADD23R,0.04567X0.07677*%
%ADD29M1*%
X0000000Y0000000D02*
%LPD*%
G01*
G36*
G01*
X0103406Y0012165D02*
X0101240Y0012165D01*
G75*
G02*
X0100453Y0012953I0000000J0000787D01*
G01*
X0100453Y0014528D01*
G75*
G02*
X0101240Y0015315I0000787J0000000D01*
G01*
X0103406Y0015315D01*
G75*
G02*
X0104193Y0014528I0000000J-000787D01*
G01*
X0104193Y0012953D01*
G75*
G02*
X0103406Y0012165I-000787J0000000D01*
G01*
G37*
G36*
G01*
X0103406Y0018661D02*
X0101240Y0018661D01*
G75*
G02*
X0100453Y0019449I0000000J0000787D01*
G01*
X0100453Y0021024D01*
G75*
G02*
X0101240Y0021811I0000787J0000000D01*
G01*
X0103406Y0021811D01*
G75*
G02*
X0104193Y0021024I0000000J-000787D01*
G01*
X0104193Y0019449D01*
G75*
G02*
X0103406Y0018661I-000787J0000000D01*
G01*
G37*
G36*
G01*
X0020138Y0065669D02*
X0016398Y0065669D01*
G75*
G02*
X0015413Y0066654I0000000J0000984D01*
G01*
X0015413Y0068622D01*
G75*
G02*
X0016398Y0069606I0000984J0000000D01*
G01*
X0020138Y0069606D01*
G75*
G02*
X0021122Y0068622I0000000J-000984D01*
G01*
X0021122Y0066654D01*
G75*
G02*
X0020138Y0065669I-000984J0000000D01*
G01*
G37*
G36*
G01*
X0020138Y0073150D02*
X0016398Y0073150D01*
G75*
G02*
X0015413Y0074134I0000000J0000984D01*
G01*
X0015413Y0076102D01*
G75*
G02*
X0016398Y0077087I0000984J0000000D01*
G01*
X0020138Y0077087D01*
G75*
G02*
X0021122Y0076102I0000000J-000984D01*
G01*
X0021122Y0074134D01*
G75*
G02*
X0020138Y0073150I-000984J0000000D01*
G01*
G37*
G36*
G01*
X0028248Y0065669D02*
X0024508Y0065669D01*
G75*
G02*
X0023524Y0066654I0000000J0000984D01*
G01*
X0023524Y0068622D01*
G75*
G02*
X0024508Y0069606I0000984J0000000D01*
G01*
X0028248Y0069606D01*
G75*
G02*
X0029232Y0068622I0000000J-000984D01*
G01*
X0029232Y0066654D01*
G75*
G02*
X0028248Y0065669I-000984J0000000D01*
G01*
G37*
G36*
G01*
X0028248Y0073150D02*
X0024508Y0073150D01*
G75*
G02*
X0023524Y0074134I0000000J0000984D01*
G01*
X0023524Y0076102D01*
G75*
G02*
X0024508Y0077087I0000984J0000000D01*
G01*
X0028248Y0077087D01*
G75*
G02*
X0029232Y0076102I0000000J-000984D01*
G01*
X0029232Y0074134D01*
G75*
G02*
X0028248Y0073150I-000984J0000000D01*
G01*
G37*
G36*
G01*
X0013346Y0061870D02*
X0013346Y0058130D01*
G75*
G02*
X0012362Y0057146I-000984J0000000D01*
G01*
X0010394Y0057146D01*
G75*
G02*
X0009409Y0058130I0000000J0000984D01*
G01*
X0009409Y0061870D01*
G75*
G02*
X0010394Y0062854I0000984J0000000D01*
G01*
X0012362Y0062854D01*
G75*
G02*
X0013346Y0061870I0000000J-000984D01*
G01*
G37*
G36*
G01*
X0005866Y0061870D02*
X0005866Y0058130D01*
G75*
G02*
X0004882Y0057146I-000984J0000000D01*
G01*
X0002913Y0057146D01*
G75*
G02*
X0001929Y0058130I0000000J0000984D01*
G01*
X0001929Y0061870D01*
G75*
G02*
X0002913Y0062854I0000984J0000000D01*
G01*
X0004882Y0062854D01*
G75*
G02*
X0005866Y0061870I0000000J-000984D01*
G01*
G37*
G36*
G01*
X0060386Y0120291D02*
X0060386Y0118126D01*
G75*
G02*
X0059598Y0117339I-000787J0000000D01*
G01*
X0058024Y0117339D01*
G75*
G02*
X0057236Y0118126I0000000J0000787D01*
G01*
X0057236Y0120291D01*
G75*
G02*
X0058024Y0121079I0000787J0000000D01*
G01*
X0059598Y0121079D01*
G75*
G02*
X0060386Y0120291I0000000J-000787D01*
G01*
G37*
G36*
G01*
X0053890Y0120291D02*
X0053890Y0118126D01*
G75*
G02*
X0053102Y0117339I-000787J0000000D01*
G01*
X0051528Y0117339D01*
G75*
G02*
X0050740Y0118126I0000000J0000787D01*
G01*
X0050740Y0120291D01*
G75*
G02*
X0051528Y0121079I0000787J0000000D01*
G01*
X0053102Y0121079D01*
G75*
G02*
X0053890Y0120291I0000000J-000787D01*
G01*
G37*
G36*
G01*
X0048386Y0120291D02*
X0048386Y0118126D01*
G75*
G02*
X0047598Y0117339I-000787J0000000D01*
G01*
X0046024Y0117339D01*
G75*
G02*
X0045236Y0118126I0000000J0000787D01*
G01*
X0045236Y0120291D01*
G75*
G02*
X0046024Y0121079I0000787J0000000D01*
G01*
X0047598Y0121079D01*
G75*
G02*
X0048386Y0120291I0000000J-000787D01*
G01*
G37*
G36*
G01*
X0041890Y0120291D02*
X0041890Y0118126D01*
G75*
G02*
X0041102Y0117339I-000787J0000000D01*
G01*
X0039528Y0117339D01*
G75*
G02*
X0038740Y0118126I0000000J0000787D01*
G01*
X0038740Y0120291D01*
G75*
G02*
X0039528Y0121079I0000787J0000000D01*
G01*
X0041102Y0121079D01*
G75*
G02*
X0041890Y0120291I0000000J-000787D01*
G01*
G37*
G36*
G01*
X0047087Y0040610D02*
X0049252Y0040610D01*
G75*
G02*
X0050039Y0039823I0000000J-000787D01*
G01*
X0050039Y0038248D01*
G75*
G02*
X0049252Y0037461I-000787J0000000D01*
G01*
X0047087Y0037461D01*
G75*
G02*
X0046299Y0038248I0000000J0000787D01*
G01*
X0046299Y0039823D01*
G75*
G02*
X0047087Y0040610I0000787J0000000D01*
G01*
G37*
G36*
G01*
X0047087Y0034114D02*
X0049252Y0034114D01*
G75*
G02*
X0050039Y0033327I0000000J-000787D01*
G01*
X0050039Y0031752D01*
G75*
G02*
X0049252Y0030965I-000787J0000000D01*
G01*
X0047087Y0030965D01*
G75*
G02*
X0046299Y0031752I0000000J0000787D01*
G01*
X0046299Y0033327D01*
G75*
G02*
X0047087Y0034114I0000787J0000000D01*
G01*
G37*
G36*
G01*
X0083012Y0066142D02*
X0079272Y0066142D01*
G75*
G02*
X0078287Y0067126I0000000J0000984D01*
G01*
X0078287Y0069094D01*
G75*
G02*
X0079272Y0070079I0000984J0000000D01*
G01*
X0083012Y0070079D01*
G75*
G02*
X0083996Y0069094I0000000J-000984D01*
G01*
X0083996Y0067126D01*
G75*
G02*
X0083012Y0066142I-000984J0000000D01*
G01*
G37*
G36*
G01*
X0083012Y0073622D02*
X0079272Y0073622D01*
G75*
G02*
X0078287Y0074606I0000000J0000984D01*
G01*
X0078287Y0076575D01*
G75*
G02*
X0079272Y0077559I0000984J0000000D01*
G01*
X0083012Y0077559D01*
G75*
G02*
X0083996Y0076575I0000000J-000984D01*
G01*
X0083996Y0074606D01*
G75*
G02*
X0083012Y0073622I-000984J0000000D01*
G01*
G37*
G36*
G01*
X0048730Y0044094D02*
X0047844Y0044094D01*
G75*
G02*
X0047402Y0044537I0000000J0000443D01*
G01*
X0047402Y0046014D01*
G75*
G02*
X0047844Y0046457I0000443J0000000D01*
G01*
X0048730Y0046457D01*
G75*
G02*
X0049173Y0046014I0000000J-000443D01*
G01*
X0049173Y0044537D01*
G75*
G02*
X0048730Y0044094I-000443J0000000D01*
G01*
G37*
G36*
G01*
X0048730Y0052362D02*
X0047844Y0052362D01*
G75*
G02*
X0047402Y0052805I0000000J0000443D01*
G01*
X0047402Y0054281D01*
G75*
G02*
X0047844Y0054724I0000443J0000000D01*
G01*
X0048730Y0054724D01*
G75*
G02*
X0049173Y0054281I0000000J-000443D01*
G01*
X0049173Y0052805D01*
G75*
G02*
X0048730Y0052362I-000443J0000000D01*
G01*
G37*
G36*
G01*
X0037333Y0027559D02*
X0038219Y0027559D01*
G75*
G02*
X0038661Y0027116I0000000J-000443D01*
G01*
X0038661Y0025640D01*
G75*
G02*
X0038219Y0025197I-000443J0000000D01*
G01*
X0037333Y0025197D01*
G75*
G02*
X0036890Y0025640I0000000J0000443D01*
G01*
X0036890Y0027116D01*
G75*
G02*
X0037333Y0027559I0000443J0000000D01*
G01*
G37*
G36*
G01*
X0037333Y0019291D02*
X0038219Y0019291D01*
G75*
G02*
X0038661Y0018848I0000000J-000443D01*
G01*
X0038661Y0017372D01*
G75*
G02*
X0038219Y0016929I-000443J0000000D01*
G01*
X0037333Y0016929D01*
G75*
G02*
X0036890Y0017372I0000000J0000443D01*
G01*
X0036890Y0018848D01*
G75*
G02*
X0037333Y0019291I0000443J0000000D01*
G01*
G37*
G36*
G01*
X0084272Y0014016D02*
X0084272Y0012047D01*
G75*
G02*
X0083386Y0011161I-000886J0000000D01*
G01*
X0081614Y0011161D01*
G75*
G02*
X0080728Y0012047I0000000J0000886D01*
G01*
X0080728Y0014016D01*
G75*
G02*
X0081614Y0014902I0000886J0000000D01*
G01*
X0083386Y0014902D01*
G75*
G02*
X0084272Y0014016I0000000J-000886D01*
G01*
G37*
G36*
G01*
X0078169Y0014016D02*
X0078169Y0012047D01*
G75*
G02*
X0077283Y0011161I-000886J0000000D01*
G01*
X0075512Y0011161D01*
G75*
G02*
X0074626Y0012047I0000000J0000886D01*
G01*
X0074626Y0014016D01*
G75*
G02*
X0075512Y0014902I0000886J0000000D01*
G01*
X0077283Y0014902D01*
G75*
G02*
X0078169Y0014016I0000000J-000886D01*
G01*
G37*
G36*
G01*
X0028602Y0054035D02*
X0030571Y0054035D01*
G75*
G02*
X0031457Y0053150I0000000J-000886D01*
G01*
X0031457Y0051378D01*
G75*
G02*
X0030571Y0050492I-000886J0000000D01*
G01*
X0028602Y0050492D01*
G75*
G02*
X0027717Y0051378I0000000J0000886D01*
G01*
X0027717Y0053150D01*
G75*
G02*
X0028602Y0054035I0000886J0000000D01*
G01*
G37*
G36*
G01*
X0028602Y0047933D02*
X0030571Y0047933D01*
G75*
G02*
X0031457Y0047047I0000000J-000886D01*
G01*
X0031457Y0045276D01*
G75*
G02*
X0030571Y0044390I-000886J0000000D01*
G01*
X0028602Y0044390D01*
G75*
G02*
X0027717Y0045276I0000000J0000886D01*
G01*
X0027717Y0047047D01*
G75*
G02*
X0028602Y0047933I0000886J0000000D01*
G01*
G37*
G36*
G01*
X0012146Y0065669D02*
X0008406Y0065669D01*
G75*
G02*
X0007421Y0066654I0000000J0000984D01*
G01*
X0007421Y0068622D01*
G75*
G02*
X0008406Y0069606I0000984J0000000D01*
G01*
X0012146Y0069606D01*
G75*
G02*
X0013130Y0068622I0000000J-000984D01*
G01*
X0013130Y0066654D01*
G75*
G02*
X0012146Y0065669I-000984J0000000D01*
G01*
G37*
G36*
G01*
X0012146Y0073150D02*
X0008406Y0073150D01*
G75*
G02*
X0007421Y0074134I0000000J0000984D01*
G01*
X0007421Y0076102D01*
G75*
G02*
X0008406Y0077087I0000984J0000000D01*
G01*
X0012146Y0077087D01*
G75*
G02*
X0013130Y0076102I0000000J-000984D01*
G01*
X0013130Y0074134D01*
G75*
G02*
X0012146Y0073150I-000984J0000000D01*
G01*
G37*
G36*
G01*
X0038179Y0031024D02*
X0037293Y0031024D01*
G75*
G02*
X0036850Y0031467I0000000J0000443D01*
G01*
X0036850Y0032943D01*
G75*
G02*
X0037293Y0033386I0000443J0000000D01*
G01*
X0038179Y0033386D01*
G75*
G02*
X0038622Y0032943I0000000J-000443D01*
G01*
X0038622Y0031467D01*
G75*
G02*
X0038179Y0031024I-000443J0000000D01*
G01*
G37*
G36*
G01*
X0038179Y0039291D02*
X0037293Y0039291D01*
G75*
G02*
X0036850Y0039734I0000000J0000443D01*
G01*
X0036850Y0041211D01*
G75*
G02*
X0037293Y0041654I0000443J0000000D01*
G01*
X0038179Y0041654D01*
G75*
G02*
X0038622Y0041211I0000000J-000443D01*
G01*
X0038622Y0039734D01*
G75*
G02*
X0038179Y0039291I-000443J0000000D01*
G01*
G37*
D23*
X0097657Y0044469D03*
X0091909Y0044469D03*
X0086161Y0044469D03*
X0080413Y0044469D03*
X0074665Y0044469D03*
X0097657Y0035610D03*
X0091909Y0035610D03*
X0086161Y0035610D03*
X0080413Y0035610D03*
X0074665Y0035610D03*
D14*
X0096004Y0058937D03*
X0092067Y0058937D03*
X0088130Y0058937D03*
X0084193Y0058937D03*
X0080256Y0058937D03*
X0076319Y0058937D03*
X0076319Y0021142D03*
X0080256Y0021142D03*
X0084193Y0021142D03*
X0088130Y0021142D03*
X0092067Y0021142D03*
X0096004Y0021142D03*
G36*
G01*
X0052933Y0065669D02*
X0049193Y0065669D01*
G75*
G02*
X0048209Y0066654I0000000J0000984D01*
G01*
X0048209Y0068622D01*
G75*
G02*
X0049193Y0069606I0000984J0000000D01*
G01*
X0052933Y0069606D01*
G75*
G02*
X0053917Y0068622I0000000J-000984D01*
G01*
X0053917Y0066654D01*
G75*
G02*
X0052933Y0065669I-000984J0000000D01*
G01*
G37*
G36*
G01*
X0052933Y0073150D02*
X0049193Y0073150D01*
G75*
G02*
X0048209Y0074134I0000000J0000984D01*
G01*
X0048209Y0076102D01*
G75*
G02*
X0049193Y0077087I0000984J0000000D01*
G01*
X0052933Y0077087D01*
G75*
G02*
X0053917Y0076102I0000000J-000984D01*
G01*
X0053917Y0074134D01*
G75*
G02*
X0052933Y0073150I-000984J0000000D01*
G01*
G37*
G36*
G01*
X0067992Y0063307D02*
X0069961Y0063307D01*
G75*
G02*
X0070846Y0062421I0000000J-000886D01*
G01*
X0070846Y0060650D01*
G75*
G02*
X0069961Y0059764I-000886J0000000D01*
G01*
X0067992Y0059764D01*
G75*
G02*
X0067106Y0060650I0000000J0000886D01*
G01*
X0067106Y0062421D01*
G75*
G02*
X0067992Y0063307I0000886J0000000D01*
G01*
G37*
G36*
G01*
X0067992Y0057205D02*
X0069961Y0057205D01*
G75*
G02*
X0070846Y0056319I0000000J-000886D01*
G01*
X0070846Y0054547D01*
G75*
G02*
X0069961Y0053661I-000886J0000000D01*
G01*
X0067992Y0053661D01*
G75*
G02*
X0067106Y0054547I0000000J0000886D01*
G01*
X0067106Y0056319D01*
G75*
G02*
X0067992Y0057205I0000886J0000000D01*
G01*
G37*
G36*
G01*
X0036476Y0065630D02*
X0032736Y0065630D01*
G75*
G02*
X0031752Y0066614I0000000J0000984D01*
G01*
X0031752Y0068583D01*
G75*
G02*
X0032736Y0069567I0000984J0000000D01*
G01*
X0036476Y0069567D01*
G75*
G02*
X0037461Y0068583I0000000J-000984D01*
G01*
X0037461Y0066614D01*
G75*
G02*
X0036476Y0065630I-000984J0000000D01*
G01*
G37*
G36*
G01*
X0036476Y0073110D02*
X0032736Y0073110D01*
G75*
G02*
X0031752Y0074094I0000000J0000984D01*
G01*
X0031752Y0076063D01*
G75*
G02*
X0032736Y0077047I0000984J0000000D01*
G01*
X0036476Y0077047D01*
G75*
G02*
X0037461Y0076063I0000000J-000984D01*
G01*
X0037461Y0074094D01*
G75*
G02*
X0036476Y0073110I-000984J0000000D01*
G01*
G37*
G36*
G01*
X0049193Y0005059D02*
X0047224Y0005059D01*
G75*
G02*
X0046339Y0005945I0000000J0000886D01*
G01*
X0046339Y0007717D01*
G75*
G02*
X0047224Y0008602I0000886J0000000D01*
G01*
X0049193Y0008602D01*
G75*
G02*
X0050079Y0007717I0000000J-000886D01*
G01*
X0050079Y0005945D01*
G75*
G02*
X0049193Y0005059I-000886J0000000D01*
G01*
G37*
G36*
G01*
X0049193Y0011161D02*
X0047224Y0011161D01*
G75*
G02*
X0046339Y0012047I0000000J0000886D01*
G01*
X0046339Y0013819D01*
G75*
G02*
X0047224Y0014705I0000886J0000000D01*
G01*
X0049193Y0014705D01*
G75*
G02*
X0050079Y0013819I0000000J-000886D01*
G01*
X0050079Y0012047D01*
G75*
G02*
X0049193Y0011161I-000886J0000000D01*
G01*
G37*
G36*
G01*
X0049252Y0017874D02*
X0047087Y0017874D01*
G75*
G02*
X0046299Y0018661I0000000J0000787D01*
G01*
X0046299Y0020236D01*
G75*
G02*
X0047087Y0021024I0000787J0000000D01*
G01*
X0049252Y0021024D01*
G75*
G02*
X0050039Y0020236I0000000J-000787D01*
G01*
X0050039Y0018661D01*
G75*
G02*
X0049252Y0017874I-000787J0000000D01*
G01*
G37*
G36*
G01*
X0049252Y0024370D02*
X0047087Y0024370D01*
G75*
G02*
X0046299Y0025157I0000000J0000787D01*
G01*
X0046299Y0026732D01*
G75*
G02*
X0047087Y0027520I0000787J0000000D01*
G01*
X0049252Y0027520D01*
G75*
G02*
X0050039Y0026732I0000000J-000787D01*
G01*
X0050039Y0025157D01*
G75*
G02*
X0049252Y0024370I-000787J0000000D01*
G01*
G37*
G36*
G01*
X0044705Y0065669D02*
X0040965Y0065669D01*
G75*
G02*
X0039980Y0066654I0000000J0000984D01*
G01*
X0039980Y0068622D01*
G75*
G02*
X0040965Y0069606I0000984J0000000D01*
G01*
X0044705Y0069606D01*
G75*
G02*
X0045689Y0068622I0000000J-000984D01*
G01*
X0045689Y0066654D01*
G75*
G02*
X0044705Y0065669I-000984J0000000D01*
G01*
G37*
G36*
G01*
X0044705Y0073150D02*
X0040965Y0073150D01*
G75*
G02*
X0039980Y0074134I0000000J0000984D01*
G01*
X0039980Y0076102D01*
G75*
G02*
X0040965Y0077087I0000984J0000000D01*
G01*
X0044705Y0077087D01*
G75*
G02*
X0045689Y0076102I0000000J-000984D01*
G01*
X0045689Y0074134D01*
G75*
G02*
X0044705Y0073150I-000984J0000000D01*
G01*
G37*
G36*
G01*
X0037451Y0014016D02*
X0038337Y0014016D01*
G75*
G02*
X0038780Y0013573I0000000J-000443D01*
G01*
X0038780Y0012096D01*
G75*
G02*
X0038337Y0011654I-000443J0000000D01*
G01*
X0037451Y0011654D01*
G75*
G02*
X0037008Y0012096I0000000J0000443D01*
G01*
X0037008Y0013573D01*
G75*
G02*
X0037451Y0014016I0000443J0000000D01*
G01*
G37*
G36*
G01*
X0037451Y0005748D02*
X0038337Y0005748D01*
G75*
G02*
X0038780Y0005305I0000000J-000443D01*
G01*
X0038780Y0003829D01*
G75*
G02*
X0038337Y0003386I-000443J0000000D01*
G01*
X0037451Y0003386D01*
G75*
G02*
X0037008Y0003829I0000000J0000443D01*
G01*
X0037008Y0005305D01*
G75*
G02*
X0037451Y0005748I0000443J0000000D01*
G01*
G37*
G36*
G01*
X0038740Y0124224D02*
X0038740Y0126193D01*
G75*
G02*
X0039626Y0127079I0000886J0000000D01*
G01*
X0041398Y0127079D01*
G75*
G02*
X0042283Y0126193I0000000J-000886D01*
G01*
X0042283Y0124224D01*
G75*
G02*
X0041398Y0123339I-000886J0000000D01*
G01*
X0039626Y0123339D01*
G75*
G02*
X0038740Y0124224I0000000J0000886D01*
G01*
G37*
G36*
G01*
X0044843Y0124224D02*
X0044843Y0126193D01*
G75*
G02*
X0045728Y0127079I0000886J0000000D01*
G01*
X0047500Y0127079D01*
G75*
G02*
X0048386Y0126193I0000000J-000886D01*
G01*
X0048386Y0124224D01*
G75*
G02*
X0047500Y0123339I-000886J0000000D01*
G01*
X0045728Y0123339D01*
G75*
G02*
X0044843Y0124224I0000000J0000886D01*
G01*
G37*
G36*
G01*
X0036535Y0053996D02*
X0038701Y0053996D01*
G75*
G02*
X0039488Y0053209I0000000J-000787D01*
G01*
X0039488Y0051634D01*
G75*
G02*
X0038701Y0050846I-000787J0000000D01*
G01*
X0036535Y0050846D01*
G75*
G02*
X0035748Y0051634I0000000J0000787D01*
G01*
X0035748Y0053209D01*
G75*
G02*
X0036535Y0053996I0000787J0000000D01*
G01*
G37*
G36*
G01*
X0036535Y0047500D02*
X0038701Y0047500D01*
G75*
G02*
X0039488Y0046713I0000000J-000787D01*
G01*
X0039488Y0045138D01*
G75*
G02*
X0038701Y0044350I-000787J0000000D01*
G01*
X0036535Y0044350D01*
G75*
G02*
X0035748Y0045138I0000000J0000787D01*
G01*
X0035748Y0046713D01*
G75*
G02*
X0036535Y0047500I0000787J0000000D01*
G01*
G37*
G36*
G01*
X0102598Y0067382D02*
X0100630Y0067382D01*
G75*
G02*
X0099744Y0068268I0000000J0000886D01*
G01*
X0099744Y0070039D01*
G75*
G02*
X0100630Y0070925I0000886J0000000D01*
G01*
X0102598Y0070925D01*
G75*
G02*
X0103484Y0070039I0000000J-000886D01*
G01*
X0103484Y0068268D01*
G75*
G02*
X0102598Y0067382I-000886J0000000D01*
G01*
G37*
G36*
G01*
X0102598Y0073484D02*
X0100630Y0073484D01*
G75*
G02*
X0099744Y0074370I0000000J0000886D01*
G01*
X0099744Y0076142D01*
G75*
G02*
X0100630Y0077028I0000886J0000000D01*
G01*
X0102598Y0077028D01*
G75*
G02*
X0103484Y0076142I0000000J-000886D01*
G01*
X0103484Y0074370D01*
G75*
G02*
X0102598Y0073484I-000886J0000000D01*
G01*
G37*
G36*
G01*
X0074783Y0066181D02*
X0071043Y0066181D01*
G75*
G02*
X0070059Y0067165I0000000J0000984D01*
G01*
X0070059Y0069134D01*
G75*
G02*
X0071043Y0070118I0000984J0000000D01*
G01*
X0074783Y0070118D01*
G75*
G02*
X0075768Y0069134I0000000J-000984D01*
G01*
X0075768Y0067165D01*
G75*
G02*
X0074783Y0066181I-000984J0000000D01*
G01*
G37*
G36*
G01*
X0074783Y0073661D02*
X0071043Y0073661D01*
G75*
G02*
X0070059Y0074646I0000000J0000984D01*
G01*
X0070059Y0076614D01*
G75*
G02*
X0071043Y0077598I0000984J0000000D01*
G01*
X0074783Y0077598D01*
G75*
G02*
X0075768Y0076614I0000000J-000984D01*
G01*
X0075768Y0074646D01*
G75*
G02*
X0074783Y0073661I-000984J0000000D01*
G01*
G37*
G36*
G01*
X0030315Y0004232D02*
X0028150Y0004232D01*
G75*
G02*
X0027362Y0005020I0000000J0000787D01*
G01*
X0027362Y0006594D01*
G75*
G02*
X0028150Y0007382I0000787J0000000D01*
G01*
X0030315Y0007382D01*
G75*
G02*
X0031102Y0006594I0000000J-000787D01*
G01*
X0031102Y0005020D01*
G75*
G02*
X0030315Y0004232I-000787J0000000D01*
G01*
G37*
G36*
G01*
X0030315Y0010728D02*
X0028150Y0010728D01*
G75*
G02*
X0027362Y0011516I0000000J0000787D01*
G01*
X0027362Y0013091D01*
G75*
G02*
X0028150Y0013878I0000787J0000000D01*
G01*
X0030315Y0013878D01*
G75*
G02*
X0031102Y0013091I0000000J-000787D01*
G01*
X0031102Y0011516D01*
G75*
G02*
X0030315Y0010728I-000787J0000000D01*
G01*
G37*
G36*
G01*
X0096083Y0066457D02*
X0092343Y0066457D01*
G75*
G02*
X0091358Y0067441I0000000J0000984D01*
G01*
X0091358Y0069409D01*
G75*
G02*
X0092343Y0070394I0000984J0000000D01*
G01*
X0096083Y0070394D01*
G75*
G02*
X0097067Y0069409I0000000J-000984D01*
G01*
X0097067Y0067441D01*
G75*
G02*
X0096083Y0066457I-000984J0000000D01*
G01*
G37*
G36*
G01*
X0096083Y0073937D02*
X0092343Y0073937D01*
G75*
G02*
X0091358Y0074921I0000000J0000984D01*
G01*
X0091358Y0076890D01*
G75*
G02*
X0092343Y0077874I0000984J0000000D01*
G01*
X0096083Y0077874D01*
G75*
G02*
X0097067Y0076890I0000000J-000984D01*
G01*
X0097067Y0074921D01*
G75*
G02*
X0096083Y0073937I-000984J0000000D01*
G01*
G37*
X0037748Y0101118D02*
G01*
G75*
D29*
X0052453Y0111342D02*
D03*
X0052453Y0103862D02*
D03*
X0043988Y0103862D02*
D03*
X0043988Y0107602D02*
D03*
X0068102Y0111342D02*
D03*
X0068102Y0103862D02*
D03*
X0059638Y0103862D02*
D03*
X0059638Y0107602D02*
D03*
D29*
X0043988Y0111342D02*
D03*
X0059638Y0111342D02*
D03*
X0037748Y0086205D02*
G01*
G75*
D29*
X0052453Y0096429D02*
D03*
X0052453Y0088949D02*
D03*
X0043988Y0088949D02*
D03*
X0043988Y0092689D02*
D03*
X0068102Y0096429D02*
D03*
X0068102Y0088949D02*
D03*
X0059638Y0088949D02*
D03*
X0059638Y0092689D02*
D03*
D29*
X0043988Y0096429D02*
D03*
X0059638Y0096429D02*
D03*
M02*
