G75*
G70*
%OFA0B0*%
%FSLAX25Y25*%
%IPPOS*%
%LPD*%
%AMOC8*
5,1,8,0,0,1.08239X$1,22.5*
%
%ADD10C,0.05512*%
%ADD13R,0.06024X0.06024*%
%ADD14C,0.06024*%
%ADD15C,0.02362*%
%ADD16O,0.00787X0.04823*%
%ADD17O,0.36614X0.00787*%
%ADD18C,0.03150*%
%ADD31C,0.01575*%
X0000000Y0000000D02*
%LPD*%
G01*
D10*
X0029508Y0119035D03*
X0029508Y0104547D03*
X0086594Y0108406D03*
X0086594Y0123445D03*
X0020295Y0017795D03*
X0062067Y0092283D03*
X0020413Y0046693D03*
D13*
X0061161Y0075039D03*
D14*
X0061161Y0065039D03*
X0061161Y0055039D03*
X0061161Y0045039D03*
X0061161Y0035039D03*
X0061161Y0025039D03*
X0061161Y0015039D03*
X0061161Y0005039D03*
X0111161Y0005039D03*
X0111161Y0015039D03*
X0111161Y0025039D03*
X0111161Y0035039D03*
X0111161Y0045039D03*
X0111161Y0055039D03*
X0111161Y0065039D03*
X0111161Y0075039D03*
D15*
X0075157Y0115551D03*
D16*
X0040118Y0123327D03*
D17*
X0058031Y0125394D03*
X0058031Y0113189D03*
D15*
X0075157Y0119291D03*
X0075157Y0123032D03*
X0040906Y0119095D03*
X0040906Y0115551D03*
X0075453Y0100728D03*
D16*
X0040413Y0108504D03*
D17*
X0058327Y0110571D03*
X0058327Y0098366D03*
D15*
X0075453Y0104469D03*
X0075453Y0108209D03*
X0041201Y0104272D03*
X0041201Y0100728D03*
D18*
X0068937Y0055394D03*
X0080197Y0057323D03*
X0082756Y0039724D03*
X0079252Y0032835D03*
X0072205Y0046890D03*
X0086299Y0036339D03*
X0072126Y0032598D03*
X0079252Y0039803D03*
X0026339Y0067598D03*
X0034646Y0067402D03*
X0096693Y0040039D03*
X0100276Y0043661D03*
X0088150Y0020945D03*
X0094331Y0068307D03*
X0093268Y0032992D03*
X0072165Y0036063D03*
X0075709Y0032717D03*
X0089724Y0036339D03*
X0101575Y0069016D03*
X0089724Y0032874D03*
X0079291Y0043307D03*
X0073031Y0067992D03*
X0093228Y0046890D03*
X0082717Y0046654D03*
X0071102Y0111929D03*
X0084291Y0020866D03*
X0100236Y0036654D03*
X0100236Y0040157D03*
X0100236Y0033189D03*
X0079213Y0046732D03*
X0082795Y0043228D03*
X0043307Y0111890D03*
X0084134Y0051142D03*
X0072205Y0039646D03*
X0067047Y0049094D03*
X0075709Y0036181D03*
X0051055Y0067803D03*
X0093268Y0036457D03*
X0082756Y0036220D03*
X0079252Y0036299D03*
X0086260Y0046772D03*
X0095472Y0027756D03*
X0100197Y0047087D03*
X0089764Y0043346D03*
X0089685Y0046772D03*
X0096654Y0046969D03*
X0096693Y0036535D03*
X0089724Y0039843D03*
X0069882Y0096417D03*
X0072244Y0043228D03*
X0054213Y0096378D03*
X0057953Y0111811D03*
X0096732Y0043543D03*
X0082756Y0032756D03*
X0093268Y0039961D03*
X0075709Y0039685D03*
X0093307Y0043465D03*
X0086299Y0039843D03*
X0082559Y0013071D03*
X0080354Y0020748D03*
X0076260Y0027717D03*
X0075669Y0046614D03*
X0075748Y0043189D03*
X0086339Y0043346D03*
X0086299Y0032874D03*
X0042874Y0067638D03*
X0081339Y0067992D03*
X0096693Y0033071D03*
X0100591Y0052717D03*
G36*
X0116073Y0133503D02*
G01*
X0116253Y0133295D01*
X0116297Y0133092D01*
X0116268Y0093998D01*
X0116258Y0080040D01*
X0116258Y0077996D01*
X0116180Y0077732D01*
X0115972Y0077551D01*
X0115700Y0077512D01*
X0115450Y0077627D01*
X0115370Y0077716D01*
X0115174Y0077996D01*
X0114993Y0078254D01*
X0114376Y0078871D01*
X0113662Y0079371D01*
X0113662Y0079371D01*
X0112872Y0079739D01*
X0112872Y0079739D01*
X0112030Y0079965D01*
X0112030Y0079965D01*
X0111161Y0080041D01*
X0111161Y0080041D01*
X0110293Y0079965D01*
X0110293Y0079965D01*
X0109451Y0079739D01*
X0109451Y0079739D01*
X0108661Y0079371D01*
X0108661Y0079371D01*
X0107947Y0078871D01*
X0107330Y0078254D01*
X0106830Y0077540D01*
X0106830Y0077540D01*
X0106462Y0076750D01*
X0106462Y0076750D01*
X0106236Y0075908D01*
X0106236Y0075908D01*
X0106160Y0075039D01*
X0106160Y0075039D01*
X0106236Y0074171D01*
X0106236Y0074171D01*
X0106462Y0073329D01*
X0106462Y0073329D01*
X0106819Y0072563D01*
X0106830Y0072539D01*
X0107330Y0071825D01*
X0107947Y0071208D01*
X0108661Y0070708D01*
X0108850Y0070620D01*
X0109146Y0070482D01*
X0109352Y0070300D01*
X0109428Y0070036D01*
X0109348Y0069772D01*
X0109146Y0069597D01*
X0108661Y0069371D01*
X0108661Y0069371D01*
X0107947Y0068871D01*
X0107330Y0068254D01*
X0106830Y0067540D01*
X0106830Y0067540D01*
X0106462Y0066750D01*
X0106462Y0066750D01*
X0106236Y0065908D01*
X0106236Y0065908D01*
X0106160Y0065039D01*
X0106160Y0065039D01*
X0106236Y0064171D01*
X0106236Y0064171D01*
X0106462Y0063329D01*
X0106462Y0063329D01*
X0106572Y0063093D01*
X0106830Y0062539D01*
X0107330Y0061825D01*
X0107947Y0061208D01*
X0108661Y0060708D01*
X0108905Y0060594D01*
X0109146Y0060482D01*
X0109352Y0060300D01*
X0109428Y0060036D01*
X0109348Y0059772D01*
X0109146Y0059597D01*
X0108661Y0059371D01*
X0108661Y0059371D01*
X0107947Y0058871D01*
X0107330Y0058254D01*
X0106830Y0057540D01*
X0106830Y0057540D01*
X0106462Y0056750D01*
X0106462Y0056750D01*
X0106236Y0055908D01*
X0106236Y0055908D01*
X0106160Y0055039D01*
X0106160Y0055039D01*
X0106236Y0054171D01*
X0106236Y0054171D01*
X0106462Y0053329D01*
X0106462Y0053329D01*
X0106734Y0052745D01*
X0106830Y0052539D01*
X0107330Y0051825D01*
X0107947Y0051208D01*
X0108661Y0050708D01*
X0108847Y0050621D01*
X0109146Y0050482D01*
X0109352Y0050300D01*
X0109428Y0050036D01*
X0109348Y0049772D01*
X0109146Y0049597D01*
X0108661Y0049371D01*
X0108661Y0049371D01*
X0107947Y0048871D01*
X0107330Y0048254D01*
X0106830Y0047540D01*
X0106830Y0047540D01*
X0106462Y0046750D01*
X0106462Y0046750D01*
X0106236Y0045908D01*
X0106236Y0045908D01*
X0106160Y0045039D01*
X0106160Y0045039D01*
X0106236Y0044171D01*
X0106236Y0044171D01*
X0106462Y0043329D01*
X0106462Y0043329D01*
X0106659Y0042905D01*
X0106830Y0042539D01*
X0107330Y0041825D01*
X0107947Y0041208D01*
X0108661Y0040708D01*
X0108905Y0040594D01*
X0109146Y0040482D01*
X0109352Y0040300D01*
X0109428Y0040036D01*
X0109348Y0039772D01*
X0109146Y0039597D01*
X0108661Y0039371D01*
X0108661Y0039371D01*
X0107947Y0038871D01*
X0107330Y0038254D01*
X0106830Y0037540D01*
X0106830Y0037540D01*
X0106462Y0036750D01*
X0106462Y0036750D01*
X0106236Y0035908D01*
X0106236Y0035908D01*
X0106160Y0035039D01*
X0106160Y0035039D01*
X0106236Y0034171D01*
X0106236Y0034171D01*
X0106462Y0033329D01*
X0106462Y0033329D01*
X0106819Y0032563D01*
X0106830Y0032539D01*
X0107330Y0031825D01*
X0107947Y0031208D01*
X0108661Y0030708D01*
X0108905Y0030594D01*
X0109146Y0030482D01*
X0109352Y0030300D01*
X0109428Y0030036D01*
X0109348Y0029772D01*
X0109146Y0029597D01*
X0108661Y0029371D01*
X0108661Y0029371D01*
X0107947Y0028871D01*
X0107330Y0028254D01*
X0106830Y0027540D01*
X0106830Y0027540D01*
X0106462Y0026750D01*
X0106462Y0026750D01*
X0106236Y0025908D01*
X0106236Y0025908D01*
X0106160Y0025039D01*
X0106160Y0025039D01*
X0106236Y0024171D01*
X0106236Y0024171D01*
X0106462Y0023329D01*
X0106462Y0023329D01*
X0106819Y0022563D01*
X0106830Y0022539D01*
X0107330Y0021825D01*
X0107947Y0021208D01*
X0108661Y0020708D01*
X0108905Y0020594D01*
X0109146Y0020482D01*
X0109352Y0020300D01*
X0109428Y0020036D01*
X0109348Y0019772D01*
X0109146Y0019597D01*
X0108661Y0019371D01*
X0108661Y0019371D01*
X0107947Y0018871D01*
X0107330Y0018254D01*
X0106830Y0017540D01*
X0106830Y0017540D01*
X0106462Y0016750D01*
X0106462Y0016750D01*
X0106236Y0015908D01*
X0106236Y0015908D01*
X0106160Y0015039D01*
X0106160Y0015039D01*
X0106236Y0014171D01*
X0106236Y0014171D01*
X0106462Y0013329D01*
X0106462Y0013329D01*
X0106583Y0013069D01*
X0106830Y0012539D01*
X0107330Y0011825D01*
X0107947Y0011208D01*
X0108661Y0010708D01*
X0108905Y0010594D01*
X0109146Y0010482D01*
X0109352Y0010300D01*
X0109428Y0010036D01*
X0109348Y0009772D01*
X0109146Y0009597D01*
X0108661Y0009371D01*
X0108661Y0009371D01*
X0107947Y0008871D01*
X0107330Y0008254D01*
X0106830Y0007540D01*
X0106830Y0007540D01*
X0106462Y0006750D01*
X0106462Y0006750D01*
X0106236Y0005908D01*
X0106236Y0005908D01*
X0106160Y0005039D01*
X0106160Y0005039D01*
X0106236Y0004171D01*
X0106236Y0004171D01*
X0106462Y0003329D01*
X0106462Y0003329D01*
X0106572Y0003093D01*
X0106830Y0002539D01*
X0107330Y0001825D01*
X0107947Y0001208D01*
X0108373Y0000910D01*
X0108545Y0000695D01*
X0108573Y0000421D01*
X0108449Y0000176D01*
X0108212Y0000036D01*
X0108093Y0000022D01*
X0064227Y0000022D01*
X0063963Y0000099D01*
X0063783Y0000307D01*
X0063743Y0000579D01*
X0063858Y0000830D01*
X0063918Y0000884D01*
X0063919Y0000890D01*
X0061718Y0003091D01*
X0061733Y0003093D01*
X0062258Y0003333D01*
X0062694Y0003711D01*
X0063007Y0004197D01*
X0063095Y0004498D01*
X0065311Y0002282D01*
X0065491Y0002540D01*
X0065859Y0003329D01*
X0065859Y0003330D01*
X0066085Y0004171D01*
X0066085Y0004171D01*
X0066161Y0005039D01*
X0066161Y0005039D01*
X0066085Y0005907D01*
X0066085Y0005908D01*
X0065859Y0006749D01*
X0065859Y0006749D01*
X0065491Y0007539D01*
X0065491Y0007539D01*
X0065311Y0007797D01*
X0065311Y0007797D01*
X0063095Y0005581D01*
X0063007Y0005882D01*
X0062694Y0006368D01*
X0062258Y0006746D01*
X0061733Y0006986D01*
X0061718Y0006988D01*
X0063919Y0009189D01*
X0063919Y0009189D01*
X0063661Y0009369D01*
X0063174Y0009596D01*
X0062968Y0009778D01*
X0062893Y0010042D01*
X0062972Y0010305D01*
X0063174Y0010481D01*
X0063662Y0010708D01*
X0064376Y0011208D01*
X0064993Y0011825D01*
X0065493Y0012539D01*
X0065861Y0013329D01*
X0066087Y0014171D01*
X0066163Y0015039D01*
X0066087Y0015908D01*
X0065861Y0016750D01*
X0065493Y0017540D01*
X0064993Y0018254D01*
X0064376Y0018871D01*
X0063662Y0019371D01*
X0063177Y0019597D01*
X0062970Y0019779D01*
X0062895Y0020043D01*
X0062975Y0020307D01*
X0063177Y0020482D01*
X0063662Y0020708D01*
X0064376Y0021208D01*
X0064993Y0021825D01*
X0065493Y0022539D01*
X0065861Y0023329D01*
X0066087Y0024171D01*
X0066163Y0025039D01*
X0066087Y0025908D01*
X0065861Y0026750D01*
X0065493Y0027540D01*
X0064993Y0028254D01*
X0064376Y0028871D01*
X0063662Y0029371D01*
X0063177Y0029597D01*
X0062970Y0029779D01*
X0062895Y0030043D01*
X0062975Y0030307D01*
X0063177Y0030482D01*
X0063662Y0030708D01*
X0064376Y0031208D01*
X0064993Y0031825D01*
X0065493Y0032539D01*
X0065861Y0033329D01*
X0066087Y0034171D01*
X0066163Y0035039D01*
X0066087Y0035908D01*
X0065861Y0036750D01*
X0065493Y0037540D01*
X0064993Y0038254D01*
X0064376Y0038871D01*
X0063662Y0039371D01*
X0063177Y0039597D01*
X0062970Y0039779D01*
X0062895Y0040043D01*
X0062975Y0040307D01*
X0063177Y0040482D01*
X0063662Y0040708D01*
X0064376Y0041208D01*
X0064993Y0041825D01*
X0065493Y0042539D01*
X0065861Y0043329D01*
X0066087Y0044171D01*
X0066157Y0044978D01*
X0066163Y0045039D01*
X0066163Y0045039D01*
X0066094Y0045821D01*
X0066087Y0045908D01*
X0065861Y0046750D01*
X0065493Y0047540D01*
X0064993Y0048254D01*
X0064376Y0048871D01*
X0063662Y0049371D01*
X0063177Y0049597D01*
X0062970Y0049779D01*
X0062895Y0050043D01*
X0062975Y0050307D01*
X0063177Y0050482D01*
X0063662Y0050708D01*
X0064376Y0051208D01*
X0064993Y0051825D01*
X0065493Y0052539D01*
X0065606Y0052781D01*
X0065787Y0052987D01*
X0066052Y0053063D01*
X0066315Y0052983D01*
X0066411Y0052901D01*
X0066552Y0052745D01*
X0066835Y0052539D01*
X0067155Y0052307D01*
X0067155Y0052306D01*
X0067835Y0052003D01*
X0067835Y0052003D01*
X0068564Y0051848D01*
X0068564Y0051848D01*
X0069310Y0051848D01*
X0069310Y0051848D01*
X0070039Y0052003D01*
X0070719Y0052306D01*
X0071284Y0052717D01*
X0097026Y0052717D01*
X0097104Y0051975D01*
X0097104Y0051975D01*
X0097334Y0051267D01*
X0097334Y0051267D01*
X0097707Y0050621D01*
X0098205Y0050067D01*
X0098808Y0049629D01*
X0098808Y0049629D01*
X0099489Y0049326D01*
X0099489Y0049326D01*
X0100218Y0049171D01*
X0100218Y0049171D01*
X0100963Y0049171D01*
X0100963Y0049171D01*
X0101692Y0049326D01*
X0102373Y0049629D01*
X0102976Y0050067D01*
X0103475Y0050621D01*
X0103847Y0051267D01*
X0104077Y0051975D01*
X0104155Y0052717D01*
X0104077Y0053458D01*
X0103847Y0054166D01*
X0103475Y0054812D01*
X0102976Y0055366D01*
X0102976Y0055366D01*
X0102373Y0055804D01*
X0102373Y0055804D01*
X0101692Y0056107D01*
X0101692Y0056107D01*
X0101118Y0056229D01*
X0100963Y0056262D01*
X0100218Y0056262D01*
X0100090Y0056235D01*
X0099489Y0056107D01*
X0099489Y0056107D01*
X0098808Y0055804D01*
X0098808Y0055804D01*
X0098205Y0055366D01*
X0097707Y0054812D01*
X0097334Y0054166D01*
X0097334Y0054166D01*
X0097129Y0053535D01*
X0097104Y0053458D01*
X0097026Y0052717D01*
X0071284Y0052717D01*
X0071322Y0052745D01*
X0071821Y0053298D01*
X0072194Y0053944D01*
X0072424Y0054653D01*
X0072502Y0055394D01*
X0072424Y0056135D01*
X0072194Y0056844D01*
X0071917Y0057323D01*
X0076632Y0057323D01*
X0076710Y0056582D01*
X0076710Y0056582D01*
X0076940Y0055873D01*
X0076940Y0055873D01*
X0077313Y0055227D01*
X0077482Y0055039D01*
X0077812Y0054674D01*
X0078414Y0054236D01*
X0078414Y0054236D01*
X0079095Y0053933D01*
X0079095Y0053933D01*
X0079824Y0053778D01*
X0079824Y0053778D01*
X0080569Y0053778D01*
X0080569Y0053778D01*
X0081298Y0053933D01*
X0081979Y0054236D01*
X0082582Y0054674D01*
X0083081Y0055227D01*
X0083453Y0055873D01*
X0083684Y0056582D01*
X0083762Y0057323D01*
X0083684Y0058064D01*
X0083453Y0058773D01*
X0083081Y0059418D01*
X0082582Y0059972D01*
X0082582Y0059972D01*
X0081979Y0060410D01*
X0081979Y0060410D01*
X0081298Y0060713D01*
X0081298Y0060713D01*
X0080724Y0060835D01*
X0080569Y0060868D01*
X0079824Y0060868D01*
X0079696Y0060841D01*
X0079095Y0060713D01*
X0079095Y0060713D01*
X0078414Y0060410D01*
X0078414Y0060410D01*
X0077812Y0059972D01*
X0077313Y0059418D01*
X0076940Y0058773D01*
X0076940Y0058773D01*
X0076772Y0058254D01*
X0076710Y0058064D01*
X0076632Y0057323D01*
X0071917Y0057323D01*
X0071821Y0057489D01*
X0071322Y0058043D01*
X0071293Y0058064D01*
X0070719Y0058481D01*
X0070719Y0058481D01*
X0070039Y0058784D01*
X0070039Y0058784D01*
X0069465Y0058906D01*
X0069310Y0058939D01*
X0068564Y0058939D01*
X0068437Y0058912D01*
X0067835Y0058784D01*
X0067835Y0058784D01*
X0067155Y0058481D01*
X0067155Y0058481D01*
X0066552Y0058043D01*
X0066169Y0057617D01*
X0065934Y0057473D01*
X0065659Y0057478D01*
X0065431Y0057631D01*
X0065406Y0057664D01*
X0064993Y0058254D01*
X0064376Y0058871D01*
X0063662Y0059371D01*
X0063662Y0059371D01*
X0063174Y0059598D01*
X0062968Y0059780D01*
X0062893Y0060044D01*
X0062972Y0060308D01*
X0063174Y0060483D01*
X0063661Y0060710D01*
X0063661Y0060710D01*
X0063919Y0060890D01*
X0061718Y0063091D01*
X0061733Y0063093D01*
X0062258Y0063333D01*
X0062694Y0063711D01*
X0063007Y0064197D01*
X0063095Y0064498D01*
X0065311Y0062282D01*
X0065491Y0062540D01*
X0065859Y0063329D01*
X0065859Y0063330D01*
X0066085Y0064171D01*
X0066085Y0064171D01*
X0066161Y0065039D01*
X0066161Y0065039D01*
X0066085Y0065907D01*
X0066085Y0065908D01*
X0065859Y0066749D01*
X0065859Y0066749D01*
X0065491Y0067539D01*
X0065491Y0067539D01*
X0065311Y0067797D01*
X0065311Y0067797D01*
X0063095Y0065581D01*
X0063007Y0065882D01*
X0062694Y0066368D01*
X0062258Y0066746D01*
X0061733Y0066986D01*
X0061718Y0066988D01*
X0063919Y0069189D01*
X0063917Y0069206D01*
X0063775Y0069384D01*
X0063747Y0069657D01*
X0063871Y0069903D01*
X0064108Y0070042D01*
X0064227Y0070057D01*
X0064362Y0070057D01*
X0064596Y0070082D01*
X0065127Y0070280D01*
X0065581Y0070620D01*
X0065920Y0071074D01*
X0066118Y0071604D01*
X0066144Y0071839D01*
X0066144Y0078240D01*
X0066118Y0078474D01*
X0065971Y0078871D01*
X0065920Y0079005D01*
X0065920Y0079005D01*
X0065581Y0079459D01*
X0065581Y0079459D01*
X0065127Y0079798D01*
X0065127Y0079798D01*
X0064596Y0079996D01*
X0064596Y0079996D01*
X0064362Y0080022D01*
X0064362Y0080022D01*
X0064362Y0080022D01*
X0064362Y0080022D01*
X0057961Y0080022D01*
X0057961Y0080022D01*
X0057726Y0079996D01*
X0057196Y0079798D01*
X0057196Y0079798D01*
X0056742Y0079459D01*
X0056742Y0079459D01*
X0056402Y0079005D01*
X0056402Y0079005D01*
X0056204Y0078474D01*
X0056181Y0078254D01*
X0056179Y0078240D01*
X0056179Y0078240D01*
X0056179Y0071839D01*
X0056179Y0071839D01*
X0056204Y0071604D01*
X0056402Y0071074D01*
X0056402Y0071073D01*
X0056742Y0070620D01*
X0056742Y0070620D01*
X0057196Y0070280D01*
X0057196Y0070280D01*
X0057726Y0070082D01*
X0057726Y0070082D01*
X0057754Y0070079D01*
X0057961Y0070057D01*
X0058096Y0070057D01*
X0058360Y0069980D01*
X0058540Y0069772D01*
X0058579Y0069499D01*
X0058465Y0069249D01*
X0058405Y0069195D01*
X0058404Y0069189D01*
X0060605Y0066988D01*
X0060590Y0066986D01*
X0060065Y0066746D01*
X0059628Y0066368D01*
X0059316Y0065882D01*
X0059228Y0065581D01*
X0057012Y0067797D01*
X0056832Y0067539D01*
X0056464Y0066749D01*
X0056464Y0066749D01*
X0056238Y0065908D01*
X0056238Y0065907D01*
X0056162Y0065039D01*
X0056162Y0065039D01*
X0056238Y0064171D01*
X0056238Y0064171D01*
X0056464Y0063330D01*
X0056464Y0063329D01*
X0056832Y0062540D01*
X0057012Y0062282D01*
X0057012Y0062282D01*
X0059228Y0064498D01*
X0059316Y0064197D01*
X0059628Y0063711D01*
X0060065Y0063333D01*
X0060590Y0063093D01*
X0060605Y0063091D01*
X0058404Y0060890D01*
X0058662Y0060710D01*
X0058662Y0060710D01*
X0059148Y0060483D01*
X0059355Y0060301D01*
X0059430Y0060037D01*
X0059351Y0059773D01*
X0059148Y0059598D01*
X0058661Y0059371D01*
X0057947Y0058871D01*
X0057330Y0058254D01*
X0056830Y0057540D01*
X0056830Y0057540D01*
X0056462Y0056750D01*
X0056462Y0056750D01*
X0056236Y0055908D01*
X0056236Y0055908D01*
X0056160Y0055039D01*
X0056160Y0055039D01*
X0056236Y0054171D01*
X0056236Y0054171D01*
X0056462Y0053329D01*
X0056462Y0053329D01*
X0056734Y0052745D01*
X0056830Y0052539D01*
X0057330Y0051825D01*
X0057947Y0051208D01*
X0058661Y0050708D01*
X0058847Y0050621D01*
X0059146Y0050482D01*
X0059352Y0050300D01*
X0059428Y0050036D01*
X0059348Y0049772D01*
X0059146Y0049597D01*
X0058661Y0049371D01*
X0058661Y0049371D01*
X0057947Y0048871D01*
X0057330Y0048254D01*
X0056830Y0047540D01*
X0056830Y0047540D01*
X0056462Y0046750D01*
X0056462Y0046750D01*
X0056236Y0045908D01*
X0056236Y0045908D01*
X0056160Y0045039D01*
X0056160Y0045039D01*
X0056236Y0044171D01*
X0056236Y0044171D01*
X0056462Y0043329D01*
X0056462Y0043329D01*
X0056659Y0042905D01*
X0056830Y0042539D01*
X0057330Y0041825D01*
X0057947Y0041208D01*
X0058661Y0040708D01*
X0058905Y0040594D01*
X0059146Y0040482D01*
X0059352Y0040300D01*
X0059428Y0040036D01*
X0059348Y0039772D01*
X0059146Y0039597D01*
X0058661Y0039371D01*
X0058661Y0039371D01*
X0057947Y0038871D01*
X0057330Y0038254D01*
X0056830Y0037540D01*
X0056830Y0037540D01*
X0056462Y0036750D01*
X0056462Y0036750D01*
X0056236Y0035908D01*
X0056236Y0035908D01*
X0056160Y0035039D01*
X0056160Y0035039D01*
X0056236Y0034171D01*
X0056236Y0034171D01*
X0056462Y0033329D01*
X0056462Y0033329D01*
X0056819Y0032563D01*
X0056830Y0032539D01*
X0057330Y0031825D01*
X0057947Y0031208D01*
X0058661Y0030708D01*
X0058905Y0030594D01*
X0059146Y0030482D01*
X0059352Y0030300D01*
X0059428Y0030036D01*
X0059348Y0029772D01*
X0059146Y0029597D01*
X0058661Y0029371D01*
X0058661Y0029371D01*
X0057947Y0028871D01*
X0057330Y0028254D01*
X0056830Y0027540D01*
X0056830Y0027540D01*
X0056462Y0026750D01*
X0056462Y0026750D01*
X0056236Y0025908D01*
X0056236Y0025908D01*
X0056160Y0025039D01*
X0056160Y0025039D01*
X0056236Y0024171D01*
X0056236Y0024171D01*
X0056462Y0023329D01*
X0056462Y0023329D01*
X0056819Y0022563D01*
X0056830Y0022539D01*
X0057330Y0021825D01*
X0057947Y0021208D01*
X0058661Y0020708D01*
X0058905Y0020594D01*
X0059146Y0020482D01*
X0059352Y0020300D01*
X0059428Y0020036D01*
X0059348Y0019772D01*
X0059146Y0019597D01*
X0058661Y0019371D01*
X0058661Y0019371D01*
X0057947Y0018871D01*
X0057330Y0018254D01*
X0056830Y0017540D01*
X0056830Y0017540D01*
X0056462Y0016750D01*
X0056462Y0016750D01*
X0056236Y0015908D01*
X0056236Y0015908D01*
X0056160Y0015039D01*
X0056160Y0015039D01*
X0056236Y0014171D01*
X0056236Y0014171D01*
X0056462Y0013329D01*
X0056462Y0013329D01*
X0056583Y0013069D01*
X0056830Y0012539D01*
X0057330Y0011825D01*
X0057947Y0011208D01*
X0058661Y0010708D01*
X0059148Y0010481D01*
X0059355Y0010299D01*
X0059430Y0010034D01*
X0059351Y0009771D01*
X0059148Y0009596D01*
X0058662Y0009369D01*
X0058404Y0009189D01*
X0060605Y0006988D01*
X0060590Y0006986D01*
X0060065Y0006746D01*
X0059628Y0006368D01*
X0059316Y0005882D01*
X0059228Y0005581D01*
X0057012Y0007797D01*
X0056832Y0007539D01*
X0056464Y0006749D01*
X0056464Y0006749D01*
X0056238Y0005908D01*
X0056238Y0005907D01*
X0056162Y0005039D01*
X0056162Y0005039D01*
X0056238Y0004171D01*
X0056238Y0004171D01*
X0056464Y0003330D01*
X0056464Y0003329D01*
X0056832Y0002540D01*
X0057012Y0002282D01*
X0057012Y0002282D01*
X0059228Y0004498D01*
X0059316Y0004197D01*
X0059628Y0003711D01*
X0060065Y0003333D01*
X0060590Y0003093D01*
X0060605Y0003091D01*
X0058404Y0000890D01*
X0058406Y0000873D01*
X0058548Y0000695D01*
X0058576Y0000421D01*
X0058452Y0000176D01*
X0058215Y0000036D01*
X0058096Y0000022D01*
X0056141Y0000022D01*
X0000490Y0000002D01*
X0000226Y0000080D01*
X0000046Y0000287D01*
X0000002Y0000490D01*
X0000002Y0017795D01*
X0015549Y0017795D01*
X0015629Y0016923D01*
X0015629Y0016923D01*
X0015869Y0016081D01*
X0015869Y0016081D01*
X0016260Y0015297D01*
X0016260Y0015296D01*
X0016787Y0014597D01*
X0017435Y0014007D01*
X0017435Y0014007D01*
X0018180Y0013546D01*
X0018180Y0013546D01*
X0018180Y0013546D01*
X0018996Y0013230D01*
X0019857Y0013069D01*
X0019857Y0013069D01*
X0020733Y0013069D01*
X0020733Y0013069D01*
X0021594Y0013230D01*
X0022411Y0013546D01*
X0023156Y0014007D01*
X0023803Y0014597D01*
X0024331Y0015297D01*
X0024721Y0016081D01*
X0024961Y0016923D01*
X0025042Y0017795D01*
X0024961Y0018667D01*
X0024721Y0019510D01*
X0024721Y0019510D01*
X0024331Y0020294D01*
X0024331Y0020294D01*
X0023803Y0020993D01*
X0023156Y0021583D01*
X0023156Y0021583D01*
X0022411Y0022044D01*
X0022411Y0022044D01*
X0022311Y0022083D01*
X0021594Y0022361D01*
X0020733Y0022522D01*
X0019857Y0022522D01*
X0018996Y0022361D01*
X0018480Y0022161D01*
X0018180Y0022044D01*
X0018180Y0022044D01*
X0017435Y0021583D01*
X0017435Y0021583D01*
X0016787Y0020993D01*
X0016260Y0020294D01*
X0016260Y0020294D01*
X0015869Y0019510D01*
X0015869Y0019510D01*
X0015629Y0018667D01*
X0015629Y0018667D01*
X0015549Y0017795D01*
X0015549Y0017795D01*
X0000002Y0017795D01*
X0000002Y0046693D01*
X0015667Y0046693D01*
X0015748Y0045821D01*
X0015748Y0045821D01*
X0015987Y0044978D01*
X0015987Y0044978D01*
X0016378Y0044194D01*
X0016378Y0044194D01*
X0016906Y0043495D01*
X0017553Y0042905D01*
X0017553Y0042905D01*
X0018298Y0042444D01*
X0018298Y0042444D01*
X0018298Y0042444D01*
X0019114Y0042127D01*
X0019975Y0041967D01*
X0019975Y0041967D01*
X0020851Y0041967D01*
X0020851Y0041967D01*
X0021712Y0042127D01*
X0022529Y0042444D01*
X0023274Y0042905D01*
X0023921Y0043495D01*
X0024449Y0044194D01*
X0024839Y0044978D01*
X0025079Y0045821D01*
X0025160Y0046693D01*
X0025079Y0047565D01*
X0024839Y0048408D01*
X0024459Y0049171D01*
X0024449Y0049192D01*
X0024449Y0049192D01*
X0023921Y0049891D01*
X0023274Y0050481D01*
X0023274Y0050481D01*
X0022529Y0050942D01*
X0022529Y0050942D01*
X0021712Y0051258D01*
X0020851Y0051419D01*
X0019975Y0051419D01*
X0019114Y0051258D01*
X0018985Y0051208D01*
X0018298Y0050942D01*
X0018298Y0050942D01*
X0017553Y0050481D01*
X0017553Y0050481D01*
X0016906Y0049891D01*
X0016378Y0049192D01*
X0016378Y0049192D01*
X0015987Y0048408D01*
X0015987Y0048408D01*
X0015748Y0047565D01*
X0015748Y0047565D01*
X0015667Y0046693D01*
X0015667Y0046693D01*
X0000002Y0046693D01*
X0000002Y0092283D01*
X0057320Y0092283D01*
X0057401Y0091411D01*
X0057401Y0091411D01*
X0057641Y0090569D01*
X0057641Y0090569D01*
X0058031Y0089785D01*
X0058031Y0089785D01*
X0058559Y0089086D01*
X0059206Y0088496D01*
X0059206Y0088496D01*
X0059951Y0088034D01*
X0059951Y0088034D01*
X0059951Y0088034D01*
X0060768Y0087718D01*
X0061629Y0087557D01*
X0061629Y0087557D01*
X0062505Y0087557D01*
X0062505Y0087557D01*
X0063366Y0087718D01*
X0064183Y0088034D01*
X0064927Y0088496D01*
X0065575Y0089086D01*
X0066103Y0089785D01*
X0066493Y0090569D01*
X0066733Y0091411D01*
X0066814Y0092283D01*
X0066733Y0093156D01*
X0066493Y0093998D01*
X0066493Y0093998D01*
X0066103Y0094782D01*
X0066103Y0094782D01*
X0065575Y0095481D01*
X0064927Y0096071D01*
X0064927Y0096071D01*
X0064183Y0096532D01*
X0064183Y0096532D01*
X0063366Y0096849D01*
X0062505Y0097010D01*
X0061629Y0097010D01*
X0060768Y0096849D01*
X0060251Y0096649D01*
X0059951Y0096532D01*
X0059951Y0096532D01*
X0059206Y0096071D01*
X0059206Y0096071D01*
X0058559Y0095481D01*
X0058031Y0094782D01*
X0058031Y0094782D01*
X0057641Y0093998D01*
X0057641Y0093998D01*
X0057401Y0093156D01*
X0057401Y0093156D01*
X0057320Y0092283D01*
X0057320Y0092283D01*
X0000002Y0092283D01*
X0000002Y0104547D01*
X0024761Y0104547D01*
X0024842Y0103675D01*
X0024842Y0103675D01*
X0025082Y0102833D01*
X0025082Y0102833D01*
X0025472Y0102048D01*
X0025472Y0102048D01*
X0026000Y0101349D01*
X0026647Y0100759D01*
X0026647Y0100759D01*
X0027392Y0100298D01*
X0027392Y0100298D01*
X0027392Y0100298D01*
X0028209Y0099982D01*
X0029070Y0099821D01*
X0029070Y0099821D01*
X0029946Y0099821D01*
X0029946Y0099821D01*
X0030807Y0099982D01*
X0031624Y0100298D01*
X0032318Y0100728D01*
X0038029Y0100728D01*
X0038109Y0100023D01*
X0038109Y0100023D01*
X0038343Y0099352D01*
X0038721Y0098751D01*
X0039223Y0098249D01*
X0039825Y0097871D01*
X0040495Y0097636D01*
X0040495Y0097636D01*
X0041201Y0097557D01*
X0041201Y0097557D01*
X0041201Y0097557D01*
X0041906Y0097636D01*
X0041907Y0097636D01*
X0041907Y0097636D01*
X0042577Y0097871D01*
X0043178Y0098249D01*
X0043178Y0098249D01*
X0043192Y0098260D01*
X0043446Y0098364D01*
X0043496Y0098366D01*
X0073157Y0098366D01*
X0073421Y0098289D01*
X0073462Y0098260D01*
X0073475Y0098249D01*
X0073475Y0098249D01*
X0074077Y0097871D01*
X0074747Y0097636D01*
X0074747Y0097636D01*
X0075453Y0097557D01*
X0075453Y0097557D01*
X0075453Y0097557D01*
X0076158Y0097636D01*
X0076158Y0097636D01*
X0076158Y0097636D01*
X0076829Y0097871D01*
X0077430Y0098249D01*
X0077932Y0098751D01*
X0078310Y0099352D01*
X0078545Y0100023D01*
X0078624Y0100728D01*
X0078621Y0100759D01*
X0078545Y0101434D01*
X0078545Y0101434D01*
X0078330Y0102048D01*
X0078310Y0102104D01*
X0077932Y0102706D01*
X0077430Y0103208D01*
X0076860Y0103566D01*
X0076829Y0103586D01*
X0076829Y0103586D01*
X0076624Y0103657D01*
X0076567Y0103677D01*
X0076344Y0103838D01*
X0076242Y0104093D01*
X0076240Y0104138D01*
X0076240Y0104799D01*
X0076318Y0105063D01*
X0076526Y0105243D01*
X0076567Y0105260D01*
X0076598Y0105270D01*
X0076829Y0105351D01*
X0077430Y0105729D01*
X0077932Y0106231D01*
X0078310Y0106833D01*
X0078545Y0107503D01*
X0078624Y0108209D01*
X0078610Y0108335D01*
X0078602Y0108406D01*
X0081848Y0108406D01*
X0081929Y0107533D01*
X0081929Y0107533D01*
X0082168Y0106691D01*
X0082168Y0106691D01*
X0082559Y0105907D01*
X0082559Y0105907D01*
X0083087Y0105208D01*
X0083734Y0104618D01*
X0083734Y0104618D01*
X0084479Y0104157D01*
X0084479Y0104157D01*
X0084479Y0104157D01*
X0085296Y0103840D01*
X0086157Y0103679D01*
X0086157Y0103679D01*
X0087032Y0103679D01*
X0087032Y0103679D01*
X0087893Y0103840D01*
X0088710Y0104157D01*
X0089455Y0104618D01*
X0090102Y0105208D01*
X0090630Y0105907D01*
X0091021Y0106691D01*
X0091260Y0107533D01*
X0091341Y0108406D01*
X0091305Y0108796D01*
X0091260Y0109278D01*
X0091260Y0109278D01*
X0091173Y0109585D01*
X0091021Y0110120D01*
X0091021Y0110120D01*
X0090630Y0110904D01*
X0090630Y0110904D01*
X0090102Y0111603D01*
X0089455Y0112193D01*
X0089455Y0112193D01*
X0088710Y0112655D01*
X0088710Y0112655D01*
X0087893Y0112971D01*
X0087032Y0113132D01*
X0086157Y0113132D01*
X0085296Y0112971D01*
X0084779Y0112771D01*
X0084479Y0112655D01*
X0084479Y0112655D01*
X0083734Y0112193D01*
X0083734Y0112193D01*
X0083087Y0111603D01*
X0082559Y0110904D01*
X0082559Y0110904D01*
X0082168Y0110120D01*
X0082168Y0110120D01*
X0081929Y0109278D01*
X0081929Y0109278D01*
X0081848Y0108406D01*
X0081848Y0108406D01*
X0078602Y0108406D01*
X0078545Y0108914D01*
X0078545Y0108914D01*
X0078310Y0109585D01*
X0077932Y0110186D01*
X0077430Y0110688D01*
X0077430Y0110688D01*
X0076829Y0111066D01*
X0076158Y0111301D01*
X0076158Y0111301D01*
X0075453Y0111380D01*
X0075453Y0111380D01*
X0074747Y0111301D01*
X0074747Y0111301D01*
X0074077Y0111066D01*
X0073475Y0110688D01*
X0073462Y0110677D01*
X0073207Y0110573D01*
X0073157Y0110571D01*
X0040413Y0110571D01*
X0040413Y0107681D01*
X0040336Y0107418D01*
X0040128Y0107237D01*
X0040086Y0107221D01*
X0039825Y0107129D01*
X0039825Y0107129D01*
X0039223Y0106751D01*
X0038721Y0106249D01*
X0038343Y0105648D01*
X0038109Y0104977D01*
X0038109Y0104977D01*
X0038029Y0104272D01*
X0038029Y0104272D01*
X0038109Y0103566D01*
X0038109Y0103566D01*
X0038343Y0102896D01*
X0038429Y0102760D01*
X0038504Y0102495D01*
X0038429Y0102240D01*
X0038343Y0102104D01*
X0038109Y0101434D01*
X0038109Y0101434D01*
X0038029Y0100728D01*
X0038029Y0100728D01*
X0032318Y0100728D01*
X0032368Y0100759D01*
X0033016Y0101349D01*
X0033544Y0102048D01*
X0033934Y0102833D01*
X0034174Y0103675D01*
X0034254Y0104547D01*
X0034248Y0104618D01*
X0034174Y0105419D01*
X0034174Y0105419D01*
X0034109Y0105648D01*
X0033934Y0106262D01*
X0033650Y0106833D01*
X0033544Y0107046D01*
X0033544Y0107046D01*
X0033016Y0107745D01*
X0032368Y0108335D01*
X0032368Y0108335D01*
X0031624Y0108796D01*
X0031624Y0108796D01*
X0030807Y0109113D01*
X0029946Y0109274D01*
X0029070Y0109274D01*
X0028209Y0109113D01*
X0027697Y0108914D01*
X0027392Y0108796D01*
X0027392Y0108796D01*
X0026647Y0108335D01*
X0026647Y0108335D01*
X0026000Y0107745D01*
X0025472Y0107046D01*
X0025472Y0107046D01*
X0025082Y0106262D01*
X0025082Y0106262D01*
X0024842Y0105419D01*
X0024842Y0105419D01*
X0024761Y0104547D01*
X0024761Y0104547D01*
X0000002Y0104547D01*
X0000002Y0119035D01*
X0024761Y0119035D01*
X0024842Y0118163D01*
X0024842Y0118163D01*
X0025082Y0117321D01*
X0025082Y0117321D01*
X0025472Y0116537D01*
X0025472Y0116537D01*
X0026000Y0115838D01*
X0026647Y0115248D01*
X0026647Y0115248D01*
X0027392Y0114786D01*
X0027392Y0114786D01*
X0027392Y0114786D01*
X0028209Y0114470D01*
X0029070Y0114309D01*
X0029070Y0114309D01*
X0029946Y0114309D01*
X0029946Y0114309D01*
X0030807Y0114470D01*
X0031624Y0114786D01*
X0032368Y0115248D01*
X0032701Y0115551D01*
X0037734Y0115551D01*
X0037814Y0114845D01*
X0037814Y0114845D01*
X0038048Y0114175D01*
X0038426Y0113574D01*
X0038928Y0113072D01*
X0039529Y0112694D01*
X0040200Y0112459D01*
X0040200Y0112459D01*
X0040905Y0112380D01*
X0040906Y0112380D01*
X0040906Y0112380D01*
X0041611Y0112459D01*
X0041611Y0112459D01*
X0041611Y0112459D01*
X0042282Y0112694D01*
X0042883Y0113072D01*
X0042883Y0113072D01*
X0042897Y0113082D01*
X0043151Y0113186D01*
X0043201Y0113189D01*
X0072862Y0113189D01*
X0073126Y0113111D01*
X0073166Y0113082D01*
X0073180Y0113072D01*
X0073180Y0113072D01*
X0073781Y0112694D01*
X0074452Y0112459D01*
X0074452Y0112459D01*
X0075157Y0112380D01*
X0075157Y0112380D01*
X0075157Y0112380D01*
X0075863Y0112459D01*
X0075863Y0112459D01*
X0075863Y0112459D01*
X0076534Y0112694D01*
X0077135Y0113072D01*
X0077637Y0113574D01*
X0078015Y0114175D01*
X0078249Y0114845D01*
X0078295Y0115248D01*
X0078329Y0115551D01*
X0078329Y0115551D01*
X0078249Y0116257D01*
X0078249Y0116257D01*
X0078152Y0116537D01*
X0078015Y0116927D01*
X0077637Y0117529D01*
X0077135Y0118031D01*
X0076565Y0118389D01*
X0076534Y0118409D01*
X0076534Y0118409D01*
X0076272Y0118500D01*
X0076048Y0118661D01*
X0075947Y0118916D01*
X0075945Y0118961D01*
X0075945Y0119622D01*
X0076022Y0119886D01*
X0076230Y0120066D01*
X0076272Y0120082D01*
X0076302Y0120093D01*
X0076534Y0120174D01*
X0077135Y0120552D01*
X0077637Y0121054D01*
X0078015Y0121655D01*
X0078249Y0122326D01*
X0078277Y0122573D01*
X0078329Y0123031D01*
X0078329Y0123032D01*
X0078282Y0123445D01*
X0081848Y0123445D01*
X0081929Y0122573D01*
X0081929Y0122573D01*
X0082168Y0121730D01*
X0082168Y0121730D01*
X0082559Y0120946D01*
X0082559Y0120946D01*
X0083087Y0120247D01*
X0083734Y0119657D01*
X0083734Y0119657D01*
X0084479Y0119196D01*
X0084479Y0119196D01*
X0084479Y0119196D01*
X0085296Y0118879D01*
X0086157Y0118719D01*
X0086157Y0118719D01*
X0087032Y0118719D01*
X0087032Y0118719D01*
X0087893Y0118879D01*
X0088710Y0119196D01*
X0089455Y0119657D01*
X0090102Y0120247D01*
X0090630Y0120946D01*
X0091021Y0121730D01*
X0091260Y0122573D01*
X0091341Y0123445D01*
X0091260Y0124317D01*
X0091021Y0125160D01*
X0091021Y0125160D01*
X0090630Y0125944D01*
X0090630Y0125944D01*
X0090102Y0126643D01*
X0089455Y0127233D01*
X0089455Y0127233D01*
X0088710Y0127694D01*
X0088710Y0127694D01*
X0087893Y0128010D01*
X0087032Y0128171D01*
X0086157Y0128171D01*
X0085296Y0128010D01*
X0084779Y0127810D01*
X0084479Y0127694D01*
X0084479Y0127694D01*
X0083734Y0127233D01*
X0083734Y0127233D01*
X0083087Y0126643D01*
X0082559Y0125944D01*
X0082559Y0125944D01*
X0082168Y0125160D01*
X0082168Y0125160D01*
X0081929Y0124317D01*
X0081929Y0124317D01*
X0081848Y0123445D01*
X0081848Y0123445D01*
X0078282Y0123445D01*
X0078249Y0123737D01*
X0078249Y0123737D01*
X0078015Y0124408D01*
X0077637Y0125009D01*
X0077135Y0125511D01*
X0076534Y0125889D01*
X0075863Y0126124D01*
X0075863Y0126124D01*
X0075157Y0126203D01*
X0075157Y0126203D01*
X0074452Y0126124D01*
X0074452Y0126124D01*
X0073781Y0125889D01*
X0073180Y0125511D01*
X0073166Y0125500D01*
X0072912Y0125396D01*
X0072862Y0125394D01*
X0040118Y0125394D01*
X0040118Y0122504D01*
X0040041Y0122240D01*
X0039833Y0122060D01*
X0039791Y0122044D01*
X0039529Y0121952D01*
X0039529Y0121952D01*
X0038928Y0121574D01*
X0038426Y0121072D01*
X0038048Y0120471D01*
X0037814Y0119800D01*
X0037814Y0119800D01*
X0037734Y0119095D01*
X0037734Y0119094D01*
X0037814Y0118389D01*
X0037814Y0118389D01*
X0038048Y0117718D01*
X0038133Y0117583D01*
X0038208Y0117318D01*
X0038133Y0117063D01*
X0038048Y0116927D01*
X0037814Y0116257D01*
X0037814Y0116257D01*
X0037734Y0115551D01*
X0037734Y0115551D01*
X0032701Y0115551D01*
X0033016Y0115838D01*
X0033544Y0116537D01*
X0033934Y0117321D01*
X0034174Y0118163D01*
X0034254Y0119035D01*
X0034174Y0119908D01*
X0033934Y0120750D01*
X0033783Y0121054D01*
X0033544Y0121534D01*
X0033544Y0121534D01*
X0033016Y0122233D01*
X0032368Y0122823D01*
X0032368Y0122823D01*
X0031624Y0123284D01*
X0031624Y0123284D01*
X0030807Y0123601D01*
X0029946Y0123762D01*
X0029070Y0123762D01*
X0028209Y0123601D01*
X0027692Y0123401D01*
X0027392Y0123284D01*
X0027392Y0123284D01*
X0026647Y0122823D01*
X0026647Y0122823D01*
X0026000Y0122233D01*
X0025472Y0121534D01*
X0025472Y0121534D01*
X0025082Y0120750D01*
X0025082Y0120750D01*
X0024842Y0119908D01*
X0024842Y0119908D01*
X0024761Y0119035D01*
X0024761Y0119035D01*
X0000002Y0119035D01*
X0000002Y0133093D01*
X0000079Y0133356D01*
X0000287Y0133537D01*
X0000490Y0133581D01*
X0115809Y0133581D01*
X0116073Y0133503D01*
G37*
X0039724Y0125787D02*
G01*
G75*
G36*
X0074944Y0113385D02*
X0074312Y0113511D01*
X0073596Y0113990D01*
X0073492Y0114146D01*
X0068994Y0114146D01*
X0068456Y0114253D01*
X0068000Y0114557D01*
X0067625Y0114932D01*
X0066980Y0114742D01*
X0066661Y0114264D01*
X0066075Y0113873D01*
X0065384Y0113735D01*
X0064693Y0113873D01*
X0064107Y0114264D01*
X0063715Y0114850D01*
X0063578Y0115541D01*
X0063715Y0116233D01*
X0063899Y0116508D01*
X0063583Y0117099D01*
X0062152Y0117099D01*
X0061869Y0116816D01*
X0061413Y0116511D01*
X0060876Y0116404D01*
X0057183Y0116404D01*
X0056788Y0116140D01*
X0056097Y0116003D01*
X0055406Y0116140D01*
X0054820Y0116532D01*
X0054428Y0117118D01*
X0054291Y0117809D01*
X0054428Y0118500D01*
X0054820Y0119086D01*
X0055406Y0119478D01*
X0056097Y0119615D01*
X0056788Y0119478D01*
X0057183Y0119214D01*
X0060294Y0119214D01*
X0060577Y0119497D01*
X0061033Y0119802D01*
X0061570Y0119909D01*
X0066041Y0119909D01*
X0066579Y0119802D01*
X0067034Y0119497D01*
X0069575Y0116956D01*
X0073492Y0116956D01*
X0073596Y0117112D01*
X0074312Y0117591D01*
X0075157Y0117759D01*
X0075157Y0120823D01*
X0074312Y0120991D01*
X0073596Y0121470D01*
X0073117Y0122186D01*
X0072949Y0123031D01*
X0073117Y0123876D01*
X0073596Y0124592D01*
X0074312Y0125071D01*
X0074944Y0125196D01*
X0074885Y0125787D01*
X0039724Y0125787D01*
X0039724Y0121565D01*
X0040217Y0121248D01*
X0040772Y0121482D01*
X0040675Y0121969D01*
X0040813Y0122660D01*
X0041204Y0123246D01*
X0041790Y0123638D01*
X0042481Y0123775D01*
X0043173Y0123638D01*
X0043759Y0123246D01*
X0044150Y0122660D01*
X0044288Y0121969D01*
X0044150Y0121278D01*
X0043759Y0120692D01*
X0043339Y0120411D01*
X0043137Y0120169D01*
X0043000Y0119663D01*
X0043113Y0119094D01*
X0042945Y0118249D01*
X0042600Y0117733D01*
X0042512Y0117322D01*
X0042600Y0116912D01*
X0042945Y0116396D01*
X0043113Y0115551D01*
X0042945Y0114706D01*
X0042466Y0113990D01*
X0041750Y0113511D01*
X0041118Y0113385D01*
X0041177Y0112795D01*
X0074886Y0112795D01*
X0074944Y0113385D01*
D02*
G37*
%LPC*%
G36*
X0050590Y0121126D02*
X0049899Y0121264D01*
X0049313Y0121655D01*
X0048921Y0122241D01*
X0048784Y0122933D01*
X0048921Y0123624D01*
X0049313Y0124210D01*
X0049899Y0124602D01*
X0050590Y0124739D01*
X0051281Y0124602D01*
X0051867Y0124210D01*
X0052259Y0123624D01*
X0052397Y0122933D01*
X0052259Y0122241D01*
X0051867Y0121655D01*
X0051281Y0121264D01*
X0050590Y0121126D01*
D02*
G37*
%LPD*%
D17*
X0058031Y0113189D02*
D03*
X0058031Y0125393D02*
D03*
D16*
X0040118Y0123326D02*
D03*
D31*
X0068994Y0115551D02*
X0075157Y0115551D01*
X0061570Y0118504D02*
X0066041Y0118504D01*
X0068994Y0115551D01*
X0056097Y0117809D02*
X0060876Y0117809D01*
X0061570Y0118504D01*
D15*
X0075157Y0115551D02*
D03*
X0075157Y0119291D02*
D03*
X0056097Y0117809D02*
D03*
X0040964Y0124502D02*
D03*
X0053666Y0119940D02*
D03*
X0050927Y0118884D02*
D03*
X0040020Y0110965D02*
G01*
G75*
G36*
X0075240Y0098563D02*
X0074608Y0098689D01*
X0073892Y0099168D01*
X0073788Y0099324D01*
X0069290Y0099324D01*
X0068752Y0099431D01*
X0068296Y0099735D01*
X0067921Y0100110D01*
X0067276Y0099920D01*
X0066957Y0099442D01*
X0066371Y0099051D01*
X0065680Y0098913D01*
X0064989Y0099051D01*
X0064403Y0099442D01*
X0064011Y0100028D01*
X0063874Y0100719D01*
X0064011Y0101411D01*
X0064195Y0101686D01*
X0063879Y0102277D01*
X0062448Y0102277D01*
X0062165Y0101994D01*
X0061709Y0101689D01*
X0061172Y0101582D01*
X0057479Y0101582D01*
X0057084Y0101318D01*
X0056393Y0101181D01*
X0055702Y0101318D01*
X0055116Y0101710D01*
X0054724Y0102296D01*
X0054587Y0102987D01*
X0054724Y0103678D01*
X0055116Y0104264D01*
X0055702Y0104656D01*
X0056393Y0104793D01*
X0057084Y0104656D01*
X0057479Y0104392D01*
X0060590Y0104392D01*
X0060873Y0104675D01*
X0061329Y0104980D01*
X0061866Y0105087D01*
X0066337Y0105087D01*
X0066875Y0104980D01*
X0067330Y0104675D01*
X0069871Y0102134D01*
X0073788Y0102134D01*
X0073892Y0102290D01*
X0074608Y0102769D01*
X0075453Y0102937D01*
X0075453Y0106001D01*
X0074608Y0106169D01*
X0073892Y0106648D01*
X0073413Y0107364D01*
X0073245Y0108209D01*
X0073413Y0109054D01*
X0073892Y0109770D01*
X0074608Y0110249D01*
X0075240Y0110374D01*
X0075181Y0110965D01*
X0040020Y0110965D01*
X0040020Y0106743D01*
X0040513Y0106426D01*
X0041068Y0106660D01*
X0040971Y0107147D01*
X0041109Y0107838D01*
X0041500Y0108424D01*
X0042086Y0108816D01*
X0042777Y0108953D01*
X0043469Y0108816D01*
X0044055Y0108424D01*
X0044446Y0107838D01*
X0044584Y0107147D01*
X0044446Y0106456D01*
X0044055Y0105870D01*
X0043635Y0105589D01*
X0043433Y0105347D01*
X0043296Y0104841D01*
X0043409Y0104272D01*
X0043241Y0103427D01*
X0042896Y0102911D01*
X0042808Y0102500D01*
X0042896Y0102090D01*
X0043241Y0101574D01*
X0043409Y0100729D01*
X0043241Y0099884D01*
X0042762Y0099168D01*
X0042046Y0098689D01*
X0041414Y0098563D01*
X0041473Y0097973D01*
X0075182Y0097973D01*
X0075240Y0098563D01*
D02*
G37*
%LPC*%
G36*
X0050886Y0106304D02*
X0050195Y0106442D01*
X0049609Y0106833D01*
X0049217Y0107419D01*
X0049080Y0108111D01*
X0049217Y0108802D01*
X0049609Y0109388D01*
X0050195Y0109780D01*
X0050886Y0109917D01*
X0051577Y0109780D01*
X0052163Y0109388D01*
X0052555Y0108802D01*
X0052693Y0108111D01*
X0052555Y0107419D01*
X0052163Y0106833D01*
X0051577Y0106442D01*
X0050886Y0106304D01*
D02*
G37*
%LPD*%
D17*
X0058327Y0098367D02*
D03*
X0058327Y0110571D02*
D03*
D16*
X0040414Y0108504D02*
D03*
D31*
X0069290Y0100729D02*
X0075453Y0100729D01*
X0061866Y0103682D02*
X0066337Y0103682D01*
X0069290Y0100729D01*
X0056393Y0102987D02*
X0061172Y0102987D01*
X0061866Y0103682D01*
D15*
X0075453Y0100729D02*
D03*
X0075453Y0104469D02*
D03*
X0056393Y0102987D02*
D03*
X0041260Y0109680D02*
D03*
X0053962Y0105118D02*
D03*
X0051223Y0104062D02*
D03*
M02*
