G75*
G70*
%OFA0B0*%
%FSLAX25Y25*%
%IPPOS*%
%LPD*%
%AMOC8*
5,1,8,0,0,1.08239X$1,22.5*
%
%ADD26C,0.00787*%
%ADD28C,0.00394*%
X0000000Y0000000D02*
%LPD*%
G01*
D26*
X0038142Y0113717D02*
X0073969Y0113717D01*
X0038142Y0101512D02*
X0038142Y0105449D01*
X0038142Y0101512D02*
X0073969Y0101512D01*
X0038142Y0098803D02*
X0073969Y0098803D01*
X0038142Y0086598D02*
X0038142Y0090535D01*
X0038142Y0086598D02*
X0073969Y0086598D01*
X0037748Y0101118D02*
G01*
G75*
G36*
X0056154Y0106667D02*
X0055718Y0106667D01*
X0055718Y0107193D01*
X0055516Y0107405D01*
X0055103Y0106667D01*
X0054633Y0106667D01*
X0055236Y0107710D01*
X0054673Y0108312D01*
X0055209Y0108312D01*
X0055718Y0107732D01*
X0055718Y0108937D01*
X0056154Y0108937D01*
X0056154Y0106667D01*
D02*
G37*
G36*
X0048754Y0106667D02*
X0048318Y0106667D01*
X0048318Y0107193D01*
X0048117Y0107405D01*
X0047703Y0106667D01*
X0047234Y0106667D01*
X0047836Y0107710D01*
X0047273Y0108312D01*
X0047809Y0108312D01*
X0048318Y0107732D01*
X0048318Y0108937D01*
X0048754Y0108937D01*
X0048754Y0106667D01*
D02*
G37*
G36*
X0049868Y0108347D02*
X0049932Y0108339D01*
X0049991Y0108327D01*
X0050048Y0108315D01*
X0050099Y0108295D01*
X0050146Y0108278D01*
X0050191Y0108256D01*
X0050230Y0108236D01*
X0050264Y0108214D01*
X0050296Y0108192D01*
X0050321Y0108175D01*
X0050343Y0108158D01*
X0050360Y0108143D01*
X0050373Y0108130D01*
X0050380Y0108123D01*
X0050382Y0108121D01*
X0050419Y0108076D01*
X0050454Y0108029D01*
X0050481Y0107978D01*
X0050505Y0107926D01*
X0050527Y0107872D01*
X0050545Y0107820D01*
X0050557Y0107769D01*
X0050569Y0107720D01*
X0050579Y0107670D01*
X0050584Y0107626D01*
X0050589Y0107587D01*
X0050594Y0107552D01*
X0050594Y0107525D01*
X0050596Y0107503D01*
X0050596Y0107491D01*
X0050596Y0107486D01*
X0050594Y0107412D01*
X0050587Y0107343D01*
X0050577Y0107279D01*
X0050562Y0107218D01*
X0050547Y0107161D01*
X0050527Y0107109D01*
X0050510Y0107063D01*
X0050488Y0107021D01*
X0050468Y0106984D01*
X0050449Y0106950D01*
X0050432Y0106922D01*
X0050417Y0106898D01*
X0050402Y0106881D01*
X0050392Y0106866D01*
X0050385Y0106859D01*
X0050382Y0106856D01*
X0050341Y0106817D01*
X0050296Y0106782D01*
X0050250Y0106750D01*
X0050203Y0106726D01*
X0050154Y0106704D01*
X0050107Y0106684D01*
X0050060Y0106669D01*
X0050016Y0106659D01*
X0049974Y0106649D01*
X0049935Y0106642D01*
X0049898Y0106637D01*
X0049868Y0106632D01*
X0049844Y0106632D01*
X0049824Y0106630D01*
X0049809Y0106630D01*
X0049750Y0106632D01*
X0049696Y0106637D01*
X0049644Y0106645D01*
X0049598Y0106652D01*
X0049551Y0106664D01*
X0049509Y0106677D01*
X0049472Y0106689D01*
X0049438Y0106704D01*
X0049408Y0106718D01*
X0049381Y0106731D01*
X0049359Y0106743D01*
X0049339Y0106755D01*
X0049325Y0106763D01*
X0049312Y0106770D01*
X0049307Y0106775D01*
X0049305Y0106777D01*
X0049270Y0106807D01*
X0049238Y0106839D01*
X0049211Y0106873D01*
X0049184Y0106910D01*
X0049160Y0106947D01*
X0049140Y0106984D01*
X0049106Y0107055D01*
X0049091Y0107090D01*
X0049079Y0107122D01*
X0049069Y0107149D01*
X0049061Y0107173D01*
X0049054Y0107196D01*
X0049049Y0107210D01*
X0049047Y0107220D01*
X0049047Y0107223D01*
X0049475Y0107297D01*
X0049489Y0107237D01*
X0049507Y0107186D01*
X0049526Y0107144D01*
X0049543Y0107109D01*
X0049561Y0107085D01*
X0049576Y0107068D01*
X0049585Y0107055D01*
X0049588Y0107053D01*
X0049620Y0107031D01*
X0049652Y0107014D01*
X0049686Y0107001D01*
X0049718Y0106994D01*
X0049745Y0106989D01*
X0049770Y0106984D01*
X0049790Y0106984D01*
X0049819Y0106987D01*
X0049848Y0106989D01*
X0049903Y0107004D01*
X0049947Y0107023D01*
X0049984Y0107046D01*
X0050016Y0107068D01*
X0050038Y0107085D01*
X0050050Y0107100D01*
X0050055Y0107102D01*
X0050055Y0107105D01*
X0050072Y0107129D01*
X0050087Y0107156D01*
X0050099Y0107188D01*
X0050112Y0107220D01*
X0050126Y0107289D01*
X0050139Y0107356D01*
X0050144Y0107390D01*
X0050146Y0107419D01*
X0050149Y0107447D01*
X0050149Y0107471D01*
X0050151Y0107491D01*
X0050151Y0107506D01*
X0050151Y0107515D01*
X0050151Y0107518D01*
X0050151Y0107565D01*
X0050146Y0107609D01*
X0050141Y0107651D01*
X0050136Y0107688D01*
X0050129Y0107722D01*
X0050122Y0107752D01*
X0050112Y0107781D01*
X0050102Y0107806D01*
X0050095Y0107825D01*
X0050085Y0107845D01*
X0050077Y0107860D01*
X0050070Y0107872D01*
X0050065Y0107882D01*
X0050060Y0107889D01*
X0050055Y0107892D01*
X0050055Y0107894D01*
X0050035Y0107914D01*
X0050016Y0107931D01*
X0049974Y0107961D01*
X0049932Y0107980D01*
X0049890Y0107993D01*
X0049853Y0108002D01*
X0049836Y0108005D01*
X0049824Y0108005D01*
X0049812Y0108007D01*
X0049797Y0108007D01*
X0049753Y0108005D01*
X0049713Y0107998D01*
X0049679Y0107985D01*
X0049652Y0107975D01*
X0049627Y0107963D01*
X0049612Y0107951D01*
X0049600Y0107943D01*
X0049598Y0107941D01*
X0049571Y0107914D01*
X0049548Y0107884D01*
X0049531Y0107852D01*
X0049516Y0107823D01*
X0049509Y0107796D01*
X0049502Y0107771D01*
X0049497Y0107757D01*
X0049497Y0107754D01*
X0049497Y0107752D01*
X0049069Y0107828D01*
X0049084Y0107875D01*
X0049103Y0107921D01*
X0049120Y0107961D01*
X0049142Y0108000D01*
X0049162Y0108034D01*
X0049184Y0108066D01*
X0049206Y0108096D01*
X0049226Y0108123D01*
X0049246Y0108145D01*
X0049263Y0108165D01*
X0049280Y0108182D01*
X0049295Y0108194D01*
X0049307Y0108207D01*
X0049317Y0108214D01*
X0049322Y0108216D01*
X0049325Y0108219D01*
X0049359Y0108241D01*
X0049396Y0108263D01*
X0049435Y0108281D01*
X0049475Y0108295D01*
X0049553Y0108317D01*
X0049630Y0108332D01*
X0049664Y0108339D01*
X0049699Y0108342D01*
X0049725Y0108344D01*
X0049753Y0108347D01*
X0049772Y0108349D01*
X0049802Y0108349D01*
X0049868Y0108347D01*
D02*
G37*
G36*
X0053494Y0108347D02*
X0053551Y0108337D01*
X0053605Y0108325D01*
X0053657Y0108305D01*
X0053703Y0108285D01*
X0053748Y0108261D01*
X0053789Y0108236D01*
X0053826Y0108209D01*
X0053861Y0108182D01*
X0053888Y0108158D01*
X0053915Y0108133D01*
X0053935Y0108113D01*
X0053952Y0108096D01*
X0053964Y0108081D01*
X0053972Y0108071D01*
X0053974Y0108069D01*
X0053974Y0108312D01*
X0054377Y0108312D01*
X0054377Y0106667D01*
X0053942Y0106667D01*
X0053942Y0107412D01*
X0053942Y0107461D01*
X0053940Y0107508D01*
X0053940Y0107550D01*
X0053937Y0107587D01*
X0053935Y0107621D01*
X0053932Y0107653D01*
X0053930Y0107680D01*
X0053925Y0107705D01*
X0053922Y0107724D01*
X0053920Y0107742D01*
X0053917Y0107757D01*
X0053915Y0107769D01*
X0053912Y0107779D01*
X0053912Y0107784D01*
X0053910Y0107789D01*
X0053895Y0107825D01*
X0053878Y0107857D01*
X0053858Y0107887D01*
X0053839Y0107909D01*
X0053819Y0107929D01*
X0053804Y0107941D01*
X0053794Y0107951D01*
X0053789Y0107953D01*
X0053755Y0107975D01*
X0053718Y0107990D01*
X0053684Y0108002D01*
X0053654Y0108010D01*
X0053625Y0108015D01*
X0053605Y0108017D01*
X0053585Y0108017D01*
X0053553Y0108015D01*
X0053526Y0108010D01*
X0053502Y0108002D01*
X0053480Y0107995D01*
X0053462Y0107988D01*
X0053447Y0107980D01*
X0053440Y0107975D01*
X0053438Y0107973D01*
X0053415Y0107956D01*
X0053396Y0107936D01*
X0053381Y0107914D01*
X0053369Y0107894D01*
X0053359Y0107877D01*
X0053352Y0107862D01*
X0053347Y0107852D01*
X0053347Y0107850D01*
X0053342Y0107833D01*
X0053337Y0107813D01*
X0053332Y0107791D01*
X0053329Y0107764D01*
X0053324Y0107707D01*
X0053320Y0107648D01*
X0053320Y0107594D01*
X0053317Y0107570D01*
X0053317Y0107550D01*
X0053317Y0107530D01*
X0053317Y0107518D01*
X0053317Y0107508D01*
X0053317Y0107506D01*
X0053317Y0106667D01*
X0052882Y0106667D01*
X0052882Y0107688D01*
X0052882Y0107757D01*
X0052887Y0107815D01*
X0052889Y0107865D01*
X0052894Y0107906D01*
X0052899Y0107938D01*
X0052901Y0107961D01*
X0052906Y0107975D01*
X0052906Y0107980D01*
X0052916Y0108017D01*
X0052931Y0108052D01*
X0052943Y0108084D01*
X0052958Y0108111D01*
X0052973Y0108133D01*
X0052983Y0108148D01*
X0052990Y0108160D01*
X0052992Y0108162D01*
X0053017Y0108192D01*
X0053047Y0108216D01*
X0053076Y0108241D01*
X0053106Y0108258D01*
X0053130Y0108276D01*
X0053152Y0108285D01*
X0053167Y0108293D01*
X0053169Y0108295D01*
X0053172Y0108295D01*
X0053216Y0108312D01*
X0053263Y0108327D01*
X0053307Y0108337D01*
X0053347Y0108342D01*
X0053384Y0108347D01*
X0053411Y0108349D01*
X0053435Y0108349D01*
X0053494Y0108347D01*
D02*
G37*
G36*
X0051782Y0108344D02*
X0051863Y0108332D01*
X0051937Y0108315D01*
X0051971Y0108305D01*
X0052003Y0108295D01*
X0052031Y0108285D01*
X0052055Y0108276D01*
X0052077Y0108266D01*
X0052097Y0108258D01*
X0052112Y0108251D01*
X0052122Y0108246D01*
X0052129Y0108244D01*
X0052131Y0108241D01*
X0052200Y0108197D01*
X0052259Y0108148D01*
X0052311Y0108096D01*
X0052355Y0108047D01*
X0052387Y0108002D01*
X0052402Y0107983D01*
X0052412Y0107966D01*
X0052419Y0107951D01*
X0052427Y0107941D01*
X0052429Y0107934D01*
X0052431Y0107931D01*
X0052451Y0107894D01*
X0052466Y0107855D01*
X0052493Y0107781D01*
X0052510Y0107710D01*
X0052525Y0107646D01*
X0052528Y0107616D01*
X0052532Y0107592D01*
X0052535Y0107567D01*
X0052535Y0107547D01*
X0052537Y0107533D01*
X0052537Y0107520D01*
X0052537Y0107513D01*
X0052537Y0107510D01*
X0052535Y0107459D01*
X0052532Y0107410D01*
X0052528Y0107360D01*
X0052520Y0107316D01*
X0052513Y0107274D01*
X0052503Y0107235D01*
X0052493Y0107198D01*
X0052483Y0107164D01*
X0052473Y0107134D01*
X0052466Y0107107D01*
X0052456Y0107085D01*
X0052449Y0107065D01*
X0052441Y0107050D01*
X0052436Y0107041D01*
X0052431Y0107033D01*
X0052431Y0107031D01*
X0052387Y0106962D01*
X0052338Y0106900D01*
X0052286Y0106849D01*
X0052237Y0106807D01*
X0052190Y0106775D01*
X0052173Y0106760D01*
X0052156Y0106750D01*
X0052141Y0106741D01*
X0052131Y0106736D01*
X0052124Y0106733D01*
X0052122Y0106731D01*
X0052045Y0106696D01*
X0051969Y0106672D01*
X0051895Y0106654D01*
X0051829Y0106642D01*
X0051799Y0106637D01*
X0051772Y0106635D01*
X0051750Y0106632D01*
X0051730Y0106632D01*
X0051713Y0106630D01*
X0051691Y0106630D01*
X0051625Y0106632D01*
X0051561Y0106640D01*
X0051499Y0106652D01*
X0051443Y0106669D01*
X0051389Y0106686D01*
X0051339Y0106706D01*
X0051293Y0106728D01*
X0051251Y0106753D01*
X0051214Y0106775D01*
X0051182Y0106797D01*
X0051152Y0106817D01*
X0051130Y0106836D01*
X0051111Y0106851D01*
X0051096Y0106863D01*
X0051088Y0106871D01*
X0051086Y0106873D01*
X0051044Y0106920D01*
X0051007Y0106972D01*
X0050975Y0107021D01*
X0050946Y0107075D01*
X0050924Y0107127D01*
X0050904Y0107178D01*
X0050887Y0107228D01*
X0050874Y0107277D01*
X0050864Y0107321D01*
X0050857Y0107363D01*
X0050852Y0107400D01*
X0050847Y0107432D01*
X0050847Y0107456D01*
X0050845Y0107476D01*
X0050845Y0107488D01*
X0050845Y0107493D01*
X0050847Y0107562D01*
X0050855Y0107626D01*
X0050867Y0107688D01*
X0050882Y0107744D01*
X0050899Y0107798D01*
X0050921Y0107850D01*
X0050941Y0107897D01*
X0050963Y0107938D01*
X0050987Y0107975D01*
X0051007Y0108010D01*
X0051027Y0108037D01*
X0051047Y0108062D01*
X0051061Y0108081D01*
X0051074Y0108094D01*
X0051081Y0108103D01*
X0051084Y0108106D01*
X0051130Y0108148D01*
X0051177Y0108187D01*
X0051229Y0108219D01*
X0051280Y0108246D01*
X0051329Y0108271D01*
X0051381Y0108290D01*
X0051430Y0108305D01*
X0051477Y0108320D01*
X0051521Y0108330D01*
X0051563Y0108337D01*
X0051600Y0108342D01*
X0051632Y0108344D01*
X0051657Y0108347D01*
X0051676Y0108349D01*
X0051738Y0108349D01*
X0051782Y0108344D01*
D02*
G37*
G36*
X0061070Y0112295D02*
X0061121Y0112290D01*
X0061170Y0112283D01*
X0061214Y0112274D01*
X0061258Y0112262D01*
X0061297Y0112251D01*
X0061332Y0112237D01*
X0061367Y0112223D01*
X0061397Y0112209D01*
X0061423Y0112195D01*
X0061446Y0112183D01*
X0061464Y0112172D01*
X0061478Y0112162D01*
X0061490Y0112156D01*
X0061497Y0112151D01*
X0061499Y0112148D01*
X0061534Y0112118D01*
X0061564Y0112086D01*
X0061592Y0112049D01*
X0061615Y0112009D01*
X0061636Y0111970D01*
X0061655Y0111928D01*
X0061671Y0111889D01*
X0061685Y0111849D01*
X0061696Y0111812D01*
X0061706Y0111777D01*
X0061713Y0111745D01*
X0061717Y0111717D01*
X0061722Y0111694D01*
X0061724Y0111675D01*
X0061727Y0111666D01*
X0061727Y0111661D01*
X0061318Y0111622D01*
X0061316Y0111654D01*
X0061311Y0111684D01*
X0061300Y0111738D01*
X0061286Y0111782D01*
X0061272Y0111817D01*
X0061256Y0111845D01*
X0061244Y0111863D01*
X0061235Y0111872D01*
X0061232Y0111877D01*
X0061202Y0111903D01*
X0061167Y0111924D01*
X0061133Y0111937D01*
X0061100Y0111947D01*
X0061070Y0111951D01*
X0061047Y0111956D01*
X0061026Y0111956D01*
X0060980Y0111954D01*
X0060940Y0111944D01*
X0060905Y0111933D01*
X0060875Y0111919D01*
X0060852Y0111905D01*
X0060836Y0111893D01*
X0060824Y0111884D01*
X0060822Y0111882D01*
X0060796Y0111852D01*
X0060778Y0111817D01*
X0060766Y0111782D01*
X0060757Y0111750D01*
X0060752Y0111717D01*
X0060747Y0111694D01*
X0060747Y0111684D01*
X0060747Y0111678D01*
X0060747Y0111673D01*
X0060747Y0111671D01*
X0060752Y0111624D01*
X0060761Y0111578D01*
X0060775Y0111536D01*
X0060789Y0111499D01*
X0060805Y0111466D01*
X0060819Y0111441D01*
X0060826Y0111432D01*
X0060829Y0111425D01*
X0060833Y0111422D01*
X0060833Y0111420D01*
X0060847Y0111401D01*
X0060866Y0111378D01*
X0060889Y0111353D01*
X0060912Y0111327D01*
X0060968Y0111269D01*
X0061028Y0111211D01*
X0061056Y0111183D01*
X0061084Y0111155D01*
X0061107Y0111132D01*
X0061130Y0111112D01*
X0061149Y0111095D01*
X0061163Y0111081D01*
X0061172Y0111072D01*
X0061174Y0111070D01*
X0061237Y0111012D01*
X0061293Y0110956D01*
X0061346Y0110903D01*
X0061392Y0110854D01*
X0061434Y0110810D01*
X0061471Y0110766D01*
X0061506Y0110729D01*
X0061534Y0110694D01*
X0061559Y0110661D01*
X0061580Y0110636D01*
X0061599Y0110610D01*
X0061613Y0110592D01*
X0061622Y0110578D01*
X0061631Y0110566D01*
X0061634Y0110559D01*
X0061636Y0110557D01*
X0061675Y0110485D01*
X0061706Y0110413D01*
X0061731Y0110343D01*
X0061750Y0110281D01*
X0061757Y0110253D01*
X0061761Y0110228D01*
X0061766Y0110204D01*
X0061771Y0110186D01*
X0061773Y0110170D01*
X0061773Y0110158D01*
X0061775Y0110151D01*
X0061775Y0110149D01*
X0060337Y0110149D01*
X0060337Y0110529D01*
X0061153Y0110529D01*
X0061126Y0110569D01*
X0061112Y0110587D01*
X0061100Y0110606D01*
X0061088Y0110620D01*
X0061079Y0110631D01*
X0061072Y0110638D01*
X0061070Y0110640D01*
X0061058Y0110652D01*
X0061045Y0110668D01*
X0061028Y0110685D01*
X0061010Y0110703D01*
X0060970Y0110743D01*
X0060928Y0110782D01*
X0060889Y0110819D01*
X0060870Y0110835D01*
X0060854Y0110849D01*
X0060843Y0110861D01*
X0060833Y0110870D01*
X0060826Y0110875D01*
X0060824Y0110877D01*
X0060789Y0110910D01*
X0060757Y0110940D01*
X0060727Y0110970D01*
X0060699Y0110995D01*
X0060676Y0111021D01*
X0060652Y0111042D01*
X0060634Y0111063D01*
X0060615Y0111081D01*
X0060590Y0111112D01*
X0060569Y0111132D01*
X0060560Y0111146D01*
X0060555Y0111151D01*
X0060516Y0111204D01*
X0060481Y0111255D01*
X0060453Y0111302D01*
X0060430Y0111341D01*
X0060413Y0111376D01*
X0060407Y0111390D01*
X0060399Y0111401D01*
X0060395Y0111411D01*
X0060393Y0111420D01*
X0060390Y0111422D01*
X0060390Y0111425D01*
X0060372Y0111473D01*
X0060360Y0111522D01*
X0060351Y0111569D01*
X0060344Y0111613D01*
X0060339Y0111647D01*
X0060339Y0111664D01*
X0060337Y0111675D01*
X0060337Y0111687D01*
X0060337Y0111694D01*
X0060337Y0111698D01*
X0060337Y0111701D01*
X0060339Y0111747D01*
X0060344Y0111791D01*
X0060353Y0111833D01*
X0060365Y0111875D01*
X0060379Y0111912D01*
X0060395Y0111947D01*
X0060411Y0111979D01*
X0060427Y0112007D01*
X0060446Y0112035D01*
X0060462Y0112058D01*
X0060478Y0112079D01*
X0060492Y0112095D01*
X0060504Y0112107D01*
X0060513Y0112118D01*
X0060518Y0112123D01*
X0060520Y0112125D01*
X0060555Y0112156D01*
X0060594Y0112181D01*
X0060634Y0112204D01*
X0060673Y0112225D01*
X0060715Y0112241D01*
X0060757Y0112255D01*
X0060796Y0112267D01*
X0060836Y0112276D01*
X0060873Y0112283D01*
X0060908Y0112288D01*
X0060938Y0112292D01*
X0060963Y0112295D01*
X0060986Y0112297D01*
X0061017Y0112297D01*
X0061070Y0112295D01*
D02*
G37*
G36*
X0062467Y0110149D02*
X0062056Y0110149D01*
X0062056Y0110559D01*
X0062467Y0110559D01*
X0062467Y0110149D01*
D02*
G37*
G36*
X0063580Y0112295D02*
X0063634Y0112288D01*
X0063685Y0112276D01*
X0063731Y0112262D01*
X0063775Y0112246D01*
X0063815Y0112227D01*
X0063852Y0112207D01*
X0063884Y0112188D01*
X0063912Y0112167D01*
X0063938Y0112146D01*
X0063958Y0112128D01*
X0063977Y0112111D01*
X0063991Y0112097D01*
X0064000Y0112086D01*
X0064007Y0112079D01*
X0064009Y0112077D01*
X0064047Y0112023D01*
X0064079Y0111963D01*
X0064107Y0111898D01*
X0064130Y0111828D01*
X0064151Y0111756D01*
X0064167Y0111684D01*
X0064181Y0111613D01*
X0064193Y0111541D01*
X0064200Y0111473D01*
X0064207Y0111411D01*
X0064211Y0111355D01*
X0064216Y0111304D01*
X0064216Y0111283D01*
X0064216Y0111265D01*
X0064218Y0111248D01*
X0064218Y0111232D01*
X0064218Y0111223D01*
X0064218Y0111214D01*
X0064218Y0111209D01*
X0064218Y0111207D01*
X0064216Y0111095D01*
X0064209Y0110993D01*
X0064200Y0110898D01*
X0064188Y0110812D01*
X0064174Y0110733D01*
X0064158Y0110664D01*
X0064142Y0110601D01*
X0064123Y0110545D01*
X0064105Y0110499D01*
X0064088Y0110457D01*
X0064072Y0110422D01*
X0064058Y0110395D01*
X0064047Y0110374D01*
X0064035Y0110360D01*
X0064030Y0110351D01*
X0064028Y0110348D01*
X0063991Y0110306D01*
X0063951Y0110269D01*
X0063910Y0110237D01*
X0063868Y0110209D01*
X0063826Y0110188D01*
X0063784Y0110167D01*
X0063745Y0110151D01*
X0063706Y0110139D01*
X0063668Y0110130D01*
X0063634Y0110121D01*
X0063603Y0110116D01*
X0063576Y0110114D01*
X0063555Y0110111D01*
X0063539Y0110109D01*
X0063524Y0110109D01*
X0063469Y0110111D01*
X0063416Y0110119D01*
X0063364Y0110130D01*
X0063318Y0110144D01*
X0063274Y0110160D01*
X0063234Y0110179D01*
X0063197Y0110197D01*
X0063165Y0110218D01*
X0063137Y0110239D01*
X0063112Y0110258D01*
X0063088Y0110276D01*
X0063072Y0110292D01*
X0063058Y0110306D01*
X0063047Y0110318D01*
X0063042Y0110325D01*
X0063040Y0110327D01*
X0063003Y0110381D01*
X0062970Y0110441D01*
X0062942Y0110508D01*
X0062917Y0110576D01*
X0062898Y0110647D01*
X0062880Y0110722D01*
X0062866Y0110794D01*
X0062854Y0110865D01*
X0062847Y0110933D01*
X0062840Y0110995D01*
X0062835Y0111053D01*
X0062831Y0111102D01*
X0062831Y0111125D01*
X0062831Y0111144D01*
X0062828Y0111160D01*
X0062828Y0111176D01*
X0062828Y0111186D01*
X0062828Y0111195D01*
X0062828Y0111200D01*
X0062828Y0111202D01*
X0062831Y0111311D01*
X0062838Y0111413D01*
X0062847Y0111508D01*
X0062861Y0111594D01*
X0062877Y0111673D01*
X0062894Y0111745D01*
X0062914Y0111810D01*
X0062933Y0111865D01*
X0062951Y0111916D01*
X0062970Y0111958D01*
X0062989Y0111995D01*
X0063005Y0112023D01*
X0063019Y0112046D01*
X0063028Y0112063D01*
X0063035Y0112072D01*
X0063037Y0112074D01*
X0063072Y0112114D01*
X0063109Y0112148D01*
X0063149Y0112179D01*
X0063188Y0112204D01*
X0063228Y0112225D01*
X0063269Y0112244D01*
X0063309Y0112258D01*
X0063346Y0112269D01*
X0063383Y0112278D01*
X0063418Y0112285D01*
X0063448Y0112290D01*
X0063473Y0112295D01*
X0063494Y0112295D01*
X0063511Y0112297D01*
X0063524Y0112297D01*
X0063580Y0112295D01*
D02*
G37*
%LPC*%
G36*
X0051711Y0107995D02*
X0051694Y0107995D01*
X0051662Y0107993D01*
X0051632Y0107990D01*
X0051578Y0107975D01*
X0051529Y0107953D01*
X0051487Y0107931D01*
X0051452Y0107906D01*
X0051428Y0107884D01*
X0051420Y0107877D01*
X0051413Y0107870D01*
X0051411Y0107867D01*
X0051408Y0107865D01*
X0051389Y0107840D01*
X0051369Y0107811D01*
X0051342Y0107752D01*
X0051320Y0107690D01*
X0051307Y0107629D01*
X0051302Y0107601D01*
X0051298Y0107574D01*
X0051295Y0107552D01*
X0051295Y0107530D01*
X0051293Y0107515D01*
X0051293Y0107501D01*
X0051293Y0107493D01*
X0051293Y0107491D01*
X0051293Y0107447D01*
X0051298Y0107402D01*
X0051302Y0107363D01*
X0051310Y0107326D01*
X0051320Y0107294D01*
X0051329Y0107262D01*
X0051339Y0107233D01*
X0051349Y0107208D01*
X0051361Y0107186D01*
X0051371Y0107166D01*
X0051381Y0107149D01*
X0051391Y0107137D01*
X0051398Y0107127D01*
X0051403Y0107119D01*
X0051406Y0107114D01*
X0051408Y0107112D01*
X0051430Y0107090D01*
X0051452Y0107070D01*
X0051477Y0107053D01*
X0051502Y0107038D01*
X0051548Y0107016D01*
X0051595Y0107001D01*
X0051634Y0106991D01*
X0051652Y0106989D01*
X0051664Y0106987D01*
X0051676Y0106984D01*
X0051694Y0106984D01*
X0051725Y0106987D01*
X0051755Y0106989D01*
X0051809Y0107004D01*
X0051858Y0107023D01*
X0051900Y0107048D01*
X0051932Y0107073D01*
X0051959Y0107092D01*
X0051967Y0107100D01*
X0051974Y0107107D01*
X0051976Y0107109D01*
X0051979Y0107112D01*
X0051999Y0107137D01*
X0052016Y0107166D01*
X0052045Y0107225D01*
X0052065Y0107289D01*
X0052077Y0107348D01*
X0052082Y0107378D01*
X0052087Y0107405D01*
X0052090Y0107427D01*
X0052090Y0107449D01*
X0052092Y0107464D01*
X0052092Y0107479D01*
X0052092Y0107486D01*
X0052092Y0107488D01*
X0052090Y0107533D01*
X0052087Y0107574D01*
X0052082Y0107614D01*
X0052075Y0107651D01*
X0052065Y0107685D01*
X0052055Y0107715D01*
X0052045Y0107744D01*
X0052036Y0107769D01*
X0052026Y0107791D01*
X0052016Y0107811D01*
X0052006Y0107828D01*
X0051996Y0107840D01*
X0051989Y0107850D01*
X0051984Y0107860D01*
X0051979Y0107862D01*
X0051979Y0107865D01*
X0051957Y0107887D01*
X0051932Y0107909D01*
X0051910Y0107926D01*
X0051885Y0107941D01*
X0051839Y0107963D01*
X0051792Y0107978D01*
X0051753Y0107988D01*
X0051735Y0107990D01*
X0051721Y0107993D01*
X0051711Y0107995D01*
D02*
G37*
G36*
X0063536Y0111956D02*
X0063524Y0111956D01*
X0063497Y0111954D01*
X0063473Y0111949D01*
X0063450Y0111940D01*
X0063429Y0111933D01*
X0063416Y0111924D01*
X0063402Y0111914D01*
X0063395Y0111909D01*
X0063392Y0111907D01*
X0063371Y0111886D01*
X0063353Y0111858D01*
X0063337Y0111828D01*
X0063323Y0111796D01*
X0063311Y0111766D01*
X0063304Y0111743D01*
X0063302Y0111733D01*
X0063300Y0111726D01*
X0063297Y0111722D01*
X0063297Y0111719D01*
X0063290Y0111689D01*
X0063283Y0111657D01*
X0063279Y0111620D01*
X0063274Y0111578D01*
X0063267Y0111494D01*
X0063262Y0111408D01*
X0063260Y0111367D01*
X0063260Y0111329D01*
X0063258Y0111292D01*
X0063258Y0111262D01*
X0063258Y0111237D01*
X0063258Y0111218D01*
X0063258Y0111207D01*
X0063258Y0111202D01*
X0063258Y0111135D01*
X0063260Y0111070D01*
X0063262Y0111012D01*
X0063265Y0110958D01*
X0063267Y0110910D01*
X0063272Y0110865D01*
X0063276Y0110826D01*
X0063279Y0110791D01*
X0063283Y0110761D01*
X0063288Y0110736D01*
X0063293Y0110715D01*
X0063295Y0110696D01*
X0063297Y0110682D01*
X0063300Y0110673D01*
X0063302Y0110668D01*
X0063302Y0110666D01*
X0063316Y0110624D01*
X0063330Y0110587D01*
X0063344Y0110559D01*
X0063360Y0110536D01*
X0063371Y0110517D01*
X0063383Y0110506D01*
X0063390Y0110499D01*
X0063392Y0110497D01*
X0063416Y0110480D01*
X0063436Y0110469D01*
X0063460Y0110462D01*
X0063480Y0110457D01*
X0063499Y0110453D01*
X0063513Y0110450D01*
X0063524Y0110450D01*
X0063552Y0110453D01*
X0063576Y0110457D01*
X0063599Y0110464D01*
X0063617Y0110474D01*
X0063634Y0110483D01*
X0063647Y0110490D01*
X0063655Y0110494D01*
X0063657Y0110497D01*
X0063678Y0110517D01*
X0063696Y0110545D01*
X0063712Y0110576D01*
X0063726Y0110608D01*
X0063738Y0110636D01*
X0063745Y0110659D01*
X0063747Y0110668D01*
X0063750Y0110675D01*
X0063752Y0110680D01*
X0063752Y0110682D01*
X0063759Y0110712D01*
X0063763Y0110745D01*
X0063768Y0110782D01*
X0063773Y0110824D01*
X0063780Y0110910D01*
X0063784Y0110995D01*
X0063787Y0111037D01*
X0063787Y0111074D01*
X0063787Y0111109D01*
X0063789Y0111142D01*
X0063789Y0111167D01*
X0063789Y0111186D01*
X0063789Y0111197D01*
X0063789Y0111202D01*
X0063789Y0111269D01*
X0063787Y0111332D01*
X0063784Y0111392D01*
X0063782Y0111443D01*
X0063780Y0111492D01*
X0063775Y0111536D01*
X0063773Y0111576D01*
X0063768Y0111610D01*
X0063763Y0111640D01*
X0063761Y0111668D01*
X0063757Y0111689D01*
X0063754Y0111708D01*
X0063752Y0111722D01*
X0063750Y0111731D01*
X0063747Y0111735D01*
X0063747Y0111738D01*
X0063733Y0111780D01*
X0063719Y0111817D01*
X0063703Y0111845D01*
X0063689Y0111868D01*
X0063678Y0111886D01*
X0063666Y0111898D01*
X0063659Y0111905D01*
X0063657Y0111907D01*
X0063634Y0111924D01*
X0063613Y0111935D01*
X0063590Y0111944D01*
X0063569Y0111949D01*
X0063550Y0111954D01*
X0063536Y0111956D01*
D02*
G37*
%LPD*%
D26*
X0038142Y0101512D02*
X0073968Y0101512D01*
X0038142Y0113716D02*
X0073968Y0113716D01*
X0038142Y0101512D02*
X0038142Y0105449D01*
X0057054Y0107476D02*
X0060006Y0107476D01*
D28*
X0067669Y0110173D02*
X0067669Y0112535D01*
X0061332Y0105838D02*
X0061332Y0105445D01*
X0063301Y0105842D02*
X0063301Y0105449D01*
X0052610Y0110173D02*
X0052610Y0112535D01*
X0044244Y0110173D02*
X0044244Y0112535D01*
X0043854Y0106433D02*
X0044248Y0106433D01*
X0043850Y0108401D02*
X0044244Y0108401D01*
X0067669Y0102890D02*
X0067669Y0105252D01*
X0052217Y0102890D02*
X0052610Y0102890D01*
X0052212Y0104858D02*
X0052606Y0104858D01*
X0067079Y0106490D02*
X0067472Y0106490D01*
X0067075Y0108459D02*
X0067468Y0108459D01*
X0043846Y0104858D02*
X0044240Y0104858D01*
X0043850Y0102890D02*
X0044244Y0102890D01*
X0037748Y0086205D02*
G01*
G75*
G36*
X0056154Y0091754D02*
X0055718Y0091754D01*
X0055718Y0092280D01*
X0055516Y0092492D01*
X0055103Y0091754D01*
X0054633Y0091754D01*
X0055236Y0092797D01*
X0054673Y0093399D01*
X0055209Y0093399D01*
X0055718Y0092819D01*
X0055718Y0094024D01*
X0056154Y0094024D01*
X0056154Y0091754D01*
D02*
G37*
G36*
X0048754Y0091754D02*
X0048318Y0091754D01*
X0048318Y0092280D01*
X0048117Y0092492D01*
X0047703Y0091754D01*
X0047234Y0091754D01*
X0047836Y0092797D01*
X0047273Y0093399D01*
X0047809Y0093399D01*
X0048318Y0092819D01*
X0048318Y0094024D01*
X0048754Y0094024D01*
X0048754Y0091754D01*
D02*
G37*
G36*
X0049868Y0093434D02*
X0049932Y0093426D01*
X0049991Y0093414D01*
X0050048Y0093402D01*
X0050099Y0093382D01*
X0050146Y0093365D01*
X0050191Y0093343D01*
X0050230Y0093323D01*
X0050264Y0093301D01*
X0050296Y0093279D01*
X0050321Y0093262D01*
X0050343Y0093245D01*
X0050360Y0093230D01*
X0050373Y0093217D01*
X0050380Y0093210D01*
X0050382Y0093208D01*
X0050419Y0093163D01*
X0050454Y0093116D01*
X0050481Y0093065D01*
X0050505Y0093013D01*
X0050527Y0092959D01*
X0050545Y0092907D01*
X0050557Y0092856D01*
X0050569Y0092807D01*
X0050579Y0092757D01*
X0050584Y0092713D01*
X0050589Y0092674D01*
X0050594Y0092639D01*
X0050594Y0092612D01*
X0050596Y0092590D01*
X0050596Y0092578D01*
X0050596Y0092573D01*
X0050594Y0092499D01*
X0050587Y0092430D01*
X0050577Y0092366D01*
X0050562Y0092305D01*
X0050547Y0092248D01*
X0050527Y0092196D01*
X0050510Y0092150D01*
X0050488Y0092108D01*
X0050468Y0092071D01*
X0050449Y0092037D01*
X0050432Y0092009D01*
X0050417Y0091985D01*
X0050402Y0091968D01*
X0050392Y0091953D01*
X0050385Y0091946D01*
X0050382Y0091943D01*
X0050341Y0091904D01*
X0050296Y0091869D01*
X0050250Y0091837D01*
X0050203Y0091813D01*
X0050154Y0091791D01*
X0050107Y0091771D01*
X0050060Y0091756D01*
X0050016Y0091746D01*
X0049974Y0091736D01*
X0049935Y0091729D01*
X0049898Y0091724D01*
X0049868Y0091719D01*
X0049844Y0091719D01*
X0049824Y0091717D01*
X0049809Y0091717D01*
X0049750Y0091719D01*
X0049696Y0091724D01*
X0049644Y0091732D01*
X0049598Y0091739D01*
X0049551Y0091751D01*
X0049509Y0091764D01*
X0049472Y0091776D01*
X0049438Y0091791D01*
X0049408Y0091805D01*
X0049381Y0091818D01*
X0049359Y0091830D01*
X0049339Y0091842D01*
X0049325Y0091850D01*
X0049312Y0091857D01*
X0049307Y0091862D01*
X0049305Y0091864D01*
X0049270Y0091894D01*
X0049238Y0091926D01*
X0049211Y0091960D01*
X0049184Y0091997D01*
X0049160Y0092034D01*
X0049140Y0092071D01*
X0049106Y0092142D01*
X0049091Y0092177D01*
X0049079Y0092209D01*
X0049069Y0092236D01*
X0049061Y0092260D01*
X0049054Y0092283D01*
X0049049Y0092297D01*
X0049047Y0092307D01*
X0049047Y0092310D01*
X0049475Y0092384D01*
X0049489Y0092324D01*
X0049507Y0092273D01*
X0049526Y0092231D01*
X0049543Y0092196D01*
X0049561Y0092172D01*
X0049576Y0092155D01*
X0049585Y0092142D01*
X0049588Y0092140D01*
X0049620Y0092118D01*
X0049652Y0092101D01*
X0049686Y0092088D01*
X0049718Y0092081D01*
X0049745Y0092076D01*
X0049770Y0092071D01*
X0049790Y0092071D01*
X0049819Y0092074D01*
X0049848Y0092076D01*
X0049903Y0092091D01*
X0049947Y0092110D01*
X0049984Y0092133D01*
X0050016Y0092155D01*
X0050038Y0092172D01*
X0050050Y0092187D01*
X0050055Y0092189D01*
X0050055Y0092192D01*
X0050072Y0092216D01*
X0050087Y0092243D01*
X0050099Y0092275D01*
X0050112Y0092307D01*
X0050126Y0092376D01*
X0050139Y0092443D01*
X0050144Y0092477D01*
X0050146Y0092506D01*
X0050149Y0092534D01*
X0050149Y0092558D01*
X0050151Y0092578D01*
X0050151Y0092593D01*
X0050151Y0092602D01*
X0050151Y0092605D01*
X0050151Y0092652D01*
X0050146Y0092696D01*
X0050141Y0092738D01*
X0050136Y0092775D01*
X0050129Y0092809D01*
X0050122Y0092839D01*
X0050112Y0092868D01*
X0050102Y0092893D01*
X0050095Y0092912D01*
X0050085Y0092932D01*
X0050077Y0092947D01*
X0050070Y0092959D01*
X0050065Y0092969D01*
X0050060Y0092976D01*
X0050055Y0092979D01*
X0050055Y0092981D01*
X0050035Y0093001D01*
X0050016Y0093018D01*
X0049974Y0093048D01*
X0049932Y0093067D01*
X0049890Y0093080D01*
X0049853Y0093089D01*
X0049836Y0093092D01*
X0049824Y0093092D01*
X0049812Y0093094D01*
X0049797Y0093094D01*
X0049753Y0093092D01*
X0049713Y0093085D01*
X0049679Y0093072D01*
X0049652Y0093062D01*
X0049627Y0093050D01*
X0049612Y0093038D01*
X0049600Y0093030D01*
X0049598Y0093028D01*
X0049571Y0093001D01*
X0049548Y0092971D01*
X0049531Y0092939D01*
X0049516Y0092910D01*
X0049509Y0092883D01*
X0049502Y0092858D01*
X0049497Y0092844D01*
X0049497Y0092841D01*
X0049497Y0092839D01*
X0049069Y0092915D01*
X0049084Y0092962D01*
X0049103Y0093008D01*
X0049120Y0093048D01*
X0049142Y0093087D01*
X0049162Y0093121D01*
X0049184Y0093153D01*
X0049206Y0093183D01*
X0049226Y0093210D01*
X0049246Y0093232D01*
X0049263Y0093252D01*
X0049280Y0093269D01*
X0049295Y0093281D01*
X0049307Y0093294D01*
X0049317Y0093301D01*
X0049322Y0093303D01*
X0049325Y0093306D01*
X0049359Y0093328D01*
X0049396Y0093350D01*
X0049435Y0093368D01*
X0049475Y0093382D01*
X0049553Y0093404D01*
X0049630Y0093419D01*
X0049664Y0093426D01*
X0049699Y0093429D01*
X0049725Y0093431D01*
X0049753Y0093434D01*
X0049772Y0093436D01*
X0049802Y0093436D01*
X0049868Y0093434D01*
D02*
G37*
G36*
X0053494Y0093434D02*
X0053551Y0093424D01*
X0053605Y0093412D01*
X0053657Y0093392D01*
X0053703Y0093372D01*
X0053748Y0093348D01*
X0053789Y0093323D01*
X0053826Y0093296D01*
X0053861Y0093269D01*
X0053888Y0093245D01*
X0053915Y0093220D01*
X0053935Y0093200D01*
X0053952Y0093183D01*
X0053964Y0093168D01*
X0053972Y0093158D01*
X0053974Y0093156D01*
X0053974Y0093399D01*
X0054377Y0093399D01*
X0054377Y0091754D01*
X0053942Y0091754D01*
X0053942Y0092499D01*
X0053942Y0092548D01*
X0053940Y0092595D01*
X0053940Y0092637D01*
X0053937Y0092674D01*
X0053935Y0092708D01*
X0053932Y0092740D01*
X0053930Y0092767D01*
X0053925Y0092792D01*
X0053922Y0092811D01*
X0053920Y0092829D01*
X0053917Y0092844D01*
X0053915Y0092856D01*
X0053912Y0092866D01*
X0053912Y0092871D01*
X0053910Y0092876D01*
X0053895Y0092912D01*
X0053878Y0092944D01*
X0053858Y0092974D01*
X0053839Y0092996D01*
X0053819Y0093016D01*
X0053804Y0093028D01*
X0053794Y0093038D01*
X0053789Y0093040D01*
X0053755Y0093062D01*
X0053718Y0093077D01*
X0053684Y0093089D01*
X0053654Y0093097D01*
X0053625Y0093102D01*
X0053605Y0093104D01*
X0053585Y0093104D01*
X0053553Y0093102D01*
X0053526Y0093097D01*
X0053502Y0093089D01*
X0053480Y0093082D01*
X0053462Y0093075D01*
X0053447Y0093067D01*
X0053440Y0093062D01*
X0053438Y0093060D01*
X0053415Y0093043D01*
X0053396Y0093023D01*
X0053381Y0093001D01*
X0053369Y0092981D01*
X0053359Y0092964D01*
X0053352Y0092949D01*
X0053347Y0092939D01*
X0053347Y0092937D01*
X0053342Y0092920D01*
X0053337Y0092900D01*
X0053332Y0092878D01*
X0053329Y0092851D01*
X0053324Y0092794D01*
X0053320Y0092735D01*
X0053320Y0092681D01*
X0053317Y0092657D01*
X0053317Y0092637D01*
X0053317Y0092617D01*
X0053317Y0092605D01*
X0053317Y0092595D01*
X0053317Y0092593D01*
X0053317Y0091754D01*
X0052882Y0091754D01*
X0052882Y0092775D01*
X0052882Y0092844D01*
X0052887Y0092902D01*
X0052889Y0092952D01*
X0052894Y0092993D01*
X0052899Y0093025D01*
X0052901Y0093048D01*
X0052906Y0093062D01*
X0052906Y0093067D01*
X0052916Y0093104D01*
X0052931Y0093139D01*
X0052943Y0093171D01*
X0052958Y0093198D01*
X0052973Y0093220D01*
X0052983Y0093235D01*
X0052990Y0093247D01*
X0052992Y0093249D01*
X0053017Y0093279D01*
X0053047Y0093303D01*
X0053076Y0093328D01*
X0053106Y0093345D01*
X0053130Y0093363D01*
X0053152Y0093372D01*
X0053167Y0093380D01*
X0053169Y0093382D01*
X0053172Y0093382D01*
X0053216Y0093399D01*
X0053263Y0093414D01*
X0053307Y0093424D01*
X0053347Y0093429D01*
X0053384Y0093434D01*
X0053411Y0093436D01*
X0053435Y0093436D01*
X0053494Y0093434D01*
D02*
G37*
G36*
X0051782Y0093431D02*
X0051863Y0093419D01*
X0051937Y0093402D01*
X0051971Y0093392D01*
X0052003Y0093382D01*
X0052031Y0093372D01*
X0052055Y0093363D01*
X0052077Y0093353D01*
X0052097Y0093345D01*
X0052112Y0093338D01*
X0052122Y0093333D01*
X0052129Y0093331D01*
X0052131Y0093328D01*
X0052200Y0093284D01*
X0052259Y0093235D01*
X0052311Y0093183D01*
X0052355Y0093134D01*
X0052387Y0093089D01*
X0052402Y0093070D01*
X0052412Y0093053D01*
X0052419Y0093038D01*
X0052427Y0093028D01*
X0052429Y0093021D01*
X0052431Y0093018D01*
X0052451Y0092981D01*
X0052466Y0092942D01*
X0052493Y0092868D01*
X0052510Y0092797D01*
X0052525Y0092733D01*
X0052528Y0092703D01*
X0052532Y0092679D01*
X0052535Y0092654D01*
X0052535Y0092634D01*
X0052537Y0092620D01*
X0052537Y0092607D01*
X0052537Y0092600D01*
X0052537Y0092597D01*
X0052535Y0092546D01*
X0052532Y0092497D01*
X0052528Y0092447D01*
X0052520Y0092403D01*
X0052513Y0092361D01*
X0052503Y0092322D01*
X0052493Y0092285D01*
X0052483Y0092251D01*
X0052473Y0092221D01*
X0052466Y0092194D01*
X0052456Y0092172D01*
X0052449Y0092152D01*
X0052441Y0092137D01*
X0052436Y0092128D01*
X0052431Y0092120D01*
X0052431Y0092118D01*
X0052387Y0092049D01*
X0052338Y0091987D01*
X0052286Y0091936D01*
X0052237Y0091894D01*
X0052190Y0091862D01*
X0052173Y0091847D01*
X0052156Y0091837D01*
X0052141Y0091828D01*
X0052131Y0091823D01*
X0052124Y0091820D01*
X0052122Y0091818D01*
X0052045Y0091783D01*
X0051969Y0091759D01*
X0051895Y0091741D01*
X0051829Y0091729D01*
X0051799Y0091724D01*
X0051772Y0091722D01*
X0051750Y0091719D01*
X0051730Y0091719D01*
X0051713Y0091717D01*
X0051691Y0091717D01*
X0051625Y0091719D01*
X0051561Y0091727D01*
X0051499Y0091739D01*
X0051443Y0091756D01*
X0051389Y0091773D01*
X0051339Y0091793D01*
X0051293Y0091815D01*
X0051251Y0091840D01*
X0051214Y0091862D01*
X0051182Y0091884D01*
X0051152Y0091904D01*
X0051130Y0091923D01*
X0051111Y0091938D01*
X0051096Y0091950D01*
X0051088Y0091958D01*
X0051086Y0091960D01*
X0051044Y0092007D01*
X0051007Y0092059D01*
X0050975Y0092108D01*
X0050946Y0092162D01*
X0050924Y0092214D01*
X0050904Y0092265D01*
X0050887Y0092315D01*
X0050874Y0092364D01*
X0050864Y0092408D01*
X0050857Y0092450D01*
X0050852Y0092487D01*
X0050847Y0092519D01*
X0050847Y0092543D01*
X0050845Y0092563D01*
X0050845Y0092575D01*
X0050845Y0092580D01*
X0050847Y0092649D01*
X0050855Y0092713D01*
X0050867Y0092775D01*
X0050882Y0092831D01*
X0050899Y0092885D01*
X0050921Y0092937D01*
X0050941Y0092984D01*
X0050963Y0093025D01*
X0050987Y0093062D01*
X0051007Y0093097D01*
X0051027Y0093124D01*
X0051047Y0093149D01*
X0051061Y0093168D01*
X0051074Y0093181D01*
X0051081Y0093190D01*
X0051084Y0093193D01*
X0051130Y0093235D01*
X0051177Y0093274D01*
X0051229Y0093306D01*
X0051280Y0093333D01*
X0051329Y0093358D01*
X0051381Y0093377D01*
X0051430Y0093392D01*
X0051477Y0093407D01*
X0051521Y0093417D01*
X0051563Y0093424D01*
X0051600Y0093429D01*
X0051632Y0093431D01*
X0051657Y0093434D01*
X0051676Y0093436D01*
X0051738Y0093436D01*
X0051782Y0093431D01*
D02*
G37*
G36*
X0061070Y0097382D02*
X0061121Y0097377D01*
X0061170Y0097370D01*
X0061214Y0097361D01*
X0061258Y0097349D01*
X0061297Y0097338D01*
X0061332Y0097324D01*
X0061367Y0097310D01*
X0061397Y0097296D01*
X0061423Y0097282D01*
X0061446Y0097270D01*
X0061464Y0097259D01*
X0061478Y0097249D01*
X0061490Y0097243D01*
X0061497Y0097238D01*
X0061499Y0097235D01*
X0061534Y0097205D01*
X0061564Y0097173D01*
X0061592Y0097136D01*
X0061615Y0097096D01*
X0061636Y0097057D01*
X0061655Y0097015D01*
X0061671Y0096976D01*
X0061685Y0096936D01*
X0061696Y0096899D01*
X0061706Y0096864D01*
X0061713Y0096832D01*
X0061717Y0096804D01*
X0061722Y0096781D01*
X0061724Y0096762D01*
X0061727Y0096753D01*
X0061727Y0096748D01*
X0061318Y0096709D01*
X0061316Y0096741D01*
X0061311Y0096771D01*
X0061300Y0096825D01*
X0061286Y0096869D01*
X0061272Y0096904D01*
X0061256Y0096932D01*
X0061244Y0096950D01*
X0061235Y0096959D01*
X0061232Y0096964D01*
X0061202Y0096990D01*
X0061167Y0097011D01*
X0061133Y0097024D01*
X0061100Y0097034D01*
X0061070Y0097038D01*
X0061047Y0097043D01*
X0061026Y0097043D01*
X0060980Y0097041D01*
X0060940Y0097031D01*
X0060905Y0097020D01*
X0060875Y0097006D01*
X0060852Y0096992D01*
X0060836Y0096980D01*
X0060824Y0096971D01*
X0060822Y0096969D01*
X0060796Y0096939D01*
X0060778Y0096904D01*
X0060766Y0096869D01*
X0060757Y0096837D01*
X0060752Y0096804D01*
X0060747Y0096781D01*
X0060747Y0096771D01*
X0060747Y0096765D01*
X0060747Y0096760D01*
X0060747Y0096758D01*
X0060752Y0096711D01*
X0060761Y0096665D01*
X0060775Y0096623D01*
X0060789Y0096586D01*
X0060805Y0096553D01*
X0060819Y0096528D01*
X0060826Y0096519D01*
X0060829Y0096512D01*
X0060833Y0096509D01*
X0060833Y0096507D01*
X0060847Y0096488D01*
X0060866Y0096465D01*
X0060889Y0096440D01*
X0060912Y0096414D01*
X0060968Y0096356D01*
X0061028Y0096298D01*
X0061056Y0096270D01*
X0061084Y0096242D01*
X0061107Y0096219D01*
X0061130Y0096199D01*
X0061149Y0096182D01*
X0061163Y0096168D01*
X0061172Y0096159D01*
X0061174Y0096157D01*
X0061237Y0096099D01*
X0061293Y0096043D01*
X0061346Y0095990D01*
X0061392Y0095941D01*
X0061434Y0095897D01*
X0061471Y0095853D01*
X0061506Y0095816D01*
X0061534Y0095781D01*
X0061559Y0095748D01*
X0061580Y0095723D01*
X0061599Y0095697D01*
X0061613Y0095679D01*
X0061622Y0095665D01*
X0061631Y0095653D01*
X0061634Y0095646D01*
X0061636Y0095644D01*
X0061675Y0095572D01*
X0061706Y0095500D01*
X0061731Y0095430D01*
X0061750Y0095368D01*
X0061757Y0095340D01*
X0061761Y0095315D01*
X0061766Y0095291D01*
X0061771Y0095273D01*
X0061773Y0095257D01*
X0061773Y0095245D01*
X0061775Y0095238D01*
X0061775Y0095236D01*
X0060337Y0095236D01*
X0060337Y0095616D01*
X0061153Y0095616D01*
X0061126Y0095656D01*
X0061112Y0095674D01*
X0061100Y0095693D01*
X0061088Y0095707D01*
X0061079Y0095718D01*
X0061072Y0095725D01*
X0061070Y0095727D01*
X0061058Y0095739D01*
X0061045Y0095755D01*
X0061028Y0095772D01*
X0061010Y0095790D01*
X0060970Y0095830D01*
X0060928Y0095869D01*
X0060889Y0095906D01*
X0060870Y0095922D01*
X0060854Y0095936D01*
X0060843Y0095948D01*
X0060833Y0095957D01*
X0060826Y0095962D01*
X0060824Y0095964D01*
X0060789Y0095997D01*
X0060757Y0096027D01*
X0060727Y0096057D01*
X0060699Y0096082D01*
X0060676Y0096108D01*
X0060652Y0096129D01*
X0060634Y0096150D01*
X0060615Y0096168D01*
X0060590Y0096199D01*
X0060569Y0096219D01*
X0060560Y0096233D01*
X0060555Y0096238D01*
X0060516Y0096291D01*
X0060481Y0096342D01*
X0060453Y0096389D01*
X0060430Y0096428D01*
X0060413Y0096463D01*
X0060407Y0096477D01*
X0060399Y0096488D01*
X0060395Y0096498D01*
X0060393Y0096507D01*
X0060390Y0096509D01*
X0060390Y0096512D01*
X0060372Y0096560D01*
X0060360Y0096609D01*
X0060351Y0096656D01*
X0060344Y0096700D01*
X0060339Y0096734D01*
X0060339Y0096751D01*
X0060337Y0096762D01*
X0060337Y0096774D01*
X0060337Y0096781D01*
X0060337Y0096785D01*
X0060337Y0096788D01*
X0060339Y0096834D01*
X0060344Y0096878D01*
X0060353Y0096920D01*
X0060365Y0096962D01*
X0060379Y0096999D01*
X0060395Y0097034D01*
X0060411Y0097066D01*
X0060427Y0097094D01*
X0060446Y0097122D01*
X0060462Y0097145D01*
X0060478Y0097166D01*
X0060492Y0097182D01*
X0060504Y0097194D01*
X0060513Y0097205D01*
X0060518Y0097210D01*
X0060520Y0097212D01*
X0060555Y0097243D01*
X0060594Y0097268D01*
X0060634Y0097291D01*
X0060673Y0097312D01*
X0060715Y0097328D01*
X0060757Y0097342D01*
X0060796Y0097354D01*
X0060836Y0097363D01*
X0060873Y0097370D01*
X0060908Y0097375D01*
X0060938Y0097379D01*
X0060963Y0097382D01*
X0060986Y0097384D01*
X0061017Y0097384D01*
X0061070Y0097382D01*
D02*
G37*
G36*
X0062467Y0095236D02*
X0062056Y0095236D01*
X0062056Y0095646D01*
X0062467Y0095646D01*
X0062467Y0095236D01*
D02*
G37*
G36*
X0063580Y0097382D02*
X0063634Y0097375D01*
X0063685Y0097363D01*
X0063731Y0097349D01*
X0063775Y0097333D01*
X0063815Y0097314D01*
X0063852Y0097294D01*
X0063884Y0097275D01*
X0063912Y0097254D01*
X0063938Y0097233D01*
X0063958Y0097215D01*
X0063977Y0097198D01*
X0063991Y0097184D01*
X0064000Y0097173D01*
X0064007Y0097166D01*
X0064009Y0097164D01*
X0064047Y0097110D01*
X0064079Y0097050D01*
X0064107Y0096985D01*
X0064130Y0096915D01*
X0064151Y0096843D01*
X0064167Y0096771D01*
X0064181Y0096700D01*
X0064193Y0096628D01*
X0064200Y0096560D01*
X0064207Y0096498D01*
X0064211Y0096442D01*
X0064216Y0096391D01*
X0064216Y0096370D01*
X0064216Y0096352D01*
X0064218Y0096335D01*
X0064218Y0096319D01*
X0064218Y0096310D01*
X0064218Y0096301D01*
X0064218Y0096296D01*
X0064218Y0096294D01*
X0064216Y0096182D01*
X0064209Y0096080D01*
X0064200Y0095985D01*
X0064188Y0095899D01*
X0064174Y0095820D01*
X0064158Y0095751D01*
X0064142Y0095688D01*
X0064123Y0095632D01*
X0064105Y0095586D01*
X0064088Y0095544D01*
X0064072Y0095509D01*
X0064058Y0095482D01*
X0064047Y0095461D01*
X0064035Y0095447D01*
X0064030Y0095438D01*
X0064028Y0095435D01*
X0063991Y0095393D01*
X0063951Y0095356D01*
X0063910Y0095324D01*
X0063868Y0095296D01*
X0063826Y0095275D01*
X0063784Y0095254D01*
X0063745Y0095238D01*
X0063706Y0095226D01*
X0063668Y0095217D01*
X0063634Y0095208D01*
X0063603Y0095203D01*
X0063576Y0095201D01*
X0063555Y0095198D01*
X0063539Y0095196D01*
X0063524Y0095196D01*
X0063469Y0095198D01*
X0063416Y0095206D01*
X0063364Y0095217D01*
X0063318Y0095231D01*
X0063274Y0095247D01*
X0063234Y0095266D01*
X0063197Y0095284D01*
X0063165Y0095305D01*
X0063137Y0095326D01*
X0063112Y0095345D01*
X0063088Y0095363D01*
X0063072Y0095379D01*
X0063058Y0095393D01*
X0063047Y0095405D01*
X0063042Y0095412D01*
X0063040Y0095414D01*
X0063003Y0095468D01*
X0062970Y0095528D01*
X0062942Y0095595D01*
X0062917Y0095663D01*
X0062898Y0095734D01*
X0062880Y0095809D01*
X0062866Y0095881D01*
X0062854Y0095952D01*
X0062847Y0096020D01*
X0062840Y0096082D01*
X0062835Y0096140D01*
X0062831Y0096189D01*
X0062831Y0096212D01*
X0062831Y0096231D01*
X0062828Y0096247D01*
X0062828Y0096263D01*
X0062828Y0096273D01*
X0062828Y0096282D01*
X0062828Y0096287D01*
X0062828Y0096289D01*
X0062831Y0096398D01*
X0062838Y0096500D01*
X0062847Y0096595D01*
X0062861Y0096681D01*
X0062877Y0096760D01*
X0062894Y0096832D01*
X0062914Y0096897D01*
X0062933Y0096952D01*
X0062951Y0097003D01*
X0062970Y0097045D01*
X0062989Y0097082D01*
X0063005Y0097110D01*
X0063019Y0097133D01*
X0063028Y0097150D01*
X0063035Y0097159D01*
X0063037Y0097161D01*
X0063072Y0097201D01*
X0063109Y0097235D01*
X0063149Y0097266D01*
X0063188Y0097291D01*
X0063228Y0097312D01*
X0063269Y0097331D01*
X0063309Y0097345D01*
X0063346Y0097356D01*
X0063383Y0097365D01*
X0063418Y0097372D01*
X0063448Y0097377D01*
X0063473Y0097382D01*
X0063494Y0097382D01*
X0063511Y0097384D01*
X0063524Y0097384D01*
X0063580Y0097382D01*
D02*
G37*
%LPC*%
G36*
X0051711Y0093082D02*
X0051694Y0093082D01*
X0051662Y0093080D01*
X0051632Y0093077D01*
X0051578Y0093062D01*
X0051529Y0093040D01*
X0051487Y0093018D01*
X0051452Y0092993D01*
X0051428Y0092971D01*
X0051420Y0092964D01*
X0051413Y0092957D01*
X0051411Y0092954D01*
X0051408Y0092952D01*
X0051389Y0092927D01*
X0051369Y0092898D01*
X0051342Y0092839D01*
X0051320Y0092777D01*
X0051307Y0092716D01*
X0051302Y0092688D01*
X0051298Y0092661D01*
X0051295Y0092639D01*
X0051295Y0092617D01*
X0051293Y0092602D01*
X0051293Y0092588D01*
X0051293Y0092580D01*
X0051293Y0092578D01*
X0051293Y0092534D01*
X0051298Y0092489D01*
X0051302Y0092450D01*
X0051310Y0092413D01*
X0051320Y0092381D01*
X0051329Y0092349D01*
X0051339Y0092320D01*
X0051349Y0092295D01*
X0051361Y0092273D01*
X0051371Y0092253D01*
X0051381Y0092236D01*
X0051391Y0092224D01*
X0051398Y0092214D01*
X0051403Y0092206D01*
X0051406Y0092201D01*
X0051408Y0092199D01*
X0051430Y0092177D01*
X0051452Y0092157D01*
X0051477Y0092140D01*
X0051502Y0092125D01*
X0051548Y0092103D01*
X0051595Y0092088D01*
X0051634Y0092078D01*
X0051652Y0092076D01*
X0051664Y0092074D01*
X0051676Y0092071D01*
X0051694Y0092071D01*
X0051725Y0092074D01*
X0051755Y0092076D01*
X0051809Y0092091D01*
X0051858Y0092110D01*
X0051900Y0092135D01*
X0051932Y0092160D01*
X0051959Y0092179D01*
X0051967Y0092187D01*
X0051974Y0092194D01*
X0051976Y0092196D01*
X0051979Y0092199D01*
X0051999Y0092224D01*
X0052016Y0092253D01*
X0052045Y0092312D01*
X0052065Y0092376D01*
X0052077Y0092435D01*
X0052082Y0092465D01*
X0052087Y0092492D01*
X0052090Y0092514D01*
X0052090Y0092536D01*
X0052092Y0092551D01*
X0052092Y0092566D01*
X0052092Y0092573D01*
X0052092Y0092575D01*
X0052090Y0092620D01*
X0052087Y0092661D01*
X0052082Y0092701D01*
X0052075Y0092738D01*
X0052065Y0092772D01*
X0052055Y0092802D01*
X0052045Y0092831D01*
X0052036Y0092856D01*
X0052026Y0092878D01*
X0052016Y0092898D01*
X0052006Y0092915D01*
X0051996Y0092927D01*
X0051989Y0092937D01*
X0051984Y0092947D01*
X0051979Y0092949D01*
X0051979Y0092952D01*
X0051957Y0092974D01*
X0051932Y0092996D01*
X0051910Y0093013D01*
X0051885Y0093028D01*
X0051839Y0093050D01*
X0051792Y0093065D01*
X0051753Y0093075D01*
X0051735Y0093077D01*
X0051721Y0093080D01*
X0051711Y0093082D01*
D02*
G37*
G36*
X0063536Y0097043D02*
X0063524Y0097043D01*
X0063497Y0097041D01*
X0063473Y0097036D01*
X0063450Y0097027D01*
X0063429Y0097020D01*
X0063416Y0097011D01*
X0063402Y0097001D01*
X0063395Y0096996D01*
X0063392Y0096994D01*
X0063371Y0096973D01*
X0063353Y0096945D01*
X0063337Y0096915D01*
X0063323Y0096883D01*
X0063311Y0096853D01*
X0063304Y0096830D01*
X0063302Y0096820D01*
X0063300Y0096813D01*
X0063297Y0096809D01*
X0063297Y0096806D01*
X0063290Y0096776D01*
X0063283Y0096744D01*
X0063279Y0096707D01*
X0063274Y0096665D01*
X0063267Y0096581D01*
X0063262Y0096495D01*
X0063260Y0096454D01*
X0063260Y0096416D01*
X0063258Y0096379D01*
X0063258Y0096349D01*
X0063258Y0096324D01*
X0063258Y0096305D01*
X0063258Y0096294D01*
X0063258Y0096289D01*
X0063258Y0096222D01*
X0063260Y0096157D01*
X0063262Y0096099D01*
X0063265Y0096045D01*
X0063267Y0095997D01*
X0063272Y0095952D01*
X0063276Y0095913D01*
X0063279Y0095878D01*
X0063283Y0095848D01*
X0063288Y0095823D01*
X0063293Y0095802D01*
X0063295Y0095783D01*
X0063297Y0095769D01*
X0063300Y0095760D01*
X0063302Y0095755D01*
X0063302Y0095753D01*
X0063316Y0095711D01*
X0063330Y0095674D01*
X0063344Y0095646D01*
X0063360Y0095623D01*
X0063371Y0095604D01*
X0063383Y0095593D01*
X0063390Y0095586D01*
X0063392Y0095584D01*
X0063416Y0095567D01*
X0063436Y0095556D01*
X0063460Y0095549D01*
X0063480Y0095544D01*
X0063499Y0095540D01*
X0063513Y0095537D01*
X0063524Y0095537D01*
X0063552Y0095540D01*
X0063576Y0095544D01*
X0063599Y0095551D01*
X0063617Y0095561D01*
X0063634Y0095570D01*
X0063647Y0095577D01*
X0063655Y0095581D01*
X0063657Y0095584D01*
X0063678Y0095604D01*
X0063696Y0095632D01*
X0063712Y0095663D01*
X0063726Y0095695D01*
X0063738Y0095723D01*
X0063745Y0095746D01*
X0063747Y0095755D01*
X0063750Y0095762D01*
X0063752Y0095767D01*
X0063752Y0095769D01*
X0063759Y0095799D01*
X0063763Y0095832D01*
X0063768Y0095869D01*
X0063773Y0095911D01*
X0063780Y0095997D01*
X0063784Y0096082D01*
X0063787Y0096124D01*
X0063787Y0096161D01*
X0063787Y0096196D01*
X0063789Y0096229D01*
X0063789Y0096254D01*
X0063789Y0096273D01*
X0063789Y0096284D01*
X0063789Y0096289D01*
X0063789Y0096356D01*
X0063787Y0096419D01*
X0063784Y0096479D01*
X0063782Y0096530D01*
X0063780Y0096579D01*
X0063775Y0096623D01*
X0063773Y0096663D01*
X0063768Y0096697D01*
X0063763Y0096727D01*
X0063761Y0096755D01*
X0063757Y0096776D01*
X0063754Y0096795D01*
X0063752Y0096809D01*
X0063750Y0096818D01*
X0063747Y0096822D01*
X0063747Y0096825D01*
X0063733Y0096867D01*
X0063719Y0096904D01*
X0063703Y0096932D01*
X0063689Y0096955D01*
X0063678Y0096973D01*
X0063666Y0096985D01*
X0063659Y0096992D01*
X0063657Y0096994D01*
X0063634Y0097011D01*
X0063613Y0097022D01*
X0063590Y0097031D01*
X0063569Y0097036D01*
X0063550Y0097041D01*
X0063536Y0097043D01*
D02*
G37*
%LPD*%
D26*
X0038142Y0086599D02*
X0073968Y0086599D01*
X0038142Y0098803D02*
X0073968Y0098803D01*
X0038142Y0086599D02*
X0038142Y0090536D01*
X0057054Y0092563D02*
X0060006Y0092563D01*
D28*
X0067669Y0095260D02*
X0067669Y0097622D01*
X0061332Y0090925D02*
X0061332Y0090532D01*
X0063301Y0090929D02*
X0063301Y0090536D01*
X0052610Y0095260D02*
X0052610Y0097622D01*
X0044244Y0095260D02*
X0044244Y0097622D01*
X0043854Y0091520D02*
X0044248Y0091520D01*
X0043850Y0093488D02*
X0044244Y0093488D01*
X0067669Y0087977D02*
X0067669Y0090339D01*
X0052217Y0087977D02*
X0052610Y0087977D01*
X0052212Y0089945D02*
X0052606Y0089945D01*
X0067079Y0091577D02*
X0067472Y0091577D01*
X0067075Y0093546D02*
X0067468Y0093546D01*
X0043846Y0089945D02*
X0044240Y0089945D01*
X0043850Y0087977D02*
X0044244Y0087977D01*
M02*
