G75*
G70*
%OFA0B0*%
%FSLAX25Y25*%
%IPPOS*%
%LPD*%
%AMOC8*
5,1,8,0,0,1.08239X$1,22.5*
%
%ADD23C,0.00591*%
%ADD24C,0.00472*%
%ADD25C,0.00500*%
%ADD26C,0.00787*%
%ADD27C,0.00394*%
X0000000Y0000000D02*
%LPD*%
G01*
D23*
X0101864Y0006320D02*
X0100551Y0008194D01*
X0099614Y0006320D02*
X0099614Y0010257D01*
X0099614Y0010257D02*
X0101114Y0010257D01*
X0101114Y0010257D02*
X0101489Y0010069D01*
X0101489Y0010069D02*
X0101676Y0009882D01*
X0101676Y0009882D02*
X0101864Y0009507D01*
X0101864Y0009507D02*
X0101864Y0008944D01*
X0101864Y0008944D02*
X0101676Y0008569D01*
X0101676Y0008569D02*
X0101489Y0008382D01*
X0101489Y0008382D02*
X0101114Y0008194D01*
X0101114Y0008194D02*
X0099614Y0008194D01*
X0105613Y0006320D02*
X0103363Y0006320D01*
X0104488Y0006320D02*
X0104488Y0010257D01*
X0104488Y0010257D02*
X0104113Y0009694D01*
X0104113Y0009694D02*
X0103738Y0009319D01*
X0103738Y0009319D02*
X0103363Y0009132D01*
X0022791Y0099163D02*
X0018854Y0099163D01*
X0022791Y0101038D02*
X0018854Y0101038D01*
X0018854Y0101038D02*
X0022791Y0103288D01*
X0022791Y0103288D02*
X0018854Y0103288D01*
X0023166Y0104225D02*
X0023166Y0107225D01*
X0022791Y0108162D02*
X0018854Y0108162D01*
X0022791Y0110412D02*
X0020541Y0108724D01*
X0018854Y0110412D02*
X0021103Y0108162D01*
X0022791Y0112099D02*
X0018854Y0112099D01*
X0018854Y0112099D02*
X0022791Y0114349D01*
X0022791Y0114349D02*
X0018854Y0114349D01*
X0018854Y0116973D02*
X0018854Y0117723D01*
X0018854Y0117723D02*
X0019041Y0118098D01*
X0019041Y0118098D02*
X0019416Y0118473D01*
X0019416Y0118473D02*
X0020166Y0118661D01*
X0020166Y0118661D02*
X0021478Y0118661D01*
X0021478Y0118661D02*
X0022228Y0118473D01*
X0022228Y0118473D02*
X0022603Y0118098D01*
X0022603Y0118098D02*
X0022791Y0117723D01*
X0022791Y0117723D02*
X0022791Y0116973D01*
X0022791Y0116973D02*
X0022603Y0116598D01*
X0022603Y0116598D02*
X0022228Y0116223D01*
X0022228Y0116223D02*
X0021478Y0116036D01*
X0021478Y0116036D02*
X0020166Y0116036D01*
X0020166Y0116036D02*
X0019416Y0116223D01*
X0019416Y0116223D02*
X0019041Y0116598D01*
X0019041Y0116598D02*
X0018854Y0116973D01*
X0022416Y0122598D02*
X0022603Y0122410D01*
X0022603Y0122410D02*
X0022791Y0121848D01*
X0022791Y0121848D02*
X0022791Y0121473D01*
X0022791Y0121473D02*
X0022603Y0120910D01*
X0022603Y0120910D02*
X0022228Y0120535D01*
X0022228Y0120535D02*
X0021853Y0120348D01*
X0021853Y0120348D02*
X0021103Y0120160D01*
X0021103Y0120160D02*
X0020541Y0120160D01*
X0020541Y0120160D02*
X0019791Y0120348D01*
X0019791Y0120348D02*
X0019416Y0120535D01*
X0019416Y0120535D02*
X0019041Y0120910D01*
X0019041Y0120910D02*
X0018854Y0121473D01*
X0018854Y0121473D02*
X0018854Y0121848D01*
X0018854Y0121848D02*
X0019041Y0122410D01*
X0019041Y0122410D02*
X0019229Y0122598D01*
X0022791Y0124285D02*
X0018854Y0124285D01*
X0022791Y0126535D02*
X0020541Y0124847D01*
X0018854Y0126535D02*
X0021103Y0124285D01*
X0019229Y0128034D02*
X0019041Y0128222D01*
X0019041Y0128222D02*
X0018854Y0128597D01*
X0018854Y0128597D02*
X0018854Y0129534D01*
X0018854Y0129534D02*
X0019041Y0129909D01*
X0019041Y0129909D02*
X0019229Y0130097D01*
X0019229Y0130097D02*
X0019604Y0130284D01*
X0019604Y0130284D02*
X0019978Y0130284D01*
X0019978Y0130284D02*
X0020541Y0130097D01*
X0020541Y0130097D02*
X0022791Y0127847D01*
X0022791Y0127847D02*
X0022791Y0130284D01*
X0016288Y0091675D02*
X0016100Y0091487D01*
X0016100Y0091487D02*
X0015538Y0091300D01*
X0015538Y0091300D02*
X0015163Y0091300D01*
X0015163Y0091300D02*
X0014601Y0091487D01*
X0014601Y0091487D02*
X0014226Y0091862D01*
X0014226Y0091862D02*
X0014038Y0092237D01*
X0014038Y0092237D02*
X0013851Y0092987D01*
X0013851Y0092987D02*
X0013851Y0093550D01*
X0013851Y0093550D02*
X0014038Y0094300D01*
X0014038Y0094300D02*
X0014226Y0094675D01*
X0014226Y0094675D02*
X0014601Y0095049D01*
X0014601Y0095049D02*
X0015163Y0095237D01*
X0015163Y0095237D02*
X0015538Y0095237D01*
X0015538Y0095237D02*
X0016100Y0095049D01*
X0016100Y0095049D02*
X0016288Y0094862D01*
X0017788Y0094862D02*
X0017975Y0095049D01*
X0017975Y0095049D02*
X0018350Y0095237D01*
X0018350Y0095237D02*
X0019288Y0095237D01*
X0019288Y0095237D02*
X0019663Y0095049D01*
X0019663Y0095049D02*
X0019850Y0094862D01*
X0019850Y0094862D02*
X0020037Y0094487D01*
X0020037Y0094487D02*
X0020037Y0094112D01*
X0020037Y0094112D02*
X0019850Y0093550D01*
X0019850Y0093550D02*
X0017600Y0091300D01*
X0017600Y0091300D02*
X0020037Y0091300D01*
X0022475Y0095237D02*
X0022850Y0095237D01*
X0022850Y0095237D02*
X0023225Y0095049D01*
X0023225Y0095049D02*
X0023412Y0094862D01*
X0023412Y0094862D02*
X0023600Y0094487D01*
X0023600Y0094487D02*
X0023787Y0093737D01*
X0023787Y0093737D02*
X0023787Y0092800D01*
X0023787Y0092800D02*
X0023600Y0092050D01*
X0023600Y0092050D02*
X0023412Y0091675D01*
X0023412Y0091675D02*
X0023225Y0091487D01*
X0023225Y0091487D02*
X0022850Y0091300D01*
X0022850Y0091300D02*
X0022475Y0091300D01*
X0022475Y0091300D02*
X0022100Y0091487D01*
X0022100Y0091487D02*
X0021912Y0091675D01*
X0021912Y0091675D02*
X0021725Y0092050D01*
X0021725Y0092050D02*
X0021537Y0092800D01*
X0021537Y0092800D02*
X0021537Y0093737D01*
X0021537Y0093737D02*
X0021725Y0094487D01*
X0021725Y0094487D02*
X0021912Y0094862D01*
X0021912Y0094862D02*
X0022100Y0095049D01*
X0022100Y0095049D02*
X0022475Y0095237D01*
X0019910Y0063073D02*
X0019723Y0062885D01*
X0019723Y0062885D02*
X0019160Y0062698D01*
X0019160Y0062698D02*
X0018785Y0062698D01*
X0018785Y0062698D02*
X0018223Y0062885D01*
X0018223Y0062885D02*
X0017848Y0063260D01*
X0017848Y0063260D02*
X0017660Y0063635D01*
X0017660Y0063635D02*
X0017473Y0064385D01*
X0017473Y0064385D02*
X0017473Y0064947D01*
X0017473Y0064947D02*
X0017660Y0065697D01*
X0017660Y0065697D02*
X0017848Y0066072D01*
X0017848Y0066072D02*
X0018223Y0066447D01*
X0018223Y0066447D02*
X0018785Y0066635D01*
X0018785Y0066635D02*
X0019160Y0066635D01*
X0019160Y0066635D02*
X0019723Y0066447D01*
X0019723Y0066447D02*
X0019910Y0066260D01*
X0023660Y0062698D02*
X0021410Y0062698D01*
X0022535Y0062698D02*
X0022535Y0066635D01*
X0022535Y0066635D02*
X0022160Y0066072D01*
X0022160Y0066072D02*
X0021785Y0065697D01*
X0021785Y0065697D02*
X0021410Y0065510D01*
X0025909Y0064947D02*
X0025534Y0065135D01*
X0025534Y0065135D02*
X0025347Y0065322D01*
X0025347Y0065322D02*
X0025159Y0065697D01*
X0025159Y0065697D02*
X0025159Y0065885D01*
X0025159Y0065885D02*
X0025347Y0066260D01*
X0025347Y0066260D02*
X0025534Y0066447D01*
X0025534Y0066447D02*
X0025909Y0066635D01*
X0025909Y0066635D02*
X0026659Y0066635D01*
X0026659Y0066635D02*
X0027034Y0066447D01*
X0027034Y0066447D02*
X0027222Y0066260D01*
X0027222Y0066260D02*
X0027409Y0065885D01*
X0027409Y0065885D02*
X0027409Y0065697D01*
X0027409Y0065697D02*
X0027222Y0065322D01*
X0027222Y0065322D02*
X0027034Y0065135D01*
X0027034Y0065135D02*
X0026659Y0064947D01*
X0026659Y0064947D02*
X0025909Y0064947D01*
X0025909Y0064947D02*
X0025534Y0064760D01*
X0025534Y0064760D02*
X0025347Y0064572D01*
X0025347Y0064572D02*
X0025159Y0064197D01*
X0025159Y0064197D02*
X0025159Y0063447D01*
X0025159Y0063447D02*
X0025347Y0063073D01*
X0025347Y0063073D02*
X0025534Y0062885D01*
X0025534Y0062885D02*
X0025909Y0062698D01*
X0025909Y0062698D02*
X0026659Y0062698D01*
X0026659Y0062698D02*
X0027034Y0062885D01*
X0027034Y0062885D02*
X0027222Y0063073D01*
X0027222Y0063073D02*
X0027409Y0063447D01*
X0027409Y0063447D02*
X0027409Y0064197D01*
X0027409Y0064197D02*
X0027222Y0064572D01*
X0027222Y0064572D02*
X0027034Y0064760D01*
X0027034Y0064760D02*
X0026659Y0064947D01*
X0033020Y0097699D02*
X0032833Y0097511D01*
X0032833Y0097511D02*
X0032270Y0097324D01*
X0032270Y0097324D02*
X0031895Y0097324D01*
X0031895Y0097324D02*
X0031333Y0097511D01*
X0031333Y0097511D02*
X0030958Y0097886D01*
X0030958Y0097886D02*
X0030771Y0098261D01*
X0030771Y0098261D02*
X0030583Y0099011D01*
X0030583Y0099011D02*
X0030583Y0099573D01*
X0030583Y0099573D02*
X0030771Y0100323D01*
X0030771Y0100323D02*
X0030958Y0100698D01*
X0030958Y0100698D02*
X0031333Y0101073D01*
X0031333Y0101073D02*
X0031895Y0101261D01*
X0031895Y0101261D02*
X0032270Y0101261D01*
X0032270Y0101261D02*
X0032833Y0101073D01*
X0032833Y0101073D02*
X0033020Y0100886D01*
X0036770Y0097324D02*
X0034520Y0097324D01*
X0035645Y0097324D02*
X0035645Y0101261D01*
X0035645Y0101261D02*
X0035270Y0100698D01*
X0035270Y0100698D02*
X0034895Y0100323D01*
X0034895Y0100323D02*
X0034520Y0100136D01*
X0040144Y0101261D02*
X0039394Y0101261D01*
X0039394Y0101261D02*
X0039019Y0101073D01*
X0039019Y0101073D02*
X0038832Y0100886D01*
X0038832Y0100886D02*
X0038457Y0100323D01*
X0038457Y0100323D02*
X0038270Y0099573D01*
X0038270Y0099573D02*
X0038270Y0098073D01*
X0038270Y0098073D02*
X0038457Y0097699D01*
X0038457Y0097699D02*
X0038645Y0097511D01*
X0038645Y0097511D02*
X0039019Y0097324D01*
X0039019Y0097324D02*
X0039769Y0097324D01*
X0039769Y0097324D02*
X0040144Y0097511D01*
X0040144Y0097511D02*
X0040332Y0097699D01*
X0040332Y0097699D02*
X0040519Y0098073D01*
X0040519Y0098073D02*
X0040519Y0099011D01*
X0040519Y0099011D02*
X0040332Y0099386D01*
X0040332Y0099386D02*
X0040144Y0099573D01*
X0040144Y0099573D02*
X0039769Y0099761D01*
X0039769Y0099761D02*
X0039019Y0099761D01*
X0039019Y0099761D02*
X0038645Y0099573D01*
X0038645Y0099573D02*
X0038457Y0099386D01*
X0038457Y0099386D02*
X0038270Y0099011D01*
X0080092Y0085729D02*
X0078780Y0087604D01*
X0077842Y0085729D02*
X0077842Y0089666D01*
X0077842Y0089666D02*
X0079342Y0089666D01*
X0079342Y0089666D02*
X0079717Y0089479D01*
X0079717Y0089479D02*
X0079904Y0089291D01*
X0079904Y0089291D02*
X0080092Y0088916D01*
X0080092Y0088916D02*
X0080092Y0088354D01*
X0080092Y0088354D02*
X0079904Y0087979D01*
X0079904Y0087979D02*
X0079717Y0087791D01*
X0079717Y0087791D02*
X0079342Y0087604D01*
X0079342Y0087604D02*
X0077842Y0087604D01*
X0083466Y0089666D02*
X0082717Y0089666D01*
X0082717Y0089666D02*
X0082342Y0089479D01*
X0082342Y0089479D02*
X0082154Y0089291D01*
X0082154Y0089291D02*
X0081779Y0088729D01*
X0081779Y0088729D02*
X0081592Y0087979D01*
X0081592Y0087979D02*
X0081592Y0086479D01*
X0081592Y0086479D02*
X0081779Y0086104D01*
X0081779Y0086104D02*
X0081967Y0085917D01*
X0081967Y0085917D02*
X0082342Y0085729D01*
X0082342Y0085729D02*
X0083091Y0085729D01*
X0083091Y0085729D02*
X0083466Y0085917D01*
X0083466Y0085917D02*
X0083654Y0086104D01*
X0083654Y0086104D02*
X0083841Y0086479D01*
X0083841Y0086479D02*
X0083841Y0087416D01*
X0083841Y0087416D02*
X0083654Y0087791D01*
X0083654Y0087791D02*
X0083466Y0087979D01*
X0083466Y0087979D02*
X0083091Y0088166D01*
X0083091Y0088166D02*
X0082342Y0088166D01*
X0082342Y0088166D02*
X0081967Y0087979D01*
X0081967Y0087979D02*
X0081779Y0087791D01*
X0081779Y0087791D02*
X0081592Y0087416D01*
X0040344Y0082284D02*
X0039031Y0084159D01*
X0038094Y0082284D02*
X0038094Y0086221D01*
X0038094Y0086221D02*
X0039594Y0086221D01*
X0039594Y0086221D02*
X0039969Y0086034D01*
X0039969Y0086034D02*
X0040156Y0085846D01*
X0040156Y0085846D02*
X0040344Y0085471D01*
X0040344Y0085471D02*
X0040344Y0084909D01*
X0040344Y0084909D02*
X0040156Y0084534D01*
X0040156Y0084534D02*
X0039969Y0084346D01*
X0039969Y0084346D02*
X0039594Y0084159D01*
X0039594Y0084159D02*
X0038094Y0084159D01*
X0041656Y0086221D02*
X0044281Y0086221D01*
X0044281Y0086221D02*
X0042594Y0082284D01*
X0055590Y0035131D02*
X0053715Y0033819D01*
X0055590Y0032882D02*
X0051653Y0032882D01*
X0051653Y0032882D02*
X0051653Y0034381D01*
X0051653Y0034381D02*
X0051840Y0034756D01*
X0051840Y0034756D02*
X0052028Y0034944D01*
X0052028Y0034944D02*
X0052403Y0035131D01*
X0052403Y0035131D02*
X0052965Y0035131D01*
X0052965Y0035131D02*
X0053340Y0034944D01*
X0053340Y0034944D02*
X0053528Y0034756D01*
X0053528Y0034756D02*
X0053715Y0034381D01*
X0053715Y0034381D02*
X0053715Y0032882D01*
X0052965Y0038506D02*
X0055590Y0038506D01*
X0051465Y0037568D02*
X0054278Y0036631D01*
X0054278Y0036631D02*
X0054278Y0039068D01*
X0074182Y0062600D02*
X0073994Y0062413D01*
X0073994Y0062413D02*
X0073432Y0062225D01*
X0073432Y0062225D02*
X0073057Y0062225D01*
X0073057Y0062225D02*
X0072494Y0062413D01*
X0072494Y0062413D02*
X0072119Y0062788D01*
X0072119Y0062788D02*
X0071932Y0063163D01*
X0071932Y0063163D02*
X0071744Y0063912D01*
X0071744Y0063912D02*
X0071744Y0064475D01*
X0071744Y0064475D02*
X0071932Y0065225D01*
X0071932Y0065225D02*
X0072119Y0065600D01*
X0072119Y0065600D02*
X0072494Y0065975D01*
X0072494Y0065975D02*
X0073057Y0066162D01*
X0073057Y0066162D02*
X0073432Y0066162D01*
X0073432Y0066162D02*
X0073994Y0065975D01*
X0073994Y0065975D02*
X0074182Y0065787D01*
X0075681Y0065787D02*
X0075869Y0065975D01*
X0075869Y0065975D02*
X0076244Y0066162D01*
X0076244Y0066162D02*
X0077181Y0066162D01*
X0077181Y0066162D02*
X0077556Y0065975D01*
X0077556Y0065975D02*
X0077744Y0065787D01*
X0077744Y0065787D02*
X0077931Y0065412D01*
X0077931Y0065412D02*
X0077931Y0065037D01*
X0077931Y0065037D02*
X0077744Y0064475D01*
X0077744Y0064475D02*
X0075494Y0062225D01*
X0075494Y0062225D02*
X0077931Y0062225D01*
X0079431Y0065787D02*
X0079618Y0065975D01*
X0079618Y0065975D02*
X0079993Y0066162D01*
X0079993Y0066162D02*
X0080931Y0066162D01*
X0080931Y0066162D02*
X0081306Y0065975D01*
X0081306Y0065975D02*
X0081493Y0065787D01*
X0081493Y0065787D02*
X0081681Y0065412D01*
X0081681Y0065412D02*
X0081681Y0065037D01*
X0081681Y0065037D02*
X0081493Y0064475D01*
X0081493Y0064475D02*
X0079244Y0062225D01*
X0079244Y0062225D02*
X0081681Y0062225D01*
X0011502Y0094076D02*
X0011502Y0098013D01*
X0013376Y0094076D02*
X0013376Y0098013D01*
X0013376Y0098013D02*
X0015626Y0094076D01*
X0015626Y0094076D02*
X0015626Y0098013D01*
X0016564Y0093701D02*
X0019563Y0093701D01*
X0020501Y0094076D02*
X0020501Y0098013D01*
X0022750Y0094076D02*
X0021063Y0096325D01*
X0022750Y0098013D02*
X0020501Y0095763D01*
X0024438Y0094076D02*
X0024438Y0098013D01*
X0024438Y0098013D02*
X0026687Y0094076D01*
X0026687Y0094076D02*
X0026687Y0098013D01*
X0029312Y0098013D02*
X0030062Y0098013D01*
X0030062Y0098013D02*
X0030437Y0097825D01*
X0030437Y0097825D02*
X0030812Y0097450D01*
X0030812Y0097450D02*
X0030999Y0096700D01*
X0030999Y0096700D02*
X0030999Y0095388D01*
X0030999Y0095388D02*
X0030812Y0094638D01*
X0030812Y0094638D02*
X0030437Y0094263D01*
X0030437Y0094263D02*
X0030062Y0094076D01*
X0030062Y0094076D02*
X0029312Y0094076D01*
X0029312Y0094076D02*
X0028937Y0094263D01*
X0028937Y0094263D02*
X0028562Y0094638D01*
X0028562Y0094638D02*
X0028375Y0095388D01*
X0028375Y0095388D02*
X0028375Y0096700D01*
X0028375Y0096700D02*
X0028562Y0097450D01*
X0028562Y0097450D02*
X0028937Y0097825D01*
X0028937Y0097825D02*
X0029312Y0098013D01*
X0034936Y0094450D02*
X0034749Y0094263D01*
X0034749Y0094263D02*
X0034186Y0094076D01*
X0034186Y0094076D02*
X0033811Y0094076D01*
X0033811Y0094076D02*
X0033249Y0094263D01*
X0033249Y0094263D02*
X0032874Y0094638D01*
X0032874Y0094638D02*
X0032687Y0095013D01*
X0032687Y0095013D02*
X0032499Y0095763D01*
X0032499Y0095763D02*
X0032499Y0096325D01*
X0032499Y0096325D02*
X0032687Y0097075D01*
X0032687Y0097075D02*
X0032874Y0097450D01*
X0032874Y0097450D02*
X0033249Y0097825D01*
X0033249Y0097825D02*
X0033811Y0098013D01*
X0033811Y0098013D02*
X0034186Y0098013D01*
X0034186Y0098013D02*
X0034749Y0097825D01*
X0034749Y0097825D02*
X0034936Y0097638D01*
X0036624Y0094076D02*
X0036624Y0098013D01*
X0038873Y0094076D02*
X0037186Y0096325D01*
X0038873Y0098013D02*
X0036624Y0095763D01*
X0042623Y0094076D02*
X0040373Y0094076D01*
X0041498Y0094076D02*
X0041498Y0098013D01*
X0041498Y0098013D02*
X0041123Y0097450D01*
X0041123Y0097450D02*
X0040748Y0097075D01*
X0040748Y0097075D02*
X0040373Y0096888D01*
X0050078Y0056937D02*
X0046141Y0056937D01*
X0046141Y0056937D02*
X0046141Y0057874D01*
X0046141Y0057874D02*
X0046328Y0058436D01*
X0046328Y0058436D02*
X0046703Y0058811D01*
X0046703Y0058811D02*
X0047078Y0058999D01*
X0047078Y0058999D02*
X0047828Y0059186D01*
X0047828Y0059186D02*
X0048391Y0059186D01*
X0048391Y0059186D02*
X0049141Y0058999D01*
X0049141Y0058999D02*
X0049516Y0058811D01*
X0049516Y0058811D02*
X0049891Y0058436D01*
X0049891Y0058436D02*
X0050078Y0057874D01*
X0050078Y0057874D02*
X0050078Y0056937D01*
X0046141Y0060499D02*
X0046141Y0062936D01*
X0046141Y0062936D02*
X0047641Y0061624D01*
X0047641Y0061624D02*
X0047641Y0062186D01*
X0047641Y0062186D02*
X0047828Y0062561D01*
X0047828Y0062561D02*
X0048016Y0062748D01*
X0048016Y0062748D02*
X0048391Y0062936D01*
X0048391Y0062936D02*
X0049328Y0062936D01*
X0049328Y0062936D02*
X0049703Y0062748D01*
X0049703Y0062748D02*
X0049891Y0062561D01*
X0049891Y0062561D02*
X0050078Y0062186D01*
X0050078Y0062186D02*
X0050078Y0061061D01*
X0050078Y0061061D02*
X0049891Y0060686D01*
X0049891Y0060686D02*
X0049703Y0060499D01*
X0032519Y0019653D02*
X0028582Y0019653D01*
X0028582Y0019653D02*
X0028582Y0020591D01*
X0028582Y0020591D02*
X0028769Y0021153D01*
X0028769Y0021153D02*
X0029144Y0021528D01*
X0029144Y0021528D02*
X0029519Y0021715D01*
X0029519Y0021715D02*
X0030269Y0021903D01*
X0030269Y0021903D02*
X0030832Y0021903D01*
X0030832Y0021903D02*
X0031582Y0021715D01*
X0031582Y0021715D02*
X0031957Y0021528D01*
X0031957Y0021528D02*
X0032331Y0021153D01*
X0032331Y0021153D02*
X0032519Y0020591D01*
X0032519Y0020591D02*
X0032519Y0019653D01*
X0028957Y0023403D02*
X0028769Y0023590D01*
X0028769Y0023590D02*
X0028582Y0023965D01*
X0028582Y0023965D02*
X0028582Y0024903D01*
X0028582Y0024903D02*
X0028769Y0025277D01*
X0028769Y0025277D02*
X0028957Y0025465D01*
X0028957Y0025465D02*
X0029332Y0025652D01*
X0029332Y0025652D02*
X0029707Y0025652D01*
X0029707Y0025652D02*
X0030269Y0025465D01*
X0030269Y0025465D02*
X0032519Y0023215D01*
X0032519Y0023215D02*
X0032519Y0025652D01*
X0077016Y0005612D02*
X0076829Y0005424D01*
X0076829Y0005424D02*
X0076266Y0005237D01*
X0076266Y0005237D02*
X0075891Y0005237D01*
X0075891Y0005237D02*
X0075329Y0005424D01*
X0075329Y0005424D02*
X0074954Y0005799D01*
X0074954Y0005799D02*
X0074767Y0006174D01*
X0074767Y0006174D02*
X0074579Y0006924D01*
X0074579Y0006924D02*
X0074579Y0007487D01*
X0074579Y0007487D02*
X0074767Y0008237D01*
X0074767Y0008237D02*
X0074954Y0008612D01*
X0074954Y0008612D02*
X0075329Y0008986D01*
X0075329Y0008986D02*
X0075891Y0009174D01*
X0075891Y0009174D02*
X0076266Y0009174D01*
X0076266Y0009174D02*
X0076829Y0008986D01*
X0076829Y0008986D02*
X0077016Y0008799D01*
X0080766Y0005237D02*
X0078516Y0005237D01*
X0079641Y0005237D02*
X0079641Y0009174D01*
X0079641Y0009174D02*
X0079266Y0008612D01*
X0079266Y0008612D02*
X0078891Y0008237D01*
X0078891Y0008237D02*
X0078516Y0008049D01*
X0082078Y0009174D02*
X0084515Y0009174D01*
X0084515Y0009174D02*
X0083203Y0007674D01*
X0083203Y0007674D02*
X0083765Y0007674D01*
X0083765Y0007674D02*
X0084140Y0007487D01*
X0084140Y0007487D02*
X0084328Y0007299D01*
X0084328Y0007299D02*
X0084515Y0006924D01*
X0084515Y0006924D02*
X0084515Y0005987D01*
X0084515Y0005987D02*
X0084328Y0005612D01*
X0084328Y0005612D02*
X0084140Y0005424D01*
X0084140Y0005424D02*
X0083765Y0005237D01*
X0083765Y0005237D02*
X0082641Y0005237D01*
X0082641Y0005237D02*
X0082266Y0005424D01*
X0082266Y0005424D02*
X0082078Y0005612D01*
X0079509Y0102894D02*
X0080259Y0102894D01*
X0080259Y0102894D02*
X0080634Y0102707D01*
X0080634Y0102707D02*
X0081009Y0102332D01*
X0081009Y0102332D02*
X0081196Y0101582D01*
X0081196Y0101582D02*
X0081196Y0100270D01*
X0081196Y0100270D02*
X0081009Y0099520D01*
X0081009Y0099520D02*
X0080634Y0099145D01*
X0080634Y0099145D02*
X0080259Y0098957D01*
X0080259Y0098957D02*
X0079509Y0098957D01*
X0079509Y0098957D02*
X0079134Y0099145D01*
X0079134Y0099145D02*
X0078759Y0099520D01*
X0078759Y0099520D02*
X0078571Y0100270D01*
X0078571Y0100270D02*
X0078571Y0101582D01*
X0078571Y0101582D02*
X0078759Y0102332D01*
X0078759Y0102332D02*
X0079134Y0102707D01*
X0079134Y0102707D02*
X0079509Y0102894D01*
X0082883Y0102894D02*
X0082883Y0099707D01*
X0082883Y0099707D02*
X0083071Y0099332D01*
X0083071Y0099332D02*
X0083258Y0099145D01*
X0083258Y0099145D02*
X0083633Y0098957D01*
X0083633Y0098957D02*
X0084383Y0098957D01*
X0084383Y0098957D02*
X0084758Y0099145D01*
X0084758Y0099145D02*
X0084946Y0099332D01*
X0084946Y0099332D02*
X0085133Y0099707D01*
X0085133Y0099707D02*
X0085133Y0102894D01*
X0086445Y0102894D02*
X0088695Y0102894D01*
X0087570Y0098957D02*
X0087570Y0102894D01*
X0089070Y0098582D02*
X0092070Y0098582D01*
X0093007Y0098957D02*
X0093007Y0102894D01*
X0095257Y0098957D02*
X0093570Y0101207D01*
X0095257Y0102894D02*
X0093007Y0100645D01*
X0096944Y0098957D02*
X0096944Y0102894D01*
X0096944Y0102894D02*
X0099194Y0098957D01*
X0099194Y0098957D02*
X0099194Y0102894D01*
X0101819Y0102894D02*
X0102568Y0102894D01*
X0102568Y0102894D02*
X0102943Y0102707D01*
X0102943Y0102707D02*
X0103318Y0102332D01*
X0103318Y0102332D02*
X0103506Y0101582D01*
X0103506Y0101582D02*
X0103506Y0100270D01*
X0103506Y0100270D02*
X0103318Y0099520D01*
X0103318Y0099520D02*
X0102943Y0099145D01*
X0102943Y0099145D02*
X0102568Y0098957D01*
X0102568Y0098957D02*
X0101819Y0098957D01*
X0101819Y0098957D02*
X0101444Y0099145D01*
X0101444Y0099145D02*
X0101069Y0099520D01*
X0101069Y0099520D02*
X0100881Y0100270D01*
X0100881Y0100270D02*
X0100881Y0101582D01*
X0100881Y0101582D02*
X0101069Y0102332D01*
X0101069Y0102332D02*
X0101444Y0102707D01*
X0101444Y0102707D02*
X0101819Y0102894D01*
X0107443Y0099332D02*
X0107255Y0099145D01*
X0107255Y0099145D02*
X0106693Y0098957D01*
X0106693Y0098957D02*
X0106318Y0098957D01*
X0106318Y0098957D02*
X0105756Y0099145D01*
X0105756Y0099145D02*
X0105381Y0099520D01*
X0105381Y0099520D02*
X0105193Y0099895D01*
X0105193Y0099895D02*
X0105006Y0100645D01*
X0105006Y0100645D02*
X0105006Y0101207D01*
X0105006Y0101207D02*
X0105193Y0101957D01*
X0105193Y0101957D02*
X0105381Y0102332D01*
X0105381Y0102332D02*
X0105756Y0102707D01*
X0105756Y0102707D02*
X0106318Y0102894D01*
X0106318Y0102894D02*
X0106693Y0102894D01*
X0106693Y0102894D02*
X0107255Y0102707D01*
X0107255Y0102707D02*
X0107443Y0102519D01*
X0109130Y0098957D02*
X0109130Y0102894D01*
X0111380Y0098957D02*
X0109693Y0101207D01*
X0111380Y0102894D02*
X0109130Y0100645D01*
X0115129Y0098957D02*
X0112880Y0098957D01*
X0114005Y0098957D02*
X0114005Y0102894D01*
X0114005Y0102894D02*
X0113630Y0102332D01*
X0113630Y0102332D02*
X0113255Y0101957D01*
X0113255Y0101957D02*
X0112880Y0101770D01*
X0030924Y0058438D02*
X0031111Y0058251D01*
X0031111Y0058251D02*
X0031298Y0057688D01*
X0031298Y0057688D02*
X0031298Y0057313D01*
X0031298Y0057313D02*
X0031111Y0056751D01*
X0031111Y0056751D02*
X0030736Y0056376D01*
X0030736Y0056376D02*
X0030361Y0056189D01*
X0030361Y0056189D02*
X0029611Y0056001D01*
X0029611Y0056001D02*
X0029049Y0056001D01*
X0029049Y0056001D02*
X0028299Y0056189D01*
X0028299Y0056189D02*
X0027924Y0056376D01*
X0027924Y0056376D02*
X0027549Y0056751D01*
X0027549Y0056751D02*
X0027361Y0057313D01*
X0027361Y0057313D02*
X0027361Y0057688D01*
X0027361Y0057688D02*
X0027549Y0058251D01*
X0027549Y0058251D02*
X0027736Y0058438D01*
X0027736Y0059938D02*
X0027549Y0060126D01*
X0027549Y0060126D02*
X0027361Y0060501D01*
X0027361Y0060501D02*
X0027361Y0061438D01*
X0027361Y0061438D02*
X0027549Y0061813D01*
X0027549Y0061813D02*
X0027736Y0062000D01*
X0027736Y0062000D02*
X0028111Y0062188D01*
X0028111Y0062188D02*
X0028486Y0062188D01*
X0028486Y0062188D02*
X0029049Y0062000D01*
X0029049Y0062000D02*
X0031298Y0059751D01*
X0031298Y0059751D02*
X0031298Y0062188D01*
X0080021Y0132068D02*
X0080771Y0132068D01*
X0080771Y0132068D02*
X0081145Y0131880D01*
X0081145Y0131880D02*
X0081520Y0131505D01*
X0081520Y0131505D02*
X0081708Y0130755D01*
X0081708Y0130755D02*
X0081708Y0129443D01*
X0081708Y0129443D02*
X0081520Y0128693D01*
X0081520Y0128693D02*
X0081145Y0128318D01*
X0081145Y0128318D02*
X0080771Y0128131D01*
X0080771Y0128131D02*
X0080021Y0128131D01*
X0080021Y0128131D02*
X0079646Y0128318D01*
X0079646Y0128318D02*
X0079271Y0128693D01*
X0079271Y0128693D02*
X0079083Y0129443D01*
X0079083Y0129443D02*
X0079083Y0130755D01*
X0079083Y0130755D02*
X0079271Y0131505D01*
X0079271Y0131505D02*
X0079646Y0131880D01*
X0079646Y0131880D02*
X0080021Y0132068D01*
X0083395Y0132068D02*
X0083395Y0128881D01*
X0083395Y0128881D02*
X0083583Y0128506D01*
X0083583Y0128506D02*
X0083770Y0128318D01*
X0083770Y0128318D02*
X0084145Y0128131D01*
X0084145Y0128131D02*
X0084895Y0128131D01*
X0084895Y0128131D02*
X0085270Y0128318D01*
X0085270Y0128318D02*
X0085457Y0128506D01*
X0085457Y0128506D02*
X0085645Y0128881D01*
X0085645Y0128881D02*
X0085645Y0132068D01*
X0086957Y0132068D02*
X0089207Y0132068D01*
X0088082Y0128131D02*
X0088082Y0132068D01*
X0089582Y0127756D02*
X0092582Y0127756D01*
X0093519Y0128131D02*
X0093519Y0132068D01*
X0095769Y0128131D02*
X0094081Y0130380D01*
X0095769Y0132068D02*
X0093519Y0129818D01*
X0097456Y0128131D02*
X0097456Y0132068D01*
X0097456Y0132068D02*
X0099706Y0128131D01*
X0099706Y0128131D02*
X0099706Y0132068D01*
X0102330Y0132068D02*
X0103080Y0132068D01*
X0103080Y0132068D02*
X0103455Y0131880D01*
X0103455Y0131880D02*
X0103830Y0131505D01*
X0103830Y0131505D02*
X0104018Y0130755D01*
X0104018Y0130755D02*
X0104018Y0129443D01*
X0104018Y0129443D02*
X0103830Y0128693D01*
X0103830Y0128693D02*
X0103455Y0128318D01*
X0103455Y0128318D02*
X0103080Y0128131D01*
X0103080Y0128131D02*
X0102330Y0128131D01*
X0102330Y0128131D02*
X0101955Y0128318D01*
X0101955Y0128318D02*
X0101580Y0128693D01*
X0101580Y0128693D02*
X0101393Y0129443D01*
X0101393Y0129443D02*
X0101393Y0130755D01*
X0101393Y0130755D02*
X0101580Y0131505D01*
X0101580Y0131505D02*
X0101955Y0131880D01*
X0101955Y0131880D02*
X0102330Y0132068D01*
X0107955Y0128506D02*
X0107767Y0128318D01*
X0107767Y0128318D02*
X0107205Y0128131D01*
X0107205Y0128131D02*
X0106830Y0128131D01*
X0106830Y0128131D02*
X0106267Y0128318D01*
X0106267Y0128318D02*
X0105892Y0128693D01*
X0105892Y0128693D02*
X0105705Y0129068D01*
X0105705Y0129068D02*
X0105517Y0129818D01*
X0105517Y0129818D02*
X0105517Y0130380D01*
X0105517Y0130380D02*
X0105705Y0131130D01*
X0105705Y0131130D02*
X0105892Y0131505D01*
X0105892Y0131505D02*
X0106267Y0131880D01*
X0106267Y0131880D02*
X0106830Y0132068D01*
X0106830Y0132068D02*
X0107205Y0132068D01*
X0107205Y0132068D02*
X0107767Y0131880D01*
X0107767Y0131880D02*
X0107955Y0131693D01*
X0109642Y0128131D02*
X0109642Y0132068D01*
X0111892Y0128131D02*
X0110204Y0130380D01*
X0111892Y0132068D02*
X0109642Y0129818D01*
X0113391Y0131693D02*
X0113579Y0131880D01*
X0113579Y0131880D02*
X0113954Y0132068D01*
X0113954Y0132068D02*
X0114891Y0132068D01*
X0114891Y0132068D02*
X0115266Y0131880D01*
X0115266Y0131880D02*
X0115454Y0131693D01*
X0115454Y0131693D02*
X0115641Y0131318D01*
X0115641Y0131318D02*
X0115641Y0130943D01*
X0115641Y0130943D02*
X0115454Y0130380D01*
X0115454Y0130380D02*
X0113204Y0128131D01*
X0113204Y0128131D02*
X0115641Y0128131D01*
X0027430Y0090592D02*
X0027242Y0090405D01*
X0027242Y0090405D02*
X0026680Y0090217D01*
X0026680Y0090217D02*
X0026305Y0090217D01*
X0026305Y0090217D02*
X0025742Y0090405D01*
X0025742Y0090405D02*
X0025367Y0090780D01*
X0025367Y0090780D02*
X0025180Y0091155D01*
X0025180Y0091155D02*
X0024992Y0091905D01*
X0024992Y0091905D02*
X0024992Y0092467D01*
X0024992Y0092467D02*
X0025180Y0093217D01*
X0025180Y0093217D02*
X0025367Y0093592D01*
X0025367Y0093592D02*
X0025742Y0093967D01*
X0025742Y0093967D02*
X0026305Y0094154D01*
X0026305Y0094154D02*
X0026680Y0094154D01*
X0026680Y0094154D02*
X0027242Y0093967D01*
X0027242Y0093967D02*
X0027430Y0093779D01*
X0031179Y0090217D02*
X0028930Y0090217D01*
X0030054Y0090217D02*
X0030054Y0094154D01*
X0030054Y0094154D02*
X0029679Y0093592D01*
X0029679Y0093592D02*
X0029304Y0093217D01*
X0029304Y0093217D02*
X0028930Y0093029D01*
X0034741Y0094154D02*
X0032867Y0094154D01*
X0032867Y0094154D02*
X0032679Y0092279D01*
X0032679Y0092279D02*
X0032867Y0092467D01*
X0032867Y0092467D02*
X0033241Y0092654D01*
X0033241Y0092654D02*
X0034179Y0092654D01*
X0034179Y0092654D02*
X0034554Y0092467D01*
X0034554Y0092467D02*
X0034741Y0092279D01*
X0034741Y0092279D02*
X0034929Y0091905D01*
X0034929Y0091905D02*
X0034929Y0090967D01*
X0034929Y0090967D02*
X0034741Y0090592D01*
X0034741Y0090592D02*
X0034554Y0090405D01*
X0034554Y0090405D02*
X0034179Y0090217D01*
X0034179Y0090217D02*
X0033241Y0090217D01*
X0033241Y0090217D02*
X0032867Y0090405D01*
X0032867Y0090405D02*
X0032679Y0090592D01*
X0032243Y0033433D02*
X0028306Y0033433D01*
X0028306Y0033433D02*
X0028306Y0034370D01*
X0028306Y0034370D02*
X0028494Y0034933D01*
X0028494Y0034933D02*
X0028869Y0035307D01*
X0028869Y0035307D02*
X0029244Y0035495D01*
X0029244Y0035495D02*
X0029994Y0035682D01*
X0029994Y0035682D02*
X0030556Y0035682D01*
X0030556Y0035682D02*
X0031306Y0035495D01*
X0031306Y0035495D02*
X0031681Y0035307D01*
X0031681Y0035307D02*
X0032056Y0034933D01*
X0032056Y0034933D02*
X0032243Y0034370D01*
X0032243Y0034370D02*
X0032243Y0033433D01*
X0032243Y0039432D02*
X0032243Y0037182D01*
X0032243Y0038307D02*
X0028306Y0038307D01*
X0028306Y0038307D02*
X0028869Y0037932D01*
X0028869Y0037932D02*
X0029244Y0037557D01*
X0029244Y0037557D02*
X0029431Y0037182D01*
X0012421Y0000649D02*
X0008484Y0000649D01*
X0008484Y0000649D02*
X0008484Y0002148D01*
X0008484Y0002148D02*
X0008671Y0002523D01*
X0008671Y0002523D02*
X0008858Y0002711D01*
X0008858Y0002711D02*
X0009233Y0002898D01*
X0009233Y0002898D02*
X0009796Y0002898D01*
X0009796Y0002898D02*
X0010171Y0002711D01*
X0010171Y0002711D02*
X0010358Y0002523D01*
X0010358Y0002523D02*
X0010546Y0002148D01*
X0010546Y0002148D02*
X0010546Y0000649D01*
X0012421Y0004586D02*
X0008484Y0004586D01*
X0008484Y0004586D02*
X0008484Y0006085D01*
X0008484Y0006085D02*
X0008671Y0006460D01*
X0008671Y0006460D02*
X0008858Y0006648D01*
X0008858Y0006648D02*
X0009233Y0006835D01*
X0009233Y0006835D02*
X0009796Y0006835D01*
X0009796Y0006835D02*
X0010171Y0006648D01*
X0010171Y0006648D02*
X0010358Y0006460D01*
X0010358Y0006460D02*
X0010546Y0006085D01*
X0010546Y0006085D02*
X0010546Y0004586D01*
X0012233Y0008335D02*
X0012421Y0008898D01*
X0012421Y0008898D02*
X0012421Y0009835D01*
X0012421Y0009835D02*
X0012233Y0010210D01*
X0012233Y0010210D02*
X0012046Y0010397D01*
X0012046Y0010397D02*
X0011671Y0010585D01*
X0011671Y0010585D02*
X0011296Y0010585D01*
X0011296Y0010585D02*
X0010921Y0010397D01*
X0010921Y0010397D02*
X0010733Y0010210D01*
X0010733Y0010210D02*
X0010546Y0009835D01*
X0010546Y0009835D02*
X0010358Y0009085D01*
X0010358Y0009085D02*
X0010171Y0008710D01*
X0010171Y0008710D02*
X0009983Y0008523D01*
X0009983Y0008523D02*
X0009608Y0008335D01*
X0009608Y0008335D02*
X0009233Y0008335D01*
X0009233Y0008335D02*
X0008858Y0008523D01*
X0008858Y0008523D02*
X0008671Y0008710D01*
X0008671Y0008710D02*
X0008484Y0009085D01*
X0008484Y0009085D02*
X0008484Y0010022D01*
X0008484Y0010022D02*
X0008671Y0010585D01*
X0008858Y0012085D02*
X0008671Y0012272D01*
X0008671Y0012272D02*
X0008484Y0012647D01*
X0008484Y0012647D02*
X0008484Y0013585D01*
X0008484Y0013585D02*
X0008671Y0013960D01*
X0008671Y0013960D02*
X0008858Y0014147D01*
X0008858Y0014147D02*
X0009233Y0014334D01*
X0009233Y0014334D02*
X0009608Y0014334D01*
X0009608Y0014334D02*
X0010171Y0014147D01*
X0010171Y0014147D02*
X0012421Y0011897D01*
X0012421Y0011897D02*
X0012421Y0014334D01*
X0012796Y0015084D02*
X0012796Y0018084D01*
X0012046Y0021271D02*
X0012233Y0021084D01*
X0012233Y0021084D02*
X0012421Y0020521D01*
X0012421Y0020521D02*
X0012421Y0020146D01*
X0012421Y0020146D02*
X0012233Y0019584D01*
X0012233Y0019584D02*
X0011858Y0019209D01*
X0011858Y0019209D02*
X0011483Y0019021D01*
X0011483Y0019021D02*
X0010733Y0018834D01*
X0010733Y0018834D02*
X0010171Y0018834D01*
X0010171Y0018834D02*
X0009421Y0019021D01*
X0009421Y0019021D02*
X0009046Y0019209D01*
X0009046Y0019209D02*
X0008671Y0019584D01*
X0008671Y0019584D02*
X0008484Y0020146D01*
X0008484Y0020146D02*
X0008484Y0020521D01*
X0008484Y0020521D02*
X0008671Y0021084D01*
X0008671Y0021084D02*
X0008858Y0021271D01*
X0012421Y0022958D02*
X0008484Y0022958D01*
X0008484Y0022958D02*
X0008484Y0024458D01*
X0008484Y0024458D02*
X0008671Y0024833D01*
X0008671Y0024833D02*
X0008858Y0025021D01*
X0008858Y0025021D02*
X0009233Y0025208D01*
X0009233Y0025208D02*
X0009796Y0025208D01*
X0009796Y0025208D02*
X0010171Y0025021D01*
X0010171Y0025021D02*
X0010358Y0024833D01*
X0010358Y0024833D02*
X0010546Y0024458D01*
X0010546Y0024458D02*
X0010546Y0022958D01*
X0008484Y0026895D02*
X0011671Y0026895D01*
X0011671Y0026895D02*
X0012046Y0027083D01*
X0012046Y0027083D02*
X0012233Y0027270D01*
X0012233Y0027270D02*
X0012421Y0027645D01*
X0012421Y0027645D02*
X0012421Y0028395D01*
X0012421Y0028395D02*
X0012233Y0028770D01*
X0012233Y0028770D02*
X0012046Y0028958D01*
X0012046Y0028958D02*
X0011671Y0029145D01*
X0011671Y0029145D02*
X0008484Y0029145D01*
X0012421Y0033082D02*
X0012421Y0030832D01*
X0012421Y0031957D02*
X0008484Y0031957D01*
X0008484Y0031957D02*
X0009046Y0031582D01*
X0009046Y0031582D02*
X0009421Y0031207D01*
X0009421Y0031207D02*
X0009608Y0030832D01*
X0102499Y0024008D02*
X0105686Y0024008D01*
X0105686Y0024008D02*
X0106061Y0024196D01*
X0106061Y0024196D02*
X0106249Y0024383D01*
X0106249Y0024383D02*
X0106436Y0024758D01*
X0106436Y0024758D02*
X0106436Y0025508D01*
X0106436Y0025508D02*
X0106249Y0025883D01*
X0106249Y0025883D02*
X0106061Y0026070D01*
X0106061Y0026070D02*
X0105686Y0026258D01*
X0105686Y0026258D02*
X0102499Y0026258D01*
X0102874Y0027945D02*
X0102687Y0028133D01*
X0102687Y0028133D02*
X0102499Y0028508D01*
X0102499Y0028508D02*
X0102499Y0029445D01*
X0102499Y0029445D02*
X0102687Y0029820D01*
X0102687Y0029820D02*
X0102874Y0030008D01*
X0102874Y0030008D02*
X0103249Y0030195D01*
X0103249Y0030195D02*
X0103624Y0030195D01*
X0103624Y0030195D02*
X0104187Y0030008D01*
X0104187Y0030008D02*
X0106436Y0027758D01*
X0106436Y0027758D02*
X0106436Y0030195D01*
X0058581Y0070919D02*
X0058769Y0070731D01*
X0058769Y0070731D02*
X0058956Y0070169D01*
X0058956Y0070169D02*
X0058956Y0069794D01*
X0058956Y0069794D02*
X0058769Y0069231D01*
X0058769Y0069231D02*
X0058394Y0068856D01*
X0058394Y0068856D02*
X0058019Y0068669D01*
X0058019Y0068669D02*
X0057269Y0068481D01*
X0057269Y0068481D02*
X0056706Y0068481D01*
X0056706Y0068481D02*
X0055956Y0068669D01*
X0055956Y0068669D02*
X0055581Y0068856D01*
X0055581Y0068856D02*
X0055206Y0069231D01*
X0055206Y0069231D02*
X0055019Y0069794D01*
X0055019Y0069794D02*
X0055019Y0070169D01*
X0055019Y0070169D02*
X0055206Y0070731D01*
X0055206Y0070731D02*
X0055394Y0070919D01*
X0058956Y0074668D02*
X0058956Y0072418D01*
X0058956Y0073543D02*
X0055019Y0073543D01*
X0055019Y0073543D02*
X0055581Y0073168D01*
X0055581Y0073168D02*
X0055956Y0072793D01*
X0055956Y0072793D02*
X0056144Y0072418D01*
X0070235Y0068532D02*
X0070422Y0068345D01*
X0070422Y0068345D02*
X0070610Y0067782D01*
X0070610Y0067782D02*
X0070610Y0067407D01*
X0070610Y0067407D02*
X0070422Y0066845D01*
X0070422Y0066845D02*
X0070047Y0066470D01*
X0070047Y0066470D02*
X0069672Y0066282D01*
X0069672Y0066282D02*
X0068922Y0066095D01*
X0068922Y0066095D02*
X0068360Y0066095D01*
X0068360Y0066095D02*
X0067610Y0066282D01*
X0067610Y0066282D02*
X0067235Y0066470D01*
X0067235Y0066470D02*
X0066860Y0066845D01*
X0066860Y0066845D02*
X0066673Y0067407D01*
X0066673Y0067407D02*
X0066673Y0067782D01*
X0066673Y0067782D02*
X0066860Y0068345D01*
X0066860Y0068345D02*
X0067047Y0068532D01*
X0070610Y0072282D02*
X0070610Y0070032D01*
X0070610Y0071157D02*
X0066673Y0071157D01*
X0066673Y0071157D02*
X0067235Y0070782D01*
X0067235Y0070782D02*
X0067610Y0070407D01*
X0067610Y0070407D02*
X0067797Y0070032D01*
X0067047Y0073781D02*
X0066860Y0073969D01*
X0066860Y0073969D02*
X0066673Y0074344D01*
X0066673Y0074344D02*
X0066673Y0075281D01*
X0066673Y0075281D02*
X0066860Y0075656D01*
X0066860Y0075656D02*
X0067047Y0075844D01*
X0067047Y0075844D02*
X0067422Y0076031D01*
X0067422Y0076031D02*
X0067797Y0076031D01*
X0067797Y0076031D02*
X0068360Y0075844D01*
X0068360Y0075844D02*
X0070610Y0073594D01*
X0070610Y0073594D02*
X0070610Y0076031D01*
X0036445Y0062443D02*
X0036258Y0062255D01*
X0036258Y0062255D02*
X0035696Y0062068D01*
X0035696Y0062068D02*
X0035321Y0062068D01*
X0035321Y0062068D02*
X0034758Y0062255D01*
X0034758Y0062255D02*
X0034383Y0062630D01*
X0034383Y0062630D02*
X0034196Y0063005D01*
X0034196Y0063005D02*
X0034008Y0063755D01*
X0034008Y0063755D02*
X0034008Y0064317D01*
X0034008Y0064317D02*
X0034196Y0065067D01*
X0034196Y0065067D02*
X0034383Y0065442D01*
X0034383Y0065442D02*
X0034758Y0065817D01*
X0034758Y0065817D02*
X0035321Y0066005D01*
X0035321Y0066005D02*
X0035696Y0066005D01*
X0035696Y0066005D02*
X0036258Y0065817D01*
X0036258Y0065817D02*
X0036445Y0065630D01*
X0037945Y0065630D02*
X0038133Y0065817D01*
X0038133Y0065817D02*
X0038508Y0066005D01*
X0038508Y0066005D02*
X0039445Y0066005D01*
X0039445Y0066005D02*
X0039820Y0065817D01*
X0039820Y0065817D02*
X0040007Y0065630D01*
X0040007Y0065630D02*
X0040195Y0065255D01*
X0040195Y0065255D02*
X0040195Y0064880D01*
X0040195Y0064880D02*
X0040007Y0064317D01*
X0040007Y0064317D02*
X0037758Y0062068D01*
X0037758Y0062068D02*
X0040195Y0062068D01*
X0043945Y0062068D02*
X0041695Y0062068D01*
X0042820Y0062068D02*
X0042820Y0066005D01*
X0042820Y0066005D02*
X0042445Y0065442D01*
X0042445Y0065442D02*
X0042070Y0065067D01*
X0042070Y0065067D02*
X0041695Y0064880D01*
X0055392Y0007533D02*
X0055580Y0007345D01*
X0055580Y0007345D02*
X0055767Y0006783D01*
X0055767Y0006783D02*
X0055767Y0006408D01*
X0055767Y0006408D02*
X0055580Y0005846D01*
X0055580Y0005846D02*
X0055205Y0005471D01*
X0055205Y0005471D02*
X0054830Y0005283D01*
X0054830Y0005283D02*
X0054080Y0005096D01*
X0054080Y0005096D02*
X0053517Y0005096D01*
X0053517Y0005096D02*
X0052767Y0005283D01*
X0052767Y0005283D02*
X0052392Y0005471D01*
X0052392Y0005471D02*
X0052017Y0005846D01*
X0052017Y0005846D02*
X0051830Y0006408D01*
X0051830Y0006408D02*
X0051830Y0006783D01*
X0051830Y0006783D02*
X0052017Y0007345D01*
X0052017Y0007345D02*
X0052205Y0007533D01*
X0051830Y0008845D02*
X0051830Y0011282D01*
X0051830Y0011282D02*
X0053330Y0009970D01*
X0053330Y0009970D02*
X0053330Y0010532D01*
X0053330Y0010532D02*
X0053517Y0010907D01*
X0053517Y0010907D02*
X0053705Y0011095D01*
X0053705Y0011095D02*
X0054080Y0011282D01*
X0054080Y0011282D02*
X0055017Y0011282D01*
X0055017Y0011282D02*
X0055392Y0011095D01*
X0055392Y0011095D02*
X0055580Y0010907D01*
X0055580Y0010907D02*
X0055767Y0010532D01*
X0055767Y0010532D02*
X0055767Y0009408D01*
X0055767Y0009408D02*
X0055580Y0009033D01*
X0055580Y0009033D02*
X0055392Y0008845D01*
X0056102Y0021706D02*
X0054227Y0020394D01*
X0056102Y0019456D02*
X0052165Y0019456D01*
X0052165Y0019456D02*
X0052165Y0020956D01*
X0052165Y0020956D02*
X0052352Y0021331D01*
X0052352Y0021331D02*
X0052540Y0021519D01*
X0052540Y0021519D02*
X0052915Y0021706D01*
X0052915Y0021706D02*
X0053477Y0021706D01*
X0053477Y0021706D02*
X0053852Y0021519D01*
X0053852Y0021519D02*
X0054039Y0021331D01*
X0054039Y0021331D02*
X0054227Y0020956D01*
X0054227Y0020956D02*
X0054227Y0019456D01*
X0052540Y0023206D02*
X0052352Y0023393D01*
X0052352Y0023393D02*
X0052165Y0023768D01*
X0052165Y0023768D02*
X0052165Y0024706D01*
X0052165Y0024706D02*
X0052352Y0025081D01*
X0052352Y0025081D02*
X0052540Y0025268D01*
X0052540Y0025268D02*
X0052915Y0025456D01*
X0052915Y0025456D02*
X0053290Y0025456D01*
X0053290Y0025456D02*
X0053852Y0025268D01*
X0053852Y0025268D02*
X0056102Y0023018D01*
X0056102Y0023018D02*
X0056102Y0025456D01*
X0037361Y0068552D02*
X0037548Y0068364D01*
X0037548Y0068364D02*
X0037736Y0067802D01*
X0037736Y0067802D02*
X0037736Y0067427D01*
X0037736Y0067427D02*
X0037548Y0066864D01*
X0037548Y0066864D02*
X0037173Y0066490D01*
X0037173Y0066490D02*
X0036798Y0066302D01*
X0036798Y0066302D02*
X0036048Y0066115D01*
X0036048Y0066115D02*
X0035486Y0066115D01*
X0035486Y0066115D02*
X0034736Y0066302D01*
X0034736Y0066302D02*
X0034361Y0066490D01*
X0034361Y0066490D02*
X0033986Y0066864D01*
X0033986Y0066864D02*
X0033798Y0067427D01*
X0033798Y0067427D02*
X0033798Y0067802D01*
X0033798Y0067802D02*
X0033986Y0068364D01*
X0033986Y0068364D02*
X0034173Y0068552D01*
X0037736Y0072301D02*
X0037736Y0070052D01*
X0037736Y0071176D02*
X0033798Y0071176D01*
X0033798Y0071176D02*
X0034361Y0070801D01*
X0034361Y0070801D02*
X0034736Y0070427D01*
X0034736Y0070427D02*
X0034923Y0070052D01*
X0035111Y0075676D02*
X0037736Y0075676D01*
X0033611Y0074738D02*
X0036423Y0073801D01*
X0036423Y0073801D02*
X0036423Y0076238D01*
X0045806Y0001385D02*
X0041869Y0001385D01*
X0041869Y0001385D02*
X0041869Y0002323D01*
X0041869Y0002323D02*
X0042057Y0002885D01*
X0042057Y0002885D02*
X0042432Y0003260D01*
X0042432Y0003260D02*
X0042807Y0003448D01*
X0042807Y0003448D02*
X0043557Y0003635D01*
X0043557Y0003635D02*
X0044119Y0003635D01*
X0044119Y0003635D02*
X0044869Y0003448D01*
X0044869Y0003448D02*
X0045244Y0003260D01*
X0045244Y0003260D02*
X0045619Y0002885D01*
X0045619Y0002885D02*
X0045806Y0002323D01*
X0045806Y0002323D02*
X0045806Y0001385D01*
X0043182Y0007010D02*
X0045806Y0007010D01*
X0041682Y0006072D02*
X0044494Y0005135D01*
X0044494Y0005135D02*
X0044494Y0007572D01*
X0071348Y0096788D02*
X0069474Y0096788D01*
X0069474Y0096788D02*
X0069286Y0094913D01*
X0069286Y0094913D02*
X0069474Y0095101D01*
X0069474Y0095101D02*
X0069849Y0095288D01*
X0069849Y0095288D02*
X0070786Y0095288D01*
X0070786Y0095288D02*
X0071161Y0095101D01*
X0071161Y0095101D02*
X0071348Y0094913D01*
X0071348Y0094913D02*
X0071536Y0094538D01*
X0071536Y0094538D02*
X0071536Y0093601D01*
X0071536Y0093601D02*
X0071348Y0093226D01*
X0071348Y0093226D02*
X0071161Y0093039D01*
X0071161Y0093039D02*
X0070786Y0092851D01*
X0070786Y0092851D02*
X0069849Y0092851D01*
X0069849Y0092851D02*
X0069474Y0093039D01*
X0069474Y0093039D02*
X0069286Y0093226D01*
X0072661Y0096788D02*
X0073973Y0092851D01*
X0073973Y0092851D02*
X0075285Y0096788D01*
X0075660Y0092476D02*
X0078660Y0092476D01*
X0079597Y0092851D02*
X0079597Y0096788D01*
X0081472Y0092851D02*
X0081472Y0096788D01*
X0081472Y0096788D02*
X0083722Y0092851D01*
X0083722Y0092851D02*
X0083722Y0096788D01*
X0087659Y0092851D02*
X0085409Y0092851D01*
X0086534Y0092851D02*
X0086534Y0096788D01*
X0086534Y0096788D02*
X0086159Y0096226D01*
X0086159Y0096226D02*
X0085784Y0095851D01*
X0085784Y0095851D02*
X0085409Y0095663D01*
X0049344Y0093466D02*
X0049156Y0093279D01*
X0049156Y0093279D02*
X0048594Y0093091D01*
X0048594Y0093091D02*
X0048219Y0093091D01*
X0048219Y0093091D02*
X0047657Y0093279D01*
X0047657Y0093279D02*
X0047282Y0093654D01*
X0047282Y0093654D02*
X0047094Y0094029D01*
X0047094Y0094029D02*
X0046907Y0094779D01*
X0046907Y0094779D02*
X0046907Y0095341D01*
X0046907Y0095341D02*
X0047094Y0096091D01*
X0047094Y0096091D02*
X0047282Y0096466D01*
X0047282Y0096466D02*
X0047657Y0096841D01*
X0047657Y0096841D02*
X0048219Y0097028D01*
X0048219Y0097028D02*
X0048594Y0097028D01*
X0048594Y0097028D02*
X0049156Y0096841D01*
X0049156Y0096841D02*
X0049344Y0096653D01*
X0052718Y0095716D02*
X0052718Y0093091D01*
X0051781Y0097216D02*
X0050844Y0094404D01*
X0050844Y0094404D02*
X0053281Y0094404D01*
X0039448Y0059029D02*
X0037573Y0057717D01*
X0039448Y0056779D02*
X0035511Y0056779D01*
X0035511Y0056779D02*
X0035511Y0058279D01*
X0035511Y0058279D02*
X0035699Y0058654D01*
X0035699Y0058654D02*
X0035886Y0058841D01*
X0035886Y0058841D02*
X0036261Y0059029D01*
X0036261Y0059029D02*
X0036823Y0059029D01*
X0036823Y0059029D02*
X0037198Y0058841D01*
X0037198Y0058841D02*
X0037386Y0058654D01*
X0037386Y0058654D02*
X0037573Y0058279D01*
X0037573Y0058279D02*
X0037573Y0056779D01*
X0035511Y0062591D02*
X0035511Y0060716D01*
X0035511Y0060716D02*
X0037386Y0060529D01*
X0037386Y0060529D02*
X0037198Y0060716D01*
X0037198Y0060716D02*
X0037011Y0061091D01*
X0037011Y0061091D02*
X0037011Y0062029D01*
X0037011Y0062029D02*
X0037198Y0062403D01*
X0037198Y0062403D02*
X0037386Y0062591D01*
X0037386Y0062591D02*
X0037761Y0062778D01*
X0037761Y0062778D02*
X0038698Y0062778D01*
X0038698Y0062778D02*
X0039073Y0062591D01*
X0039073Y0062591D02*
X0039261Y0062403D01*
X0039261Y0062403D02*
X0039448Y0062029D01*
X0039448Y0062029D02*
X0039448Y0061091D01*
X0039448Y0061091D02*
X0039261Y0060716D01*
X0039261Y0060716D02*
X0039073Y0060529D01*
X0097223Y0070442D02*
X0097410Y0070254D01*
X0097410Y0070254D02*
X0097598Y0069692D01*
X0097598Y0069692D02*
X0097598Y0069317D01*
X0097598Y0069317D02*
X0097410Y0068754D01*
X0097410Y0068754D02*
X0097035Y0068379D01*
X0097035Y0068379D02*
X0096660Y0068192D01*
X0096660Y0068192D02*
X0095910Y0068004D01*
X0095910Y0068004D02*
X0095348Y0068004D01*
X0095348Y0068004D02*
X0094598Y0068192D01*
X0094598Y0068192D02*
X0094223Y0068379D01*
X0094223Y0068379D02*
X0093848Y0068754D01*
X0093848Y0068754D02*
X0093661Y0069317D01*
X0093661Y0069317D02*
X0093661Y0069692D01*
X0093661Y0069692D02*
X0093848Y0070254D01*
X0093848Y0070254D02*
X0094036Y0070442D01*
X0097598Y0074191D02*
X0097598Y0071941D01*
X0097598Y0073066D02*
X0093661Y0073066D01*
X0093661Y0073066D02*
X0094223Y0072691D01*
X0094223Y0072691D02*
X0094598Y0072316D01*
X0094598Y0072316D02*
X0094786Y0071941D01*
X0097598Y0077941D02*
X0097598Y0075691D01*
X0097598Y0076816D02*
X0093661Y0076816D01*
X0093661Y0076816D02*
X0094223Y0076441D01*
X0094223Y0076441D02*
X0094598Y0076066D01*
X0094598Y0076066D02*
X0094786Y0075691D01*
X0069339Y0062600D02*
X0069152Y0062413D01*
X0069152Y0062413D02*
X0068589Y0062225D01*
X0068589Y0062225D02*
X0068214Y0062225D01*
X0068214Y0062225D02*
X0067652Y0062413D01*
X0067652Y0062413D02*
X0067277Y0062788D01*
X0067277Y0062788D02*
X0067089Y0063163D01*
X0067089Y0063163D02*
X0066902Y0063912D01*
X0066902Y0063912D02*
X0066902Y0064475D01*
X0066902Y0064475D02*
X0067089Y0065225D01*
X0067089Y0065225D02*
X0067277Y0065600D01*
X0067277Y0065600D02*
X0067652Y0065975D01*
X0067652Y0065975D02*
X0068214Y0066162D01*
X0068214Y0066162D02*
X0068589Y0066162D01*
X0068589Y0066162D02*
X0069152Y0065975D01*
X0069152Y0065975D02*
X0069339Y0065787D01*
X0073089Y0062225D02*
X0070839Y0062225D01*
X0071964Y0062225D02*
X0071964Y0066162D01*
X0071964Y0066162D02*
X0071589Y0065600D01*
X0071589Y0065600D02*
X0071214Y0065225D01*
X0071214Y0065225D02*
X0070839Y0065037D01*
X0074963Y0062225D02*
X0075713Y0062225D01*
X0075713Y0062225D02*
X0076088Y0062413D01*
X0076088Y0062413D02*
X0076276Y0062600D01*
X0076276Y0062600D02*
X0076651Y0063163D01*
X0076651Y0063163D02*
X0076838Y0063912D01*
X0076838Y0063912D02*
X0076838Y0065412D01*
X0076838Y0065412D02*
X0076651Y0065787D01*
X0076651Y0065787D02*
X0076463Y0065975D01*
X0076463Y0065975D02*
X0076088Y0066162D01*
X0076088Y0066162D02*
X0075338Y0066162D01*
X0075338Y0066162D02*
X0074963Y0065975D01*
X0074963Y0065975D02*
X0074776Y0065787D01*
X0074776Y0065787D02*
X0074588Y0065412D01*
X0074588Y0065412D02*
X0074588Y0064475D01*
X0074588Y0064475D02*
X0074776Y0064100D01*
X0074776Y0064100D02*
X0074963Y0063912D01*
X0074963Y0063912D02*
X0075338Y0063725D01*
X0075338Y0063725D02*
X0076088Y0063725D01*
X0076088Y0063725D02*
X0076463Y0063912D01*
X0076463Y0063912D02*
X0076651Y0064100D01*
X0076651Y0064100D02*
X0076838Y0064475D01*
X0025098Y0004659D02*
X0023223Y0003346D01*
X0025098Y0002409D02*
X0021161Y0002409D01*
X0021161Y0002409D02*
X0021161Y0003909D01*
X0021161Y0003909D02*
X0021348Y0004284D01*
X0021348Y0004284D02*
X0021536Y0004471D01*
X0021536Y0004471D02*
X0021911Y0004659D01*
X0021911Y0004659D02*
X0022473Y0004659D01*
X0022473Y0004659D02*
X0022848Y0004471D01*
X0022848Y0004471D02*
X0023035Y0004284D01*
X0023035Y0004284D02*
X0023223Y0003909D01*
X0023223Y0003909D02*
X0023223Y0002409D01*
X0021161Y0005971D02*
X0021161Y0008408D01*
X0021161Y0008408D02*
X0022661Y0007096D01*
X0022661Y0007096D02*
X0022661Y0007658D01*
X0022661Y0007658D02*
X0022848Y0008033D01*
X0022848Y0008033D02*
X0023035Y0008221D01*
X0023035Y0008221D02*
X0023410Y0008408D01*
X0023410Y0008408D02*
X0024348Y0008408D01*
X0024348Y0008408D02*
X0024723Y0008221D01*
X0024723Y0008221D02*
X0024910Y0008033D01*
X0024910Y0008033D02*
X0025098Y0007658D01*
X0025098Y0007658D02*
X0025098Y0006534D01*
X0025098Y0006534D02*
X0024910Y0006159D01*
X0024910Y0006159D02*
X0024723Y0005971D01*
X0087390Y0063919D02*
X0087203Y0063731D01*
X0087203Y0063731D02*
X0086640Y0063544D01*
X0086640Y0063544D02*
X0086265Y0063544D01*
X0086265Y0063544D02*
X0085703Y0063731D01*
X0085703Y0063731D02*
X0085328Y0064106D01*
X0085328Y0064106D02*
X0085141Y0064481D01*
X0085141Y0064481D02*
X0084953Y0065231D01*
X0084953Y0065231D02*
X0084953Y0065794D01*
X0084953Y0065794D02*
X0085141Y0066544D01*
X0085141Y0066544D02*
X0085328Y0066919D01*
X0085328Y0066919D02*
X0085703Y0067294D01*
X0085703Y0067294D02*
X0086265Y0067481D01*
X0086265Y0067481D02*
X0086640Y0067481D01*
X0086640Y0067481D02*
X0087203Y0067294D01*
X0087203Y0067294D02*
X0087390Y0067106D01*
X0091140Y0063544D02*
X0088890Y0063544D01*
X0090015Y0063544D02*
X0090015Y0067481D01*
X0090015Y0067481D02*
X0089640Y0066919D01*
X0089640Y0066919D02*
X0089265Y0066544D01*
X0089265Y0066544D02*
X0088890Y0066356D01*
X0092452Y0067481D02*
X0095077Y0067481D01*
X0095077Y0067481D02*
X0093390Y0063544D01*
X0002617Y0023705D02*
X0002617Y0025954D01*
X0006554Y0024829D02*
X0002617Y0024829D01*
X0006554Y0027267D02*
X0002617Y0027267D01*
X0002617Y0027267D02*
X0002617Y0028766D01*
X0002617Y0028766D02*
X0002805Y0029141D01*
X0002805Y0029141D02*
X0002992Y0029329D01*
X0002992Y0029329D02*
X0003367Y0029516D01*
X0003367Y0029516D02*
X0003930Y0029516D01*
X0003930Y0029516D02*
X0004305Y0029329D01*
X0004305Y0029329D02*
X0004492Y0029141D01*
X0004492Y0029141D02*
X0004680Y0028766D01*
X0004680Y0028766D02*
X0004680Y0027267D01*
X0006367Y0031016D02*
X0006554Y0031579D01*
X0006554Y0031579D02*
X0006554Y0032516D01*
X0006554Y0032516D02*
X0006367Y0032891D01*
X0006367Y0032891D02*
X0006179Y0033078D01*
X0006179Y0033078D02*
X0005804Y0033266D01*
X0005804Y0033266D02*
X0005430Y0033266D01*
X0005430Y0033266D02*
X0005055Y0033078D01*
X0005055Y0033078D02*
X0004867Y0032891D01*
X0004867Y0032891D02*
X0004680Y0032516D01*
X0004680Y0032516D02*
X0004492Y0031766D01*
X0004492Y0031766D02*
X0004305Y0031391D01*
X0004305Y0031391D02*
X0004117Y0031204D01*
X0004117Y0031204D02*
X0003742Y0031016D01*
X0003742Y0031016D02*
X0003367Y0031016D01*
X0003367Y0031016D02*
X0002992Y0031204D01*
X0002992Y0031204D02*
X0002805Y0031391D01*
X0002805Y0031391D02*
X0002617Y0031766D01*
X0002617Y0031766D02*
X0002617Y0032703D01*
X0002617Y0032703D02*
X0002805Y0033266D01*
X0002992Y0034766D02*
X0002805Y0034953D01*
X0002805Y0034953D02*
X0002617Y0035328D01*
X0002617Y0035328D02*
X0002617Y0036265D01*
X0002617Y0036265D02*
X0002805Y0036640D01*
X0002805Y0036640D02*
X0002992Y0036828D01*
X0002992Y0036828D02*
X0003367Y0037015D01*
X0003367Y0037015D02*
X0003742Y0037015D01*
X0003742Y0037015D02*
X0004305Y0036828D01*
X0004305Y0036828D02*
X0006554Y0034578D01*
X0006554Y0034578D02*
X0006554Y0037015D01*
X0006929Y0037765D02*
X0006929Y0040765D01*
X0006179Y0043952D02*
X0006367Y0043765D01*
X0006367Y0043765D02*
X0006554Y0043202D01*
X0006554Y0043202D02*
X0006554Y0042827D01*
X0006554Y0042827D02*
X0006367Y0042265D01*
X0006367Y0042265D02*
X0005992Y0041890D01*
X0005992Y0041890D02*
X0005617Y0041702D01*
X0005617Y0041702D02*
X0004867Y0041515D01*
X0004867Y0041515D02*
X0004305Y0041515D01*
X0004305Y0041515D02*
X0003555Y0041702D01*
X0003555Y0041702D02*
X0003180Y0041890D01*
X0003180Y0041890D02*
X0002805Y0042265D01*
X0002805Y0042265D02*
X0002617Y0042827D01*
X0002617Y0042827D02*
X0002617Y0043202D01*
X0002617Y0043202D02*
X0002805Y0043765D01*
X0002805Y0043765D02*
X0002992Y0043952D01*
X0006554Y0045639D02*
X0002617Y0045639D01*
X0002617Y0045639D02*
X0002617Y0047139D01*
X0002617Y0047139D02*
X0002805Y0047514D01*
X0002805Y0047514D02*
X0002992Y0047702D01*
X0002992Y0047702D02*
X0003367Y0047889D01*
X0003367Y0047889D02*
X0003930Y0047889D01*
X0003930Y0047889D02*
X0004305Y0047702D01*
X0004305Y0047702D02*
X0004492Y0047514D01*
X0004492Y0047514D02*
X0004680Y0047139D01*
X0004680Y0047139D02*
X0004680Y0045639D01*
X0002617Y0049576D02*
X0005804Y0049576D01*
X0005804Y0049576D02*
X0006179Y0049764D01*
X0006179Y0049764D02*
X0006367Y0049951D01*
X0006367Y0049951D02*
X0006554Y0050326D01*
X0006554Y0050326D02*
X0006554Y0051076D01*
X0006554Y0051076D02*
X0006367Y0051451D01*
X0006367Y0051451D02*
X0006179Y0051639D01*
X0006179Y0051639D02*
X0005804Y0051826D01*
X0005804Y0051826D02*
X0002617Y0051826D01*
X0006554Y0055763D02*
X0006554Y0053513D01*
X0006554Y0054638D02*
X0002617Y0054638D01*
X0002617Y0054638D02*
X0003180Y0054263D01*
X0003180Y0054263D02*
X0003555Y0053888D01*
X0003555Y0053888D02*
X0003742Y0053513D01*
X0102906Y0051044D02*
X0102906Y0047857D01*
X0102906Y0047857D02*
X0103093Y0047482D01*
X0103093Y0047482D02*
X0103281Y0047294D01*
X0103281Y0047294D02*
X0103656Y0047107D01*
X0103656Y0047107D02*
X0104406Y0047107D01*
X0104406Y0047107D02*
X0104781Y0047294D01*
X0104781Y0047294D02*
X0104968Y0047482D01*
X0104968Y0047482D02*
X0105156Y0047857D01*
X0105156Y0047857D02*
X0105156Y0051044D01*
X0109093Y0047107D02*
X0106843Y0047107D01*
X0107968Y0047107D02*
X0107968Y0051044D01*
X0107968Y0051044D02*
X0107593Y0050482D01*
X0107593Y0050482D02*
X0107218Y0050107D01*
X0107218Y0050107D02*
X0106843Y0049919D01*
D24*
X0100266Y0016054D02*
X0100266Y0017922D01*
X0104380Y0016054D02*
X0104380Y0017922D01*
X0025768Y0122776D02*
X0025768Y0115295D01*
X0025768Y0115295D02*
X0033051Y0115295D01*
X0033051Y0122776D02*
X0025768Y0122776D01*
X0033051Y0122579D02*
X0033051Y0122776D01*
X0033051Y0115295D02*
X0033051Y0122579D01*
X0023366Y0086225D02*
X0023366Y0084168D01*
X0017579Y0086225D02*
X0017579Y0084168D01*
X0023484Y0070349D02*
X0023484Y0072407D01*
X0029272Y0070349D02*
X0029272Y0072407D01*
X0039744Y0086304D02*
X0039744Y0084247D01*
X0033957Y0086304D02*
X0033957Y0084247D01*
X0063198Y0082226D02*
X0061330Y0082226D01*
X0063198Y0086341D02*
X0061330Y0086341D01*
X0051198Y0082226D02*
X0049330Y0082226D01*
X0051198Y0086341D02*
X0049330Y0086341D01*
X0050226Y0036721D02*
X0050226Y0034853D01*
X0046112Y0036721D02*
X0046112Y0034853D01*
X0078248Y0070822D02*
X0078248Y0072879D01*
X0084035Y0070822D02*
X0084035Y0072879D01*
X0025768Y0108287D02*
X0025768Y0100807D01*
X0025768Y0100807D02*
X0033051Y0100807D01*
X0033051Y0108287D02*
X0025768Y0108287D01*
X0033051Y0108091D02*
X0033051Y0108287D01*
X0033051Y0100807D02*
X0033051Y0108091D01*
X0044941Y0043071D02*
X0051634Y0043071D01*
X0044941Y0043071D02*
X0044941Y0053543D01*
X0051634Y0043071D02*
X0051634Y0053543D01*
X0041122Y0028583D02*
X0034429Y0028583D01*
X0041122Y0028583D02*
X0041122Y0018110D01*
X0034429Y0028583D02*
X0034429Y0018110D01*
X0080002Y0011024D02*
X0078895Y0011024D01*
X0080002Y0015039D02*
X0078895Y0015039D01*
X0082854Y0112146D02*
X0082854Y0104665D01*
X0082854Y0104665D02*
X0090138Y0104665D01*
X0090138Y0112146D02*
X0082854Y0112146D01*
X0090138Y0111949D02*
X0090138Y0112146D01*
X0090138Y0104665D02*
X0090138Y0111949D01*
X0031594Y0049766D02*
X0031594Y0048659D01*
X0027579Y0049766D02*
X0027579Y0048659D01*
X0082854Y0127185D02*
X0082854Y0119705D01*
X0082854Y0119705D02*
X0090138Y0119705D01*
X0090138Y0127185D02*
X0082854Y0127185D01*
X0090138Y0126988D02*
X0090138Y0127185D01*
X0090138Y0119705D02*
X0090138Y0126988D01*
X0031516Y0086344D02*
X0031516Y0084286D01*
X0025728Y0086344D02*
X0025728Y0084286D01*
X0034390Y0030000D02*
X0041083Y0030000D01*
X0034390Y0030000D02*
X0034390Y0040472D01*
X0041083Y0030000D02*
X0041083Y0040472D01*
X0016555Y0021535D02*
X0016555Y0014055D01*
X0016555Y0014055D02*
X0023839Y0014055D01*
X0023839Y0021535D02*
X0016555Y0021535D01*
X0023839Y0021339D02*
X0023839Y0021535D01*
X0023839Y0014055D02*
X0023839Y0021339D01*
D23*
X0099350Y0062874D02*
X0099350Y0049488D01*
X0074350Y0055394D02*
X0072972Y0055394D01*
X0072972Y0055394D02*
X0072972Y0049291D01*
X0099350Y0024685D02*
X0099350Y0030787D01*
X0097972Y0024685D02*
X0099350Y0024685D01*
X0074350Y0024685D02*
X0072972Y0024685D01*
X0072972Y0024685D02*
X0072972Y0030787D01*
D24*
X0048169Y0070349D02*
X0048169Y0072407D01*
X0053957Y0070349D02*
X0053957Y0072407D01*
X0070984Y0059038D02*
X0070984Y0057931D01*
X0066969Y0059038D02*
X0066969Y0057931D01*
X0031713Y0070310D02*
X0031713Y0072367D01*
X0037500Y0070310D02*
X0037500Y0072367D01*
X0046201Y0009328D02*
X0046201Y0010435D01*
X0050217Y0009328D02*
X0050217Y0010435D01*
X0046112Y0021763D02*
X0046112Y0023631D01*
X0050226Y0021763D02*
X0050226Y0023631D01*
X0039941Y0070349D02*
X0039941Y0072407D01*
X0045728Y0070349D02*
X0045728Y0072407D01*
X0041240Y0015039D02*
X0034547Y0015039D01*
X0041240Y0015039D02*
X0041240Y0004567D01*
X0034547Y0015039D02*
X0034547Y0004567D01*
X0058327Y0096024D02*
X0058327Y0088543D01*
X0058327Y0088543D02*
X0065610Y0088543D01*
X0065610Y0096024D02*
X0058327Y0096024D01*
X0065610Y0095827D02*
X0065610Y0096024D01*
X0065610Y0088543D02*
X0065610Y0095827D01*
X0049710Y0092291D02*
X0050817Y0092291D01*
X0049710Y0088276D02*
X0050817Y0088276D01*
X0039675Y0050107D02*
X0039675Y0048239D01*
X0035561Y0050107D02*
X0035561Y0048239D01*
X0099606Y0071651D02*
X0099606Y0072758D01*
X0103622Y0071651D02*
X0103622Y0072758D01*
X0070020Y0070861D02*
X0070020Y0072918D01*
X0075807Y0070861D02*
X0075807Y0072918D01*
X0027175Y0008121D02*
X0027175Y0009989D01*
X0031289Y0008121D02*
X0031289Y0009989D01*
X0091319Y0071137D02*
X0091319Y0073194D01*
X0097106Y0071137D02*
X0097106Y0073194D01*
X0016673Y0050433D02*
X0016673Y0042953D01*
X0016673Y0042953D02*
X0023957Y0042953D01*
X0023957Y0050433D02*
X0016673Y0050433D01*
X0023957Y0050236D02*
X0023957Y0050433D01*
X0023957Y0042953D02*
X0023957Y0050236D01*
D25*
X0056161Y0080039D02*
X0116161Y0080039D01*
X0056161Y0000039D02*
X0056161Y0080039D01*
X0116161Y0080039D02*
X0116161Y0000039D01*
X0116161Y0000039D02*
X0056161Y0000039D01*
D26*
X0053484Y0077244D02*
G75*
G03*
X0053484Y0077244I-000394J0000000D01*
G01*
X0040118Y0125394D02*
X0040118Y0121457D01*
X0040118Y0125394D02*
X0075945Y0125394D01*
X0040118Y0113189D02*
X0075945Y0113189D01*
X0040413Y0110571D02*
X0040413Y0106634D01*
X0040413Y0110571D02*
X0076240Y0110571D01*
X0040413Y0098366D02*
X0076240Y0098366D01*
X0039724Y0125787D02*
G01*
G75*
G36*
X0058130Y0120238D02*
X0057694Y0120238D01*
X0057694Y0119712D01*
X0057492Y0119500D01*
X0057079Y0120238D01*
X0056609Y0120238D01*
X0057212Y0119195D01*
X0056649Y0118593D01*
X0057185Y0118593D01*
X0057694Y0119173D01*
X0057694Y0117968D01*
X0058130Y0117968D01*
X0058130Y0120238D01*
D02*
G37*
G36*
X0050730Y0120238D02*
X0050294Y0120238D01*
X0050294Y0119712D01*
X0050093Y0119500D01*
X0049679Y0120238D01*
X0049210Y0120238D01*
X0049812Y0119195D01*
X0049249Y0118593D01*
X0049785Y0118593D01*
X0050294Y0119173D01*
X0050294Y0117968D01*
X0050730Y0117968D01*
X0050730Y0120238D01*
D02*
G37*
G36*
X0051844Y0118558D02*
X0051908Y0118566D01*
X0051967Y0118578D01*
X0052024Y0118590D01*
X0052075Y0118610D01*
X0052122Y0118627D01*
X0052167Y0118649D01*
X0052206Y0118669D01*
X0052240Y0118691D01*
X0052272Y0118713D01*
X0052297Y0118730D01*
X0052319Y0118747D01*
X0052336Y0118762D01*
X0052349Y0118775D01*
X0052356Y0118782D01*
X0052358Y0118784D01*
X0052395Y0118829D01*
X0052430Y0118876D01*
X0052457Y0118927D01*
X0052481Y0118979D01*
X0052503Y0119033D01*
X0052521Y0119085D01*
X0052533Y0119136D01*
X0052545Y0119185D01*
X0052555Y0119235D01*
X0052560Y0119279D01*
X0052565Y0119318D01*
X0052570Y0119353D01*
X0052570Y0119380D01*
X0052572Y0119402D01*
X0052572Y0119414D01*
X0052572Y0119419D01*
X0052570Y0119493D01*
X0052563Y0119562D01*
X0052553Y0119626D01*
X0052538Y0119687D01*
X0052523Y0119744D01*
X0052503Y0119796D01*
X0052486Y0119842D01*
X0052464Y0119884D01*
X0052444Y0119921D01*
X0052425Y0119955D01*
X0052408Y0119983D01*
X0052393Y0120007D01*
X0052378Y0120024D01*
X0052368Y0120039D01*
X0052361Y0120046D01*
X0052358Y0120049D01*
X0052317Y0120088D01*
X0052272Y0120123D01*
X0052226Y0120155D01*
X0052179Y0120179D01*
X0052130Y0120201D01*
X0052083Y0120221D01*
X0052036Y0120236D01*
X0051992Y0120246D01*
X0051950Y0120256D01*
X0051911Y0120263D01*
X0051874Y0120268D01*
X0051844Y0120273D01*
X0051820Y0120273D01*
X0051800Y0120275D01*
X0051785Y0120275D01*
X0051726Y0120273D01*
X0051672Y0120268D01*
X0051620Y0120260D01*
X0051574Y0120253D01*
X0051527Y0120241D01*
X0051485Y0120228D01*
X0051448Y0120216D01*
X0051414Y0120201D01*
X0051384Y0120187D01*
X0051357Y0120174D01*
X0051335Y0120162D01*
X0051315Y0120150D01*
X0051301Y0120142D01*
X0051288Y0120135D01*
X0051283Y0120130D01*
X0051281Y0120128D01*
X0051246Y0120098D01*
X0051214Y0120066D01*
X0051187Y0120032D01*
X0051160Y0119995D01*
X0051136Y0119958D01*
X0051116Y0119921D01*
X0051082Y0119850D01*
X0051067Y0119815D01*
X0051055Y0119783D01*
X0051045Y0119756D01*
X0051037Y0119732D01*
X0051030Y0119709D01*
X0051025Y0119695D01*
X0051023Y0119685D01*
X0051023Y0119682D01*
X0051451Y0119608D01*
X0051465Y0119668D01*
X0051483Y0119719D01*
X0051502Y0119761D01*
X0051519Y0119796D01*
X0051537Y0119820D01*
X0051552Y0119837D01*
X0051561Y0119850D01*
X0051564Y0119852D01*
X0051596Y0119874D01*
X0051628Y0119891D01*
X0051662Y0119904D01*
X0051694Y0119911D01*
X0051721Y0119916D01*
X0051746Y0119921D01*
X0051766Y0119921D01*
X0051795Y0119918D01*
X0051824Y0119916D01*
X0051879Y0119901D01*
X0051923Y0119882D01*
X0051960Y0119859D01*
X0051992Y0119837D01*
X0052014Y0119820D01*
X0052026Y0119805D01*
X0052031Y0119803D01*
X0052031Y0119800D01*
X0052048Y0119776D01*
X0052063Y0119749D01*
X0052075Y0119717D01*
X0052088Y0119685D01*
X0052102Y0119616D01*
X0052115Y0119549D01*
X0052120Y0119515D01*
X0052122Y0119486D01*
X0052125Y0119458D01*
X0052125Y0119434D01*
X0052127Y0119414D01*
X0052127Y0119399D01*
X0052127Y0119390D01*
X0052127Y0119387D01*
X0052127Y0119340D01*
X0052122Y0119296D01*
X0052117Y0119254D01*
X0052112Y0119217D01*
X0052105Y0119183D01*
X0052098Y0119153D01*
X0052088Y0119124D01*
X0052078Y0119099D01*
X0052071Y0119080D01*
X0052061Y0119060D01*
X0052053Y0119045D01*
X0052046Y0119033D01*
X0052041Y0119023D01*
X0052036Y0119016D01*
X0052031Y0119013D01*
X0052031Y0119011D01*
X0052011Y0118991D01*
X0051992Y0118974D01*
X0051950Y0118944D01*
X0051908Y0118925D01*
X0051866Y0118912D01*
X0051829Y0118903D01*
X0051812Y0118900D01*
X0051800Y0118900D01*
X0051788Y0118898D01*
X0051773Y0118898D01*
X0051729Y0118900D01*
X0051689Y0118907D01*
X0051655Y0118920D01*
X0051628Y0118930D01*
X0051603Y0118942D01*
X0051588Y0118954D01*
X0051576Y0118962D01*
X0051574Y0118964D01*
X0051547Y0118991D01*
X0051524Y0119021D01*
X0051507Y0119053D01*
X0051492Y0119082D01*
X0051485Y0119109D01*
X0051478Y0119134D01*
X0051473Y0119148D01*
X0051473Y0119151D01*
X0051473Y0119153D01*
X0051045Y0119077D01*
X0051060Y0119030D01*
X0051079Y0118984D01*
X0051096Y0118944D01*
X0051118Y0118905D01*
X0051138Y0118871D01*
X0051160Y0118839D01*
X0051182Y0118809D01*
X0051202Y0118782D01*
X0051222Y0118760D01*
X0051239Y0118740D01*
X0051256Y0118723D01*
X0051271Y0118711D01*
X0051283Y0118698D01*
X0051293Y0118691D01*
X0051298Y0118689D01*
X0051301Y0118686D01*
X0051335Y0118664D01*
X0051372Y0118642D01*
X0051411Y0118624D01*
X0051451Y0118610D01*
X0051529Y0118588D01*
X0051606Y0118573D01*
X0051640Y0118566D01*
X0051675Y0118563D01*
X0051701Y0118561D01*
X0051729Y0118558D01*
X0051748Y0118556D01*
X0051778Y0118556D01*
X0051844Y0118558D01*
D02*
G37*
G36*
X0055470Y0118558D02*
X0055527Y0118568D01*
X0055581Y0118580D01*
X0055633Y0118600D01*
X0055679Y0118620D01*
X0055724Y0118644D01*
X0055765Y0118669D01*
X0055802Y0118696D01*
X0055837Y0118723D01*
X0055864Y0118747D01*
X0055891Y0118772D01*
X0055911Y0118792D01*
X0055928Y0118809D01*
X0055940Y0118824D01*
X0055948Y0118834D01*
X0055950Y0118836D01*
X0055950Y0118593D01*
X0056353Y0118593D01*
X0056353Y0120238D01*
X0055918Y0120238D01*
X0055918Y0119493D01*
X0055918Y0119444D01*
X0055916Y0119397D01*
X0055916Y0119355D01*
X0055913Y0119318D01*
X0055911Y0119284D01*
X0055908Y0119252D01*
X0055906Y0119225D01*
X0055901Y0119200D01*
X0055898Y0119181D01*
X0055896Y0119163D01*
X0055893Y0119148D01*
X0055891Y0119136D01*
X0055888Y0119126D01*
X0055888Y0119121D01*
X0055886Y0119116D01*
X0055871Y0119080D01*
X0055854Y0119048D01*
X0055834Y0119018D01*
X0055815Y0118996D01*
X0055795Y0118976D01*
X0055780Y0118964D01*
X0055770Y0118954D01*
X0055765Y0118952D01*
X0055731Y0118930D01*
X0055694Y0118915D01*
X0055660Y0118903D01*
X0055630Y0118895D01*
X0055601Y0118890D01*
X0055581Y0118888D01*
X0055561Y0118888D01*
X0055529Y0118890D01*
X0055502Y0118895D01*
X0055478Y0118903D01*
X0055456Y0118910D01*
X0055438Y0118917D01*
X0055423Y0118925D01*
X0055416Y0118930D01*
X0055414Y0118932D01*
X0055391Y0118949D01*
X0055372Y0118969D01*
X0055357Y0118991D01*
X0055345Y0119011D01*
X0055335Y0119028D01*
X0055328Y0119043D01*
X0055323Y0119053D01*
X0055323Y0119055D01*
X0055318Y0119072D01*
X0055313Y0119092D01*
X0055308Y0119114D01*
X0055305Y0119141D01*
X0055300Y0119198D01*
X0055296Y0119257D01*
X0055296Y0119311D01*
X0055293Y0119335D01*
X0055293Y0119355D01*
X0055293Y0119375D01*
X0055293Y0119387D01*
X0055293Y0119397D01*
X0055293Y0119399D01*
X0055293Y0120238D01*
X0054858Y0120238D01*
X0054858Y0119217D01*
X0054858Y0119148D01*
X0054863Y0119090D01*
X0054865Y0119040D01*
X0054870Y0118999D01*
X0054875Y0118967D01*
X0054877Y0118944D01*
X0054882Y0118930D01*
X0054882Y0118925D01*
X0054892Y0118888D01*
X0054907Y0118853D01*
X0054919Y0118821D01*
X0054934Y0118794D01*
X0054949Y0118772D01*
X0054959Y0118757D01*
X0054966Y0118745D01*
X0054968Y0118743D01*
X0054993Y0118713D01*
X0055023Y0118689D01*
X0055052Y0118664D01*
X0055082Y0118647D01*
X0055106Y0118629D01*
X0055128Y0118620D01*
X0055143Y0118612D01*
X0055145Y0118610D01*
X0055148Y0118610D01*
X0055192Y0118593D01*
X0055239Y0118578D01*
X0055283Y0118568D01*
X0055323Y0118563D01*
X0055360Y0118558D01*
X0055387Y0118556D01*
X0055411Y0118556D01*
X0055470Y0118558D01*
D02*
G37*
G36*
X0053758Y0118561D02*
X0053839Y0118573D01*
X0053913Y0118590D01*
X0053947Y0118600D01*
X0053979Y0118610D01*
X0054007Y0118620D01*
X0054031Y0118629D01*
X0054053Y0118639D01*
X0054073Y0118647D01*
X0054088Y0118654D01*
X0054098Y0118659D01*
X0054105Y0118661D01*
X0054107Y0118664D01*
X0054176Y0118708D01*
X0054235Y0118757D01*
X0054287Y0118809D01*
X0054331Y0118858D01*
X0054363Y0118903D01*
X0054378Y0118922D01*
X0054388Y0118939D01*
X0054395Y0118954D01*
X0054403Y0118964D01*
X0054405Y0118971D01*
X0054407Y0118974D01*
X0054427Y0119011D01*
X0054442Y0119050D01*
X0054469Y0119124D01*
X0054486Y0119195D01*
X0054501Y0119259D01*
X0054504Y0119289D01*
X0054508Y0119313D01*
X0054511Y0119338D01*
X0054511Y0119358D01*
X0054513Y0119372D01*
X0054513Y0119385D01*
X0054513Y0119392D01*
X0054513Y0119395D01*
X0054511Y0119446D01*
X0054508Y0119495D01*
X0054504Y0119545D01*
X0054496Y0119589D01*
X0054489Y0119631D01*
X0054479Y0119670D01*
X0054469Y0119707D01*
X0054459Y0119741D01*
X0054449Y0119771D01*
X0054442Y0119798D01*
X0054432Y0119820D01*
X0054425Y0119840D01*
X0054417Y0119855D01*
X0054412Y0119864D01*
X0054407Y0119872D01*
X0054407Y0119874D01*
X0054363Y0119943D01*
X0054314Y0120005D01*
X0054262Y0120056D01*
X0054213Y0120098D01*
X0054166Y0120130D01*
X0054149Y0120145D01*
X0054132Y0120155D01*
X0054117Y0120164D01*
X0054107Y0120169D01*
X0054100Y0120172D01*
X0054098Y0120174D01*
X0054021Y0120209D01*
X0053945Y0120233D01*
X0053871Y0120251D01*
X0053805Y0120263D01*
X0053775Y0120268D01*
X0053748Y0120270D01*
X0053726Y0120273D01*
X0053706Y0120273D01*
X0053689Y0120275D01*
X0053667Y0120275D01*
X0053601Y0120273D01*
X0053537Y0120265D01*
X0053475Y0120253D01*
X0053419Y0120236D01*
X0053365Y0120219D01*
X0053315Y0120199D01*
X0053269Y0120177D01*
X0053227Y0120152D01*
X0053190Y0120130D01*
X0053158Y0120108D01*
X0053128Y0120088D01*
X0053106Y0120069D01*
X0053087Y0120054D01*
X0053072Y0120042D01*
X0053064Y0120034D01*
X0053062Y0120032D01*
X0053020Y0119985D01*
X0052983Y0119933D01*
X0052951Y0119884D01*
X0052922Y0119830D01*
X0052900Y0119778D01*
X0052880Y0119727D01*
X0052863Y0119677D01*
X0052850Y0119628D01*
X0052840Y0119584D01*
X0052833Y0119542D01*
X0052828Y0119505D01*
X0052823Y0119473D01*
X0052823Y0119449D01*
X0052821Y0119429D01*
X0052821Y0119417D01*
X0052821Y0119412D01*
X0052823Y0119343D01*
X0052831Y0119279D01*
X0052843Y0119217D01*
X0052858Y0119161D01*
X0052875Y0119107D01*
X0052897Y0119055D01*
X0052917Y0119008D01*
X0052939Y0118967D01*
X0052963Y0118930D01*
X0052983Y0118895D01*
X0053003Y0118868D01*
X0053023Y0118843D01*
X0053037Y0118824D01*
X0053050Y0118811D01*
X0053057Y0118802D01*
X0053060Y0118799D01*
X0053106Y0118757D01*
X0053153Y0118718D01*
X0053205Y0118686D01*
X0053256Y0118659D01*
X0053305Y0118634D01*
X0053357Y0118615D01*
X0053406Y0118600D01*
X0053453Y0118585D01*
X0053497Y0118575D01*
X0053539Y0118568D01*
X0053576Y0118563D01*
X0053608Y0118561D01*
X0053633Y0118558D01*
X0053652Y0118556D01*
X0053714Y0118556D01*
X0053758Y0118561D01*
D02*
G37*
G36*
X0063046Y0114610D02*
X0063097Y0114615D01*
X0063146Y0114622D01*
X0063190Y0114631D01*
X0063234Y0114643D01*
X0063273Y0114654D01*
X0063308Y0114668D01*
X0063343Y0114682D01*
X0063373Y0114696D01*
X0063399Y0114710D01*
X0063422Y0114722D01*
X0063440Y0114733D01*
X0063454Y0114743D01*
X0063466Y0114749D01*
X0063473Y0114754D01*
X0063475Y0114757D01*
X0063510Y0114787D01*
X0063540Y0114819D01*
X0063568Y0114856D01*
X0063591Y0114896D01*
X0063612Y0114935D01*
X0063631Y0114977D01*
X0063647Y0115016D01*
X0063661Y0115056D01*
X0063672Y0115093D01*
X0063682Y0115128D01*
X0063689Y0115160D01*
X0063693Y0115188D01*
X0063698Y0115211D01*
X0063700Y0115230D01*
X0063703Y0115239D01*
X0063703Y0115244D01*
X0063294Y0115283D01*
X0063292Y0115251D01*
X0063287Y0115221D01*
X0063276Y0115167D01*
X0063262Y0115123D01*
X0063248Y0115088D01*
X0063232Y0115060D01*
X0063220Y0115042D01*
X0063211Y0115033D01*
X0063208Y0115028D01*
X0063178Y0115002D01*
X0063143Y0114981D01*
X0063109Y0114968D01*
X0063076Y0114958D01*
X0063046Y0114954D01*
X0063023Y0114949D01*
X0063002Y0114949D01*
X0062956Y0114951D01*
X0062916Y0114961D01*
X0062881Y0114972D01*
X0062851Y0114986D01*
X0062828Y0115000D01*
X0062812Y0115012D01*
X0062800Y0115021D01*
X0062798Y0115023D01*
X0062772Y0115053D01*
X0062754Y0115088D01*
X0062742Y0115123D01*
X0062733Y0115155D01*
X0062728Y0115188D01*
X0062723Y0115211D01*
X0062723Y0115221D01*
X0062723Y0115227D01*
X0062723Y0115232D01*
X0062723Y0115234D01*
X0062728Y0115281D01*
X0062737Y0115327D01*
X0062751Y0115369D01*
X0062765Y0115406D01*
X0062781Y0115439D01*
X0062795Y0115464D01*
X0062802Y0115473D01*
X0062805Y0115480D01*
X0062809Y0115483D01*
X0062809Y0115485D01*
X0062823Y0115504D01*
X0062842Y0115527D01*
X0062865Y0115552D01*
X0062888Y0115578D01*
X0062944Y0115636D01*
X0063004Y0115694D01*
X0063032Y0115722D01*
X0063060Y0115750D01*
X0063083Y0115773D01*
X0063106Y0115793D01*
X0063125Y0115810D01*
X0063139Y0115824D01*
X0063148Y0115833D01*
X0063150Y0115835D01*
X0063213Y0115893D01*
X0063269Y0115949D01*
X0063322Y0116002D01*
X0063368Y0116051D01*
X0063410Y0116095D01*
X0063447Y0116139D01*
X0063482Y0116176D01*
X0063510Y0116211D01*
X0063535Y0116244D01*
X0063556Y0116269D01*
X0063575Y0116295D01*
X0063589Y0116313D01*
X0063598Y0116327D01*
X0063607Y0116339D01*
X0063610Y0116346D01*
X0063612Y0116348D01*
X0063651Y0116420D01*
X0063682Y0116492D01*
X0063707Y0116562D01*
X0063726Y0116624D01*
X0063733Y0116652D01*
X0063737Y0116677D01*
X0063742Y0116701D01*
X0063747Y0116719D01*
X0063749Y0116735D01*
X0063749Y0116747D01*
X0063751Y0116754D01*
X0063751Y0116756D01*
X0062313Y0116756D01*
X0062313Y0116376D01*
X0063129Y0116376D01*
X0063102Y0116336D01*
X0063088Y0116318D01*
X0063076Y0116299D01*
X0063064Y0116285D01*
X0063055Y0116274D01*
X0063048Y0116267D01*
X0063046Y0116265D01*
X0063034Y0116253D01*
X0063021Y0116237D01*
X0063004Y0116220D01*
X0062986Y0116202D01*
X0062946Y0116162D01*
X0062904Y0116123D01*
X0062865Y0116086D01*
X0062846Y0116070D01*
X0062830Y0116056D01*
X0062819Y0116044D01*
X0062809Y0116035D01*
X0062802Y0116030D01*
X0062800Y0116028D01*
X0062765Y0115995D01*
X0062733Y0115965D01*
X0062703Y0115935D01*
X0062675Y0115910D01*
X0062652Y0115884D01*
X0062628Y0115863D01*
X0062610Y0115842D01*
X0062591Y0115824D01*
X0062566Y0115793D01*
X0062545Y0115773D01*
X0062536Y0115759D01*
X0062531Y0115754D01*
X0062492Y0115701D01*
X0062457Y0115650D01*
X0062429Y0115603D01*
X0062406Y0115564D01*
X0062389Y0115529D01*
X0062383Y0115515D01*
X0062375Y0115504D01*
X0062371Y0115494D01*
X0062369Y0115485D01*
X0062366Y0115483D01*
X0062366Y0115480D01*
X0062348Y0115432D01*
X0062336Y0115383D01*
X0062327Y0115336D01*
X0062320Y0115292D01*
X0062315Y0115258D01*
X0062315Y0115241D01*
X0062313Y0115230D01*
X0062313Y0115218D01*
X0062313Y0115211D01*
X0062313Y0115207D01*
X0062313Y0115204D01*
X0062315Y0115158D01*
X0062320Y0115114D01*
X0062329Y0115072D01*
X0062341Y0115030D01*
X0062355Y0114993D01*
X0062371Y0114958D01*
X0062387Y0114926D01*
X0062403Y0114898D01*
X0062422Y0114870D01*
X0062438Y0114847D01*
X0062454Y0114826D01*
X0062468Y0114810D01*
X0062480Y0114798D01*
X0062489Y0114787D01*
X0062494Y0114782D01*
X0062496Y0114780D01*
X0062531Y0114749D01*
X0062570Y0114724D01*
X0062610Y0114701D01*
X0062649Y0114680D01*
X0062691Y0114664D01*
X0062733Y0114650D01*
X0062772Y0114638D01*
X0062812Y0114629D01*
X0062849Y0114622D01*
X0062884Y0114617D01*
X0062914Y0114613D01*
X0062939Y0114610D01*
X0062962Y0114608D01*
X0062993Y0114608D01*
X0063046Y0114610D01*
D02*
G37*
G36*
X0064443Y0116756D02*
X0064032Y0116756D01*
X0064032Y0116346D01*
X0064443Y0116346D01*
X0064443Y0116756D01*
D02*
G37*
G36*
X0065556Y0114610D02*
X0065610Y0114617D01*
X0065661Y0114629D01*
X0065707Y0114643D01*
X0065751Y0114659D01*
X0065791Y0114678D01*
X0065828Y0114698D01*
X0065860Y0114717D01*
X0065888Y0114738D01*
X0065914Y0114759D01*
X0065934Y0114777D01*
X0065953Y0114794D01*
X0065967Y0114808D01*
X0065976Y0114819D01*
X0065983Y0114826D01*
X0065985Y0114828D01*
X0066023Y0114882D01*
X0066055Y0114942D01*
X0066083Y0115007D01*
X0066106Y0115077D01*
X0066127Y0115149D01*
X0066143Y0115221D01*
X0066157Y0115292D01*
X0066169Y0115364D01*
X0066176Y0115432D01*
X0066183Y0115494D01*
X0066187Y0115550D01*
X0066192Y0115601D01*
X0066192Y0115622D01*
X0066192Y0115640D01*
X0066194Y0115657D01*
X0066194Y0115673D01*
X0066194Y0115682D01*
X0066194Y0115691D01*
X0066194Y0115696D01*
X0066194Y0115698D01*
X0066192Y0115810D01*
X0066185Y0115912D01*
X0066176Y0116007D01*
X0066164Y0116093D01*
X0066150Y0116172D01*
X0066134Y0116241D01*
X0066118Y0116304D01*
X0066099Y0116360D01*
X0066081Y0116406D01*
X0066064Y0116448D01*
X0066048Y0116483D01*
X0066034Y0116510D01*
X0066023Y0116531D01*
X0066011Y0116545D01*
X0066006Y0116554D01*
X0066004Y0116557D01*
X0065967Y0116599D01*
X0065927Y0116636D01*
X0065886Y0116668D01*
X0065844Y0116696D01*
X0065802Y0116717D01*
X0065760Y0116738D01*
X0065721Y0116754D01*
X0065682Y0116766D01*
X0065644Y0116775D01*
X0065610Y0116784D01*
X0065579Y0116789D01*
X0065552Y0116791D01*
X0065531Y0116794D01*
X0065515Y0116796D01*
X0065500Y0116796D01*
X0065445Y0116794D01*
X0065392Y0116786D01*
X0065340Y0116775D01*
X0065294Y0116761D01*
X0065250Y0116745D01*
X0065210Y0116726D01*
X0065173Y0116708D01*
X0065141Y0116687D01*
X0065113Y0116666D01*
X0065088Y0116647D01*
X0065064Y0116629D01*
X0065048Y0116613D01*
X0065034Y0116599D01*
X0065023Y0116587D01*
X0065018Y0116580D01*
X0065016Y0116578D01*
X0064979Y0116524D01*
X0064946Y0116464D01*
X0064918Y0116397D01*
X0064893Y0116329D01*
X0064874Y0116258D01*
X0064856Y0116183D01*
X0064842Y0116111D01*
X0064830Y0116040D01*
X0064823Y0115972D01*
X0064816Y0115910D01*
X0064811Y0115852D01*
X0064807Y0115803D01*
X0064807Y0115780D01*
X0064807Y0115761D01*
X0064804Y0115745D01*
X0064804Y0115729D01*
X0064804Y0115719D01*
X0064804Y0115710D01*
X0064804Y0115705D01*
X0064804Y0115703D01*
X0064807Y0115594D01*
X0064814Y0115492D01*
X0064823Y0115397D01*
X0064837Y0115311D01*
X0064853Y0115232D01*
X0064870Y0115160D01*
X0064890Y0115095D01*
X0064909Y0115040D01*
X0064927Y0114989D01*
X0064946Y0114947D01*
X0064965Y0114910D01*
X0064981Y0114882D01*
X0064995Y0114859D01*
X0065004Y0114842D01*
X0065011Y0114833D01*
X0065013Y0114831D01*
X0065048Y0114791D01*
X0065085Y0114757D01*
X0065125Y0114726D01*
X0065164Y0114701D01*
X0065204Y0114680D01*
X0065245Y0114661D01*
X0065285Y0114647D01*
X0065322Y0114636D01*
X0065359Y0114627D01*
X0065394Y0114620D01*
X0065424Y0114615D01*
X0065449Y0114610D01*
X0065470Y0114610D01*
X0065487Y0114608D01*
X0065500Y0114608D01*
X0065556Y0114610D01*
D02*
G37*
%LPC*%
G36*
X0053687Y0118910D02*
X0053670Y0118910D01*
X0053638Y0118912D01*
X0053608Y0118915D01*
X0053554Y0118930D01*
X0053505Y0118952D01*
X0053463Y0118974D01*
X0053428Y0118999D01*
X0053404Y0119021D01*
X0053396Y0119028D01*
X0053389Y0119035D01*
X0053387Y0119038D01*
X0053384Y0119040D01*
X0053365Y0119065D01*
X0053345Y0119094D01*
X0053318Y0119153D01*
X0053296Y0119215D01*
X0053283Y0119276D01*
X0053278Y0119304D01*
X0053274Y0119331D01*
X0053271Y0119353D01*
X0053271Y0119375D01*
X0053269Y0119390D01*
X0053269Y0119404D01*
X0053269Y0119412D01*
X0053269Y0119414D01*
X0053269Y0119458D01*
X0053274Y0119503D01*
X0053278Y0119542D01*
X0053286Y0119579D01*
X0053296Y0119611D01*
X0053305Y0119643D01*
X0053315Y0119672D01*
X0053325Y0119697D01*
X0053337Y0119719D01*
X0053347Y0119739D01*
X0053357Y0119756D01*
X0053367Y0119768D01*
X0053374Y0119778D01*
X0053379Y0119786D01*
X0053382Y0119791D01*
X0053384Y0119793D01*
X0053406Y0119815D01*
X0053428Y0119835D01*
X0053453Y0119852D01*
X0053478Y0119867D01*
X0053524Y0119889D01*
X0053571Y0119904D01*
X0053610Y0119914D01*
X0053628Y0119916D01*
X0053640Y0119918D01*
X0053652Y0119921D01*
X0053670Y0119921D01*
X0053701Y0119918D01*
X0053731Y0119916D01*
X0053785Y0119901D01*
X0053834Y0119882D01*
X0053876Y0119857D01*
X0053908Y0119832D01*
X0053935Y0119813D01*
X0053943Y0119805D01*
X0053950Y0119798D01*
X0053952Y0119796D01*
X0053955Y0119793D01*
X0053975Y0119768D01*
X0053992Y0119739D01*
X0054021Y0119680D01*
X0054041Y0119616D01*
X0054053Y0119557D01*
X0054058Y0119527D01*
X0054063Y0119500D01*
X0054066Y0119478D01*
X0054066Y0119456D01*
X0054068Y0119441D01*
X0054068Y0119426D01*
X0054068Y0119419D01*
X0054068Y0119417D01*
X0054066Y0119372D01*
X0054063Y0119331D01*
X0054058Y0119291D01*
X0054051Y0119254D01*
X0054041Y0119220D01*
X0054031Y0119190D01*
X0054021Y0119161D01*
X0054012Y0119136D01*
X0054002Y0119114D01*
X0053992Y0119094D01*
X0053982Y0119077D01*
X0053972Y0119065D01*
X0053965Y0119055D01*
X0053960Y0119045D01*
X0053955Y0119043D01*
X0053955Y0119040D01*
X0053933Y0119018D01*
X0053908Y0118996D01*
X0053886Y0118979D01*
X0053861Y0118964D01*
X0053815Y0118942D01*
X0053768Y0118927D01*
X0053729Y0118917D01*
X0053711Y0118915D01*
X0053697Y0118912D01*
X0053687Y0118910D01*
D02*
G37*
G36*
X0065512Y0114949D02*
X0065500Y0114949D01*
X0065473Y0114951D01*
X0065449Y0114956D01*
X0065426Y0114965D01*
X0065405Y0114972D01*
X0065392Y0114981D01*
X0065378Y0114991D01*
X0065371Y0114996D01*
X0065368Y0114998D01*
X0065347Y0115019D01*
X0065329Y0115047D01*
X0065313Y0115077D01*
X0065299Y0115109D01*
X0065287Y0115139D01*
X0065280Y0115162D01*
X0065278Y0115172D01*
X0065276Y0115179D01*
X0065273Y0115183D01*
X0065273Y0115186D01*
X0065266Y0115216D01*
X0065259Y0115248D01*
X0065255Y0115285D01*
X0065250Y0115327D01*
X0065243Y0115411D01*
X0065238Y0115497D01*
X0065236Y0115538D01*
X0065236Y0115576D01*
X0065234Y0115613D01*
X0065234Y0115643D01*
X0065234Y0115668D01*
X0065234Y0115687D01*
X0065234Y0115698D01*
X0065234Y0115703D01*
X0065234Y0115770D01*
X0065236Y0115835D01*
X0065238Y0115893D01*
X0065241Y0115947D01*
X0065243Y0115995D01*
X0065248Y0116040D01*
X0065252Y0116079D01*
X0065255Y0116114D01*
X0065259Y0116144D01*
X0065264Y0116169D01*
X0065269Y0116190D01*
X0065271Y0116209D01*
X0065273Y0116223D01*
X0065276Y0116232D01*
X0065278Y0116237D01*
X0065278Y0116239D01*
X0065292Y0116281D01*
X0065306Y0116318D01*
X0065320Y0116346D01*
X0065336Y0116369D01*
X0065347Y0116388D01*
X0065359Y0116399D01*
X0065366Y0116406D01*
X0065368Y0116408D01*
X0065392Y0116425D01*
X0065412Y0116436D01*
X0065436Y0116443D01*
X0065456Y0116448D01*
X0065475Y0116452D01*
X0065489Y0116455D01*
X0065500Y0116455D01*
X0065528Y0116452D01*
X0065552Y0116448D01*
X0065575Y0116441D01*
X0065593Y0116431D01*
X0065610Y0116422D01*
X0065623Y0116415D01*
X0065631Y0116411D01*
X0065633Y0116408D01*
X0065654Y0116388D01*
X0065672Y0116360D01*
X0065688Y0116329D01*
X0065702Y0116297D01*
X0065714Y0116269D01*
X0065721Y0116246D01*
X0065723Y0116237D01*
X0065726Y0116230D01*
X0065728Y0116225D01*
X0065728Y0116223D01*
X0065735Y0116193D01*
X0065739Y0116160D01*
X0065744Y0116123D01*
X0065749Y0116081D01*
X0065756Y0115995D01*
X0065760Y0115910D01*
X0065763Y0115868D01*
X0065763Y0115831D01*
X0065763Y0115796D01*
X0065765Y0115763D01*
X0065765Y0115738D01*
X0065765Y0115719D01*
X0065765Y0115708D01*
X0065765Y0115703D01*
X0065765Y0115636D01*
X0065763Y0115573D01*
X0065760Y0115513D01*
X0065758Y0115462D01*
X0065756Y0115413D01*
X0065751Y0115369D01*
X0065749Y0115329D01*
X0065744Y0115295D01*
X0065739Y0115265D01*
X0065737Y0115237D01*
X0065733Y0115216D01*
X0065730Y0115197D01*
X0065728Y0115183D01*
X0065726Y0115174D01*
X0065723Y0115170D01*
X0065723Y0115167D01*
X0065709Y0115125D01*
X0065695Y0115088D01*
X0065679Y0115060D01*
X0065665Y0115037D01*
X0065654Y0115019D01*
X0065642Y0115007D01*
X0065635Y0115000D01*
X0065633Y0114998D01*
X0065610Y0114981D01*
X0065589Y0114970D01*
X0065566Y0114961D01*
X0065545Y0114956D01*
X0065526Y0114951D01*
X0065512Y0114949D01*
D02*
G37*
%LPD*%
D26*
X0040118Y0125393D02*
X0075944Y0125393D01*
X0040118Y0113189D02*
X0075944Y0113189D01*
X0040118Y0125393D02*
X0040118Y0121456D01*
X0059030Y0119429D02*
X0061982Y0119429D01*
D27*
X0069645Y0116732D02*
X0069645Y0114370D01*
X0063308Y0121067D02*
X0063308Y0121460D01*
X0065277Y0121063D02*
X0065277Y0121456D01*
X0054586Y0116732D02*
X0054586Y0114370D01*
X0046220Y0116732D02*
X0046220Y0114370D01*
X0045830Y0120472D02*
X0046224Y0120472D01*
X0045826Y0118504D02*
X0046220Y0118504D01*
X0069645Y0124015D02*
X0069645Y0121653D01*
X0054193Y0124015D02*
X0054586Y0124015D01*
X0054188Y0122047D02*
X0054582Y0122047D01*
X0069055Y0120415D02*
X0069448Y0120415D01*
X0069051Y0118446D02*
X0069444Y0118446D01*
X0045822Y0122047D02*
X0046216Y0122047D01*
X0045826Y0124015D02*
X0046220Y0124015D01*
X0040020Y0110965D02*
G01*
G75*
G36*
X0058426Y0105416D02*
X0057990Y0105416D01*
X0057990Y0104890D01*
X0057788Y0104678D01*
X0057375Y0105416D01*
X0056905Y0105416D01*
X0057508Y0104373D01*
X0056945Y0103771D01*
X0057481Y0103771D01*
X0057990Y0104351D01*
X0057990Y0103146D01*
X0058426Y0103146D01*
X0058426Y0105416D01*
D02*
G37*
G36*
X0051026Y0105416D02*
X0050590Y0105416D01*
X0050590Y0104890D01*
X0050389Y0104678D01*
X0049975Y0105416D01*
X0049506Y0105416D01*
X0050108Y0104373D01*
X0049545Y0103771D01*
X0050081Y0103771D01*
X0050590Y0104351D01*
X0050590Y0103146D01*
X0051026Y0103146D01*
X0051026Y0105416D01*
D02*
G37*
G36*
X0052140Y0103736D02*
X0052204Y0103744D01*
X0052263Y0103756D01*
X0052320Y0103768D01*
X0052371Y0103788D01*
X0052418Y0103805D01*
X0052463Y0103827D01*
X0052502Y0103847D01*
X0052536Y0103869D01*
X0052568Y0103891D01*
X0052593Y0103908D01*
X0052615Y0103925D01*
X0052632Y0103940D01*
X0052645Y0103953D01*
X0052652Y0103960D01*
X0052654Y0103962D01*
X0052691Y0104007D01*
X0052726Y0104054D01*
X0052753Y0104105D01*
X0052777Y0104157D01*
X0052799Y0104211D01*
X0052817Y0104263D01*
X0052829Y0104314D01*
X0052841Y0104363D01*
X0052851Y0104413D01*
X0052856Y0104457D01*
X0052861Y0104496D01*
X0052866Y0104531D01*
X0052866Y0104558D01*
X0052868Y0104580D01*
X0052868Y0104592D01*
X0052868Y0104597D01*
X0052866Y0104671D01*
X0052859Y0104740D01*
X0052849Y0104804D01*
X0052834Y0104865D01*
X0052819Y0104922D01*
X0052799Y0104974D01*
X0052782Y0105020D01*
X0052760Y0105062D01*
X0052740Y0105099D01*
X0052721Y0105133D01*
X0052704Y0105161D01*
X0052689Y0105185D01*
X0052674Y0105202D01*
X0052664Y0105217D01*
X0052657Y0105224D01*
X0052654Y0105227D01*
X0052613Y0105266D01*
X0052568Y0105301D01*
X0052522Y0105333D01*
X0052475Y0105357D01*
X0052426Y0105379D01*
X0052379Y0105399D01*
X0052332Y0105414D01*
X0052288Y0105424D01*
X0052246Y0105434D01*
X0052207Y0105441D01*
X0052170Y0105446D01*
X0052140Y0105451D01*
X0052116Y0105451D01*
X0052096Y0105453D01*
X0052081Y0105453D01*
X0052022Y0105451D01*
X0051968Y0105446D01*
X0051916Y0105438D01*
X0051870Y0105431D01*
X0051823Y0105419D01*
X0051781Y0105406D01*
X0051744Y0105394D01*
X0051710Y0105379D01*
X0051680Y0105365D01*
X0051653Y0105352D01*
X0051631Y0105340D01*
X0051611Y0105328D01*
X0051597Y0105320D01*
X0051584Y0105313D01*
X0051579Y0105308D01*
X0051577Y0105306D01*
X0051542Y0105276D01*
X0051510Y0105244D01*
X0051483Y0105210D01*
X0051456Y0105173D01*
X0051432Y0105136D01*
X0051412Y0105099D01*
X0051378Y0105028D01*
X0051363Y0104993D01*
X0051351Y0104961D01*
X0051341Y0104934D01*
X0051333Y0104910D01*
X0051326Y0104887D01*
X0051321Y0104873D01*
X0051319Y0104863D01*
X0051319Y0104860D01*
X0051747Y0104786D01*
X0051761Y0104846D01*
X0051779Y0104897D01*
X0051798Y0104939D01*
X0051815Y0104974D01*
X0051833Y0104998D01*
X0051848Y0105015D01*
X0051857Y0105028D01*
X0051860Y0105030D01*
X0051892Y0105052D01*
X0051924Y0105069D01*
X0051958Y0105082D01*
X0051990Y0105089D01*
X0052017Y0105094D01*
X0052042Y0105099D01*
X0052062Y0105099D01*
X0052091Y0105096D01*
X0052120Y0105094D01*
X0052175Y0105079D01*
X0052219Y0105060D01*
X0052256Y0105037D01*
X0052288Y0105015D01*
X0052310Y0104998D01*
X0052322Y0104983D01*
X0052327Y0104981D01*
X0052327Y0104978D01*
X0052344Y0104954D01*
X0052359Y0104927D01*
X0052371Y0104895D01*
X0052384Y0104863D01*
X0052398Y0104794D01*
X0052411Y0104727D01*
X0052416Y0104693D01*
X0052418Y0104664D01*
X0052421Y0104636D01*
X0052421Y0104612D01*
X0052423Y0104592D01*
X0052423Y0104577D01*
X0052423Y0104568D01*
X0052423Y0104565D01*
X0052423Y0104518D01*
X0052418Y0104474D01*
X0052413Y0104432D01*
X0052408Y0104395D01*
X0052401Y0104361D01*
X0052394Y0104331D01*
X0052384Y0104302D01*
X0052374Y0104277D01*
X0052367Y0104258D01*
X0052357Y0104238D01*
X0052349Y0104223D01*
X0052342Y0104211D01*
X0052337Y0104201D01*
X0052332Y0104194D01*
X0052327Y0104191D01*
X0052327Y0104189D01*
X0052307Y0104169D01*
X0052288Y0104152D01*
X0052246Y0104122D01*
X0052204Y0104103D01*
X0052162Y0104090D01*
X0052125Y0104081D01*
X0052108Y0104078D01*
X0052096Y0104078D01*
X0052084Y0104076D01*
X0052069Y0104076D01*
X0052025Y0104078D01*
X0051985Y0104085D01*
X0051951Y0104098D01*
X0051924Y0104108D01*
X0051899Y0104120D01*
X0051884Y0104132D01*
X0051872Y0104140D01*
X0051870Y0104142D01*
X0051843Y0104169D01*
X0051820Y0104199D01*
X0051803Y0104231D01*
X0051788Y0104260D01*
X0051781Y0104287D01*
X0051774Y0104312D01*
X0051769Y0104326D01*
X0051769Y0104329D01*
X0051769Y0104331D01*
X0051341Y0104255D01*
X0051356Y0104208D01*
X0051375Y0104162D01*
X0051392Y0104122D01*
X0051414Y0104083D01*
X0051434Y0104049D01*
X0051456Y0104017D01*
X0051478Y0103987D01*
X0051498Y0103960D01*
X0051518Y0103938D01*
X0051535Y0103918D01*
X0051552Y0103901D01*
X0051567Y0103889D01*
X0051579Y0103876D01*
X0051589Y0103869D01*
X0051594Y0103867D01*
X0051597Y0103864D01*
X0051631Y0103842D01*
X0051668Y0103820D01*
X0051707Y0103802D01*
X0051747Y0103788D01*
X0051825Y0103766D01*
X0051902Y0103751D01*
X0051936Y0103744D01*
X0051971Y0103741D01*
X0051997Y0103739D01*
X0052025Y0103736D01*
X0052044Y0103734D01*
X0052074Y0103734D01*
X0052140Y0103736D01*
D02*
G37*
G36*
X0055766Y0103736D02*
X0055823Y0103746D01*
X0055877Y0103758D01*
X0055929Y0103778D01*
X0055975Y0103798D01*
X0056020Y0103822D01*
X0056061Y0103847D01*
X0056098Y0103874D01*
X0056133Y0103901D01*
X0056160Y0103925D01*
X0056187Y0103950D01*
X0056207Y0103970D01*
X0056224Y0103987D01*
X0056236Y0104002D01*
X0056244Y0104012D01*
X0056246Y0104014D01*
X0056246Y0103771D01*
X0056649Y0103771D01*
X0056649Y0105416D01*
X0056214Y0105416D01*
X0056214Y0104671D01*
X0056214Y0104622D01*
X0056212Y0104575D01*
X0056212Y0104533D01*
X0056209Y0104496D01*
X0056207Y0104462D01*
X0056204Y0104430D01*
X0056202Y0104403D01*
X0056197Y0104378D01*
X0056194Y0104359D01*
X0056192Y0104341D01*
X0056189Y0104326D01*
X0056187Y0104314D01*
X0056184Y0104304D01*
X0056184Y0104299D01*
X0056182Y0104294D01*
X0056167Y0104258D01*
X0056150Y0104226D01*
X0056130Y0104196D01*
X0056111Y0104174D01*
X0056091Y0104154D01*
X0056076Y0104142D01*
X0056066Y0104132D01*
X0056061Y0104130D01*
X0056027Y0104108D01*
X0055990Y0104093D01*
X0055956Y0104081D01*
X0055926Y0104073D01*
X0055897Y0104068D01*
X0055877Y0104066D01*
X0055857Y0104066D01*
X0055825Y0104068D01*
X0055798Y0104073D01*
X0055774Y0104081D01*
X0055752Y0104088D01*
X0055734Y0104095D01*
X0055719Y0104103D01*
X0055712Y0104108D01*
X0055710Y0104110D01*
X0055687Y0104127D01*
X0055668Y0104147D01*
X0055653Y0104169D01*
X0055641Y0104189D01*
X0055631Y0104206D01*
X0055624Y0104221D01*
X0055619Y0104231D01*
X0055619Y0104233D01*
X0055614Y0104250D01*
X0055609Y0104270D01*
X0055604Y0104292D01*
X0055601Y0104319D01*
X0055596Y0104376D01*
X0055592Y0104435D01*
X0055592Y0104489D01*
X0055589Y0104513D01*
X0055589Y0104533D01*
X0055589Y0104553D01*
X0055589Y0104565D01*
X0055589Y0104575D01*
X0055589Y0104577D01*
X0055589Y0105416D01*
X0055154Y0105416D01*
X0055154Y0104395D01*
X0055154Y0104326D01*
X0055159Y0104268D01*
X0055161Y0104218D01*
X0055166Y0104177D01*
X0055171Y0104145D01*
X0055173Y0104122D01*
X0055178Y0104108D01*
X0055178Y0104103D01*
X0055188Y0104066D01*
X0055203Y0104031D01*
X0055215Y0103999D01*
X0055230Y0103972D01*
X0055245Y0103950D01*
X0055255Y0103935D01*
X0055262Y0103923D01*
X0055264Y0103921D01*
X0055289Y0103891D01*
X0055319Y0103867D01*
X0055348Y0103842D01*
X0055378Y0103825D01*
X0055402Y0103807D01*
X0055424Y0103798D01*
X0055439Y0103790D01*
X0055441Y0103788D01*
X0055444Y0103788D01*
X0055488Y0103771D01*
X0055535Y0103756D01*
X0055579Y0103746D01*
X0055619Y0103741D01*
X0055656Y0103736D01*
X0055683Y0103734D01*
X0055707Y0103734D01*
X0055766Y0103736D01*
D02*
G37*
G36*
X0054054Y0103739D02*
X0054135Y0103751D01*
X0054209Y0103768D01*
X0054243Y0103778D01*
X0054275Y0103788D01*
X0054303Y0103798D01*
X0054327Y0103807D01*
X0054349Y0103817D01*
X0054369Y0103825D01*
X0054384Y0103832D01*
X0054394Y0103837D01*
X0054401Y0103839D01*
X0054403Y0103842D01*
X0054472Y0103886D01*
X0054531Y0103935D01*
X0054583Y0103987D01*
X0054627Y0104036D01*
X0054659Y0104081D01*
X0054674Y0104100D01*
X0054684Y0104117D01*
X0054691Y0104132D01*
X0054699Y0104142D01*
X0054701Y0104149D01*
X0054703Y0104152D01*
X0054723Y0104189D01*
X0054738Y0104228D01*
X0054765Y0104302D01*
X0054782Y0104373D01*
X0054797Y0104437D01*
X0054800Y0104467D01*
X0054804Y0104491D01*
X0054807Y0104516D01*
X0054807Y0104536D01*
X0054809Y0104550D01*
X0054809Y0104563D01*
X0054809Y0104570D01*
X0054809Y0104573D01*
X0054807Y0104624D01*
X0054804Y0104673D01*
X0054800Y0104723D01*
X0054792Y0104767D01*
X0054785Y0104809D01*
X0054775Y0104848D01*
X0054765Y0104885D01*
X0054755Y0104919D01*
X0054745Y0104949D01*
X0054738Y0104976D01*
X0054728Y0104998D01*
X0054721Y0105018D01*
X0054713Y0105033D01*
X0054708Y0105042D01*
X0054703Y0105050D01*
X0054703Y0105052D01*
X0054659Y0105121D01*
X0054610Y0105183D01*
X0054558Y0105234D01*
X0054509Y0105276D01*
X0054462Y0105308D01*
X0054445Y0105323D01*
X0054428Y0105333D01*
X0054413Y0105342D01*
X0054403Y0105347D01*
X0054396Y0105350D01*
X0054394Y0105352D01*
X0054317Y0105387D01*
X0054241Y0105411D01*
X0054167Y0105429D01*
X0054101Y0105441D01*
X0054071Y0105446D01*
X0054044Y0105448D01*
X0054022Y0105451D01*
X0054002Y0105451D01*
X0053985Y0105453D01*
X0053963Y0105453D01*
X0053897Y0105451D01*
X0053833Y0105443D01*
X0053771Y0105431D01*
X0053715Y0105414D01*
X0053661Y0105397D01*
X0053611Y0105377D01*
X0053565Y0105355D01*
X0053523Y0105330D01*
X0053486Y0105308D01*
X0053454Y0105286D01*
X0053424Y0105266D01*
X0053402Y0105247D01*
X0053383Y0105232D01*
X0053368Y0105220D01*
X0053360Y0105212D01*
X0053358Y0105210D01*
X0053316Y0105163D01*
X0053279Y0105111D01*
X0053247Y0105062D01*
X0053218Y0105008D01*
X0053196Y0104956D01*
X0053176Y0104905D01*
X0053159Y0104855D01*
X0053146Y0104806D01*
X0053136Y0104762D01*
X0053129Y0104720D01*
X0053124Y0104683D01*
X0053119Y0104651D01*
X0053119Y0104627D01*
X0053117Y0104607D01*
X0053117Y0104595D01*
X0053117Y0104590D01*
X0053119Y0104521D01*
X0053127Y0104457D01*
X0053139Y0104395D01*
X0053154Y0104339D01*
X0053171Y0104285D01*
X0053193Y0104233D01*
X0053213Y0104186D01*
X0053235Y0104145D01*
X0053259Y0104108D01*
X0053279Y0104073D01*
X0053299Y0104046D01*
X0053319Y0104021D01*
X0053333Y0104002D01*
X0053346Y0103989D01*
X0053353Y0103980D01*
X0053356Y0103977D01*
X0053402Y0103935D01*
X0053449Y0103896D01*
X0053501Y0103864D01*
X0053552Y0103837D01*
X0053601Y0103812D01*
X0053653Y0103793D01*
X0053702Y0103778D01*
X0053749Y0103763D01*
X0053793Y0103753D01*
X0053835Y0103746D01*
X0053872Y0103741D01*
X0053904Y0103739D01*
X0053929Y0103736D01*
X0053948Y0103734D01*
X0054010Y0103734D01*
X0054054Y0103739D01*
D02*
G37*
G36*
X0063342Y0099788D02*
X0063393Y0099793D01*
X0063442Y0099800D01*
X0063486Y0099809D01*
X0063530Y0099821D01*
X0063569Y0099832D01*
X0063604Y0099846D01*
X0063639Y0099860D01*
X0063669Y0099874D01*
X0063695Y0099888D01*
X0063718Y0099900D01*
X0063736Y0099911D01*
X0063750Y0099921D01*
X0063762Y0099927D01*
X0063769Y0099932D01*
X0063771Y0099935D01*
X0063806Y0099965D01*
X0063836Y0099997D01*
X0063864Y0100034D01*
X0063887Y0100074D01*
X0063908Y0100113D01*
X0063927Y0100155D01*
X0063943Y0100194D01*
X0063957Y0100234D01*
X0063968Y0100271D01*
X0063978Y0100306D01*
X0063985Y0100338D01*
X0063989Y0100366D01*
X0063994Y0100389D01*
X0063996Y0100408D01*
X0063999Y0100417D01*
X0063999Y0100422D01*
X0063590Y0100461D01*
X0063588Y0100429D01*
X0063583Y0100399D01*
X0063572Y0100345D01*
X0063558Y0100301D01*
X0063544Y0100266D01*
X0063528Y0100238D01*
X0063516Y0100220D01*
X0063507Y0100211D01*
X0063504Y0100206D01*
X0063474Y0100180D01*
X0063439Y0100159D01*
X0063405Y0100146D01*
X0063372Y0100136D01*
X0063342Y0100132D01*
X0063319Y0100127D01*
X0063298Y0100127D01*
X0063252Y0100129D01*
X0063212Y0100139D01*
X0063177Y0100150D01*
X0063147Y0100164D01*
X0063124Y0100178D01*
X0063108Y0100190D01*
X0063096Y0100199D01*
X0063094Y0100201D01*
X0063068Y0100231D01*
X0063050Y0100266D01*
X0063038Y0100301D01*
X0063029Y0100333D01*
X0063024Y0100366D01*
X0063019Y0100389D01*
X0063019Y0100399D01*
X0063019Y0100405D01*
X0063019Y0100410D01*
X0063019Y0100412D01*
X0063024Y0100459D01*
X0063033Y0100505D01*
X0063047Y0100547D01*
X0063061Y0100584D01*
X0063077Y0100617D01*
X0063091Y0100642D01*
X0063098Y0100651D01*
X0063101Y0100658D01*
X0063105Y0100661D01*
X0063105Y0100663D01*
X0063119Y0100682D01*
X0063138Y0100705D01*
X0063161Y0100730D01*
X0063184Y0100756D01*
X0063240Y0100814D01*
X0063300Y0100872D01*
X0063328Y0100900D01*
X0063356Y0100928D01*
X0063379Y0100951D01*
X0063402Y0100971D01*
X0063421Y0100988D01*
X0063435Y0101002D01*
X0063444Y0101011D01*
X0063446Y0101013D01*
X0063509Y0101071D01*
X0063565Y0101127D01*
X0063618Y0101180D01*
X0063664Y0101229D01*
X0063706Y0101273D01*
X0063743Y0101317D01*
X0063778Y0101354D01*
X0063806Y0101389D01*
X0063831Y0101422D01*
X0063852Y0101447D01*
X0063871Y0101473D01*
X0063885Y0101491D01*
X0063894Y0101505D01*
X0063903Y0101517D01*
X0063906Y0101524D01*
X0063908Y0101526D01*
X0063947Y0101598D01*
X0063978Y0101670D01*
X0064003Y0101740D01*
X0064022Y0101802D01*
X0064029Y0101830D01*
X0064033Y0101855D01*
X0064038Y0101879D01*
X0064043Y0101897D01*
X0064045Y0101913D01*
X0064045Y0101925D01*
X0064047Y0101932D01*
X0064047Y0101934D01*
X0062609Y0101934D01*
X0062609Y0101554D01*
X0063425Y0101554D01*
X0063398Y0101514D01*
X0063384Y0101496D01*
X0063372Y0101477D01*
X0063360Y0101463D01*
X0063351Y0101452D01*
X0063344Y0101445D01*
X0063342Y0101443D01*
X0063330Y0101431D01*
X0063317Y0101415D01*
X0063300Y0101398D01*
X0063282Y0101380D01*
X0063242Y0101340D01*
X0063200Y0101301D01*
X0063161Y0101264D01*
X0063142Y0101248D01*
X0063126Y0101234D01*
X0063115Y0101222D01*
X0063105Y0101213D01*
X0063098Y0101208D01*
X0063096Y0101206D01*
X0063061Y0101173D01*
X0063029Y0101143D01*
X0062999Y0101113D01*
X0062971Y0101088D01*
X0062948Y0101062D01*
X0062924Y0101041D01*
X0062906Y0101020D01*
X0062887Y0101002D01*
X0062862Y0100971D01*
X0062841Y0100951D01*
X0062832Y0100937D01*
X0062827Y0100932D01*
X0062788Y0100879D01*
X0062753Y0100828D01*
X0062725Y0100781D01*
X0062702Y0100742D01*
X0062685Y0100707D01*
X0062679Y0100693D01*
X0062671Y0100682D01*
X0062667Y0100672D01*
X0062665Y0100663D01*
X0062662Y0100661D01*
X0062662Y0100658D01*
X0062644Y0100610D01*
X0062632Y0100561D01*
X0062623Y0100514D01*
X0062616Y0100470D01*
X0062611Y0100436D01*
X0062611Y0100419D01*
X0062609Y0100408D01*
X0062609Y0100396D01*
X0062609Y0100389D01*
X0062609Y0100385D01*
X0062609Y0100382D01*
X0062611Y0100336D01*
X0062616Y0100292D01*
X0062625Y0100250D01*
X0062637Y0100208D01*
X0062651Y0100171D01*
X0062667Y0100136D01*
X0062683Y0100104D01*
X0062699Y0100076D01*
X0062718Y0100048D01*
X0062734Y0100025D01*
X0062750Y0100004D01*
X0062764Y0099988D01*
X0062776Y0099976D01*
X0062785Y0099965D01*
X0062790Y0099960D01*
X0062792Y0099958D01*
X0062827Y0099927D01*
X0062866Y0099902D01*
X0062906Y0099879D01*
X0062945Y0099858D01*
X0062987Y0099842D01*
X0063029Y0099828D01*
X0063068Y0099816D01*
X0063108Y0099807D01*
X0063145Y0099800D01*
X0063180Y0099795D01*
X0063210Y0099791D01*
X0063235Y0099788D01*
X0063258Y0099786D01*
X0063289Y0099786D01*
X0063342Y0099788D01*
D02*
G37*
G36*
X0064739Y0101934D02*
X0064328Y0101934D01*
X0064328Y0101524D01*
X0064739Y0101524D01*
X0064739Y0101934D01*
D02*
G37*
G36*
X0065852Y0099788D02*
X0065906Y0099795D01*
X0065957Y0099807D01*
X0066003Y0099821D01*
X0066047Y0099837D01*
X0066087Y0099856D01*
X0066124Y0099876D01*
X0066156Y0099895D01*
X0066184Y0099916D01*
X0066210Y0099937D01*
X0066230Y0099955D01*
X0066249Y0099972D01*
X0066263Y0099986D01*
X0066272Y0099997D01*
X0066279Y0100004D01*
X0066281Y0100006D01*
X0066319Y0100060D01*
X0066351Y0100120D01*
X0066379Y0100185D01*
X0066402Y0100255D01*
X0066423Y0100327D01*
X0066439Y0100399D01*
X0066453Y0100470D01*
X0066465Y0100542D01*
X0066472Y0100610D01*
X0066479Y0100672D01*
X0066483Y0100728D01*
X0066488Y0100779D01*
X0066488Y0100800D01*
X0066488Y0100818D01*
X0066490Y0100835D01*
X0066490Y0100851D01*
X0066490Y0100860D01*
X0066490Y0100869D01*
X0066490Y0100874D01*
X0066490Y0100876D01*
X0066488Y0100988D01*
X0066481Y0101090D01*
X0066472Y0101185D01*
X0066460Y0101271D01*
X0066446Y0101350D01*
X0066430Y0101419D01*
X0066414Y0101482D01*
X0066395Y0101538D01*
X0066377Y0101584D01*
X0066360Y0101626D01*
X0066344Y0101661D01*
X0066330Y0101688D01*
X0066319Y0101709D01*
X0066307Y0101723D01*
X0066302Y0101732D01*
X0066300Y0101735D01*
X0066263Y0101777D01*
X0066223Y0101814D01*
X0066182Y0101846D01*
X0066140Y0101874D01*
X0066098Y0101895D01*
X0066056Y0101916D01*
X0066017Y0101932D01*
X0065978Y0101944D01*
X0065940Y0101953D01*
X0065906Y0101962D01*
X0065875Y0101967D01*
X0065848Y0101969D01*
X0065827Y0101972D01*
X0065811Y0101974D01*
X0065796Y0101974D01*
X0065741Y0101972D01*
X0065688Y0101964D01*
X0065636Y0101953D01*
X0065590Y0101939D01*
X0065546Y0101923D01*
X0065506Y0101904D01*
X0065469Y0101886D01*
X0065437Y0101865D01*
X0065409Y0101844D01*
X0065384Y0101825D01*
X0065360Y0101807D01*
X0065344Y0101791D01*
X0065330Y0101777D01*
X0065319Y0101765D01*
X0065314Y0101758D01*
X0065312Y0101756D01*
X0065275Y0101702D01*
X0065242Y0101642D01*
X0065214Y0101575D01*
X0065189Y0101507D01*
X0065170Y0101436D01*
X0065152Y0101361D01*
X0065138Y0101289D01*
X0065126Y0101218D01*
X0065119Y0101150D01*
X0065112Y0101088D01*
X0065107Y0101030D01*
X0065103Y0100981D01*
X0065103Y0100958D01*
X0065103Y0100939D01*
X0065100Y0100923D01*
X0065100Y0100907D01*
X0065100Y0100897D01*
X0065100Y0100888D01*
X0065100Y0100883D01*
X0065100Y0100881D01*
X0065103Y0100772D01*
X0065110Y0100670D01*
X0065119Y0100575D01*
X0065133Y0100489D01*
X0065149Y0100410D01*
X0065166Y0100338D01*
X0065186Y0100273D01*
X0065205Y0100218D01*
X0065223Y0100167D01*
X0065242Y0100125D01*
X0065261Y0100088D01*
X0065277Y0100060D01*
X0065291Y0100037D01*
X0065300Y0100020D01*
X0065307Y0100011D01*
X0065309Y0100009D01*
X0065344Y0099969D01*
X0065381Y0099935D01*
X0065421Y0099904D01*
X0065460Y0099879D01*
X0065500Y0099858D01*
X0065541Y0099839D01*
X0065581Y0099825D01*
X0065618Y0099814D01*
X0065655Y0099805D01*
X0065690Y0099798D01*
X0065720Y0099793D01*
X0065745Y0099788D01*
X0065766Y0099788D01*
X0065783Y0099786D01*
X0065796Y0099786D01*
X0065852Y0099788D01*
D02*
G37*
%LPC*%
G36*
X0053983Y0104088D02*
X0053966Y0104088D01*
X0053934Y0104090D01*
X0053904Y0104093D01*
X0053850Y0104108D01*
X0053801Y0104130D01*
X0053759Y0104152D01*
X0053724Y0104177D01*
X0053700Y0104199D01*
X0053692Y0104206D01*
X0053685Y0104213D01*
X0053683Y0104216D01*
X0053680Y0104218D01*
X0053661Y0104243D01*
X0053641Y0104272D01*
X0053614Y0104331D01*
X0053592Y0104393D01*
X0053579Y0104454D01*
X0053574Y0104482D01*
X0053570Y0104509D01*
X0053567Y0104531D01*
X0053567Y0104553D01*
X0053565Y0104568D01*
X0053565Y0104582D01*
X0053565Y0104590D01*
X0053565Y0104592D01*
X0053565Y0104636D01*
X0053570Y0104681D01*
X0053574Y0104720D01*
X0053582Y0104757D01*
X0053592Y0104789D01*
X0053601Y0104821D01*
X0053611Y0104850D01*
X0053621Y0104875D01*
X0053633Y0104897D01*
X0053643Y0104917D01*
X0053653Y0104934D01*
X0053663Y0104946D01*
X0053670Y0104956D01*
X0053675Y0104964D01*
X0053678Y0104969D01*
X0053680Y0104971D01*
X0053702Y0104993D01*
X0053724Y0105013D01*
X0053749Y0105030D01*
X0053774Y0105045D01*
X0053820Y0105067D01*
X0053867Y0105082D01*
X0053906Y0105092D01*
X0053924Y0105094D01*
X0053936Y0105096D01*
X0053948Y0105099D01*
X0053966Y0105099D01*
X0053997Y0105096D01*
X0054027Y0105094D01*
X0054081Y0105079D01*
X0054130Y0105060D01*
X0054172Y0105035D01*
X0054204Y0105010D01*
X0054231Y0104991D01*
X0054239Y0104983D01*
X0054246Y0104976D01*
X0054248Y0104974D01*
X0054251Y0104971D01*
X0054271Y0104946D01*
X0054288Y0104917D01*
X0054317Y0104858D01*
X0054337Y0104794D01*
X0054349Y0104735D01*
X0054354Y0104705D01*
X0054359Y0104678D01*
X0054362Y0104656D01*
X0054362Y0104634D01*
X0054364Y0104619D01*
X0054364Y0104604D01*
X0054364Y0104597D01*
X0054364Y0104595D01*
X0054362Y0104550D01*
X0054359Y0104509D01*
X0054354Y0104469D01*
X0054347Y0104432D01*
X0054337Y0104398D01*
X0054327Y0104368D01*
X0054317Y0104339D01*
X0054308Y0104314D01*
X0054298Y0104292D01*
X0054288Y0104272D01*
X0054278Y0104255D01*
X0054268Y0104243D01*
X0054261Y0104233D01*
X0054256Y0104223D01*
X0054251Y0104221D01*
X0054251Y0104218D01*
X0054229Y0104196D01*
X0054204Y0104174D01*
X0054182Y0104157D01*
X0054157Y0104142D01*
X0054111Y0104120D01*
X0054064Y0104105D01*
X0054025Y0104095D01*
X0054007Y0104093D01*
X0053993Y0104090D01*
X0053983Y0104088D01*
D02*
G37*
G36*
X0065808Y0100127D02*
X0065796Y0100127D01*
X0065769Y0100129D01*
X0065745Y0100134D01*
X0065722Y0100143D01*
X0065701Y0100150D01*
X0065688Y0100159D01*
X0065674Y0100169D01*
X0065667Y0100174D01*
X0065664Y0100176D01*
X0065643Y0100197D01*
X0065625Y0100225D01*
X0065609Y0100255D01*
X0065595Y0100287D01*
X0065583Y0100317D01*
X0065576Y0100340D01*
X0065574Y0100350D01*
X0065572Y0100357D01*
X0065569Y0100361D01*
X0065569Y0100364D01*
X0065562Y0100394D01*
X0065555Y0100426D01*
X0065551Y0100463D01*
X0065546Y0100505D01*
X0065539Y0100589D01*
X0065534Y0100675D01*
X0065532Y0100716D01*
X0065532Y0100754D01*
X0065530Y0100791D01*
X0065530Y0100821D01*
X0065530Y0100846D01*
X0065530Y0100865D01*
X0065530Y0100876D01*
X0065530Y0100881D01*
X0065530Y0100948D01*
X0065532Y0101013D01*
X0065534Y0101071D01*
X0065537Y0101125D01*
X0065539Y0101173D01*
X0065544Y0101218D01*
X0065548Y0101257D01*
X0065551Y0101292D01*
X0065555Y0101322D01*
X0065560Y0101347D01*
X0065565Y0101368D01*
X0065567Y0101387D01*
X0065569Y0101401D01*
X0065572Y0101410D01*
X0065574Y0101415D01*
X0065574Y0101417D01*
X0065588Y0101459D01*
X0065602Y0101496D01*
X0065616Y0101524D01*
X0065632Y0101547D01*
X0065643Y0101566D01*
X0065655Y0101577D01*
X0065662Y0101584D01*
X0065664Y0101586D01*
X0065688Y0101603D01*
X0065708Y0101614D01*
X0065732Y0101621D01*
X0065752Y0101626D01*
X0065771Y0101630D01*
X0065785Y0101633D01*
X0065796Y0101633D01*
X0065824Y0101630D01*
X0065848Y0101626D01*
X0065871Y0101619D01*
X0065889Y0101609D01*
X0065906Y0101600D01*
X0065919Y0101593D01*
X0065927Y0101589D01*
X0065929Y0101586D01*
X0065950Y0101566D01*
X0065968Y0101538D01*
X0065984Y0101507D01*
X0065998Y0101475D01*
X0066010Y0101447D01*
X0066017Y0101424D01*
X0066019Y0101415D01*
X0066022Y0101408D01*
X0066024Y0101403D01*
X0066024Y0101401D01*
X0066031Y0101371D01*
X0066035Y0101338D01*
X0066040Y0101301D01*
X0066045Y0101259D01*
X0066052Y0101173D01*
X0066056Y0101088D01*
X0066059Y0101046D01*
X0066059Y0101009D01*
X0066059Y0100974D01*
X0066061Y0100941D01*
X0066061Y0100916D01*
X0066061Y0100897D01*
X0066061Y0100886D01*
X0066061Y0100881D01*
X0066061Y0100814D01*
X0066059Y0100751D01*
X0066056Y0100691D01*
X0066054Y0100640D01*
X0066052Y0100591D01*
X0066047Y0100547D01*
X0066045Y0100507D01*
X0066040Y0100473D01*
X0066035Y0100443D01*
X0066033Y0100415D01*
X0066029Y0100394D01*
X0066026Y0100375D01*
X0066024Y0100361D01*
X0066022Y0100352D01*
X0066019Y0100348D01*
X0066019Y0100345D01*
X0066005Y0100303D01*
X0065991Y0100266D01*
X0065975Y0100238D01*
X0065961Y0100215D01*
X0065950Y0100197D01*
X0065938Y0100185D01*
X0065931Y0100178D01*
X0065929Y0100176D01*
X0065906Y0100159D01*
X0065885Y0100148D01*
X0065862Y0100139D01*
X0065841Y0100134D01*
X0065822Y0100129D01*
X0065808Y0100127D01*
D02*
G37*
%LPD*%
D26*
X0040414Y0110571D02*
X0076240Y0110571D01*
X0040414Y0098367D02*
X0076240Y0098367D01*
X0040414Y0110571D02*
X0040414Y0106634D01*
X0059326Y0104607D02*
X0062278Y0104607D01*
D27*
X0069941Y0101910D02*
X0069941Y0099548D01*
X0063604Y0106245D02*
X0063604Y0106638D01*
X0065573Y0106241D02*
X0065573Y0106634D01*
X0054882Y0101910D02*
X0054882Y0099548D01*
X0046516Y0101910D02*
X0046516Y0099548D01*
X0046126Y0105650D02*
X0046520Y0105650D01*
X0046122Y0103682D02*
X0046516Y0103682D01*
X0069941Y0109193D02*
X0069941Y0106831D01*
X0054489Y0109193D02*
X0054882Y0109193D01*
X0054484Y0107225D02*
X0054878Y0107225D01*
X0069351Y0105593D02*
X0069744Y0105593D01*
X0069347Y0103624D02*
X0069740Y0103624D01*
X0046118Y0107225D02*
X0046512Y0107225D01*
X0046122Y0109193D02*
X0046516Y0109193D01*
M02*
