G75*
G70*
%OFA0B0*%
%FSLAX25Y25*%
%IPPOS*%
%LPD*%
%AMOC8*
5,1,8,0,0,1.08239X$1,22.5*
%
%AMM13*
21,1,0.023620,0.018900,0.000000,-0.000000,180.000000*
21,1,0.018900,0.023620,0.000000,-0.000000,180.000000*
1,1,0.004720,-0.009450,-0.009450*
1,1,0.004720,0.009450,-0.009450*
1,1,0.004720,0.009450,0.009450*
1,1,0.004720,-0.009450,0.009450*
%
%AMM14*
21,1,0.019680,0.019680,0.000000,-0.000000,270.000000*
21,1,0.015750,0.023620,0.000000,-0.000000,270.000000*
1,1,0.003940,-0.009840,0.007870*
1,1,0.003940,-0.009840,-0.007870*
1,1,0.003940,0.009840,-0.007870*
1,1,0.003940,0.009840,0.007870*
%
%AMM15*
21,1,0.033470,0.026770,0.000000,-0.000000,270.000000*
21,1,0.026770,0.033470,0.000000,-0.000000,270.000000*
1,1,0.006690,-0.013390,0.013390*
1,1,0.006690,-0.013390,-0.013390*
1,1,0.006690,0.013390,-0.013390*
1,1,0.006690,0.013390,0.013390*
%
%AMM16*
21,1,0.019680,0.019680,0.000000,-0.000000,0.000000*
21,1,0.015750,0.023620,0.000000,-0.000000,0.000000*
1,1,0.003940,0.007870,0.009840*
1,1,0.003940,-0.007870,0.009840*
1,1,0.003940,-0.007870,-0.009840*
1,1,0.003940,0.007870,-0.009840*
%
%ADD10C,0.05512*%
%ADD11R,0.02559X0.07874*%
%ADD12R,0.31890X0.17717*%
%ADD13R,0.06024X0.06024*%
%ADD14C,0.06024*%
%ADD15C,0.02362*%
%ADD16O,0.00787X0.04823*%
%ADD17O,0.36614X0.00787*%
%ADD18C,0.03150*%
%ADD19C,0.03937*%
%ADD20C,0.01181*%
%ADD26C,0.00787*%
%ADD31C,0.01575*%
%ADD44M13*%
%ADD45M14*%
%ADD46M15*%
%ADD47M16*%
X0000000Y0000000D02*
%LPD*%
G01*
G36*
G01*
X0103406Y0012165D02*
X0101240Y0012165D01*
G75*
G02*
X0100453Y0012953I0000000J0000787D01*
G01*
X0100453Y0014528D01*
G75*
G02*
X0101240Y0015315I0000787J0000000D01*
G01*
X0103406Y0015315D01*
G75*
G02*
X0104193Y0014528I0000000J-000787D01*
G01*
X0104193Y0012953D01*
G75*
G02*
X0103406Y0012165I-000787J0000000D01*
G01*
G37*
G36*
G01*
X0103406Y0018661D02*
X0101240Y0018661D01*
G75*
G02*
X0100453Y0019449I0000000J0000787D01*
G01*
X0100453Y0021024D01*
G75*
G02*
X0101240Y0021811I0000787J0000000D01*
G01*
X0103406Y0021811D01*
G75*
G02*
X0104193Y0021024I0000000J-000787D01*
G01*
X0104193Y0019449D01*
G75*
G02*
X0103406Y0018661I-000787J0000000D01*
G01*
G37*
D10*
X0029508Y0119035D03*
G36*
G01*
X0018602Y0090906D02*
X0022343Y0090906D01*
G75*
G02*
X0023327Y0089921I0000000J-000984D01*
G01*
X0023327Y0087953D01*
G75*
G02*
X0022343Y0086969I-000984J0000000D01*
G01*
X0018602Y0086969D01*
G75*
G02*
X0017618Y0087953I0000000J0000984D01*
G01*
X0017618Y0089921D01*
G75*
G02*
X0018602Y0090906I0000984J0000000D01*
G01*
G37*
G36*
G01*
X0018602Y0083425D02*
X0022343Y0083425D01*
G75*
G02*
X0023327Y0082441I0000000J-000984D01*
G01*
X0023327Y0080472D01*
G75*
G02*
X0022343Y0079488I-000984J0000000D01*
G01*
X0018602Y0079488D01*
G75*
G02*
X0017618Y0080472I0000000J0000984D01*
G01*
X0017618Y0082441D01*
G75*
G02*
X0018602Y0083425I0000984J0000000D01*
G01*
G37*
G36*
G01*
X0028248Y0065669D02*
X0024508Y0065669D01*
G75*
G02*
X0023524Y0066654I0000000J0000984D01*
G01*
X0023524Y0068622D01*
G75*
G02*
X0024508Y0069606I0000984J0000000D01*
G01*
X0028248Y0069606D01*
G75*
G02*
X0029232Y0068622I0000000J-000984D01*
G01*
X0029232Y0066654D01*
G75*
G02*
X0028248Y0065669I-000984J0000000D01*
G01*
G37*
G36*
G01*
X0028248Y0073150D02*
X0024508Y0073150D01*
G75*
G02*
X0023524Y0074134I0000000J0000984D01*
G01*
X0023524Y0076102D01*
G75*
G02*
X0024508Y0077087I0000984J0000000D01*
G01*
X0028248Y0077087D01*
G75*
G02*
X0029232Y0076102I0000000J-000984D01*
G01*
X0029232Y0074134D01*
G75*
G02*
X0028248Y0073150I-000984J0000000D01*
G01*
G37*
G36*
G01*
X0034980Y0090984D02*
X0038720Y0090984D01*
G75*
G02*
X0039705Y0090000I0000000J-000984D01*
G01*
X0039705Y0088031D01*
G75*
G02*
X0038720Y0087047I-000984J0000000D01*
G01*
X0034980Y0087047D01*
G75*
G02*
X0033996Y0088031I0000000J0000984D01*
G01*
X0033996Y0090000D01*
G75*
G02*
X0034980Y0090984I0000984J0000000D01*
G01*
G37*
G36*
G01*
X0034980Y0083504D02*
X0038720Y0083504D01*
G75*
G02*
X0039705Y0082520I0000000J-000984D01*
G01*
X0039705Y0080551D01*
G75*
G02*
X0038720Y0079567I-000984J0000000D01*
G01*
X0034980Y0079567D01*
G75*
G02*
X0033996Y0080551I0000000J0000984D01*
G01*
X0033996Y0082520D01*
G75*
G02*
X0034980Y0083504I0000984J0000000D01*
G01*
G37*
G36*
G01*
X0067087Y0085366D02*
X0067087Y0083201D01*
G75*
G02*
X0066299Y0082413I-000787J0000000D01*
G01*
X0064724Y0082413D01*
G75*
G02*
X0063937Y0083201I0000000J0000787D01*
G01*
X0063937Y0085366D01*
G75*
G02*
X0064724Y0086154I0000787J0000000D01*
G01*
X0066299Y0086154D01*
G75*
G02*
X0067087Y0085366I0000000J-000787D01*
G01*
G37*
G36*
G01*
X0060591Y0085366D02*
X0060591Y0083201D01*
G75*
G02*
X0059803Y0082413I-000787J0000000D01*
G01*
X0058228Y0082413D01*
G75*
G02*
X0057441Y0083201I0000000J0000787D01*
G01*
X0057441Y0085366D01*
G75*
G02*
X0058228Y0086154I0000787J0000000D01*
G01*
X0059803Y0086154D01*
G75*
G02*
X0060591Y0085366I0000000J-000787D01*
G01*
G37*
G36*
G01*
X0055087Y0085366D02*
X0055087Y0083201D01*
G75*
G02*
X0054299Y0082413I-000787J0000000D01*
G01*
X0052724Y0082413D01*
G75*
G02*
X0051937Y0083201I0000000J0000787D01*
G01*
X0051937Y0085366D01*
G75*
G02*
X0052724Y0086154I0000787J0000000D01*
G01*
X0054299Y0086154D01*
G75*
G02*
X0055087Y0085366I0000000J-000787D01*
G01*
G37*
G36*
G01*
X0048591Y0085366D02*
X0048591Y0083201D01*
G75*
G02*
X0047803Y0082413I-000787J0000000D01*
G01*
X0046228Y0082413D01*
G75*
G02*
X0045441Y0083201I0000000J0000787D01*
G01*
X0045441Y0085366D01*
G75*
G02*
X0046228Y0086154I0000787J0000000D01*
G01*
X0047803Y0086154D01*
G75*
G02*
X0048591Y0085366I0000000J-000787D01*
G01*
G37*
G36*
G01*
X0047087Y0040610D02*
X0049252Y0040610D01*
G75*
G02*
X0050039Y0039823I0000000J-000787D01*
G01*
X0050039Y0038248D01*
G75*
G02*
X0049252Y0037461I-000787J0000000D01*
G01*
X0047087Y0037461D01*
G75*
G02*
X0046299Y0038248I0000000J0000787D01*
G01*
X0046299Y0039823D01*
G75*
G02*
X0047087Y0040610I0000787J0000000D01*
G01*
G37*
G36*
G01*
X0047087Y0034114D02*
X0049252Y0034114D01*
G75*
G02*
X0050039Y0033327I0000000J-000787D01*
G01*
X0050039Y0031752D01*
G75*
G02*
X0049252Y0030965I-000787J0000000D01*
G01*
X0047087Y0030965D01*
G75*
G02*
X0046299Y0031752I0000000J0000787D01*
G01*
X0046299Y0033327D01*
G75*
G02*
X0047087Y0034114I0000787J0000000D01*
G01*
G37*
G36*
G01*
X0083012Y0066142D02*
X0079272Y0066142D01*
G75*
G02*
X0078287Y0067126I0000000J0000984D01*
G01*
X0078287Y0069094D01*
G75*
G02*
X0079272Y0070079I0000984J0000000D01*
G01*
X0083012Y0070079D01*
G75*
G02*
X0083996Y0069094I0000000J-000984D01*
G01*
X0083996Y0067126D01*
G75*
G02*
X0083012Y0066142I-000984J0000000D01*
G01*
G37*
G36*
G01*
X0083012Y0073622D02*
X0079272Y0073622D01*
G75*
G02*
X0078287Y0074606I0000000J0000984D01*
G01*
X0078287Y0076575D01*
G75*
G02*
X0079272Y0077559I0000984J0000000D01*
G01*
X0083012Y0077559D01*
G75*
G02*
X0083996Y0076575I0000000J-000984D01*
G01*
X0083996Y0074606D01*
G75*
G02*
X0083012Y0073622I-000984J0000000D01*
G01*
G37*
X0029508Y0104547D03*
G36*
G01*
X0048730Y0044094D02*
X0047844Y0044094D01*
G75*
G02*
X0047402Y0044537I0000000J0000443D01*
G01*
X0047402Y0046014D01*
G75*
G02*
X0047844Y0046457I0000443J0000000D01*
G01*
X0048730Y0046457D01*
G75*
G02*
X0049173Y0046014I0000000J-000443D01*
G01*
X0049173Y0044537D01*
G75*
G02*
X0048730Y0044094I-000443J0000000D01*
G01*
G37*
G36*
G01*
X0048730Y0052362D02*
X0047844Y0052362D01*
G75*
G02*
X0047402Y0052805I0000000J0000443D01*
G01*
X0047402Y0054281D01*
G75*
G02*
X0047844Y0054724I0000443J0000000D01*
G01*
X0048730Y0054724D01*
G75*
G02*
X0049173Y0054281I0000000J-000443D01*
G01*
X0049173Y0052805D01*
G75*
G02*
X0048730Y0052362I-000443J0000000D01*
G01*
G37*
G36*
G01*
X0037333Y0027559D02*
X0038219Y0027559D01*
G75*
G02*
X0038661Y0027116I0000000J-000443D01*
G01*
X0038661Y0025640D01*
G75*
G02*
X0038219Y0025197I-000443J0000000D01*
G01*
X0037333Y0025197D01*
G75*
G02*
X0036890Y0025640I0000000J0000443D01*
G01*
X0036890Y0027116D01*
G75*
G02*
X0037333Y0027559I0000443J0000000D01*
G01*
G37*
G36*
G01*
X0037333Y0019291D02*
X0038219Y0019291D01*
G75*
G02*
X0038661Y0018848I0000000J-000443D01*
G01*
X0038661Y0017372D01*
G75*
G02*
X0038219Y0016929I-000443J0000000D01*
G01*
X0037333Y0016929D01*
G75*
G02*
X0036890Y0017372I0000000J0000443D01*
G01*
X0036890Y0018848D01*
G75*
G02*
X0037333Y0019291I0000443J0000000D01*
G01*
G37*
G36*
G01*
X0084272Y0014016D02*
X0084272Y0012047D01*
G75*
G02*
X0083386Y0011161I-000886J0000000D01*
G01*
X0081614Y0011161D01*
G75*
G02*
X0080728Y0012047I0000000J0000886D01*
G01*
X0080728Y0014016D01*
G75*
G02*
X0081614Y0014902I0000886J0000000D01*
G01*
X0083386Y0014902D01*
G75*
G02*
X0084272Y0014016I0000000J-000886D01*
G01*
G37*
G36*
G01*
X0078169Y0014016D02*
X0078169Y0012047D01*
G75*
G02*
X0077283Y0011161I-000886J0000000D01*
G01*
X0075512Y0011161D01*
G75*
G02*
X0074626Y0012047I0000000J0000886D01*
G01*
X0074626Y0014016D01*
G75*
G02*
X0075512Y0014902I0000886J0000000D01*
G01*
X0077283Y0014902D01*
G75*
G02*
X0078169Y0014016I0000000J-000886D01*
G01*
G37*
X0086594Y0108406D03*
G36*
G01*
X0028602Y0054035D02*
X0030571Y0054035D01*
G75*
G02*
X0031457Y0053150I0000000J-000886D01*
G01*
X0031457Y0051378D01*
G75*
G02*
X0030571Y0050492I-000886J0000000D01*
G01*
X0028602Y0050492D01*
G75*
G02*
X0027717Y0051378I0000000J0000886D01*
G01*
X0027717Y0053150D01*
G75*
G02*
X0028602Y0054035I0000886J0000000D01*
G01*
G37*
G36*
G01*
X0028602Y0047933D02*
X0030571Y0047933D01*
G75*
G02*
X0031457Y0047047I0000000J-000886D01*
G01*
X0031457Y0045276D01*
G75*
G02*
X0030571Y0044390I-000886J0000000D01*
G01*
X0028602Y0044390D01*
G75*
G02*
X0027717Y0045276I0000000J0000886D01*
G01*
X0027717Y0047047D01*
G75*
G02*
X0028602Y0047933I0000886J0000000D01*
G01*
G37*
X0086594Y0123445D03*
G36*
G01*
X0026752Y0091024D02*
X0030492Y0091024D01*
G75*
G02*
X0031476Y0090039I0000000J-000984D01*
G01*
X0031476Y0088071D01*
G75*
G02*
X0030492Y0087087I-000984J0000000D01*
G01*
X0026752Y0087087D01*
G75*
G02*
X0025768Y0088071I0000000J0000984D01*
G01*
X0025768Y0090039D01*
G75*
G02*
X0026752Y0091024I0000984J0000000D01*
G01*
G37*
G36*
G01*
X0026752Y0083543D02*
X0030492Y0083543D01*
G75*
G02*
X0031476Y0082559I0000000J-000984D01*
G01*
X0031476Y0080591D01*
G75*
G02*
X0030492Y0079606I-000984J0000000D01*
G01*
X0026752Y0079606D01*
G75*
G02*
X0025768Y0080591I0000000J0000984D01*
G01*
X0025768Y0082559D01*
G75*
G02*
X0026752Y0083543I0000984J0000000D01*
G01*
G37*
G36*
G01*
X0038179Y0031024D02*
X0037293Y0031024D01*
G75*
G02*
X0036850Y0031467I0000000J0000443D01*
G01*
X0036850Y0032943D01*
G75*
G02*
X0037293Y0033386I0000443J0000000D01*
G01*
X0038179Y0033386D01*
G75*
G02*
X0038622Y0032943I0000000J-000443D01*
G01*
X0038622Y0031467D01*
G75*
G02*
X0038179Y0031024I-000443J0000000D01*
G01*
G37*
G36*
G01*
X0038179Y0039291D02*
X0037293Y0039291D01*
G75*
G02*
X0036850Y0039734I0000000J0000443D01*
G01*
X0036850Y0041211D01*
G75*
G02*
X0037293Y0041654I0000443J0000000D01*
G01*
X0038179Y0041654D01*
G75*
G02*
X0038622Y0041211I0000000J-000443D01*
G01*
X0038622Y0039734D01*
G75*
G02*
X0038179Y0039291I-000443J0000000D01*
G01*
G37*
X0020295Y0017795D03*
D11*
X0096004Y0058937D03*
X0092067Y0058937D03*
X0088130Y0058937D03*
X0084193Y0058937D03*
X0080256Y0058937D03*
X0076319Y0058937D03*
X0076319Y0021142D03*
X0080256Y0021142D03*
X0084193Y0021142D03*
X0088130Y0021142D03*
X0092067Y0021142D03*
X0096004Y0021142D03*
D12*
X0086161Y0040039D03*
G36*
G01*
X0052933Y0065669D02*
X0049193Y0065669D01*
G75*
G02*
X0048209Y0066654I0000000J0000984D01*
G01*
X0048209Y0068622D01*
G75*
G02*
X0049193Y0069606I0000984J0000000D01*
G01*
X0052933Y0069606D01*
G75*
G02*
X0053917Y0068622I0000000J-000984D01*
G01*
X0053917Y0066654D01*
G75*
G02*
X0052933Y0065669I-000984J0000000D01*
G01*
G37*
G36*
G01*
X0052933Y0073150D02*
X0049193Y0073150D01*
G75*
G02*
X0048209Y0074134I0000000J0000984D01*
G01*
X0048209Y0076102D01*
G75*
G02*
X0049193Y0077087I0000984J0000000D01*
G01*
X0052933Y0077087D01*
G75*
G02*
X0053917Y0076102I0000000J-000984D01*
G01*
X0053917Y0074134D01*
G75*
G02*
X0052933Y0073150I-000984J0000000D01*
G01*
G37*
G36*
G01*
X0067992Y0063307D02*
X0069961Y0063307D01*
G75*
G02*
X0070846Y0062421I0000000J-000886D01*
G01*
X0070846Y0060650D01*
G75*
G02*
X0069961Y0059764I-000886J0000000D01*
G01*
X0067992Y0059764D01*
G75*
G02*
X0067106Y0060650I0000000J0000886D01*
G01*
X0067106Y0062421D01*
G75*
G02*
X0067992Y0063307I0000886J0000000D01*
G01*
G37*
G36*
G01*
X0067992Y0057205D02*
X0069961Y0057205D01*
G75*
G02*
X0070846Y0056319I0000000J-000886D01*
G01*
X0070846Y0054547D01*
G75*
G02*
X0069961Y0053661I-000886J0000000D01*
G01*
X0067992Y0053661D01*
G75*
G02*
X0067106Y0054547I0000000J0000886D01*
G01*
X0067106Y0056319D01*
G75*
G02*
X0067992Y0057205I0000886J0000000D01*
G01*
G37*
G36*
G01*
X0036476Y0065630D02*
X0032736Y0065630D01*
G75*
G02*
X0031752Y0066614I0000000J0000984D01*
G01*
X0031752Y0068583D01*
G75*
G02*
X0032736Y0069567I0000984J0000000D01*
G01*
X0036476Y0069567D01*
G75*
G02*
X0037461Y0068583I0000000J-000984D01*
G01*
X0037461Y0066614D01*
G75*
G02*
X0036476Y0065630I-000984J0000000D01*
G01*
G37*
G36*
G01*
X0036476Y0073110D02*
X0032736Y0073110D01*
G75*
G02*
X0031752Y0074094I0000000J0000984D01*
G01*
X0031752Y0076063D01*
G75*
G02*
X0032736Y0077047I0000984J0000000D01*
G01*
X0036476Y0077047D01*
G75*
G02*
X0037461Y0076063I0000000J-000984D01*
G01*
X0037461Y0074094D01*
G75*
G02*
X0036476Y0073110I-000984J0000000D01*
G01*
G37*
G36*
G01*
X0049193Y0005059D02*
X0047224Y0005059D01*
G75*
G02*
X0046339Y0005945I0000000J0000886D01*
G01*
X0046339Y0007717D01*
G75*
G02*
X0047224Y0008602I0000886J0000000D01*
G01*
X0049193Y0008602D01*
G75*
G02*
X0050079Y0007717I0000000J-000886D01*
G01*
X0050079Y0005945D01*
G75*
G02*
X0049193Y0005059I-000886J0000000D01*
G01*
G37*
G36*
G01*
X0049193Y0011161D02*
X0047224Y0011161D01*
G75*
G02*
X0046339Y0012047I0000000J0000886D01*
G01*
X0046339Y0013819D01*
G75*
G02*
X0047224Y0014705I0000886J0000000D01*
G01*
X0049193Y0014705D01*
G75*
G02*
X0050079Y0013819I0000000J-000886D01*
G01*
X0050079Y0012047D01*
G75*
G02*
X0049193Y0011161I-000886J0000000D01*
G01*
G37*
G36*
G01*
X0049252Y0017874D02*
X0047087Y0017874D01*
G75*
G02*
X0046299Y0018661I0000000J0000787D01*
G01*
X0046299Y0020236D01*
G75*
G02*
X0047087Y0021024I0000787J0000000D01*
G01*
X0049252Y0021024D01*
G75*
G02*
X0050039Y0020236I0000000J-000787D01*
G01*
X0050039Y0018661D01*
G75*
G02*
X0049252Y0017874I-000787J0000000D01*
G01*
G37*
G36*
G01*
X0049252Y0024370D02*
X0047087Y0024370D01*
G75*
G02*
X0046299Y0025157I0000000J0000787D01*
G01*
X0046299Y0026732D01*
G75*
G02*
X0047087Y0027520I0000787J0000000D01*
G01*
X0049252Y0027520D01*
G75*
G02*
X0050039Y0026732I0000000J-000787D01*
G01*
X0050039Y0025157D01*
G75*
G02*
X0049252Y0024370I-000787J0000000D01*
G01*
G37*
G36*
G01*
X0044705Y0065669D02*
X0040965Y0065669D01*
G75*
G02*
X0039980Y0066654I0000000J0000984D01*
G01*
X0039980Y0068622D01*
G75*
G02*
X0040965Y0069606I0000984J0000000D01*
G01*
X0044705Y0069606D01*
G75*
G02*
X0045689Y0068622I0000000J-000984D01*
G01*
X0045689Y0066654D01*
G75*
G02*
X0044705Y0065669I-000984J0000000D01*
G01*
G37*
G36*
G01*
X0044705Y0073150D02*
X0040965Y0073150D01*
G75*
G02*
X0039980Y0074134I0000000J0000984D01*
G01*
X0039980Y0076102D01*
G75*
G02*
X0040965Y0077087I0000984J0000000D01*
G01*
X0044705Y0077087D01*
G75*
G02*
X0045689Y0076102I0000000J-000984D01*
G01*
X0045689Y0074134D01*
G75*
G02*
X0044705Y0073150I-000984J0000000D01*
G01*
G37*
G36*
G01*
X0037451Y0014016D02*
X0038337Y0014016D01*
G75*
G02*
X0038780Y0013573I0000000J-000443D01*
G01*
X0038780Y0012096D01*
G75*
G02*
X0038337Y0011654I-000443J0000000D01*
G01*
X0037451Y0011654D01*
G75*
G02*
X0037008Y0012096I0000000J0000443D01*
G01*
X0037008Y0013573D01*
G75*
G02*
X0037451Y0014016I0000443J0000000D01*
G01*
G37*
G36*
G01*
X0037451Y0005748D02*
X0038337Y0005748D01*
G75*
G02*
X0038780Y0005305I0000000J-000443D01*
G01*
X0038780Y0003829D01*
G75*
G02*
X0038337Y0003386I-000443J0000000D01*
G01*
X0037451Y0003386D01*
G75*
G02*
X0037008Y0003829I0000000J0000443D01*
G01*
X0037008Y0005305D01*
G75*
G02*
X0037451Y0005748I0000443J0000000D01*
G01*
G37*
D10*
X0062067Y0092283D03*
G36*
G01*
X0045441Y0089299D02*
X0045441Y0091268D01*
G75*
G02*
X0046327Y0092154I0000886J0000000D01*
G01*
X0048098Y0092154D01*
G75*
G02*
X0048984Y0091268I0000000J-000886D01*
G01*
X0048984Y0089299D01*
G75*
G02*
X0048098Y0088413I-000886J0000000D01*
G01*
X0046327Y0088413D01*
G75*
G02*
X0045441Y0089299I0000000J0000886D01*
G01*
G37*
G36*
G01*
X0051543Y0089299D02*
X0051543Y0091268D01*
G75*
G02*
X0052429Y0092154I0000886J0000000D01*
G01*
X0054201Y0092154D01*
G75*
G02*
X0055087Y0091268I0000000J-000886D01*
G01*
X0055087Y0089299D01*
G75*
G02*
X0054201Y0088413I-000886J0000000D01*
G01*
X0052429Y0088413D01*
G75*
G02*
X0051543Y0089299I0000000J0000886D01*
G01*
G37*
G36*
G01*
X0036535Y0053996D02*
X0038701Y0053996D01*
G75*
G02*
X0039488Y0053209I0000000J-000787D01*
G01*
X0039488Y0051634D01*
G75*
G02*
X0038701Y0050846I-000787J0000000D01*
G01*
X0036535Y0050846D01*
G75*
G02*
X0035748Y0051634I0000000J0000787D01*
G01*
X0035748Y0053209D01*
G75*
G02*
X0036535Y0053996I0000787J0000000D01*
G01*
G37*
G36*
G01*
X0036535Y0047500D02*
X0038701Y0047500D01*
G75*
G02*
X0039488Y0046713I0000000J-000787D01*
G01*
X0039488Y0045138D01*
G75*
G02*
X0038701Y0044350I-000787J0000000D01*
G01*
X0036535Y0044350D01*
G75*
G02*
X0035748Y0045138I0000000J0000787D01*
G01*
X0035748Y0046713D01*
G75*
G02*
X0036535Y0047500I0000787J0000000D01*
G01*
G37*
G36*
G01*
X0102598Y0067382D02*
X0100630Y0067382D01*
G75*
G02*
X0099744Y0068268I0000000J0000886D01*
G01*
X0099744Y0070039D01*
G75*
G02*
X0100630Y0070925I0000886J0000000D01*
G01*
X0102598Y0070925D01*
G75*
G02*
X0103484Y0070039I0000000J-000886D01*
G01*
X0103484Y0068268D01*
G75*
G02*
X0102598Y0067382I-000886J0000000D01*
G01*
G37*
G36*
G01*
X0102598Y0073484D02*
X0100630Y0073484D01*
G75*
G02*
X0099744Y0074370I0000000J0000886D01*
G01*
X0099744Y0076142D01*
G75*
G02*
X0100630Y0077028I0000886J0000000D01*
G01*
X0102598Y0077028D01*
G75*
G02*
X0103484Y0076142I0000000J-000886D01*
G01*
X0103484Y0074370D01*
G75*
G02*
X0102598Y0073484I-000886J0000000D01*
G01*
G37*
G36*
G01*
X0074783Y0066181D02*
X0071043Y0066181D01*
G75*
G02*
X0070059Y0067165I0000000J0000984D01*
G01*
X0070059Y0069134D01*
G75*
G02*
X0071043Y0070118I0000984J0000000D01*
G01*
X0074783Y0070118D01*
G75*
G02*
X0075768Y0069134I0000000J-000984D01*
G01*
X0075768Y0067165D01*
G75*
G02*
X0074783Y0066181I-000984J0000000D01*
G01*
G37*
G36*
G01*
X0074783Y0073661D02*
X0071043Y0073661D01*
G75*
G02*
X0070059Y0074646I0000000J0000984D01*
G01*
X0070059Y0076614D01*
G75*
G02*
X0071043Y0077598I0000984J0000000D01*
G01*
X0074783Y0077598D01*
G75*
G02*
X0075768Y0076614I0000000J-000984D01*
G01*
X0075768Y0074646D01*
G75*
G02*
X0074783Y0073661I-000984J0000000D01*
G01*
G37*
G36*
G01*
X0030315Y0004232D02*
X0028150Y0004232D01*
G75*
G02*
X0027362Y0005020I0000000J0000787D01*
G01*
X0027362Y0006594D01*
G75*
G02*
X0028150Y0007382I0000787J0000000D01*
G01*
X0030315Y0007382D01*
G75*
G02*
X0031102Y0006594I0000000J-000787D01*
G01*
X0031102Y0005020D01*
G75*
G02*
X0030315Y0004232I-000787J0000000D01*
G01*
G37*
G36*
G01*
X0030315Y0010728D02*
X0028150Y0010728D01*
G75*
G02*
X0027362Y0011516I0000000J0000787D01*
G01*
X0027362Y0013091D01*
G75*
G02*
X0028150Y0013878I0000787J0000000D01*
G01*
X0030315Y0013878D01*
G75*
G02*
X0031102Y0013091I0000000J-000787D01*
G01*
X0031102Y0011516D01*
G75*
G02*
X0030315Y0010728I-000787J0000000D01*
G01*
G37*
G36*
G01*
X0096083Y0066457D02*
X0092343Y0066457D01*
G75*
G02*
X0091358Y0067441I0000000J0000984D01*
G01*
X0091358Y0069409D01*
G75*
G02*
X0092343Y0070394I0000984J0000000D01*
G01*
X0096083Y0070394D01*
G75*
G02*
X0097067Y0069409I0000000J-000984D01*
G01*
X0097067Y0067441D01*
G75*
G02*
X0096083Y0066457I-000984J0000000D01*
G01*
G37*
G36*
G01*
X0096083Y0073937D02*
X0092343Y0073937D01*
G75*
G02*
X0091358Y0074921I0000000J0000984D01*
G01*
X0091358Y0076890D01*
G75*
G02*
X0092343Y0077874I0000984J0000000D01*
G01*
X0096083Y0077874D01*
G75*
G02*
X0097067Y0076890I0000000J-000984D01*
G01*
X0097067Y0074921D01*
G75*
G02*
X0096083Y0073937I-000984J0000000D01*
G01*
G37*
X0020413Y0046693D03*
D13*
X0061161Y0075039D03*
D14*
X0061161Y0065039D03*
X0061161Y0055039D03*
X0061161Y0045039D03*
X0061161Y0035039D03*
X0061161Y0025039D03*
X0061161Y0015039D03*
X0061161Y0005039D03*
X0111161Y0005039D03*
X0111161Y0015039D03*
X0111161Y0025039D03*
X0111161Y0035039D03*
X0111161Y0045039D03*
X0111161Y0055039D03*
X0111161Y0065039D03*
X0111161Y0075039D03*
D15*
X0075157Y0115551D03*
D16*
X0040118Y0123327D03*
D17*
X0058031Y0125394D03*
X0058031Y0113189D03*
D15*
X0075157Y0119291D03*
X0075157Y0123032D03*
X0040906Y0119095D03*
X0040906Y0115551D03*
X0075453Y0100728D03*
D16*
X0040413Y0108504D03*
D17*
X0058327Y0110571D03*
X0058327Y0098366D03*
D15*
X0075453Y0104469D03*
X0075453Y0108209D03*
X0041201Y0104272D03*
X0041201Y0100728D03*
D18*
X0068937Y0055394D03*
X0080197Y0057323D03*
X0082756Y0039724D03*
X0079252Y0032835D03*
X0072205Y0046890D03*
X0086299Y0036339D03*
X0072126Y0032598D03*
X0079252Y0039803D03*
X0026339Y0067598D03*
X0034646Y0067402D03*
X0096693Y0040039D03*
X0100276Y0043661D03*
X0088150Y0020945D03*
X0094331Y0068307D03*
X0093268Y0032992D03*
X0072165Y0036063D03*
X0075709Y0032717D03*
X0089724Y0036339D03*
X0101575Y0069016D03*
X0089724Y0032874D03*
X0079291Y0043307D03*
X0073031Y0067992D03*
X0093228Y0046890D03*
X0082717Y0046654D03*
X0071102Y0111929D03*
X0084291Y0020866D03*
X0100236Y0036654D03*
X0100236Y0040157D03*
X0100236Y0033189D03*
X0079213Y0046732D03*
X0082795Y0043228D03*
X0043307Y0111890D03*
X0084134Y0051142D03*
X0072205Y0039646D03*
X0067047Y0049094D03*
X0075709Y0036181D03*
X0051055Y0067803D03*
X0093268Y0036457D03*
X0082756Y0036220D03*
X0079252Y0036299D03*
X0086260Y0046772D03*
X0095472Y0027756D03*
X0100197Y0047087D03*
X0089764Y0043346D03*
X0089685Y0046772D03*
X0096654Y0046969D03*
X0096693Y0036535D03*
X0089724Y0039843D03*
X0069882Y0096417D03*
X0072244Y0043228D03*
X0054213Y0096378D03*
X0057953Y0111811D03*
X0096732Y0043543D03*
X0082756Y0032756D03*
X0093268Y0039961D03*
X0075709Y0039685D03*
X0093307Y0043465D03*
X0086299Y0039843D03*
X0082559Y0013071D03*
X0080354Y0020748D03*
X0076260Y0027717D03*
X0075669Y0046614D03*
X0075748Y0043189D03*
X0086339Y0043346D03*
X0086299Y0032874D03*
X0042874Y0067638D03*
X0081339Y0067992D03*
X0096693Y0033071D03*
X0100591Y0052717D03*
D18*
X0073346Y0036063D02*
X0072677Y0035394D01*
D19*
X0055394Y0011969D02*
X0058563Y0008799D01*
X0051063Y0067638D02*
X0051063Y0064811D01*
X0069567Y0064803D02*
X0065709Y0064803D01*
X0087393Y0050127D02*
X0097056Y0050127D01*
X0034409Y0067638D02*
X0034646Y0067402D01*
D18*
X0085344Y0015876D02*
X0082559Y0013091D01*
X0072638Y0030472D02*
X0074724Y0028386D01*
D19*
X0036850Y0089016D02*
X0020551Y0089016D01*
D18*
X0099606Y0031339D02*
X0096339Y0028071D01*
X0080335Y0027067D02*
X0080335Y0021142D01*
X0096181Y0028228D02*
X0095945Y0028228D01*
X0076161Y0031240D02*
X0080335Y0027067D01*
X0093012Y0040335D02*
X0088130Y0035453D01*
X0082559Y0013091D02*
X0082559Y0013071D01*
X0098937Y0042323D02*
X0100276Y0043661D01*
X0084469Y0020866D02*
X0085344Y0019990D01*
X0084764Y0027677D02*
X0084193Y0021142D01*
X0098937Y0045000D02*
X0098937Y0046260D01*
X0088130Y0020925D02*
X0088130Y0018661D01*
X0084193Y0021811D02*
X0080335Y0025669D01*
D19*
X0064646Y0009173D02*
X0065276Y0008543D01*
D18*
X0080335Y0025669D02*
X0080335Y0021142D01*
X0085344Y0019990D02*
X0085344Y0015876D01*
X0095472Y0027756D02*
X0095000Y0028228D01*
D19*
X0061161Y0008799D02*
X0061181Y0008819D01*
X0083819Y0050827D02*
X0084134Y0051142D01*
D18*
X0074724Y0028386D02*
X0075669Y0027441D01*
D19*
X0047165Y0052421D02*
X0048287Y0053543D01*
D18*
X0093228Y0028189D02*
X0093228Y0032756D01*
X0084291Y0021043D02*
X0084291Y0020866D01*
D19*
X0061161Y0065039D02*
X0064665Y0068543D01*
D18*
X0084193Y0033996D02*
X0085079Y0033701D01*
D19*
X0061161Y0065039D02*
X0065472Y0065039D01*
X0072520Y0068543D02*
X0072913Y0068150D01*
X0055394Y0010807D02*
X0055394Y0011969D01*
X0100984Y0068425D02*
X0101575Y0069016D01*
D18*
X0084193Y0021142D02*
X0084193Y0031516D01*
X0082500Y0013031D02*
X0080335Y0015197D01*
X0088130Y0030866D02*
X0088130Y0028228D01*
X0082756Y0008976D02*
X0084567Y0008976D01*
X0085344Y0013071D02*
X0085344Y0015876D01*
D19*
X0051063Y0064811D02*
X0051055Y0064803D01*
D18*
X0088130Y0018661D02*
X0085344Y0015876D01*
X0080335Y0021142D02*
X0088130Y0021142D01*
D19*
X0037461Y0052264D02*
X0037618Y0052421D01*
D18*
X0093268Y0028228D02*
X0093228Y0028189D01*
X0093012Y0040335D02*
X0094921Y0042244D01*
X0072244Y0043228D02*
X0072205Y0039646D01*
D19*
X0051063Y0067638D02*
X0058563Y0067638D01*
D18*
X0099606Y0033307D02*
X0100236Y0033189D01*
D19*
X0073031Y0067992D02*
X0075925Y0065098D01*
D18*
X0088150Y0020945D02*
X0088150Y0024291D01*
X0080335Y0027067D02*
X0080335Y0025669D01*
X0094921Y0042244D02*
X0100236Y0040157D01*
X0080354Y0020748D02*
X0080827Y0020276D01*
X0072638Y0031240D02*
X0072638Y0032087D01*
X0088150Y0020945D02*
X0088150Y0015876D01*
D19*
X0065709Y0064803D02*
X0068976Y0061535D01*
X0084449Y0050827D02*
X0086693Y0050827D01*
D18*
X0082500Y0013031D02*
X0082500Y0019449D01*
X0098937Y0042244D02*
X0098937Y0042323D01*
X0075551Y0068110D02*
X0081142Y0068110D01*
X0072165Y0034882D02*
X0072165Y0036063D01*
X0076260Y0027717D02*
X0076535Y0027441D01*
D19*
X0072677Y0067638D02*
X0073031Y0067992D01*
X0047213Y0084480D02*
X0047016Y0084283D01*
X0061161Y0005039D02*
X0055394Y0010807D01*
X0047016Y0084283D02*
X0042283Y0089016D01*
D18*
X0080827Y0008976D02*
X0082756Y0008976D01*
D19*
X0051055Y0067803D02*
X0051063Y0067638D01*
D18*
X0093228Y0028189D02*
X0093189Y0028228D01*
X0098937Y0046260D02*
X0099409Y0046732D01*
D19*
X0084134Y0051142D02*
X0084449Y0050827D01*
X0068307Y0049646D02*
X0067047Y0049094D01*
D18*
X0099409Y0046732D02*
X0097441Y0046732D01*
D19*
X0073602Y0061654D02*
X0076003Y0059253D01*
D18*
X0095945Y0028228D02*
X0095472Y0027756D01*
X0072205Y0046890D02*
X0071299Y0046890D01*
D19*
X0021819Y0090283D02*
X0020472Y0088937D01*
D18*
X0087677Y0030591D02*
X0084764Y0027677D01*
X0080335Y0020768D02*
X0080335Y0021142D01*
X0080354Y0020748D02*
X0080335Y0020768D01*
D19*
X0073031Y0065591D02*
X0068976Y0061535D01*
X0036654Y0005807D02*
X0037894Y0004567D01*
D18*
X0100236Y0033189D02*
X0099606Y0031339D01*
D19*
X0067047Y0049094D02*
X0068307Y0047165D01*
D18*
X0098583Y0033307D02*
X0095866Y0030591D01*
D19*
X0034646Y0067402D02*
X0034882Y0067638D01*
X0074685Y0052638D02*
X0071693Y0049646D01*
D18*
X0076319Y0058937D02*
X0073720Y0061535D01*
X0079961Y0027441D02*
X0080335Y0027067D01*
X0084567Y0008976D02*
X0085344Y0009754D01*
X0088130Y0020965D02*
X0088150Y0020945D01*
X0078406Y0068110D02*
X0081142Y0068110D01*
D19*
X0076142Y0050827D02*
X0072205Y0046890D01*
D18*
X0078031Y0031240D02*
X0072638Y0031240D01*
D19*
X0073031Y0067992D02*
X0073031Y0065591D01*
D18*
X0100236Y0040157D02*
X0098937Y0042244D01*
D19*
X0068307Y0047165D02*
X0072244Y0043228D01*
D18*
X0082559Y0013071D02*
X0082539Y0013071D01*
X0068976Y0061535D02*
X0075551Y0068110D01*
D19*
X0058563Y0067638D02*
X0061161Y0065039D01*
X0020551Y0089016D02*
X0020472Y0088937D01*
X0061181Y0008819D02*
X0064291Y0008819D01*
D18*
X0072638Y0033110D02*
X0072638Y0035354D01*
X0084193Y0021142D02*
X0084193Y0021811D01*
X0082539Y0013071D02*
X0082500Y0013031D01*
X0072126Y0032598D02*
X0072638Y0033110D01*
D19*
X0047213Y0090283D02*
X0021819Y0090283D01*
X0071693Y0049646D02*
X0068307Y0049646D01*
X0064291Y0008819D02*
X0064646Y0009173D01*
D18*
X0072205Y0039646D02*
X0072244Y0040591D01*
X0084764Y0027677D02*
X0084941Y0027677D01*
D19*
X0065472Y0065039D02*
X0065709Y0064803D01*
D18*
X0072205Y0045984D02*
X0072205Y0046890D01*
X0082756Y0008976D02*
X0082756Y0012874D01*
D19*
X0072913Y0068150D02*
X0069567Y0064803D01*
D18*
X0072638Y0031240D02*
X0072638Y0030472D01*
D19*
X0051291Y0065039D02*
X0051063Y0064811D01*
D18*
X0068976Y0061535D02*
X0054323Y0061535D01*
X0084941Y0027677D02*
X0088130Y0030866D01*
D19*
X0064665Y0068543D02*
X0072520Y0068543D01*
X0034882Y0067638D02*
X0042874Y0067638D01*
X0037894Y0004567D02*
X0045945Y0004567D01*
X0057126Y0003563D02*
X0057126Y0008228D01*
D18*
X0095866Y0030591D02*
X0087677Y0030591D01*
D19*
X0074685Y0066378D02*
X0074685Y0052638D01*
D18*
X0080354Y0020748D02*
X0080354Y0028976D01*
D19*
X0058563Y0008799D02*
X0061161Y0008799D01*
D18*
X0095000Y0028228D02*
X0093268Y0028228D01*
X0076535Y0027441D02*
X0077480Y0027441D01*
X0088150Y0015876D02*
X0085344Y0013071D01*
X0080335Y0020728D02*
X0080354Y0020748D01*
D19*
X0073602Y0067421D02*
X0073602Y0061654D01*
X0075925Y0065098D02*
X0075925Y0058937D01*
X0072913Y0068150D02*
X0074685Y0066378D01*
X0100096Y0047087D02*
X0100197Y0047087D01*
D18*
X0084193Y0021142D02*
X0084291Y0021043D01*
D19*
X0051063Y0067638D02*
X0072677Y0067638D01*
D18*
X0088130Y0021142D02*
X0078031Y0031240D01*
X0072047Y0046142D02*
X0072205Y0045984D01*
X0077480Y0027441D02*
X0079961Y0027441D01*
D19*
X0073031Y0067992D02*
X0073602Y0067421D01*
X0078661Y0050827D02*
X0083819Y0050827D01*
D18*
X0088130Y0021142D02*
X0088130Y0020965D01*
X0099606Y0033307D02*
X0098583Y0033307D01*
X0075669Y0027441D02*
X0075984Y0027441D01*
X0088130Y0021142D02*
X0088130Y0028228D01*
X0082500Y0019449D02*
X0084193Y0021142D01*
X0075984Y0027441D02*
X0076260Y0027717D01*
D19*
X0078661Y0050827D02*
X0076142Y0050827D01*
D18*
X0085344Y0009754D02*
X0085344Y0013071D01*
D19*
X0065276Y0008543D02*
X0065276Y0003701D01*
X0074685Y0052638D02*
X0076496Y0050827D01*
D18*
X0071299Y0046890D02*
X0084193Y0033996D01*
D19*
X0058701Y0001988D02*
X0057126Y0003563D01*
D18*
X0076319Y0058937D02*
X0076319Y0066024D01*
D19*
X0065276Y0003701D02*
X0063563Y0001988D01*
D18*
X0093583Y0047067D02*
X0093012Y0046496D01*
X0080335Y0015197D02*
X0080335Y0020728D01*
D19*
X0097056Y0050127D02*
X0100096Y0047087D01*
X0076496Y0050827D02*
X0078661Y0050827D01*
X0042283Y0089016D02*
X0036850Y0089016D01*
D18*
X0100276Y0043661D02*
X0098937Y0045000D01*
X0085079Y0033701D02*
X0084764Y0027677D01*
D19*
X0029232Y0005807D02*
X0036654Y0005807D01*
X0086693Y0050827D02*
X0087393Y0050127D01*
X0026378Y0067638D02*
X0026339Y0067598D01*
D18*
X0092717Y0027677D02*
X0093228Y0028189D01*
X0084764Y0027677D02*
X0092717Y0027677D01*
D19*
X0063563Y0001988D02*
X0058701Y0001988D01*
X0026339Y0067598D02*
X0034409Y0067638D01*
D18*
X0080827Y0020276D02*
X0080827Y0008976D01*
X0084291Y0020866D02*
X0084469Y0020866D01*
X0084193Y0031516D02*
X0099409Y0046732D01*
X0072638Y0031240D02*
X0076161Y0031240D01*
X0093189Y0028228D02*
X0088130Y0028228D01*
X0073720Y0061535D02*
X0068976Y0061535D01*
X0072638Y0035354D02*
X0072165Y0034882D01*
X0080354Y0028976D02*
X0085079Y0033701D01*
D19*
X0042874Y0067638D02*
X0051063Y0067638D01*
D18*
X0088150Y0020945D02*
X0088130Y0020925D01*
X0088150Y0024291D02*
X0084764Y0027677D01*
X0072244Y0043189D02*
X0072244Y0043228D01*
X0072165Y0036063D02*
X0073346Y0036063D01*
D19*
X0094213Y0068425D02*
X0100984Y0068425D01*
X0061161Y0065039D02*
X0051291Y0065039D01*
D18*
X0082756Y0012874D02*
X0082559Y0013071D01*
X0093228Y0032756D02*
X0093661Y0033189D01*
X0054323Y0061535D02*
X0051055Y0064803D01*
X0088130Y0035453D02*
X0088130Y0030866D01*
D19*
X0045945Y0004567D02*
X0048209Y0006831D01*
D18*
X0076319Y0066024D02*
X0078406Y0068110D01*
D19*
X0029587Y0052264D02*
X0037461Y0052264D01*
D18*
X0072638Y0032087D02*
X0072126Y0032598D01*
D19*
X0037618Y0052421D02*
X0047165Y0052421D01*
X0047213Y0090283D02*
X0047213Y0084480D01*
D18*
X0096339Y0028071D02*
X0096181Y0028228D01*
X0076398Y0021063D02*
X0076319Y0021142D01*
X0076398Y0013031D02*
X0076398Y0021063D01*
X0067854Y0029606D02*
X0076319Y0021142D01*
X0061161Y0045039D02*
X0067854Y0038346D01*
X0067854Y0038346D02*
X0067854Y0029606D01*
D20*
X0103051Y0005039D02*
X0111161Y0005039D01*
X0098593Y0010010D02*
X0098593Y0009498D01*
X0092067Y0021142D02*
X0092067Y0016024D01*
X0092067Y0016024D02*
X0098593Y0009498D01*
X0098593Y0009498D02*
X0103051Y0005039D01*
X0102323Y0013740D02*
X0098593Y0010010D01*
X0103543Y0028681D02*
X0103543Y0057421D01*
X0096004Y0021142D02*
X0103543Y0028681D01*
X0103543Y0057421D02*
X0111161Y0065039D01*
X0061161Y0015039D02*
X0053209Y0022992D01*
X0053209Y0022992D02*
X0041161Y0022992D01*
X0111161Y0055039D02*
X0111161Y0045039D01*
X0041161Y0022992D02*
X0037776Y0026378D01*
X0037736Y0032205D02*
X0037736Y0026417D01*
X0092067Y0058937D02*
X0092067Y0053819D01*
X0099685Y0053622D02*
X0100591Y0052717D01*
X0105512Y0023425D02*
X0105512Y0039390D01*
X0092264Y0053622D02*
X0099685Y0053622D01*
X0102323Y0020236D02*
X0105512Y0023425D01*
X0105512Y0039390D02*
X0111161Y0045039D01*
X0037736Y0026417D02*
X0037776Y0026378D01*
X0092067Y0053819D02*
X0092264Y0053622D01*
D19*
X0028622Y0081575D02*
X0028622Y0077362D01*
X0061083Y0075118D02*
X0061161Y0075039D01*
X0028622Y0081575D02*
X0032598Y0081575D01*
X0072323Y0075039D02*
X0072913Y0075630D01*
X0036850Y0077323D02*
X0034606Y0075079D01*
X0094862Y0075256D02*
X0094213Y0075906D01*
D18*
X0084193Y0058937D02*
X0084193Y0063574D01*
D19*
X0032598Y0081575D02*
X0036850Y0077323D01*
X0051063Y0075118D02*
X0054409Y0075118D01*
X0036850Y0081535D02*
X0036850Y0077323D01*
X0051063Y0075118D02*
X0026378Y0075118D01*
X0061161Y0075039D02*
X0072323Y0075039D01*
D18*
X0084193Y0063574D02*
X0086614Y0065996D01*
D19*
X0036850Y0081102D02*
X0042835Y0075118D01*
X0101614Y0075256D02*
X0094862Y0075256D01*
X0072913Y0075630D02*
X0081102Y0075630D01*
X0020472Y0081457D02*
X0023110Y0081457D01*
X0020472Y0081457D02*
X0036772Y0081457D01*
X0086614Y0075591D02*
X0093898Y0075591D01*
X0036772Y0081457D02*
X0036850Y0081535D01*
X0023110Y0081457D02*
X0027913Y0076654D01*
X0028622Y0081063D02*
X0034606Y0075079D01*
X0081142Y0075591D02*
X0086614Y0075591D01*
X0027913Y0076654D02*
X0026378Y0075118D01*
X0054409Y0075118D02*
X0061083Y0075118D01*
X0036850Y0081535D02*
X0036850Y0081102D01*
X0028622Y0081575D02*
X0028622Y0081063D01*
X0036850Y0081535D02*
X0043268Y0075118D01*
X0020472Y0081457D02*
X0020472Y0081024D01*
X0028622Y0077362D02*
X0027913Y0076654D01*
X0081102Y0075630D02*
X0081142Y0075591D01*
X0043268Y0075118D02*
X0054409Y0075118D01*
X0093898Y0075591D02*
X0094213Y0075906D01*
X0020472Y0081024D02*
X0026378Y0075118D01*
D18*
X0086614Y0065996D02*
X0086614Y0075591D01*
D20*
X0046732Y0040472D02*
X0048169Y0039035D01*
X0037618Y0045925D02*
X0041280Y0045925D01*
X0037382Y0046161D02*
X0037618Y0045925D01*
X0020413Y0046693D02*
X0025571Y0041535D01*
X0037736Y0040472D02*
X0037736Y0045807D01*
X0036673Y0041535D02*
X0037736Y0040472D01*
X0029055Y0046693D02*
X0029587Y0046161D01*
X0029587Y0046161D02*
X0037382Y0046161D01*
X0020413Y0046693D02*
X0029055Y0046693D01*
X0029587Y0046161D02*
X0032047Y0046161D01*
X0037618Y0045925D02*
X0047638Y0045925D01*
X0047638Y0045925D02*
X0048287Y0045276D01*
X0025571Y0041535D02*
X0036673Y0041535D01*
X0048169Y0045157D02*
X0048287Y0045276D01*
X0041280Y0045925D02*
X0048169Y0039035D01*
X0037736Y0045807D02*
X0037618Y0045925D01*
X0048169Y0039035D02*
X0048169Y0045157D01*
X0042539Y0045276D02*
X0037736Y0040472D01*
X0048287Y0045276D02*
X0042539Y0045276D01*
X0037736Y0040472D02*
X0046732Y0040472D01*
X0032047Y0046161D02*
X0037736Y0040472D01*
X0096004Y0058937D02*
X0096004Y0059882D01*
X0103898Y0063425D02*
X0106535Y0066063D01*
X0106535Y0070413D02*
X0111161Y0075039D01*
X0096004Y0059882D02*
X0099547Y0063425D01*
X0106535Y0066063D02*
X0106535Y0070413D01*
X0099547Y0063425D02*
X0103898Y0063425D01*
X0029232Y0012303D02*
X0037362Y0012303D01*
X0023740Y0017795D02*
X0029232Y0012303D01*
X0020295Y0017795D02*
X0023740Y0017795D01*
X0048169Y0012972D02*
X0048209Y0012933D01*
X0046831Y0018110D02*
X0048169Y0019449D01*
X0037461Y0017795D02*
X0020295Y0017795D01*
X0031969Y0012303D02*
X0037776Y0018110D01*
X0037362Y0012303D02*
X0037894Y0012835D01*
X0037776Y0018110D02*
X0046831Y0018110D01*
X0037776Y0018110D02*
X0037461Y0017795D01*
X0037776Y0012953D02*
X0037894Y0012835D01*
X0043031Y0018110D02*
X0048209Y0012933D01*
X0041555Y0012835D02*
X0037894Y0012835D01*
X0037894Y0012835D02*
X0048110Y0012835D01*
X0029232Y0012303D02*
X0031969Y0012303D01*
X0037776Y0018110D02*
X0043031Y0018110D01*
X0037776Y0018110D02*
X0037776Y0012953D01*
X0048110Y0012835D02*
X0048209Y0012933D01*
X0048169Y0019449D02*
X0041555Y0012835D01*
X0048169Y0019449D02*
X0048169Y0012972D01*
X0050669Y0035039D02*
X0061161Y0035039D01*
X0048169Y0032539D02*
X0050669Y0035039D01*
X0048169Y0025945D02*
X0049075Y0025039D01*
X0049075Y0025039D02*
X0061161Y0025039D01*
X0077638Y0100728D02*
X0077854Y0100728D01*
X0077008Y0102283D02*
X0075453Y0100728D01*
X0075453Y0100728D02*
X0078484Y0100728D01*
X0078858Y0104134D02*
X0078858Y0112781D01*
X0079016Y0102283D02*
X0077008Y0102283D01*
X0075453Y0100728D02*
X0076260Y0101535D01*
X0075453Y0100728D02*
X0078701Y0103976D01*
X0065512Y0088839D02*
X0062067Y0092283D01*
X0077638Y0102598D02*
X0077638Y0101535D01*
X0077854Y0100728D02*
X0079016Y0101890D01*
X0079016Y0100197D02*
X0079016Y0101890D01*
X0078484Y0100728D02*
X0079016Y0100197D01*
X0079016Y0101890D02*
X0079016Y0102283D01*
X0079016Y0098636D02*
X0079016Y0100197D01*
X0076260Y0101535D02*
X0077638Y0101535D01*
X0076088Y0115551D02*
X0075157Y0115551D01*
X0079016Y0103976D02*
X0077638Y0102598D01*
X0075453Y0100728D02*
X0076924Y0100728D01*
X0062067Y0092283D02*
X0072663Y0092283D01*
X0075453Y0100728D02*
X0077638Y0100728D01*
X0079016Y0103976D02*
X0078858Y0104134D01*
X0078858Y0112781D02*
X0076088Y0115551D01*
X0079016Y0102283D02*
X0079016Y0103976D01*
X0077638Y0101535D02*
X0077638Y0100728D01*
X0076924Y0100728D02*
X0079016Y0098636D01*
X0078701Y0103976D02*
X0079016Y0103976D01*
X0065512Y0084283D02*
X0065512Y0088839D01*
X0072663Y0092283D02*
X0079016Y0098636D01*
X0040906Y0115551D02*
X0039235Y0115551D01*
X0037598Y0113914D02*
X0037598Y0102874D01*
X0041201Y0100728D02*
X0039193Y0100728D01*
X0059016Y0084283D02*
X0053512Y0084283D01*
X0039744Y0100728D02*
X0041201Y0100728D01*
X0037598Y0102874D02*
X0037598Y0101378D01*
X0038248Y0100728D02*
X0037598Y0101378D01*
X0053315Y0090283D02*
X0053315Y0089984D01*
X0039235Y0115551D02*
X0037598Y0113914D01*
X0041201Y0100728D02*
X0038248Y0100728D01*
X0053315Y0090283D02*
X0053315Y0084480D01*
X0037598Y0102874D02*
X0039744Y0100728D01*
X0037874Y0099409D02*
X0037874Y0098400D01*
X0053315Y0084480D02*
X0053512Y0084283D01*
X0053315Y0089984D02*
X0059016Y0084283D01*
X0039193Y0100728D02*
X0037874Y0099409D01*
X0047004Y0096594D02*
X0053315Y0090283D01*
X0039680Y0096594D02*
X0047004Y0096594D01*
X0037598Y0101378D02*
X0037598Y0099685D01*
X0037598Y0099685D02*
X0037874Y0099409D01*
X0037874Y0098400D02*
X0039680Y0096594D01*
X0029508Y0119035D02*
X0040846Y0119035D01*
X0040846Y0119035D02*
X0040906Y0119095D01*
X0075157Y0123032D02*
X0086181Y0123032D01*
X0086181Y0123032D02*
X0086594Y0123445D01*
G36*
X0116073Y0133503D02*
G01*
X0116253Y0133295D01*
X0116297Y0133092D01*
X0116264Y0088879D01*
X0116258Y0080040D01*
X0116258Y0077996D01*
X0116180Y0077732D01*
X0115972Y0077551D01*
X0115700Y0077512D01*
X0115450Y0077627D01*
X0115370Y0077716D01*
X0115327Y0077776D01*
X0114993Y0078254D01*
X0114376Y0078871D01*
X0113662Y0079371D01*
X0113473Y0079459D01*
X0112872Y0079739D01*
X0112872Y0079739D01*
X0112030Y0079965D01*
X0112030Y0079965D01*
X0111161Y0080041D01*
X0111161Y0080041D01*
X0110293Y0079965D01*
X0110293Y0079965D01*
X0109451Y0079739D01*
X0109451Y0079739D01*
X0108661Y0079371D01*
X0108661Y0079371D01*
X0107947Y0078871D01*
X0107330Y0078254D01*
X0106830Y0077540D01*
X0106830Y0077540D01*
X0106462Y0076750D01*
X0106462Y0076750D01*
X0106389Y0076479D01*
X0106246Y0076244D01*
X0105999Y0076124D01*
X0105725Y0076156D01*
X0105513Y0076332D01*
X0105432Y0076556D01*
X0105415Y0076723D01*
X0105205Y0077357D01*
X0105205Y0077357D01*
X0105205Y0077357D01*
X0104854Y0077925D01*
X0104854Y0077925D01*
X0104382Y0078398D01*
X0104382Y0078398D01*
X0103814Y0078748D01*
X0103814Y0078748D01*
X0103814Y0078748D01*
X0103814Y0078748D01*
X0103180Y0078958D01*
X0102986Y0078978D01*
X0102843Y0079015D01*
X0102799Y0079034D01*
X0102015Y0079195D01*
X0098112Y0079195D01*
X0097856Y0079268D01*
X0097340Y0079586D01*
X0097340Y0079586D01*
X0097340Y0079586D01*
X0096684Y0079803D01*
X0096684Y0079803D01*
X0096280Y0079844D01*
X0096280Y0079844D01*
X0094372Y0079844D01*
X0094353Y0079845D01*
X0094112Y0079864D01*
X0094112Y0079864D01*
X0094049Y0079856D01*
X0093975Y0079852D01*
X0093912Y0079853D01*
X0093912Y0079853D01*
X0093905Y0079852D01*
X0093819Y0079844D01*
X0092146Y0079844D01*
X0092146Y0079844D01*
X0091741Y0079803D01*
X0091741Y0079803D01*
X0091254Y0079642D01*
X0091085Y0079586D01*
X0091085Y0079586D01*
X0091085Y0079586D01*
X0091063Y0079575D01*
X0090856Y0079530D01*
X0081778Y0079530D01*
X0081760Y0079530D01*
X0081666Y0079537D01*
X0081635Y0079542D01*
X0081503Y0079569D01*
X0081503Y0079569D01*
X0081261Y0079569D01*
X0081243Y0079570D01*
X0081221Y0079571D01*
X0081002Y0079588D01*
X0080924Y0079578D01*
X0080868Y0079571D01*
X0080837Y0079569D01*
X0072963Y0079569D01*
X0072613Y0079578D01*
X0072613Y0079578D01*
X0072613Y0079578D01*
X0072613Y0079578D01*
X0072613Y0079578D01*
X0072606Y0079577D01*
X0072520Y0079569D01*
X0070846Y0079569D01*
X0070846Y0079569D01*
X0070442Y0079528D01*
X0070442Y0079528D01*
X0069786Y0079310D01*
X0069786Y0079310D01*
X0069366Y0079051D01*
X0069109Y0078978D01*
X0066185Y0078978D01*
X0065921Y0079056D01*
X0065794Y0079174D01*
X0065581Y0079459D01*
X0065441Y0079564D01*
X0065276Y0079784D01*
X0065256Y0080058D01*
X0065388Y0080300D01*
X0065629Y0080432D01*
X0065733Y0080443D01*
X0066522Y0080443D01*
X0066522Y0080443D01*
X0066800Y0080468D01*
X0067439Y0080667D01*
X0068013Y0081014D01*
X0068486Y0081487D01*
X0068833Y0082061D01*
X0069032Y0082700D01*
X0069057Y0082978D01*
X0069057Y0085589D01*
X0069032Y0085867D01*
X0068833Y0086506D01*
X0068486Y0087079D01*
X0068486Y0087079D01*
X0068486Y0087079D01*
X0068216Y0087350D01*
X0068084Y0087591D01*
X0068073Y0087695D01*
X0068073Y0088502D01*
X0068080Y0088565D01*
X0068079Y0088565D01*
X0068082Y0088596D01*
X0068082Y0088596D01*
X0068073Y0088879D01*
X0068073Y0089000D01*
X0068069Y0089028D01*
X0068067Y0089051D01*
X0068062Y0089219D01*
X0068131Y0089485D01*
X0068333Y0089672D01*
X0068550Y0089722D01*
X0072326Y0089722D01*
X0072389Y0089715D01*
X0072389Y0089716D01*
X0072420Y0089714D01*
X0072420Y0089714D01*
X0072703Y0089722D01*
X0072824Y0089722D01*
X0072853Y0089726D01*
X0072876Y0089728D01*
X0073067Y0089734D01*
X0073147Y0089757D01*
X0073222Y0089773D01*
X0073305Y0089783D01*
X0073483Y0089854D01*
X0073504Y0089861D01*
X0073688Y0089914D01*
X0073760Y0089957D01*
X0073829Y0089991D01*
X0073907Y0090021D01*
X0074061Y0090134D01*
X0074080Y0090146D01*
X0074245Y0090244D01*
X0074304Y0090303D01*
X0074362Y0090353D01*
X0074430Y0090402D01*
X0074552Y0090549D01*
X0074567Y0090566D01*
X0080589Y0096587D01*
X0080638Y0096627D01*
X0080638Y0096628D01*
X0080685Y0096667D01*
X0080685Y0096666D01*
X0080700Y0096679D01*
X0080700Y0096680D01*
X0080723Y0096700D01*
X0080732Y0096710D01*
X0080879Y0096877D01*
X0080889Y0096888D01*
X0080941Y0096939D01*
X0080958Y0096962D01*
X0080973Y0096979D01*
X0081104Y0097119D01*
X0081104Y0097119D01*
X0081122Y0097144D01*
X0081123Y0097143D01*
X0081134Y0097159D01*
X0081133Y0097160D01*
X0081151Y0097185D01*
X0081151Y0097185D01*
X0081151Y0097185D01*
X0081167Y0097217D01*
X0081216Y0097294D01*
X0081238Y0097322D01*
X0081314Y0097498D01*
X0081324Y0097518D01*
X0081416Y0097686D01*
X0081416Y0097686D01*
X0081427Y0097715D01*
X0081428Y0097714D01*
X0081435Y0097733D01*
X0081434Y0097733D01*
X0081445Y0097762D01*
X0081452Y0097796D01*
X0081481Y0097884D01*
X0081495Y0097916D01*
X0081525Y0098105D01*
X0081529Y0098127D01*
X0081577Y0098313D01*
X0081577Y0098313D01*
X0081581Y0098343D01*
X0081582Y0098343D01*
X0081584Y0098363D01*
X0081583Y0098363D01*
X0081586Y0098393D01*
X0081586Y0098393D01*
X0081585Y0098429D01*
X0081590Y0098520D01*
X0081596Y0098555D01*
X0081578Y0098746D01*
X0081577Y0098769D01*
X0081577Y0099860D01*
X0081584Y0099923D01*
X0081583Y0099923D01*
X0081586Y0099954D01*
X0081586Y0099954D01*
X0081577Y0100237D01*
X0081577Y0100358D01*
X0081577Y0101650D01*
X0081583Y0101726D01*
X0081596Y0101809D01*
X0081581Y0101962D01*
X0081588Y0102099D01*
X0081592Y0102121D01*
X0081577Y0102356D01*
X0081577Y0102372D01*
X0081577Y0103640D01*
X0081584Y0103703D01*
X0081583Y0103703D01*
X0081589Y0103764D01*
X0081590Y0103764D01*
X0081591Y0103784D01*
X0081590Y0103784D01*
X0081594Y0103845D01*
X0081595Y0103845D01*
X0081596Y0103865D01*
X0081595Y0103865D01*
X0081596Y0103895D01*
X0081596Y0103895D01*
X0081578Y0104086D01*
X0081577Y0104109D01*
X0081577Y0104137D01*
X0081577Y0104138D01*
X0081573Y0104166D01*
X0081571Y0104189D01*
X0081565Y0104380D01*
X0081565Y0104380D01*
X0081561Y0104411D01*
X0081561Y0104411D01*
X0081558Y0104430D01*
X0081557Y0104430D01*
X0081546Y0104490D01*
X0081547Y0104490D01*
X0081543Y0104510D01*
X0081542Y0104510D01*
X0081528Y0104569D01*
X0081529Y0104570D01*
X0081525Y0104589D01*
X0081524Y0104589D01*
X0081516Y0104618D01*
X0081516Y0104618D01*
X0081514Y0104622D01*
X0081454Y0104776D01*
X0081419Y0104956D01*
X0081419Y0106120D01*
X0081497Y0106384D01*
X0081705Y0106564D01*
X0081977Y0106603D01*
X0082227Y0106489D01*
X0082344Y0106337D01*
X0082559Y0105907D01*
X0082559Y0105907D01*
X0083087Y0105208D01*
X0083734Y0104618D01*
X0083734Y0104618D01*
X0084479Y0104157D01*
X0084479Y0104157D01*
X0084479Y0104157D01*
X0085296Y0103840D01*
X0086157Y0103679D01*
X0086157Y0103679D01*
X0087032Y0103679D01*
X0087032Y0103679D01*
X0087893Y0103840D01*
X0088710Y0104157D01*
X0089455Y0104618D01*
X0090102Y0105208D01*
X0090630Y0105907D01*
X0091021Y0106691D01*
X0091260Y0107533D01*
X0091341Y0108406D01*
X0091305Y0108796D01*
X0091260Y0109278D01*
X0091260Y0109278D01*
X0091021Y0110120D01*
X0091021Y0110120D01*
X0091021Y0110120D01*
X0090630Y0110904D01*
X0090630Y0110904D01*
X0090102Y0111603D01*
X0089455Y0112193D01*
X0089455Y0112193D01*
X0088710Y0112655D01*
X0088710Y0112655D01*
X0087893Y0112971D01*
X0087032Y0113132D01*
X0086157Y0113132D01*
X0085296Y0112971D01*
X0084909Y0112821D01*
X0084479Y0112655D01*
X0084479Y0112655D01*
X0083734Y0112193D01*
X0083734Y0112193D01*
X0083087Y0111603D01*
X0082559Y0110904D01*
X0082559Y0110904D01*
X0082344Y0110474D01*
X0082157Y0110272D01*
X0081891Y0110204D01*
X0081630Y0110290D01*
X0081457Y0110504D01*
X0081419Y0110691D01*
X0081419Y0112444D01*
X0081426Y0112508D01*
X0081425Y0112508D01*
X0081428Y0112538D01*
X0081428Y0112538D01*
X0081419Y0112821D01*
X0081419Y0112942D01*
X0081416Y0112971D01*
X0081414Y0112994D01*
X0081411Y0113072D01*
X0081408Y0113185D01*
X0081385Y0113265D01*
X0081369Y0113340D01*
X0081359Y0113423D01*
X0081288Y0113601D01*
X0081281Y0113623D01*
X0081231Y0113794D01*
X0081227Y0113806D01*
X0081185Y0113878D01*
X0081151Y0113947D01*
X0081132Y0113996D01*
X0081120Y0114025D01*
X0081008Y0114179D01*
X0080995Y0114199D01*
X0080898Y0114363D01*
X0080898Y0114363D01*
X0080839Y0114422D01*
X0080789Y0114481D01*
X0080740Y0114548D01*
X0080593Y0114670D01*
X0080576Y0114686D01*
X0078137Y0117124D01*
X0078097Y0117174D01*
X0078097Y0117173D01*
X0078077Y0117197D01*
X0077871Y0117391D01*
X0077785Y0117476D01*
X0077762Y0117494D01*
X0077745Y0117509D01*
X0077605Y0117640D01*
X0077605Y0117640D01*
X0077532Y0117680D01*
X0077468Y0117722D01*
X0077371Y0117797D01*
X0077348Y0117817D01*
X0077135Y0118031D01*
X0076534Y0118409D01*
X0076534Y0118409D01*
X0076272Y0118500D01*
X0076048Y0118661D01*
X0075947Y0118916D01*
X0075945Y0118961D01*
X0075945Y0119622D01*
X0076022Y0119886D01*
X0076230Y0120066D01*
X0076272Y0120082D01*
X0076534Y0120174D01*
X0076886Y0120396D01*
X0077146Y0120470D01*
X0082675Y0120470D01*
X0082939Y0120393D01*
X0083064Y0120276D01*
X0083087Y0120247D01*
X0083087Y0120247D01*
X0083734Y0119657D01*
X0083734Y0119657D01*
X0084479Y0119196D01*
X0084479Y0119196D01*
X0084479Y0119196D01*
X0085296Y0118879D01*
X0086157Y0118719D01*
X0086157Y0118719D01*
X0087032Y0118719D01*
X0087032Y0118719D01*
X0087893Y0118879D01*
X0088710Y0119196D01*
X0089455Y0119657D01*
X0090102Y0120247D01*
X0090630Y0120946D01*
X0091021Y0121730D01*
X0091260Y0122573D01*
X0091341Y0123445D01*
X0091260Y0124317D01*
X0091021Y0125160D01*
X0091021Y0125160D01*
X0090630Y0125944D01*
X0090630Y0125944D01*
X0090102Y0126643D01*
X0089455Y0127233D01*
X0089455Y0127233D01*
X0088710Y0127694D01*
X0088710Y0127694D01*
X0087893Y0128010D01*
X0087032Y0128171D01*
X0086157Y0128171D01*
X0085296Y0128010D01*
X0084779Y0127810D01*
X0084479Y0127694D01*
X0084479Y0127694D01*
X0083734Y0127233D01*
X0083734Y0127233D01*
X0083087Y0126643D01*
X0082695Y0126124D01*
X0082559Y0125944D01*
X0082519Y0125863D01*
X0082332Y0125661D01*
X0082082Y0125593D01*
X0077146Y0125593D01*
X0076886Y0125667D01*
X0076534Y0125889D01*
X0076534Y0125889D01*
X0075863Y0126123D01*
X0075863Y0126124D01*
X0075157Y0126203D01*
X0075157Y0126203D01*
X0074452Y0126124D01*
X0074452Y0126124D01*
X0073781Y0125889D01*
X0073180Y0125511D01*
X0073166Y0125500D01*
X0072912Y0125396D01*
X0072862Y0125394D01*
X0040118Y0125394D01*
X0040118Y0122504D01*
X0040041Y0122240D01*
X0039833Y0122060D01*
X0039791Y0122044D01*
X0039529Y0121952D01*
X0039529Y0121952D01*
X0039272Y0121790D01*
X0039087Y0121674D01*
X0039083Y0121671D01*
X0038823Y0121596D01*
X0033740Y0121596D01*
X0033476Y0121674D01*
X0033350Y0121790D01*
X0033228Y0121952D01*
X0033016Y0122233D01*
X0033016Y0122233D01*
X0033016Y0122233D01*
X0032368Y0122823D01*
X0032368Y0122823D01*
X0031624Y0123284D01*
X0031624Y0123284D01*
X0030807Y0123601D01*
X0029946Y0123762D01*
X0029070Y0123762D01*
X0028209Y0123601D01*
X0027692Y0123401D01*
X0027392Y0123284D01*
X0027392Y0123284D01*
X0026647Y0122823D01*
X0026647Y0122823D01*
X0026000Y0122233D01*
X0025472Y0121534D01*
X0025472Y0121534D01*
X0025082Y0120750D01*
X0025082Y0120750D01*
X0024842Y0119908D01*
X0024842Y0119908D01*
X0024761Y0119035D01*
X0024761Y0119035D01*
X0024842Y0118163D01*
X0024842Y0118163D01*
X0025082Y0117321D01*
X0025082Y0117321D01*
X0025472Y0116537D01*
X0025472Y0116537D01*
X0026000Y0115838D01*
X0026647Y0115248D01*
X0026647Y0115248D01*
X0027392Y0114786D01*
X0027392Y0114786D01*
X0027392Y0114786D01*
X0028209Y0114470D01*
X0029070Y0114309D01*
X0029070Y0114309D01*
X0029946Y0114309D01*
X0029946Y0114309D01*
X0030807Y0114470D01*
X0031624Y0114786D01*
X0032368Y0115248D01*
X0033016Y0115838D01*
X0033350Y0116280D01*
X0033571Y0116444D01*
X0033740Y0116474D01*
X0035358Y0116474D01*
X0035622Y0116397D01*
X0035802Y0116189D01*
X0035841Y0115917D01*
X0035727Y0115667D01*
X0035703Y0115641D01*
X0035674Y0115611D01*
X0035674Y0115611D01*
X0035656Y0115589D01*
X0035641Y0115571D01*
X0035510Y0115432D01*
X0035470Y0115358D01*
X0035428Y0115295D01*
X0035377Y0115228D01*
X0035377Y0115228D01*
X0035301Y0115053D01*
X0035290Y0115032D01*
X0035198Y0114865D01*
X0035198Y0114865D01*
X0035178Y0114784D01*
X0035153Y0114711D01*
X0035120Y0114635D01*
X0035090Y0114446D01*
X0035085Y0114423D01*
X0035037Y0114238D01*
X0035037Y0114154D01*
X0035031Y0114078D01*
X0035018Y0113996D01*
X0035029Y0113878D01*
X0035036Y0113805D01*
X0035037Y0113782D01*
X0035037Y0105883D01*
X0034960Y0105620D01*
X0034752Y0105439D01*
X0034480Y0105400D01*
X0034230Y0105515D01*
X0034081Y0105746D01*
X0034080Y0105750D01*
X0034042Y0105883D01*
X0033934Y0106262D01*
X0033934Y0106262D01*
X0033544Y0107046D01*
X0033544Y0107046D01*
X0033016Y0107745D01*
X0032368Y0108335D01*
X0032368Y0108335D01*
X0031624Y0108796D01*
X0031624Y0108796D01*
X0030807Y0109113D01*
X0029946Y0109274D01*
X0029070Y0109274D01*
X0028209Y0109113D01*
X0027692Y0108913D01*
X0027392Y0108796D01*
X0027392Y0108796D01*
X0026647Y0108335D01*
X0026647Y0108335D01*
X0026000Y0107745D01*
X0025472Y0107046D01*
X0025472Y0107046D01*
X0025082Y0106262D01*
X0025082Y0106262D01*
X0024842Y0105419D01*
X0024842Y0105419D01*
X0024761Y0104547D01*
X0024761Y0104547D01*
X0024842Y0103675D01*
X0024842Y0103675D01*
X0025082Y0102833D01*
X0025082Y0102833D01*
X0025472Y0102048D01*
X0025472Y0102048D01*
X0026000Y0101349D01*
X0026647Y0100759D01*
X0026647Y0100759D01*
X0027392Y0100298D01*
X0027392Y0100298D01*
X0027392Y0100298D01*
X0028209Y0099982D01*
X0029070Y0099821D01*
X0029070Y0099821D01*
X0029946Y0099821D01*
X0029946Y0099821D01*
X0030807Y0099982D01*
X0031624Y0100298D01*
X0032368Y0100759D01*
X0033016Y0101349D01*
X0033544Y0102048D01*
X0033934Y0102833D01*
X0034080Y0103345D01*
X0034226Y0103577D01*
X0034476Y0103694D01*
X0034748Y0103657D01*
X0034958Y0103478D01*
X0035037Y0103215D01*
X0035037Y0103211D01*
X0035037Y0103211D01*
X0035030Y0103148D01*
X0035031Y0103148D01*
X0035029Y0103117D01*
X0035037Y0102834D01*
X0035037Y0101715D01*
X0035030Y0101652D01*
X0035031Y0101651D01*
X0035029Y0101621D01*
X0035037Y0101338D01*
X0035037Y0100022D01*
X0035030Y0099959D01*
X0035031Y0099959D01*
X0035029Y0099928D01*
X0035029Y0099928D01*
X0035029Y0099914D01*
X0035037Y0099645D01*
X0035037Y0099524D01*
X0035037Y0099524D01*
X0035041Y0099495D01*
X0035043Y0099472D01*
X0035049Y0099281D01*
X0035049Y0099281D01*
X0035072Y0099201D01*
X0035088Y0099126D01*
X0035098Y0099043D01*
X0035098Y0099043D01*
X0035169Y0098865D01*
X0035176Y0098843D01*
X0035229Y0098660D01*
X0035229Y0098660D01*
X0035244Y0098635D01*
X0035312Y0098402D01*
X0035313Y0098360D01*
X0035313Y0098239D01*
X0035313Y0098239D01*
X0035317Y0098210D01*
X0035318Y0098187D01*
X0035324Y0097996D01*
X0035324Y0097996D01*
X0035348Y0097916D01*
X0035363Y0097841D01*
X0035374Y0097758D01*
X0035374Y0097758D01*
X0035444Y0097580D01*
X0035452Y0097558D01*
X0035505Y0097375D01*
X0035505Y0097375D01*
X0035547Y0097303D01*
X0035581Y0097234D01*
X0035588Y0097217D01*
X0035612Y0097156D01*
X0035724Y0097002D01*
X0035737Y0096983D01*
X0035834Y0096818D01*
X0035834Y0096818D01*
X0035893Y0096759D01*
X0035943Y0096701D01*
X0035992Y0096633D01*
X0035992Y0096633D01*
X0035992Y0096633D01*
X0036140Y0096511D01*
X0036157Y0096496D01*
X0037171Y0095481D01*
X0037631Y0095022D01*
X0037670Y0094972D01*
X0037671Y0094973D01*
X0037691Y0094949D01*
X0037691Y0094949D01*
X0037790Y0094856D01*
X0037897Y0094755D01*
X0037983Y0094670D01*
X0038005Y0094652D01*
X0038023Y0094637D01*
X0038138Y0094529D01*
X0038162Y0094506D01*
X0038162Y0094506D01*
X0038162Y0094506D01*
X0038235Y0094466D01*
X0038299Y0094424D01*
X0038365Y0094373D01*
X0038366Y0094373D01*
X0038541Y0094297D01*
X0038562Y0094287D01*
X0038729Y0094194D01*
X0038810Y0094174D01*
X0038883Y0094149D01*
X0038959Y0094116D01*
X0039133Y0094088D01*
X0039148Y0094086D01*
X0039171Y0094081D01*
X0039356Y0094033D01*
X0039440Y0094033D01*
X0039516Y0094027D01*
X0039598Y0094014D01*
X0039774Y0094031D01*
X0039789Y0094032D01*
X0039812Y0094033D01*
X0043877Y0094033D01*
X0044141Y0093956D01*
X0044321Y0093748D01*
X0044361Y0093476D01*
X0044246Y0093226D01*
X0044222Y0093200D01*
X0044073Y0093050D01*
X0044073Y0093050D01*
X0043722Y0092482D01*
X0043722Y0092482D01*
X0043512Y0091849D01*
X0043472Y0091458D01*
X0043472Y0091268D01*
X0047709Y0091268D01*
X0047973Y0091190D01*
X0048153Y0090982D01*
X0048197Y0090780D01*
X0048197Y0086686D01*
X0048119Y0086423D01*
X0048054Y0086341D01*
X0048000Y0086287D01*
X0048000Y0080445D01*
X0048026Y0080445D01*
X0048304Y0080470D01*
X0048304Y0080470D01*
X0048943Y0080669D01*
X0049515Y0081015D01*
X0049515Y0081015D01*
X0049917Y0081417D01*
X0050159Y0081549D01*
X0050433Y0081530D01*
X0050608Y0081417D01*
X0051011Y0081014D01*
X0051011Y0081014D01*
X0051011Y0081014D01*
X0051584Y0080667D01*
X0052224Y0080468D01*
X0052502Y0080443D01*
X0052502Y0080443D01*
X0054522Y0080443D01*
X0054522Y0080443D01*
X0054800Y0080468D01*
X0055439Y0080667D01*
X0056011Y0081013D01*
X0056277Y0081083D01*
X0056516Y0081013D01*
X0057085Y0080669D01*
X0057088Y0080667D01*
X0057115Y0080655D01*
X0057111Y0080646D01*
X0057300Y0080520D01*
X0057410Y0080268D01*
X0057367Y0079997D01*
X0057219Y0079816D01*
X0056742Y0079459D01*
X0056742Y0079459D01*
X0056588Y0079253D01*
X0056367Y0079088D01*
X0056197Y0079057D01*
X0045102Y0079057D01*
X0044838Y0079135D01*
X0044756Y0079200D01*
X0041818Y0082138D01*
X0041686Y0082380D01*
X0041675Y0082483D01*
X0041675Y0082717D01*
X0041675Y0082717D01*
X0041634Y0083121D01*
X0041634Y0083121D01*
X0041575Y0083299D01*
X0043472Y0083299D01*
X0043472Y0082978D01*
X0043498Y0082700D01*
X0043498Y0082700D01*
X0043697Y0082061D01*
X0044043Y0081489D01*
X0044516Y0081015D01*
X0045089Y0080669D01*
X0045089Y0080669D01*
X0045728Y0080470D01*
X0045728Y0080470D01*
X0046006Y0080445D01*
X0046006Y0080445D01*
X0046031Y0080445D01*
X0046031Y0080445D01*
X0046031Y0083299D01*
X0043472Y0083299D01*
X0041575Y0083299D01*
X0041417Y0083777D01*
X0041054Y0084365D01*
X0040566Y0084853D01*
X0040553Y0084861D01*
X0040545Y0084869D01*
X0040543Y0084871D01*
X0040544Y0084871D01*
X0040369Y0085066D01*
X0040336Y0085268D01*
X0043472Y0085268D01*
X0046031Y0085268D01*
X0046031Y0087880D01*
X0046109Y0088144D01*
X0046174Y0088226D01*
X0046228Y0088280D01*
X0046228Y0089299D01*
X0043472Y0089299D01*
X0043472Y0089109D01*
X0043512Y0088718D01*
X0043722Y0088085D01*
X0043722Y0088085D01*
X0044035Y0087578D01*
X0044108Y0087312D01*
X0044037Y0087069D01*
X0043697Y0086506D01*
X0043498Y0085867D01*
X0043472Y0085589D01*
X0043472Y0085268D01*
X0040336Y0085268D01*
X0040324Y0085337D01*
X0040434Y0085590D01*
X0040553Y0085692D01*
X0040564Y0085700D01*
X0041052Y0086188D01*
X0041415Y0086775D01*
X0041415Y0086775D01*
X0041632Y0087430D01*
X0041632Y0087430D01*
X0041673Y0087835D01*
X0041673Y0087835D01*
X0041673Y0088031D01*
X0032112Y0088031D01*
X0031978Y0088071D01*
X0025432Y0088071D01*
X0025236Y0087964D01*
X0025132Y0087953D01*
X0015650Y0087953D01*
X0015650Y0087756D01*
X0015691Y0087352D01*
X0015908Y0086696D01*
X0015908Y0086696D01*
X0016270Y0086109D01*
X0016758Y0085621D01*
X0016758Y0085621D01*
X0016770Y0085614D01*
X0016777Y0085606D01*
X0016781Y0085603D01*
X0016780Y0085602D01*
X0016954Y0085409D01*
X0016998Y0085137D01*
X0016889Y0084885D01*
X0016770Y0084783D01*
X0016757Y0084774D01*
X0016757Y0084774D01*
X0016269Y0084286D01*
X0015906Y0083698D01*
X0015906Y0083698D01*
X0015689Y0083043D01*
X0015689Y0083043D01*
X0015689Y0083043D01*
X0015648Y0082638D01*
X0015648Y0080276D01*
X0015648Y0080276D01*
X0015689Y0079871D01*
X0015689Y0079871D01*
X0015855Y0079371D01*
X0015906Y0079215D01*
X0016269Y0078627D01*
X0016757Y0078139D01*
X0017345Y0077776D01*
X0018001Y0077559D01*
X0018235Y0077535D01*
X0018490Y0077431D01*
X0018531Y0077395D01*
X0021410Y0074515D01*
X0021542Y0074274D01*
X0021553Y0074170D01*
X0021553Y0073937D01*
X0021553Y0073937D01*
X0021594Y0073532D01*
X0021594Y0073532D01*
X0021662Y0073329D01*
X0021812Y0072877D01*
X0022174Y0072289D01*
X0022663Y0071800D01*
X0022676Y0071792D01*
X0022676Y0071792D01*
X0022683Y0071784D01*
X0022685Y0071783D01*
X0022685Y0071782D01*
X0022860Y0071588D01*
X0022904Y0071316D01*
X0022794Y0071064D01*
X0022676Y0070961D01*
X0022664Y0070954D01*
X0022664Y0070954D01*
X0022176Y0070466D01*
X0021814Y0069878D01*
X0021814Y0069878D01*
X0021596Y0069223D01*
X0021596Y0069223D01*
X0021555Y0068819D01*
X0021555Y0068622D01*
X0031117Y0068622D01*
X0031251Y0068583D01*
X0037940Y0068583D01*
X0037992Y0068611D01*
X0038096Y0068622D01*
X0055886Y0068622D01*
X0055886Y0068819D01*
X0055886Y0068819D01*
X0055845Y0069223D01*
X0055627Y0069878D01*
X0055627Y0069878D01*
X0055284Y0070435D01*
X0055212Y0070700D01*
X0055294Y0070962D01*
X0055505Y0071139D01*
X0055700Y0071179D01*
X0056079Y0071179D01*
X0056343Y0071102D01*
X0056470Y0070984D01*
X0056742Y0070620D01*
X0056845Y0070543D01*
X0057196Y0070280D01*
X0057196Y0070280D01*
X0057726Y0070082D01*
X0057726Y0070082D01*
X0057754Y0070079D01*
X0057961Y0070057D01*
X0058096Y0070057D01*
X0058360Y0069980D01*
X0058540Y0069772D01*
X0058579Y0069499D01*
X0058465Y0069249D01*
X0058405Y0069195D01*
X0058404Y0069189D01*
X0060605Y0066988D01*
X0060590Y0066986D01*
X0060065Y0066746D01*
X0059628Y0066368D01*
X0059316Y0065882D01*
X0059228Y0065581D01*
X0057012Y0067797D01*
X0056832Y0067539D01*
X0056544Y0066922D01*
X0056362Y0066715D01*
X0056098Y0066640D01*
X0056053Y0066654D01*
X0052047Y0066654D01*
X0052047Y0063701D01*
X0053130Y0063701D01*
X0053130Y0063701D01*
X0053534Y0063742D01*
X0054189Y0063959D01*
X0054189Y0063959D01*
X0054777Y0064322D01*
X0055265Y0064810D01*
X0055295Y0064858D01*
X0055499Y0065042D01*
X0055771Y0065086D01*
X0056023Y0064976D01*
X0056176Y0064748D01*
X0056197Y0064644D01*
X0056238Y0064171D01*
X0056238Y0064171D01*
X0056464Y0063330D01*
X0056464Y0063329D01*
X0056832Y0062540D01*
X0057012Y0062282D01*
X0057012Y0062282D01*
X0059228Y0064498D01*
X0059316Y0064197D01*
X0059628Y0063711D01*
X0060065Y0063333D01*
X0060590Y0063093D01*
X0060605Y0063091D01*
X0058404Y0060890D01*
X0058662Y0060710D01*
X0058662Y0060710D01*
X0059148Y0060483D01*
X0059355Y0060301D01*
X0059430Y0060037D01*
X0059351Y0059773D01*
X0059148Y0059598D01*
X0058661Y0059371D01*
X0057947Y0058871D01*
X0057330Y0058254D01*
X0056830Y0057540D01*
X0056830Y0057540D01*
X0056462Y0056750D01*
X0056462Y0056750D01*
X0056236Y0055908D01*
X0056236Y0055908D01*
X0056160Y0055039D01*
X0056160Y0055039D01*
X0056236Y0054171D01*
X0056236Y0054171D01*
X0056462Y0053329D01*
X0056462Y0053329D01*
X0056725Y0052764D01*
X0056830Y0052539D01*
X0057330Y0051825D01*
X0057947Y0051208D01*
X0058661Y0050708D01*
X0058800Y0050643D01*
X0059146Y0050482D01*
X0059352Y0050300D01*
X0059428Y0050036D01*
X0059348Y0049772D01*
X0059146Y0049597D01*
X0058661Y0049371D01*
X0058661Y0049371D01*
X0057947Y0048871D01*
X0057330Y0048254D01*
X0056830Y0047540D01*
X0056830Y0047540D01*
X0056462Y0046750D01*
X0056462Y0046750D01*
X0056236Y0045908D01*
X0056236Y0045908D01*
X0056160Y0045039D01*
X0056160Y0045039D01*
X0056236Y0044171D01*
X0056236Y0044171D01*
X0056462Y0043329D01*
X0056462Y0043329D01*
X0056659Y0042905D01*
X0056830Y0042539D01*
X0057330Y0041825D01*
X0057947Y0041208D01*
X0058661Y0040708D01*
X0058905Y0040594D01*
X0059146Y0040482D01*
X0059352Y0040300D01*
X0059428Y0040036D01*
X0059348Y0039772D01*
X0059146Y0039597D01*
X0058661Y0039371D01*
X0058661Y0039371D01*
X0057947Y0038871D01*
X0057330Y0038254D01*
X0057199Y0038067D01*
X0057021Y0037812D01*
X0057018Y0037809D01*
X0056803Y0037637D01*
X0056618Y0037600D01*
X0052498Y0037600D01*
X0052234Y0037678D01*
X0052054Y0037886D01*
X0052010Y0038089D01*
X0052010Y0040046D01*
X0051987Y0040300D01*
X0051985Y0040324D01*
X0051785Y0040963D01*
X0051439Y0041536D01*
X0051439Y0041536D01*
X0051439Y0041536D01*
X0050965Y0042010D01*
X0050942Y0042028D01*
X0050945Y0042032D01*
X0050780Y0042212D01*
X0050730Y0042427D01*
X0050730Y0043045D01*
X0050798Y0043293D01*
X0050819Y0043329D01*
X0050963Y0043571D01*
X0051133Y0044157D01*
X0051144Y0044294D01*
X0051144Y0046257D01*
X0051133Y0046394D01*
X0050963Y0046980D01*
X0050652Y0047505D01*
X0050652Y0047505D01*
X0050652Y0047505D01*
X0050221Y0047936D01*
X0050221Y0047936D01*
X0049902Y0048125D01*
X0049696Y0048246D01*
X0049111Y0048416D01*
X0049111Y0048416D01*
X0049111Y0048416D01*
X0048974Y0048427D01*
X0048974Y0048427D01*
X0048253Y0048427D01*
X0048132Y0048443D01*
X0048031Y0048468D01*
X0047961Y0048486D01*
X0047961Y0048486D01*
X0047878Y0048486D01*
X0047801Y0048492D01*
X0047719Y0048505D01*
X0047719Y0048505D01*
X0047625Y0048496D01*
X0047528Y0048487D01*
X0047505Y0048486D01*
X0041520Y0048486D01*
X0041443Y0048492D01*
X0041361Y0048505D01*
X0041361Y0048505D01*
X0041267Y0048496D01*
X0041170Y0048487D01*
X0041147Y0048486D01*
X0041030Y0048486D01*
X0040766Y0048564D01*
X0040684Y0048629D01*
X0040484Y0048829D01*
X0040352Y0049071D01*
X0040372Y0049345D01*
X0040484Y0049520D01*
X0040886Y0049922D01*
X0040886Y0049922D01*
X0041232Y0050495D01*
X0041431Y0051133D01*
X0041457Y0051411D01*
X0041457Y0051437D01*
X0037122Y0051437D01*
X0036858Y0051515D01*
X0036678Y0051722D01*
X0036634Y0051925D01*
X0036634Y0052657D01*
X0045433Y0052657D01*
X0045433Y0052562D01*
X0045444Y0052425D01*
X0045614Y0051840D01*
X0045614Y0051840D01*
X0045924Y0051315D01*
X0045924Y0051315D01*
X0046355Y0050885D01*
X0046355Y0050885D01*
X0046879Y0050574D01*
X0046879Y0050574D01*
X0047402Y0050423D01*
X0047402Y0050423D01*
X0047402Y0052657D01*
X0049173Y0052657D01*
X0049173Y0050423D01*
X0049173Y0050423D01*
X0049696Y0050574D01*
X0049696Y0050574D01*
X0050220Y0050885D01*
X0050220Y0050885D01*
X0050651Y0051315D01*
X0050651Y0051315D01*
X0050961Y0051840D01*
X0050961Y0051840D01*
X0051131Y0052425D01*
X0051131Y0052425D01*
X0051142Y0052562D01*
X0051142Y0052657D01*
X0049173Y0052657D01*
X0047402Y0052657D01*
X0045433Y0052657D01*
X0036634Y0052657D01*
X0036634Y0055965D01*
X0038602Y0055965D01*
X0038602Y0053406D01*
X0041457Y0053406D01*
X0041457Y0053431D01*
X0041431Y0053709D01*
X0041431Y0053709D01*
X0041232Y0054348D01*
X0041183Y0054429D01*
X0045433Y0054429D01*
X0047402Y0054429D01*
X0047402Y0056664D01*
X0049173Y0056664D01*
X0049173Y0054429D01*
X0051142Y0054429D01*
X0051142Y0054525D01*
X0051131Y0054662D01*
X0050961Y0055247D01*
X0050961Y0055247D01*
X0050651Y0055771D01*
X0050651Y0055771D01*
X0050220Y0056202D01*
X0050220Y0056202D01*
X0049696Y0056512D01*
X0049696Y0056512D01*
X0049173Y0056664D01*
X0047402Y0056664D01*
X0046879Y0056512D01*
X0046879Y0056512D01*
X0046355Y0056202D01*
X0046355Y0056202D01*
X0045924Y0055771D01*
X0045924Y0055771D01*
X0045614Y0055247D01*
X0045614Y0055247D01*
X0045444Y0054662D01*
X0045444Y0054662D01*
X0045433Y0054525D01*
X0045433Y0054429D01*
X0041183Y0054429D01*
X0040886Y0054921D01*
X0040413Y0055394D01*
X0039840Y0055740D01*
X0039840Y0055740D01*
X0039201Y0055939D01*
X0039201Y0055939D01*
X0038924Y0055965D01*
X0038602Y0055965D01*
X0036634Y0055965D01*
X0036634Y0055965D01*
X0036313Y0055965D01*
X0036035Y0055939D01*
X0036035Y0055939D01*
X0035396Y0055740D01*
X0034823Y0055394D01*
X0034350Y0054921D01*
X0034350Y0054921D01*
X0034012Y0054362D01*
X0033809Y0054176D01*
X0033538Y0054130D01*
X0033285Y0054237D01*
X0033179Y0054358D01*
X0032825Y0054932D01*
X0032825Y0054932D01*
X0032353Y0055404D01*
X0032353Y0055404D01*
X0031785Y0055754D01*
X0031785Y0055754D01*
X0031152Y0055964D01*
X0030761Y0056004D01*
X0030571Y0056004D01*
X0030571Y0051768D01*
X0030493Y0051504D01*
X0030285Y0051324D01*
X0030083Y0051280D01*
X0025748Y0051280D01*
X0025748Y0051188D01*
X0025788Y0050797D01*
X0025998Y0050163D01*
X0025998Y0050163D01*
X0026100Y0049998D01*
X0026172Y0049733D01*
X0026090Y0049471D01*
X0025879Y0049294D01*
X0025684Y0049254D01*
X0024645Y0049254D01*
X0024381Y0049331D01*
X0024256Y0049448D01*
X0024119Y0049629D01*
X0023921Y0049891D01*
X0023921Y0049891D01*
X0023921Y0049891D01*
X0023274Y0050481D01*
X0023274Y0050481D01*
X0022529Y0050942D01*
X0022529Y0050942D01*
X0022525Y0050944D01*
X0021712Y0051258D01*
X0020851Y0051419D01*
X0019975Y0051419D01*
X0019114Y0051258D01*
X0018817Y0051143D01*
X0018298Y0050942D01*
X0018298Y0050942D01*
X0017553Y0050481D01*
X0017553Y0050481D01*
X0016906Y0049891D01*
X0016378Y0049192D01*
X0016378Y0049192D01*
X0015987Y0048408D01*
X0015987Y0048408D01*
X0015748Y0047565D01*
X0015748Y0047565D01*
X0015667Y0046693D01*
X0015667Y0046693D01*
X0015748Y0045821D01*
X0015748Y0045821D01*
X0015987Y0044978D01*
X0015987Y0044978D01*
X0016378Y0044194D01*
X0016378Y0044194D01*
X0016906Y0043495D01*
X0017553Y0042905D01*
X0017553Y0042905D01*
X0018298Y0042444D01*
X0018298Y0042444D01*
X0018298Y0042444D01*
X0019114Y0042127D01*
X0019975Y0041967D01*
X0019975Y0041967D01*
X0020851Y0041967D01*
X0020851Y0041967D01*
X0021160Y0042024D01*
X0021434Y0041997D01*
X0021595Y0041890D01*
X0023522Y0039963D01*
X0023562Y0039913D01*
X0023562Y0039914D01*
X0023582Y0039890D01*
X0023788Y0039696D01*
X0023874Y0039611D01*
X0023874Y0039611D01*
X0023874Y0039611D01*
X0023897Y0039593D01*
X0023914Y0039578D01*
X0024054Y0039447D01*
X0024081Y0039432D01*
X0024127Y0039407D01*
X0024191Y0039365D01*
X0024257Y0039314D01*
X0024432Y0039238D01*
X0024453Y0039227D01*
X0024621Y0039135D01*
X0024702Y0039115D01*
X0024774Y0039090D01*
X0024851Y0039057D01*
X0025000Y0039033D01*
X0025040Y0039027D01*
X0025062Y0039022D01*
X0025247Y0038974D01*
X0025331Y0038974D01*
X0025407Y0038968D01*
X0025490Y0038955D01*
X0025666Y0038972D01*
X0025680Y0038973D01*
X0025703Y0038974D01*
X0034660Y0038974D01*
X0034924Y0038897D01*
X0035081Y0038735D01*
X0035371Y0038243D01*
X0035371Y0038243D01*
X0035802Y0037812D01*
X0035802Y0037812D01*
X0035802Y0037812D01*
X0036327Y0037502D01*
X0036913Y0037332D01*
X0037004Y0037324D01*
X0037050Y0037321D01*
X0037050Y0037321D01*
X0037050Y0037321D01*
X0037965Y0037321D01*
X0038423Y0037321D01*
X0038450Y0037323D01*
X0038560Y0037332D01*
X0039145Y0037502D01*
X0039670Y0037812D01*
X0039670Y0037812D01*
X0039697Y0037828D01*
X0039700Y0037822D01*
X0039922Y0037910D01*
X0039965Y0037911D01*
X0043944Y0037911D01*
X0044208Y0037834D01*
X0044388Y0037626D01*
X0044410Y0037569D01*
X0044553Y0037108D01*
X0044900Y0036535D01*
X0045302Y0036133D01*
X0045434Y0035891D01*
X0045414Y0035617D01*
X0045302Y0035442D01*
X0044900Y0035040D01*
X0044900Y0035040D01*
X0044553Y0034467D01*
X0044354Y0033828D01*
X0044329Y0033550D01*
X0044329Y0031529D01*
X0044354Y0031251D01*
X0044354Y0031251D01*
X0044354Y0031251D01*
X0044553Y0030612D01*
X0044854Y0030114D01*
X0044900Y0030039D01*
X0045351Y0029587D01*
X0045483Y0029346D01*
X0045463Y0029072D01*
X0045351Y0028897D01*
X0044900Y0028446D01*
X0044900Y0028446D01*
X0044553Y0027872D01*
X0044354Y0027233D01*
X0044329Y0026955D01*
X0044329Y0026041D01*
X0044251Y0025777D01*
X0044043Y0025597D01*
X0043841Y0025553D01*
X0042424Y0025553D01*
X0042161Y0025631D01*
X0042079Y0025696D01*
X0040775Y0027001D01*
X0040643Y0027242D01*
X0040632Y0027346D01*
X0040632Y0027360D01*
X0040621Y0027497D01*
X0040621Y0027497D01*
X0040451Y0028082D01*
X0040376Y0028209D01*
X0040365Y0028227D01*
X0040297Y0028476D01*
X0040297Y0030173D01*
X0040365Y0030422D01*
X0040412Y0030500D01*
X0040582Y0031086D01*
X0040593Y0031223D01*
X0040593Y0033187D01*
X0040582Y0033323D01*
X0040412Y0033909D01*
X0040101Y0034434D01*
X0040101Y0034434D01*
X0040101Y0034434D01*
X0039670Y0034865D01*
X0039670Y0034865D01*
X0039351Y0035054D01*
X0039145Y0035175D01*
X0038560Y0035346D01*
X0038560Y0035346D01*
X0038560Y0035346D01*
X0038423Y0035356D01*
X0038423Y0035356D01*
X0037507Y0035356D01*
X0037050Y0035356D01*
X0036913Y0035346D01*
X0036913Y0035346D01*
X0036327Y0035175D01*
X0036327Y0035175D01*
X0036327Y0035175D01*
X0035802Y0034865D01*
X0035802Y0034865D01*
X0035371Y0034434D01*
X0035371Y0034434D01*
X0035061Y0033909D01*
X0034891Y0033323D01*
X0034891Y0033323D01*
X0034880Y0033187D01*
X0034880Y0031223D01*
X0034891Y0031086D01*
X0034891Y0031086D01*
X0034891Y0031086D01*
X0035061Y0030500D01*
X0035107Y0030422D01*
X0035175Y0030173D01*
X0035175Y0028343D01*
X0035112Y0028111D01*
X0035112Y0028110D01*
X0035110Y0028106D01*
X0035107Y0028094D01*
X0035100Y0028082D01*
X0035100Y0028082D01*
X0034930Y0027497D01*
X0034930Y0027497D01*
X0034919Y0027360D01*
X0034919Y0025396D01*
X0034930Y0025259D01*
X0034930Y0025259D01*
X0034930Y0025259D01*
X0035100Y0024674D01*
X0035100Y0024674D01*
X0035411Y0024149D01*
X0035411Y0024149D01*
X0035842Y0023718D01*
X0035842Y0023718D01*
X0035842Y0023718D01*
X0036367Y0023407D01*
X0036952Y0023237D01*
X0037089Y0023226D01*
X0037103Y0023226D01*
X0037367Y0023149D01*
X0037448Y0023083D01*
X0038437Y0022095D01*
X0038568Y0021854D01*
X0038549Y0021579D01*
X0038384Y0021359D01*
X0038126Y0021263D01*
X0038091Y0021262D01*
X0037089Y0021262D01*
X0036952Y0021251D01*
X0036944Y0021249D01*
X0036367Y0021081D01*
X0036367Y0021081D01*
X0036367Y0021081D01*
X0035842Y0020771D01*
X0035842Y0020771D01*
X0035761Y0020690D01*
X0035570Y0020499D01*
X0035329Y0020367D01*
X0035225Y0020356D01*
X0024527Y0020356D01*
X0024263Y0020434D01*
X0024137Y0020550D01*
X0024086Y0020618D01*
X0023803Y0020993D01*
X0023803Y0020993D01*
X0023803Y0020993D01*
X0023156Y0021583D01*
X0023156Y0021583D01*
X0022411Y0022044D01*
X0022411Y0022044D01*
X0022360Y0022064D01*
X0021594Y0022361D01*
X0020733Y0022522D01*
X0019857Y0022522D01*
X0018996Y0022361D01*
X0018480Y0022161D01*
X0018180Y0022044D01*
X0018180Y0022044D01*
X0017435Y0021583D01*
X0017435Y0021583D01*
X0016787Y0020993D01*
X0016260Y0020294D01*
X0016260Y0020294D01*
X0015869Y0019510D01*
X0015869Y0019510D01*
X0015629Y0018667D01*
X0015629Y0018667D01*
X0015549Y0017795D01*
X0015549Y0017795D01*
X0015629Y0016923D01*
X0015629Y0016923D01*
X0015869Y0016081D01*
X0015869Y0016081D01*
X0016260Y0015297D01*
X0016260Y0015296D01*
X0016787Y0014597D01*
X0017386Y0014052D01*
X0017433Y0014009D01*
X0017435Y0014007D01*
X0017435Y0014007D01*
X0018180Y0013546D01*
X0018180Y0013546D01*
X0018180Y0013546D01*
X0018996Y0013230D01*
X0019857Y0013069D01*
X0019857Y0013069D01*
X0020733Y0013069D01*
X0020733Y0013069D01*
X0021594Y0013230D01*
X0022411Y0013546D01*
X0023156Y0014007D01*
X0023204Y0014051D01*
X0023451Y0014172D01*
X0023724Y0014140D01*
X0023878Y0014036D01*
X0025249Y0012665D01*
X0025381Y0012423D01*
X0025392Y0012320D01*
X0025392Y0011293D01*
X0025417Y0011015D01*
X0025417Y0011015D01*
X0025417Y0011015D01*
X0025616Y0010376D01*
X0025946Y0009829D01*
X0025963Y0009802D01*
X0026366Y0009399D01*
X0026498Y0009157D01*
X0026478Y0008883D01*
X0026366Y0008709D01*
X0025964Y0008307D01*
X0025964Y0008307D01*
X0025618Y0007734D01*
X0025419Y0007095D01*
X0025394Y0006817D01*
X0025394Y0006791D01*
X0033071Y0006791D01*
X0033071Y0006817D01*
X0033046Y0007095D01*
X0033046Y0007095D01*
X0032847Y0007734D01*
X0032500Y0008307D01*
X0032098Y0008709D01*
X0031967Y0008950D01*
X0031986Y0009224D01*
X0032098Y0009399D01*
X0032299Y0009599D01*
X0032540Y0009731D01*
X0032644Y0009742D01*
X0036835Y0009742D01*
X0036971Y0009723D01*
X0037070Y0009694D01*
X0037168Y0009686D01*
X0037207Y0009683D01*
X0037207Y0009683D01*
X0037207Y0009683D01*
X0038123Y0009683D01*
X0038580Y0009683D01*
X0038608Y0009685D01*
X0038717Y0009694D01*
X0039303Y0009864D01*
X0039828Y0010174D01*
X0039828Y0010174D01*
X0039854Y0010190D01*
X0039857Y0010184D01*
X0040080Y0010272D01*
X0040123Y0010274D01*
X0041218Y0010274D01*
X0041282Y0010267D01*
X0041282Y0010268D01*
X0041312Y0010265D01*
X0041312Y0010265D01*
X0041595Y0010274D01*
X0044574Y0010274D01*
X0044838Y0010196D01*
X0045018Y0009988D01*
X0045058Y0009716D01*
X0044977Y0009528D01*
X0044985Y0009523D01*
X0044620Y0008931D01*
X0044620Y0008931D01*
X0044410Y0008298D01*
X0044370Y0007907D01*
X0044370Y0007815D01*
X0052047Y0007815D01*
X0052047Y0007907D01*
X0052047Y0007907D01*
X0052007Y0008298D01*
X0051797Y0008931D01*
X0051797Y0008931D01*
X0051447Y0009499D01*
X0051447Y0009499D01*
X0051411Y0009535D01*
X0051279Y0009777D01*
X0051299Y0010051D01*
X0051411Y0010226D01*
X0051449Y0010264D01*
X0051799Y0010832D01*
X0052009Y0011466D01*
X0052049Y0011857D01*
X0052049Y0014009D01*
X0052045Y0014051D01*
X0052009Y0014400D01*
X0052009Y0014400D01*
X0051996Y0014442D01*
X0051799Y0015034D01*
X0051799Y0015034D01*
X0051799Y0015034D01*
X0051449Y0015603D01*
X0051449Y0015603D01*
X0051116Y0015935D01*
X0050984Y0016176D01*
X0051004Y0016451D01*
X0051116Y0016625D01*
X0051439Y0016948D01*
X0051439Y0016948D01*
X0051439Y0016948D01*
X0051785Y0017521D01*
X0051985Y0018161D01*
X0052010Y0018439D01*
X0052010Y0019391D01*
X0052087Y0019654D01*
X0052295Y0019835D01*
X0052568Y0019874D01*
X0052818Y0019759D01*
X0052843Y0019736D01*
X0056129Y0016450D01*
X0056261Y0016209D01*
X0056255Y0015979D01*
X0056236Y0015908D01*
X0056236Y0015908D01*
X0056160Y0015039D01*
X0056160Y0015039D01*
X0056236Y0014171D01*
X0056236Y0014171D01*
X0056462Y0013329D01*
X0056462Y0013329D01*
X0056819Y0012563D01*
X0056830Y0012539D01*
X0057330Y0011825D01*
X0057947Y0011208D01*
X0058661Y0010708D01*
X0059148Y0010481D01*
X0059355Y0010299D01*
X0059430Y0010034D01*
X0059351Y0009771D01*
X0059148Y0009596D01*
X0058662Y0009369D01*
X0058404Y0009189D01*
X0060605Y0006988D01*
X0060590Y0006986D01*
X0060065Y0006746D01*
X0059628Y0006368D01*
X0059316Y0005882D01*
X0059228Y0005581D01*
X0057012Y0007797D01*
X0056832Y0007539D01*
X0056464Y0006749D01*
X0056464Y0006749D01*
X0056238Y0005908D01*
X0056238Y0005907D01*
X0056162Y0005039D01*
X0056162Y0005039D01*
X0056238Y0004171D01*
X0056238Y0004171D01*
X0056464Y0003330D01*
X0056464Y0003329D01*
X0056832Y0002540D01*
X0057012Y0002282D01*
X0057012Y0002282D01*
X0059228Y0004498D01*
X0059316Y0004197D01*
X0059628Y0003711D01*
X0060065Y0003333D01*
X0060590Y0003093D01*
X0060605Y0003091D01*
X0058404Y0000890D01*
X0058406Y0000873D01*
X0058548Y0000695D01*
X0058576Y0000421D01*
X0058452Y0000176D01*
X0058215Y0000036D01*
X0058096Y0000022D01*
X0056141Y0000022D01*
X0000490Y0000002D01*
X0000226Y0000080D01*
X0000046Y0000287D01*
X0000002Y0000490D01*
X0000002Y0004823D01*
X0025394Y0004823D01*
X0025394Y0004797D01*
X0025419Y0004519D01*
X0025419Y0004519D01*
X0025618Y0003880D01*
X0025964Y0003308D01*
X0026437Y0002834D01*
X0027010Y0002488D01*
X0027010Y0002488D01*
X0027649Y0002289D01*
X0027649Y0002289D01*
X0027927Y0002264D01*
X0028248Y0002264D01*
X0028248Y0002264D01*
X0028248Y0004823D01*
X0030217Y0004823D01*
X0030217Y0002264D01*
X0030538Y0002264D01*
X0030815Y0002289D01*
X0030815Y0002289D01*
X0031454Y0002488D01*
X0032027Y0002834D01*
X0032500Y0003308D01*
X0032726Y0003681D01*
X0035039Y0003681D01*
X0035039Y0003585D01*
X0035050Y0003449D01*
X0035220Y0002863D01*
X0035220Y0002863D01*
X0035530Y0002339D01*
X0035530Y0002339D01*
X0035961Y0001908D01*
X0035961Y0001908D01*
X0036485Y0001598D01*
X0036486Y0001598D01*
X0037008Y0001446D01*
X0037008Y0001446D01*
X0037008Y0003681D01*
X0038780Y0003681D01*
X0038780Y0001446D01*
X0038780Y0001446D01*
X0039302Y0001598D01*
X0039302Y0001598D01*
X0039826Y0001908D01*
X0039826Y0001908D01*
X0040257Y0002339D01*
X0040257Y0002339D01*
X0040567Y0002863D01*
X0040567Y0002863D01*
X0040737Y0003448D01*
X0040737Y0003449D01*
X0040748Y0003585D01*
X0040748Y0003681D01*
X0038780Y0003681D01*
X0037008Y0003681D01*
X0035039Y0003681D01*
X0032726Y0003681D01*
X0032847Y0003880D01*
X0033046Y0004519D01*
X0033071Y0004797D01*
X0033071Y0004823D01*
X0030217Y0004823D01*
X0028248Y0004823D01*
X0025394Y0004823D01*
X0000002Y0004823D01*
X0000002Y0005453D01*
X0035039Y0005453D01*
X0037008Y0005453D01*
X0037008Y0007688D01*
X0038780Y0007688D01*
X0038780Y0005453D01*
X0040748Y0005453D01*
X0040748Y0005549D01*
X0040737Y0005685D01*
X0040690Y0005846D01*
X0044370Y0005846D01*
X0044370Y0005755D01*
X0044410Y0005364D01*
X0044620Y0004730D01*
X0044620Y0004730D01*
X0044970Y0004162D01*
X0044970Y0004162D01*
X0045442Y0003691D01*
X0045442Y0003691D01*
X0046010Y0003340D01*
X0046010Y0003340D01*
X0046643Y0003130D01*
X0047034Y0003091D01*
X0047224Y0003091D01*
X0047224Y0003091D01*
X0047224Y0005846D01*
X0049193Y0005846D01*
X0049193Y0003091D01*
X0049383Y0003091D01*
X0049383Y0003091D01*
X0049774Y0003130D01*
X0050407Y0003340D01*
X0050407Y0003340D01*
X0050975Y0003691D01*
X0050975Y0003691D01*
X0051447Y0004162D01*
X0051447Y0004162D01*
X0051797Y0004730D01*
X0051797Y0004730D01*
X0052007Y0005364D01*
X0052047Y0005755D01*
X0052047Y0005755D01*
X0052047Y0005846D01*
X0049193Y0005846D01*
X0047224Y0005846D01*
X0044370Y0005846D01*
X0040690Y0005846D01*
X0040567Y0006270D01*
X0040567Y0006270D01*
X0040257Y0006795D01*
X0040257Y0006795D01*
X0039826Y0007226D01*
X0039826Y0007226D01*
X0039302Y0007536D01*
X0039302Y0007536D01*
X0038780Y0007688D01*
X0037008Y0007688D01*
X0036485Y0007536D01*
X0036485Y0007536D01*
X0035961Y0007226D01*
X0035961Y0007226D01*
X0035530Y0006795D01*
X0035530Y0006795D01*
X0035220Y0006270D01*
X0035220Y0006270D01*
X0035050Y0005685D01*
X0035050Y0005685D01*
X0035039Y0005549D01*
X0035039Y0005453D01*
X0000002Y0005453D01*
X0000002Y0053248D01*
X0025748Y0053248D01*
X0028602Y0053248D01*
X0028602Y0056004D01*
X0028602Y0056004D01*
X0028412Y0056004D01*
X0028412Y0056004D01*
X0028021Y0055964D01*
X0027388Y0055754D01*
X0027388Y0055754D01*
X0026820Y0055404D01*
X0026820Y0055404D01*
X0026348Y0054932D01*
X0026348Y0054932D01*
X0025998Y0054364D01*
X0025998Y0054364D01*
X0025788Y0053731D01*
X0025748Y0053340D01*
X0025748Y0053248D01*
X0000002Y0053248D01*
X0000002Y0066654D01*
X0021555Y0066654D01*
X0021555Y0066457D01*
X0021596Y0066052D01*
X0021814Y0065397D01*
X0021814Y0065397D01*
X0022176Y0064810D01*
X0022664Y0064322D01*
X0023251Y0063959D01*
X0023251Y0063959D01*
X0023907Y0063742D01*
X0023907Y0063742D01*
X0024311Y0063701D01*
X0025394Y0063701D01*
X0025394Y0063701D01*
X0025394Y0066654D01*
X0027362Y0066654D01*
X0027362Y0063701D01*
X0028445Y0063701D01*
X0028445Y0063701D01*
X0028849Y0063742D01*
X0029504Y0063959D01*
X0029504Y0063959D01*
X0030092Y0064322D01*
X0030127Y0064357D01*
X0030369Y0064489D01*
X0030643Y0064469D01*
X0030818Y0064357D01*
X0030892Y0064282D01*
X0031480Y0063920D01*
X0031480Y0063920D01*
X0032135Y0063703D01*
X0032135Y0063703D01*
X0032539Y0063661D01*
X0033622Y0063661D01*
X0035591Y0063661D01*
X0036673Y0063661D01*
X0036673Y0063661D01*
X0037078Y0063703D01*
X0037733Y0063920D01*
X0037733Y0063920D01*
X0038320Y0064282D01*
X0038395Y0064357D01*
X0038636Y0064489D01*
X0038911Y0064469D01*
X0039085Y0064357D01*
X0039121Y0064322D01*
X0039708Y0063959D01*
X0039708Y0063959D01*
X0040363Y0063742D01*
X0040363Y0063742D01*
X0040768Y0063701D01*
X0041850Y0063701D01*
X0041850Y0063701D01*
X0041850Y0066654D01*
X0043819Y0066654D01*
X0043819Y0063701D01*
X0044901Y0063701D01*
X0044902Y0063701D01*
X0045306Y0063742D01*
X0045961Y0063959D01*
X0045961Y0063959D01*
X0046549Y0064322D01*
X0046604Y0064377D01*
X0046845Y0064508D01*
X0047119Y0064489D01*
X0047294Y0064377D01*
X0047349Y0064322D01*
X0047937Y0063959D01*
X0047937Y0063959D01*
X0048592Y0063742D01*
X0048592Y0063742D01*
X0048996Y0063701D01*
X0050079Y0063701D01*
X0050079Y0063701D01*
X0050079Y0066654D01*
X0043819Y0066654D01*
X0041850Y0066654D01*
X0039500Y0066654D01*
X0039449Y0066625D01*
X0039345Y0066614D01*
X0035591Y0066614D01*
X0035591Y0063661D01*
X0033622Y0063661D01*
X0033622Y0063661D01*
X0033622Y0066614D01*
X0029868Y0066614D01*
X0029733Y0066654D01*
X0027362Y0066654D01*
X0025394Y0066654D01*
X0021555Y0066654D01*
X0000002Y0066654D01*
X0000002Y0089921D01*
X0015650Y0089921D01*
X0019488Y0089921D01*
X0021457Y0089921D01*
X0023662Y0089921D01*
X0023858Y0090028D01*
X0023962Y0090039D01*
X0027638Y0090039D01*
X0027638Y0092992D01*
X0029606Y0092992D01*
X0029606Y0090039D01*
X0033361Y0090039D01*
X0033495Y0090000D01*
X0035866Y0090000D01*
X0035866Y0092953D01*
X0037835Y0092953D01*
X0037835Y0090000D01*
X0041673Y0090000D01*
X0041673Y0090197D01*
X0041673Y0090197D01*
X0041632Y0090601D01*
X0041415Y0091256D01*
X0041415Y0091256D01*
X0041052Y0091844D01*
X0040564Y0092332D01*
X0039977Y0092694D01*
X0039977Y0092694D01*
X0039322Y0092911D01*
X0039322Y0092911D01*
X0038917Y0092953D01*
X0037835Y0092953D01*
X0035866Y0092953D01*
X0034784Y0092953D01*
X0034784Y0092953D01*
X0034379Y0092911D01*
X0033724Y0092694D01*
X0033724Y0092694D01*
X0033136Y0092332D01*
X0033101Y0092297D01*
X0032860Y0092165D01*
X0032585Y0092184D01*
X0032411Y0092297D01*
X0032336Y0092371D01*
X0031749Y0092734D01*
X0031748Y0092734D01*
X0031093Y0092951D01*
X0031093Y0092951D01*
X0030689Y0092992D01*
X0029606Y0092992D01*
X0027638Y0092992D01*
X0026555Y0092992D01*
X0026555Y0092992D01*
X0026151Y0092951D01*
X0025496Y0092734D01*
X0025496Y0092734D01*
X0024908Y0092371D01*
X0024831Y0092294D01*
X0024589Y0092162D01*
X0024315Y0092182D01*
X0024212Y0092240D01*
X0024211Y0092238D01*
X0023599Y0092616D01*
X0023599Y0092616D01*
X0022944Y0092833D01*
X0022944Y0092833D01*
X0022539Y0092874D01*
X0021457Y0092874D01*
X0021457Y0089921D01*
X0019488Y0089921D01*
X0019488Y0092874D01*
X0018406Y0092874D01*
X0018406Y0092874D01*
X0018001Y0092833D01*
X0017346Y0092616D01*
X0017346Y0092616D01*
X0016758Y0092253D01*
X0016270Y0091765D01*
X0015908Y0091178D01*
X0015908Y0091178D01*
X0015691Y0090522D01*
X0015691Y0090522D01*
X0015650Y0090118D01*
X0015650Y0089921D01*
X0000002Y0089921D01*
X0000002Y0133093D01*
X0000079Y0133356D01*
X0000287Y0133537D01*
X0000490Y0133581D01*
X0115809Y0133581D01*
X0116073Y0133503D01*
G37*
G36*
X0076782Y0059844D02*
G01*
X0076962Y0059636D01*
X0077006Y0059433D01*
X0077006Y0059017D01*
X0076947Y0058798D01*
X0076951Y0058796D01*
X0076941Y0058774D01*
X0076941Y0058773D01*
X0076940Y0058773D01*
X0076722Y0058103D01*
X0076710Y0058064D01*
X0076632Y0057323D01*
X0076710Y0056582D01*
X0076710Y0056582D01*
X0076940Y0055873D01*
X0076940Y0055872D01*
X0076941Y0055872D01*
X0076951Y0055850D01*
X0076947Y0055848D01*
X0077006Y0055628D01*
X0077006Y0054812D01*
X0077006Y0054812D01*
X0077031Y0054577D01*
X0077229Y0054046D01*
X0077243Y0054020D01*
X0077303Y0053786D01*
X0077303Y0053031D01*
X0077787Y0053031D01*
X0077787Y0053032D01*
X0078021Y0053057D01*
X0078021Y0053057D01*
X0078114Y0053091D01*
X0078388Y0053111D01*
X0078455Y0053091D01*
X0078553Y0053055D01*
X0078553Y0053055D01*
X0078788Y0053030D01*
X0081724Y0053030D01*
X0081959Y0053055D01*
X0082054Y0053090D01*
X0082328Y0053110D01*
X0082395Y0053090D01*
X0082490Y0053055D01*
X0082725Y0053030D01*
X0085661Y0053030D01*
X0085896Y0053055D01*
X0085991Y0053090D01*
X0086265Y0053110D01*
X0086332Y0053090D01*
X0086427Y0053055D01*
X0086662Y0053030D01*
X0089280Y0053030D01*
X0089544Y0052952D01*
X0089700Y0052790D01*
X0089740Y0052722D01*
X0089774Y0052653D01*
X0089796Y0052597D01*
X0089805Y0052575D01*
X0089917Y0052421D01*
X0089930Y0052401D01*
X0089995Y0052291D01*
X0090027Y0052237D01*
X0090027Y0052237D01*
X0090086Y0052178D01*
X0090136Y0052119D01*
X0090185Y0052052D01*
X0090185Y0052052D01*
X0090185Y0052052D01*
X0090215Y0052027D01*
X0090259Y0051991D01*
X0090271Y0051980D01*
X0090481Y0051783D01*
X0090564Y0051700D01*
X0090696Y0051458D01*
X0090677Y0051184D01*
X0090512Y0050964D01*
X0090254Y0050867D01*
X0090219Y0050866D01*
X0087146Y0050866D01*
X0087146Y0029213D01*
X0099274Y0029213D01*
X0099538Y0029135D01*
X0099718Y0028927D01*
X0099758Y0028655D01*
X0099643Y0028405D01*
X0099620Y0028379D01*
X0098600Y0027360D01*
X0098335Y0027094D01*
X0098093Y0026962D01*
X0097819Y0026982D01*
X0097707Y0027024D01*
X0097707Y0027024D01*
X0097707Y0027024D01*
X0097472Y0027049D01*
X0097472Y0027049D01*
X0094536Y0027049D01*
X0094536Y0027049D01*
X0094301Y0027024D01*
X0094206Y0026988D01*
X0093932Y0026969D01*
X0093865Y0026988D01*
X0093770Y0027024D01*
X0093770Y0027024D01*
X0093770Y0027024D01*
X0093535Y0027049D01*
X0093535Y0027049D01*
X0090599Y0027049D01*
X0090599Y0027049D01*
X0090364Y0027024D01*
X0090266Y0026987D01*
X0089992Y0026968D01*
X0089925Y0026987D01*
X0089832Y0027022D01*
X0089832Y0027022D01*
X0089598Y0027047D01*
X0089114Y0027047D01*
X0089114Y0026293D01*
X0089054Y0026059D01*
X0089040Y0026033D01*
X0088842Y0025502D01*
X0088824Y0025337D01*
X0088817Y0025267D01*
X0088817Y0025267D01*
X0088817Y0017016D01*
X0088817Y0017016D01*
X0088842Y0016782D01*
X0089040Y0016251D01*
X0089054Y0016225D01*
X0089114Y0015991D01*
X0089114Y0015236D01*
X0089279Y0015236D01*
X0089543Y0015159D01*
X0089699Y0014997D01*
X0089740Y0014927D01*
X0089774Y0014858D01*
X0089796Y0014802D01*
X0089805Y0014780D01*
X0089917Y0014625D01*
X0089930Y0014606D01*
X0090027Y0014441D01*
X0090027Y0014441D01*
X0090086Y0014382D01*
X0090136Y0014324D01*
X0090185Y0014257D01*
X0090185Y0014257D01*
X0090185Y0014257D01*
X0090333Y0014135D01*
X0090350Y0014119D01*
X0093636Y0010833D01*
X0096612Y0007857D01*
X0096662Y0007799D01*
X0096711Y0007731D01*
X0096711Y0007731D01*
X0096711Y0007731D01*
X0096858Y0007609D01*
X0096875Y0007594D01*
X0099016Y0005453D01*
X0101002Y0003466D01*
X0101042Y0003417D01*
X0101043Y0003418D01*
X0101062Y0003394D01*
X0101062Y0003394D01*
X0101154Y0003308D01*
X0101269Y0003200D01*
X0101354Y0003115D01*
X0101377Y0003097D01*
X0101394Y0003082D01*
X0101448Y0003031D01*
X0101534Y0002951D01*
X0101607Y0002911D01*
X0101671Y0002869D01*
X0101715Y0002834D01*
X0101737Y0002817D01*
X0101913Y0002742D01*
X0101933Y0002731D01*
X0102101Y0002639D01*
X0102182Y0002618D01*
X0102254Y0002594D01*
X0102331Y0002560D01*
X0102462Y0002540D01*
X0102520Y0002531D01*
X0102542Y0002526D01*
X0102728Y0002478D01*
X0102811Y0002478D01*
X0102888Y0002472D01*
X0102970Y0002459D01*
X0103146Y0002476D01*
X0103161Y0002477D01*
X0103183Y0002478D01*
X0106618Y0002478D01*
X0106882Y0002401D01*
X0107018Y0002270D01*
X0107330Y0001825D01*
X0107947Y0001208D01*
X0108373Y0000910D01*
X0108545Y0000695D01*
X0108573Y0000421D01*
X0108449Y0000176D01*
X0108212Y0000036D01*
X0108093Y0000022D01*
X0064227Y0000022D01*
X0063963Y0000099D01*
X0063783Y0000307D01*
X0063743Y0000579D01*
X0063858Y0000830D01*
X0063918Y0000884D01*
X0063919Y0000890D01*
X0061718Y0003091D01*
X0061733Y0003093D01*
X0062258Y0003333D01*
X0062694Y0003711D01*
X0063007Y0004197D01*
X0063095Y0004498D01*
X0065311Y0002282D01*
X0065491Y0002540D01*
X0065859Y0003329D01*
X0065859Y0003330D01*
X0066085Y0004171D01*
X0066085Y0004171D01*
X0066161Y0005039D01*
X0066161Y0005039D01*
X0066085Y0005907D01*
X0066085Y0005908D01*
X0065859Y0006749D01*
X0065859Y0006749D01*
X0065491Y0007539D01*
X0065491Y0007539D01*
X0065311Y0007797D01*
X0065311Y0007797D01*
X0063095Y0005581D01*
X0063007Y0005882D01*
X0062694Y0006368D01*
X0062258Y0006746D01*
X0061733Y0006986D01*
X0061718Y0006988D01*
X0063919Y0009189D01*
X0063919Y0009189D01*
X0063661Y0009369D01*
X0063174Y0009596D01*
X0062968Y0009778D01*
X0062893Y0010042D01*
X0062972Y0010305D01*
X0063174Y0010481D01*
X0063662Y0010708D01*
X0064376Y0011208D01*
X0064993Y0011825D01*
X0065493Y0012539D01*
X0065861Y0013329D01*
X0066087Y0014171D01*
X0066159Y0014996D01*
X0066163Y0015039D01*
X0066163Y0015039D01*
X0066118Y0015549D01*
X0066087Y0015908D01*
X0065861Y0016750D01*
X0065846Y0016782D01*
X0065714Y0017065D01*
X0065493Y0017540D01*
X0064993Y0018254D01*
X0064376Y0018871D01*
X0063662Y0019371D01*
X0063177Y0019597D01*
X0062970Y0019779D01*
X0062895Y0020043D01*
X0062975Y0020307D01*
X0063177Y0020482D01*
X0063252Y0020517D01*
X0063662Y0020708D01*
X0064376Y0021208D01*
X0064993Y0021825D01*
X0065493Y0022539D01*
X0065861Y0023329D01*
X0066087Y0024171D01*
X0066163Y0025039D01*
X0066160Y0025067D01*
X0066214Y0025337D01*
X0066406Y0025535D01*
X0066674Y0025597D01*
X0066933Y0025505D01*
X0066992Y0025455D01*
X0072709Y0019737D01*
X0072841Y0019496D01*
X0072852Y0019392D01*
X0072852Y0015150D01*
X0072828Y0014996D01*
X0072695Y0014597D01*
X0072656Y0014206D01*
X0072656Y0011857D01*
X0072656Y0011857D01*
X0072695Y0011466D01*
X0072695Y0011466D01*
X0072905Y0010832D01*
X0072906Y0010832D01*
X0073256Y0010264D01*
X0073256Y0010264D01*
X0073728Y0009791D01*
X0073728Y0009791D01*
X0074296Y0009441D01*
X0074296Y0009441D01*
X0074296Y0009441D01*
X0074930Y0009231D01*
X0075321Y0009191D01*
X0077474Y0009191D01*
X0077474Y0009191D01*
X0077474Y0009191D01*
X0077801Y0009224D01*
X0077865Y0009231D01*
X0078499Y0009441D01*
X0079067Y0009791D01*
X0079105Y0009829D01*
X0079346Y0009961D01*
X0079621Y0009942D01*
X0079795Y0009829D01*
X0079832Y0009793D01*
X0079832Y0009793D01*
X0080400Y0009443D01*
X0080400Y0009443D01*
X0081033Y0009233D01*
X0081424Y0009193D01*
X0081516Y0009193D01*
X0081516Y0012047D01*
X0083484Y0012047D01*
X0083484Y0009193D01*
X0083576Y0009193D01*
X0083576Y0009193D01*
X0083967Y0009233D01*
X0084600Y0009443D01*
X0084600Y0009443D01*
X0085168Y0009793D01*
X0085168Y0009793D01*
X0085640Y0010265D01*
X0085640Y0010265D01*
X0085990Y0010833D01*
X0085990Y0010833D01*
X0086200Y0011466D01*
X0086240Y0011857D01*
X0086240Y0011857D01*
X0086240Y0012047D01*
X0083484Y0012047D01*
X0081516Y0012047D01*
X0081516Y0013528D01*
X0081593Y0013791D01*
X0081801Y0013972D01*
X0082004Y0014016D01*
X0086240Y0014016D01*
X0086240Y0014206D01*
X0086240Y0014206D01*
X0086200Y0014597D01*
X0086195Y0014623D01*
X0086200Y0014624D01*
X0086192Y0014869D01*
X0086332Y0015106D01*
X0086578Y0015229D01*
X0086664Y0015236D01*
X0087146Y0015236D01*
X0087146Y0020157D01*
X0080431Y0020157D01*
X0080167Y0020235D01*
X0079987Y0020443D01*
X0079943Y0020646D01*
X0079943Y0020746D01*
X0079949Y0020822D01*
X0079953Y0020845D01*
X0079958Y0020876D01*
X0079943Y0021149D01*
X0079943Y0021162D01*
X0079943Y0021249D01*
X0079943Y0021249D01*
X0079934Y0021335D01*
X0079933Y0021348D01*
X0079919Y0021621D01*
X0079919Y0021621D01*
X0079904Y0021674D01*
X0079890Y0021749D01*
X0079885Y0021804D01*
X0079885Y0021804D01*
X0079885Y0021804D01*
X0079800Y0022064D01*
X0079796Y0022076D01*
X0079783Y0022126D01*
X0079726Y0022341D01*
X0079701Y0022390D01*
X0079671Y0022460D01*
X0079654Y0022513D01*
X0079654Y0022513D01*
X0079634Y0022547D01*
X0079569Y0022792D01*
X0079569Y0025267D01*
X0079569Y0025267D01*
X0079569Y0025267D01*
X0079544Y0025502D01*
X0079508Y0025597D01*
X0079346Y0026033D01*
X0079346Y0026033D01*
X0079346Y0026033D01*
X0079331Y0026059D01*
X0079272Y0026293D01*
X0079272Y0027047D01*
X0081240Y0027047D01*
X0081240Y0022126D01*
X0083209Y0022126D01*
X0083209Y0027047D01*
X0085177Y0027047D01*
X0085177Y0022126D01*
X0087146Y0022126D01*
X0087146Y0027047D01*
X0086662Y0027047D01*
X0086428Y0027022D01*
X0086428Y0027022D01*
X0086332Y0026986D01*
X0086058Y0026967D01*
X0085991Y0026986D01*
X0085895Y0027022D01*
X0085895Y0027022D01*
X0085661Y0027047D01*
X0085177Y0027047D01*
X0083209Y0027047D01*
X0082725Y0027047D01*
X0082491Y0027022D01*
X0082491Y0027022D01*
X0082395Y0026986D01*
X0082121Y0026967D01*
X0082054Y0026986D01*
X0081958Y0027022D01*
X0081958Y0027022D01*
X0081724Y0027047D01*
X0081240Y0027047D01*
X0079272Y0027047D01*
X0078788Y0027047D01*
X0078554Y0027022D01*
X0078554Y0027022D01*
X0078461Y0026987D01*
X0078186Y0026968D01*
X0078120Y0026987D01*
X0078022Y0027024D01*
X0078022Y0027024D01*
X0077787Y0027049D01*
X0077787Y0027049D01*
X0077787Y0027049D01*
X0077787Y0027049D01*
X0075627Y0027049D01*
X0075363Y0027127D01*
X0075282Y0027192D01*
X0074095Y0028379D01*
X0073963Y0028621D01*
X0073983Y0028895D01*
X0074148Y0029115D01*
X0074406Y0029211D01*
X0074440Y0029213D01*
X0085177Y0029213D01*
X0085177Y0050866D01*
X0070958Y0050866D01*
X0070694Y0050944D01*
X0070514Y0051152D01*
X0070475Y0051424D01*
X0070589Y0051674D01*
X0070804Y0051818D01*
X0070871Y0051840D01*
X0071176Y0051941D01*
X0071744Y0052291D01*
X0072216Y0052764D01*
X0072567Y0053332D01*
X0072660Y0053613D01*
X0072817Y0053839D01*
X0073071Y0053945D01*
X0073342Y0053897D01*
X0073514Y0053752D01*
X0073633Y0053594D01*
X0073633Y0053594D01*
X0074086Y0053255D01*
X0074086Y0053255D01*
X0074617Y0053057D01*
X0074617Y0053057D01*
X0074851Y0053032D01*
X0074851Y0053031D01*
X0075335Y0053031D01*
X0075335Y0057953D01*
X0073071Y0057953D01*
X0073036Y0057918D01*
X0072795Y0057786D01*
X0072520Y0057806D01*
X0072300Y0057971D01*
X0072275Y0058007D01*
X0072216Y0058103D01*
X0072178Y0058140D01*
X0072047Y0058382D01*
X0072066Y0058656D01*
X0072179Y0058831D01*
X0072215Y0058867D01*
X0072565Y0059435D01*
X0072565Y0059435D01*
X0072615Y0059587D01*
X0072772Y0059813D01*
X0073026Y0059918D01*
X0073079Y0059921D01*
X0076518Y0059921D01*
X0076782Y0059844D01*
G37*
G36*
X0066086Y0052414D02*
G01*
X0066097Y0052403D01*
X0066208Y0052291D01*
X0066208Y0052291D01*
X0066208Y0052291D01*
X0066777Y0051941D01*
X0066777Y0051941D01*
X0066777Y0051941D01*
X0067411Y0051731D01*
X0067802Y0051691D01*
X0069367Y0051691D01*
X0069631Y0051613D01*
X0069811Y0051406D01*
X0069850Y0051133D01*
X0069736Y0050883D01*
X0069538Y0050745D01*
X0069263Y0050643D01*
X0069263Y0050643D01*
X0068810Y0050304D01*
X0068810Y0050304D01*
X0068471Y0049851D01*
X0068471Y0049851D01*
X0068273Y0049320D01*
X0068273Y0049320D01*
X0068248Y0049086D01*
X0068248Y0044145D01*
X0068171Y0043881D01*
X0067963Y0043701D01*
X0067690Y0043662D01*
X0067440Y0043776D01*
X0067415Y0043800D01*
X0066287Y0044927D01*
X0066155Y0045169D01*
X0066146Y0045230D01*
X0066087Y0045908D01*
X0065861Y0046750D01*
X0065493Y0047540D01*
X0064993Y0048254D01*
X0064376Y0048871D01*
X0063662Y0049371D01*
X0063177Y0049597D01*
X0062970Y0049779D01*
X0062895Y0050043D01*
X0062975Y0050307D01*
X0063177Y0050482D01*
X0063204Y0050495D01*
X0063662Y0050708D01*
X0064376Y0051208D01*
X0064993Y0051825D01*
X0065352Y0052338D01*
X0065567Y0052509D01*
X0065840Y0052538D01*
X0066086Y0052414D01*
G37*
G36*
X0033888Y0050540D02*
G01*
X0034088Y0050356D01*
X0034350Y0049922D01*
X0034716Y0049556D01*
X0034848Y0049314D01*
X0034828Y0049040D01*
X0034663Y0048820D01*
X0034406Y0048724D01*
X0034371Y0048722D01*
X0033137Y0048722D01*
X0032873Y0048800D01*
X0032792Y0048865D01*
X0032789Y0048869D01*
X0032657Y0049110D01*
X0032677Y0049385D01*
X0032789Y0049559D01*
X0032825Y0049596D01*
X0033175Y0050163D01*
X0033175Y0050163D01*
X0033206Y0050257D01*
X0033363Y0050483D01*
X0033617Y0050589D01*
X0033888Y0050540D01*
G37*
G36*
X0064897Y0061227D02*
G01*
X0065085Y0061026D01*
X0065138Y0060806D01*
X0065138Y0060459D01*
X0065138Y0060459D01*
X0065178Y0060068D01*
X0065388Y0059435D01*
X0065388Y0059435D01*
X0065732Y0058877D01*
X0065804Y0058612D01*
X0065722Y0058350D01*
X0065511Y0058173D01*
X0065238Y0058139D01*
X0064990Y0058258D01*
X0064971Y0058276D01*
X0064376Y0058871D01*
X0064279Y0058939D01*
X0063662Y0059371D01*
X0063535Y0059430D01*
X0063174Y0059598D01*
X0062968Y0059780D01*
X0062893Y0060044D01*
X0062972Y0060308D01*
X0063174Y0060483D01*
X0063661Y0060710D01*
X0063661Y0060710D01*
X0064370Y0061206D01*
X0064630Y0061294D01*
X0064897Y0061227D01*
G37*
G36*
X0068178Y0071023D02*
G01*
X0068358Y0070815D01*
X0068397Y0070543D01*
X0068356Y0070406D01*
X0068349Y0070390D01*
X0068132Y0069735D01*
X0068132Y0069735D01*
X0068091Y0069331D01*
X0068091Y0069134D01*
X0077652Y0069134D01*
X0077786Y0069094D01*
X0081638Y0069094D01*
X0081902Y0069017D01*
X0082082Y0068809D01*
X0082126Y0068606D01*
X0082126Y0067614D01*
X0082048Y0067350D01*
X0081841Y0067170D01*
X0081638Y0067126D01*
X0076403Y0067126D01*
X0076269Y0067165D01*
X0068091Y0067165D01*
X0068091Y0066969D01*
X0068132Y0066564D01*
X0068346Y0065917D01*
X0068356Y0065642D01*
X0068215Y0065406D01*
X0067969Y0065283D01*
X0067883Y0065276D01*
X0067802Y0065276D01*
X0067802Y0065276D01*
X0067411Y0065236D01*
X0066765Y0065022D01*
X0066490Y0065012D01*
X0066254Y0065153D01*
X0066131Y0065399D01*
X0066125Y0065443D01*
X0066085Y0065907D01*
X0066085Y0065908D01*
X0065859Y0066749D01*
X0065859Y0066749D01*
X0065491Y0067539D01*
X0065491Y0067539D01*
X0065311Y0067797D01*
X0065311Y0067797D01*
X0063095Y0065581D01*
X0063007Y0065882D01*
X0062694Y0066368D01*
X0062258Y0066746D01*
X0061733Y0066986D01*
X0061718Y0066988D01*
X0063919Y0069189D01*
X0063917Y0069206D01*
X0063775Y0069384D01*
X0063747Y0069657D01*
X0063871Y0069903D01*
X0064108Y0070042D01*
X0064227Y0070057D01*
X0064362Y0070057D01*
X0064596Y0070082D01*
X0065127Y0070280D01*
X0065581Y0070620D01*
X0065794Y0070905D01*
X0066014Y0071070D01*
X0066185Y0071100D01*
X0067914Y0071100D01*
X0068178Y0071023D01*
G37*
G36*
X0102374Y0070060D02*
G01*
X0102554Y0069852D01*
X0102598Y0069650D01*
X0102598Y0068657D01*
X0102521Y0068394D01*
X0102313Y0068213D01*
X0102110Y0068169D01*
X0099193Y0068169D01*
X0099193Y0067929D01*
X0099115Y0067665D01*
X0098908Y0067485D01*
X0098705Y0067441D01*
X0093717Y0067441D01*
X0093453Y0067518D01*
X0093272Y0067726D01*
X0093228Y0067929D01*
X0093228Y0068921D01*
X0093306Y0069185D01*
X0093514Y0069365D01*
X0093717Y0069409D01*
X0097618Y0069409D01*
X0097618Y0069650D01*
X0097696Y0069914D01*
X0097904Y0070094D01*
X0098106Y0070138D01*
X0102110Y0070138D01*
X0102374Y0070060D01*
G37*
G36*
X0073421Y0098289D02*
G01*
X0073462Y0098260D01*
X0073475Y0098249D01*
X0073897Y0097984D01*
X0074080Y0097778D01*
X0074121Y0097506D01*
X0074010Y0097254D01*
X0073983Y0097225D01*
X0071745Y0094987D01*
X0071504Y0094856D01*
X0071400Y0094844D01*
X0066299Y0094844D01*
X0066035Y0094922D01*
X0065909Y0095038D01*
X0065858Y0095107D01*
X0065575Y0095481D01*
X0065575Y0095481D01*
X0065575Y0095481D01*
X0064927Y0096071D01*
X0064927Y0096071D01*
X0064183Y0096532D01*
X0064183Y0096532D01*
X0063366Y0096849D01*
X0062505Y0097010D01*
X0061629Y0097010D01*
X0060768Y0096849D01*
X0060324Y0096677D01*
X0059951Y0096532D01*
X0059951Y0096532D01*
X0059206Y0096071D01*
X0059206Y0096071D01*
X0058559Y0095481D01*
X0058031Y0094782D01*
X0058031Y0094782D01*
X0057641Y0093998D01*
X0057641Y0093998D01*
X0057401Y0093156D01*
X0057399Y0093142D01*
X0057396Y0093136D01*
X0057395Y0093134D01*
X0057394Y0093134D01*
X0057274Y0092897D01*
X0057036Y0092758D01*
X0056762Y0092770D01*
X0056537Y0092928D01*
X0056503Y0092976D01*
X0056457Y0093051D01*
X0056457Y0093051D01*
X0055984Y0093523D01*
X0055984Y0093524D01*
X0055416Y0093874D01*
X0055416Y0093874D01*
X0055416Y0093874D01*
X0055169Y0093956D01*
X0054782Y0094084D01*
X0054391Y0094124D01*
X0054391Y0094124D01*
X0053298Y0094124D01*
X0053035Y0094202D01*
X0052953Y0094267D01*
X0049688Y0097533D01*
X0049556Y0097774D01*
X0049575Y0098049D01*
X0049740Y0098269D01*
X0049998Y0098365D01*
X0050033Y0098366D01*
X0073157Y0098366D01*
X0073421Y0098289D01*
G37*
G36*
X0073126Y0113111D02*
G01*
X0073166Y0113082D01*
X0073180Y0113072D01*
X0073180Y0113072D01*
X0073781Y0112694D01*
X0074314Y0112508D01*
X0074452Y0112459D01*
X0074452Y0112459D01*
X0075157Y0112380D01*
X0075157Y0112380D01*
X0075157Y0112380D01*
X0075207Y0112385D01*
X0075356Y0112402D01*
X0075627Y0112355D01*
X0075755Y0112262D01*
X0075804Y0112214D01*
X0075936Y0111972D01*
X0075916Y0111698D01*
X0075751Y0111478D01*
X0075494Y0111381D01*
X0075459Y0111380D01*
X0075453Y0111380D01*
X0074747Y0111301D01*
X0074747Y0111301D01*
X0074077Y0111066D01*
X0073475Y0110688D01*
X0073462Y0110677D01*
X0073207Y0110573D01*
X0073157Y0110571D01*
X0040648Y0110571D01*
X0040384Y0110648D01*
X0040204Y0110856D01*
X0040159Y0111059D01*
X0040159Y0111917D01*
X0040237Y0112181D01*
X0040445Y0112362D01*
X0040702Y0112403D01*
X0040864Y0112384D01*
X0040906Y0112380D01*
X0040906Y0112380D01*
X0040906Y0112380D01*
X0041611Y0112459D01*
X0041611Y0112459D01*
X0041611Y0112459D01*
X0042282Y0112694D01*
X0042883Y0113072D01*
X0042883Y0113072D01*
X0042897Y0113082D01*
X0043151Y0113186D01*
X0043201Y0113189D01*
X0072862Y0113189D01*
X0073126Y0113111D01*
G37*
X0039724Y0125787D02*
G01*
G75*
G36*
X0070549Y0113385D02*
X0070192Y0113456D01*
X0069789Y0113726D01*
X0069763Y0113764D01*
X0069251Y0113995D01*
X0069028Y0113883D01*
X0068944Y0113827D01*
X0068621Y0113763D01*
X0066732Y0113763D01*
X0066409Y0113827D01*
X0066208Y0113961D01*
X0066075Y0113873D01*
X0065384Y0113735D01*
X0064693Y0113873D01*
X0064107Y0114264D01*
X0063715Y0114850D01*
X0063681Y0115020D01*
X0063091Y0114980D01*
X0062988Y0114465D01*
X0062697Y0114029D01*
X0062261Y0113738D01*
X0061746Y0113635D01*
X0061195Y0113635D01*
X0061195Y0116318D01*
X0061195Y0119002D01*
X0061746Y0119002D01*
X0061915Y0118968D01*
X0062411Y0119325D01*
X0062455Y0119941D01*
X0062399Y0120003D01*
X0061922Y0120292D01*
X0061746Y0120257D01*
X0059069Y0120257D01*
X0058708Y0120329D01*
X0058402Y0120533D01*
X0058197Y0120839D01*
X0058126Y0121200D01*
X0058126Y0121328D01*
X0057535Y0121507D01*
X0057516Y0121479D01*
X0057256Y0121305D01*
X0056948Y0121244D01*
X0055374Y0121244D01*
X0055066Y0121305D01*
X0054806Y0121479D01*
X0054717Y0121612D01*
X0054513Y0121658D01*
X0054266Y0121658D01*
X0054061Y0121612D01*
X0053973Y0121479D01*
X0053712Y0121305D01*
X0053405Y0121244D01*
X0051830Y0121244D01*
X0051523Y0121305D01*
X0051433Y0121365D01*
X0051281Y0121264D01*
X0050590Y0121126D01*
X0049899Y0121264D01*
X0049363Y0120980D01*
X0049278Y0120849D01*
X0049324Y0120779D01*
X0049385Y0120472D01*
X0049385Y0118504D01*
X0049324Y0118196D01*
X0049150Y0117936D01*
X0049137Y0117928D01*
X0049136Y0117700D01*
X0049276Y0117310D01*
X0049456Y0117275D01*
X0049729Y0117092D01*
X0049895Y0116843D01*
X0050007Y0116827D01*
X0050503Y0116873D01*
X0050523Y0116972D01*
X0050793Y0117376D01*
X0051196Y0117645D01*
X0051673Y0117740D01*
X0051830Y0117740D01*
X0051830Y0115551D01*
X0053405Y0115551D01*
X0053405Y0117740D01*
X0053562Y0117740D01*
X0053715Y0117710D01*
X0054126Y0117781D01*
X0054356Y0118138D01*
X0054428Y0118500D01*
X0054820Y0119086D01*
X0055406Y0119478D01*
X0056097Y0119615D01*
X0056788Y0119478D01*
X0057374Y0119086D01*
X0057551Y0118822D01*
X0057685Y0118772D01*
X0058279Y0118716D01*
X0058554Y0118899D01*
X0059069Y0119002D01*
X0059620Y0119002D01*
X0059620Y0116318D01*
X0059620Y0113635D01*
X0059069Y0113635D01*
X0058554Y0113738D01*
X0058095Y0114010D01*
X0057822Y0113827D01*
X0057499Y0113763D01*
X0055610Y0113763D01*
X0055287Y0113827D01*
X0055203Y0113883D01*
X0054981Y0113995D01*
X0054468Y0113764D01*
X0054442Y0113726D01*
X0054039Y0113456D01*
X0053683Y0113385D01*
X0053741Y0112795D01*
X0070490Y0112795D01*
X0070549Y0113385D01*
D02*
G37*
G36*
X0051552Y0113385D02*
X0051196Y0113456D01*
X0050793Y0113726D01*
X0050523Y0114130D01*
X0050503Y0114229D01*
X0050007Y0114274D01*
X0049895Y0114258D01*
X0049729Y0114010D01*
X0049456Y0113827D01*
X0049133Y0113763D01*
X0047243Y0113763D01*
X0046921Y0113827D01*
X0046647Y0114010D01*
X0046548Y0114159D01*
X0046328Y0114206D01*
X0046111Y0114206D01*
X0045892Y0114159D01*
X0045792Y0114010D01*
X0045519Y0113827D01*
X0045196Y0113763D01*
X0043306Y0113763D01*
X0042984Y0113827D01*
X0042710Y0114010D01*
X0042153Y0113781D01*
X0041750Y0113511D01*
X0041118Y0113385D01*
X0041177Y0112795D01*
X0051494Y0112795D01*
X0051552Y0113385D01*
D02*
G37*
G36*
X0040772Y0121482D02*
X0040675Y0121969D01*
X0040813Y0122660D01*
X0041204Y0123246D01*
X0041790Y0123638D01*
X0042481Y0123775D01*
X0042722Y0124323D01*
X0042897Y0124583D01*
X0043157Y0124757D01*
X0043464Y0124818D01*
X0045039Y0124818D01*
X0045346Y0124757D01*
X0045607Y0124583D01*
X0045695Y0124451D01*
X0045900Y0124405D01*
X0046147Y0124405D01*
X0046351Y0124451D01*
X0046440Y0124583D01*
X0046700Y0124757D01*
X0047007Y0124818D01*
X0048582Y0124818D01*
X0048890Y0124757D01*
X0049150Y0124583D01*
X0049833Y0124558D01*
X0049899Y0124602D01*
X0050590Y0124739D01*
X0051281Y0124602D01*
X0051286Y0124599D01*
X0051523Y0124757D01*
X0051830Y0124818D01*
X0053405Y0124818D01*
X0053712Y0124757D01*
X0053973Y0124583D01*
X0054061Y0124451D01*
X0054266Y0124405D01*
X0054513Y0124405D01*
X0054717Y0124451D01*
X0054806Y0124583D01*
X0055066Y0124757D01*
X0055374Y0124818D01*
X0056948Y0124818D01*
X0057256Y0124757D01*
X0057516Y0124583D01*
X0057619Y0124428D01*
X0058324Y0124428D01*
X0058402Y0124545D01*
X0058708Y0124749D01*
X0059069Y0124821D01*
X0061746Y0124821D01*
X0062107Y0124749D01*
X0062413Y0124545D01*
X0063001Y0124560D01*
X0063308Y0124621D01*
X0065277Y0124621D01*
X0065584Y0124560D01*
X0065844Y0124386D01*
X0066409Y0124558D01*
X0066732Y0124622D01*
X0068622Y0124622D01*
X0068944Y0124558D01*
X0069218Y0124375D01*
X0069317Y0124226D01*
X0069537Y0124179D01*
X0069754Y0124179D01*
X0069973Y0124226D01*
X0070073Y0124375D01*
X0070346Y0124558D01*
X0070669Y0124622D01*
X0072559Y0124622D01*
X0072881Y0124558D01*
X0073155Y0124375D01*
X0073682Y0124650D01*
X0074312Y0125071D01*
X0074944Y0125196D01*
X0074886Y0125787D01*
X0039724Y0125787D01*
X0039724Y0121565D01*
X0040217Y0121248D01*
X0040772Y0121482D01*
D02*
G37*
D26*
X0050541Y0122982D02*
X0050590Y0122933D01*
X0050305Y0122982D02*
X0052470Y0122982D01*
X0047733Y0123290D02*
X0048041Y0122982D01*
X0052470Y0122982D02*
X0052778Y0123290D01*
X0048041Y0122982D02*
X0050541Y0122982D01*
X0050255Y0122933D02*
X0050305Y0122982D01*
X0068464Y0116470D02*
X0068464Y0116338D01*
X0070433Y0118643D02*
X0070433Y0118439D01*
X0067677Y0115551D02*
X0068464Y0116338D01*
X0071220Y0119430D02*
X0071424Y0119430D01*
X0068464Y0116470D02*
X0070433Y0118439D01*
X0070433Y0118643D02*
X0071220Y0119430D01*
X0067480Y0119430D02*
X0067677Y0119627D01*
X0067677Y0122834D02*
X0067677Y0119627D01*
X0065384Y0115551D02*
X0067677Y0115551D01*
X0064419Y0119459D02*
X0067852Y0119459D01*
X0064391Y0119488D02*
X0064419Y0119459D01*
X0056456Y0123425D02*
X0059803Y0123425D01*
X0060998Y0123031D02*
X0064391Y0123031D01*
X0060506Y0122539D02*
X0060998Y0123031D01*
X0071494Y0123039D02*
X0075157Y0123039D01*
X0065379Y0115546D02*
X0065384Y0115541D01*
X0042481Y0121969D02*
X0042783Y0122270D01*
X0043661Y0122270D01*
X0043661Y0122305D02*
X0043661Y0122270D01*
X0043661Y0122305D02*
X0044055Y0122699D01*
X0044252Y0123031D02*
X0044252Y0119488D01*
X0041206Y0118902D02*
X0043464Y0116645D01*
X0043464Y0116338D01*
X0040905Y0119488D02*
X0041069Y0119488D01*
X0041206Y0119351D02*
X0041206Y0118902D01*
X0041069Y0119488D02*
X0041206Y0119351D01*
X0043464Y0116338D02*
X0044252Y0115551D01*
X0047893Y0119193D02*
X0047893Y0115846D01*
X0047598Y0119488D02*
X0047893Y0119193D01*
X0047893Y0115846D02*
X0048189Y0115551D01*
D17*
X0058031Y0113189D02*
D03*
X0058031Y0125393D02*
D03*
D16*
X0040118Y0123326D02*
D03*
D31*
X0072007Y0116291D02*
X0075007Y0119291D01*
X0072007Y0116291D02*
X0072007Y0115944D01*
X0075007Y0119291D02*
X0075157Y0119291D01*
X0071614Y0115551D02*
X0072007Y0115944D01*
X0056456Y0115782D02*
X0056670Y0115568D01*
X0056097Y0117596D02*
X0056456Y0117237D01*
X0056456Y0115782D01*
X0056097Y0117809D02*
X0056097Y0117596D01*
D15*
X0075157Y0115551D02*
D03*
X0075157Y0119291D02*
D03*
X0075157Y0123031D02*
D03*
X0040905Y0119094D02*
D03*
X0040905Y0115551D02*
D03*
X0050590Y0122933D02*
D03*
X0065384Y0115541D02*
D03*
X0056097Y0117809D02*
D03*
X0042481Y0121969D02*
D03*
X0040964Y0124502D02*
D03*
X0053666Y0119940D02*
D03*
X0050927Y0118884D02*
D03*
D44*
X0067677Y0115551D02*
D03*
X0071614Y0115551D02*
D03*
X0056554Y0115551D02*
D03*
X0052617Y0115551D02*
D03*
X0048188Y0115551D02*
D03*
X0044251Y0115551D02*
D03*
X0067677Y0122834D02*
D03*
X0071614Y0122834D02*
D03*
D45*
X0064292Y0123031D02*
D03*
X0064292Y0119488D02*
D03*
D46*
X0060407Y0116318D02*
D03*
X0060407Y0122539D02*
D03*
D47*
X0047795Y0119488D02*
D03*
X0044252Y0119488D02*
D03*
X0056161Y0123031D02*
D03*
X0052618Y0123031D02*
D03*
X0071023Y0119430D02*
D03*
X0067480Y0119430D02*
D03*
X0044252Y0123031D02*
D03*
X0047795Y0123031D02*
D03*
X0040020Y0110965D02*
G01*
G75*
G36*
X0070845Y0098563D02*
X0070488Y0098634D01*
X0070085Y0098904D01*
X0070059Y0098942D01*
X0069547Y0099173D01*
X0069324Y0099061D01*
X0069240Y0099005D01*
X0068917Y0098941D01*
X0067028Y0098941D01*
X0066705Y0099005D01*
X0066504Y0099139D01*
X0066371Y0099051D01*
X0065680Y0098913D01*
X0064989Y0099051D01*
X0064403Y0099442D01*
X0064011Y0100028D01*
X0063977Y0100198D01*
X0063387Y0100158D01*
X0063284Y0099643D01*
X0062993Y0099207D01*
X0062557Y0098916D01*
X0062042Y0098813D01*
X0061491Y0098813D01*
X0061491Y0101496D01*
X0061491Y0104180D01*
X0062042Y0104180D01*
X0062211Y0104146D01*
X0062707Y0104503D01*
X0062751Y0105119D01*
X0062695Y0105181D01*
X0062218Y0105470D01*
X0062042Y0105435D01*
X0059365Y0105435D01*
X0059004Y0105507D01*
X0058698Y0105711D01*
X0058493Y0106017D01*
X0058422Y0106378D01*
X0058422Y0106506D01*
X0057831Y0106685D01*
X0057812Y0106657D01*
X0057552Y0106483D01*
X0057244Y0106422D01*
X0055670Y0106422D01*
X0055362Y0106483D01*
X0055102Y0106657D01*
X0055013Y0106790D01*
X0054809Y0106836D01*
X0054562Y0106836D01*
X0054357Y0106790D01*
X0054269Y0106657D01*
X0054008Y0106483D01*
X0053701Y0106422D01*
X0052126Y0106422D01*
X0051819Y0106483D01*
X0051729Y0106543D01*
X0051577Y0106442D01*
X0050886Y0106304D01*
X0050195Y0106442D01*
X0049659Y0106158D01*
X0049574Y0106027D01*
X0049620Y0105957D01*
X0049681Y0105650D01*
X0049681Y0103682D01*
X0049620Y0103374D01*
X0049446Y0103114D01*
X0049433Y0103106D01*
X0049432Y0102878D01*
X0049572Y0102488D01*
X0049752Y0102453D01*
X0050025Y0102270D01*
X0050191Y0102021D01*
X0050303Y0102005D01*
X0050799Y0102051D01*
X0050819Y0102150D01*
X0051089Y0102554D01*
X0051492Y0102823D01*
X0051969Y0102918D01*
X0052126Y0102918D01*
X0052126Y0100729D01*
X0053701Y0100729D01*
X0053701Y0102918D01*
X0053858Y0102918D01*
X0054011Y0102888D01*
X0054422Y0102959D01*
X0054652Y0103316D01*
X0054724Y0103678D01*
X0055116Y0104264D01*
X0055702Y0104656D01*
X0056393Y0104793D01*
X0057084Y0104656D01*
X0057670Y0104264D01*
X0057847Y0104000D01*
X0057981Y0103950D01*
X0058575Y0103894D01*
X0058850Y0104077D01*
X0059365Y0104180D01*
X0059916Y0104180D01*
X0059916Y0101496D01*
X0059916Y0098813D01*
X0059365Y0098813D01*
X0058850Y0098916D01*
X0058391Y0099188D01*
X0058118Y0099005D01*
X0057795Y0098941D01*
X0055906Y0098941D01*
X0055583Y0099005D01*
X0055499Y0099061D01*
X0055277Y0099173D01*
X0054764Y0098942D01*
X0054738Y0098904D01*
X0054335Y0098634D01*
X0053979Y0098563D01*
X0054037Y0097973D01*
X0070786Y0097973D01*
X0070845Y0098563D01*
D02*
G37*
G36*
X0051848Y0098563D02*
X0051492Y0098634D01*
X0051089Y0098904D01*
X0050819Y0099308D01*
X0050799Y0099407D01*
X0050303Y0099452D01*
X0050191Y0099436D01*
X0050025Y0099188D01*
X0049752Y0099005D01*
X0049429Y0098941D01*
X0047539Y0098941D01*
X0047217Y0099005D01*
X0046943Y0099188D01*
X0046844Y0099337D01*
X0046624Y0099384D01*
X0046407Y0099384D01*
X0046188Y0099337D01*
X0046088Y0099188D01*
X0045815Y0099005D01*
X0045492Y0098941D01*
X0043602Y0098941D01*
X0043280Y0099005D01*
X0043006Y0099188D01*
X0042449Y0098959D01*
X0042046Y0098689D01*
X0041414Y0098563D01*
X0041473Y0097973D01*
X0051790Y0097973D01*
X0051848Y0098563D01*
D02*
G37*
G36*
X0041068Y0106660D02*
X0040971Y0107147D01*
X0041109Y0107838D01*
X0041500Y0108424D01*
X0042086Y0108816D01*
X0042777Y0108953D01*
X0043018Y0109501D01*
X0043193Y0109761D01*
X0043453Y0109935D01*
X0043760Y0109996D01*
X0045335Y0109996D01*
X0045642Y0109935D01*
X0045903Y0109761D01*
X0045991Y0109629D01*
X0046196Y0109583D01*
X0046443Y0109583D01*
X0046647Y0109629D01*
X0046736Y0109761D01*
X0046996Y0109935D01*
X0047303Y0109996D01*
X0048878Y0109996D01*
X0049186Y0109935D01*
X0049446Y0109761D01*
X0050129Y0109736D01*
X0050195Y0109780D01*
X0050886Y0109917D01*
X0051577Y0109780D01*
X0051582Y0109777D01*
X0051819Y0109935D01*
X0052126Y0109996D01*
X0053701Y0109996D01*
X0054008Y0109935D01*
X0054269Y0109761D01*
X0054357Y0109629D01*
X0054562Y0109583D01*
X0054809Y0109583D01*
X0055013Y0109629D01*
X0055102Y0109761D01*
X0055362Y0109935D01*
X0055670Y0109996D01*
X0057244Y0109996D01*
X0057552Y0109935D01*
X0057812Y0109761D01*
X0057915Y0109606D01*
X0058620Y0109606D01*
X0058698Y0109723D01*
X0059004Y0109927D01*
X0059365Y0109999D01*
X0062042Y0109999D01*
X0062403Y0109927D01*
X0062709Y0109723D01*
X0063297Y0109738D01*
X0063604Y0109799D01*
X0065573Y0109799D01*
X0065880Y0109738D01*
X0066140Y0109564D01*
X0066705Y0109736D01*
X0067028Y0109800D01*
X0068918Y0109800D01*
X0069240Y0109736D01*
X0069514Y0109553D01*
X0069613Y0109404D01*
X0069833Y0109357D01*
X0070050Y0109357D01*
X0070269Y0109404D01*
X0070369Y0109553D01*
X0070642Y0109736D01*
X0070965Y0109800D01*
X0072855Y0109800D01*
X0073177Y0109736D01*
X0073451Y0109553D01*
X0073978Y0109828D01*
X0074608Y0110249D01*
X0075240Y0110374D01*
X0075182Y0110965D01*
X0040020Y0110965D01*
X0040020Y0106743D01*
X0040513Y0106426D01*
X0041068Y0106660D01*
D02*
G37*
D26*
X0050837Y0108160D02*
X0050886Y0108111D01*
X0050601Y0108160D02*
X0052766Y0108160D01*
X0048029Y0108468D02*
X0048337Y0108160D01*
X0052766Y0108160D02*
X0053074Y0108468D01*
X0048337Y0108160D02*
X0050837Y0108160D01*
X0050551Y0108111D02*
X0050601Y0108160D01*
X0068760Y0101648D02*
X0068760Y0101516D01*
X0070729Y0103821D02*
X0070729Y0103617D01*
X0067973Y0100729D02*
X0068760Y0101516D01*
X0071516Y0104608D02*
X0071720Y0104608D01*
X0068760Y0101648D02*
X0070729Y0103617D01*
X0070729Y0103821D02*
X0071516Y0104608D01*
X0067776Y0104608D02*
X0067973Y0104805D01*
X0067973Y0108012D02*
X0067973Y0104805D01*
X0065680Y0100729D02*
X0067973Y0100729D01*
X0064715Y0104637D02*
X0068148Y0104637D01*
X0064687Y0104666D02*
X0064715Y0104637D01*
X0056752Y0108603D02*
X0060099Y0108603D01*
X0061294Y0108209D02*
X0064687Y0108209D01*
X0060802Y0107717D02*
X0061294Y0108209D01*
X0071790Y0108217D02*
X0075453Y0108217D01*
X0065675Y0100724D02*
X0065680Y0100719D01*
X0042777Y0107147D02*
X0043079Y0107448D01*
X0043957Y0107448D01*
X0043957Y0107483D02*
X0043957Y0107448D01*
X0043957Y0107483D02*
X0044351Y0107877D01*
X0044548Y0108209D02*
X0044548Y0104666D01*
X0041502Y0104080D02*
X0043760Y0101823D01*
X0043760Y0101516D01*
X0041201Y0104666D02*
X0041365Y0104666D01*
X0041502Y0104529D02*
X0041502Y0104080D01*
X0041365Y0104666D02*
X0041502Y0104529D01*
X0043760Y0101516D02*
X0044548Y0100729D01*
X0048189Y0104371D02*
X0048189Y0101024D01*
X0047894Y0104666D02*
X0048189Y0104371D01*
X0048189Y0101024D02*
X0048485Y0100729D01*
D17*
X0058327Y0098367D02*
D03*
X0058327Y0110571D02*
D03*
D16*
X0040414Y0108504D02*
D03*
D31*
X0072303Y0101469D02*
X0075303Y0104469D01*
X0072303Y0101469D02*
X0072303Y0101122D01*
X0075303Y0104469D02*
X0075453Y0104469D01*
X0071910Y0100729D02*
X0072303Y0101122D01*
X0056752Y0100960D02*
X0056966Y0100746D01*
X0056393Y0102774D02*
X0056752Y0102415D01*
X0056752Y0100960D01*
X0056393Y0102987D02*
X0056393Y0102774D01*
D15*
X0075453Y0100729D02*
D03*
X0075453Y0104469D02*
D03*
X0075453Y0108209D02*
D03*
X0041201Y0104272D02*
D03*
X0041201Y0100729D02*
D03*
X0050886Y0108111D02*
D03*
X0065680Y0100719D02*
D03*
X0056393Y0102987D02*
D03*
X0042777Y0107147D02*
D03*
X0041260Y0109680D02*
D03*
X0053962Y0105118D02*
D03*
X0051223Y0104062D02*
D03*
D44*
X0067973Y0100729D02*
D03*
X0071910Y0100729D02*
D03*
X0056850Y0100729D02*
D03*
X0052913Y0100729D02*
D03*
X0048484Y0100729D02*
D03*
X0044547Y0100729D02*
D03*
X0067973Y0108012D02*
D03*
X0071910Y0108012D02*
D03*
D45*
X0064588Y0108209D02*
D03*
X0064588Y0104666D02*
D03*
D46*
X0060703Y0101496D02*
D03*
X0060703Y0107717D02*
D03*
D47*
X0048091Y0104666D02*
D03*
X0044548Y0104666D02*
D03*
X0056457Y0108209D02*
D03*
X0052914Y0108209D02*
D03*
X0071319Y0104608D02*
D03*
X0067776Y0104608D02*
D03*
X0044548Y0108209D02*
D03*
X0048091Y0108209D02*
D03*
M02*
