G04 #@! TF.GenerationSoftware,KiCad,Pcbnew,7.0.9-7.0.9~ubuntu22.04.1*
G04 #@! TF.CreationDate,2023-12-29T17:38:48+00:00*
G04 #@! TF.ProjectId,driver_test,64726976-6572-45f7-9465-73742e6b6963,rev?*
G04 #@! TF.SameCoordinates,Original*
G04 #@! TF.FileFunction,Copper,L1,Top*
G04 #@! TF.FilePolarity,Positive*
%FSLAX46Y46*%
G04 Gerber Fmt 4.6, Leading zero omitted, Abs format (unit mm)*
G04 Created by KiCad (PCBNEW 7.0.9-7.0.9~ubuntu22.04.1) date 2023-12-29 17:38:48*
%MOMM*%
%LPD*%
G01*
G04 APERTURE LIST*
G04 #@! TA.AperFunction,ComponentPad*
%ADD10C,1.400000*%
G04 #@! TD*
G04 #@! TA.AperFunction,ComponentPad*
%ADD11C,0.600000*%
G04 #@! TD*
G04 #@! TA.AperFunction,SMDPad,CuDef*
%ADD12O,0.200000X1.225000*%
G04 #@! TD*
G04 #@! TA.AperFunction,SMDPad,CuDef*
%ADD13O,9.300000X0.200000*%
G04 #@! TD*
G04 #@! TA.AperFunction,SMDPad,CuDef*
%ADD14R,0.650000X2.000000*%
G04 #@! TD*
G04 #@! TA.AperFunction,SMDPad,CuDef*
%ADD15R,8.100000X4.500000*%
G04 #@! TD*
G04 #@! TA.AperFunction,ComponentPad*
%ADD16R,1.530000X1.530000*%
G04 #@! TD*
G04 #@! TA.AperFunction,ComponentPad*
%ADD17C,1.530000*%
G04 #@! TD*
G04 #@! TA.AperFunction,ViaPad*
%ADD18C,0.800000*%
G04 #@! TD*
G04 #@! TA.AperFunction,Conductor*
%ADD19C,0.800000*%
G04 #@! TD*
G04 #@! TA.AperFunction,Conductor*
%ADD20C,1.000000*%
G04 #@! TD*
G04 #@! TA.AperFunction,Conductor*
%ADD21C,0.300000*%
G04 #@! TD*
G04 #@! TA.AperFunction,Conductor*
%ADD22C,0.250000*%
G04 #@! TD*
G04 APERTURE END LIST*
G04 #@! TO.P,R1,1*
G04 #@! TO.N,/DIS*
G04 #@! TA.AperFunction,SMDPad,CuDef*
G36*
G01*
X26265000Y3090000D02*
X25715000Y3090000D01*
G75*
G02*
X25515000Y3290000I0J200000D01*
G01*
X25515000Y3690000D01*
G75*
G02*
X25715000Y3890000I200000J0D01*
G01*
X26265000Y3890000D01*
G75*
G02*
X26465000Y3690000I0J-200000D01*
G01*
X26465000Y3290000D01*
G75*
G02*
X26265000Y3090000I-200000J0D01*
G01*
G37*
G04 #@! TD.AperFunction*
G04 #@! TO.P,R1,2*
G04 #@! TO.N,+3.3V*
G04 #@! TA.AperFunction,SMDPad,CuDef*
G36*
G01*
X26265000Y4740000D02*
X25715000Y4740000D01*
G75*
G02*
X25515000Y4940000I0J200000D01*
G01*
X25515000Y5340000D01*
G75*
G02*
X25715000Y5540000I200000J0D01*
G01*
X26265000Y5540000D01*
G75*
G02*
X26465000Y5340000I0J-200000D01*
G01*
X26465000Y4940000D01*
G75*
G02*
X26265000Y4740000I-200000J0D01*
G01*
G37*
G04 #@! TD.AperFunction*
G04 #@! TD*
D10*
G04 #@! TO.P,IN_KNOCK2,1,Pin_1*
G04 #@! TO.N,Net-(IN_KNOCK2-Pin_1)*
X7763000Y27485002D03*
G04 #@! TD*
G04 #@! TO.P,C20,1*
G04 #@! TO.N,GND*
G04 #@! TA.AperFunction,SMDPad,CuDef*
G36*
G01*
X5115000Y16680000D02*
X4165000Y16680000D01*
G75*
G02*
X3915000Y16930000I0J250000D01*
G01*
X3915000Y17430000D01*
G75*
G02*
X4165000Y17680000I250000J0D01*
G01*
X5115000Y17680000D01*
G75*
G02*
X5365000Y17430000I0J-250000D01*
G01*
X5365000Y16930000D01*
G75*
G02*
X5115000Y16680000I-250000J0D01*
G01*
G37*
G04 #@! TD.AperFunction*
G04 #@! TO.P,C20,2*
G04 #@! TO.N,+12VA*
G04 #@! TA.AperFunction,SMDPad,CuDef*
G36*
G01*
X5115000Y18580000D02*
X4165000Y18580000D01*
G75*
G02*
X3915000Y18830000I0J250000D01*
G01*
X3915000Y19330000D01*
G75*
G02*
X4165000Y19580000I250000J0D01*
G01*
X5115000Y19580000D01*
G75*
G02*
X5365000Y19330000I0J-250000D01*
G01*
X5365000Y18830000D01*
G75*
G02*
X5115000Y18580000I-250000J0D01*
G01*
G37*
G04 #@! TD.AperFunction*
G04 #@! TD*
G04 #@! TO.P,C18,1*
G04 #@! TO.N,GND*
G04 #@! TA.AperFunction,SMDPad,CuDef*
G36*
G01*
X7175000Y16680000D02*
X6225000Y16680000D01*
G75*
G02*
X5975000Y16930000I0J250000D01*
G01*
X5975000Y17430000D01*
G75*
G02*
X6225000Y17680000I250000J0D01*
G01*
X7175000Y17680000D01*
G75*
G02*
X7425000Y17430000I0J-250000D01*
G01*
X7425000Y16930000D01*
G75*
G02*
X7175000Y16680000I-250000J0D01*
G01*
G37*
G04 #@! TD.AperFunction*
G04 #@! TO.P,C18,2*
G04 #@! TO.N,+12VA*
G04 #@! TA.AperFunction,SMDPad,CuDef*
G36*
G01*
X7175000Y18580000D02*
X6225000Y18580000D01*
G75*
G02*
X5975000Y18830000I0J250000D01*
G01*
X5975000Y19330000D01*
G75*
G02*
X6225000Y19580000I250000J0D01*
G01*
X7175000Y19580000D01*
G75*
G02*
X7425000Y19330000I0J-250000D01*
G01*
X7425000Y18830000D01*
G75*
G02*
X7175000Y18580000I-250000J0D01*
G01*
G37*
G04 #@! TD.AperFunction*
G04 #@! TD*
G04 #@! TO.P,C16,1*
G04 #@! TO.N,GND*
G04 #@! TA.AperFunction,SMDPad,CuDef*
G36*
G01*
X3390000Y15715000D02*
X3390000Y14765000D01*
G75*
G02*
X3140000Y14515000I-250000J0D01*
G01*
X2640000Y14515000D01*
G75*
G02*
X2390000Y14765000I0J250000D01*
G01*
X2390000Y15715000D01*
G75*
G02*
X2640000Y15965000I250000J0D01*
G01*
X3140000Y15965000D01*
G75*
G02*
X3390000Y15715000I0J-250000D01*
G01*
G37*
G04 #@! TD.AperFunction*
G04 #@! TO.P,C16,2*
G04 #@! TO.N,+12VA*
G04 #@! TA.AperFunction,SMDPad,CuDef*
G36*
G01*
X1490000Y15715000D02*
X1490000Y14765000D01*
G75*
G02*
X1240000Y14515000I-250000J0D01*
G01*
X740000Y14515000D01*
G75*
G02*
X490000Y14765000I0J250000D01*
G01*
X490000Y15715000D01*
G75*
G02*
X740000Y15965000I250000J0D01*
G01*
X1240000Y15965000D01*
G75*
G02*
X1490000Y15715000I0J-250000D01*
G01*
G37*
G04 #@! TD.AperFunction*
G04 #@! TD*
G04 #@! TO.P,R6,1*
G04 #@! TO.N,+5V*
G04 #@! TA.AperFunction,SMDPad,CuDef*
G36*
G01*
X15338000Y30554002D02*
X15338000Y30004002D01*
G75*
G02*
X15138000Y29804002I-200000J0D01*
G01*
X14738000Y29804002D01*
G75*
G02*
X14538000Y30004002I0J200000D01*
G01*
X14538000Y30554002D01*
G75*
G02*
X14738000Y30754002I200000J0D01*
G01*
X15138000Y30754002D01*
G75*
G02*
X15338000Y30554002I0J-200000D01*
G01*
G37*
G04 #@! TD.AperFunction*
G04 #@! TO.P,R6,2*
G04 #@! TO.N,/VREF*
G04 #@! TA.AperFunction,SMDPad,CuDef*
G36*
G01*
X13688000Y30554002D02*
X13688000Y30004002D01*
G75*
G02*
X13488000Y29804002I-200000J0D01*
G01*
X13088000Y29804002D01*
G75*
G02*
X12888000Y30004002I0J200000D01*
G01*
X12888000Y30554002D01*
G75*
G02*
X13088000Y30754002I200000J0D01*
G01*
X13488000Y30754002D01*
G75*
G02*
X13688000Y30554002I0J-200000D01*
G01*
G37*
G04 #@! TD.AperFunction*
G04 #@! TD*
G04 #@! TO.P,R7,1*
G04 #@! TO.N,/VREF*
G04 #@! TA.AperFunction,SMDPad,CuDef*
G36*
G01*
X12290000Y30554002D02*
X12290000Y30004002D01*
G75*
G02*
X12090000Y29804002I-200000J0D01*
G01*
X11690000Y29804002D01*
G75*
G02*
X11490000Y30004002I0J200000D01*
G01*
X11490000Y30554002D01*
G75*
G02*
X11690000Y30754002I200000J0D01*
G01*
X12090000Y30754002D01*
G75*
G02*
X12290000Y30554002I0J-200000D01*
G01*
G37*
G04 #@! TD.AperFunction*
G04 #@! TO.P,R7,2*
G04 #@! TO.N,GND*
G04 #@! TA.AperFunction,SMDPad,CuDef*
G36*
G01*
X10640000Y30554002D02*
X10640000Y30004002D01*
G75*
G02*
X10440000Y29804002I-200000J0D01*
G01*
X10040000Y29804002D01*
G75*
G02*
X9840000Y30004002I0J200000D01*
G01*
X9840000Y30554002D01*
G75*
G02*
X10040000Y30754002I200000J0D01*
G01*
X10440000Y30754002D01*
G75*
G02*
X10640000Y30554002I0J-200000D01*
G01*
G37*
G04 #@! TD.AperFunction*
G04 #@! TD*
G04 #@! TO.P,R4,1*
G04 #@! TO.N,Net-(D1-A)*
G04 #@! TA.AperFunction,SMDPad,CuDef*
G36*
G01*
X11960000Y10315000D02*
X12510000Y10315000D01*
G75*
G02*
X12710000Y10115000I0J-200000D01*
G01*
X12710000Y9715000D01*
G75*
G02*
X12510000Y9515000I-200000J0D01*
G01*
X11960000Y9515000D01*
G75*
G02*
X11760000Y9715000I0J200000D01*
G01*
X11760000Y10115000D01*
G75*
G02*
X11960000Y10315000I200000J0D01*
G01*
G37*
G04 #@! TD.AperFunction*
G04 #@! TO.P,R4,2*
G04 #@! TO.N,/TPS2_IN*
G04 #@! TA.AperFunction,SMDPad,CuDef*
G36*
G01*
X11960000Y8665000D02*
X12510000Y8665000D01*
G75*
G02*
X12710000Y8465000I0J-200000D01*
G01*
X12710000Y8065000D01*
G75*
G02*
X12510000Y7865000I-200000J0D01*
G01*
X11960000Y7865000D01*
G75*
G02*
X11760000Y8065000I0J200000D01*
G01*
X11760000Y8465000D01*
G75*
G02*
X11960000Y8665000I200000J0D01*
G01*
G37*
G04 #@! TD.AperFunction*
G04 #@! TD*
G04 #@! TO.P,C22,1*
G04 #@! TO.N,GND*
G04 #@! TA.AperFunction,SMDPad,CuDef*
G36*
G01*
X21085000Y16800000D02*
X20135000Y16800000D01*
G75*
G02*
X19885000Y17050000I0J250000D01*
G01*
X19885000Y17550000D01*
G75*
G02*
X20135000Y17800000I250000J0D01*
G01*
X21085000Y17800000D01*
G75*
G02*
X21335000Y17550000I0J-250000D01*
G01*
X21335000Y17050000D01*
G75*
G02*
X21085000Y16800000I-250000J0D01*
G01*
G37*
G04 #@! TD.AperFunction*
G04 #@! TO.P,C22,2*
G04 #@! TO.N,+12VA*
G04 #@! TA.AperFunction,SMDPad,CuDef*
G36*
G01*
X21085000Y18700000D02*
X20135000Y18700000D01*
G75*
G02*
X19885000Y18950000I0J250000D01*
G01*
X19885000Y19450000D01*
G75*
G02*
X20135000Y19700000I250000J0D01*
G01*
X21085000Y19700000D01*
G75*
G02*
X21335000Y19450000I0J-250000D01*
G01*
X21335000Y18950000D01*
G75*
G02*
X21085000Y18700000I-250000J0D01*
G01*
G37*
G04 #@! TD.AperFunction*
G04 #@! TD*
D11*
G04 #@! TO.P,M1,E1,V5A*
G04 #@! TO.N,+5V*
X18588000Y28284003D03*
D12*
G04 #@! TO.P,M1,E2,GND*
G04 #@! TO.N,GND*
X9688000Y26309003D03*
D13*
X14238000Y28884003D03*
X14238000Y25784003D03*
D11*
X18588000Y27334003D03*
G04 #@! TO.P,M1,E3,OUT_KNOCK*
G04 #@! TO.N,Net-(M1-OUT_KNOCK)*
X18588000Y26384005D03*
G04 #@! TO.P,M1,W1,IN_KNOCK*
G04 #@! TO.N,Net-(IN_KNOCK2-Pin_1)*
X9888000Y27384003D03*
G04 #@! TO.P,M1,W2,VREF*
G04 #@! TO.N,/VREF*
X9888000Y28284003D03*
G04 #@! TD*
D10*
G04 #@! TO.P,IN_KNOCK1,1,Pin_1*
G04 #@! TO.N,Net-(IN_KNOCK1-Pin_1)*
X7763000Y23675002D03*
G04 #@! TD*
G04 #@! TO.P,D3,1,K*
G04 #@! TO.N,Net-(D1-A)*
G04 #@! TA.AperFunction,SMDPad,CuDef*
G36*
G01*
X12377500Y11200000D02*
X12152500Y11200000D01*
G75*
G02*
X12040000Y11312500I0J112500D01*
G01*
X12040000Y11687500D01*
G75*
G02*
X12152500Y11800000I112500J0D01*
G01*
X12377500Y11800000D01*
G75*
G02*
X12490000Y11687500I0J-112500D01*
G01*
X12490000Y11312500D01*
G75*
G02*
X12377500Y11200000I-112500J0D01*
G01*
G37*
G04 #@! TD.AperFunction*
G04 #@! TO.P,D3,2,A*
G04 #@! TO.N,GND*
G04 #@! TA.AperFunction,SMDPad,CuDef*
G36*
G01*
X12377500Y13300000D02*
X12152500Y13300000D01*
G75*
G02*
X12040000Y13412500I0J112500D01*
G01*
X12040000Y13787500D01*
G75*
G02*
X12152500Y13900000I112500J0D01*
G01*
X12377500Y13900000D01*
G75*
G02*
X12490000Y13787500I0J-112500D01*
G01*
X12490000Y13412500D01*
G75*
G02*
X12377500Y13300000I-112500J0D01*
G01*
G37*
G04 #@! TD.AperFunction*
G04 #@! TD*
G04 #@! TO.P,D2,1,K*
G04 #@! TO.N,+3.3V*
G04 #@! TA.AperFunction,SMDPad,CuDef*
G36*
G01*
X9482500Y7000000D02*
X9707500Y7000000D01*
G75*
G02*
X9820000Y6887500I0J-112500D01*
G01*
X9820000Y6512500D01*
G75*
G02*
X9707500Y6400000I-112500J0D01*
G01*
X9482500Y6400000D01*
G75*
G02*
X9370000Y6512500I0J112500D01*
G01*
X9370000Y6887500D01*
G75*
G02*
X9482500Y7000000I112500J0D01*
G01*
G37*
G04 #@! TD.AperFunction*
G04 #@! TO.P,D2,2,A*
G04 #@! TO.N,Net-(D2-A)*
G04 #@! TA.AperFunction,SMDPad,CuDef*
G36*
G01*
X9482500Y4900000D02*
X9707500Y4900000D01*
G75*
G02*
X9820000Y4787500I0J-112500D01*
G01*
X9820000Y4412500D01*
G75*
G02*
X9707500Y4300000I-112500J0D01*
G01*
X9482500Y4300000D01*
G75*
G02*
X9370000Y4412500I0J112500D01*
G01*
X9370000Y4787500D01*
G75*
G02*
X9482500Y4900000I112500J0D01*
G01*
G37*
G04 #@! TD.AperFunction*
G04 #@! TD*
G04 #@! TO.P,C13,1*
G04 #@! TO.N,GND*
G04 #@! TA.AperFunction,SMDPad,CuDef*
G36*
G01*
X21405000Y3560000D02*
X21405000Y3060000D01*
G75*
G02*
X21180000Y2835000I-225000J0D01*
G01*
X20730000Y2835000D01*
G75*
G02*
X20505000Y3060000I0J225000D01*
G01*
X20505000Y3560000D01*
G75*
G02*
X20730000Y3785000I225000J0D01*
G01*
X21180000Y3785000D01*
G75*
G02*
X21405000Y3560000I0J-225000D01*
G01*
G37*
G04 #@! TD.AperFunction*
G04 #@! TO.P,C13,2*
G04 #@! TO.N,/OUT+*
G04 #@! TA.AperFunction,SMDPad,CuDef*
G36*
G01*
X19855000Y3560000D02*
X19855000Y3060000D01*
G75*
G02*
X19630000Y2835000I-225000J0D01*
G01*
X19180000Y2835000D01*
G75*
G02*
X18955000Y3060000I0J225000D01*
G01*
X18955000Y3560000D01*
G75*
G02*
X19180000Y3785000I225000J0D01*
G01*
X19630000Y3785000D01*
G75*
G02*
X19855000Y3560000I0J-225000D01*
G01*
G37*
G04 #@! TD.AperFunction*
G04 #@! TD*
G04 #@! TO.P,OUT_KNOCK1,1,Pin_1*
G04 #@! TO.N,Net-(M2-OUT_KNOCK)*
X20717000Y22659002D03*
G04 #@! TD*
G04 #@! TO.P,C2,1*
G04 #@! TO.N,GND*
G04 #@! TA.AperFunction,SMDPad,CuDef*
G36*
G01*
X7265000Y13725000D02*
X7765000Y13725000D01*
G75*
G02*
X7990000Y13500000I0J-225000D01*
G01*
X7990000Y13050000D01*
G75*
G02*
X7765000Y12825000I-225000J0D01*
G01*
X7265000Y12825000D01*
G75*
G02*
X7040000Y13050000I0J225000D01*
G01*
X7040000Y13500000D01*
G75*
G02*
X7265000Y13725000I225000J0D01*
G01*
G37*
G04 #@! TD.AperFunction*
G04 #@! TO.P,C2,2*
G04 #@! TO.N,Net-(D1-A)*
G04 #@! TA.AperFunction,SMDPad,CuDef*
G36*
G01*
X7265000Y12175000D02*
X7765000Y12175000D01*
G75*
G02*
X7990000Y11950000I0J-225000D01*
G01*
X7990000Y11500000D01*
G75*
G02*
X7765000Y11275000I-225000J0D01*
G01*
X7265000Y11275000D01*
G75*
G02*
X7040000Y11500000I0J225000D01*
G01*
X7040000Y11950000D01*
G75*
G02*
X7265000Y12175000I225000J0D01*
G01*
G37*
G04 #@! TD.AperFunction*
G04 #@! TD*
D11*
G04 #@! TO.P,M2,E1,V5A*
G04 #@! TO.N,+5V*
X18588000Y24496000D03*
D12*
G04 #@! TO.P,M2,E2,GND*
G04 #@! TO.N,GND*
X9688000Y22521000D03*
D13*
X14238000Y25096000D03*
X14238000Y21996000D03*
D11*
X18588000Y23546000D03*
G04 #@! TO.P,M2,E3,OUT_KNOCK*
G04 #@! TO.N,Net-(M2-OUT_KNOCK)*
X18588000Y22596002D03*
G04 #@! TO.P,M2,W1,IN_KNOCK*
G04 #@! TO.N,Net-(IN_KNOCK1-Pin_1)*
X9888000Y23596000D03*
G04 #@! TO.P,M2,W2,VREF*
G04 #@! TO.N,/VREF*
X9888000Y24496000D03*
G04 #@! TD*
D10*
G04 #@! TO.P,OUT_KNOCK2,1,Pin_1*
G04 #@! TO.N,Net-(M1-OUT_KNOCK)*
X20717000Y26469002D03*
G04 #@! TD*
G04 #@! TO.P,C15,1*
G04 #@! TO.N,GND*
G04 #@! TA.AperFunction,SMDPad,CuDef*
G36*
G01*
X3085000Y16680000D02*
X2135000Y16680000D01*
G75*
G02*
X1885000Y16930000I0J250000D01*
G01*
X1885000Y17430000D01*
G75*
G02*
X2135000Y17680000I250000J0D01*
G01*
X3085000Y17680000D01*
G75*
G02*
X3335000Y17430000I0J-250000D01*
G01*
X3335000Y16930000D01*
G75*
G02*
X3085000Y16680000I-250000J0D01*
G01*
G37*
G04 #@! TD.AperFunction*
G04 #@! TO.P,C15,2*
G04 #@! TO.N,+12VA*
G04 #@! TA.AperFunction,SMDPad,CuDef*
G36*
G01*
X3085000Y18580000D02*
X2135000Y18580000D01*
G75*
G02*
X1885000Y18830000I0J250000D01*
G01*
X1885000Y19330000D01*
G75*
G02*
X2135000Y19580000I250000J0D01*
G01*
X3085000Y19580000D01*
G75*
G02*
X3335000Y19330000I0J-250000D01*
G01*
X3335000Y18830000D01*
G75*
G02*
X3085000Y18580000I-250000J0D01*
G01*
G37*
G04 #@! TD.AperFunction*
G04 #@! TD*
G04 #@! TO.P,D1,1,K*
G04 #@! TO.N,+3.3V*
G04 #@! TA.AperFunction,SMDPad,CuDef*
G36*
G01*
X9697500Y7880000D02*
X9472500Y7880000D01*
G75*
G02*
X9360000Y7992500I0J112500D01*
G01*
X9360000Y8367500D01*
G75*
G02*
X9472500Y8480000I112500J0D01*
G01*
X9697500Y8480000D01*
G75*
G02*
X9810000Y8367500I0J-112500D01*
G01*
X9810000Y7992500D01*
G75*
G02*
X9697500Y7880000I-112500J0D01*
G01*
G37*
G04 #@! TD.AperFunction*
G04 #@! TO.P,D1,2,A*
G04 #@! TO.N,Net-(D1-A)*
G04 #@! TA.AperFunction,SMDPad,CuDef*
G36*
G01*
X9697500Y9980000D02*
X9472500Y9980000D01*
G75*
G02*
X9360000Y10092500I0J112500D01*
G01*
X9360000Y10467500D01*
G75*
G02*
X9472500Y10580000I112500J0D01*
G01*
X9697500Y10580000D01*
G75*
G02*
X9810000Y10467500I0J-112500D01*
G01*
X9810000Y10092500D01*
G75*
G02*
X9697500Y9980000I-112500J0D01*
G01*
G37*
G04 #@! TD.AperFunction*
G04 #@! TD*
G04 #@! TO.P,PPS2_CPU1,1,Pin_1*
G04 #@! TO.N,Net-(D2-A)*
X5155000Y4520000D03*
G04 #@! TD*
D14*
G04 #@! TO.P,U2,1,DIR*
G04 #@! TO.N,/DIR*
X24385000Y14970000D03*
G04 #@! TO.P,U2,2,VSO*
G04 #@! TO.N,+3.3V*
X23385000Y14970000D03*
G04 #@! TO.P,U2,3,SO*
G04 #@! TO.N,unconnected-(U2-SO-Pad3)*
X22385000Y14970000D03*
G04 #@! TO.P,U2,4,VS*
G04 #@! TO.N,+12VA*
X21385000Y14970000D03*
G04 #@! TO.P,U2,5,OUT1*
G04 #@! TO.N,/OUT-*
X20385000Y14970000D03*
G04 #@! TO.P,U2,6,GND*
G04 #@! TO.N,GND*
X19385000Y14970000D03*
G04 #@! TO.P,U2,7,OUT2*
G04 #@! TO.N,/OUT+*
X19385000Y5370000D03*
G04 #@! TO.P,U2,8,SI*
G04 #@! TO.N,GND*
X20385000Y5370000D03*
G04 #@! TO.P,U2,9,CSN*
X21385000Y5370000D03*
G04 #@! TO.P,U2,10,SCK*
X22385000Y5370000D03*
G04 #@! TO.P,U2,11,DIS*
G04 #@! TO.N,/DIS*
X23385000Y5370000D03*
G04 #@! TO.P,U2,12,PWM*
G04 #@! TO.N,/PWM*
X24385000Y5370000D03*
D15*
G04 #@! TO.P,U2,13,GND*
G04 #@! TO.N,GND*
X21885000Y10170000D03*
G04 #@! TD*
G04 #@! TO.P,C1,1*
G04 #@! TO.N,GND*
G04 #@! TA.AperFunction,SMDPad,CuDef*
G36*
G01*
X13445000Y16680000D02*
X12495000Y16680000D01*
G75*
G02*
X12245000Y16930000I0J250000D01*
G01*
X12245000Y17430000D01*
G75*
G02*
X12495000Y17680000I250000J0D01*
G01*
X13445000Y17680000D01*
G75*
G02*
X13695000Y17430000I0J-250000D01*
G01*
X13695000Y16930000D01*
G75*
G02*
X13445000Y16680000I-250000J0D01*
G01*
G37*
G04 #@! TD.AperFunction*
G04 #@! TO.P,C1,2*
G04 #@! TO.N,+12VA*
G04 #@! TA.AperFunction,SMDPad,CuDef*
G36*
G01*
X13445000Y18580000D02*
X12495000Y18580000D01*
G75*
G02*
X12245000Y18830000I0J250000D01*
G01*
X12245000Y19330000D01*
G75*
G02*
X12495000Y19580000I250000J0D01*
G01*
X13445000Y19580000D01*
G75*
G02*
X13695000Y19330000I0J-250000D01*
G01*
X13695000Y18830000D01*
G75*
G02*
X13445000Y18580000I-250000J0D01*
G01*
G37*
G04 #@! TD.AperFunction*
G04 #@! TD*
G04 #@! TO.P,C12,1*
G04 #@! TO.N,GND*
G04 #@! TA.AperFunction,SMDPad,CuDef*
G36*
G01*
X17270000Y16080000D02*
X17770000Y16080000D01*
G75*
G02*
X17995000Y15855000I0J-225000D01*
G01*
X17995000Y15405000D01*
G75*
G02*
X17770000Y15180000I-225000J0D01*
G01*
X17270000Y15180000D01*
G75*
G02*
X17045000Y15405000I0J225000D01*
G01*
X17045000Y15855000D01*
G75*
G02*
X17270000Y16080000I225000J0D01*
G01*
G37*
G04 #@! TD.AperFunction*
G04 #@! TO.P,C12,2*
G04 #@! TO.N,/OUT-*
G04 #@! TA.AperFunction,SMDPad,CuDef*
G36*
G01*
X17270000Y14530000D02*
X17770000Y14530000D01*
G75*
G02*
X17995000Y14305000I0J-225000D01*
G01*
X17995000Y13855000D01*
G75*
G02*
X17770000Y13630000I-225000J0D01*
G01*
X17270000Y13630000D01*
G75*
G02*
X17045000Y13855000I0J225000D01*
G01*
X17045000Y14305000D01*
G75*
G02*
X17270000Y14530000I225000J0D01*
G01*
G37*
G04 #@! TD.AperFunction*
G04 #@! TD*
G04 #@! TO.P,C21,1*
G04 #@! TO.N,GND*
G04 #@! TA.AperFunction,SMDPad,CuDef*
G36*
G01*
X9265000Y16670000D02*
X8315000Y16670000D01*
G75*
G02*
X8065000Y16920000I0J250000D01*
G01*
X8065000Y17420000D01*
G75*
G02*
X8315000Y17670000I250000J0D01*
G01*
X9265000Y17670000D01*
G75*
G02*
X9515000Y17420000I0J-250000D01*
G01*
X9515000Y16920000D01*
G75*
G02*
X9265000Y16670000I-250000J0D01*
G01*
G37*
G04 #@! TD.AperFunction*
G04 #@! TO.P,C21,2*
G04 #@! TO.N,+12VA*
G04 #@! TA.AperFunction,SMDPad,CuDef*
G36*
G01*
X9265000Y18570000D02*
X8315000Y18570000D01*
G75*
G02*
X8065000Y18820000I0J250000D01*
G01*
X8065000Y19320000D01*
G75*
G02*
X8315000Y19570000I250000J0D01*
G01*
X9265000Y19570000D01*
G75*
G02*
X9515000Y19320000I0J-250000D01*
G01*
X9515000Y18820000D01*
G75*
G02*
X9265000Y18570000I-250000J0D01*
G01*
G37*
G04 #@! TD.AperFunction*
G04 #@! TD*
G04 #@! TO.P,C3,1*
G04 #@! TO.N,GND*
G04 #@! TA.AperFunction,SMDPad,CuDef*
G36*
G01*
X12495000Y1285000D02*
X11995000Y1285000D01*
G75*
G02*
X11770000Y1510000I0J225000D01*
G01*
X11770000Y1960000D01*
G75*
G02*
X11995000Y2185000I225000J0D01*
G01*
X12495000Y2185000D01*
G75*
G02*
X12720000Y1960000I0J-225000D01*
G01*
X12720000Y1510000D01*
G75*
G02*
X12495000Y1285000I-225000J0D01*
G01*
G37*
G04 #@! TD.AperFunction*
G04 #@! TO.P,C3,2*
G04 #@! TO.N,Net-(D2-A)*
G04 #@! TA.AperFunction,SMDPad,CuDef*
G36*
G01*
X12495000Y2835000D02*
X11995000Y2835000D01*
G75*
G02*
X11770000Y3060000I0J225000D01*
G01*
X11770000Y3510000D01*
G75*
G02*
X11995000Y3735000I225000J0D01*
G01*
X12495000Y3735000D01*
G75*
G02*
X12720000Y3510000I0J-225000D01*
G01*
X12720000Y3060000D01*
G75*
G02*
X12495000Y2835000I-225000J0D01*
G01*
G37*
G04 #@! TD.AperFunction*
G04 #@! TD*
G04 #@! TO.P,R2,1*
G04 #@! TO.N,Net-(D2-A)*
G04 #@! TA.AperFunction,SMDPad,CuDef*
G36*
G01*
X12510000Y4540000D02*
X11960000Y4540000D01*
G75*
G02*
X11760000Y4740000I0J200000D01*
G01*
X11760000Y5140000D01*
G75*
G02*
X11960000Y5340000I200000J0D01*
G01*
X12510000Y5340000D01*
G75*
G02*
X12710000Y5140000I0J-200000D01*
G01*
X12710000Y4740000D01*
G75*
G02*
X12510000Y4540000I-200000J0D01*
G01*
G37*
G04 #@! TD.AperFunction*
G04 #@! TO.P,R2,2*
G04 #@! TO.N,/PPS2_IN*
G04 #@! TA.AperFunction,SMDPad,CuDef*
G36*
G01*
X12510000Y6190000D02*
X11960000Y6190000D01*
G75*
G02*
X11760000Y6390000I0J200000D01*
G01*
X11760000Y6790000D01*
G75*
G02*
X11960000Y6990000I200000J0D01*
G01*
X12510000Y6990000D01*
G75*
G02*
X12710000Y6790000I0J-200000D01*
G01*
X12710000Y6390000D01*
G75*
G02*
X12510000Y6190000I-200000J0D01*
G01*
G37*
G04 #@! TD.AperFunction*
G04 #@! TD*
G04 #@! TO.P,C14,1*
G04 #@! TO.N,GND*
G04 #@! TA.AperFunction,SMDPad,CuDef*
G36*
G01*
X11355000Y16680000D02*
X10405000Y16680000D01*
G75*
G02*
X10155000Y16930000I0J250000D01*
G01*
X10155000Y17430000D01*
G75*
G02*
X10405000Y17680000I250000J0D01*
G01*
X11355000Y17680000D01*
G75*
G02*
X11605000Y17430000I0J-250000D01*
G01*
X11605000Y16930000D01*
G75*
G02*
X11355000Y16680000I-250000J0D01*
G01*
G37*
G04 #@! TD.AperFunction*
G04 #@! TO.P,C14,2*
G04 #@! TO.N,+12VA*
G04 #@! TA.AperFunction,SMDPad,CuDef*
G36*
G01*
X11355000Y18580000D02*
X10405000Y18580000D01*
G75*
G02*
X10155000Y18830000I0J250000D01*
G01*
X10155000Y19330000D01*
G75*
G02*
X10405000Y19580000I250000J0D01*
G01*
X11355000Y19580000D01*
G75*
G02*
X11605000Y19330000I0J-250000D01*
G01*
X11605000Y18830000D01*
G75*
G02*
X11355000Y18580000I-250000J0D01*
G01*
G37*
G04 #@! TD.AperFunction*
G04 #@! TD*
G04 #@! TO.P,D4,1,K*
G04 #@! TO.N,Net-(D2-A)*
G04 #@! TA.AperFunction,SMDPad,CuDef*
G36*
G01*
X9512500Y3560000D02*
X9737500Y3560000D01*
G75*
G02*
X9850000Y3447500I0J-112500D01*
G01*
X9850000Y3072500D01*
G75*
G02*
X9737500Y2960000I-112500J0D01*
G01*
X9512500Y2960000D01*
G75*
G02*
X9400000Y3072500I0J112500D01*
G01*
X9400000Y3447500D01*
G75*
G02*
X9512500Y3560000I112500J0D01*
G01*
G37*
G04 #@! TD.AperFunction*
G04 #@! TO.P,D4,2,A*
G04 #@! TO.N,GND*
G04 #@! TA.AperFunction,SMDPad,CuDef*
G36*
G01*
X9512500Y1460000D02*
X9737500Y1460000D01*
G75*
G02*
X9850000Y1347500I0J-112500D01*
G01*
X9850000Y972500D01*
G75*
G02*
X9737500Y860000I-112500J0D01*
G01*
X9512500Y860000D01*
G75*
G02*
X9400000Y972500I0J112500D01*
G01*
X9400000Y1347500D01*
G75*
G02*
X9512500Y1460000I112500J0D01*
G01*
G37*
G04 #@! TD.AperFunction*
G04 #@! TD*
D10*
G04 #@! TO.P,5V_IN1,1,Pin_1*
G04 #@! TO.N,+5V*
X14063000Y32311002D03*
G04 #@! TD*
G04 #@! TO.P,C4,1*
G04 #@! TO.N,GND*
G04 #@! TA.AperFunction,SMDPad,CuDef*
G36*
G01*
X9840000Y31553002D02*
X9840000Y32053002D01*
G75*
G02*
X10065000Y32278002I225000J0D01*
G01*
X10515000Y32278002D01*
G75*
G02*
X10740000Y32053002I0J-225000D01*
G01*
X10740000Y31553002D01*
G75*
G02*
X10515000Y31328002I-225000J0D01*
G01*
X10065000Y31328002D01*
G75*
G02*
X9840000Y31553002I0J225000D01*
G01*
G37*
G04 #@! TD.AperFunction*
G04 #@! TO.P,C4,2*
G04 #@! TO.N,/VREF*
G04 #@! TA.AperFunction,SMDPad,CuDef*
G36*
G01*
X11390000Y31553002D02*
X11390000Y32053002D01*
G75*
G02*
X11615000Y32278002I225000J0D01*
G01*
X12065000Y32278002D01*
G75*
G02*
X12290000Y32053002I0J-225000D01*
G01*
X12290000Y31553002D01*
G75*
G02*
X12065000Y31328002I-225000J0D01*
G01*
X11615000Y31328002D01*
G75*
G02*
X11390000Y31553002I0J225000D01*
G01*
G37*
G04 #@! TD.AperFunction*
G04 #@! TD*
G04 #@! TO.P,R5,1*
G04 #@! TO.N,GND*
G04 #@! TA.AperFunction,SMDPad,CuDef*
G36*
G01*
X9280000Y13715000D02*
X9830000Y13715000D01*
G75*
G02*
X10030000Y13515000I0J-200000D01*
G01*
X10030000Y13115000D01*
G75*
G02*
X9830000Y12915000I-200000J0D01*
G01*
X9280000Y12915000D01*
G75*
G02*
X9080000Y13115000I0J200000D01*
G01*
X9080000Y13515000D01*
G75*
G02*
X9280000Y13715000I200000J0D01*
G01*
G37*
G04 #@! TD.AperFunction*
G04 #@! TO.P,R5,2*
G04 #@! TO.N,Net-(D1-A)*
G04 #@! TA.AperFunction,SMDPad,CuDef*
G36*
G01*
X9280000Y12065000D02*
X9830000Y12065000D01*
G75*
G02*
X10030000Y11865000I0J-200000D01*
G01*
X10030000Y11465000D01*
G75*
G02*
X9830000Y11265000I-200000J0D01*
G01*
X9280000Y11265000D01*
G75*
G02*
X9080000Y11465000I0J200000D01*
G01*
X9080000Y11865000D01*
G75*
G02*
X9280000Y12065000I200000J0D01*
G01*
G37*
G04 #@! TD.AperFunction*
G04 #@! TD*
G04 #@! TO.P,C11,1*
G04 #@! TO.N,GND*
G04 #@! TA.AperFunction,SMDPad,CuDef*
G36*
G01*
X26060000Y17115000D02*
X25560000Y17115000D01*
G75*
G02*
X25335000Y17340000I0J225000D01*
G01*
X25335000Y17790000D01*
G75*
G02*
X25560000Y18015000I225000J0D01*
G01*
X26060000Y18015000D01*
G75*
G02*
X26285000Y17790000I0J-225000D01*
G01*
X26285000Y17340000D01*
G75*
G02*
X26060000Y17115000I-225000J0D01*
G01*
G37*
G04 #@! TD.AperFunction*
G04 #@! TO.P,C11,2*
G04 #@! TO.N,+12VA*
G04 #@! TA.AperFunction,SMDPad,CuDef*
G36*
G01*
X26060000Y18665000D02*
X25560000Y18665000D01*
G75*
G02*
X25335000Y18890000I0J225000D01*
G01*
X25335000Y19340000D01*
G75*
G02*
X25560000Y19565000I225000J0D01*
G01*
X26060000Y19565000D01*
G75*
G02*
X26285000Y19340000I0J-225000D01*
G01*
X26285000Y18890000D01*
G75*
G02*
X26060000Y18665000I-225000J0D01*
G01*
G37*
G04 #@! TD.AperFunction*
G04 #@! TD*
G04 #@! TO.P,C19,1*
G04 #@! TO.N,GND*
G04 #@! TA.AperFunction,SMDPad,CuDef*
G36*
G01*
X18995000Y16810000D02*
X18045000Y16810000D01*
G75*
G02*
X17795000Y17060000I0J250000D01*
G01*
X17795000Y17560000D01*
G75*
G02*
X18045000Y17810000I250000J0D01*
G01*
X18995000Y17810000D01*
G75*
G02*
X19245000Y17560000I0J-250000D01*
G01*
X19245000Y17060000D01*
G75*
G02*
X18995000Y16810000I-250000J0D01*
G01*
G37*
G04 #@! TD.AperFunction*
G04 #@! TO.P,C19,2*
G04 #@! TO.N,+12VA*
G04 #@! TA.AperFunction,SMDPad,CuDef*
G36*
G01*
X18995000Y18710000D02*
X18045000Y18710000D01*
G75*
G02*
X17795000Y18960000I0J250000D01*
G01*
X17795000Y19460000D01*
G75*
G02*
X18045000Y19710000I250000J0D01*
G01*
X18995000Y19710000D01*
G75*
G02*
X19245000Y19460000I0J-250000D01*
G01*
X19245000Y18960000D01*
G75*
G02*
X18995000Y18710000I-250000J0D01*
G01*
G37*
G04 #@! TD.AperFunction*
G04 #@! TD*
G04 #@! TO.P,R3,1*
G04 #@! TO.N,GND*
G04 #@! TA.AperFunction,SMDPad,CuDef*
G36*
G01*
X7700000Y1075000D02*
X7150000Y1075000D01*
G75*
G02*
X6950000Y1275000I0J200000D01*
G01*
X6950000Y1675000D01*
G75*
G02*
X7150000Y1875000I200000J0D01*
G01*
X7700000Y1875000D01*
G75*
G02*
X7900000Y1675000I0J-200000D01*
G01*
X7900000Y1275000D01*
G75*
G02*
X7700000Y1075000I-200000J0D01*
G01*
G37*
G04 #@! TD.AperFunction*
G04 #@! TO.P,R3,2*
G04 #@! TO.N,Net-(D2-A)*
G04 #@! TA.AperFunction,SMDPad,CuDef*
G36*
G01*
X7700000Y2725000D02*
X7150000Y2725000D01*
G75*
G02*
X6950000Y2925000I0J200000D01*
G01*
X6950000Y3325000D01*
G75*
G02*
X7150000Y3525000I200000J0D01*
G01*
X7700000Y3525000D01*
G75*
G02*
X7900000Y3325000I0J-200000D01*
G01*
X7900000Y2925000D01*
G75*
G02*
X7700000Y2725000I-200000J0D01*
G01*
G37*
G04 #@! TD.AperFunction*
G04 #@! TD*
G04 #@! TO.P,C17,1*
G04 #@! TO.N,GND*
G04 #@! TA.AperFunction,SMDPad,CuDef*
G36*
G01*
X24405000Y16880000D02*
X23455000Y16880000D01*
G75*
G02*
X23205000Y17130000I0J250000D01*
G01*
X23205000Y17630000D01*
G75*
G02*
X23455000Y17880000I250000J0D01*
G01*
X24405000Y17880000D01*
G75*
G02*
X24655000Y17630000I0J-250000D01*
G01*
X24655000Y17130000D01*
G75*
G02*
X24405000Y16880000I-250000J0D01*
G01*
G37*
G04 #@! TD.AperFunction*
G04 #@! TO.P,C17,2*
G04 #@! TO.N,+12VA*
G04 #@! TA.AperFunction,SMDPad,CuDef*
G36*
G01*
X24405000Y18780000D02*
X23455000Y18780000D01*
G75*
G02*
X23205000Y19030000I0J250000D01*
G01*
X23205000Y19530000D01*
G75*
G02*
X23455000Y19780000I250000J0D01*
G01*
X24405000Y19780000D01*
G75*
G02*
X24655000Y19530000I0J-250000D01*
G01*
X24655000Y19030000D01*
G75*
G02*
X24405000Y18780000I-250000J0D01*
G01*
G37*
G04 #@! TD.AperFunction*
G04 #@! TD*
G04 #@! TO.P,TPS2_CPU1,1,Pin_1*
G04 #@! TO.N,Net-(D1-A)*
X5185000Y11860000D03*
G04 #@! TD*
D16*
G04 #@! TO.P,U1,1,~{ENABLE}*
G04 #@! TO.N,+12VA*
X15535000Y19060000D03*
D17*
G04 #@! TO.P,U1,2,MS1*
G04 #@! TO.N,GND*
X15535000Y16520000D03*
G04 #@! TO.P,U1,3,MS2*
G04 #@! TO.N,/OUT-*
X15535000Y13980000D03*
G04 #@! TO.P,U1,4,MS3*
G04 #@! TO.N,/OUT+*
X15535000Y11440000D03*
G04 #@! TO.P,U1,5,~{RESET}*
G04 #@! TO.N,/TPS2_IN*
X15535000Y8900000D03*
G04 #@! TO.P,U1,6,~{SLEEP}*
G04 #@! TO.N,/PPS2_IN*
X15535000Y6360000D03*
G04 #@! TO.P,U1,7,STEP*
G04 #@! TO.N,+3.3V*
X15535000Y3820000D03*
G04 #@! TO.P,U1,8,DIR*
G04 #@! TO.N,GND*
X15535000Y1280000D03*
G04 #@! TO.P,U1,9,GND*
G04 #@! TO.N,/DIS*
X28235000Y1280000D03*
G04 #@! TO.P,U1,10,VDD*
G04 #@! TO.N,unconnected-(U1-VDD-Pad10)*
X28235000Y3820000D03*
G04 #@! TO.P,U1,11,1B*
G04 #@! TO.N,unconnected-(U1-1B-Pad11)*
X28235000Y6360000D03*
G04 #@! TO.P,U1,12,1A*
G04 #@! TO.N,unconnected-(U1-1A-Pad12)*
X28235000Y8900000D03*
G04 #@! TO.P,U1,13,2A*
G04 #@! TO.N,+3.3V*
X28235000Y11440000D03*
G04 #@! TO.P,U1,14,2B*
X28235000Y13980000D03*
G04 #@! TO.P,U1,15,GND*
G04 #@! TO.N,/PWM*
X28235000Y16520000D03*
G04 #@! TO.P,U1,16,VMOT*
G04 #@! TO.N,/DIR*
X28235000Y19060000D03*
G04 #@! TD*
D18*
G04 #@! TO.N,GND*
X21020000Y10090000D03*
X20130000Y8340000D03*
X18340000Y11910000D03*
X21920000Y9230000D03*
X18320000Y8280000D03*
X20130000Y10110000D03*
X24560000Y10170000D03*
X25470000Y11090000D03*
X22390000Y5320000D03*
X23960000Y17350000D03*
X23690000Y8380000D03*
X18330000Y9160000D03*
X19230000Y8310000D03*
X22790000Y9230000D03*
X25800000Y17530000D03*
X22790000Y8350000D03*
X20140000Y11000000D03*
X18550000Y17270000D03*
X23680000Y11910000D03*
X21010000Y11850000D03*
X21410000Y5300000D03*
X2808000Y15190000D03*
X25460000Y9310000D03*
X25460000Y10200000D03*
X25460000Y8430000D03*
X20120000Y11870000D03*
X21030000Y10980000D03*
X18340000Y10070000D03*
X19230000Y9190000D03*
X12968000Y17222000D03*
X23690000Y9260000D03*
X21020000Y9200000D03*
X20130000Y9220000D03*
X21910000Y11880000D03*
X6618000Y17222000D03*
X25450000Y11960000D03*
X22800000Y11010000D03*
X22780000Y11880000D03*
X24550000Y11930000D03*
X24560000Y9280000D03*
X22790000Y10120000D03*
X4586000Y17222000D03*
X18350000Y10980000D03*
X24570000Y11060000D03*
X21020000Y8320000D03*
X23690000Y10150000D03*
X2554000Y17222000D03*
X19230000Y10080000D03*
X23700000Y11040000D03*
X21920000Y10120000D03*
X20970000Y3320000D03*
X20410000Y5270000D03*
X19220000Y11840000D03*
X10936000Y17222000D03*
X19240000Y10970000D03*
X21930000Y11010000D03*
X21920000Y8350000D03*
X20660000Y17270000D03*
X8904000Y17222000D03*
X24560000Y8400000D03*
G04 #@! TO.N,+3.3V*
X25550000Y13390000D03*
G04 #@! TD*
D19*
G04 #@! TO.N,/OUT-*
X17420000Y13980000D02*
X17520000Y14080000D01*
X20310000Y13370000D02*
X18230000Y13370000D01*
X20385000Y14970000D02*
X20385000Y13445000D01*
X18230000Y13370000D02*
X17520000Y14080000D01*
X15535000Y13980000D02*
X17420000Y13980000D01*
X20385000Y13445000D02*
X20310000Y13370000D01*
G04 #@! TO.N,GND*
X18630000Y9160000D02*
X18460000Y8990000D01*
D20*
X12970000Y17180000D02*
X12970000Y16462000D01*
D19*
X21677500Y4032500D02*
X20970000Y3325000D01*
D20*
X2610000Y15520000D02*
X2808000Y15322000D01*
D19*
X18450000Y7740000D02*
X18980000Y7210000D01*
D20*
X2554000Y17222000D02*
X2610000Y15520000D01*
D19*
X25300000Y7960000D02*
X24470000Y7130000D01*
X20405001Y6874999D02*
X20405001Y5370000D01*
X24430000Y7170000D02*
X23690000Y7170000D01*
X19345000Y7935000D02*
X20405001Y6874999D01*
X23625000Y10245000D02*
X22385000Y9005000D01*
X20970000Y3325000D02*
X20970000Y3320000D01*
X25130000Y10750000D02*
X25470000Y11090000D01*
X21455000Y5300000D02*
X21677500Y5077500D01*
X21530000Y7030000D02*
X21385000Y5370000D01*
X25130000Y11430000D02*
X25130000Y11750000D01*
X22385000Y5315000D02*
X22385000Y4740000D01*
X21385000Y5540001D02*
X20405001Y6520000D01*
X20405001Y6520000D02*
X20405001Y5370000D01*
X21677500Y5077500D02*
X21677500Y4032500D01*
D20*
X2808000Y15190000D02*
X2940000Y15190000D01*
D19*
X18980000Y7210000D02*
X19220000Y6970000D01*
X23680000Y7160000D02*
X23680000Y8320000D01*
X21410000Y5345000D02*
X21410000Y5300000D01*
D20*
X17730000Y16520000D02*
X18520000Y17310000D01*
D19*
X21385000Y8635000D02*
X21610000Y8560000D01*
D20*
X15535000Y16520000D02*
X16630000Y16520000D01*
X25650000Y17380000D02*
X25800000Y17530000D01*
D19*
X21385000Y5370000D02*
X21385000Y8005000D01*
X20955000Y3310000D02*
X20405001Y3859999D01*
X22385000Y7840000D02*
X22385000Y7170000D01*
D20*
X12970000Y16462000D02*
X12968000Y16460000D01*
D19*
X22385000Y4740000D02*
X21677500Y4032500D01*
X20405001Y5370000D02*
X22385000Y5370000D01*
D20*
X16630000Y16520000D02*
X17520000Y15630000D01*
X4586000Y15444000D02*
X6322000Y17180000D01*
D19*
X23690000Y7170000D02*
X23680000Y7160000D01*
X23625000Y10245000D02*
X24110000Y10730000D01*
X18350000Y10980000D02*
X18340000Y10070000D01*
X25300000Y8460000D02*
X25460000Y8430000D01*
D20*
X18550000Y17270000D02*
X19285000Y16535000D01*
D19*
X22390000Y5320000D02*
X22390000Y6170000D01*
X20405001Y6874999D02*
X20405001Y6520000D01*
X24110000Y10730000D02*
X25460000Y10200000D01*
X18450000Y7935000D02*
X18450000Y8150000D01*
X20955000Y3310000D02*
X20955000Y4940000D01*
X25130000Y10730000D02*
X25130000Y10750000D01*
D20*
X6322000Y17180000D02*
X6700000Y17180000D01*
D19*
X19190000Y17300000D02*
X20610000Y17300000D01*
X18330000Y8860000D02*
X18330000Y9160000D01*
D20*
X2890000Y15240000D02*
X3620000Y15240000D01*
X12968000Y17222000D02*
X12970000Y17180000D01*
D19*
X23680000Y7160000D02*
X23670000Y7170000D01*
X25130000Y11750000D02*
X25250000Y11870000D01*
D20*
X6618000Y17222000D02*
X8904000Y17222000D01*
D19*
X25250000Y11870000D02*
X24750000Y11870000D01*
X18340000Y11910000D02*
X18110000Y11910000D01*
D20*
X4544000Y17180000D02*
X4586000Y17222000D01*
D19*
X22270000Y7770000D02*
X21530000Y7030000D01*
X20405001Y5274999D02*
X20405001Y5370000D01*
X20410000Y5270000D02*
X20405001Y5274999D01*
D20*
X18550000Y16660000D02*
X17520000Y15630000D01*
D19*
X25460000Y8430000D02*
X25300000Y7960000D01*
X25040000Y8460000D02*
X24350000Y7770000D01*
D20*
X8904000Y17222000D02*
X10936000Y17222000D01*
D19*
X19385000Y14970000D02*
X18725000Y15630000D01*
X20310000Y6970000D02*
X20405001Y6874999D01*
X22385000Y5325000D02*
X22390000Y5320000D01*
X19915000Y17300000D02*
X20610000Y17300000D01*
X19820000Y7935000D02*
X18450000Y7935000D01*
D20*
X18550000Y17270000D02*
X18550000Y16660000D01*
D19*
X25460000Y10200000D02*
X25130000Y10730000D01*
X20970000Y3320000D02*
X20965000Y3320000D01*
X17520000Y15630000D02*
X19190000Y17300000D01*
X18450000Y8410000D02*
X18450000Y8980000D01*
X21385000Y5370000D02*
X21385000Y5540001D01*
D20*
X15535000Y16520000D02*
X17730000Y16520000D01*
D19*
X20965000Y3320000D02*
X20955000Y3310000D01*
X18320000Y8280000D02*
X18450000Y8410000D01*
X18340000Y10070000D02*
X18350000Y10310000D01*
X21530000Y7030000D02*
X21575000Y7030000D01*
X18340000Y11680000D02*
X18340000Y11910000D01*
D20*
X2808000Y15322000D02*
X2808000Y15190000D01*
D19*
X18450000Y7935000D02*
X18450000Y7740000D01*
X21575000Y7030000D02*
X22385000Y7840000D01*
D20*
X2610000Y17180000D02*
X2554000Y17222000D01*
D19*
X24350000Y7770000D02*
X22270000Y7770000D01*
D20*
X12968000Y16460000D02*
X3824000Y16460000D01*
D19*
X20410000Y5270000D02*
X20410000Y7360000D01*
D20*
X2610000Y17180000D02*
X2610000Y16250000D01*
X3824000Y16460000D02*
X3697000Y16333000D01*
X4205000Y15825000D02*
X4586000Y15444000D01*
D19*
X20405001Y5265001D02*
X20410000Y5270000D01*
D20*
X19285000Y16535000D02*
X19285000Y14970000D01*
D19*
X21385000Y5370000D02*
X21410000Y5345000D01*
D20*
X2940000Y15190000D02*
X2890000Y15240000D01*
D19*
X22385000Y5370000D02*
X19820000Y7935000D01*
X18300000Y11720000D02*
X18340000Y11680000D01*
X19680000Y6970000D02*
X20310000Y6970000D01*
D20*
X10936000Y17222000D02*
X12968000Y17222000D01*
D19*
X22385000Y5370000D02*
X22385000Y5325000D01*
X25300000Y8460000D02*
X25040000Y8460000D01*
D20*
X2610000Y17180000D02*
X4544000Y17180000D01*
D19*
X19220000Y6970000D02*
X19680000Y6970000D01*
X22385000Y5370000D02*
X22385000Y7170000D01*
X20955000Y4940000D02*
X21385000Y5370000D01*
D20*
X3697000Y16333000D02*
X4205000Y15825000D01*
X4628000Y17180000D02*
X4640000Y17180000D01*
D19*
X18110000Y11910000D02*
X21385000Y8635000D01*
X19385000Y14970000D02*
X19385000Y16770000D01*
X23770000Y11955000D02*
X23625000Y11810000D01*
X20405001Y3859999D02*
X20405001Y5265001D01*
X25470000Y11090000D02*
X25130000Y11430000D01*
X21610000Y8560000D02*
X21530000Y7030000D01*
D20*
X2610000Y17180000D02*
X2850000Y17180000D01*
D19*
X23550000Y7030000D02*
X23680000Y7160000D01*
X21530000Y7030000D02*
X23550000Y7030000D01*
X21410000Y5300000D02*
X21455000Y5300000D01*
X21385000Y8005000D02*
X25250000Y11870000D01*
X18450000Y7935000D02*
X19345000Y7935000D01*
D20*
X3620000Y15240000D02*
X4205000Y15825000D01*
D19*
X23670000Y7170000D02*
X22385000Y7170000D01*
X18725000Y15630000D02*
X17520000Y15630000D01*
X18450000Y8980000D02*
X18330000Y8860000D01*
X20410000Y7360000D02*
X21610000Y8560000D01*
X22390000Y5320000D02*
X22385000Y5315000D01*
D20*
X4586000Y17222000D02*
X4628000Y17180000D01*
D19*
X22390000Y6170000D02*
X21530000Y7030000D01*
X18350000Y10970000D02*
X18350000Y10980000D01*
X18330000Y9160000D02*
X18630000Y9160000D01*
D20*
X23930000Y17380000D02*
X25650000Y17380000D01*
D19*
X23680000Y8320000D02*
X23790000Y8430000D01*
D20*
X2610000Y16250000D02*
X3620000Y15240000D01*
X4640000Y17180000D02*
X6618000Y17222000D01*
D19*
X22385000Y9005000D02*
X22385000Y7840000D01*
X19385000Y16770000D02*
X19915000Y17300000D01*
X18450000Y8150000D02*
X18320000Y8280000D01*
D20*
X2850000Y17180000D02*
X3697000Y16333000D01*
D19*
X24470000Y7130000D02*
X24430000Y7170000D01*
G04 #@! TO.N,/OUT+*
X19405000Y5350000D02*
X19385000Y5370000D01*
X19405000Y3310000D02*
X19405000Y5350000D01*
X17235000Y7520000D02*
X19385000Y5370000D01*
X15535000Y11440000D02*
X17235000Y9740000D01*
X17235000Y9740000D02*
X17235000Y7520000D01*
D21*
G04 #@! TO.N,/DIS*
X26175000Y1280000D02*
X28235000Y1280000D01*
X25042500Y2542500D02*
X25042500Y2412500D01*
X23385000Y5370000D02*
X23385000Y4070000D01*
X23385000Y4070000D02*
X25042500Y2412500D01*
X25042500Y2412500D02*
X26175000Y1280000D01*
X25990000Y3490000D02*
X25042500Y2542500D01*
G04 #@! TO.N,/PWM*
X26300000Y7285000D02*
X26300000Y14585000D01*
X24385000Y5370000D02*
X26300000Y7285000D01*
X26300000Y14585000D02*
X28235000Y16520000D01*
G04 #@! TO.N,+3.3V*
X15535000Y3820000D02*
X13515000Y5840000D01*
X13515000Y5840000D02*
X10455000Y5840000D01*
X28235000Y13980000D02*
X28235000Y11440000D01*
X10455000Y5840000D02*
X9595000Y6700000D01*
X9585000Y8180000D02*
X9585000Y6710000D01*
X23385000Y14970000D02*
X23385000Y13670000D01*
X25320000Y13620000D02*
X25550000Y13390000D01*
X26800000Y5950000D02*
X26800000Y10005000D01*
X23435000Y13620000D02*
X25320000Y13620000D01*
X25990000Y5140000D02*
X26800000Y5950000D01*
X26800000Y10005000D02*
X28235000Y11440000D01*
X9585000Y6710000D02*
X9595000Y6700000D01*
X23385000Y13670000D02*
X23435000Y13620000D01*
X15535000Y4115000D02*
X15535000Y3820000D01*
D20*
G04 #@! TO.N,+12VA*
X15515000Y19080000D02*
X15535000Y19060000D01*
X18370000Y19060000D02*
X18520000Y19210000D01*
X24095000Y19115000D02*
X23930000Y19280000D01*
D19*
X21385000Y14970000D02*
X21385000Y16147918D01*
D20*
X15535000Y19060000D02*
X18370000Y19060000D01*
D19*
X21385000Y16147918D02*
X22000000Y16762918D01*
D20*
X25810000Y19115000D02*
X24095000Y19115000D01*
X2441497Y19080000D02*
X2610000Y19080000D01*
X18520000Y19210000D02*
X20600000Y19210000D01*
X22000000Y19200000D02*
X23850000Y19200000D01*
X20610000Y19200000D02*
X22000000Y19200000D01*
X2610000Y19080000D02*
X12970000Y19080000D01*
X990000Y15240000D02*
X990000Y17628503D01*
X990000Y17628503D02*
X2441497Y19080000D01*
X20600000Y19210000D02*
X20610000Y19200000D01*
X12970000Y19080000D02*
X15515000Y19080000D01*
X23850000Y19200000D02*
X23930000Y19280000D01*
D19*
X22000000Y16762918D02*
X22000000Y19200000D01*
D21*
G04 #@! TO.N,Net-(D1-A)*
X11870000Y10280000D02*
X12235000Y9915000D01*
X9555000Y11665000D02*
X10485000Y11665000D01*
X9495000Y11725000D02*
X9555000Y11665000D01*
X5185000Y11860000D02*
X6495000Y10550000D01*
X9585000Y10280000D02*
X9585000Y11635000D01*
X9315000Y10550000D02*
X9585000Y10280000D01*
X7380000Y11860000D02*
X7515000Y11725000D01*
X7515000Y11725000D02*
X9495000Y11725000D01*
X5185000Y11860000D02*
X7380000Y11860000D01*
X7515000Y11725000D02*
X8140000Y11725000D01*
X9555000Y11665000D02*
X12100000Y11665000D01*
X12100000Y11665000D02*
X12265000Y11500000D01*
X6495000Y10550000D02*
X9315000Y10550000D01*
X12235000Y11470000D02*
X12265000Y11500000D01*
X10485000Y11665000D02*
X12235000Y9915000D01*
X9585000Y11635000D02*
X9555000Y11665000D01*
X12235000Y9915000D02*
X12235000Y11470000D01*
X10805000Y11500000D02*
X9585000Y10280000D01*
X12265000Y11500000D02*
X10805000Y11500000D01*
X9585000Y10280000D02*
X11870000Y10280000D01*
X8140000Y11725000D02*
X9585000Y10280000D01*
G04 #@! TO.N,/DIR*
X24385000Y14970000D02*
X24385000Y15210000D01*
X26390000Y16110000D02*
X27060000Y16780000D01*
X27060000Y17885000D02*
X28235000Y19060000D01*
X24385000Y15210000D02*
X25285000Y16110000D01*
X27060000Y16780000D02*
X27060000Y17885000D01*
X25285000Y16110000D02*
X26390000Y16110000D01*
G04 #@! TO.N,Net-(D2-A)*
X7425000Y3125000D02*
X9490000Y3125000D01*
X6030000Y4520000D02*
X7425000Y3125000D01*
X5155000Y4520000D02*
X6030000Y4520000D01*
X12235000Y3295000D02*
X12245000Y3285000D01*
X11895000Y4600000D02*
X12235000Y4940000D01*
X9515000Y4520000D02*
X5155000Y4520000D01*
X8120000Y3125000D02*
X9595000Y4600000D01*
X9490000Y3125000D02*
X9625000Y3260000D01*
X9595000Y4600000D02*
X11895000Y4600000D01*
X9595000Y4600000D02*
X9515000Y4520000D01*
X9595000Y3290000D02*
X9625000Y3260000D01*
X10930000Y4600000D02*
X12245000Y3285000D01*
X10555000Y3260000D02*
X9625000Y3260000D01*
X9625000Y3260000D02*
X12220000Y3260000D01*
X7425000Y3125000D02*
X8120000Y3125000D01*
X9595000Y4600000D02*
X10930000Y4600000D01*
X9595000Y4600000D02*
X9595000Y3290000D01*
X12220000Y3260000D02*
X12245000Y3285000D01*
X12235000Y4940000D02*
X10555000Y3260000D01*
X12235000Y4940000D02*
X12235000Y3295000D01*
G04 #@! TO.N,/TPS2_IN*
X12870000Y8900000D02*
X15535000Y8900000D01*
X12235000Y8265000D02*
X12870000Y8900000D01*
G04 #@! TO.N,/PPS2_IN*
X12235000Y6590000D02*
X12465000Y6360000D01*
X12465000Y6360000D02*
X15535000Y6360000D01*
D22*
G04 #@! TO.N,+5V*
X19213000Y28484739D02*
X19012264Y28284003D01*
X19213000Y27659003D02*
X19213000Y28484739D01*
X14063000Y31154002D02*
X14938000Y30279002D01*
X19213000Y29060044D02*
X19213000Y28484739D01*
X19012264Y24496000D02*
X18588000Y24496000D01*
X17994042Y30279002D02*
X19213000Y29060044D01*
X18588000Y28284003D02*
X19213000Y27659003D01*
X19012264Y28284003D02*
X18588000Y28284003D01*
X19213000Y24696736D02*
X19012264Y24496000D01*
X19213000Y27659003D02*
X19213000Y24696736D01*
X14938000Y30279002D02*
X17994042Y30279002D01*
X14063000Y32311002D02*
X14063000Y31154002D01*
G04 #@! TO.N,/VREF*
X9263000Y28484739D02*
X9263000Y29239002D01*
X9503000Y29479002D02*
X11090000Y29479002D01*
X11840000Y31803002D02*
X11840000Y31727002D01*
X9263000Y27659003D02*
X9888000Y28284003D01*
X11090000Y29479002D02*
X11890000Y30279002D01*
X9888000Y24496000D02*
X9686959Y24496000D01*
X9463736Y28284003D02*
X9263000Y28484739D01*
X11840000Y31727002D02*
X13288000Y30279002D01*
X13288000Y30279002D02*
X11890000Y30279002D01*
X9263000Y27659003D02*
X9263000Y28484739D01*
X9263000Y29239002D02*
X9503000Y29479002D01*
X9888000Y28284003D02*
X9463736Y28284003D01*
X9263000Y24919959D02*
X9263000Y27659003D01*
X11890000Y31753002D02*
X11840000Y31803002D01*
X11890000Y30279002D02*
X11890000Y31753002D01*
X9686959Y24496000D02*
X9263000Y24919959D01*
G04 #@! TO.N,Net-(M2-OUT_KNOCK)*
X20654000Y22596002D02*
X20717000Y22659002D01*
X18588000Y22596002D02*
X20654000Y22596002D01*
G04 #@! TO.N,Net-(IN_KNOCK1-Pin_1)*
X7763000Y23675002D02*
X9808998Y23675002D01*
X9808998Y23675002D02*
X9888000Y23596000D01*
G04 #@! TD*
G04 #@! TA.AperFunction,Conductor*
G04 #@! TO.N,GND*
G36*
X14311088Y18059815D02*
G01*
X14343314Y18029813D01*
X14412454Y17937454D01*
X14422998Y17929561D01*
X14527664Y17851207D01*
X14527671Y17851203D01*
X14662517Y17800909D01*
X14662516Y17800909D01*
X14668832Y17800230D01*
X14722127Y17794500D01*
X14756434Y17794501D01*
X14823471Y17774818D01*
X14869227Y17722015D01*
X14879172Y17652857D01*
X14850149Y17589301D01*
X14834793Y17575452D01*
X14834656Y17573897D01*
X15393634Y17014919D01*
X15389839Y17014373D01*
X15256438Y16953451D01*
X15145605Y16857413D01*
X15066318Y16734040D01*
X15043866Y16657581D01*
X14481104Y17220343D01*
X14435293Y17154916D01*
X14362191Y16998148D01*
X14316019Y16945709D01*
X14248825Y16926557D01*
X14237434Y16930000D01*
X13220000Y16930000D01*
X13220000Y16180001D01*
X13494972Y16180001D01*
X13494986Y16180002D01*
X13597697Y16190495D01*
X13764119Y16245642D01*
X13764124Y16245644D01*
X13913345Y16337685D01*
X14037317Y16461657D01*
X14044882Y16473921D01*
X14096829Y16520646D01*
X14165792Y16531869D01*
X14229874Y16504026D01*
X14268731Y16445958D01*
X14273949Y16419633D01*
X14284459Y16299501D01*
X14284461Y16299491D01*
X14341745Y16085700D01*
X14341749Y16085691D01*
X14435295Y15885081D01*
X14481103Y15819659D01*
X14481105Y15819658D01*
X15043866Y16382420D01*
X15066318Y16305960D01*
X15145605Y16182587D01*
X15256438Y16086549D01*
X15389839Y16025627D01*
X15393633Y16025082D01*
X14834656Y15466106D01*
X14900083Y15420294D01*
X14900085Y15420293D01*
X15023683Y15362658D01*
X15076122Y15316486D01*
X15095274Y15249292D01*
X15075058Y15182411D01*
X15023683Y15137894D01*
X14899833Y15080143D01*
X14718444Y14953132D01*
X14561868Y14796556D01*
X14434857Y14615166D01*
X14434856Y14615164D01*
X14341279Y14414487D01*
X14341275Y14414476D01*
X14283965Y14200593D01*
X14283964Y14200586D01*
X14264666Y13980002D01*
X14264666Y13979999D01*
X14283964Y13759415D01*
X14283965Y13759408D01*
X14341275Y13545525D01*
X14341279Y13545514D01*
X14431950Y13351069D01*
X14434858Y13344833D01*
X14561868Y13163445D01*
X14718445Y13006868D01*
X14899833Y12879858D01*
X14942490Y12859967D01*
X15023091Y12822382D01*
X15075531Y12776210D01*
X15094683Y12709017D01*
X15074467Y12642135D01*
X15023091Y12597618D01*
X14899836Y12540144D01*
X14899834Y12540143D01*
X14718444Y12413132D01*
X14561868Y12256556D01*
X14434857Y12075166D01*
X14434856Y12075164D01*
X14341279Y11874487D01*
X14341275Y11874476D01*
X14283965Y11660593D01*
X14283964Y11660586D01*
X14264666Y11440002D01*
X14264666Y11439999D01*
X14283964Y11219415D01*
X14283965Y11219408D01*
X14341275Y11005525D01*
X14341279Y11005514D01*
X14391472Y10897875D01*
X14434858Y10804833D01*
X14561868Y10623445D01*
X14718445Y10466868D01*
X14899833Y10339858D01*
X14961828Y10310950D01*
X15023091Y10282382D01*
X15075531Y10236210D01*
X15094683Y10169017D01*
X15074467Y10102135D01*
X15023091Y10057618D01*
X14899836Y10000144D01*
X14899834Y10000143D01*
X14718444Y9873132D01*
X14561868Y9716556D01*
X14528662Y9669132D01*
X14483259Y9604290D01*
X14482619Y9603376D01*
X14428041Y9559751D01*
X14381044Y9550500D01*
X13334500Y9550500D01*
X13267461Y9570185D01*
X13221706Y9622989D01*
X13210500Y9674500D01*
X13210500Y10171614D01*
X13204630Y10236210D01*
X13204086Y10242196D01*
X13153478Y10404606D01*
X13065472Y10550185D01*
X13065470Y10550187D01*
X13065469Y10550189D01*
X12945188Y10670470D01*
X12939282Y10675097D01*
X12940083Y10676121D01*
X12898158Y10721910D01*
X12885500Y10776490D01*
X12885500Y10933335D01*
X12902768Y10996456D01*
X12908125Y11005514D01*
X12944555Y11067113D01*
X12987765Y11215844D01*
X12990500Y11250595D01*
X12990499Y11749404D01*
X12987765Y11784156D01*
X12944555Y11932887D01*
X12865715Y12066198D01*
X12865713Y12066200D01*
X12865710Y12066204D01*
X12756203Y12175711D01*
X12756194Y12175718D01*
X12675111Y12223670D01*
X12622887Y12254555D01*
X12474156Y12297765D01*
X12474153Y12297766D01*
X12474151Y12297766D01*
X12439407Y12300500D01*
X12439405Y12300500D01*
X12256261Y12300500D01*
X12225425Y12304396D01*
X12199962Y12310934D01*
X12182178Y12315500D01*
X12182177Y12315500D01*
X12160955Y12315500D01*
X12141555Y12317027D01*
X12120596Y12320347D01*
X12120595Y12320347D01*
X12096786Y12318097D01*
X12072230Y12315775D01*
X12066392Y12315500D01*
X10545955Y12315500D01*
X10526555Y12317027D01*
X10505596Y12320347D01*
X10505595Y12320347D01*
X10481786Y12318097D01*
X10457230Y12315775D01*
X10451392Y12315500D01*
X10421519Y12315500D01*
X10354480Y12335185D01*
X10333837Y12351820D01*
X10282983Y12402675D01*
X10249499Y12463998D01*
X10254484Y12533690D01*
X10282985Y12578037D01*
X10385071Y12680122D01*
X10385072Y12680123D01*
X10473019Y12825605D01*
X10523590Y12987894D01*
X10530000Y13058428D01*
X10530000Y13065000D01*
X9429000Y13065000D01*
X9361961Y13084685D01*
X9316206Y13137489D01*
X9305000Y13189000D01*
X9305000Y13375000D01*
X11540001Y13375000D01*
X11540001Y13350647D01*
X11542733Y13315922D01*
X11585906Y13167319D01*
X11585907Y13167316D01*
X11664682Y13034115D01*
X11664688Y13034106D01*
X11774105Y12924689D01*
X11774114Y12924683D01*
X11907315Y12845908D01*
X11907318Y12845907D01*
X12039998Y12807359D01*
X12040000Y12807360D01*
X12040000Y13375000D01*
X12490000Y13375000D01*
X12490000Y12807360D01*
X12490001Y12807359D01*
X12622681Y12845907D01*
X12622684Y12845908D01*
X12755885Y12924683D01*
X12755894Y12924689D01*
X12865311Y13034106D01*
X12865317Y13034115D01*
X12944092Y13167316D01*
X12944093Y13167319D01*
X12987265Y13315916D01*
X12987267Y13315927D01*
X12990000Y13350643D01*
X12990000Y13375000D01*
X12490000Y13375000D01*
X12040000Y13375000D01*
X11540001Y13375000D01*
X9305000Y13375000D01*
X9305000Y14215000D01*
X9805000Y14215000D01*
X9805000Y13565000D01*
X10529999Y13565000D01*
X10529999Y13571583D01*
X10523591Y13642103D01*
X10523590Y13642108D01*
X10473018Y13804397D01*
X10460563Y13825000D01*
X11540000Y13825000D01*
X12040000Y13825000D01*
X12040000Y14392643D01*
X12490000Y14392643D01*
X12490000Y13825000D01*
X12989999Y13825000D01*
X12989999Y13849353D01*
X12987266Y13884079D01*
X12944093Y14032682D01*
X12944092Y14032685D01*
X12865317Y14165886D01*
X12865311Y14165895D01*
X12755894Y14275312D01*
X12755885Y14275318D01*
X12622684Y14354093D01*
X12622683Y14354094D01*
X12490000Y14392643D01*
X12040000Y14392643D01*
X11907316Y14354094D01*
X11907315Y14354093D01*
X11774114Y14275318D01*
X11774105Y14275312D01*
X11664688Y14165895D01*
X11664682Y14165886D01*
X11585907Y14032685D01*
X11585906Y14032682D01*
X11542734Y13884085D01*
X11542732Y13884074D01*
X11540000Y13849357D01*
X11540000Y13825000D01*
X10460563Y13825000D01*
X10385072Y13949878D01*
X10264877Y14070073D01*
X10119395Y14158020D01*
X10119396Y14158020D01*
X9957105Y14208591D01*
X9957106Y14208591D01*
X9886572Y14215000D01*
X9805000Y14215000D01*
X9305000Y14215000D01*
X9304999Y14215001D01*
X9223417Y14215000D01*
X9152897Y14208592D01*
X9152892Y14208591D01*
X8990603Y14158019D01*
X8845122Y14070073D01*
X8724928Y13949879D01*
X8724925Y13949875D01*
X8639121Y13807939D01*
X8587593Y13760752D01*
X8518734Y13748914D01*
X8454405Y13776183D01*
X8427467Y13806993D01*
X8337575Y13952729D01*
X8337572Y13952733D01*
X8217732Y14072573D01*
X8217728Y14072576D01*
X8073492Y14161543D01*
X8073481Y14161548D01*
X7912606Y14214856D01*
X7813322Y14225000D01*
X7765000Y14225000D01*
X7765000Y13149000D01*
X7745315Y13081961D01*
X7692511Y13036206D01*
X7641000Y13025000D01*
X6540001Y13025000D01*
X6540001Y13001678D01*
X6550144Y12902393D01*
X6603452Y12741519D01*
X6603455Y12741512D01*
X6629309Y12699598D01*
X6647750Y12632206D01*
X6626828Y12565542D01*
X6573187Y12520772D01*
X6523771Y12510500D01*
X6259863Y12510500D01*
X6192824Y12530185D01*
X6160909Y12559773D01*
X6122513Y12610617D01*
X6075981Y12672236D01*
X6075978Y12672239D01*
X6075974Y12672243D01*
X5911562Y12822124D01*
X5911560Y12822126D01*
X5722404Y12939246D01*
X5722398Y12939248D01*
X5721270Y12939685D01*
X5514940Y13019618D01*
X5296243Y13060500D01*
X5073757Y13060500D01*
X4855060Y13019618D01*
X4779547Y12990364D01*
X4647601Y12939248D01*
X4647595Y12939246D01*
X4458439Y12822126D01*
X4458437Y12822124D01*
X4294020Y12672239D01*
X4159943Y12494692D01*
X4159938Y12494684D01*
X4060775Y12295539D01*
X4060769Y12295524D01*
X3999885Y12081538D01*
X3999884Y12081536D01*
X3979357Y11860001D01*
X3979357Y11860000D01*
X3999884Y11638465D01*
X3999885Y11638463D01*
X4060769Y11424477D01*
X4060775Y11424462D01*
X4159938Y11225317D01*
X4159943Y11225309D01*
X4294020Y11047762D01*
X4458437Y10897877D01*
X4458439Y10897875D01*
X4647595Y10780755D01*
X4647596Y10780755D01*
X4647599Y10780753D01*
X4855060Y10700382D01*
X5073757Y10659500D01*
X5073759Y10659500D01*
X5296240Y10659500D01*
X5296243Y10659500D01*
X5374642Y10674156D01*
X5444155Y10667125D01*
X5485107Y10639948D01*
X5974564Y10150491D01*
X5984640Y10137914D01*
X5984827Y10138068D01*
X5989795Y10132063D01*
X6042260Y10082795D01*
X6063961Y10061093D01*
X6063965Y10061090D01*
X6063966Y10061089D01*
X6069759Y10056596D01*
X6074191Y10052810D01*
X6109607Y10019552D01*
X6116517Y10015753D01*
X6128207Y10009326D01*
X6144468Y9998645D01*
X6161237Y9985637D01*
X6205827Y9966342D01*
X6211056Y9963780D01*
X6253632Y9940373D01*
X6274193Y9935095D01*
X6292597Y9928793D01*
X6312074Y9920364D01*
X6349927Y9914370D01*
X6360054Y9912765D01*
X6365764Y9911583D01*
X6412823Y9899500D01*
X6434045Y9899500D01*
X6453442Y9897974D01*
X6474405Y9894653D01*
X6519104Y9898879D01*
X6522770Y9899225D01*
X6528608Y9899500D01*
X8803735Y9899500D01*
X8870774Y9879815D01*
X8910467Y9838621D01*
X8984282Y9713806D01*
X8984289Y9713797D01*
X9093796Y9604290D01*
X9093800Y9604287D01*
X9093802Y9604285D01*
X9227113Y9525445D01*
X9375844Y9482235D01*
X9399011Y9480412D01*
X9410593Y9479500D01*
X9410594Y9479501D01*
X9410595Y9479500D01*
X9643134Y9479501D01*
X9759405Y9479501D01*
X9766354Y9480048D01*
X9794156Y9482235D01*
X9942887Y9525445D01*
X10076198Y9604285D01*
X10076197Y9604285D01*
X10082913Y9608256D01*
X10083744Y9606851D01*
X10140198Y9629015D01*
X10151160Y9629500D01*
X11161680Y9629500D01*
X11228719Y9609815D01*
X11274474Y9557011D01*
X11280062Y9542400D01*
X11316522Y9425394D01*
X11404530Y9279812D01*
X11506661Y9177681D01*
X11540146Y9116358D01*
X11535162Y9046666D01*
X11506661Y9002319D01*
X11404531Y8900190D01*
X11404530Y8900189D01*
X11316522Y8754607D01*
X11265913Y8592193D01*
X11259500Y8521614D01*
X11259500Y8008387D01*
X11265913Y7937808D01*
X11265913Y7937806D01*
X11265914Y7937804D01*
X11316522Y7775394D01*
X11392951Y7648965D01*
X11404530Y7629812D01*
X11519161Y7515181D01*
X11552646Y7453858D01*
X11547662Y7384166D01*
X11519161Y7339819D01*
X11404531Y7225190D01*
X11404530Y7225189D01*
X11316522Y7079607D01*
X11265913Y6917193D01*
X11259500Y6846614D01*
X11259500Y6614500D01*
X11239815Y6547461D01*
X11187011Y6501706D01*
X11135500Y6490500D01*
X10775808Y6490500D01*
X10708769Y6510185D01*
X10688127Y6526819D01*
X10356818Y6858128D01*
X10323333Y6919451D01*
X10320499Y6945809D01*
X10320499Y6949405D01*
X10317765Y6984153D01*
X10317765Y6984156D01*
X10274555Y7132887D01*
X10255500Y7165108D01*
X10252767Y7169730D01*
X10235500Y7232849D01*
X10235500Y7664062D01*
X10252767Y7727182D01*
X10264555Y7747113D01*
X10307765Y7895844D01*
X10310500Y7930595D01*
X10310499Y8429404D01*
X10307765Y8464156D01*
X10264555Y8612887D01*
X10185715Y8746198D01*
X10185713Y8746200D01*
X10185710Y8746204D01*
X10076203Y8855711D01*
X10076194Y8855718D01*
X9995111Y8903670D01*
X9942887Y8934555D01*
X9794156Y8977765D01*
X9794153Y8977766D01*
X9794151Y8977766D01*
X9759407Y8980500D01*
X9759405Y8980500D01*
X9526865Y8980500D01*
X9410595Y8980499D01*
X9375847Y8977766D01*
X9375844Y8977765D01*
X9227113Y8934555D01*
X9227111Y8934555D01*
X9227111Y8934554D01*
X9093805Y8855718D01*
X9093796Y8855711D01*
X8984289Y8746204D01*
X8984282Y8746195D01*
X8905446Y8612889D01*
X8862234Y8464153D01*
X8862234Y8464151D01*
X8859500Y8429407D01*
X8859501Y7930595D01*
X8862234Y7895848D01*
X8862234Y7895845D01*
X8862235Y7895844D01*
X8905445Y7747113D01*
X8917232Y7727182D01*
X8934500Y7664062D01*
X8934500Y7199031D01*
X8918384Y7140118D01*
X8918544Y7140048D01*
X8918058Y7138927D01*
X8917235Y7135915D01*
X8915447Y7132893D01*
X8915446Y7132890D01*
X8872234Y6984153D01*
X8872234Y6984151D01*
X8869500Y6949407D01*
X8869501Y6450595D01*
X8872234Y6415848D01*
X8872234Y6415845D01*
X8872235Y6415844D01*
X8915445Y6267113D01*
X8915446Y6267112D01*
X8994282Y6133806D01*
X8994289Y6133797D01*
X9103796Y6024290D01*
X9103800Y6024287D01*
X9103802Y6024285D01*
X9237113Y5945445D01*
X9385844Y5902235D01*
X9420595Y5899500D01*
X9424173Y5899501D01*
X9491213Y5879828D01*
X9511872Y5863182D01*
X9762873Y5612181D01*
X9796358Y5550858D01*
X9791374Y5481166D01*
X9749502Y5425233D01*
X9684038Y5400816D01*
X9675192Y5400500D01*
X9420595Y5400499D01*
X9385847Y5397766D01*
X9383854Y5397187D01*
X9237113Y5354555D01*
X9237111Y5354555D01*
X9237111Y5354554D01*
X9103805Y5275718D01*
X9103800Y5275714D01*
X9083271Y5255184D01*
X9034904Y5206818D01*
X8973584Y5173334D01*
X8947225Y5170500D01*
X6229863Y5170500D01*
X6162824Y5190185D01*
X6130909Y5219773D01*
X6117854Y5237061D01*
X6045981Y5332236D01*
X6045978Y5332239D01*
X6045974Y5332243D01*
X5881562Y5482124D01*
X5881560Y5482126D01*
X5692404Y5599246D01*
X5692398Y5599248D01*
X5679355Y5604301D01*
X5484940Y5679618D01*
X5266243Y5720500D01*
X5043757Y5720500D01*
X4825060Y5679618D01*
X4693864Y5628793D01*
X4617601Y5599248D01*
X4617595Y5599246D01*
X4428439Y5482126D01*
X4428437Y5482124D01*
X4264020Y5332239D01*
X4129943Y5154692D01*
X4129938Y5154684D01*
X4030775Y4955539D01*
X4030769Y4955524D01*
X3969885Y4741538D01*
X3969884Y4741536D01*
X3949357Y4520001D01*
X3949357Y4520000D01*
X3969884Y4298465D01*
X3969885Y4298463D01*
X4030769Y4084477D01*
X4030775Y4084462D01*
X4129938Y3885317D01*
X4129943Y3885309D01*
X4264020Y3707762D01*
X4416088Y3569134D01*
X4427911Y3558356D01*
X4428437Y3557877D01*
X4428439Y3557875D01*
X4617595Y3440755D01*
X4617596Y3440755D01*
X4617599Y3440753D01*
X4825060Y3360382D01*
X5043757Y3319500D01*
X5043759Y3319500D01*
X5266241Y3319500D01*
X5266243Y3319500D01*
X5484940Y3360382D01*
X5692401Y3440753D01*
X5881562Y3557876D01*
X5893775Y3569011D01*
X5956578Y3599630D01*
X6025965Y3591434D01*
X6064997Y3565057D01*
X6413181Y3216873D01*
X6446666Y3155550D01*
X6449500Y3129192D01*
X6449500Y2868387D01*
X6455913Y2797808D01*
X6455913Y2797806D01*
X6455914Y2797804D01*
X6506522Y2635394D01*
X6590389Y2496661D01*
X6594530Y2489812D01*
X6697015Y2387327D01*
X6730500Y2326004D01*
X6725516Y2256312D01*
X6697015Y2211965D01*
X6594928Y2109879D01*
X6594927Y2109878D01*
X6506980Y1964396D01*
X6456409Y1802107D01*
X6450000Y1731573D01*
X6450000Y1725000D01*
X8399999Y1725000D01*
X8399999Y1731583D01*
X8393591Y1802103D01*
X8393590Y1802108D01*
X8343018Y1964397D01*
X8255072Y2109878D01*
X8152984Y2211966D01*
X8119499Y2273289D01*
X8124483Y2342981D01*
X8152983Y2387327D01*
X8203839Y2438182D01*
X8265162Y2471666D01*
X8291519Y2474500D01*
X9355979Y2474500D01*
X9390572Y2469577D01*
X9415844Y2462235D01*
X9440666Y2460282D01*
X9450593Y2459500D01*
X9450594Y2459501D01*
X9450595Y2459500D01*
X9683134Y2459501D01*
X9799405Y2459501D01*
X9806354Y2460048D01*
X9834156Y2462235D01*
X9982887Y2505445D01*
X10116198Y2584285D01*
X10116197Y2584285D01*
X10122913Y2588256D01*
X10123744Y2586851D01*
X10180198Y2609015D01*
X10191160Y2609500D01*
X10469495Y2609500D01*
X10485505Y2607733D01*
X10485528Y2607974D01*
X10493289Y2607242D01*
X10493296Y2607240D01*
X10565203Y2609500D01*
X11321885Y2609500D01*
X11388924Y2589815D01*
X11434679Y2537011D01*
X11444623Y2467853D01*
X11424128Y2420168D01*
X11426218Y2418879D01*
X11333457Y2268493D01*
X11333452Y2268482D01*
X11280144Y2107607D01*
X11270000Y2008323D01*
X11270000Y1985000D01*
X13219999Y1985000D01*
X13219999Y2008308D01*
X13219998Y2008323D01*
X13209855Y2107608D01*
X13156547Y2268482D01*
X13156542Y2268493D01*
X13067575Y2412729D01*
X13067572Y2412733D01*
X13058339Y2421966D01*
X13024854Y2483289D01*
X13029838Y2552981D01*
X13058343Y2597332D01*
X13067968Y2606956D01*
X13157003Y2751303D01*
X13210349Y2912292D01*
X13220500Y3011655D01*
X13220499Y3558344D01*
X13219409Y3569010D01*
X13210349Y3657708D01*
X13210348Y3657711D01*
X13206891Y3668143D01*
X13157003Y3818697D01*
X13156999Y3818703D01*
X13156998Y3818706D01*
X13067970Y3963041D01*
X13067967Y3963045D01*
X12983516Y4047496D01*
X12950031Y4108819D01*
X12955015Y4178511D01*
X12983516Y4222858D01*
X13065468Y4304811D01*
X13065469Y4304812D01*
X13065472Y4304815D01*
X13153478Y4450394D01*
X13204086Y4612804D01*
X13210500Y4683384D01*
X13210500Y4925192D01*
X13230185Y4992231D01*
X13282989Y5037986D01*
X13352147Y5047930D01*
X13415703Y5018905D01*
X13422181Y5012873D01*
X14256693Y4178361D01*
X14290178Y4117038D01*
X14288787Y4058587D01*
X14283966Y4040597D01*
X14283964Y4040586D01*
X14264666Y3820002D01*
X14264666Y3819999D01*
X14283964Y3599415D01*
X14283965Y3599408D01*
X14341275Y3385525D01*
X14341279Y3385514D01*
X14431950Y3191069D01*
X14434858Y3184833D01*
X14561868Y3003445D01*
X14718445Y2846868D01*
X14899833Y2719858D01*
X15023682Y2662107D01*
X15076122Y2615935D01*
X15095274Y2548742D01*
X15075059Y2481861D01*
X15023683Y2437343D01*
X14900084Y2379707D01*
X14834657Y2333896D01*
X15393634Y1774919D01*
X15389839Y1774373D01*
X15256438Y1713451D01*
X15145605Y1617413D01*
X15066318Y1494040D01*
X15043866Y1417581D01*
X14481104Y1980343D01*
X14435293Y1914916D01*
X14341749Y1714310D01*
X14341745Y1714301D01*
X14284461Y1500510D01*
X14284459Y1500500D01*
X14265168Y1280001D01*
X14265168Y1280000D01*
X14284459Y1059501D01*
X14284461Y1059491D01*
X14341745Y845700D01*
X14341749Y845691D01*
X14435295Y645081D01*
X14481103Y579659D01*
X14481105Y579658D01*
X15043866Y1142420D01*
X15066318Y1065960D01*
X15145605Y942587D01*
X15256438Y846549D01*
X15389839Y785627D01*
X15393633Y785082D01*
X14834656Y226106D01*
X14835041Y221715D01*
X14871184Y176498D01*
X14878378Y107000D01*
X14846855Y44645D01*
X14786626Y9231D01*
X14756436Y5500D01*
X14259900Y5500D01*
X124543Y545D01*
X57497Y20206D01*
X11724Y72994D01*
X500Y124545D01*
X500Y1225000D01*
X6450001Y1225000D01*
X6450001Y1218418D01*
X6456408Y1147898D01*
X6456409Y1147893D01*
X6506981Y985604D01*
X6594927Y840123D01*
X6715122Y719928D01*
X6860604Y631981D01*
X6860603Y631981D01*
X7022894Y581410D01*
X7022892Y581410D01*
X7093418Y575001D01*
X7174999Y575002D01*
X7175000Y575002D01*
X7175000Y1225000D01*
X7675000Y1225000D01*
X7675000Y575001D01*
X7756581Y575001D01*
X7827102Y581409D01*
X7827107Y581410D01*
X7989396Y631982D01*
X8134877Y719928D01*
X8255072Y840123D01*
X8312427Y935000D01*
X8900001Y935000D01*
X8900001Y910647D01*
X8902733Y875922D01*
X8945906Y727319D01*
X8945907Y727316D01*
X9024682Y594115D01*
X9024688Y594106D01*
X9134105Y484689D01*
X9134114Y484683D01*
X9267315Y405908D01*
X9267318Y405907D01*
X9399998Y367359D01*
X9400000Y367360D01*
X9400000Y935000D01*
X9850000Y935000D01*
X9850000Y367360D01*
X9850001Y367359D01*
X9982681Y405907D01*
X9982684Y405908D01*
X10115885Y484683D01*
X10115894Y484689D01*
X10225311Y594106D01*
X10225317Y594115D01*
X10304092Y727316D01*
X10304093Y727319D01*
X10347265Y875916D01*
X10347267Y875927D01*
X10350000Y910643D01*
X10350000Y935000D01*
X9850000Y935000D01*
X9400000Y935000D01*
X8900001Y935000D01*
X8312427Y935000D01*
X8343019Y985605D01*
X8393590Y1147894D01*
X8400000Y1218428D01*
X8400000Y1225000D01*
X7675000Y1225000D01*
X7175000Y1225000D01*
X6450001Y1225000D01*
X500Y1225000D01*
X500Y1385000D01*
X8900000Y1385000D01*
X9400000Y1385000D01*
X9400000Y1952643D01*
X9850000Y1952643D01*
X9850000Y1385000D01*
X10349999Y1385000D01*
X10349999Y1409353D01*
X10347266Y1444079D01*
X10335377Y1485000D01*
X11270001Y1485000D01*
X11270001Y1461678D01*
X11280144Y1362393D01*
X11333452Y1201519D01*
X11333457Y1201508D01*
X11422424Y1057272D01*
X11422427Y1057268D01*
X11542267Y937428D01*
X11542271Y937425D01*
X11686507Y848458D01*
X11686518Y848453D01*
X11847393Y795145D01*
X11946683Y785001D01*
X11994999Y785002D01*
X11995000Y785002D01*
X11995000Y1485000D01*
X12495000Y1485000D01*
X12495000Y785001D01*
X12543308Y785001D01*
X12543322Y785002D01*
X12642607Y795145D01*
X12803481Y848453D01*
X12803492Y848458D01*
X12947728Y937425D01*
X12947732Y937428D01*
X13067572Y1057268D01*
X13067575Y1057272D01*
X13156542Y1201508D01*
X13156547Y1201519D01*
X13209855Y1362394D01*
X13219999Y1461678D01*
X13220000Y1461691D01*
X13220000Y1485000D01*
X12495000Y1485000D01*
X11995000Y1485000D01*
X11270001Y1485000D01*
X10335377Y1485000D01*
X10304093Y1592682D01*
X10304092Y1592685D01*
X10225317Y1725886D01*
X10225311Y1725895D01*
X10115894Y1835312D01*
X10115885Y1835318D01*
X9982684Y1914093D01*
X9982683Y1914094D01*
X9850000Y1952643D01*
X9400000Y1952643D01*
X9267316Y1914094D01*
X9267315Y1914093D01*
X9134114Y1835318D01*
X9134105Y1835312D01*
X9024688Y1725895D01*
X9024682Y1725886D01*
X8945907Y1592685D01*
X8945906Y1592682D01*
X8902734Y1444085D01*
X8902732Y1444074D01*
X8900000Y1409357D01*
X8900000Y1385000D01*
X500Y1385000D01*
X500Y13525000D01*
X6540000Y13525000D01*
X7265000Y13525000D01*
X7265000Y14225000D01*
X7264999Y14225001D01*
X7216693Y14225000D01*
X7216675Y14224999D01*
X7117392Y14214856D01*
X6956518Y14161548D01*
X6956507Y14161543D01*
X6812271Y14072576D01*
X6812267Y14072573D01*
X6692427Y13952733D01*
X6692424Y13952729D01*
X6603457Y13808493D01*
X6603452Y13808482D01*
X6550144Y13647607D01*
X6540000Y13548323D01*
X6540000Y13525000D01*
X500Y13525000D01*
X500Y14143770D01*
X20185Y14210809D01*
X72989Y14256564D01*
X142147Y14266508D01*
X205703Y14237483D01*
X212181Y14231451D01*
X271344Y14172288D01*
X420666Y14080186D01*
X587203Y14025001D01*
X689991Y14014500D01*
X1290008Y14014501D01*
X1290016Y14014502D01*
X1290019Y14014502D01*
X1346302Y14020252D01*
X1392797Y14025001D01*
X1559334Y14080186D01*
X1708656Y14172288D01*
X1832712Y14296344D01*
X1834752Y14299653D01*
X1836745Y14301445D01*
X1837193Y14302011D01*
X1837289Y14301935D01*
X1886694Y14346377D01*
X1955656Y14357605D01*
X2019740Y14329766D01*
X2045829Y14299661D01*
X2047681Y14296659D01*
X2047683Y14296656D01*
X2171654Y14172685D01*
X2320875Y14080644D01*
X2320880Y14080642D01*
X2487302Y14025495D01*
X2487309Y14025494D01*
X2590019Y14015001D01*
X2639999Y14015002D01*
X2640000Y14015002D01*
X2640000Y14990000D01*
X3140000Y14990000D01*
X3140000Y14015001D01*
X3189972Y14015001D01*
X3189986Y14015002D01*
X3292697Y14025495D01*
X3459119Y14080642D01*
X3459124Y14080644D01*
X3608345Y14172685D01*
X3732315Y14296655D01*
X3824356Y14445876D01*
X3824358Y14445881D01*
X3879505Y14612303D01*
X3879506Y14612310D01*
X3889999Y14715014D01*
X3890000Y14715027D01*
X3890000Y14990000D01*
X3140000Y14990000D01*
X2640000Y14990000D01*
X2640000Y15366000D01*
X2659685Y15433039D01*
X2712489Y15478794D01*
X2764000Y15490000D01*
X3889999Y15490000D01*
X3889999Y15764972D01*
X3889998Y15764987D01*
X3879505Y15867698D01*
X3822086Y16040977D01*
X3823831Y16041556D01*
X3814761Y16101283D01*
X3843283Y16165066D01*
X3901760Y16203304D01*
X3971628Y16203857D01*
X3976640Y16202313D01*
X4012305Y16190495D01*
X4012309Y16190494D01*
X4115019Y16180001D01*
X4389999Y16180001D01*
X4390000Y16180002D01*
X4390000Y16930000D01*
X4890000Y16930000D01*
X4890000Y16180001D01*
X5164972Y16180001D01*
X5164986Y16180002D01*
X5267697Y16190495D01*
X5434119Y16245642D01*
X5434124Y16245644D01*
X5583346Y16337685D01*
X5589007Y16342161D01*
X5590029Y16340869D01*
X5643642Y16370143D01*
X5713334Y16365159D01*
X5750361Y16341363D01*
X5750993Y16342161D01*
X5756653Y16337685D01*
X5905875Y16245644D01*
X5905880Y16245642D01*
X6072302Y16190495D01*
X6072309Y16190494D01*
X6175019Y16180001D01*
X6449999Y16180001D01*
X6450000Y16180002D01*
X6450000Y16930000D01*
X6950000Y16930000D01*
X6950000Y16180001D01*
X7224972Y16180001D01*
X7224986Y16180002D01*
X7327697Y16190495D01*
X7494119Y16245642D01*
X7494124Y16245644D01*
X7643345Y16337685D01*
X7652319Y16346658D01*
X7713642Y16380143D01*
X7783334Y16375159D01*
X7827681Y16346658D01*
X7846654Y16327685D01*
X7995875Y16235644D01*
X7995880Y16235642D01*
X8162302Y16180495D01*
X8162309Y16180494D01*
X8265019Y16170001D01*
X8539999Y16170001D01*
X9040000Y16170001D01*
X9314972Y16170001D01*
X9314986Y16170002D01*
X9417697Y16180495D01*
X9584119Y16235642D01*
X9584124Y16235644D01*
X9733345Y16327685D01*
X9752319Y16346658D01*
X9813642Y16380143D01*
X9883334Y16375159D01*
X9927681Y16346658D01*
X9936654Y16337685D01*
X10085875Y16245644D01*
X10085880Y16245642D01*
X10252302Y16190495D01*
X10252309Y16190494D01*
X10355019Y16180001D01*
X10629999Y16180001D01*
X10630000Y16180002D01*
X10630000Y16930000D01*
X11130000Y16930000D01*
X11130000Y16180001D01*
X11404972Y16180001D01*
X11404986Y16180002D01*
X11507697Y16190495D01*
X11674119Y16245642D01*
X11674124Y16245644D01*
X11823345Y16337685D01*
X11837319Y16351658D01*
X11898642Y16385143D01*
X11968334Y16380159D01*
X12012681Y16351658D01*
X12026654Y16337685D01*
X12175875Y16245644D01*
X12175880Y16245642D01*
X12342302Y16190495D01*
X12342309Y16190494D01*
X12445019Y16180001D01*
X12719999Y16180001D01*
X12720000Y16180002D01*
X12720000Y16930000D01*
X11130000Y16930000D01*
X10630000Y16930000D01*
X10033120Y16930000D01*
X10019996Y16922834D01*
X9993638Y16920000D01*
X9040000Y16920000D01*
X9040000Y16170001D01*
X8539999Y16170001D01*
X8540000Y16170002D01*
X8540000Y16920000D01*
X7586362Y16920000D01*
X7552306Y16930000D01*
X6950000Y16930000D01*
X6450000Y16930000D01*
X4890000Y16930000D01*
X4390000Y16930000D01*
X2484000Y16930000D01*
X2416961Y16949685D01*
X2371206Y17002489D01*
X2360000Y17054000D01*
X2360000Y17306000D01*
X2379685Y17373039D01*
X2432489Y17418794D01*
X2484000Y17430000D01*
X7903638Y17430000D01*
X7937694Y17420000D01*
X9636880Y17420000D01*
X9650004Y17427166D01*
X9676362Y17430000D01*
X14194999Y17430000D01*
X14194999Y17479972D01*
X14194998Y17479987D01*
X14184505Y17582698D01*
X14129358Y17749120D01*
X14129356Y17749125D01*
X14042215Y17890403D01*
X14023775Y17957796D01*
X14044698Y18024459D01*
X14098340Y18069229D01*
X14147754Y18079500D01*
X14244049Y18079500D01*
X14311088Y18059815D01*
G37*
G04 #@! TD.AperFunction*
G04 #@! TA.AperFunction,Conductor*
G36*
X21928329Y13484931D02*
G01*
X21952517Y13475909D01*
X22012127Y13469500D01*
X22677103Y13469501D01*
X22744142Y13449817D01*
X22783833Y13408625D01*
X22794059Y13391335D01*
X22802617Y13373866D01*
X22808226Y13359700D01*
X22810432Y13354128D01*
X22838983Y13314830D01*
X22842188Y13309951D01*
X22866919Y13268135D01*
X22866923Y13268131D01*
X22881925Y13253129D01*
X22894563Y13238331D01*
X22907032Y13221168D01*
X22907035Y13221166D01*
X22907037Y13221163D01*
X22914672Y13214847D01*
X22925847Y13205602D01*
X22928768Y13203026D01*
X22982243Y13152811D01*
X23003371Y13131683D01*
X23036858Y13070361D01*
X23031875Y13000669D01*
X22990005Y12944735D01*
X22924541Y12920316D01*
X22915692Y12920000D01*
X22135000Y12920000D01*
X22135000Y7420000D01*
X25215692Y7420000D01*
X25282731Y7400315D01*
X25328486Y7347511D01*
X25338430Y7278353D01*
X25309405Y7214797D01*
X25303392Y7208340D01*
X25044460Y6949407D01*
X24977010Y6881957D01*
X24915687Y6848473D01*
X24845997Y6853457D01*
X24817488Y6864090D01*
X24817484Y6864091D01*
X24817483Y6864091D01*
X24757873Y6870500D01*
X24757863Y6870500D01*
X24012129Y6870500D01*
X24012123Y6870499D01*
X23952515Y6864091D01*
X23928330Y6855071D01*
X23858639Y6850089D01*
X23841670Y6855071D01*
X23817487Y6864090D01*
X23817485Y6864091D01*
X23817483Y6864091D01*
X23757873Y6870500D01*
X23757863Y6870500D01*
X23012129Y6870500D01*
X23012123Y6870499D01*
X22952516Y6864092D01*
X22927615Y6854804D01*
X22857923Y6849822D01*
X22840952Y6854805D01*
X22817379Y6863597D01*
X22817372Y6863599D01*
X22757844Y6870000D01*
X22635000Y6870000D01*
X22635000Y6678402D01*
X22619832Y6618974D01*
X22616202Y6612328D01*
X22565908Y6477483D01*
X22561404Y6435584D01*
X22559501Y6417877D01*
X22559500Y6417865D01*
X22559500Y4322130D01*
X22559501Y4322124D01*
X22565908Y4262517D01*
X22616202Y4127672D01*
X22619830Y4121029D01*
X22635000Y4061598D01*
X22635000Y3870000D01*
X22676808Y3870000D01*
X22743847Y3850315D01*
X22783538Y3809124D01*
X22794059Y3791335D01*
X22802617Y3773866D01*
X22808226Y3759700D01*
X22810432Y3754128D01*
X22838983Y3714830D01*
X22842188Y3709951D01*
X22866919Y3668135D01*
X22866923Y3668131D01*
X22881925Y3653129D01*
X22894563Y3638331D01*
X22907033Y3621167D01*
X22907036Y3621164D01*
X22907037Y3621163D01*
X22944476Y3590191D01*
X22948776Y3586278D01*
X23783535Y2751519D01*
X24539425Y1995629D01*
X24552063Y1980831D01*
X24564533Y1963667D01*
X24564536Y1963664D01*
X24564537Y1963663D01*
X24601976Y1932691D01*
X24606276Y1928778D01*
X25150054Y1385000D01*
X25654564Y880490D01*
X25664635Y867920D01*
X25664822Y868074D01*
X25669796Y862063D01*
X25669798Y862060D01*
X25693159Y840123D01*
X25722243Y812810D01*
X25743967Y791087D01*
X25749757Y786595D01*
X25754197Y782803D01*
X25767832Y770000D01*
X25789607Y749552D01*
X25808198Y739332D01*
X25824463Y728648D01*
X25835705Y719928D01*
X25841237Y715637D01*
X25885827Y696342D01*
X25891056Y693780D01*
X25933632Y670373D01*
X25954193Y665095D01*
X25972597Y658793D01*
X25992074Y650364D01*
X26025407Y645085D01*
X26040054Y642765D01*
X26045764Y641583D01*
X26092823Y629500D01*
X26114045Y629500D01*
X26133442Y627974D01*
X26154405Y624653D01*
X26199104Y628879D01*
X26202770Y629225D01*
X26208608Y629500D01*
X27081044Y629500D01*
X27148083Y609815D01*
X27182617Y576626D01*
X27261868Y463445D01*
X27418445Y306868D01*
X27526690Y231074D01*
X27570313Y176498D01*
X27577506Y106999D01*
X27545984Y44645D01*
X27485754Y9231D01*
X27455565Y5500D01*
X16313563Y5500D01*
X16246524Y25185D01*
X16200769Y77989D01*
X16190825Y147147D01*
X16219850Y210703D01*
X16235206Y224553D01*
X16235342Y226106D01*
X15676366Y785082D01*
X15680161Y785627D01*
X15813562Y846549D01*
X15924395Y942587D01*
X16003682Y1065960D01*
X16026132Y1142420D01*
X16588894Y579658D01*
X16634706Y645085D01*
X16728250Y845691D01*
X16728254Y845700D01*
X16785538Y1059491D01*
X16785540Y1059501D01*
X16804832Y1280000D01*
X16804832Y1280001D01*
X16785540Y1500500D01*
X16785538Y1500510D01*
X16728254Y1714301D01*
X16728250Y1714310D01*
X16634707Y1914915D01*
X16634706Y1914917D01*
X16588894Y1980343D01*
X16588894Y1980344D01*
X16026132Y1417582D01*
X16003682Y1494040D01*
X15924395Y1617413D01*
X15813562Y1713451D01*
X15680161Y1774373D01*
X15676366Y1774919D01*
X16235342Y2333895D01*
X16235341Y2333897D01*
X16169919Y2379705D01*
X16046316Y2437343D01*
X15993877Y2483516D01*
X15974725Y2550709D01*
X15994941Y2617590D01*
X16046312Y2662105D01*
X16170167Y2719858D01*
X16351555Y2846868D01*
X16508132Y3003445D01*
X16635142Y3184833D01*
X16728723Y3385520D01*
X16786035Y3599409D01*
X16804369Y3808972D01*
X16805334Y3819999D01*
X16805334Y3820002D01*
X16794004Y3949500D01*
X16786035Y4040591D01*
X16728723Y4254480D01*
X16724975Y4262517D01*
X16691443Y4334428D01*
X16635142Y4455167D01*
X16508132Y4636555D01*
X16351555Y4793132D01*
X16170167Y4920142D01*
X16046907Y4977619D01*
X15994468Y5023790D01*
X15975316Y5090983D01*
X15995531Y5157864D01*
X16046908Y5202382D01*
X16065887Y5211232D01*
X16170167Y5259858D01*
X16351555Y5386868D01*
X16508132Y5543445D01*
X16635142Y5724833D01*
X16728723Y5925520D01*
X16786035Y6139409D01*
X16805334Y6360000D01*
X16804714Y6367085D01*
X16818476Y6435584D01*
X16867088Y6485770D01*
X16935116Y6501707D01*
X17000961Y6478336D01*
X17015922Y6465579D01*
X18468181Y5013320D01*
X18501666Y4951997D01*
X18504500Y4925639D01*
X18504500Y3847976D01*
X18498206Y3808972D01*
X18464651Y3707710D01*
X18454500Y3608353D01*
X18454500Y3011663D01*
X18454501Y3011645D01*
X18464650Y2912293D01*
X18464651Y2912290D01*
X18517996Y2751306D01*
X18518001Y2751295D01*
X18607029Y2606960D01*
X18607032Y2606956D01*
X18726955Y2487033D01*
X18726959Y2487030D01*
X18871294Y2398002D01*
X18871297Y2398001D01*
X18871303Y2397997D01*
X19032292Y2344651D01*
X19131655Y2334500D01*
X19678344Y2334501D01*
X19678352Y2334502D01*
X19678355Y2334502D01*
X19761359Y2342981D01*
X19777708Y2344651D01*
X19938697Y2397997D01*
X20083044Y2487032D01*
X20092668Y2496657D01*
X20153987Y2530144D01*
X20223679Y2525165D01*
X20268034Y2496661D01*
X20277267Y2487428D01*
X20277271Y2487425D01*
X20421507Y2398458D01*
X20421518Y2398453D01*
X20582393Y2345145D01*
X20681683Y2335001D01*
X20705000Y2335002D01*
X20705000Y3060000D01*
X21205000Y3060000D01*
X21205000Y2335001D01*
X21228308Y2335001D01*
X21228322Y2335002D01*
X21327607Y2345145D01*
X21488481Y2398453D01*
X21488492Y2398458D01*
X21632728Y2487425D01*
X21632732Y2487428D01*
X21752572Y2607268D01*
X21752575Y2607272D01*
X21841542Y2751508D01*
X21841547Y2751519D01*
X21894855Y2912394D01*
X21904999Y3011678D01*
X21905000Y3011691D01*
X21905000Y3060000D01*
X21205000Y3060000D01*
X20705000Y3060000D01*
X20705000Y3436000D01*
X20724685Y3503039D01*
X20777489Y3548794D01*
X20829000Y3560000D01*
X21904999Y3560000D01*
X21904999Y3608308D01*
X21904998Y3608323D01*
X21894855Y3707612D01*
X21893439Y3714229D01*
X21894801Y3714521D01*
X21892654Y3776816D01*
X21928382Y3836861D01*
X21990900Y3868057D01*
X22012764Y3870000D01*
X22135000Y3870000D01*
X22135000Y5120000D01*
X20429500Y5120000D01*
X20362461Y5139685D01*
X20316706Y5192489D01*
X20305500Y5244000D01*
X20305500Y5269374D01*
X20307027Y5288775D01*
X20307954Y5294628D01*
X20309219Y5302612D01*
X20305585Y5371953D01*
X20305500Y5375198D01*
X20305500Y5397187D01*
X20305500Y5397192D01*
X20303199Y5419079D01*
X20302946Y5422289D01*
X20299312Y5491646D01*
X20299311Y5491652D01*
X20295687Y5505175D01*
X20292139Y5524316D01*
X20290674Y5538252D01*
X20290674Y5538253D01*
X20290674Y5538256D01*
X20269214Y5604301D01*
X20268291Y5607415D01*
X20264919Y5620000D01*
X20250320Y5674488D01*
X20243954Y5686981D01*
X20236508Y5704958D01*
X20232178Y5718286D01*
X20232177Y5718289D01*
X20227111Y5727063D01*
X20210499Y5789061D01*
X20210499Y6417871D01*
X20210498Y6417877D01*
X20210497Y6417884D01*
X20204091Y6477483D01*
X20195056Y6501706D01*
X20153797Y6612328D01*
X20153796Y6612331D01*
X20153793Y6612335D01*
X20150168Y6618974D01*
X20135000Y6678402D01*
X20135000Y6870000D01*
X20635000Y6870000D01*
X20635000Y5620000D01*
X21135000Y5620000D01*
X21135000Y6870000D01*
X21635000Y6870000D01*
X21635000Y5620000D01*
X22135000Y5620000D01*
X22135000Y6870000D01*
X22012155Y6870000D01*
X21952627Y6863599D01*
X21952620Y6863597D01*
X21928331Y6854538D01*
X21858639Y6849555D01*
X21841669Y6854538D01*
X21817379Y6863597D01*
X21817372Y6863599D01*
X21757844Y6870000D01*
X21635000Y6870000D01*
X21135000Y6870000D01*
X21012155Y6870000D01*
X20952627Y6863599D01*
X20952620Y6863597D01*
X20928331Y6854538D01*
X20858639Y6849555D01*
X20841669Y6854538D01*
X20817379Y6863597D01*
X20817372Y6863599D01*
X20757844Y6870000D01*
X20635000Y6870000D01*
X20135000Y6870000D01*
X20012155Y6870000D01*
X19952624Y6863599D01*
X19952623Y6863598D01*
X19929044Y6854804D01*
X19859353Y6849822D01*
X19842381Y6854805D01*
X19817482Y6864092D01*
X19817483Y6864092D01*
X19757883Y6870499D01*
X19757881Y6870500D01*
X19757873Y6870500D01*
X19757865Y6870500D01*
X19209361Y6870500D01*
X19142322Y6890185D01*
X19121680Y6906819D01*
X18820180Y7208319D01*
X18786695Y7269642D01*
X18791679Y7339334D01*
X18833551Y7395267D01*
X18899015Y7419684D01*
X18907861Y7420000D01*
X21635000Y7420000D01*
X21635000Y12920000D01*
X21331930Y12920000D01*
X21264891Y12939685D01*
X21219136Y12992489D01*
X21209192Y13061647D01*
X21213995Y13082305D01*
X21216506Y13090036D01*
X21223956Y13108024D01*
X21230320Y13120512D01*
X21248304Y13187632D01*
X21249216Y13190705D01*
X21270674Y13256744D01*
X21272138Y13270687D01*
X21275683Y13289813D01*
X21279313Y13303354D01*
X21281861Y13351990D01*
X21305026Y13417906D01*
X21360151Y13460836D01*
X21405691Y13469501D01*
X21757871Y13469501D01*
X21757872Y13469501D01*
X21817483Y13475909D01*
X21841663Y13484929D01*
X21911353Y13489915D01*
X21928329Y13484931D01*
G37*
G04 #@! TD.AperFunction*
G04 #@! TA.AperFunction,Conductor*
G36*
X19435139Y15200315D02*
G01*
X19480894Y15147511D01*
X19491420Y15083041D01*
X19485899Y15030500D01*
X19484500Y15017189D01*
X19484500Y14844000D01*
X19464815Y14776961D01*
X19412011Y14731206D01*
X19360500Y14720000D01*
X18559999Y14720000D01*
X18551168Y14711169D01*
X18489845Y14677684D01*
X18420153Y14682670D01*
X18364220Y14724542D01*
X18357960Y14733739D01*
X18342968Y14758044D01*
X18333339Y14767673D01*
X18299854Y14828996D01*
X18304838Y14898688D01*
X18333345Y14943041D01*
X18342573Y14952269D01*
X18431542Y15096508D01*
X18431548Y15096521D01*
X18444300Y15135003D01*
X18484072Y15192449D01*
X18548588Y15219272D01*
X18562006Y15220000D01*
X19368100Y15220000D01*
X19435139Y15200315D01*
G37*
G04 #@! TD.AperFunction*
G04 #@! TA.AperFunction,Conductor*
G36*
X17317152Y18039815D02*
G01*
X17362907Y17987011D01*
X17372851Y17917853D01*
X17362496Y17883096D01*
X17360641Y17879119D01*
X17305494Y17712698D01*
X17305493Y17712691D01*
X17295000Y17609987D01*
X17295000Y17560000D01*
X19723638Y17560000D01*
X19757694Y17550000D01*
X20736000Y17550000D01*
X20803039Y17530315D01*
X20848794Y17477511D01*
X20860000Y17426000D01*
X20860000Y17174000D01*
X20840315Y17106961D01*
X20787511Y17061206D01*
X20736000Y17050000D01*
X19406362Y17050000D01*
X19372306Y17060000D01*
X17295001Y17060000D01*
X17295001Y17010014D01*
X17305494Y16907303D01*
X17359938Y16743004D01*
X17362340Y16673176D01*
X17326608Y16613134D01*
X17264088Y16581941D01*
X17242237Y16580000D01*
X17221695Y16580000D01*
X17221676Y16579999D01*
X17122391Y16569856D01*
X16958402Y16515516D01*
X16888574Y16513114D01*
X16828532Y16548846D01*
X16797340Y16611367D01*
X16795871Y16622415D01*
X16785540Y16740499D01*
X16785538Y16740510D01*
X16728254Y16954301D01*
X16728250Y16954310D01*
X16634707Y17154915D01*
X16634706Y17154917D01*
X16588894Y17220343D01*
X16588894Y17220344D01*
X16026132Y16657582D01*
X16003682Y16734040D01*
X15924395Y16857413D01*
X15813562Y16953451D01*
X15680161Y17014373D01*
X15676366Y17014919D01*
X16235342Y17573895D01*
X16234957Y17578287D01*
X16198815Y17623503D01*
X16191621Y17693001D01*
X16223144Y17755356D01*
X16283373Y17790770D01*
X16313562Y17794501D01*
X16347872Y17794501D01*
X16407483Y17800909D01*
X16542331Y17851204D01*
X16657546Y17937454D01*
X16711713Y18009812D01*
X16767646Y18051682D01*
X16810979Y18059500D01*
X17250113Y18059500D01*
X17317152Y18039815D01*
G37*
G04 #@! TD.AperFunction*
G04 #@! TA.AperFunction,Conductor*
G36*
X26003039Y17795315D02*
G01*
X26048794Y17742511D01*
X26060000Y17691000D01*
X26060000Y17439000D01*
X26040315Y17371961D01*
X25987511Y17326206D01*
X25936000Y17315000D01*
X25195000Y17315000D01*
X25195000Y17254000D01*
X25175315Y17186961D01*
X25122511Y17141206D01*
X25071000Y17130000D01*
X23804000Y17130000D01*
X23736961Y17149685D01*
X23691206Y17202489D01*
X23680000Y17254000D01*
X23680000Y17506000D01*
X23699685Y17573039D01*
X23752489Y17618794D01*
X23804000Y17630000D01*
X24795000Y17630000D01*
X24795000Y17691000D01*
X24814685Y17758039D01*
X24867489Y17803794D01*
X24919000Y17815000D01*
X25936000Y17815000D01*
X26003039Y17795315D01*
G37*
G04 #@! TD.AperFunction*
G04 #@! TA.AperFunction,Conductor*
G36*
X18072002Y25764318D02*
G01*
X18082275Y25756951D01*
X18085738Y25754189D01*
X18238478Y25658216D01*
X18408745Y25598637D01*
X18477384Y25590904D01*
X18541796Y25563839D01*
X18581352Y25506245D01*
X18587500Y25467684D01*
X18587500Y25412323D01*
X18567815Y25345284D01*
X18515011Y25299529D01*
X18477384Y25289103D01*
X18408750Y25281370D01*
X18238478Y25221790D01*
X18085736Y25125815D01*
X18082281Y25123059D01*
X18017595Y25096648D01*
X18004965Y25096003D01*
X10471035Y25096003D01*
X10403996Y25115688D01*
X10393719Y25123059D01*
X10390263Y25125815D01*
X10390262Y25125816D01*
X10313892Y25173803D01*
X10237521Y25221790D01*
X10067249Y25281370D01*
X9998616Y25289103D01*
X9934202Y25316170D01*
X9894647Y25373765D01*
X9888500Y25412323D01*
X9888500Y25660003D01*
X9908185Y25727042D01*
X9960989Y25772797D01*
X10012500Y25784003D01*
X18004963Y25784003D01*
X18072002Y25764318D01*
G37*
G04 #@! TD.AperFunction*
G04 #@! TA.AperFunction,Conductor*
G36*
X17750629Y29633817D02*
G01*
X17771271Y29617183D01*
X18214619Y29173835D01*
X18248104Y29112512D01*
X18243120Y29042820D01*
X18201248Y28986887D01*
X18192910Y28981160D01*
X18085736Y28913818D01*
X18082281Y28911062D01*
X18017595Y28884651D01*
X18004965Y28884006D01*
X11678955Y28884006D01*
X11611916Y28903691D01*
X11566161Y28956495D01*
X11556217Y29025653D01*
X11585242Y29089209D01*
X11591274Y29095687D01*
X11762771Y29267183D01*
X11824094Y29300668D01*
X11850452Y29303502D01*
X12146613Y29303502D01*
X12146616Y29303502D01*
X12217196Y29309916D01*
X12379606Y29360524D01*
X12524852Y29448329D01*
X12592404Y29466165D01*
X12653147Y29448330D01*
X12798394Y29360524D01*
X12960804Y29309916D01*
X13031384Y29303502D01*
X13031387Y29303502D01*
X13544613Y29303502D01*
X13544616Y29303502D01*
X13615196Y29309916D01*
X13777606Y29360524D01*
X13923185Y29448530D01*
X13966288Y29491633D01*
X14025319Y29550663D01*
X14086642Y29584148D01*
X14156334Y29579164D01*
X14200681Y29550663D01*
X14302811Y29448533D01*
X14302813Y29448532D01*
X14302815Y29448530D01*
X14448394Y29360524D01*
X14610804Y29309916D01*
X14681384Y29303502D01*
X14681387Y29303502D01*
X15194613Y29303502D01*
X15194616Y29303502D01*
X15265196Y29309916D01*
X15427606Y29360524D01*
X15573185Y29448530D01*
X15693472Y29568817D01*
X15708486Y29593653D01*
X15760014Y29640840D01*
X15814602Y29653502D01*
X17683590Y29653502D01*
X17750629Y29633817D01*
G37*
G04 #@! TD.AperFunction*
G04 #@! TA.AperFunction,Conductor*
G36*
X29482448Y33909815D02*
G01*
X29528203Y33857011D01*
X29539408Y33805411D01*
X29530615Y21846766D01*
X29529500Y20330100D01*
X29529500Y19810873D01*
X29509815Y19743834D01*
X29457011Y19698079D01*
X29387853Y19688135D01*
X29324297Y19717160D01*
X29303925Y19739749D01*
X29266607Y19793044D01*
X29208132Y19876555D01*
X29051555Y20033132D01*
X28870167Y20160142D01*
X28822130Y20182542D01*
X28669486Y20253721D01*
X28669475Y20253725D01*
X28455592Y20311035D01*
X28455585Y20311036D01*
X28235002Y20330334D01*
X28234998Y20330334D01*
X28014414Y20311036D01*
X28014407Y20311035D01*
X27800524Y20253725D01*
X27800513Y20253721D01*
X27599836Y20160144D01*
X27599834Y20160143D01*
X27418444Y20033132D01*
X27261868Y19876556D01*
X27134857Y19695166D01*
X27134856Y19695164D01*
X27041279Y19494487D01*
X27041275Y19494475D01*
X27022831Y19425640D01*
X26986466Y19365980D01*
X26923619Y19335451D01*
X26854243Y19343746D01*
X26800365Y19388231D01*
X26779698Y19445133D01*
X26775349Y19487708D01*
X26722003Y19648697D01*
X26721999Y19648703D01*
X26721998Y19648706D01*
X26632970Y19793041D01*
X26632967Y19793045D01*
X26513044Y19912968D01*
X26513040Y19912971D01*
X26368705Y20001999D01*
X26368699Y20002002D01*
X26368697Y20002003D01*
X26330033Y20014815D01*
X26207709Y20055349D01*
X26158419Y20060385D01*
X26122122Y20069792D01*
X26111058Y20074540D01*
X25911741Y20115500D01*
X24920515Y20115500D01*
X24855419Y20133961D01*
X24724340Y20214811D01*
X24724335Y20214813D01*
X24724334Y20214814D01*
X24557797Y20269999D01*
X24557795Y20270000D01*
X24455016Y20280500D01*
X24455009Y20280500D01*
X23970407Y20280500D01*
X23965701Y20280679D01*
X23904524Y20285337D01*
X23904523Y20285337D01*
X23888537Y20283302D01*
X23869746Y20282350D01*
X23853646Y20282758D01*
X23853628Y20282756D01*
X23851889Y20282444D01*
X23830019Y20280500D01*
X23404998Y20280500D01*
X23404980Y20280499D01*
X23302203Y20270000D01*
X23302200Y20269999D01*
X23178397Y20228974D01*
X23135666Y20214814D01*
X23135664Y20214814D01*
X23135661Y20214812D01*
X23129879Y20212116D01*
X23077479Y20200500D01*
X20771728Y20200500D01*
X20767018Y20200679D01*
X20743154Y20202497D01*
X20735380Y20203588D01*
X20701742Y20210500D01*
X20701741Y20210500D01*
X20640402Y20210500D01*
X20635695Y20210679D01*
X20630121Y20211104D01*
X20574524Y20215338D01*
X20554589Y20212799D01*
X20540440Y20210997D01*
X20532611Y20210500D01*
X18532699Y20210500D01*
X18443640Y20212757D01*
X18443639Y20212757D01*
X18443637Y20212757D01*
X18443634Y20212757D01*
X18443628Y20212756D01*
X18441889Y20212444D01*
X18420019Y20210500D01*
X17994998Y20210500D01*
X17994980Y20210499D01*
X17892203Y20200000D01*
X17892200Y20199999D01*
X17725668Y20144815D01*
X17725659Y20144811D01*
X17618900Y20078961D01*
X17553804Y20060500D01*
X16810979Y20060500D01*
X16743940Y20080185D01*
X16711712Y20110189D01*
X16657546Y20182546D01*
X16620206Y20210499D01*
X16542335Y20268794D01*
X16542328Y20268798D01*
X16407482Y20319092D01*
X16407483Y20319092D01*
X16347883Y20325499D01*
X16347881Y20325500D01*
X16347873Y20325500D01*
X16347864Y20325500D01*
X14722129Y20325500D01*
X14722123Y20325499D01*
X14662516Y20319092D01*
X14527671Y20268798D01*
X14527664Y20268794D01*
X14412457Y20182549D01*
X14412449Y20182542D01*
X14373260Y20130190D01*
X14317326Y20088318D01*
X14273993Y20080500D01*
X2454214Y20080500D01*
X2365139Y20082757D01*
X2365131Y20082757D01*
X2364183Y20082587D01*
X2363378Y20082443D01*
X2341516Y20080500D01*
X2084999Y20080500D01*
X2084980Y20080499D01*
X1982203Y20070000D01*
X1982200Y20069999D01*
X1815668Y20014815D01*
X1815663Y20014813D01*
X1666342Y19922711D01*
X1542289Y19798658D01*
X1450187Y19649337D01*
X1450186Y19649334D01*
X1396629Y19487708D01*
X1395000Y19482793D01*
X1393582Y19476171D01*
X1390826Y19476761D01*
X1369167Y19423695D01*
X1359896Y19413321D01*
X291532Y18344957D01*
X226945Y18283560D01*
X226944Y18283558D01*
X226271Y18282591D01*
X225764Y18282184D01*
X222849Y18278788D01*
X222216Y18279332D01*
X171815Y18238816D01*
X102336Y18231431D01*
X39895Y18262781D01*
X4315Y18322913D01*
X500Y18353434D01*
X500Y23675002D01*
X6557357Y23675002D01*
X6577884Y23453467D01*
X6577885Y23453465D01*
X6638769Y23239479D01*
X6638775Y23239464D01*
X6737938Y23040319D01*
X6737943Y23040311D01*
X6872020Y22862764D01*
X7036437Y22712879D01*
X7036439Y22712877D01*
X7225595Y22595757D01*
X7225596Y22595757D01*
X7225599Y22595755D01*
X7433060Y22515384D01*
X7651757Y22474502D01*
X7651759Y22474502D01*
X7874241Y22474502D01*
X7874243Y22474502D01*
X8092940Y22515384D01*
X8300401Y22595755D01*
X8489562Y22712878D01*
X8653981Y22862766D01*
X8757788Y23000230D01*
X8813897Y23041865D01*
X8856742Y23049502D01*
X9251058Y23049502D01*
X9318097Y23029817D01*
X9338739Y23013183D01*
X9385738Y22966184D01*
X9522040Y22880540D01*
X9538478Y22870211D01*
X9604954Y22846950D01*
X9661730Y22806228D01*
X9687478Y22741276D01*
X9688000Y22729908D01*
X9688000Y21996000D01*
X18004963Y21996000D01*
X18072002Y21976315D01*
X18082275Y21968948D01*
X18085738Y21966186D01*
X18157286Y21921229D01*
X18238478Y21870213D01*
X18408745Y21810634D01*
X18408750Y21810633D01*
X18587996Y21790437D01*
X18588000Y21790437D01*
X18588004Y21790437D01*
X18767249Y21810633D01*
X18767252Y21810634D01*
X18767255Y21810634D01*
X18937522Y21870213D01*
X19066883Y21951497D01*
X19132855Y21970502D01*
X19670833Y21970502D01*
X19737872Y21950817D01*
X19769787Y21921229D01*
X19826020Y21846764D01*
X19990437Y21696879D01*
X19990439Y21696877D01*
X20179595Y21579757D01*
X20179596Y21579757D01*
X20179599Y21579755D01*
X20387060Y21499384D01*
X20605757Y21458502D01*
X20605759Y21458502D01*
X20828241Y21458502D01*
X20828243Y21458502D01*
X21046940Y21499384D01*
X21254401Y21579755D01*
X21443562Y21696878D01*
X21607981Y21846766D01*
X21742058Y22024313D01*
X21841229Y22223474D01*
X21902115Y22437466D01*
X21922643Y22659002D01*
X21902115Y22880538D01*
X21841229Y23094530D01*
X21841224Y23094541D01*
X21742061Y23293686D01*
X21742056Y23293694D01*
X21607979Y23471241D01*
X21443562Y23621126D01*
X21443560Y23621128D01*
X21254404Y23738248D01*
X21254398Y23738250D01*
X21046940Y23818620D01*
X20828243Y23859502D01*
X20605757Y23859502D01*
X20387060Y23818620D01*
X20262105Y23770212D01*
X20179601Y23738250D01*
X20179595Y23738248D01*
X19990439Y23621128D01*
X19990437Y23621126D01*
X19826020Y23471241D01*
X19691943Y23293694D01*
X19691938Y23293685D01*
X19690217Y23290228D01*
X19688955Y23288868D01*
X19688923Y23288815D01*
X19688912Y23288822D01*
X19642713Y23238992D01*
X19579218Y23221502D01*
X19132855Y23221502D01*
X19066883Y23240508D01*
X18937524Y23321790D01*
X18937523Y23321791D01*
X18871044Y23345053D01*
X18814269Y23385775D01*
X18788522Y23450728D01*
X18788000Y23462094D01*
X18788000Y23629908D01*
X18807685Y23696947D01*
X18860489Y23742702D01*
X18871046Y23746950D01*
X18875465Y23748497D01*
X18937522Y23770211D01*
X19078857Y23859019D01*
X19110227Y23873099D01*
X19110887Y23873291D01*
X19110891Y23873291D01*
X19130132Y23878883D01*
X19149178Y23882826D01*
X19169056Y23885336D01*
X19212386Y23902493D01*
X19217910Y23904383D01*
X19221660Y23905473D01*
X19262654Y23917382D01*
X19279893Y23927578D01*
X19297367Y23936138D01*
X19315991Y23943512D01*
X19315991Y23943513D01*
X19315996Y23943514D01*
X19353713Y23970918D01*
X19358569Y23974108D01*
X19398684Y23997830D01*
X19412853Y24012001D01*
X19427643Y24024632D01*
X19443851Y24036406D01*
X19473563Y24072324D01*
X19477476Y24076624D01*
X19596786Y24195934D01*
X19609048Y24205756D01*
X19608865Y24205977D01*
X19614867Y24210944D01*
X19614877Y24210950D01*
X19662241Y24261388D01*
X19683120Y24282266D01*
X19687373Y24287750D01*
X19691150Y24292173D01*
X19723062Y24326154D01*
X19732714Y24343713D01*
X19743389Y24359964D01*
X19755674Y24375800D01*
X19774186Y24418584D01*
X19776742Y24423801D01*
X19799197Y24464644D01*
X19804180Y24484056D01*
X19810477Y24502445D01*
X19818438Y24520841D01*
X19825729Y24566883D01*
X19826908Y24572574D01*
X19838500Y24617717D01*
X19838500Y24637753D01*
X19840027Y24657154D01*
X19843160Y24676932D01*
X19838775Y24723321D01*
X19838500Y24729159D01*
X19838500Y25378332D01*
X19858185Y25445371D01*
X19910989Y25491126D01*
X19980147Y25501070D01*
X20027774Y25483761D01*
X20179599Y25389755D01*
X20387060Y25309384D01*
X20605757Y25268502D01*
X20605759Y25268502D01*
X20828241Y25268502D01*
X20828243Y25268502D01*
X21046940Y25309384D01*
X21254401Y25389755D01*
X21443562Y25506878D01*
X21607981Y25656766D01*
X21742058Y25834313D01*
X21841229Y26033474D01*
X21902115Y26247466D01*
X21922643Y26469002D01*
X21902115Y26690538D01*
X21841229Y26904530D01*
X21841224Y26904541D01*
X21742061Y27103686D01*
X21742056Y27103694D01*
X21607979Y27281241D01*
X21443562Y27431126D01*
X21443560Y27431128D01*
X21254404Y27548248D01*
X21254398Y27548250D01*
X21224912Y27559673D01*
X21046940Y27628620D01*
X20828243Y27669502D01*
X20605757Y27669502D01*
X20387060Y27628620D01*
X20255864Y27577795D01*
X20179601Y27548250D01*
X20179595Y27548248D01*
X20027777Y27454246D01*
X19960416Y27435691D01*
X19893717Y27456499D01*
X19848856Y27510064D01*
X19838500Y27559673D01*
X19838500Y27576266D01*
X19840224Y27591880D01*
X19839938Y27591907D01*
X19840672Y27599670D01*
X19838500Y27668801D01*
X19838500Y28425756D01*
X19840027Y28445157D01*
X19840339Y28447126D01*
X19843160Y28464935D01*
X19838775Y28511324D01*
X19838500Y28517162D01*
X19838500Y28977302D01*
X19840224Y28992922D01*
X19839939Y28992948D01*
X19840671Y29000704D01*
X19840673Y29000711D01*
X19838500Y29069859D01*
X19838500Y29099394D01*
X19837631Y29106272D01*
X19837172Y29112101D01*
X19835709Y29158672D01*
X19830122Y29177900D01*
X19826174Y29196960D01*
X19824589Y29209510D01*
X19823664Y29216836D01*
X19823663Y29216838D01*
X19823663Y29216840D01*
X19806512Y29260157D01*
X19804619Y29265686D01*
X19791618Y29310435D01*
X19791616Y29310438D01*
X19781423Y29327673D01*
X19772861Y29345150D01*
X19765487Y29363774D01*
X19765486Y29363776D01*
X19738079Y29401499D01*
X19734888Y29406358D01*
X19729838Y29414897D01*
X19711170Y29446464D01*
X19711168Y29446466D01*
X19711165Y29446470D01*
X19697006Y29460629D01*
X19684368Y29475425D01*
X19672594Y29491631D01*
X19644964Y29514488D01*
X19636688Y29521335D01*
X19632376Y29525258D01*
X18494845Y30662790D01*
X18485022Y30675052D01*
X18484801Y30674868D01*
X18479828Y30680879D01*
X18479488Y30681198D01*
X18429406Y30728229D01*
X18418961Y30738674D01*
X18408517Y30749119D01*
X18403028Y30753377D01*
X18398603Y30757155D01*
X18364624Y30789064D01*
X18364622Y30789066D01*
X18364619Y30789067D01*
X18347071Y30798714D01*
X18330805Y30809398D01*
X18314975Y30821677D01*
X18272210Y30840184D01*
X18266964Y30842754D01*
X18226135Y30865199D01*
X18226134Y30865200D01*
X18206735Y30870180D01*
X18188323Y30876484D01*
X18169940Y30884440D01*
X18169934Y30884442D01*
X18123916Y30891730D01*
X18118194Y30892915D01*
X18073063Y30904502D01*
X18073061Y30904502D01*
X18053026Y30904502D01*
X18033628Y30906029D01*
X18026204Y30907205D01*
X18013847Y30909162D01*
X18013846Y30909162D01*
X17967458Y30904777D01*
X17961620Y30904502D01*
X15814602Y30904502D01*
X15747563Y30924187D01*
X15708486Y30964351D01*
X15693471Y30989188D01*
X15693468Y30989192D01*
X15573188Y31109472D01*
X15427606Y31197480D01*
X15276678Y31244510D01*
X15265196Y31248088D01*
X15265194Y31248089D01*
X15265192Y31248089D01*
X15215778Y31252579D01*
X15194616Y31254502D01*
X15194613Y31254502D01*
X15006117Y31254502D01*
X14939078Y31274187D01*
X14893323Y31326991D01*
X14883379Y31396149D01*
X14912404Y31459705D01*
X14922579Y31470139D01*
X14929705Y31476636D01*
X14953981Y31498766D01*
X15088058Y31676313D01*
X15187229Y31875474D01*
X15248115Y32089466D01*
X15268643Y32311002D01*
X15257197Y32434521D01*
X15248115Y32532538D01*
X15248114Y32532540D01*
X15224271Y32616339D01*
X15187229Y32746530D01*
X15176609Y32767858D01*
X15088061Y32945686D01*
X15088056Y32945694D01*
X14953979Y33123241D01*
X14789562Y33273126D01*
X14789560Y33273128D01*
X14600404Y33390248D01*
X14600398Y33390250D01*
X14392940Y33470620D01*
X14174243Y33511502D01*
X13951757Y33511502D01*
X13733060Y33470620D01*
X13601864Y33419795D01*
X13525601Y33390250D01*
X13525595Y33390248D01*
X13336439Y33273128D01*
X13336437Y33273126D01*
X13172020Y33123241D01*
X13037943Y32945694D01*
X13037938Y32945686D01*
X12938775Y32746541D01*
X12938769Y32746526D01*
X12877886Y32532545D01*
X12877249Y32529134D01*
X12876493Y32527650D01*
X12876316Y32527024D01*
X12876193Y32527059D01*
X12845578Y32466855D01*
X12785264Y32431585D01*
X12715456Y32434521D01*
X12658318Y32474733D01*
X12649824Y32486826D01*
X12637970Y32506043D01*
X12637967Y32506047D01*
X12518044Y32625970D01*
X12518040Y32625973D01*
X12373705Y32715001D01*
X12373699Y32715004D01*
X12373697Y32715005D01*
X12373694Y32715006D01*
X12212709Y32768351D01*
X12113346Y32778502D01*
X11566662Y32778502D01*
X11566644Y32778501D01*
X11467292Y32768352D01*
X11467289Y32768351D01*
X11306305Y32715006D01*
X11306294Y32715001D01*
X11161959Y32625973D01*
X11161953Y32625969D01*
X11152324Y32616339D01*
X11091000Y32582856D01*
X11021308Y32587843D01*
X10976965Y32616342D01*
X10967732Y32625575D01*
X10967728Y32625578D01*
X10823492Y32714545D01*
X10823481Y32714550D01*
X10662606Y32767858D01*
X10563322Y32778002D01*
X10540000Y32778002D01*
X10540000Y30889364D01*
X10520315Y30822325D01*
X10503681Y30801683D01*
X10490000Y30788002D01*
X10490000Y30228502D01*
X10470315Y30161463D01*
X10417511Y30115708D01*
X10366000Y30104502D01*
X9585737Y30104502D01*
X9570120Y30106226D01*
X9570093Y30105940D01*
X9562331Y30106675D01*
X9493203Y30104502D01*
X9463650Y30104502D01*
X9462929Y30104412D01*
X9456757Y30103633D01*
X9450945Y30103176D01*
X9404373Y30101712D01*
X9404372Y30101712D01*
X9385129Y30096121D01*
X9366079Y30092177D01*
X9346211Y30089668D01*
X9346209Y30089667D01*
X9302884Y30072514D01*
X9297357Y30070622D01*
X9252610Y30057621D01*
X9252609Y30057620D01*
X9235367Y30047423D01*
X9217899Y30038865D01*
X9199269Y30031489D01*
X9199267Y30031488D01*
X9161576Y30004104D01*
X9156694Y30000897D01*
X9116579Y29977172D01*
X9102408Y29963002D01*
X9087623Y29950374D01*
X9071412Y29938595D01*
X9041709Y29902692D01*
X9037777Y29898371D01*
X8879208Y29739803D01*
X8866951Y29729982D01*
X8867134Y29729761D01*
X8861123Y29724789D01*
X8813772Y29674366D01*
X8792889Y29653483D01*
X8792877Y29653470D01*
X8788621Y29647985D01*
X8784837Y29643555D01*
X8752937Y29609584D01*
X8752936Y29609582D01*
X8743284Y29592026D01*
X8732610Y29575776D01*
X8720329Y29559941D01*
X8720324Y29559934D01*
X8701815Y29517164D01*
X8699245Y29511918D01*
X8676803Y29471096D01*
X8671822Y29451695D01*
X8665521Y29433292D01*
X8657562Y29414900D01*
X8657561Y29414897D01*
X8650271Y29368875D01*
X8649087Y29363156D01*
X8637501Y29318030D01*
X8637500Y29318020D01*
X8637500Y29297986D01*
X8635973Y29278587D01*
X8632840Y29258808D01*
X8632840Y29258807D01*
X8637225Y29212419D01*
X8637500Y29206581D01*
X8637500Y28578150D01*
X8617815Y28511111D01*
X8565011Y28465356D01*
X8495853Y28455412D01*
X8448223Y28472723D01*
X8300404Y28564247D01*
X8300405Y28564247D01*
X8300401Y28564249D01*
X8092940Y28644620D01*
X7874243Y28685502D01*
X7651757Y28685502D01*
X7433060Y28644620D01*
X7301864Y28593795D01*
X7225601Y28564250D01*
X7225595Y28564248D01*
X7036439Y28447128D01*
X7036437Y28447126D01*
X6872020Y28297241D01*
X6737943Y28119694D01*
X6737938Y28119686D01*
X6638775Y27920541D01*
X6638769Y27920526D01*
X6577885Y27706540D01*
X6577884Y27706538D01*
X6557357Y27485003D01*
X6557357Y27485002D01*
X6577884Y27263467D01*
X6577885Y27263465D01*
X6638769Y27049479D01*
X6638775Y27049464D01*
X6737938Y26850319D01*
X6737943Y26850311D01*
X6872020Y26672764D01*
X7036437Y26522879D01*
X7036439Y26522877D01*
X7225595Y26405757D01*
X7225596Y26405757D01*
X7225599Y26405755D01*
X7433060Y26325384D01*
X7651757Y26284502D01*
X7651759Y26284502D01*
X7874241Y26284502D01*
X7874243Y26284502D01*
X8092940Y26325384D01*
X8300401Y26405755D01*
X8402549Y26469002D01*
X8448223Y26497282D01*
X8515583Y26515837D01*
X8582283Y26495029D01*
X8627144Y26441464D01*
X8637500Y26391855D01*
X8637500Y25002704D01*
X8635775Y24987087D01*
X8636061Y24987060D01*
X8635326Y24979294D01*
X8637500Y24910145D01*
X8637500Y24880616D01*
X8637501Y24880599D01*
X8638368Y24873728D01*
X8638826Y24867909D01*
X8640290Y24821335D01*
X8640291Y24821332D01*
X8645880Y24802093D01*
X8649827Y24783027D01*
X8650866Y24774793D01*
X8639730Y24705816D01*
X8593069Y24653811D01*
X8525700Y24635288D01*
X8462565Y24653842D01*
X8300404Y24754248D01*
X8300398Y24754250D01*
X8092940Y24834620D01*
X7874243Y24875502D01*
X7651757Y24875502D01*
X7433060Y24834620D01*
X7301864Y24783795D01*
X7225601Y24754250D01*
X7225595Y24754248D01*
X7036439Y24637128D01*
X7036437Y24637126D01*
X6872020Y24487241D01*
X6737943Y24309694D01*
X6737938Y24309686D01*
X6638775Y24110541D01*
X6638769Y24110526D01*
X6577885Y23896540D01*
X6577884Y23896538D01*
X6557357Y23675003D01*
X6557357Y23675002D01*
X500Y23675002D01*
X500Y30529002D01*
X9340000Y30529002D01*
X9990000Y30529002D01*
X9990000Y31192640D01*
X10009685Y31259679D01*
X10026319Y31280321D01*
X10040000Y31294002D01*
X10040000Y31553002D01*
X9340001Y31553002D01*
X9340001Y31504680D01*
X9350144Y31405395D01*
X9403452Y31244521D01*
X9403457Y31244510D01*
X9482895Y31115723D01*
X9501336Y31048331D01*
X9483474Y30986476D01*
X9396980Y30843399D01*
X9346409Y30681109D01*
X9340000Y30610575D01*
X9340000Y30529002D01*
X500Y30529002D01*
X500Y32053002D01*
X9340000Y32053002D01*
X10040000Y32053002D01*
X10040000Y32778003D01*
X10016693Y32778002D01*
X10016674Y32778001D01*
X9917392Y32767858D01*
X9756518Y32714550D01*
X9756507Y32714545D01*
X9612271Y32625578D01*
X9612267Y32625575D01*
X9492427Y32505735D01*
X9492424Y32505731D01*
X9403457Y32361495D01*
X9403452Y32361484D01*
X9350144Y32200609D01*
X9340000Y32101325D01*
X9340000Y32053002D01*
X500Y32053002D01*
X500Y33805500D01*
X20185Y33872539D01*
X72989Y33918294D01*
X124500Y33929500D01*
X29415409Y33929500D01*
X29482448Y33909815D01*
G37*
G04 #@! TD.AperFunction*
G04 #@! TD*
M02*
