G04 #@! TF.GenerationSoftware,KiCad,Pcbnew,7.0.9-7.0.9~ubuntu22.04.1*
G04 #@! TF.CreationDate,2023-12-29T18:17:52+00:00*
G04 #@! TF.ProjectId,driver_test,64726976-6572-45f7-9465-73742e6b6963,rev?*
G04 #@! TF.SameCoordinates,Original*
G04 #@! TF.FileFunction,Copper,L3,Inr*
G04 #@! TF.FilePolarity,Positive*
%FSLAX46Y46*%
G04 Gerber Fmt 4.6, Leading zero omitted, Abs format (unit mm)*
G04 Created by KiCad (PCBNEW 7.0.9-7.0.9~ubuntu22.04.1) date 2023-12-29 18:17:52*
%MOMM*%
%LPD*%
G01*
G04 APERTURE LIST*
G04 #@! TA.AperFunction,ComponentPad*
%ADD10C,1.400000*%
G04 #@! TD*
G04 #@! TA.AperFunction,ComponentPad*
%ADD11R,1.530000X1.530000*%
G04 #@! TD*
G04 #@! TA.AperFunction,ComponentPad*
%ADD12C,1.530000*%
G04 #@! TD*
G04 #@! TA.AperFunction,ComponentPad*
%ADD13C,0.600000*%
G04 #@! TD*
G04 #@! TA.AperFunction,Conductor*
%ADD14O,0.200000X1.225000*%
G04 #@! TD*
G04 #@! TA.AperFunction,Conductor*
%ADD15O,9.300000X0.200000*%
G04 #@! TD*
G04 #@! TA.AperFunction,ViaPad*
%ADD16C,0.800000*%
G04 #@! TD*
G04 APERTURE END LIST*
D10*
G04 #@! TO.N,Net-(IN_KNOCK2-Pin_1)*
G04 #@! TO.C,IN_KNOCK2*
X7495000Y30235001D03*
G04 #@! TD*
G04 #@! TO.N,Net-(IN_KNOCK1-Pin_1)*
G04 #@! TO.C,IN_KNOCK1*
X7495000Y26555001D03*
G04 #@! TD*
G04 #@! TO.N,Net-(M2-OUT_KNOCK)*
G04 #@! TO.C,OUT_KNOCK1*
X21995000Y27535001D03*
G04 #@! TD*
G04 #@! TO.N,Net-(M1-OUT_KNOCK)*
G04 #@! TO.C,OUT_KNOCK2*
X21995000Y31355001D03*
G04 #@! TD*
G04 #@! TO.N,Net-(D2-A)*
G04 #@! TO.C,PPS2_CPU1*
X5155000Y4520000D03*
G04 #@! TD*
G04 #@! TO.N,+5V*
G04 #@! TO.C,5V_IN1*
X15765000Y23440000D03*
G04 #@! TD*
G04 #@! TO.N,Net-(D1-A)*
G04 #@! TO.C,TPS2_CPU1*
X5185000Y11860000D03*
G04 #@! TD*
D11*
G04 #@! TO.N,+12VA*
G04 #@! TO.C,U1*
X15535000Y19060000D03*
D12*
G04 #@! TO.N,GND*
X15535000Y16520000D03*
G04 #@! TO.N,/OUT-*
X15535000Y13980000D03*
G04 #@! TO.N,/OUT+*
X15535000Y11440000D03*
G04 #@! TO.N,/TPS2_IN*
X15535000Y8900000D03*
G04 #@! TO.N,/PPS2_IN*
X15535000Y6360000D03*
G04 #@! TO.N,+3.3V*
X15535000Y3820000D03*
G04 #@! TO.N,GND*
X15535000Y1280000D03*
G04 #@! TO.N,/DIS*
X28235000Y1280000D03*
G04 #@! TO.N,unconnected-(U1-VDD-Pad10)*
X28235000Y3820000D03*
G04 #@! TO.N,unconnected-(U1-1B-Pad11)*
X28235000Y6360000D03*
G04 #@! TO.N,unconnected-(U1-1A-Pad12)*
X28235000Y8900000D03*
G04 #@! TO.N,+3.3V*
X28235000Y11440000D03*
X28235000Y13980000D03*
G04 #@! TO.N,/PWM*
X28235000Y16520000D03*
G04 #@! TO.N,/DIR*
X28235000Y19060000D03*
G04 #@! TD*
D13*
G04 #@! TO.N,+5V*
G04 #@! TO.C,M1*
X19090000Y29350003D03*
D14*
G04 #@! TO.N,GND*
X10190000Y31325003D03*
D15*
X14740000Y31850003D03*
X14740000Y28750003D03*
D13*
X19090000Y30300003D03*
G04 #@! TO.N,Net-(M1-OUT_KNOCK)*
X19090000Y31250001D03*
G04 #@! TO.N,Net-(IN_KNOCK2-Pin_1)*
X10390000Y30250003D03*
G04 #@! TO.N,/VREF*
X10390000Y29350003D03*
G04 #@! TD*
G04 #@! TO.N,+5V*
G04 #@! TO.C,M2*
X19165000Y25585001D03*
D14*
G04 #@! TO.N,GND*
X10265000Y27560001D03*
D15*
X14815000Y28085001D03*
X14815000Y24985001D03*
D13*
X19165000Y26535001D03*
G04 #@! TO.N,Net-(M2-OUT_KNOCK)*
X19165000Y27484999D03*
G04 #@! TO.N,Net-(IN_KNOCK1-Pin_1)*
X10465000Y26485001D03*
G04 #@! TO.N,/VREF*
X10465000Y25585001D03*
G04 #@! TD*
D16*
G04 #@! TO.N,/OUT-*
X17510000Y14070000D03*
X20370000Y14560000D03*
G04 #@! TO.N,GND*
X21020000Y10090000D03*
X20130000Y8340000D03*
X18340000Y11910000D03*
X21920000Y9230000D03*
X18320000Y8280000D03*
X20130000Y10110000D03*
X6690000Y17170000D03*
X8800000Y17120000D03*
X24560000Y10170000D03*
X25470000Y11090000D03*
X22390000Y5320000D03*
X23960000Y17350000D03*
X23690000Y8380000D03*
X18330000Y9160000D03*
X19230000Y8310000D03*
X22790000Y9230000D03*
X25800000Y17530000D03*
X22790000Y8350000D03*
X20140000Y11000000D03*
X18550000Y17270000D03*
X23680000Y11910000D03*
X21010000Y11850000D03*
X18060000Y28430000D03*
X21410000Y5300000D03*
X25460000Y9310000D03*
X25460000Y10200000D03*
X25460000Y8430000D03*
X20120000Y11870000D03*
X21030000Y10980000D03*
X11000000Y28420000D03*
X21370000Y12990000D03*
X18340000Y10070000D03*
X17030000Y12470000D03*
X19230000Y9190000D03*
X12968000Y17222000D03*
X23690000Y9260000D03*
X21020000Y9200000D03*
X20130000Y9220000D03*
X21910000Y11880000D03*
X24250000Y7050000D03*
X25450000Y11960000D03*
X22800000Y11010000D03*
X22780000Y11880000D03*
X24550000Y11930000D03*
X24560000Y9280000D03*
X22790000Y10120000D03*
X17750000Y24490000D03*
X18350000Y10980000D03*
X13770000Y24480000D03*
X14720000Y28400000D03*
X24570000Y11060000D03*
X21020000Y8320000D03*
X23690000Y10150000D03*
X19230000Y10080000D03*
X23700000Y11040000D03*
X21920000Y10120000D03*
X20970000Y3320000D03*
X20410000Y5270000D03*
X19370000Y7040000D03*
X19220000Y11840000D03*
X19240000Y10970000D03*
X21930000Y11010000D03*
X21920000Y8350000D03*
X10890000Y17180000D03*
X20660000Y17270000D03*
X24560000Y8400000D03*
G04 #@! TO.N,+3.3V*
X25550000Y13390000D03*
G04 #@! TD*
G04 #@! TA.AperFunction,Conductor*
G04 #@! TO.N,GND*
G36*
X29482448Y33909815D02*
G01*
X29528203Y33857011D01*
X29539408Y33805411D01*
X29532107Y23875539D01*
X29529500Y20330100D01*
X29529500Y19810873D01*
X29509815Y19743834D01*
X29457011Y19698079D01*
X29387853Y19688135D01*
X29324297Y19717160D01*
X29303925Y19739749D01*
X29254123Y19810873D01*
X29208132Y19876555D01*
X29051555Y20033132D01*
X28870167Y20160142D01*
X28870163Y20160144D01*
X28669486Y20253721D01*
X28669475Y20253725D01*
X28455592Y20311035D01*
X28455585Y20311036D01*
X28235002Y20330334D01*
X28234998Y20330334D01*
X28014414Y20311036D01*
X28014407Y20311035D01*
X27800524Y20253725D01*
X27800513Y20253721D01*
X27599836Y20160144D01*
X27599834Y20160143D01*
X27418444Y20033132D01*
X27261868Y19876556D01*
X27134857Y19695166D01*
X27134856Y19695164D01*
X27041279Y19494487D01*
X27041275Y19494476D01*
X26983965Y19280593D01*
X26983964Y19280586D01*
X26964666Y19060002D01*
X26964666Y19059999D01*
X26983964Y18839415D01*
X26983965Y18839408D01*
X27041275Y18625525D01*
X27041279Y18625514D01*
X27131950Y18431069D01*
X27134858Y18424833D01*
X27261868Y18243445D01*
X27418445Y18086868D01*
X27599833Y17959858D01*
X27647875Y17937456D01*
X27723091Y17902382D01*
X27775531Y17856210D01*
X27794683Y17789017D01*
X27774467Y17722135D01*
X27723091Y17677618D01*
X27599836Y17620144D01*
X27599834Y17620143D01*
X27418444Y17493132D01*
X27261868Y17336556D01*
X27134857Y17155166D01*
X27134856Y17155164D01*
X27041279Y16954487D01*
X27041275Y16954476D01*
X26983965Y16740593D01*
X26983964Y16740586D01*
X26964666Y16520002D01*
X26964666Y16519999D01*
X26983964Y16299415D01*
X26983965Y16299408D01*
X27041275Y16085525D01*
X27041279Y16085514D01*
X27069205Y16025627D01*
X27134858Y15884833D01*
X27261868Y15703445D01*
X27418445Y15546868D01*
X27599833Y15419858D01*
X27661828Y15390950D01*
X27723091Y15362382D01*
X27775531Y15316210D01*
X27794683Y15249017D01*
X27774467Y15182135D01*
X27723091Y15137618D01*
X27599836Y15080144D01*
X27599834Y15080143D01*
X27418444Y14953132D01*
X27261868Y14796556D01*
X27134857Y14615166D01*
X27134856Y14615164D01*
X27041279Y14414487D01*
X27041275Y14414476D01*
X26983965Y14200593D01*
X26983964Y14200586D01*
X26964666Y13980002D01*
X26964666Y13979999D01*
X26983964Y13759415D01*
X26983965Y13759408D01*
X27041275Y13545525D01*
X27041279Y13545514D01*
X27110480Y13397112D01*
X27134858Y13344833D01*
X27261868Y13163445D01*
X27418445Y13006868D01*
X27599833Y12879858D01*
X27647167Y12857786D01*
X27723091Y12822382D01*
X27775531Y12776210D01*
X27794683Y12709017D01*
X27774467Y12642135D01*
X27723091Y12597618D01*
X27599836Y12540144D01*
X27599834Y12540143D01*
X27418444Y12413132D01*
X27261868Y12256556D01*
X27134857Y12075166D01*
X27134856Y12075164D01*
X27041279Y11874487D01*
X27041275Y11874476D01*
X26983965Y11660593D01*
X26983964Y11660586D01*
X26964666Y11440002D01*
X26964666Y11439999D01*
X26983964Y11219415D01*
X26983965Y11219408D01*
X27041275Y11005525D01*
X27041279Y11005514D01*
X27091472Y10897875D01*
X27134858Y10804833D01*
X27261868Y10623445D01*
X27418445Y10466868D01*
X27599833Y10339858D01*
X27661828Y10310950D01*
X27723091Y10282382D01*
X27775531Y10236210D01*
X27794683Y10169017D01*
X27774467Y10102135D01*
X27723091Y10057618D01*
X27599836Y10000144D01*
X27599834Y10000143D01*
X27418444Y9873132D01*
X27261868Y9716556D01*
X27134857Y9535166D01*
X27134856Y9535164D01*
X27041279Y9334487D01*
X27041275Y9334476D01*
X26983965Y9120593D01*
X26983964Y9120586D01*
X26964666Y8900002D01*
X26964666Y8899999D01*
X26983964Y8679415D01*
X26983965Y8679408D01*
X27041275Y8465525D01*
X27041279Y8465514D01*
X27131950Y8271069D01*
X27134858Y8264833D01*
X27261868Y8083445D01*
X27418445Y7926868D01*
X27599833Y7799858D01*
X27661828Y7770950D01*
X27723091Y7742382D01*
X27775531Y7696210D01*
X27794683Y7629017D01*
X27774467Y7562135D01*
X27723091Y7517618D01*
X27599836Y7460144D01*
X27599834Y7460143D01*
X27418444Y7333132D01*
X27261868Y7176556D01*
X27134857Y6995166D01*
X27134856Y6995164D01*
X27041279Y6794487D01*
X27041275Y6794476D01*
X26983965Y6580593D01*
X26983964Y6580586D01*
X26964666Y6360002D01*
X26964666Y6359999D01*
X26983964Y6139415D01*
X26983965Y6139408D01*
X27041275Y5925525D01*
X27041279Y5925514D01*
X27131950Y5731069D01*
X27134858Y5724833D01*
X27261868Y5543445D01*
X27418445Y5386868D01*
X27599833Y5259858D01*
X27661828Y5230950D01*
X27723091Y5202382D01*
X27775531Y5156210D01*
X27794683Y5089017D01*
X27774467Y5022135D01*
X27723091Y4977618D01*
X27599836Y4920144D01*
X27599834Y4920143D01*
X27418444Y4793132D01*
X27261868Y4636556D01*
X27134857Y4455166D01*
X27134856Y4455164D01*
X27041279Y4254487D01*
X27041275Y4254476D01*
X26983965Y4040593D01*
X26983964Y4040586D01*
X26964666Y3820002D01*
X26964666Y3819999D01*
X26983964Y3599415D01*
X26983965Y3599408D01*
X27041275Y3385525D01*
X27041279Y3385514D01*
X27072062Y3319500D01*
X27134858Y3184833D01*
X27261868Y3003445D01*
X27418445Y2846868D01*
X27599833Y2719858D01*
X27661828Y2690950D01*
X27723091Y2662382D01*
X27775531Y2616210D01*
X27794683Y2549017D01*
X27774467Y2482135D01*
X27723091Y2437618D01*
X27599836Y2380144D01*
X27599834Y2380143D01*
X27418444Y2253132D01*
X27261868Y2096556D01*
X27134857Y1915166D01*
X27134856Y1915164D01*
X27041279Y1714487D01*
X27041275Y1714476D01*
X26983965Y1500593D01*
X26983964Y1500586D01*
X26964666Y1280002D01*
X26964666Y1279999D01*
X26983964Y1059415D01*
X26983965Y1059408D01*
X27041275Y845525D01*
X27041279Y845514D01*
X27069205Y785627D01*
X27134858Y644833D01*
X27261868Y463445D01*
X27418445Y306868D01*
X27526690Y231074D01*
X27570313Y176498D01*
X27577506Y106999D01*
X27545984Y44645D01*
X27485754Y9231D01*
X27455565Y5500D01*
X16313563Y5500D01*
X16246524Y25185D01*
X16200769Y77989D01*
X16190825Y147147D01*
X16219850Y210703D01*
X16235206Y224553D01*
X16235342Y226106D01*
X15676366Y785082D01*
X15680161Y785627D01*
X15813562Y846549D01*
X15924395Y942587D01*
X16003682Y1065960D01*
X16026132Y1142420D01*
X16588894Y579658D01*
X16634706Y645085D01*
X16728250Y845691D01*
X16728254Y845700D01*
X16785538Y1059491D01*
X16785540Y1059501D01*
X16804832Y1280000D01*
X16804832Y1280001D01*
X16785540Y1500500D01*
X16785538Y1500510D01*
X16728254Y1714301D01*
X16728250Y1714310D01*
X16634707Y1914915D01*
X16634706Y1914917D01*
X16588894Y1980343D01*
X16588894Y1980344D01*
X16026132Y1417582D01*
X16003682Y1494040D01*
X15924395Y1617413D01*
X15813562Y1713451D01*
X15680161Y1774373D01*
X15676366Y1774919D01*
X16235342Y2333895D01*
X16235341Y2333897D01*
X16169919Y2379705D01*
X16046316Y2437343D01*
X15993877Y2483516D01*
X15974725Y2550709D01*
X15994941Y2617590D01*
X16046312Y2662105D01*
X16170167Y2719858D01*
X16351555Y2846868D01*
X16508132Y3003445D01*
X16635142Y3184833D01*
X16728723Y3385520D01*
X16786035Y3599409D01*
X16805334Y3820000D01*
X16786035Y4040591D01*
X16728723Y4254480D01*
X16635142Y4455167D01*
X16508132Y4636555D01*
X16351555Y4793132D01*
X16170167Y4920142D01*
X16046907Y4977619D01*
X15994468Y5023790D01*
X15975316Y5090983D01*
X15995531Y5157864D01*
X16046908Y5202382D01*
X16170167Y5259858D01*
X16351555Y5386868D01*
X16508132Y5543445D01*
X16635142Y5724833D01*
X16728723Y5925520D01*
X16786035Y6139409D01*
X16805334Y6360000D01*
X16786035Y6580591D01*
X16728723Y6794480D01*
X16635142Y6995167D01*
X16508132Y7176555D01*
X16351555Y7333132D01*
X16170167Y7460142D01*
X16046907Y7517619D01*
X15994468Y7563790D01*
X15975316Y7630983D01*
X15995531Y7697864D01*
X16046908Y7742382D01*
X16170167Y7799858D01*
X16351555Y7926868D01*
X16508132Y8083445D01*
X16635142Y8264833D01*
X16728723Y8465520D01*
X16786035Y8679409D01*
X16805334Y8900000D01*
X16786035Y9120591D01*
X16728723Y9334480D01*
X16635142Y9535167D01*
X16508132Y9716555D01*
X16351555Y9873132D01*
X16170167Y10000142D01*
X16046907Y10057619D01*
X15994468Y10103790D01*
X15975316Y10170983D01*
X15995531Y10237864D01*
X16046908Y10282382D01*
X16170167Y10339858D01*
X16351555Y10466868D01*
X16508132Y10623445D01*
X16635142Y10804833D01*
X16728723Y11005520D01*
X16786035Y11219409D01*
X16803975Y11424462D01*
X16805334Y11439999D01*
X16805334Y11440002D01*
X16787971Y11638463D01*
X16786035Y11660591D01*
X16728723Y11874480D01*
X16635142Y12075167D01*
X16508132Y12256555D01*
X16351555Y12413132D01*
X16170167Y12540142D01*
X16046907Y12597619D01*
X15994468Y12643790D01*
X15975316Y12710983D01*
X15995531Y12777864D01*
X16046908Y12822382D01*
X16170167Y12879858D01*
X16351555Y13006868D01*
X16508132Y13163445D01*
X16635142Y13344833D01*
X16663804Y13406302D01*
X16709974Y13458737D01*
X16777168Y13477890D01*
X16844049Y13457675D01*
X16868332Y13436869D01*
X16904129Y13397112D01*
X16976085Y13344833D01*
X17057265Y13285852D01*
X17057270Y13285849D01*
X17230192Y13208858D01*
X17230197Y13208856D01*
X17415354Y13169500D01*
X17415355Y13169500D01*
X17604644Y13169500D01*
X17604646Y13169500D01*
X17789803Y13208856D01*
X17962730Y13285849D01*
X18106082Y13390000D01*
X24644540Y13390000D01*
X24664326Y13201744D01*
X24664327Y13201741D01*
X24722818Y13021723D01*
X24722821Y13021716D01*
X24817467Y12857784D01*
X24944129Y12717112D01*
X25097265Y12605852D01*
X25097270Y12605849D01*
X25270192Y12528858D01*
X25270197Y12528856D01*
X25455354Y12489500D01*
X25455355Y12489500D01*
X25644644Y12489500D01*
X25644646Y12489500D01*
X25829803Y12528856D01*
X26002730Y12605849D01*
X26155871Y12717112D01*
X26282533Y12857784D01*
X26377179Y13021716D01*
X26435674Y13201744D01*
X26455460Y13390000D01*
X26435674Y13578256D01*
X26377179Y13758284D01*
X26282533Y13922216D01*
X26155871Y14062888D01*
X26155870Y14062889D01*
X26002734Y14174149D01*
X26002729Y14174152D01*
X25829807Y14251143D01*
X25829802Y14251145D01*
X25684001Y14282135D01*
X25644646Y14290500D01*
X25455354Y14290500D01*
X25422897Y14283602D01*
X25270197Y14251145D01*
X25270192Y14251143D01*
X25097270Y14174152D01*
X25097265Y14174149D01*
X24944129Y14062889D01*
X24817466Y13922215D01*
X24722821Y13758285D01*
X24722818Y13758278D01*
X24670709Y13597901D01*
X24664326Y13578256D01*
X24644540Y13390000D01*
X18106082Y13390000D01*
X18115871Y13397112D01*
X18242533Y13537784D01*
X18337179Y13701716D01*
X18395674Y13881744D01*
X18415460Y14070000D01*
X18395674Y14258256D01*
X18337179Y14438284D01*
X18266906Y14560000D01*
X19464540Y14560000D01*
X19484326Y14371744D01*
X19484327Y14371741D01*
X19542818Y14191723D01*
X19542821Y14191716D01*
X19637467Y14027784D01*
X19680493Y13979999D01*
X19764129Y13887112D01*
X19917265Y13775852D01*
X19917270Y13775849D01*
X20090192Y13698858D01*
X20090197Y13698856D01*
X20275354Y13659500D01*
X20275355Y13659500D01*
X20464644Y13659500D01*
X20464646Y13659500D01*
X20649803Y13698856D01*
X20822730Y13775849D01*
X20975871Y13887112D01*
X21102533Y14027784D01*
X21197179Y14191716D01*
X21255674Y14371744D01*
X21275460Y14560000D01*
X21255674Y14748256D01*
X21197179Y14928284D01*
X21102533Y15092216D01*
X20975871Y15232888D01*
X20975870Y15232889D01*
X20822734Y15344149D01*
X20822729Y15344152D01*
X20649807Y15421143D01*
X20649802Y15421145D01*
X20504001Y15452135D01*
X20464646Y15460500D01*
X20275354Y15460500D01*
X20242897Y15453602D01*
X20090197Y15421145D01*
X20090192Y15421143D01*
X19917270Y15344152D01*
X19917265Y15344149D01*
X19764129Y15232889D01*
X19637466Y15092215D01*
X19542821Y14928285D01*
X19542818Y14928278D01*
X19500019Y14796555D01*
X19484326Y14748256D01*
X19464540Y14560000D01*
X18266906Y14560000D01*
X18242533Y14602216D01*
X18115871Y14742888D01*
X18108477Y14748260D01*
X17962734Y14854149D01*
X17962729Y14854152D01*
X17789807Y14931143D01*
X17789802Y14931145D01*
X17644001Y14962135D01*
X17604646Y14970500D01*
X17415354Y14970500D01*
X17382897Y14963602D01*
X17230197Y14931145D01*
X17230192Y14931143D01*
X17057270Y14854152D01*
X17057265Y14854149D01*
X16904132Y14742891D01*
X16806815Y14634810D01*
X16747328Y14598162D01*
X16677471Y14599493D01*
X16619423Y14638380D01*
X16613101Y14646645D01*
X16508132Y14796555D01*
X16351555Y14953132D01*
X16170167Y15080142D01*
X16170163Y15080144D01*
X16046317Y15137894D01*
X15993877Y15184066D01*
X15974725Y15251259D01*
X15994941Y15318141D01*
X16046317Y15362658D01*
X16169912Y15420292D01*
X16169914Y15420293D01*
X16235342Y15466106D01*
X15676366Y16025082D01*
X15680161Y16025627D01*
X15813562Y16086549D01*
X15924395Y16182587D01*
X16003682Y16305960D01*
X16026132Y16382420D01*
X16588894Y15819658D01*
X16634706Y15885085D01*
X16728250Y16085691D01*
X16728254Y16085700D01*
X16785538Y16299491D01*
X16785540Y16299501D01*
X16804832Y16520000D01*
X16804832Y16520001D01*
X16785540Y16740500D01*
X16785538Y16740510D01*
X16728254Y16954301D01*
X16728250Y16954310D01*
X16634707Y17154915D01*
X16634706Y17154917D01*
X16588894Y17220343D01*
X16588894Y17220344D01*
X16026132Y16657582D01*
X16003682Y16734040D01*
X15924395Y16857413D01*
X15813562Y16953451D01*
X15680161Y17014373D01*
X15676366Y17014919D01*
X16235342Y17573895D01*
X16234957Y17578287D01*
X16198815Y17623503D01*
X16191621Y17693001D01*
X16223144Y17755356D01*
X16283373Y17790770D01*
X16313562Y17794501D01*
X16347872Y17794501D01*
X16407483Y17800909D01*
X16542331Y17851204D01*
X16657546Y17937454D01*
X16743796Y18052669D01*
X16794091Y18187517D01*
X16800500Y18247127D01*
X16800499Y19872872D01*
X16794091Y19932483D01*
X16756551Y20033132D01*
X16743797Y20067329D01*
X16743793Y20067336D01*
X16657547Y20182545D01*
X16657544Y20182548D01*
X16542335Y20268794D01*
X16542328Y20268798D01*
X16407482Y20319092D01*
X16407483Y20319092D01*
X16347883Y20325499D01*
X16347881Y20325500D01*
X16347873Y20325500D01*
X16347864Y20325500D01*
X14722129Y20325500D01*
X14722123Y20325499D01*
X14662516Y20319092D01*
X14527671Y20268798D01*
X14527664Y20268794D01*
X14412455Y20182548D01*
X14412452Y20182545D01*
X14326206Y20067336D01*
X14326202Y20067329D01*
X14275908Y19932483D01*
X14269896Y19876556D01*
X14269501Y19872877D01*
X14269500Y19872865D01*
X14269500Y18247130D01*
X14269501Y18247124D01*
X14275908Y18187517D01*
X14326202Y18052672D01*
X14326206Y18052665D01*
X14412452Y17937456D01*
X14412455Y17937453D01*
X14527664Y17851207D01*
X14527671Y17851203D01*
X14662517Y17800909D01*
X14662516Y17800909D01*
X14669444Y17800165D01*
X14722127Y17794500D01*
X14756434Y17794501D01*
X14823471Y17774818D01*
X14869227Y17722015D01*
X14879172Y17652857D01*
X14850149Y17589301D01*
X14834793Y17575452D01*
X14834656Y17573897D01*
X15393634Y17014919D01*
X15389839Y17014373D01*
X15256438Y16953451D01*
X15145605Y16857413D01*
X15066318Y16734040D01*
X15043866Y16657581D01*
X14481104Y17220343D01*
X14435293Y17154916D01*
X14341749Y16954310D01*
X14341745Y16954301D01*
X14284461Y16740510D01*
X14284459Y16740500D01*
X14265168Y16520001D01*
X14265168Y16520000D01*
X14284459Y16299501D01*
X14284461Y16299491D01*
X14341745Y16085700D01*
X14341749Y16085691D01*
X14435295Y15885081D01*
X14481103Y15819659D01*
X14481105Y15819658D01*
X15043866Y16382420D01*
X15066318Y16305960D01*
X15145605Y16182587D01*
X15256438Y16086549D01*
X15389839Y16025627D01*
X15393633Y16025082D01*
X14834656Y15466106D01*
X14900083Y15420294D01*
X14900085Y15420293D01*
X15023683Y15362658D01*
X15076122Y15316486D01*
X15095274Y15249292D01*
X15075058Y15182411D01*
X15023683Y15137894D01*
X14899833Y15080143D01*
X14718444Y14953132D01*
X14561868Y14796556D01*
X14434857Y14615166D01*
X14434856Y14615164D01*
X14341279Y14414487D01*
X14341275Y14414476D01*
X14283965Y14200593D01*
X14283964Y14200586D01*
X14264666Y13980002D01*
X14264666Y13979999D01*
X14283964Y13759415D01*
X14283965Y13759408D01*
X14341275Y13545525D01*
X14341279Y13545514D01*
X14410480Y13397112D01*
X14434858Y13344833D01*
X14561868Y13163445D01*
X14718445Y13006868D01*
X14899833Y12879858D01*
X14947167Y12857786D01*
X15023091Y12822382D01*
X15075531Y12776210D01*
X15094683Y12709017D01*
X15074467Y12642135D01*
X15023091Y12597618D01*
X14899836Y12540144D01*
X14899834Y12540143D01*
X14718444Y12413132D01*
X14561868Y12256556D01*
X14434857Y12075166D01*
X14434856Y12075164D01*
X14341279Y11874487D01*
X14341275Y11874476D01*
X14283965Y11660593D01*
X14283964Y11660586D01*
X14264666Y11440002D01*
X14264666Y11439999D01*
X14283964Y11219415D01*
X14283965Y11219408D01*
X14341275Y11005525D01*
X14341279Y11005514D01*
X14391472Y10897875D01*
X14434858Y10804833D01*
X14561868Y10623445D01*
X14718445Y10466868D01*
X14899833Y10339858D01*
X14961828Y10310950D01*
X15023091Y10282382D01*
X15075531Y10236210D01*
X15094683Y10169017D01*
X15074467Y10102135D01*
X15023091Y10057618D01*
X14899836Y10000144D01*
X14899834Y10000143D01*
X14718444Y9873132D01*
X14561868Y9716556D01*
X14434857Y9535166D01*
X14434856Y9535164D01*
X14341279Y9334487D01*
X14341275Y9334476D01*
X14283965Y9120593D01*
X14283964Y9120586D01*
X14264666Y8900002D01*
X14264666Y8899999D01*
X14283964Y8679415D01*
X14283965Y8679408D01*
X14341275Y8465525D01*
X14341279Y8465514D01*
X14431950Y8271069D01*
X14434858Y8264833D01*
X14561868Y8083445D01*
X14718445Y7926868D01*
X14899833Y7799858D01*
X14961828Y7770950D01*
X15023091Y7742382D01*
X15075531Y7696210D01*
X15094683Y7629017D01*
X15074467Y7562135D01*
X15023091Y7517618D01*
X14899836Y7460144D01*
X14899834Y7460143D01*
X14718444Y7333132D01*
X14561868Y7176556D01*
X14434857Y6995166D01*
X14434856Y6995164D01*
X14341279Y6794487D01*
X14341275Y6794476D01*
X14283965Y6580593D01*
X14283964Y6580586D01*
X14264666Y6360002D01*
X14264666Y6359999D01*
X14283964Y6139415D01*
X14283965Y6139408D01*
X14341275Y5925525D01*
X14341279Y5925514D01*
X14431950Y5731069D01*
X14434858Y5724833D01*
X14561868Y5543445D01*
X14718445Y5386868D01*
X14899833Y5259858D01*
X14961828Y5230950D01*
X15023091Y5202382D01*
X15075531Y5156210D01*
X15094683Y5089017D01*
X15074467Y5022135D01*
X15023091Y4977618D01*
X14899836Y4920144D01*
X14899834Y4920143D01*
X14718444Y4793132D01*
X14561868Y4636556D01*
X14434857Y4455166D01*
X14434856Y4455164D01*
X14341279Y4254487D01*
X14341275Y4254476D01*
X14283965Y4040593D01*
X14283964Y4040586D01*
X14264666Y3820002D01*
X14264666Y3819999D01*
X14283964Y3599415D01*
X14283965Y3599408D01*
X14341275Y3385525D01*
X14341279Y3385514D01*
X14372062Y3319500D01*
X14434858Y3184833D01*
X14561868Y3003445D01*
X14718445Y2846868D01*
X14899833Y2719858D01*
X15023682Y2662107D01*
X15076122Y2615935D01*
X15095274Y2548742D01*
X15075059Y2481861D01*
X15023683Y2437343D01*
X14900084Y2379707D01*
X14834657Y2333896D01*
X15393634Y1774919D01*
X15389839Y1774373D01*
X15256438Y1713451D01*
X15145605Y1617413D01*
X15066318Y1494040D01*
X15043866Y1417581D01*
X14481104Y1980343D01*
X14435293Y1914916D01*
X14341749Y1714310D01*
X14341745Y1714301D01*
X14284461Y1500510D01*
X14284459Y1500500D01*
X14265168Y1280001D01*
X14265168Y1280000D01*
X14284459Y1059501D01*
X14284461Y1059491D01*
X14341745Y845700D01*
X14341749Y845691D01*
X14435295Y645081D01*
X14481103Y579659D01*
X14481105Y579658D01*
X15043866Y1142420D01*
X15066318Y1065960D01*
X15145605Y942587D01*
X15256438Y846549D01*
X15389839Y785627D01*
X15393633Y785082D01*
X14834656Y226106D01*
X14835041Y221715D01*
X14871184Y176498D01*
X14878378Y107000D01*
X14846855Y44645D01*
X14786626Y9231D01*
X14756436Y5500D01*
X14259900Y5500D01*
X124543Y545D01*
X57497Y20206D01*
X11724Y72994D01*
X500Y124545D01*
X500Y4520000D01*
X3949357Y4520000D01*
X3969884Y4298465D01*
X3969885Y4298463D01*
X4030769Y4084477D01*
X4030775Y4084462D01*
X4129938Y3885317D01*
X4129943Y3885309D01*
X4264020Y3707762D01*
X4428437Y3557877D01*
X4428439Y3557875D01*
X4617595Y3440755D01*
X4617596Y3440755D01*
X4617599Y3440753D01*
X4825060Y3360382D01*
X5043757Y3319500D01*
X5043759Y3319500D01*
X5266241Y3319500D01*
X5266243Y3319500D01*
X5484940Y3360382D01*
X5692401Y3440753D01*
X5881562Y3557876D01*
X6045981Y3707764D01*
X6180058Y3885311D01*
X6279229Y4084472D01*
X6340115Y4298464D01*
X6360643Y4520000D01*
X6340115Y4741536D01*
X6279229Y4955528D01*
X6279224Y4955539D01*
X6180061Y5154684D01*
X6180056Y5154692D01*
X6045979Y5332239D01*
X5881562Y5482124D01*
X5881560Y5482126D01*
X5692404Y5599246D01*
X5692398Y5599248D01*
X5666895Y5609128D01*
X5484940Y5679618D01*
X5266243Y5720500D01*
X5043757Y5720500D01*
X4825060Y5679618D01*
X4693864Y5628793D01*
X4617601Y5599248D01*
X4617595Y5599246D01*
X4428439Y5482126D01*
X4428437Y5482124D01*
X4264020Y5332239D01*
X4129943Y5154692D01*
X4129938Y5154684D01*
X4030775Y4955539D01*
X4030769Y4955524D01*
X3969885Y4741538D01*
X3969884Y4741536D01*
X3949357Y4520001D01*
X3949357Y4520000D01*
X500Y4520000D01*
X500Y11860000D01*
X3979357Y11860000D01*
X3999884Y11638465D01*
X3999885Y11638463D01*
X4060769Y11424477D01*
X4060775Y11424462D01*
X4159938Y11225317D01*
X4159943Y11225309D01*
X4294020Y11047762D01*
X4458437Y10897877D01*
X4458439Y10897875D01*
X4647595Y10780755D01*
X4647596Y10780755D01*
X4647599Y10780753D01*
X4855060Y10700382D01*
X5073757Y10659500D01*
X5073759Y10659500D01*
X5296241Y10659500D01*
X5296243Y10659500D01*
X5514940Y10700382D01*
X5722401Y10780753D01*
X5911562Y10897876D01*
X6075981Y11047764D01*
X6210058Y11225311D01*
X6309229Y11424472D01*
X6370115Y11638464D01*
X6390643Y11860000D01*
X6370115Y12081536D01*
X6309229Y12295528D01*
X6212642Y12489500D01*
X6210061Y12494684D01*
X6210056Y12494692D01*
X6075979Y12672239D01*
X5911562Y12822124D01*
X5911560Y12822126D01*
X5722404Y12939246D01*
X5722398Y12939248D01*
X5514940Y13019618D01*
X5296243Y13060500D01*
X5073757Y13060500D01*
X4855060Y13019618D01*
X4822149Y13006868D01*
X4647601Y12939248D01*
X4647595Y12939246D01*
X4458439Y12822126D01*
X4458437Y12822124D01*
X4294020Y12672239D01*
X4159943Y12494692D01*
X4159938Y12494684D01*
X4060775Y12295539D01*
X4060769Y12295524D01*
X3999885Y12081538D01*
X3999884Y12081536D01*
X3979357Y11860001D01*
X3979357Y11860000D01*
X500Y11860000D01*
X500Y23440000D01*
X14559357Y23440000D01*
X14579884Y23218465D01*
X14579885Y23218463D01*
X14640769Y23004477D01*
X14640775Y23004462D01*
X14739938Y22805317D01*
X14739943Y22805309D01*
X14874020Y22627762D01*
X15038437Y22477877D01*
X15038439Y22477875D01*
X15227595Y22360755D01*
X15227596Y22360755D01*
X15227599Y22360753D01*
X15435060Y22280382D01*
X15653757Y22239500D01*
X15653759Y22239500D01*
X15876241Y22239500D01*
X15876243Y22239500D01*
X16094940Y22280382D01*
X16302401Y22360753D01*
X16491562Y22477876D01*
X16655981Y22627764D01*
X16790058Y22805311D01*
X16889229Y23004472D01*
X16950115Y23218464D01*
X16970643Y23440000D01*
X16950115Y23661536D01*
X16889229Y23875528D01*
X16889224Y23875539D01*
X16790061Y24074684D01*
X16790056Y24074692D01*
X16655979Y24252239D01*
X16491562Y24402124D01*
X16491560Y24402126D01*
X16302404Y24519246D01*
X16302398Y24519248D01*
X16094940Y24599618D01*
X15876243Y24640500D01*
X15653757Y24640500D01*
X15435060Y24599618D01*
X15303864Y24548793D01*
X15227601Y24519248D01*
X15227595Y24519246D01*
X15038439Y24402126D01*
X15038437Y24402124D01*
X14874020Y24252239D01*
X14739943Y24074692D01*
X14739938Y24074684D01*
X14640775Y23875539D01*
X14640769Y23875524D01*
X14579885Y23661538D01*
X14579884Y23661536D01*
X14559357Y23440001D01*
X14559357Y23440000D01*
X500Y23440000D01*
X500Y26555001D01*
X6289357Y26555001D01*
X6309884Y26333466D01*
X6309885Y26333464D01*
X6370769Y26119478D01*
X6370775Y26119463D01*
X6469938Y25920318D01*
X6469943Y25920310D01*
X6604020Y25742763D01*
X6768437Y25592878D01*
X6768439Y25592876D01*
X6957595Y25475756D01*
X6957596Y25475756D01*
X6957599Y25475754D01*
X7165060Y25395383D01*
X7383757Y25354501D01*
X7383759Y25354501D01*
X7606241Y25354501D01*
X7606243Y25354501D01*
X7824940Y25395383D01*
X8032401Y25475754D01*
X8208837Y25584998D01*
X9659435Y25584998D01*
X9679630Y25405752D01*
X9679631Y25405747D01*
X9739211Y25235478D01*
X9835184Y25082739D01*
X9962738Y24955185D01*
X10115478Y24859212D01*
X10285745Y24799633D01*
X10285750Y24799632D01*
X10464996Y24779436D01*
X10465000Y24779436D01*
X10465004Y24779436D01*
X10644249Y24799632D01*
X10644252Y24799633D01*
X10644255Y24799633D01*
X10814522Y24859212D01*
X10967262Y24955185D01*
X10967267Y24955191D01*
X10970719Y24957942D01*
X11035405Y24984353D01*
X11048035Y24984998D01*
X18581965Y24984998D01*
X18649004Y24965313D01*
X18659281Y24957942D01*
X18662736Y24955187D01*
X18662738Y24955185D01*
X18815478Y24859212D01*
X18985745Y24799633D01*
X18985750Y24799632D01*
X19164996Y24779436D01*
X19165000Y24779436D01*
X19165004Y24779436D01*
X19344249Y24799632D01*
X19344252Y24799633D01*
X19344255Y24799633D01*
X19514522Y24859212D01*
X19667262Y24955185D01*
X19794816Y25082739D01*
X19890789Y25235479D01*
X19950368Y25405746D01*
X19970565Y25585001D01*
X19969677Y25592878D01*
X19950369Y25764251D01*
X19950368Y25764256D01*
X19895762Y25920310D01*
X19890789Y25934523D01*
X19794816Y26087263D01*
X19667262Y26214817D01*
X19522561Y26305739D01*
X19514524Y26310789D01*
X19514523Y26310790D01*
X19462604Y26328957D01*
X19448043Y26334053D01*
X19391269Y26374774D01*
X19365522Y26439727D01*
X19365000Y26451093D01*
X19365000Y26618907D01*
X19384685Y26685946D01*
X19437489Y26731701D01*
X19448046Y26735949D01*
X19455813Y26738667D01*
X19514522Y26759210D01*
X19667262Y26855183D01*
X19794816Y26982737D01*
X19890789Y27135477D01*
X19950368Y27305744D01*
X19970565Y27484999D01*
X19966945Y27517125D01*
X19964931Y27535001D01*
X20789357Y27535001D01*
X20809884Y27313466D01*
X20809885Y27313464D01*
X20870769Y27099478D01*
X20870775Y27099463D01*
X20969938Y26900318D01*
X20969943Y26900310D01*
X21104020Y26722763D01*
X21268437Y26572878D01*
X21268439Y26572876D01*
X21457595Y26455756D01*
X21457596Y26455756D01*
X21457599Y26455754D01*
X21665060Y26375383D01*
X21883757Y26334501D01*
X21883759Y26334501D01*
X22106241Y26334501D01*
X22106243Y26334501D01*
X22324940Y26375383D01*
X22532401Y26455754D01*
X22721562Y26572877D01*
X22885981Y26722765D01*
X23020058Y26900312D01*
X23119229Y27099473D01*
X23180115Y27313465D01*
X23200643Y27535001D01*
X23191446Y27634249D01*
X23180115Y27756537D01*
X23180114Y27756539D01*
X23157926Y27834521D01*
X23119229Y27970529D01*
X23119224Y27970540D01*
X23020061Y28169685D01*
X23020056Y28169693D01*
X22885979Y28347240D01*
X22721562Y28497125D01*
X22721560Y28497127D01*
X22532404Y28614247D01*
X22532398Y28614249D01*
X22324940Y28694619D01*
X22106243Y28735501D01*
X21883757Y28735501D01*
X21665060Y28694619D01*
X21533864Y28643794D01*
X21457601Y28614249D01*
X21457595Y28614247D01*
X21268439Y28497127D01*
X21268437Y28497125D01*
X21104020Y28347240D01*
X20969943Y28169693D01*
X20969938Y28169685D01*
X20870775Y27970540D01*
X20870769Y27970525D01*
X20809885Y27756539D01*
X20809884Y27756537D01*
X20789357Y27535002D01*
X20789357Y27535001D01*
X19964931Y27535001D01*
X19950369Y27664249D01*
X19950368Y27664254D01*
X19890789Y27834521D01*
X19794816Y27987261D01*
X19667262Y28114815D01*
X19667260Y28114816D01*
X19514523Y28210788D01*
X19344254Y28270368D01*
X19344249Y28270369D01*
X19165004Y28290564D01*
X19164996Y28290564D01*
X18985750Y28270369D01*
X18985745Y28270368D01*
X18815476Y28210788D01*
X18662738Y28114816D01*
X18659275Y28112053D01*
X18594588Y28085645D01*
X18581963Y28085001D01*
X10265000Y28085001D01*
X10265000Y27351093D01*
X10245315Y27284054D01*
X10192511Y27238299D01*
X10181956Y27234052D01*
X10115476Y27210790D01*
X10115475Y27210789D01*
X9962737Y27114817D01*
X9835184Y26987264D01*
X9739211Y26834525D01*
X9679631Y26664256D01*
X9679630Y26664251D01*
X9659435Y26485005D01*
X9659435Y26484998D01*
X9679630Y26305752D01*
X9679633Y26305739D01*
X9739209Y26135482D01*
X9760893Y26100971D01*
X9779892Y26033734D01*
X9760893Y25969031D01*
X9739209Y25934521D01*
X9679633Y25764264D01*
X9679630Y25764251D01*
X9659435Y25585005D01*
X9659435Y25584998D01*
X8208837Y25584998D01*
X8221562Y25592877D01*
X8385981Y25742765D01*
X8520058Y25920312D01*
X8619229Y26119473D01*
X8680115Y26333465D01*
X8700643Y26555001D01*
X8698986Y26572878D01*
X8680115Y26776537D01*
X8680114Y26776539D01*
X8663616Y26834523D01*
X8619229Y26990529D01*
X8547054Y27135476D01*
X8520061Y27189685D01*
X8520056Y27189693D01*
X8385979Y27367240D01*
X8221562Y27517125D01*
X8221560Y27517127D01*
X8032404Y27634247D01*
X8032398Y27634249D01*
X7824940Y27714619D01*
X7606243Y27755501D01*
X7383757Y27755501D01*
X7165060Y27714619D01*
X7035053Y27664254D01*
X6957601Y27634249D01*
X6957595Y27634247D01*
X6768439Y27517127D01*
X6768437Y27517125D01*
X6604020Y27367240D01*
X6469943Y27189693D01*
X6469938Y27189685D01*
X6370775Y26990540D01*
X6370769Y26990525D01*
X6309885Y26776539D01*
X6309884Y26776537D01*
X6289357Y26555002D01*
X6289357Y26555001D01*
X500Y26555001D01*
X500Y30235001D01*
X6289357Y30235001D01*
X6309884Y30013466D01*
X6309885Y30013464D01*
X6370769Y29799478D01*
X6370775Y29799463D01*
X6469938Y29600318D01*
X6469943Y29600310D01*
X6604020Y29422763D01*
X6768437Y29272878D01*
X6768439Y29272876D01*
X6957595Y29155756D01*
X6957596Y29155756D01*
X6957599Y29155754D01*
X7165060Y29075383D01*
X7383757Y29034501D01*
X7383759Y29034501D01*
X7606241Y29034501D01*
X7606243Y29034501D01*
X7824940Y29075383D01*
X8032401Y29155754D01*
X8221562Y29272877D01*
X8306162Y29350000D01*
X9584435Y29350000D01*
X9604630Y29170754D01*
X9604631Y29170749D01*
X9664211Y29000480D01*
X9760184Y28847741D01*
X9887738Y28720187D01*
X10040478Y28624214D01*
X10210745Y28564635D01*
X10210750Y28564634D01*
X10389996Y28544438D01*
X10390000Y28544438D01*
X10390004Y28544438D01*
X10569249Y28564634D01*
X10569252Y28564635D01*
X10569255Y28564635D01*
X10739522Y28624214D01*
X10892262Y28720187D01*
X10892267Y28720193D01*
X10895719Y28722944D01*
X10960405Y28749355D01*
X10973035Y28750000D01*
X18506965Y28750000D01*
X18574004Y28730315D01*
X18584281Y28722944D01*
X18587736Y28720189D01*
X18587738Y28720187D01*
X18740478Y28624214D01*
X18910745Y28564635D01*
X18910750Y28564634D01*
X19089996Y28544438D01*
X19090000Y28544438D01*
X19090004Y28544438D01*
X19269249Y28564634D01*
X19269252Y28564635D01*
X19269255Y28564635D01*
X19439522Y28624214D01*
X19592262Y28720187D01*
X19719816Y28847741D01*
X19815789Y29000481D01*
X19875368Y29170748D01*
X19886875Y29272877D01*
X19895565Y29350000D01*
X19895565Y29350007D01*
X19875369Y29529253D01*
X19875368Y29529258D01*
X19850503Y29600318D01*
X19815789Y29699525D01*
X19719816Y29852265D01*
X19592262Y29979819D01*
X19447561Y30070741D01*
X19439524Y30075791D01*
X19439523Y30075792D01*
X19373044Y30099054D01*
X19316269Y30139776D01*
X19290522Y30204729D01*
X19290000Y30216095D01*
X19290000Y30383909D01*
X19309685Y30450948D01*
X19362489Y30496703D01*
X19373046Y30500951D01*
X19380813Y30503669D01*
X19439522Y30524212D01*
X19592262Y30620185D01*
X19719816Y30747739D01*
X19815789Y30900479D01*
X19875368Y31070746D01*
X19882435Y31133466D01*
X19895565Y31249998D01*
X19895565Y31250005D01*
X19883735Y31355001D01*
X20789357Y31355001D01*
X20809884Y31133466D01*
X20809885Y31133464D01*
X20870769Y30919478D01*
X20870775Y30919463D01*
X20969938Y30720318D01*
X20969943Y30720310D01*
X21104020Y30542763D01*
X21268437Y30392878D01*
X21268439Y30392876D01*
X21457595Y30275756D01*
X21457596Y30275756D01*
X21457599Y30275754D01*
X21665060Y30195383D01*
X21883757Y30154501D01*
X21883759Y30154501D01*
X22106241Y30154501D01*
X22106243Y30154501D01*
X22324940Y30195383D01*
X22532401Y30275754D01*
X22721562Y30392877D01*
X22885981Y30542765D01*
X23020058Y30720312D01*
X23119229Y30919473D01*
X23180115Y31133465D01*
X23200643Y31355001D01*
X23180115Y31576537D01*
X23119229Y31790529D01*
X23119224Y31790540D01*
X23020061Y31989685D01*
X23020056Y31989693D01*
X22885979Y32167240D01*
X22721562Y32317125D01*
X22721560Y32317127D01*
X22532404Y32434247D01*
X22532398Y32434249D01*
X22324940Y32514619D01*
X22106243Y32555501D01*
X21883757Y32555501D01*
X21665060Y32514619D01*
X21533864Y32463794D01*
X21457601Y32434249D01*
X21457595Y32434247D01*
X21268439Y32317127D01*
X21268437Y32317125D01*
X21104020Y32167240D01*
X20969943Y31989693D01*
X20969938Y31989685D01*
X20870775Y31790540D01*
X20870769Y31790525D01*
X20809885Y31576539D01*
X20809884Y31576537D01*
X20789357Y31355002D01*
X20789357Y31355001D01*
X19883735Y31355001D01*
X19875369Y31429251D01*
X19875368Y31429256D01*
X19815788Y31599525D01*
X19719815Y31752264D01*
X19592262Y31879817D01*
X19439523Y31975790D01*
X19269254Y32035370D01*
X19269249Y32035371D01*
X19090004Y32055566D01*
X19089996Y32055566D01*
X18910750Y32035371D01*
X18910745Y32035370D01*
X18740476Y31975790D01*
X18587738Y31879818D01*
X18584275Y31877055D01*
X18519588Y31850647D01*
X18506963Y31850003D01*
X10190000Y31850003D01*
X10190000Y31116095D01*
X10170315Y31049056D01*
X10117511Y31003301D01*
X10106956Y30999054D01*
X10040476Y30975792D01*
X10040475Y30975791D01*
X9887737Y30879819D01*
X9760184Y30752266D01*
X9664211Y30599527D01*
X9604631Y30429258D01*
X9604630Y30429253D01*
X9584435Y30250007D01*
X9584435Y30250000D01*
X9604630Y30070754D01*
X9604633Y30070741D01*
X9664209Y29900484D01*
X9685893Y29865973D01*
X9704892Y29798736D01*
X9685893Y29734033D01*
X9664209Y29699523D01*
X9604633Y29529266D01*
X9604630Y29529253D01*
X9584435Y29350007D01*
X9584435Y29350000D01*
X8306162Y29350000D01*
X8385981Y29422765D01*
X8520058Y29600312D01*
X8619229Y29799473D01*
X8680115Y30013465D01*
X8700643Y30235001D01*
X8680115Y30456537D01*
X8619229Y30670529D01*
X8580783Y30747739D01*
X8520061Y30869685D01*
X8520056Y30869693D01*
X8385979Y31047240D01*
X8221562Y31197125D01*
X8221560Y31197127D01*
X8032404Y31314247D01*
X8032398Y31314249D01*
X7824940Y31394619D01*
X7606243Y31435501D01*
X7383757Y31435501D01*
X7165060Y31394619D01*
X7033864Y31343794D01*
X6957601Y31314249D01*
X6957595Y31314247D01*
X6768439Y31197127D01*
X6768437Y31197125D01*
X6604020Y31047240D01*
X6469943Y30869693D01*
X6469938Y30869685D01*
X6370775Y30670540D01*
X6370769Y30670525D01*
X6309885Y30456539D01*
X6309884Y30456537D01*
X6289357Y30235002D01*
X6289357Y30235001D01*
X500Y30235001D01*
X500Y33805500D01*
X20185Y33872539D01*
X72989Y33918294D01*
X124500Y33929500D01*
X29415409Y33929500D01*
X29482448Y33909815D01*
G37*
G04 #@! TD.AperFunction*
G04 #@! TD*
M02*
