G04 #@! TF.GenerationSoftware,KiCad,Pcbnew,7.0.9-7.0.9~ubuntu22.04.1*
G04 #@! TF.CreationDate,2023-12-29T17:52:02+00:00*
G04 #@! TF.ProjectId,driver_test,64726976-6572-45f7-9465-73742e6b6963,rev?*
G04 #@! TF.SameCoordinates,Original*
G04 #@! TF.FileFunction,Copper,L4,Bot*
G04 #@! TF.FilePolarity,Positive*
%FSLAX46Y46*%
G04 Gerber Fmt 4.6, Leading zero omitted, Abs format (unit mm)*
G04 Created by KiCad (PCBNEW 7.0.9-7.0.9~ubuntu22.04.1) date 2023-12-29 17:52:02*
%MOMM*%
%LPD*%
G01*
G04 APERTURE LIST*
G04 #@! TA.AperFunction,ComponentPad*
%ADD10C,1.400000*%
G04 #@! TD*
G04 #@! TA.AperFunction,ComponentPad*
%ADD11C,0.600000*%
G04 #@! TD*
G04 #@! TA.AperFunction,SMDPad,CuDef*
%ADD12O,0.200000X1.225000*%
G04 #@! TD*
G04 #@! TA.AperFunction,SMDPad,CuDef*
%ADD13O,9.300000X0.200000*%
G04 #@! TD*
G04 #@! TA.AperFunction,ComponentPad*
%ADD14R,1.530000X1.530000*%
G04 #@! TD*
G04 #@! TA.AperFunction,ComponentPad*
%ADD15C,1.530000*%
G04 #@! TD*
G04 #@! TA.AperFunction,ViaPad*
%ADD16C,0.800000*%
G04 #@! TD*
G04 #@! TA.AperFunction,Conductor*
%ADD17C,0.300000*%
G04 #@! TD*
G04 #@! TA.AperFunction,Conductor*
%ADD18C,0.250000*%
G04 #@! TD*
G04 APERTURE END LIST*
D10*
G04 #@! TO.P,IN_KNOCK2,1,Pin_1*
G04 #@! TO.N,Net-(IN_KNOCK2-Pin_1)*
X6930000Y27480000D03*
G04 #@! TD*
D11*
G04 #@! TO.P,M1,E1,V5A*
G04 #@! TO.N,+5V*
X18588000Y28284003D03*
D12*
G04 #@! TO.P,M1,E2,GND*
G04 #@! TO.N,GND*
X9688000Y26309003D03*
D13*
X14238000Y28884003D03*
X14238000Y25784003D03*
D11*
X18588000Y27334003D03*
G04 #@! TO.P,M1,E3,OUT_KNOCK*
G04 #@! TO.N,Net-(M1-OUT_KNOCK)*
X18588000Y26384005D03*
G04 #@! TO.P,M1,W1,IN_KNOCK*
G04 #@! TO.N,Net-(IN_KNOCK2-Pin_1)*
X9888000Y27384003D03*
G04 #@! TO.P,M1,W2,VREF*
G04 #@! TO.N,/VREF*
X9888000Y28284003D03*
G04 #@! TD*
D10*
G04 #@! TO.P,IN_KNOCK1,1,Pin_1*
G04 #@! TO.N,Net-(IN_KNOCK1-Pin_1)*
X6930000Y23670000D03*
G04 #@! TD*
G04 #@! TO.P,OUT_KNOCK1,1,Pin_1*
G04 #@! TO.N,Net-(M2-OUT_KNOCK)*
X21720000Y22640000D03*
G04 #@! TD*
D11*
G04 #@! TO.P,M2,E1,V5A*
G04 #@! TO.N,+5V*
X18588000Y24496000D03*
D12*
G04 #@! TO.P,M2,E2,GND*
G04 #@! TO.N,GND*
X9688000Y22521000D03*
D13*
X14238000Y25096000D03*
X14238000Y21996000D03*
D11*
X18588000Y23546000D03*
G04 #@! TO.P,M2,E3,OUT_KNOCK*
G04 #@! TO.N,Net-(M2-OUT_KNOCK)*
X18588000Y22596002D03*
G04 #@! TO.P,M2,W1,IN_KNOCK*
G04 #@! TO.N,Net-(IN_KNOCK1-Pin_1)*
X9888000Y23596000D03*
G04 #@! TO.P,M2,W2,VREF*
G04 #@! TO.N,/VREF*
X9888000Y24496000D03*
G04 #@! TD*
D10*
G04 #@! TO.P,OUT_KNOCK2,1,Pin_1*
G04 #@! TO.N,Net-(M1-OUT_KNOCK)*
X21720000Y26460000D03*
G04 #@! TD*
G04 #@! TO.P,PPS2_CPU1,1,Pin_1*
G04 #@! TO.N,Net-(D2-A)*
X5155000Y4520000D03*
G04 #@! TD*
G04 #@! TO.P,5V_IN1,1,Pin_1*
G04 #@! TO.N,+5V*
X14063000Y32311002D03*
G04 #@! TD*
G04 #@! TO.P,TPS2_CPU1,1,Pin_1*
G04 #@! TO.N,Net-(D1-A)*
X5185000Y11860000D03*
G04 #@! TD*
D14*
G04 #@! TO.P,U1,1,~{ENABLE}*
G04 #@! TO.N,+12VA*
X15535000Y19060000D03*
D15*
G04 #@! TO.P,U1,2,MS1*
G04 #@! TO.N,GND*
X15535000Y16520000D03*
G04 #@! TO.P,U1,3,MS2*
G04 #@! TO.N,/OUT-*
X15535000Y13980000D03*
G04 #@! TO.P,U1,4,MS3*
G04 #@! TO.N,/OUT+*
X15535000Y11440000D03*
G04 #@! TO.P,U1,5,~{RESET}*
G04 #@! TO.N,/TPS2_IN*
X15535000Y8900000D03*
G04 #@! TO.P,U1,6,~{SLEEP}*
G04 #@! TO.N,/PPS2_IN*
X15535000Y6360000D03*
G04 #@! TO.P,U1,7,STEP*
G04 #@! TO.N,+3.3V*
X15535000Y3820000D03*
G04 #@! TO.P,U1,8,DIR*
G04 #@! TO.N,GND*
X15535000Y1280000D03*
G04 #@! TO.P,U1,9,GND*
G04 #@! TO.N,/DIS*
X28235000Y1280000D03*
G04 #@! TO.P,U1,10,VDD*
G04 #@! TO.N,unconnected-(U1-VDD-Pad10)*
X28235000Y3820000D03*
G04 #@! TO.P,U1,11,1B*
G04 #@! TO.N,unconnected-(U1-1B-Pad11)*
X28235000Y6360000D03*
G04 #@! TO.P,U1,12,1A*
G04 #@! TO.N,unconnected-(U1-1A-Pad12)*
X28235000Y8900000D03*
G04 #@! TO.P,U1,13,2A*
G04 #@! TO.N,+3.3V*
X28235000Y11440000D03*
G04 #@! TO.P,U1,14,2B*
X28235000Y13980000D03*
G04 #@! TO.P,U1,15,GND*
G04 #@! TO.N,/PWM*
X28235000Y16520000D03*
G04 #@! TO.P,U1,16,VMOT*
G04 #@! TO.N,/DIR*
X28235000Y19060000D03*
G04 #@! TD*
D16*
G04 #@! TO.N,GND*
X21020000Y10090000D03*
X20130000Y8340000D03*
X18340000Y11910000D03*
X21920000Y9230000D03*
X18320000Y8280000D03*
X20130000Y10110000D03*
X24560000Y10170000D03*
X25470000Y11090000D03*
X22390000Y5320000D03*
X23960000Y17350000D03*
X23690000Y8380000D03*
X18330000Y9160000D03*
X19230000Y8310000D03*
X22790000Y9230000D03*
X25800000Y17530000D03*
X22790000Y8350000D03*
X20140000Y11000000D03*
X18550000Y17270000D03*
X23680000Y11910000D03*
X21010000Y11850000D03*
X21410000Y5300000D03*
X2808000Y15190000D03*
X25460000Y9310000D03*
X25460000Y10200000D03*
X25460000Y8430000D03*
X20120000Y11870000D03*
X21030000Y10980000D03*
X18340000Y10070000D03*
X19230000Y9190000D03*
X12968000Y17222000D03*
X23690000Y9260000D03*
X21020000Y9200000D03*
X20130000Y9220000D03*
X21910000Y11880000D03*
X6618000Y17222000D03*
X25450000Y11960000D03*
X22800000Y11010000D03*
X22780000Y11880000D03*
X24550000Y11930000D03*
X24560000Y9280000D03*
X22790000Y10120000D03*
X4586000Y17222000D03*
X18350000Y10980000D03*
X24570000Y11060000D03*
X21020000Y8320000D03*
X23690000Y10150000D03*
X2554000Y17222000D03*
X19230000Y10080000D03*
X23700000Y11040000D03*
X21920000Y10120000D03*
X20970000Y3320000D03*
X20410000Y5270000D03*
X19220000Y11840000D03*
X10936000Y17222000D03*
X19240000Y10970000D03*
X21930000Y11010000D03*
X21920000Y8350000D03*
X20660000Y17270000D03*
X8904000Y17222000D03*
X24560000Y8400000D03*
G04 #@! TO.N,+3.3V*
X25550000Y13390000D03*
G04 #@! TD*
D17*
G04 #@! TO.N,+3.3V*
X25550000Y13390000D02*
X27645000Y13390000D01*
X27645000Y13390000D02*
X28235000Y13980000D01*
D18*
G04 #@! TO.N,Net-(IN_KNOCK2-Pin_1)*
X6930000Y27480000D02*
X9792003Y27480000D01*
X9792003Y27480000D02*
X9888000Y27384003D01*
X9787001Y27485002D02*
X9888000Y27384003D01*
G04 #@! TO.N,Net-(M1-OUT_KNOCK)*
X21720000Y26460000D02*
X18663995Y26460000D01*
X18663995Y26460000D02*
X18588000Y26384005D01*
X18672997Y26469002D02*
X18588000Y26384005D01*
G04 #@! TD*
G04 #@! TA.AperFunction,Conductor*
G04 #@! TO.N,GND*
G36*
X29482448Y33909815D02*
G01*
X29528203Y33857011D01*
X29539408Y33805411D01*
X29530601Y21827764D01*
X29529500Y20330100D01*
X29529500Y19810873D01*
X29509815Y19743834D01*
X29457011Y19698079D01*
X29387853Y19688135D01*
X29324297Y19717160D01*
X29303925Y19739749D01*
X29254123Y19810873D01*
X29208132Y19876555D01*
X29051555Y20033132D01*
X28870167Y20160142D01*
X28870163Y20160144D01*
X28669486Y20253721D01*
X28669475Y20253725D01*
X28455592Y20311035D01*
X28455585Y20311036D01*
X28235002Y20330334D01*
X28234998Y20330334D01*
X28014414Y20311036D01*
X28014407Y20311035D01*
X27800524Y20253725D01*
X27800513Y20253721D01*
X27599836Y20160144D01*
X27599834Y20160143D01*
X27418444Y20033132D01*
X27261868Y19876556D01*
X27134857Y19695166D01*
X27134856Y19695164D01*
X27041279Y19494487D01*
X27041275Y19494476D01*
X26983965Y19280593D01*
X26983964Y19280586D01*
X26964666Y19060002D01*
X26964666Y19059999D01*
X26983964Y18839415D01*
X26983965Y18839408D01*
X27041275Y18625525D01*
X27041279Y18625514D01*
X27131950Y18431069D01*
X27134858Y18424833D01*
X27261868Y18243445D01*
X27418445Y18086868D01*
X27599833Y17959858D01*
X27647875Y17937456D01*
X27723091Y17902382D01*
X27775531Y17856210D01*
X27794683Y17789017D01*
X27774467Y17722135D01*
X27723091Y17677618D01*
X27599836Y17620144D01*
X27599834Y17620143D01*
X27418444Y17493132D01*
X27261868Y17336556D01*
X27134857Y17155166D01*
X27134856Y17155164D01*
X27041279Y16954487D01*
X27041275Y16954476D01*
X26983965Y16740593D01*
X26983964Y16740586D01*
X26964666Y16520002D01*
X26964666Y16519999D01*
X26983964Y16299415D01*
X26983965Y16299408D01*
X27041275Y16085525D01*
X27041279Y16085514D01*
X27069205Y16025627D01*
X27134858Y15884833D01*
X27261868Y15703445D01*
X27418445Y15546868D01*
X27599833Y15419858D01*
X27661828Y15390950D01*
X27723091Y15362382D01*
X27775531Y15316210D01*
X27794683Y15249017D01*
X27774467Y15182135D01*
X27723091Y15137618D01*
X27599836Y15080144D01*
X27599834Y15080143D01*
X27418444Y14953132D01*
X27261868Y14796556D01*
X27134857Y14615166D01*
X27134856Y14615164D01*
X27041279Y14414487D01*
X27041275Y14414476D01*
X26983965Y14200593D01*
X26983964Y14200586D01*
X26979862Y14153693D01*
X26954410Y14088624D01*
X26897819Y14047645D01*
X26856334Y14040500D01*
X26226975Y14040500D01*
X26159936Y14060185D01*
X26154090Y14064182D01*
X26002734Y14174149D01*
X26002729Y14174152D01*
X25829807Y14251143D01*
X25829802Y14251145D01*
X25684001Y14282135D01*
X25644646Y14290500D01*
X25455354Y14290500D01*
X25422897Y14283602D01*
X25270197Y14251145D01*
X25270192Y14251143D01*
X25097270Y14174152D01*
X25097265Y14174149D01*
X24944129Y14062889D01*
X24817466Y13922215D01*
X24722821Y13758285D01*
X24722818Y13758278D01*
X24664327Y13578260D01*
X24664326Y13578256D01*
X24644540Y13390000D01*
X24664326Y13201744D01*
X24664327Y13201741D01*
X24722818Y13021723D01*
X24722821Y13021716D01*
X24817467Y12857784D01*
X24941695Y12719815D01*
X24944129Y12717112D01*
X25097265Y12605852D01*
X25097270Y12605849D01*
X25270192Y12528858D01*
X25270197Y12528856D01*
X25455354Y12489500D01*
X25455355Y12489500D01*
X25644644Y12489500D01*
X25644646Y12489500D01*
X25829803Y12528856D01*
X26002730Y12605849D01*
X26154090Y12715818D01*
X26219896Y12739298D01*
X26226975Y12739500D01*
X27491268Y12739500D01*
X27558307Y12719815D01*
X27604062Y12667011D01*
X27614006Y12597853D01*
X27584981Y12534297D01*
X27562393Y12513927D01*
X27534924Y12494692D01*
X27418444Y12413132D01*
X27261868Y12256556D01*
X27134857Y12075166D01*
X27134856Y12075164D01*
X27041279Y11874487D01*
X27041275Y11874476D01*
X26983965Y11660593D01*
X26983964Y11660586D01*
X26964666Y11440002D01*
X26964666Y11439999D01*
X26983964Y11219415D01*
X26983965Y11219408D01*
X27041275Y11005525D01*
X27041279Y11005514D01*
X27091472Y10897875D01*
X27134858Y10804833D01*
X27261868Y10623445D01*
X27418445Y10466868D01*
X27599833Y10339858D01*
X27661828Y10310950D01*
X27723091Y10282382D01*
X27775531Y10236210D01*
X27794683Y10169017D01*
X27774467Y10102135D01*
X27723091Y10057618D01*
X27599836Y10000144D01*
X27599834Y10000143D01*
X27418444Y9873132D01*
X27261868Y9716556D01*
X27134857Y9535166D01*
X27134856Y9535164D01*
X27041279Y9334487D01*
X27041275Y9334476D01*
X26983965Y9120593D01*
X26983964Y9120586D01*
X26964666Y8900002D01*
X26964666Y8899999D01*
X26983964Y8679415D01*
X26983965Y8679408D01*
X27041275Y8465525D01*
X27041279Y8465514D01*
X27131950Y8271069D01*
X27134858Y8264833D01*
X27261868Y8083445D01*
X27418445Y7926868D01*
X27599833Y7799858D01*
X27661828Y7770950D01*
X27723091Y7742382D01*
X27775531Y7696210D01*
X27794683Y7629017D01*
X27774467Y7562135D01*
X27723091Y7517618D01*
X27599836Y7460144D01*
X27599834Y7460143D01*
X27418444Y7333132D01*
X27261868Y7176556D01*
X27134857Y6995166D01*
X27134856Y6995164D01*
X27041279Y6794487D01*
X27041275Y6794476D01*
X26983965Y6580593D01*
X26983964Y6580586D01*
X26964666Y6360002D01*
X26964666Y6359999D01*
X26983964Y6139415D01*
X26983965Y6139408D01*
X27041275Y5925525D01*
X27041279Y5925514D01*
X27131950Y5731069D01*
X27134858Y5724833D01*
X27261868Y5543445D01*
X27418445Y5386868D01*
X27599833Y5259858D01*
X27661828Y5230950D01*
X27723091Y5202382D01*
X27775531Y5156210D01*
X27794683Y5089017D01*
X27774467Y5022135D01*
X27723091Y4977618D01*
X27599836Y4920144D01*
X27599834Y4920143D01*
X27418444Y4793132D01*
X27261868Y4636556D01*
X27134857Y4455166D01*
X27134856Y4455164D01*
X27041279Y4254487D01*
X27041275Y4254476D01*
X26983965Y4040593D01*
X26983964Y4040586D01*
X26964666Y3820002D01*
X26964666Y3819999D01*
X26983964Y3599415D01*
X26983965Y3599408D01*
X27041275Y3385525D01*
X27041279Y3385514D01*
X27072062Y3319500D01*
X27134858Y3184833D01*
X27261868Y3003445D01*
X27418445Y2846868D01*
X27599833Y2719858D01*
X27661828Y2690950D01*
X27723091Y2662382D01*
X27775531Y2616210D01*
X27794683Y2549017D01*
X27774467Y2482135D01*
X27723091Y2437618D01*
X27599836Y2380144D01*
X27599834Y2380143D01*
X27418444Y2253132D01*
X27261868Y2096556D01*
X27134857Y1915166D01*
X27134856Y1915164D01*
X27041279Y1714487D01*
X27041275Y1714476D01*
X26983965Y1500593D01*
X26983964Y1500586D01*
X26964666Y1280002D01*
X26964666Y1279999D01*
X26983964Y1059415D01*
X26983965Y1059408D01*
X27041275Y845525D01*
X27041279Y845514D01*
X27069205Y785627D01*
X27134858Y644833D01*
X27261868Y463445D01*
X27418445Y306868D01*
X27526690Y231074D01*
X27570313Y176498D01*
X27577506Y106999D01*
X27545984Y44645D01*
X27485754Y9231D01*
X27455565Y5500D01*
X16313563Y5500D01*
X16246524Y25185D01*
X16200769Y77989D01*
X16190825Y147147D01*
X16219850Y210703D01*
X16235206Y224553D01*
X16235342Y226106D01*
X15676366Y785082D01*
X15680161Y785627D01*
X15813562Y846549D01*
X15924395Y942587D01*
X16003682Y1065960D01*
X16026132Y1142420D01*
X16588894Y579658D01*
X16634706Y645085D01*
X16728250Y845691D01*
X16728254Y845700D01*
X16785538Y1059491D01*
X16785540Y1059501D01*
X16804832Y1280000D01*
X16804832Y1280001D01*
X16785540Y1500500D01*
X16785538Y1500510D01*
X16728254Y1714301D01*
X16728250Y1714310D01*
X16634707Y1914915D01*
X16634706Y1914917D01*
X16588894Y1980343D01*
X16588894Y1980344D01*
X16026132Y1417582D01*
X16003682Y1494040D01*
X15924395Y1617413D01*
X15813562Y1713451D01*
X15680161Y1774373D01*
X15676366Y1774919D01*
X16235342Y2333895D01*
X16235341Y2333897D01*
X16169919Y2379705D01*
X16046316Y2437343D01*
X15993877Y2483516D01*
X15974725Y2550709D01*
X15994941Y2617590D01*
X16046312Y2662105D01*
X16170167Y2719858D01*
X16351555Y2846868D01*
X16508132Y3003445D01*
X16635142Y3184833D01*
X16728723Y3385520D01*
X16786035Y3599409D01*
X16805334Y3820000D01*
X16786035Y4040591D01*
X16728723Y4254480D01*
X16635142Y4455167D01*
X16508132Y4636555D01*
X16351555Y4793132D01*
X16170167Y4920142D01*
X16046907Y4977619D01*
X15994468Y5023790D01*
X15975316Y5090983D01*
X15995531Y5157864D01*
X16046908Y5202382D01*
X16170167Y5259858D01*
X16351555Y5386868D01*
X16508132Y5543445D01*
X16635142Y5724833D01*
X16728723Y5925520D01*
X16786035Y6139409D01*
X16805334Y6360000D01*
X16786035Y6580591D01*
X16728723Y6794480D01*
X16635142Y6995167D01*
X16508132Y7176555D01*
X16351555Y7333132D01*
X16170167Y7460142D01*
X16046907Y7517619D01*
X15994468Y7563790D01*
X15975316Y7630983D01*
X15995531Y7697864D01*
X16046908Y7742382D01*
X16170167Y7799858D01*
X16351555Y7926868D01*
X16508132Y8083445D01*
X16635142Y8264833D01*
X16728723Y8465520D01*
X16786035Y8679409D01*
X16805334Y8900000D01*
X16786035Y9120591D01*
X16728723Y9334480D01*
X16635142Y9535167D01*
X16508132Y9716555D01*
X16351555Y9873132D01*
X16170167Y10000142D01*
X16046907Y10057619D01*
X15994468Y10103790D01*
X15975316Y10170983D01*
X15995531Y10237864D01*
X16046908Y10282382D01*
X16170167Y10339858D01*
X16351555Y10466868D01*
X16508132Y10623445D01*
X16635142Y10804833D01*
X16728723Y11005520D01*
X16786035Y11219409D01*
X16803975Y11424462D01*
X16805334Y11439999D01*
X16805334Y11440002D01*
X16787971Y11638463D01*
X16786035Y11660591D01*
X16728723Y11874480D01*
X16635142Y12075167D01*
X16508132Y12256555D01*
X16351555Y12413132D01*
X16170167Y12540142D01*
X16046907Y12597619D01*
X15994468Y12643790D01*
X15975316Y12710983D01*
X15995531Y12777864D01*
X16046908Y12822382D01*
X16170167Y12879858D01*
X16351555Y13006868D01*
X16508132Y13163445D01*
X16635142Y13344833D01*
X16728723Y13545520D01*
X16786035Y13759409D01*
X16805334Y13980000D01*
X16786035Y14200591D01*
X16728723Y14414480D01*
X16635142Y14615167D01*
X16508132Y14796555D01*
X16351555Y14953132D01*
X16170167Y15080142D01*
X16170163Y15080144D01*
X16046317Y15137894D01*
X15993877Y15184066D01*
X15974725Y15251259D01*
X15994941Y15318141D01*
X16046317Y15362658D01*
X16169912Y15420292D01*
X16169914Y15420293D01*
X16235342Y15466106D01*
X15676366Y16025082D01*
X15680161Y16025627D01*
X15813562Y16086549D01*
X15924395Y16182587D01*
X16003682Y16305960D01*
X16026132Y16382420D01*
X16588894Y15819658D01*
X16634706Y15885085D01*
X16728250Y16085691D01*
X16728254Y16085700D01*
X16785538Y16299491D01*
X16785540Y16299501D01*
X16804832Y16520000D01*
X16804832Y16520001D01*
X16785540Y16740500D01*
X16785538Y16740510D01*
X16728254Y16954301D01*
X16728250Y16954310D01*
X16634707Y17154915D01*
X16634706Y17154917D01*
X16588894Y17220343D01*
X16588894Y17220344D01*
X16026132Y16657582D01*
X16003682Y16734040D01*
X15924395Y16857413D01*
X15813562Y16953451D01*
X15680161Y17014373D01*
X15676366Y17014919D01*
X16235342Y17573895D01*
X16234957Y17578287D01*
X16198815Y17623503D01*
X16191621Y17693001D01*
X16223144Y17755356D01*
X16283373Y17790770D01*
X16313562Y17794501D01*
X16347872Y17794501D01*
X16407483Y17800909D01*
X16542331Y17851204D01*
X16657546Y17937454D01*
X16743796Y18052669D01*
X16794091Y18187517D01*
X16800500Y18247127D01*
X16800499Y19872872D01*
X16794091Y19932483D01*
X16756551Y20033132D01*
X16743797Y20067329D01*
X16743793Y20067336D01*
X16657547Y20182545D01*
X16657544Y20182548D01*
X16542335Y20268794D01*
X16542328Y20268798D01*
X16407482Y20319092D01*
X16407483Y20319092D01*
X16347883Y20325499D01*
X16347881Y20325500D01*
X16347873Y20325500D01*
X16347864Y20325500D01*
X14722129Y20325500D01*
X14722123Y20325499D01*
X14662516Y20319092D01*
X14527671Y20268798D01*
X14527664Y20268794D01*
X14412455Y20182548D01*
X14412452Y20182545D01*
X14326206Y20067336D01*
X14326202Y20067329D01*
X14275908Y19932483D01*
X14269896Y19876556D01*
X14269501Y19872877D01*
X14269500Y19872865D01*
X14269500Y18247130D01*
X14269501Y18247124D01*
X14275908Y18187517D01*
X14326202Y18052672D01*
X14326206Y18052665D01*
X14412452Y17937456D01*
X14412455Y17937453D01*
X14527664Y17851207D01*
X14527671Y17851203D01*
X14662517Y17800909D01*
X14662516Y17800909D01*
X14669444Y17800165D01*
X14722127Y17794500D01*
X14756434Y17794501D01*
X14823471Y17774818D01*
X14869227Y17722015D01*
X14879172Y17652857D01*
X14850149Y17589301D01*
X14834793Y17575452D01*
X14834656Y17573897D01*
X15393634Y17014919D01*
X15389839Y17014373D01*
X15256438Y16953451D01*
X15145605Y16857413D01*
X15066318Y16734040D01*
X15043866Y16657581D01*
X14481104Y17220343D01*
X14435293Y17154916D01*
X14341749Y16954310D01*
X14341745Y16954301D01*
X14284461Y16740510D01*
X14284459Y16740500D01*
X14265168Y16520001D01*
X14265168Y16520000D01*
X14284459Y16299501D01*
X14284461Y16299491D01*
X14341745Y16085700D01*
X14341749Y16085691D01*
X14435295Y15885081D01*
X14481103Y15819659D01*
X14481105Y15819658D01*
X15043866Y16382420D01*
X15066318Y16305960D01*
X15145605Y16182587D01*
X15256438Y16086549D01*
X15389839Y16025627D01*
X15393633Y16025082D01*
X14834656Y15466106D01*
X14900083Y15420294D01*
X14900085Y15420293D01*
X15023683Y15362658D01*
X15076122Y15316486D01*
X15095274Y15249292D01*
X15075058Y15182411D01*
X15023683Y15137894D01*
X14899833Y15080143D01*
X14718444Y14953132D01*
X14561868Y14796556D01*
X14434857Y14615166D01*
X14434856Y14615164D01*
X14341279Y14414487D01*
X14341275Y14414476D01*
X14283965Y14200593D01*
X14283964Y14200586D01*
X14264666Y13980002D01*
X14264666Y13979999D01*
X14283964Y13759415D01*
X14283965Y13759408D01*
X14341275Y13545525D01*
X14341279Y13545514D01*
X14413796Y13390000D01*
X14434858Y13344833D01*
X14561868Y13163445D01*
X14718445Y13006868D01*
X14899833Y12879858D01*
X14947167Y12857786D01*
X15023091Y12822382D01*
X15075531Y12776210D01*
X15094683Y12709017D01*
X15074467Y12642135D01*
X15023091Y12597618D01*
X14899836Y12540144D01*
X14899834Y12540143D01*
X14718444Y12413132D01*
X14561868Y12256556D01*
X14434857Y12075166D01*
X14434856Y12075164D01*
X14341279Y11874487D01*
X14341275Y11874476D01*
X14283965Y11660593D01*
X14283964Y11660586D01*
X14264666Y11440002D01*
X14264666Y11439999D01*
X14283964Y11219415D01*
X14283965Y11219408D01*
X14341275Y11005525D01*
X14341279Y11005514D01*
X14391472Y10897875D01*
X14434858Y10804833D01*
X14561868Y10623445D01*
X14718445Y10466868D01*
X14899833Y10339858D01*
X14961828Y10310950D01*
X15023091Y10282382D01*
X15075531Y10236210D01*
X15094683Y10169017D01*
X15074467Y10102135D01*
X15023091Y10057618D01*
X14899836Y10000144D01*
X14899834Y10000143D01*
X14718444Y9873132D01*
X14561868Y9716556D01*
X14434857Y9535166D01*
X14434856Y9535164D01*
X14341279Y9334487D01*
X14341275Y9334476D01*
X14283965Y9120593D01*
X14283964Y9120586D01*
X14264666Y8900002D01*
X14264666Y8899999D01*
X14283964Y8679415D01*
X14283965Y8679408D01*
X14341275Y8465525D01*
X14341279Y8465514D01*
X14431950Y8271069D01*
X14434858Y8264833D01*
X14561868Y8083445D01*
X14718445Y7926868D01*
X14899833Y7799858D01*
X14961828Y7770950D01*
X15023091Y7742382D01*
X15075531Y7696210D01*
X15094683Y7629017D01*
X15074467Y7562135D01*
X15023091Y7517618D01*
X14899836Y7460144D01*
X14899834Y7460143D01*
X14718444Y7333132D01*
X14561868Y7176556D01*
X14434857Y6995166D01*
X14434856Y6995164D01*
X14341279Y6794487D01*
X14341275Y6794476D01*
X14283965Y6580593D01*
X14283964Y6580586D01*
X14264666Y6360002D01*
X14264666Y6359999D01*
X14283964Y6139415D01*
X14283965Y6139408D01*
X14341275Y5925525D01*
X14341279Y5925514D01*
X14431950Y5731069D01*
X14434858Y5724833D01*
X14561868Y5543445D01*
X14718445Y5386868D01*
X14899833Y5259858D01*
X14961828Y5230950D01*
X15023091Y5202382D01*
X15075531Y5156210D01*
X15094683Y5089017D01*
X15074467Y5022135D01*
X15023091Y4977618D01*
X14899836Y4920144D01*
X14899834Y4920143D01*
X14718444Y4793132D01*
X14561868Y4636556D01*
X14434857Y4455166D01*
X14434856Y4455164D01*
X14341279Y4254487D01*
X14341275Y4254476D01*
X14283965Y4040593D01*
X14283964Y4040586D01*
X14264666Y3820002D01*
X14264666Y3819999D01*
X14283964Y3599415D01*
X14283965Y3599408D01*
X14341275Y3385525D01*
X14341279Y3385514D01*
X14372062Y3319500D01*
X14434858Y3184833D01*
X14561868Y3003445D01*
X14718445Y2846868D01*
X14899833Y2719858D01*
X15023682Y2662107D01*
X15076122Y2615935D01*
X15095274Y2548742D01*
X15075059Y2481861D01*
X15023683Y2437343D01*
X14900084Y2379707D01*
X14834657Y2333896D01*
X15393634Y1774919D01*
X15389839Y1774373D01*
X15256438Y1713451D01*
X15145605Y1617413D01*
X15066318Y1494040D01*
X15043866Y1417581D01*
X14481104Y1980343D01*
X14435293Y1914916D01*
X14341749Y1714310D01*
X14341745Y1714301D01*
X14284461Y1500510D01*
X14284459Y1500500D01*
X14265168Y1280001D01*
X14265168Y1280000D01*
X14284459Y1059501D01*
X14284461Y1059491D01*
X14341745Y845700D01*
X14341749Y845691D01*
X14435295Y645081D01*
X14481103Y579659D01*
X14481105Y579658D01*
X15043866Y1142420D01*
X15066318Y1065960D01*
X15145605Y942587D01*
X15256438Y846549D01*
X15389839Y785627D01*
X15393633Y785082D01*
X14834656Y226106D01*
X14835041Y221715D01*
X14871184Y176498D01*
X14878378Y107000D01*
X14846855Y44645D01*
X14786626Y9231D01*
X14756436Y5500D01*
X14259900Y5500D01*
X124543Y545D01*
X57497Y20206D01*
X11724Y72994D01*
X500Y124545D01*
X500Y4520000D01*
X3949357Y4520000D01*
X3969884Y4298465D01*
X3969885Y4298463D01*
X4030769Y4084477D01*
X4030775Y4084462D01*
X4129938Y3885317D01*
X4129943Y3885309D01*
X4264020Y3707762D01*
X4428437Y3557877D01*
X4428439Y3557875D01*
X4617595Y3440755D01*
X4617596Y3440755D01*
X4617599Y3440753D01*
X4825060Y3360382D01*
X5043757Y3319500D01*
X5043759Y3319500D01*
X5266241Y3319500D01*
X5266243Y3319500D01*
X5484940Y3360382D01*
X5692401Y3440753D01*
X5881562Y3557876D01*
X6045981Y3707764D01*
X6180058Y3885311D01*
X6279229Y4084472D01*
X6340115Y4298464D01*
X6360643Y4520000D01*
X6340115Y4741536D01*
X6279229Y4955528D01*
X6279224Y4955539D01*
X6180061Y5154684D01*
X6180056Y5154692D01*
X6045979Y5332239D01*
X5881562Y5482124D01*
X5881560Y5482126D01*
X5692404Y5599246D01*
X5692398Y5599248D01*
X5666895Y5609128D01*
X5484940Y5679618D01*
X5266243Y5720500D01*
X5043757Y5720500D01*
X4825060Y5679618D01*
X4693864Y5628793D01*
X4617601Y5599248D01*
X4617595Y5599246D01*
X4428439Y5482126D01*
X4428437Y5482124D01*
X4264020Y5332239D01*
X4129943Y5154692D01*
X4129938Y5154684D01*
X4030775Y4955539D01*
X4030769Y4955524D01*
X3969885Y4741538D01*
X3969884Y4741536D01*
X3949357Y4520001D01*
X3949357Y4520000D01*
X500Y4520000D01*
X500Y11860000D01*
X3979357Y11860000D01*
X3999884Y11638465D01*
X3999885Y11638463D01*
X4060769Y11424477D01*
X4060775Y11424462D01*
X4159938Y11225317D01*
X4159943Y11225309D01*
X4294020Y11047762D01*
X4458437Y10897877D01*
X4458439Y10897875D01*
X4647595Y10780755D01*
X4647596Y10780755D01*
X4647599Y10780753D01*
X4855060Y10700382D01*
X5073757Y10659500D01*
X5073759Y10659500D01*
X5296241Y10659500D01*
X5296243Y10659500D01*
X5514940Y10700382D01*
X5722401Y10780753D01*
X5911562Y10897876D01*
X6075981Y11047764D01*
X6210058Y11225311D01*
X6309229Y11424472D01*
X6370115Y11638464D01*
X6390643Y11860000D01*
X6370115Y12081536D01*
X6309229Y12295528D01*
X6212642Y12489500D01*
X6210061Y12494684D01*
X6210056Y12494692D01*
X6075979Y12672239D01*
X5911562Y12822124D01*
X5911560Y12822126D01*
X5722404Y12939246D01*
X5722398Y12939248D01*
X5514940Y13019618D01*
X5296243Y13060500D01*
X5073757Y13060500D01*
X4855060Y13019618D01*
X4822149Y13006868D01*
X4647601Y12939248D01*
X4647595Y12939246D01*
X4458439Y12822126D01*
X4458437Y12822124D01*
X4294020Y12672239D01*
X4159943Y12494692D01*
X4159938Y12494684D01*
X4060775Y12295539D01*
X4060769Y12295524D01*
X3999885Y12081538D01*
X3999884Y12081536D01*
X3979357Y11860001D01*
X3979357Y11860000D01*
X500Y11860000D01*
X500Y23670000D01*
X5724357Y23670000D01*
X5744884Y23448465D01*
X5744885Y23448463D01*
X5805769Y23234477D01*
X5805775Y23234462D01*
X5904938Y23035317D01*
X5904943Y23035309D01*
X6039020Y22857762D01*
X6203437Y22707877D01*
X6203439Y22707875D01*
X6392595Y22590755D01*
X6392596Y22590755D01*
X6392599Y22590753D01*
X6600060Y22510382D01*
X6818757Y22469500D01*
X6818759Y22469500D01*
X7041241Y22469500D01*
X7041243Y22469500D01*
X7259940Y22510382D01*
X7467401Y22590753D01*
X7656562Y22707876D01*
X7820981Y22857764D01*
X7955058Y23035311D01*
X8054229Y23234472D01*
X8115115Y23448464D01*
X8128786Y23595997D01*
X9082435Y23595997D01*
X9102630Y23416751D01*
X9102631Y23416746D01*
X9162211Y23246477D01*
X9255339Y23098265D01*
X9258184Y23093738D01*
X9385738Y22966184D01*
X9538478Y22870211D01*
X9604954Y22846950D01*
X9661730Y22806228D01*
X9687478Y22741276D01*
X9688000Y22729908D01*
X9688000Y21996000D01*
X18004963Y21996000D01*
X18072002Y21976315D01*
X18082275Y21968948D01*
X18085737Y21966187D01*
X18085738Y21966186D01*
X18238478Y21870213D01*
X18359796Y21827762D01*
X18408745Y21810634D01*
X18408750Y21810633D01*
X18587996Y21790437D01*
X18588000Y21790437D01*
X18588004Y21790437D01*
X18767249Y21810633D01*
X18767252Y21810634D01*
X18767255Y21810634D01*
X18937522Y21870213D01*
X19090262Y21966186D01*
X19217816Y22093740D01*
X19313789Y22246480D01*
X19373368Y22416747D01*
X19373369Y22416753D01*
X19393565Y22595999D01*
X19393565Y22596006D01*
X19388608Y22640000D01*
X20514357Y22640000D01*
X20534884Y22418465D01*
X20534885Y22418463D01*
X20595769Y22204477D01*
X20595775Y22204462D01*
X20694938Y22005317D01*
X20694943Y22005309D01*
X20829020Y21827762D01*
X20993437Y21677877D01*
X20993439Y21677875D01*
X21182595Y21560755D01*
X21182596Y21560755D01*
X21182599Y21560753D01*
X21390060Y21480382D01*
X21608757Y21439500D01*
X21608759Y21439500D01*
X21831241Y21439500D01*
X21831243Y21439500D01*
X22049940Y21480382D01*
X22257401Y21560753D01*
X22446562Y21677876D01*
X22610981Y21827764D01*
X22745058Y22005311D01*
X22844229Y22204472D01*
X22905115Y22418464D01*
X22925643Y22640000D01*
X22919353Y22707876D01*
X22905115Y22861536D01*
X22905114Y22861538D01*
X22902646Y22870211D01*
X22844229Y23075528D01*
X22844224Y23075539D01*
X22745061Y23274684D01*
X22745056Y23274692D01*
X22610979Y23452239D01*
X22446562Y23602124D01*
X22446560Y23602126D01*
X22257404Y23719246D01*
X22257398Y23719248D01*
X22049940Y23799618D01*
X21831243Y23840500D01*
X21608757Y23840500D01*
X21390060Y23799618D01*
X21314152Y23770211D01*
X21182601Y23719248D01*
X21182595Y23719246D01*
X20993439Y23602126D01*
X20993437Y23602124D01*
X20829020Y23452239D01*
X20694943Y23274692D01*
X20694938Y23274684D01*
X20595775Y23075539D01*
X20595769Y23075524D01*
X20534885Y22861538D01*
X20534884Y22861536D01*
X20514357Y22640001D01*
X20514357Y22640000D01*
X19388608Y22640000D01*
X19373369Y22775252D01*
X19373368Y22775257D01*
X19358450Y22817891D01*
X19313789Y22945524D01*
X19300807Y22966184D01*
X19257368Y23035317D01*
X19217816Y23098264D01*
X19090262Y23225818D01*
X19076481Y23234477D01*
X18937524Y23321790D01*
X18937523Y23321791D01*
X18871044Y23345053D01*
X18814269Y23385775D01*
X18788522Y23450728D01*
X18788000Y23462094D01*
X18788000Y23629908D01*
X18807685Y23696947D01*
X18860489Y23742702D01*
X18871046Y23746950D01*
X18878813Y23749668D01*
X18937522Y23770211D01*
X19090262Y23866184D01*
X19217816Y23993738D01*
X19313789Y24146478D01*
X19373368Y24316745D01*
X19373369Y24316751D01*
X19393565Y24495997D01*
X19393565Y24496004D01*
X19373369Y24675250D01*
X19373368Y24675255D01*
X19313788Y24845524D01*
X19217815Y24998263D01*
X19090262Y25125816D01*
X18937523Y25221789D01*
X18767254Y25281369D01*
X18767249Y25281370D01*
X18588004Y25301565D01*
X18587996Y25301565D01*
X18408750Y25281370D01*
X18408745Y25281369D01*
X18238476Y25221789D01*
X18085736Y25125815D01*
X18082281Y25123059D01*
X18017595Y25096648D01*
X18004965Y25096003D01*
X10471035Y25096003D01*
X10403996Y25115688D01*
X10393719Y25123059D01*
X10390263Y25125815D01*
X10390262Y25125816D01*
X10333496Y25161485D01*
X10237523Y25221789D01*
X10067254Y25281369D01*
X10067249Y25281370D01*
X9888004Y25301565D01*
X9887996Y25301565D01*
X9708750Y25281370D01*
X9708745Y25281369D01*
X9538476Y25221789D01*
X9385737Y25125816D01*
X9258184Y24998263D01*
X9162211Y24845524D01*
X9102631Y24675255D01*
X9102630Y24675250D01*
X9082435Y24496004D01*
X9082435Y24495997D01*
X9102630Y24316751D01*
X9102633Y24316738D01*
X9162209Y24146481D01*
X9183893Y24111970D01*
X9202892Y24044733D01*
X9183893Y23980030D01*
X9162209Y23945520D01*
X9102633Y23775263D01*
X9102630Y23775250D01*
X9082435Y23596004D01*
X9082435Y23595997D01*
X8128786Y23595997D01*
X8135643Y23670000D01*
X8115115Y23891536D01*
X8054229Y24105528D01*
X8054224Y24105539D01*
X7955061Y24304684D01*
X7955056Y24304692D01*
X7820979Y24482239D01*
X7656562Y24632124D01*
X7656560Y24632126D01*
X7467404Y24749246D01*
X7467398Y24749248D01*
X7259940Y24829618D01*
X7041243Y24870500D01*
X6818757Y24870500D01*
X6600060Y24829618D01*
X6468864Y24778793D01*
X6392601Y24749248D01*
X6392595Y24749246D01*
X6203439Y24632126D01*
X6203437Y24632124D01*
X6039020Y24482239D01*
X5904943Y24304692D01*
X5904938Y24304684D01*
X5805775Y24105539D01*
X5805769Y24105524D01*
X5744885Y23891538D01*
X5744884Y23891536D01*
X5724357Y23670001D01*
X5724357Y23670000D01*
X500Y23670000D01*
X500Y27480000D01*
X5724357Y27480000D01*
X5744884Y27258465D01*
X5744885Y27258463D01*
X5805769Y27044477D01*
X5805775Y27044462D01*
X5904938Y26845317D01*
X5904943Y26845309D01*
X6039020Y26667762D01*
X6203437Y26517877D01*
X6203439Y26517875D01*
X6392595Y26400755D01*
X6392596Y26400755D01*
X6392599Y26400753D01*
X6600060Y26320382D01*
X6818757Y26279500D01*
X6818759Y26279500D01*
X7041241Y26279500D01*
X7041243Y26279500D01*
X7259940Y26320382D01*
X7467401Y26400753D01*
X7656562Y26517876D01*
X7820981Y26667764D01*
X7924788Y26805228D01*
X7980897Y26846863D01*
X8023742Y26854500D01*
X9234063Y26854500D01*
X9301102Y26834815D01*
X9321744Y26818181D01*
X9385738Y26754187D01*
X9538478Y26658214D01*
X9604954Y26634953D01*
X9661730Y26594231D01*
X9687478Y26529279D01*
X9688000Y26517911D01*
X9688000Y25784003D01*
X18004963Y25784003D01*
X18072002Y25764318D01*
X18082275Y25756951D01*
X18085737Y25754190D01*
X18085738Y25754189D01*
X18238478Y25658216D01*
X18408745Y25598637D01*
X18408750Y25598636D01*
X18587996Y25578440D01*
X18588000Y25578440D01*
X18588004Y25578440D01*
X18767249Y25598636D01*
X18767252Y25598637D01*
X18767255Y25598637D01*
X18937522Y25658216D01*
X19090262Y25754189D01*
X19134254Y25798181D01*
X19195577Y25831666D01*
X19221935Y25834500D01*
X20626258Y25834500D01*
X20693297Y25814815D01*
X20725212Y25785227D01*
X20829020Y25647762D01*
X20993437Y25497877D01*
X20993439Y25497875D01*
X21182595Y25380755D01*
X21182596Y25380755D01*
X21182599Y25380753D01*
X21390060Y25300382D01*
X21608757Y25259500D01*
X21608759Y25259500D01*
X21831241Y25259500D01*
X21831243Y25259500D01*
X22049940Y25300382D01*
X22257401Y25380753D01*
X22446562Y25497876D01*
X22610981Y25647764D01*
X22745058Y25825311D01*
X22844229Y26024472D01*
X22905115Y26238464D01*
X22925643Y26460000D01*
X22919223Y26529279D01*
X22905115Y26681536D01*
X22905114Y26681538D01*
X22884443Y26754188D01*
X22844229Y26895528D01*
X22844224Y26895539D01*
X22745061Y27094684D01*
X22745056Y27094692D01*
X22610979Y27272239D01*
X22446562Y27422124D01*
X22446560Y27422126D01*
X22257404Y27539246D01*
X22257398Y27539248D01*
X22049940Y27619618D01*
X21831243Y27660500D01*
X21608757Y27660500D01*
X21390060Y27619618D01*
X21258864Y27568793D01*
X21182601Y27539248D01*
X21182595Y27539246D01*
X20993439Y27422126D01*
X20993437Y27422124D01*
X20829020Y27272239D01*
X20725212Y27134773D01*
X20669103Y27093137D01*
X20626258Y27085500D01*
X19011910Y27085500D01*
X18945940Y27104505D01*
X18937523Y27109794D01*
X18871044Y27133056D01*
X18814269Y27173778D01*
X18788522Y27238731D01*
X18788000Y27250097D01*
X18788000Y27417911D01*
X18807685Y27484950D01*
X18860489Y27530705D01*
X18871046Y27534953D01*
X18878813Y27537671D01*
X18937522Y27558214D01*
X19090262Y27654187D01*
X19217816Y27781741D01*
X19313789Y27934481D01*
X19373368Y28104748D01*
X19374488Y28114689D01*
X19393565Y28284000D01*
X19393565Y28284007D01*
X19373369Y28463253D01*
X19373368Y28463258D01*
X19339780Y28559247D01*
X19313789Y28633525D01*
X19217816Y28786265D01*
X19090262Y28913819D01*
X18937523Y29009792D01*
X18767254Y29069372D01*
X18767249Y29069373D01*
X18588004Y29089568D01*
X18587996Y29089568D01*
X18408750Y29069373D01*
X18408745Y29069372D01*
X18238476Y29009792D01*
X18085736Y28913818D01*
X18082281Y28911062D01*
X18017595Y28884651D01*
X18004965Y28884006D01*
X10471035Y28884006D01*
X10403996Y28903691D01*
X10393719Y28911062D01*
X10390263Y28913818D01*
X10390262Y28913819D01*
X10333496Y28949488D01*
X10237523Y29009792D01*
X10067254Y29069372D01*
X10067249Y29069373D01*
X9888004Y29089568D01*
X9887996Y29089568D01*
X9708750Y29069373D01*
X9708745Y29069372D01*
X9538476Y29009792D01*
X9385737Y28913819D01*
X9258184Y28786266D01*
X9162211Y28633527D01*
X9102631Y28463258D01*
X9102630Y28463253D01*
X9082435Y28284007D01*
X9082435Y28283999D01*
X9087011Y28243382D01*
X9074956Y28174561D01*
X9027606Y28123182D01*
X8963791Y28105500D01*
X8023742Y28105500D01*
X7956703Y28125185D01*
X7924788Y28154773D01*
X7820979Y28292239D01*
X7656562Y28442124D01*
X7656560Y28442126D01*
X7467404Y28559246D01*
X7467398Y28559248D01*
X7259940Y28639618D01*
X7041243Y28680500D01*
X6818757Y28680500D01*
X6600060Y28639618D01*
X6468864Y28588793D01*
X6392601Y28559248D01*
X6392595Y28559246D01*
X6203439Y28442126D01*
X6203437Y28442124D01*
X6039020Y28292239D01*
X5904943Y28114692D01*
X5904938Y28114684D01*
X5805775Y27915539D01*
X5805769Y27915524D01*
X5744885Y27701538D01*
X5744884Y27701536D01*
X5724357Y27480001D01*
X5724357Y27480000D01*
X500Y27480000D01*
X500Y32311002D01*
X12857357Y32311002D01*
X12877884Y32089467D01*
X12877885Y32089465D01*
X12938769Y31875479D01*
X12938775Y31875464D01*
X13037938Y31676319D01*
X13037943Y31676311D01*
X13172020Y31498764D01*
X13336437Y31348879D01*
X13336439Y31348877D01*
X13525595Y31231757D01*
X13525596Y31231757D01*
X13525599Y31231755D01*
X13733060Y31151384D01*
X13951757Y31110502D01*
X13951759Y31110502D01*
X14174241Y31110502D01*
X14174243Y31110502D01*
X14392940Y31151384D01*
X14600401Y31231755D01*
X14789562Y31348878D01*
X14953981Y31498766D01*
X15088058Y31676313D01*
X15187229Y31875474D01*
X15248115Y32089466D01*
X15268643Y32311002D01*
X15248115Y32532538D01*
X15187229Y32746530D01*
X15187224Y32746541D01*
X15088061Y32945686D01*
X15088056Y32945694D01*
X14953979Y33123241D01*
X14789562Y33273126D01*
X14789560Y33273128D01*
X14600404Y33390248D01*
X14600398Y33390250D01*
X14392940Y33470620D01*
X14174243Y33511502D01*
X13951757Y33511502D01*
X13733060Y33470620D01*
X13601864Y33419795D01*
X13525601Y33390250D01*
X13525595Y33390248D01*
X13336439Y33273128D01*
X13336437Y33273126D01*
X13172020Y33123241D01*
X13037943Y32945694D01*
X13037938Y32945686D01*
X12938775Y32746541D01*
X12938769Y32746526D01*
X12877885Y32532540D01*
X12877884Y32532538D01*
X12857357Y32311003D01*
X12857357Y32311002D01*
X500Y32311002D01*
X500Y33805500D01*
X20185Y33872539D01*
X72989Y33918294D01*
X124500Y33929500D01*
X29415409Y33929500D01*
X29482448Y33909815D01*
G37*
G04 #@! TD.AperFunction*
G04 #@! TD*
M02*
