M48
; DRILL file {KiCad 7.0.9-7.0.9~ubuntu22.04.1} date Fri Dec 29 17:38:49 2023
; FORMAT={2:4/ absolute / inch / suppress leading zeros}
; #@! TF.CreationDate,2023-12-29T17:38:49+00:00
; #@! TF.GenerationSoftware,Kicad,Pcbnew,7.0.9-7.0.9~ubuntu22.04.1
; #@! TF.FileFunction,MixedPlating,1,2
FMAT,2
INCH,TZ
; #@! TA.AperFunction,Plated,PTH,ComponentDrill
T1C0.0118
; #@! TA.AperFunction,Plated,PTH,ViaDrill
T2C0.0157
; #@! TA.AperFunction,Plated,PTH,ComponentDrill
T3C0.0276
; #@! TA.AperFunction,Plated,PTH,ComponentDrill
T4C0.0402
%
G90
G05
T1
X3893Y11135
X3893Y10781
X3893Y9644
X3893Y9290
X7318Y11135
X7318Y10761
X7318Y10387
X7318Y9644
X7318Y9270
X7318Y8896
T2
X1006Y6780
X1106Y5980
X1806Y6780
X2606Y6780
X3506Y6780
X4306Y6780
X5106Y6780
X7213Y3260
X7217Y3606
X7220Y4689
X7220Y3965
X7224Y4323
X7303Y6799
X7567Y4661
X7571Y3969
X7571Y3618
X7571Y3272
X7575Y4319
X7921Y4673
X7925Y3980
X7925Y3630
X7925Y3283
X7929Y4331
X8035Y2075
X8134Y6799
X8256Y1307
X8272Y4665
X8276Y3972
X8276Y3622
X8276Y3276
X8280Y4323
X8429Y2087
X8626Y4677
X8630Y3984
X8630Y3634
X8630Y3287
X8634Y4335
X8815Y2094
X8969Y4677
X8972Y3984
X8972Y3634
X8972Y3287
X8976Y4335
X9323Y4689
X9327Y3996
X9327Y3646
X9327Y3299
X9331Y4346
X9433Y6831
X9665Y4697
X9669Y4004
X9669Y3654
X9669Y3307
X9673Y4354
X10020Y4709
X10024Y4016
X10024Y3665
X10024Y3319
X10028Y4366
X10059Y5272
X10157Y6902
T3
X2030Y1780
X2041Y4669
X3056Y10821
X3056Y9321
X5537Y12721
X8156Y10421
X8156Y8921
T4
X6116Y7504
X6116Y6504
X6116Y5504
X6116Y4504
X6116Y3504
X6116Y2504
X6116Y1504
X6116Y504
X11116Y7504
X11116Y6504
X11116Y5504
X11116Y4504
X11116Y3504
X11116Y2504
X11116Y1504
X11116Y504
T0
M30
