G04 #@! TF.GenerationSoftware,KiCad,Pcbnew,7.0.9-7.0.9~ubuntu22.04.1*
G04 #@! TF.CreationDate,2023-12-29T18:17:52+00:00*
G04 #@! TF.ProjectId,driver_test,64726976-6572-45f7-9465-73742e6b6963,rev?*
G04 #@! TF.SameCoordinates,Original*
G04 #@! TF.FileFunction,Legend,Bot*
G04 #@! TF.FilePolarity,Positive*
%FSLAX46Y46*%
G04 Gerber Fmt 4.6, Leading zero omitted, Abs format (unit mm)*
G04 Created by KiCad (PCBNEW 7.0.9-7.0.9~ubuntu22.04.1) date 2023-12-29 18:17:52*
%MOMM*%
%LPD*%
G01*
G04 APERTURE LIST*
%ADD10C,0.150000*%
%ADD11C,0.200000*%
G04 APERTURE END LIST*
D10*
X6311541Y31948778D02*
X6311541Y31348778D01*
X6311541Y31348778D02*
X6511541Y31777349D01*
X6511541Y31777349D02*
X6711541Y31348778D01*
X6711541Y31348778D02*
X6711541Y31948778D01*
X7311540Y31948778D02*
X6968683Y31948778D01*
X7140112Y31948778D02*
X7140112Y31348778D01*
X7140112Y31348778D02*
X7082969Y31434492D01*
X7082969Y31434492D02*
X7025826Y31491635D01*
X7025826Y31491635D02*
X6968683Y31520206D01*
X8960541Y28205773D02*
X8960541Y27605773D01*
X8960541Y27605773D02*
X9160541Y28034344D01*
X9160541Y28034344D02*
X9360541Y27605773D01*
X9360541Y27605773D02*
X9360541Y28205773D01*
X9617683Y27662916D02*
X9646255Y27634344D01*
X9646255Y27634344D02*
X9703398Y27605773D01*
X9703398Y27605773D02*
X9846255Y27605773D01*
X9846255Y27605773D02*
X9903398Y27634344D01*
X9903398Y27634344D02*
X9931969Y27662916D01*
X9931969Y27662916D02*
X9960540Y27720059D01*
X9960540Y27720059D02*
X9960540Y27777201D01*
X9960540Y27777201D02*
X9931969Y27862916D01*
X9931969Y27862916D02*
X9589112Y28205773D01*
X9589112Y28205773D02*
X9960540Y28205773D01*
D11*
G04 #@! TO.C,M1*
X10190000Y31850003D02*
X10190000Y30850001D01*
X10190000Y31850003D02*
X19290000Y31850003D01*
X10190000Y28750000D02*
X19290000Y28750000D01*
G04 #@! TO.C,M2*
X10265000Y28085001D02*
X10265000Y27084999D01*
X10265000Y28085001D02*
X19365000Y28085001D01*
X10265000Y24984998D02*
X19365000Y24984998D01*
G04 #@! TD*
M02*
